M48
; DRILL file {KiCad 5.1.5-52549c5~84~ubuntu18.04.1} date Sun Jan 19 21:35:27 2020
; FORMAT={2:4/ absolute / inch / suppress leading zeros}
; #@! TF.CreationDate,2020-01-19T21:35:27+01:00
; #@! TF.GenerationSoftware,Kicad,Pcbnew,5.1.5-52549c5~84~ubuntu18.04.1
; #@! TF.FileFunction,Plated,1,2,Blind
FMAT,2
INCH,TZ
T1C0.0079
%
G90
G05
T1
X52445Y-33850
X52445Y-34638
X52698Y-33850
X52698Y-34638
X52952Y-33850
X52952Y-34638
X53206Y-33850
X53206Y-34638
X53346Y-27602
X53346Y-28390
X53459Y-33850
X53459Y-34638
X53592Y-27602
X53592Y-28390
X53713Y-33850
X53713Y-34638
X53838Y-27602
X53838Y-28390
X53966Y-33850
X53966Y-34638
X54084Y-27602
X54084Y-28390
X54220Y-33850
X54220Y-34638
X54330Y-27602
X54330Y-28390
X54473Y-33850
X54473Y-34638
X54576Y-27602
X54576Y-28390
X54727Y-33850
X54727Y-34638
X54822Y-27602
X54822Y-28390
X54980Y-33850
X54980Y-34638
X55068Y-27602
X55068Y-28390
X55314Y-27602
X55314Y-28390
X55559Y-27602
X55559Y-28390
X55805Y-27602
X55805Y-28390
X56051Y-27602
X56051Y-28390
X56297Y-27602
X56297Y-28390
X56543Y-27602
X56543Y-28390
X56789Y-27602
X56789Y-28390
X57035Y-27602
X57035Y-28390
X57047Y-33850
X57047Y-34638
X57281Y-27602
X57281Y-28390
X57287Y-33850
X57287Y-34638
X57526Y-33850
X57526Y-34638
X57526Y-27602
X57526Y-28390
X57766Y-33850
X57766Y-34638
X57772Y-27602
X57772Y-28390
X58005Y-33850
X58005Y-34638
X58018Y-27602
X58018Y-28390
X58244Y-33850
X58244Y-34638
X58264Y-27602
X58264Y-28390
X58484Y-33850
X58484Y-34638
X58510Y-27602
X58510Y-28390
X58723Y-33850
X58723Y-34638
X58756Y-27602
X58756Y-28390
X58963Y-33850
X58963Y-34638
X59202Y-33850
X59202Y-34638
X59442Y-33850
X59442Y-34638
X59681Y-33850
X59681Y-34638
T0
M30
