M48
; DRILL file {KiCad 5.1.5-52549c5~84~ubuntu18.04.1} date dom 02 feb 2020 23:02:06 CET
; FORMAT={2:4/ absolute / inch / suppress leading zeros}
; #@! TF.CreationDate,2020-02-02T23:02:06+01:00
; #@! TF.GenerationSoftware,Kicad,Pcbnew,5.1.5-52549c5~84~ubuntu18.04.1
; #@! TF.FileFunction,Plated,1,4,PTH
FMAT,2
INCH,TZ
T1C0.0118
T2C0.0157
T3C0.0402
%
G90
G05
T1
X51723Y-35397
X51723Y-35737
X51723Y-36013
X51723Y-36722
X51723Y-36997
X51723Y-37297
X52046Y-38690
X52098Y-35737
X52098Y-36013
X52098Y-36722
X52098Y-36997
X52101Y-33907
X52420Y-38690
X52473Y-35397
X52473Y-35737
X52473Y-36013
X52473Y-36722
X52473Y-36997
X52473Y-37297
X52476Y-33907
X52659Y-24186
X52659Y-24462
X52659Y-25170
X52659Y-25446
X52659Y-25710
X52663Y-23919
X52795Y-38690
X52847Y-35737
X52847Y-36013
X52847Y-36722
X52847Y-36997
X52850Y-33907
X52986Y-24186
X52986Y-24462
X52986Y-25170
X52986Y-25446
X52986Y-25710
X52990Y-23919
X53170Y-38690
X53222Y-35397
X53222Y-35737
X53222Y-36013
X53222Y-36722
X53222Y-36997
X53222Y-37297
X53225Y-33907
X53314Y-24186
X53314Y-24462
X53314Y-25170
X53314Y-25446
X53314Y-25710
X53318Y-23919
X53585Y-37320
X53597Y-35737
X53597Y-36013
X53597Y-36722
X53597Y-36997
X53641Y-24186
X53641Y-24462
X53641Y-25170
X53641Y-25446
X53641Y-25710
X53645Y-23919
X53753Y-35395
X53946Y-35111
X53950Y-34222
X53960Y-37320
X53968Y-24186
X53968Y-24462
X53968Y-25170
X53968Y-25446
X53968Y-25710
X53972Y-35737
X53972Y-36013
X53972Y-36722
X53972Y-36997
X53972Y-23919
X54069Y-35403
X54262Y-35119
X54266Y-34230
X54296Y-24186
X54296Y-24462
X54296Y-25170
X54296Y-25446
X54296Y-25710
X54300Y-23919
X54335Y-37320
X54346Y-35737
X54346Y-36013
X54346Y-36722
X54346Y-36997
X54456Y-35403
X54623Y-24186
X54623Y-24462
X54623Y-25170
X54623Y-25446
X54623Y-25710
X54627Y-23919
X54649Y-35119
X54653Y-34230
X54709Y-37320
X54721Y-35737
X54721Y-36013
X54721Y-36722
X54721Y-36997
X54842Y-35403
X54950Y-24186
X54950Y-24462
X54950Y-25170
X54950Y-25446
X55035Y-35119
X55039Y-34230
X55084Y-37300
X55096Y-35737
X55096Y-36013
X55096Y-36722
X55096Y-36997
X55151Y-35489
X55278Y-24186
X55278Y-24462
X55278Y-25170
X55278Y-25446
X55375Y-35942
X55395Y-36789
X55407Y-35690
X55458Y-37025
X55458Y-37297
X55458Y-37597
X55605Y-24186
X55605Y-24462
X55605Y-25170
X55605Y-25446
X55608Y-35930
X55643Y-35686
X55643Y-36800
X55755Y-37305
X55755Y-37605
X55858Y-36197
X55858Y-36497
X55932Y-24186
X55932Y-24462
X55932Y-25170
X55932Y-25446
X56058Y-37297
X56058Y-37597
X56064Y-36367
X56258Y-36197
X56258Y-36497
X56260Y-24186
X56260Y-24462
X56260Y-25170
X56260Y-25446
X56358Y-37297
X56358Y-37597
X56490Y-35686
X56501Y-36812
X56521Y-35942
X56587Y-24186
X56587Y-24462
X56587Y-25170
X56587Y-25446
X56658Y-37297
X56658Y-37597
X56663Y-37029
X56738Y-35698
X56745Y-36812
X56753Y-35946
X56914Y-24186
X56914Y-24462
X56914Y-25170
X56914Y-25446
X56954Y-35489
X56955Y-37297
X56998Y-36730
X56998Y-37005
X57025Y-35730
X57025Y-36005
X57116Y-34190
X57155Y-35115
X57218Y-35415
X57242Y-24186
X57242Y-24462
X57242Y-25170
X57242Y-25446
X57341Y-35737
X57341Y-36013
X57341Y-36722
X57341Y-36997
X57349Y-37300
X57432Y-34198
X57471Y-35123
X57534Y-35423
X57565Y-25741
X57569Y-23871
X57569Y-24186
X57569Y-24462
X57569Y-25170
X57569Y-25446
X57724Y-37300
X57728Y-35737
X57728Y-36013
X57728Y-36722
X57728Y-36997
X57818Y-34198
X57858Y-35123
X57892Y-25741
X57896Y-23871
X57896Y-24186
X57896Y-24462
X57896Y-25170
X57896Y-25446
X57921Y-35423
X58098Y-37300
X58114Y-35737
X58114Y-36013
X58114Y-36722
X58114Y-36997
X58205Y-34198
X58219Y-25741
X58223Y-23871
X58224Y-24186
X58224Y-24462
X58224Y-25170
X58224Y-25446
X58244Y-35123
X58307Y-35423
X58473Y-37300
X58501Y-35737
X58501Y-36013
X58501Y-36722
X58501Y-36997
X58547Y-25741
X58550Y-23871
X58551Y-24186
X58551Y-24462
X58551Y-25170
X58551Y-25446
X58874Y-25741
X58878Y-23871
X58878Y-24186
X58878Y-24462
X58878Y-25170
X58878Y-25446
X58887Y-35397
X58887Y-35737
X58887Y-36013
X58887Y-36722
X58887Y-36997
X58887Y-37297
X58971Y-38690
X58991Y-33926
X59201Y-25741
X59205Y-23871
X59206Y-24186
X59206Y-24462
X59206Y-25170
X59206Y-25446
X59274Y-35737
X59274Y-36013
X59274Y-36722
X59274Y-36997
X59346Y-38690
X59365Y-33926
X59529Y-25741
X59532Y-23871
X59533Y-24186
X59533Y-24462
X59533Y-25170
X59533Y-25446
X59660Y-35397
X59660Y-35737
X59660Y-36013
X59660Y-36722
X59660Y-36997
X59660Y-37297
X59720Y-38690
X59740Y-33926
X60047Y-35737
X60047Y-36013
X60047Y-36722
X60047Y-36997
X60095Y-38690
X60115Y-33926
X60433Y-35397
X60433Y-35737
X60433Y-36013
X60433Y-36722
X60433Y-36997
X60433Y-37297
T2
X51820Y-31407
X51840Y-30773
X51844Y-30253
X51871Y-29478
X51883Y-28584
X51911Y-32023
X51911Y-32746
X51911Y-33470
X51919Y-27710
X52344Y-32035
X52344Y-32758
X52344Y-33482
X52592Y-27521
X53190Y-28592
X53206Y-29045
X53269Y-28045
X53352Y-30218
X53608Y-32027
X54053Y-32060
X54525Y-30163
X54832Y-28895
X54832Y-29265
X55175Y-30135
X55403Y-28954
X55407Y-29304
X55921Y-29304
X56068Y-30442
X56127Y-28155
X56434Y-29304
X56714Y-31387
X56757Y-31832
X56848Y-29883
X56962Y-32575
X57348Y-29403
X58454Y-29919
X58738Y-28194
X58907Y-29919
X59454Y-27568
X59726Y-30025
X59789Y-27722
X60222Y-30352
X60222Y-31075
X60222Y-31799
X60222Y-32522
X60222Y-33245
X60281Y-29192
X60304Y-28076
X60304Y-28600
T3
X52564Y-28257
X52564Y-29257
X52564Y-30257
X52564Y-31257
T0
M30
