%TF.GenerationSoftware,KiCad,Pcbnew,5.1.5-52549c5~84~ubuntu18.04.1*%
%TF.CreationDate,2020-03-03T14:54:20+01:00*%
%TF.ProjectId,HMC_RF_IPE,484d435f-5246-45f4-9950-452e6b696361,rev?*%
%TF.SameCoordinates,Original*%
%TF.FileFunction,Soldermask,Bot*%
%TF.FilePolarity,Negative*%
%FSLAX46Y46*%
G04 Gerber Fmt 4.6, Leading zero omitted, Abs format (unit mm)*
G04 Created by KiCad (PCBNEW 5.1.5-52549c5~84~ubuntu18.04.1) date 2020-03-03 14:54:20*
%MOMM*%
%LPD*%
G04 APERTURE LIST*
%ADD10C,0.100000*%
%ADD11C,3.000000*%
G04 APERTURE END LIST*
D10*
G36*
X136393410Y-97953200D02*
G01*
X130143410Y-97953200D01*
X130143410Y-86793200D01*
X136393410Y-86793200D01*
X136393410Y-97953200D01*
G37*
X136393410Y-97953200D02*
X130143410Y-97953200D01*
X130143410Y-86793200D01*
X136393410Y-86793200D01*
X136393410Y-97953200D01*
G36*
X154703410Y-97953200D02*
G01*
X148453410Y-97953200D01*
X148453410Y-86793200D01*
X154703410Y-86793200D01*
X154703410Y-97953200D01*
G37*
X154703410Y-97953200D02*
X148453410Y-97953200D01*
X148453410Y-86793200D01*
X154703410Y-86793200D01*
X154703410Y-97953200D01*
G36*
X152613410Y-68613200D02*
G01*
X146363410Y-68613200D01*
X146363410Y-57453200D01*
X152613410Y-57453200D01*
X152613410Y-68613200D01*
G37*
X152613410Y-68613200D02*
X146363410Y-68613200D01*
X146363410Y-57453200D01*
X152613410Y-57453200D01*
X152613410Y-68613200D01*
G36*
X138463410Y-68673200D02*
G01*
X132213410Y-68673200D01*
X132213410Y-57513200D01*
X138463410Y-57513200D01*
X138463410Y-68673200D01*
G37*
X138463410Y-68673200D02*
X132213410Y-68673200D01*
X132213410Y-57513200D01*
X138463410Y-57513200D01*
X138463410Y-68673200D01*
D11*
X154673410Y-62983200D02*
X131813410Y-62993200D01*
X140393410Y-92373200D02*
X130103410Y-92373200D01*
X154433410Y-92363200D02*
X144403410Y-92373200D01*
D10*
G36*
X153854410Y-97949200D02*
G01*
X148672410Y-97949200D01*
X148672410Y-95437200D01*
X153854410Y-95437200D01*
X153854410Y-97949200D01*
G37*
G36*
X136134410Y-97949200D02*
G01*
X130952410Y-97949200D01*
X130952410Y-95437200D01*
X136134410Y-95437200D01*
X136134410Y-97949200D01*
G37*
G36*
X143076809Y-91447201D02*
G01*
X143079211Y-91471587D01*
X143086324Y-91495036D01*
X143097875Y-91516647D01*
X143113420Y-91535589D01*
X143132362Y-91551134D01*
X143153973Y-91562685D01*
X143176954Y-91569656D01*
X143183925Y-91592637D01*
X143195476Y-91614248D01*
X143211021Y-91633190D01*
X143229963Y-91648735D01*
X143251574Y-91660286D01*
X143275023Y-91667399D01*
X143299409Y-91669801D01*
X144230810Y-91669801D01*
X144230810Y-93076599D01*
X143299409Y-93076599D01*
X143275023Y-93079001D01*
X143251574Y-93086114D01*
X143229963Y-93097665D01*
X143211021Y-93113210D01*
X143195476Y-93132152D01*
X143183925Y-93153763D01*
X143176954Y-93176744D01*
X143153973Y-93183715D01*
X143132362Y-93195266D01*
X143113420Y-93210811D01*
X143097875Y-93229753D01*
X143086324Y-93251364D01*
X143079211Y-93274813D01*
X143076809Y-93299199D01*
X143076809Y-94230600D01*
X141670011Y-94230600D01*
X141670011Y-93299199D01*
X141667609Y-93274813D01*
X141660496Y-93251364D01*
X141648945Y-93229753D01*
X141633400Y-93210811D01*
X141614458Y-93195266D01*
X141592847Y-93183715D01*
X141569866Y-93176744D01*
X141562895Y-93153763D01*
X141551344Y-93132152D01*
X141535799Y-93113210D01*
X141516857Y-93097665D01*
X141495246Y-93086114D01*
X141471797Y-93079001D01*
X141447411Y-93076599D01*
X140516010Y-93076599D01*
X140516010Y-91669801D01*
X141447411Y-91669801D01*
X141471797Y-91667399D01*
X141495246Y-91660286D01*
X141516857Y-91648735D01*
X141535799Y-91633190D01*
X141551344Y-91614248D01*
X141562895Y-91592637D01*
X141569866Y-91569656D01*
X141592847Y-91562685D01*
X141614458Y-91551134D01*
X141633400Y-91535589D01*
X141648945Y-91516647D01*
X141660496Y-91495036D01*
X141667609Y-91471587D01*
X141670011Y-91447201D01*
X141670011Y-90515800D01*
X143076809Y-90515800D01*
X143076809Y-91447201D01*
G37*
G36*
X153849410Y-92678200D02*
G01*
X151397410Y-92678200D01*
X151397410Y-92068200D01*
X153849410Y-92068200D01*
X153849410Y-92678200D01*
G37*
G36*
X133404410Y-92668200D02*
G01*
X130952410Y-92668200D01*
X130952410Y-92058200D01*
X133404410Y-92058200D01*
X133404410Y-92668200D01*
G37*
G36*
X153854410Y-89309200D02*
G01*
X148672410Y-89309200D01*
X148672410Y-86797200D01*
X153854410Y-86797200D01*
X153854410Y-89309200D01*
G37*
G36*
X136134410Y-89309200D02*
G01*
X130952410Y-89309200D01*
X130952410Y-86797200D01*
X136134410Y-86797200D01*
X136134410Y-89309200D01*
G37*
G36*
X143926076Y-85034200D02*
G01*
X141154076Y-85034200D01*
X141154076Y-83912200D01*
X143926076Y-83912200D01*
X143926076Y-85034200D01*
G37*
G36*
X140162743Y-85034200D02*
G01*
X137390743Y-85034200D01*
X137390743Y-83912200D01*
X140162743Y-83912200D01*
X140162743Y-85034200D01*
G37*
G36*
X151259410Y-85034200D02*
G01*
X148487410Y-85034200D01*
X148487410Y-83912200D01*
X151259410Y-83912200D01*
X151259410Y-85034200D01*
G37*
G36*
X136399410Y-85034200D02*
G01*
X133627410Y-85034200D01*
X133627410Y-83912200D01*
X136399410Y-83912200D01*
X136399410Y-85034200D01*
G37*
G36*
X136409410Y-83384200D02*
G01*
X133637410Y-83384200D01*
X133637410Y-82262200D01*
X136409410Y-82262200D01*
X136409410Y-83384200D01*
G37*
G36*
X151734758Y-81924116D02*
G01*
X151755377Y-81930371D01*
X151774373Y-81940524D01*
X151791028Y-81954192D01*
X151804696Y-81970847D01*
X151814849Y-81989843D01*
X151821104Y-82010462D01*
X151823820Y-82038040D01*
X151823820Y-82546760D01*
X151821104Y-82574338D01*
X151814849Y-82594957D01*
X151804696Y-82613953D01*
X151791028Y-82630608D01*
X151774373Y-82644276D01*
X151755377Y-82654429D01*
X151734758Y-82660684D01*
X151707180Y-82663400D01*
X151248460Y-82663400D01*
X151220882Y-82660684D01*
X151200263Y-82654429D01*
X151181267Y-82644276D01*
X151164612Y-82630608D01*
X151150944Y-82613953D01*
X151140791Y-82594957D01*
X151134536Y-82574338D01*
X151131820Y-82546760D01*
X151131820Y-82038040D01*
X151134536Y-82010462D01*
X151140791Y-81989843D01*
X151150944Y-81970847D01*
X151164612Y-81954192D01*
X151181267Y-81940524D01*
X151200263Y-81930371D01*
X151220882Y-81924116D01*
X151248460Y-81921400D01*
X151707180Y-81921400D01*
X151734758Y-81924116D01*
G37*
G36*
X150764758Y-81924116D02*
G01*
X150785377Y-81930371D01*
X150804373Y-81940524D01*
X150821028Y-81954192D01*
X150834696Y-81970847D01*
X150844849Y-81989843D01*
X150851104Y-82010462D01*
X150853820Y-82038040D01*
X150853820Y-82546760D01*
X150851104Y-82574338D01*
X150844849Y-82594957D01*
X150834696Y-82613953D01*
X150821028Y-82630608D01*
X150804373Y-82644276D01*
X150785377Y-82654429D01*
X150764758Y-82660684D01*
X150737180Y-82663400D01*
X150278460Y-82663400D01*
X150250882Y-82660684D01*
X150230263Y-82654429D01*
X150211267Y-82644276D01*
X150194612Y-82630608D01*
X150180944Y-82613953D01*
X150170791Y-82594957D01*
X150164536Y-82574338D01*
X150161820Y-82546760D01*
X150161820Y-82038040D01*
X150164536Y-82010462D01*
X150170791Y-81989843D01*
X150180944Y-81970847D01*
X150194612Y-81954192D01*
X150211267Y-81940524D01*
X150230263Y-81930371D01*
X150250882Y-81924116D01*
X150278460Y-81921400D01*
X150737180Y-81921400D01*
X150764758Y-81924116D01*
G37*
G36*
X148580758Y-81924116D02*
G01*
X148601377Y-81930371D01*
X148620373Y-81940524D01*
X148637028Y-81954192D01*
X148650696Y-81970847D01*
X148660849Y-81989843D01*
X148667104Y-82010462D01*
X148669820Y-82038040D01*
X148669820Y-82546760D01*
X148667104Y-82574338D01*
X148660849Y-82594957D01*
X148650696Y-82613953D01*
X148637028Y-82630608D01*
X148620373Y-82644276D01*
X148601377Y-82654429D01*
X148580758Y-82660684D01*
X148553180Y-82663400D01*
X148094460Y-82663400D01*
X148066882Y-82660684D01*
X148046263Y-82654429D01*
X148027267Y-82644276D01*
X148010612Y-82630608D01*
X147996944Y-82613953D01*
X147986791Y-82594957D01*
X147980536Y-82574338D01*
X147977820Y-82546760D01*
X147977820Y-82038040D01*
X147980536Y-82010462D01*
X147986791Y-81989843D01*
X147996944Y-81970847D01*
X148010612Y-81954192D01*
X148027267Y-81940524D01*
X148046263Y-81930371D01*
X148066882Y-81924116D01*
X148094460Y-81921400D01*
X148553180Y-81921400D01*
X148580758Y-81924116D01*
G37*
G36*
X149550758Y-81924116D02*
G01*
X149571377Y-81930371D01*
X149590373Y-81940524D01*
X149607028Y-81954192D01*
X149620696Y-81970847D01*
X149630849Y-81989843D01*
X149637104Y-82010462D01*
X149639820Y-82038040D01*
X149639820Y-82546760D01*
X149637104Y-82574338D01*
X149630849Y-82594957D01*
X149620696Y-82613953D01*
X149607028Y-82630608D01*
X149590373Y-82644276D01*
X149571377Y-82654429D01*
X149550758Y-82660684D01*
X149523180Y-82663400D01*
X149064460Y-82663400D01*
X149036882Y-82660684D01*
X149016263Y-82654429D01*
X148997267Y-82644276D01*
X148980612Y-82630608D01*
X148966944Y-82613953D01*
X148956791Y-82594957D01*
X148950536Y-82574338D01*
X148947820Y-82546760D01*
X148947820Y-82038040D01*
X148950536Y-82010462D01*
X148956791Y-81989843D01*
X148966944Y-81970847D01*
X148980612Y-81954192D01*
X148997267Y-81940524D01*
X149016263Y-81930371D01*
X149036882Y-81924116D01*
X149064460Y-81921400D01*
X149523180Y-81921400D01*
X149550758Y-81924116D01*
G37*
G36*
X146958410Y-82218999D02*
G01*
X145383210Y-82218999D01*
X145383210Y-77211401D01*
X146958410Y-77211401D01*
X146958410Y-82218999D01*
G37*
G36*
X141319610Y-82218999D02*
G01*
X139744410Y-82218999D01*
X139744410Y-77211401D01*
X141319610Y-77211401D01*
X141319610Y-82218999D01*
G37*
G36*
X138895348Y-81319916D02*
G01*
X138915967Y-81326171D01*
X138934963Y-81336324D01*
X138951618Y-81349992D01*
X138965286Y-81366647D01*
X138975439Y-81385643D01*
X138981694Y-81406262D01*
X138984410Y-81433840D01*
X138984410Y-81892560D01*
X138981694Y-81920138D01*
X138975439Y-81940757D01*
X138965286Y-81959753D01*
X138951618Y-81976408D01*
X138934963Y-81990076D01*
X138915967Y-82000229D01*
X138895348Y-82006484D01*
X138867770Y-82009200D01*
X138359050Y-82009200D01*
X138331472Y-82006484D01*
X138310853Y-82000229D01*
X138291857Y-81990076D01*
X138275202Y-81976408D01*
X138261534Y-81959753D01*
X138251381Y-81940757D01*
X138245126Y-81920138D01*
X138242410Y-81892560D01*
X138242410Y-81433840D01*
X138245126Y-81406262D01*
X138251381Y-81385643D01*
X138261534Y-81366647D01*
X138275202Y-81349992D01*
X138291857Y-81336324D01*
X138310853Y-81326171D01*
X138331472Y-81319916D01*
X138359050Y-81317200D01*
X138867770Y-81317200D01*
X138895348Y-81319916D01*
G37*
G36*
X138895348Y-80349916D02*
G01*
X138915967Y-80356171D01*
X138934963Y-80366324D01*
X138951618Y-80379992D01*
X138965286Y-80396647D01*
X138975439Y-80415643D01*
X138981694Y-80436262D01*
X138984410Y-80463840D01*
X138984410Y-80922560D01*
X138981694Y-80950138D01*
X138975439Y-80970757D01*
X138965286Y-80989753D01*
X138951618Y-81006408D01*
X138934963Y-81020076D01*
X138915967Y-81030229D01*
X138895348Y-81036484D01*
X138867770Y-81039200D01*
X138359050Y-81039200D01*
X138331472Y-81036484D01*
X138310853Y-81030229D01*
X138291857Y-81020076D01*
X138275202Y-81006408D01*
X138261534Y-80989753D01*
X138251381Y-80970757D01*
X138245126Y-80950138D01*
X138242410Y-80922560D01*
X138242410Y-80463840D01*
X138245126Y-80436262D01*
X138251381Y-80415643D01*
X138261534Y-80396647D01*
X138275202Y-80379992D01*
X138291857Y-80366324D01*
X138310853Y-80356171D01*
X138331472Y-80349916D01*
X138359050Y-80347200D01*
X138867770Y-80347200D01*
X138895348Y-80349916D01*
G37*
G36*
X137283001Y-79526285D02*
G01*
X137316979Y-79536593D01*
X137348300Y-79553334D01*
X137375749Y-79575861D01*
X137398276Y-79603310D01*
X137415017Y-79634631D01*
X137425325Y-79668609D01*
X137429410Y-79710090D01*
X137429410Y-80311310D01*
X137425325Y-80352791D01*
X137415017Y-80386769D01*
X137398276Y-80418090D01*
X137375749Y-80445539D01*
X137348300Y-80468066D01*
X137316979Y-80484807D01*
X137283001Y-80495115D01*
X137241520Y-80499200D01*
X136565300Y-80499200D01*
X136523819Y-80495115D01*
X136489841Y-80484807D01*
X136458520Y-80468066D01*
X136431071Y-80445539D01*
X136408544Y-80418090D01*
X136391803Y-80386769D01*
X136381495Y-80352791D01*
X136377410Y-80311310D01*
X136377410Y-79710090D01*
X136381495Y-79668609D01*
X136391803Y-79634631D01*
X136408544Y-79603310D01*
X136431071Y-79575861D01*
X136458520Y-79553334D01*
X136489841Y-79536593D01*
X136523819Y-79526285D01*
X136565300Y-79522200D01*
X137241520Y-79522200D01*
X137283001Y-79526285D01*
G37*
G36*
X133732494Y-78354992D02*
G01*
X133822892Y-78372973D01*
X133885934Y-78399086D01*
X134015983Y-78452954D01*
X134189756Y-78569065D01*
X134337545Y-78716854D01*
X134453656Y-78890627D01*
X134483853Y-78963529D01*
X134530801Y-79076871D01*
X134533637Y-79083719D01*
X134574410Y-79288699D01*
X134574410Y-79497701D01*
X134563344Y-79553334D01*
X134533637Y-79702682D01*
X134520487Y-79734429D01*
X134453656Y-79895773D01*
X134337545Y-80069546D01*
X134189756Y-80217335D01*
X134015983Y-80333446D01*
X133950985Y-80360369D01*
X133822892Y-80413427D01*
X133769305Y-80424086D01*
X133617911Y-80454200D01*
X133408909Y-80454200D01*
X133257515Y-80424086D01*
X133203928Y-80413427D01*
X133075835Y-80360369D01*
X133010837Y-80333446D01*
X132837064Y-80217335D01*
X132689275Y-80069546D01*
X132573164Y-79895773D01*
X132506333Y-79734429D01*
X132493183Y-79702682D01*
X132463476Y-79553334D01*
X132452410Y-79497701D01*
X132452410Y-79288699D01*
X132493183Y-79083719D01*
X132496020Y-79076871D01*
X132542967Y-78963529D01*
X132573164Y-78890627D01*
X132689275Y-78716854D01*
X132837064Y-78569065D01*
X133010837Y-78452954D01*
X133140886Y-78399086D01*
X133203928Y-78372973D01*
X133294326Y-78354992D01*
X133408909Y-78332200D01*
X133617911Y-78332200D01*
X133732494Y-78354992D01*
G37*
G36*
X149535348Y-79028916D02*
G01*
X149555967Y-79035171D01*
X149574963Y-79045324D01*
X149591618Y-79058992D01*
X149605286Y-79075647D01*
X149615439Y-79094643D01*
X149621694Y-79115262D01*
X149624410Y-79142840D01*
X149624410Y-79651560D01*
X149621694Y-79679138D01*
X149615439Y-79699757D01*
X149605286Y-79718753D01*
X149591618Y-79735408D01*
X149574963Y-79749076D01*
X149555967Y-79759229D01*
X149535348Y-79765484D01*
X149507770Y-79768200D01*
X149049050Y-79768200D01*
X149021472Y-79765484D01*
X149000853Y-79759229D01*
X148981857Y-79749076D01*
X148965202Y-79735408D01*
X148951534Y-79718753D01*
X148941381Y-79699757D01*
X148935126Y-79679138D01*
X148932410Y-79651560D01*
X148932410Y-79142840D01*
X148935126Y-79115262D01*
X148941381Y-79094643D01*
X148951534Y-79075647D01*
X148965202Y-79058992D01*
X148981857Y-79045324D01*
X149000853Y-79035171D01*
X149021472Y-79028916D01*
X149049050Y-79026200D01*
X149507770Y-79026200D01*
X149535348Y-79028916D01*
G37*
G36*
X148565348Y-79028916D02*
G01*
X148585967Y-79035171D01*
X148604963Y-79045324D01*
X148621618Y-79058992D01*
X148635286Y-79075647D01*
X148645439Y-79094643D01*
X148651694Y-79115262D01*
X148654410Y-79142840D01*
X148654410Y-79651560D01*
X148651694Y-79679138D01*
X148645439Y-79699757D01*
X148635286Y-79718753D01*
X148621618Y-79735408D01*
X148604963Y-79749076D01*
X148585967Y-79759229D01*
X148565348Y-79765484D01*
X148537770Y-79768200D01*
X148079050Y-79768200D01*
X148051472Y-79765484D01*
X148030853Y-79759229D01*
X148011857Y-79749076D01*
X147995202Y-79735408D01*
X147981534Y-79718753D01*
X147971381Y-79699757D01*
X147965126Y-79679138D01*
X147962410Y-79651560D01*
X147962410Y-79142840D01*
X147965126Y-79115262D01*
X147971381Y-79094643D01*
X147981534Y-79075647D01*
X147995202Y-79058992D01*
X148011857Y-79045324D01*
X148030853Y-79035171D01*
X148051472Y-79028916D01*
X148079050Y-79026200D01*
X148537770Y-79026200D01*
X148565348Y-79028916D01*
G37*
G36*
X151754758Y-79004116D02*
G01*
X151775377Y-79010371D01*
X151794373Y-79020524D01*
X151811028Y-79034192D01*
X151824696Y-79050847D01*
X151834849Y-79069843D01*
X151841104Y-79090462D01*
X151843820Y-79118040D01*
X151843820Y-79626760D01*
X151841104Y-79654338D01*
X151834849Y-79674957D01*
X151824696Y-79693953D01*
X151811028Y-79710608D01*
X151794373Y-79724276D01*
X151775377Y-79734429D01*
X151754758Y-79740684D01*
X151727180Y-79743400D01*
X151268460Y-79743400D01*
X151240882Y-79740684D01*
X151220263Y-79734429D01*
X151201267Y-79724276D01*
X151184612Y-79710608D01*
X151170944Y-79693953D01*
X151160791Y-79674957D01*
X151154536Y-79654338D01*
X151151820Y-79626760D01*
X151151820Y-79118040D01*
X151154536Y-79090462D01*
X151160791Y-79069843D01*
X151170944Y-79050847D01*
X151184612Y-79034192D01*
X151201267Y-79020524D01*
X151220263Y-79010371D01*
X151240882Y-79004116D01*
X151268460Y-79001400D01*
X151727180Y-79001400D01*
X151754758Y-79004116D01*
G37*
G36*
X150784758Y-79004116D02*
G01*
X150805377Y-79010371D01*
X150824373Y-79020524D01*
X150841028Y-79034192D01*
X150854696Y-79050847D01*
X150864849Y-79069843D01*
X150871104Y-79090462D01*
X150873820Y-79118040D01*
X150873820Y-79626760D01*
X150871104Y-79654338D01*
X150864849Y-79674957D01*
X150854696Y-79693953D01*
X150841028Y-79710608D01*
X150824373Y-79724276D01*
X150805377Y-79734429D01*
X150784758Y-79740684D01*
X150757180Y-79743400D01*
X150298460Y-79743400D01*
X150270882Y-79740684D01*
X150250263Y-79734429D01*
X150231267Y-79724276D01*
X150214612Y-79710608D01*
X150200944Y-79693953D01*
X150190791Y-79674957D01*
X150184536Y-79654338D01*
X150181820Y-79626760D01*
X150181820Y-79118040D01*
X150184536Y-79090462D01*
X150190791Y-79069843D01*
X150200944Y-79050847D01*
X150214612Y-79034192D01*
X150231267Y-79020524D01*
X150250263Y-79010371D01*
X150270882Y-79004116D01*
X150298460Y-79001400D01*
X150757180Y-79001400D01*
X150784758Y-79004116D01*
G37*
G36*
X138955348Y-78324916D02*
G01*
X138975967Y-78331171D01*
X138994963Y-78341324D01*
X139011618Y-78354992D01*
X139025286Y-78371647D01*
X139035439Y-78390643D01*
X139041694Y-78411262D01*
X139044410Y-78438840D01*
X139044410Y-78897560D01*
X139041694Y-78925138D01*
X139035439Y-78945757D01*
X139025286Y-78964753D01*
X139011618Y-78981408D01*
X138994963Y-78995076D01*
X138975967Y-79005229D01*
X138955348Y-79011484D01*
X138927770Y-79014200D01*
X138419050Y-79014200D01*
X138391472Y-79011484D01*
X138370853Y-79005229D01*
X138351857Y-78995076D01*
X138335202Y-78981408D01*
X138321534Y-78964753D01*
X138311381Y-78945757D01*
X138305126Y-78925138D01*
X138302410Y-78897560D01*
X138302410Y-78438840D01*
X138305126Y-78411262D01*
X138311381Y-78390643D01*
X138321534Y-78371647D01*
X138335202Y-78354992D01*
X138351857Y-78341324D01*
X138370853Y-78331171D01*
X138391472Y-78324916D01*
X138419050Y-78322200D01*
X138927770Y-78322200D01*
X138955348Y-78324916D01*
G37*
G36*
X137283001Y-77951285D02*
G01*
X137316979Y-77961593D01*
X137348300Y-77978334D01*
X137375749Y-78000861D01*
X137398276Y-78028310D01*
X137415017Y-78059631D01*
X137425325Y-78093609D01*
X137429410Y-78135090D01*
X137429410Y-78736310D01*
X137425325Y-78777791D01*
X137415017Y-78811769D01*
X137398276Y-78843090D01*
X137375749Y-78870539D01*
X137348300Y-78893066D01*
X137316979Y-78909807D01*
X137283001Y-78920115D01*
X137241520Y-78924200D01*
X136565300Y-78924200D01*
X136523819Y-78920115D01*
X136489841Y-78909807D01*
X136458520Y-78893066D01*
X136431071Y-78870539D01*
X136408544Y-78843090D01*
X136391803Y-78811769D01*
X136381495Y-78777791D01*
X136377410Y-78736310D01*
X136377410Y-78135090D01*
X136381495Y-78093609D01*
X136391803Y-78059631D01*
X136408544Y-78028310D01*
X136431071Y-78000861D01*
X136458520Y-77978334D01*
X136489841Y-77961593D01*
X136523819Y-77951285D01*
X136565300Y-77947200D01*
X137241520Y-77947200D01*
X137283001Y-77951285D01*
G37*
G36*
X138955348Y-77354916D02*
G01*
X138975967Y-77361171D01*
X138994963Y-77371324D01*
X139011618Y-77384992D01*
X139025286Y-77401647D01*
X139035439Y-77420643D01*
X139041694Y-77441262D01*
X139044410Y-77468840D01*
X139044410Y-77927560D01*
X139041694Y-77955138D01*
X139035439Y-77975757D01*
X139025286Y-77994753D01*
X139011618Y-78011408D01*
X138994963Y-78025076D01*
X138975967Y-78035229D01*
X138955348Y-78041484D01*
X138927770Y-78044200D01*
X138419050Y-78044200D01*
X138391472Y-78041484D01*
X138370853Y-78035229D01*
X138351857Y-78025076D01*
X138335202Y-78011408D01*
X138321534Y-77994753D01*
X138311381Y-77975757D01*
X138305126Y-77955138D01*
X138302410Y-77927560D01*
X138302410Y-77468840D01*
X138305126Y-77441262D01*
X138311381Y-77420643D01*
X138321534Y-77401647D01*
X138335202Y-77384992D01*
X138351857Y-77371324D01*
X138370853Y-77361171D01*
X138391472Y-77354916D01*
X138419050Y-77352200D01*
X138927770Y-77352200D01*
X138955348Y-77354916D01*
G37*
G36*
X133754564Y-75819382D02*
G01*
X133822892Y-75832973D01*
X133896660Y-75863529D01*
X134015983Y-75912954D01*
X134189756Y-76029065D01*
X134337545Y-76176854D01*
X134453656Y-76350627D01*
X134533637Y-76543719D01*
X134573251Y-76742871D01*
X134574410Y-76748701D01*
X134574410Y-76957699D01*
X134533637Y-77162682D01*
X134502770Y-77237200D01*
X134453656Y-77355773D01*
X134337545Y-77529546D01*
X134189756Y-77677335D01*
X134015983Y-77793446D01*
X133919437Y-77833436D01*
X133822892Y-77873427D01*
X133754564Y-77887018D01*
X133617911Y-77914200D01*
X133408909Y-77914200D01*
X133272256Y-77887018D01*
X133203928Y-77873427D01*
X133107383Y-77833436D01*
X133010837Y-77793446D01*
X132837064Y-77677335D01*
X132689275Y-77529546D01*
X132573164Y-77355773D01*
X132524050Y-77237200D01*
X132493183Y-77162682D01*
X132452410Y-76957699D01*
X132452410Y-76748701D01*
X132453570Y-76742871D01*
X132493183Y-76543719D01*
X132573164Y-76350627D01*
X132689275Y-76176854D01*
X132837064Y-76029065D01*
X133010837Y-75912954D01*
X133130160Y-75863529D01*
X133203928Y-75832973D01*
X133272256Y-75819382D01*
X133408909Y-75792200D01*
X133617911Y-75792200D01*
X133754564Y-75819382D01*
G37*
G36*
X148505348Y-77066916D02*
G01*
X148525967Y-77073171D01*
X148544963Y-77083324D01*
X148561618Y-77096992D01*
X148575286Y-77113647D01*
X148585439Y-77132643D01*
X148591694Y-77153262D01*
X148594410Y-77180840D01*
X148594410Y-77689560D01*
X148591694Y-77717138D01*
X148585439Y-77737757D01*
X148575286Y-77756753D01*
X148561618Y-77773408D01*
X148544963Y-77787076D01*
X148525967Y-77797229D01*
X148505348Y-77803484D01*
X148477770Y-77806200D01*
X148019050Y-77806200D01*
X147991472Y-77803484D01*
X147970853Y-77797229D01*
X147951857Y-77787076D01*
X147935202Y-77773408D01*
X147921534Y-77756753D01*
X147911381Y-77737757D01*
X147905126Y-77717138D01*
X147902410Y-77689560D01*
X147902410Y-77180840D01*
X147905126Y-77153262D01*
X147911381Y-77132643D01*
X147921534Y-77113647D01*
X147935202Y-77096992D01*
X147951857Y-77083324D01*
X147970853Y-77073171D01*
X147991472Y-77066916D01*
X148019050Y-77064200D01*
X148477770Y-77064200D01*
X148505348Y-77066916D01*
G37*
G36*
X149475348Y-77066916D02*
G01*
X149495967Y-77073171D01*
X149514963Y-77083324D01*
X149531618Y-77096992D01*
X149545286Y-77113647D01*
X149555439Y-77132643D01*
X149561694Y-77153262D01*
X149564410Y-77180840D01*
X149564410Y-77689560D01*
X149561694Y-77717138D01*
X149555439Y-77737757D01*
X149545286Y-77756753D01*
X149531618Y-77773408D01*
X149514963Y-77787076D01*
X149495967Y-77797229D01*
X149475348Y-77803484D01*
X149447770Y-77806200D01*
X148989050Y-77806200D01*
X148961472Y-77803484D01*
X148940853Y-77797229D01*
X148921857Y-77787076D01*
X148905202Y-77773408D01*
X148891534Y-77756753D01*
X148881381Y-77737757D01*
X148875126Y-77717138D01*
X148872410Y-77689560D01*
X148872410Y-77180840D01*
X148875126Y-77153262D01*
X148881381Y-77132643D01*
X148891534Y-77113647D01*
X148905202Y-77096992D01*
X148921857Y-77083324D01*
X148940853Y-77073171D01*
X148961472Y-77066916D01*
X148989050Y-77064200D01*
X149447770Y-77064200D01*
X149475348Y-77066916D01*
G37*
G36*
X151765348Y-77056916D02*
G01*
X151785967Y-77063171D01*
X151804963Y-77073324D01*
X151821618Y-77086992D01*
X151835286Y-77103647D01*
X151845439Y-77122643D01*
X151851694Y-77143262D01*
X151854410Y-77170840D01*
X151854410Y-77679560D01*
X151851694Y-77707138D01*
X151845439Y-77727757D01*
X151835286Y-77746753D01*
X151821618Y-77763408D01*
X151804963Y-77777076D01*
X151785967Y-77787229D01*
X151765348Y-77793484D01*
X151737770Y-77796200D01*
X151279050Y-77796200D01*
X151251472Y-77793484D01*
X151230853Y-77787229D01*
X151211857Y-77777076D01*
X151195202Y-77763408D01*
X151181534Y-77746753D01*
X151171381Y-77727757D01*
X151165126Y-77707138D01*
X151162410Y-77679560D01*
X151162410Y-77170840D01*
X151165126Y-77143262D01*
X151171381Y-77122643D01*
X151181534Y-77103647D01*
X151195202Y-77086992D01*
X151211857Y-77073324D01*
X151230853Y-77063171D01*
X151251472Y-77056916D01*
X151279050Y-77054200D01*
X151737770Y-77054200D01*
X151765348Y-77056916D01*
G37*
G36*
X150795348Y-77056916D02*
G01*
X150815967Y-77063171D01*
X150834963Y-77073324D01*
X150851618Y-77086992D01*
X150865286Y-77103647D01*
X150875439Y-77122643D01*
X150881694Y-77143262D01*
X150884410Y-77170840D01*
X150884410Y-77679560D01*
X150881694Y-77707138D01*
X150875439Y-77727757D01*
X150865286Y-77746753D01*
X150851618Y-77763408D01*
X150834963Y-77777076D01*
X150815967Y-77787229D01*
X150795348Y-77793484D01*
X150767770Y-77796200D01*
X150309050Y-77796200D01*
X150281472Y-77793484D01*
X150260853Y-77787229D01*
X150241857Y-77777076D01*
X150225202Y-77763408D01*
X150211534Y-77746753D01*
X150201381Y-77727757D01*
X150195126Y-77707138D01*
X150192410Y-77679560D01*
X150192410Y-77170840D01*
X150195126Y-77143262D01*
X150201381Y-77122643D01*
X150211534Y-77103647D01*
X150225202Y-77086992D01*
X150241857Y-77073324D01*
X150260853Y-77063171D01*
X150281472Y-77056916D01*
X150309050Y-77054200D01*
X150767770Y-77054200D01*
X150795348Y-77056916D01*
G37*
G36*
X137515348Y-76694916D02*
G01*
X137535967Y-76701171D01*
X137554963Y-76711324D01*
X137571618Y-76724992D01*
X137585286Y-76741647D01*
X137595439Y-76760643D01*
X137601694Y-76781262D01*
X137604410Y-76808840D01*
X137604410Y-77317560D01*
X137601694Y-77345138D01*
X137595439Y-77365757D01*
X137585286Y-77384753D01*
X137571618Y-77401408D01*
X137554963Y-77415076D01*
X137535967Y-77425229D01*
X137515348Y-77431484D01*
X137487770Y-77434200D01*
X137029050Y-77434200D01*
X137001472Y-77431484D01*
X136980853Y-77425229D01*
X136961857Y-77415076D01*
X136945202Y-77401408D01*
X136931534Y-77384753D01*
X136921381Y-77365757D01*
X136915126Y-77345138D01*
X136912410Y-77317560D01*
X136912410Y-76808840D01*
X136915126Y-76781262D01*
X136921381Y-76760643D01*
X136931534Y-76741647D01*
X136945202Y-76724992D01*
X136961857Y-76711324D01*
X136980853Y-76701171D01*
X137001472Y-76694916D01*
X137029050Y-76692200D01*
X137487770Y-76692200D01*
X137515348Y-76694916D01*
G37*
G36*
X136545348Y-76694916D02*
G01*
X136565967Y-76701171D01*
X136584963Y-76711324D01*
X136601618Y-76724992D01*
X136615286Y-76741647D01*
X136625439Y-76760643D01*
X136631694Y-76781262D01*
X136634410Y-76808840D01*
X136634410Y-77317560D01*
X136631694Y-77345138D01*
X136625439Y-77365757D01*
X136615286Y-77384753D01*
X136601618Y-77401408D01*
X136584963Y-77415076D01*
X136565967Y-77425229D01*
X136545348Y-77431484D01*
X136517770Y-77434200D01*
X136059050Y-77434200D01*
X136031472Y-77431484D01*
X136010853Y-77425229D01*
X135991857Y-77415076D01*
X135975202Y-77401408D01*
X135961534Y-77384753D01*
X135951381Y-77365757D01*
X135945126Y-77345138D01*
X135942410Y-77317560D01*
X135942410Y-76808840D01*
X135945126Y-76781262D01*
X135951381Y-76760643D01*
X135961534Y-76741647D01*
X135975202Y-76724992D01*
X135991857Y-76711324D01*
X136010853Y-76701171D01*
X136031472Y-76694916D01*
X136059050Y-76692200D01*
X136517770Y-76692200D01*
X136545348Y-76694916D01*
G37*
G36*
X147919410Y-76594200D02*
G01*
X145147410Y-76594200D01*
X145147410Y-75472200D01*
X147919410Y-75472200D01*
X147919410Y-76594200D01*
G37*
G36*
X138463001Y-75196285D02*
G01*
X138496979Y-75206593D01*
X138528300Y-75223334D01*
X138555749Y-75245861D01*
X138578276Y-75273310D01*
X138595017Y-75304631D01*
X138605325Y-75338609D01*
X138609410Y-75380090D01*
X138609410Y-75981310D01*
X138605325Y-76022791D01*
X138595017Y-76056769D01*
X138578276Y-76088090D01*
X138555749Y-76115539D01*
X138528300Y-76138066D01*
X138496979Y-76154807D01*
X138463001Y-76165115D01*
X138421520Y-76169200D01*
X137745300Y-76169200D01*
X137703819Y-76165115D01*
X137669841Y-76154807D01*
X137638520Y-76138066D01*
X137611071Y-76115539D01*
X137588544Y-76088090D01*
X137571803Y-76056769D01*
X137561495Y-76022791D01*
X137557410Y-75981310D01*
X137557410Y-75380090D01*
X137561495Y-75338609D01*
X137571803Y-75304631D01*
X137588544Y-75273310D01*
X137611071Y-75245861D01*
X137638520Y-75223334D01*
X137669841Y-75206593D01*
X137703819Y-75196285D01*
X137745300Y-75192200D01*
X138421520Y-75192200D01*
X138463001Y-75196285D01*
G37*
G36*
X136923001Y-75186285D02*
G01*
X136956979Y-75196593D01*
X136988300Y-75213334D01*
X137015749Y-75235861D01*
X137038276Y-75263310D01*
X137055017Y-75294631D01*
X137065325Y-75328609D01*
X137069410Y-75370090D01*
X137069410Y-75971310D01*
X137065325Y-76012791D01*
X137055017Y-76046769D01*
X137038276Y-76078090D01*
X137015749Y-76105539D01*
X136988300Y-76128066D01*
X136956979Y-76144807D01*
X136923001Y-76155115D01*
X136881520Y-76159200D01*
X136205300Y-76159200D01*
X136163819Y-76155115D01*
X136129841Y-76144807D01*
X136098520Y-76128066D01*
X136071071Y-76105539D01*
X136048544Y-76078090D01*
X136031803Y-76046769D01*
X136021495Y-76012791D01*
X136017410Y-75971310D01*
X136017410Y-75370090D01*
X136021495Y-75328609D01*
X136031803Y-75294631D01*
X136048544Y-75263310D01*
X136071071Y-75235861D01*
X136098520Y-75213334D01*
X136129841Y-75196593D01*
X136163819Y-75186285D01*
X136205300Y-75182200D01*
X136881520Y-75182200D01*
X136923001Y-75186285D01*
G37*
G36*
X140680348Y-75174916D02*
G01*
X140700967Y-75181171D01*
X140719963Y-75191324D01*
X140736618Y-75204992D01*
X140750286Y-75221647D01*
X140760439Y-75240643D01*
X140766694Y-75261262D01*
X140769410Y-75288840D01*
X140769410Y-75797560D01*
X140766694Y-75825138D01*
X140760439Y-75845757D01*
X140750286Y-75864753D01*
X140736618Y-75881408D01*
X140719963Y-75895076D01*
X140700967Y-75905229D01*
X140680348Y-75911484D01*
X140652770Y-75914200D01*
X140194050Y-75914200D01*
X140166472Y-75911484D01*
X140145853Y-75905229D01*
X140126857Y-75895076D01*
X140110202Y-75881408D01*
X140096534Y-75864753D01*
X140086381Y-75845757D01*
X140080126Y-75825138D01*
X140077410Y-75797560D01*
X140077410Y-75288840D01*
X140080126Y-75261262D01*
X140086381Y-75240643D01*
X140096534Y-75221647D01*
X140110202Y-75204992D01*
X140126857Y-75191324D01*
X140145853Y-75181171D01*
X140166472Y-75174916D01*
X140194050Y-75172200D01*
X140652770Y-75172200D01*
X140680348Y-75174916D01*
G37*
G36*
X139710348Y-75174916D02*
G01*
X139730967Y-75181171D01*
X139749963Y-75191324D01*
X139766618Y-75204992D01*
X139780286Y-75221647D01*
X139790439Y-75240643D01*
X139796694Y-75261262D01*
X139799410Y-75288840D01*
X139799410Y-75797560D01*
X139796694Y-75825138D01*
X139790439Y-75845757D01*
X139780286Y-75864753D01*
X139766618Y-75881408D01*
X139749963Y-75895076D01*
X139730967Y-75905229D01*
X139710348Y-75911484D01*
X139682770Y-75914200D01*
X139224050Y-75914200D01*
X139196472Y-75911484D01*
X139175853Y-75905229D01*
X139156857Y-75895076D01*
X139140202Y-75881408D01*
X139126534Y-75864753D01*
X139116381Y-75845757D01*
X139110126Y-75825138D01*
X139107410Y-75797560D01*
X139107410Y-75288840D01*
X139110126Y-75261262D01*
X139116381Y-75240643D01*
X139126534Y-75221647D01*
X139140202Y-75204992D01*
X139156857Y-75191324D01*
X139175853Y-75181171D01*
X139196472Y-75174916D01*
X139224050Y-75172200D01*
X139682770Y-75172200D01*
X139710348Y-75174916D01*
G37*
G36*
X133754564Y-73279382D02*
G01*
X133822892Y-73292973D01*
X133919437Y-73332963D01*
X134015983Y-73372954D01*
X134189756Y-73489065D01*
X134337545Y-73636854D01*
X134453656Y-73810627D01*
X134470565Y-73851450D01*
X134533637Y-74003718D01*
X134543945Y-74055539D01*
X134574410Y-74208699D01*
X134574410Y-74417701D01*
X134549976Y-74540539D01*
X134542770Y-74576769D01*
X134533637Y-74622681D01*
X134453656Y-74815773D01*
X134337545Y-74989546D01*
X134189756Y-75137335D01*
X134015983Y-75253446D01*
X133930534Y-75288840D01*
X133822892Y-75333427D01*
X133774865Y-75342980D01*
X133617911Y-75374200D01*
X133408909Y-75374200D01*
X133251955Y-75342980D01*
X133203928Y-75333427D01*
X133096286Y-75288840D01*
X133010837Y-75253446D01*
X132837064Y-75137335D01*
X132689275Y-74989546D01*
X132573164Y-74815773D01*
X132493183Y-74622681D01*
X132484051Y-74576769D01*
X132476844Y-74540539D01*
X132452410Y-74417701D01*
X132452410Y-74208699D01*
X132482875Y-74055539D01*
X132493183Y-74003718D01*
X132556255Y-73851450D01*
X132573164Y-73810627D01*
X132689275Y-73636854D01*
X132837064Y-73489065D01*
X133010837Y-73372954D01*
X133107383Y-73332963D01*
X133203928Y-73292973D01*
X133272256Y-73279382D01*
X133408909Y-73252200D01*
X133617911Y-73252200D01*
X133754564Y-73279382D01*
G37*
G36*
X150189410Y-74984200D02*
G01*
X147417410Y-74984200D01*
X147417410Y-73862200D01*
X150189410Y-73862200D01*
X150189410Y-74984200D01*
G37*
G36*
X152093001Y-73716285D02*
G01*
X152126979Y-73726593D01*
X152158300Y-73743334D01*
X152185749Y-73765861D01*
X152208276Y-73793310D01*
X152225017Y-73824631D01*
X152235325Y-73858609D01*
X152239410Y-73900090D01*
X152239410Y-74501310D01*
X152235325Y-74542791D01*
X152225017Y-74576769D01*
X152208276Y-74608090D01*
X152185749Y-74635539D01*
X152158300Y-74658066D01*
X152126979Y-74674807D01*
X152093001Y-74685115D01*
X152051520Y-74689200D01*
X151375300Y-74689200D01*
X151333819Y-74685115D01*
X151299841Y-74674807D01*
X151268520Y-74658066D01*
X151241071Y-74635539D01*
X151218544Y-74608090D01*
X151201803Y-74576769D01*
X151191495Y-74542791D01*
X151187410Y-74501310D01*
X151187410Y-73900090D01*
X151191495Y-73858609D01*
X151201803Y-73824631D01*
X151218544Y-73793310D01*
X151241071Y-73765861D01*
X151268520Y-73743334D01*
X151299841Y-73726593D01*
X151333819Y-73716285D01*
X151375300Y-73712200D01*
X152051520Y-73712200D01*
X152093001Y-73716285D01*
G37*
G36*
X138463001Y-73621285D02*
G01*
X138496979Y-73631593D01*
X138528300Y-73648334D01*
X138555749Y-73670861D01*
X138578276Y-73698310D01*
X138595017Y-73729631D01*
X138605325Y-73763609D01*
X138609410Y-73805090D01*
X138609410Y-74406310D01*
X138605325Y-74447791D01*
X138595017Y-74481769D01*
X138578276Y-74513090D01*
X138555749Y-74540539D01*
X138528300Y-74563066D01*
X138496979Y-74579807D01*
X138463001Y-74590115D01*
X138421520Y-74594200D01*
X137745300Y-74594200D01*
X137703819Y-74590115D01*
X137669841Y-74579807D01*
X137638520Y-74563066D01*
X137611071Y-74540539D01*
X137588544Y-74513090D01*
X137571803Y-74481769D01*
X137561495Y-74447791D01*
X137557410Y-74406310D01*
X137557410Y-73805090D01*
X137561495Y-73763609D01*
X137571803Y-73729631D01*
X137588544Y-73698310D01*
X137611071Y-73670861D01*
X137638520Y-73648334D01*
X137669841Y-73631593D01*
X137703819Y-73621285D01*
X137745300Y-73617200D01*
X138421520Y-73617200D01*
X138463001Y-73621285D01*
G37*
G36*
X136923001Y-73611285D02*
G01*
X136956979Y-73621593D01*
X136988300Y-73638334D01*
X137015749Y-73660861D01*
X137038276Y-73688310D01*
X137055017Y-73719631D01*
X137065325Y-73753609D01*
X137069410Y-73795090D01*
X137069410Y-74396310D01*
X137065325Y-74437791D01*
X137055017Y-74471769D01*
X137038276Y-74503090D01*
X137015749Y-74530539D01*
X136988300Y-74553066D01*
X136956979Y-74569807D01*
X136923001Y-74580115D01*
X136881520Y-74584200D01*
X136205300Y-74584200D01*
X136163819Y-74580115D01*
X136129841Y-74569807D01*
X136098520Y-74553066D01*
X136071071Y-74530539D01*
X136048544Y-74503090D01*
X136031803Y-74471769D01*
X136021495Y-74437791D01*
X136017410Y-74396310D01*
X136017410Y-73795090D01*
X136021495Y-73753609D01*
X136031803Y-73719631D01*
X136048544Y-73688310D01*
X136071071Y-73660861D01*
X136098520Y-73638334D01*
X136129841Y-73621593D01*
X136163819Y-73611285D01*
X136205300Y-73607200D01*
X136881520Y-73607200D01*
X136923001Y-73611285D01*
G37*
G36*
X146793001Y-73061285D02*
G01*
X146826979Y-73071593D01*
X146858300Y-73088334D01*
X146885749Y-73110861D01*
X146908276Y-73138310D01*
X146925017Y-73169631D01*
X146935325Y-73203609D01*
X146939410Y-73245090D01*
X146939410Y-73921310D01*
X146935325Y-73962791D01*
X146925017Y-73996769D01*
X146908276Y-74028090D01*
X146885749Y-74055539D01*
X146858300Y-74078066D01*
X146826979Y-74094807D01*
X146793001Y-74105115D01*
X146751520Y-74109200D01*
X146150300Y-74109200D01*
X146108819Y-74105115D01*
X146074841Y-74094807D01*
X146043520Y-74078066D01*
X146016071Y-74055539D01*
X145993544Y-74028090D01*
X145976803Y-73996769D01*
X145966495Y-73962791D01*
X145962410Y-73921310D01*
X145962410Y-73245090D01*
X145966495Y-73203609D01*
X145976803Y-73169631D01*
X145993544Y-73138310D01*
X146016071Y-73110861D01*
X146043520Y-73088334D01*
X146074841Y-73071593D01*
X146108819Y-73061285D01*
X146150300Y-73057200D01*
X146751520Y-73057200D01*
X146793001Y-73061285D01*
G37*
G36*
X145218001Y-73061285D02*
G01*
X145251979Y-73071593D01*
X145283300Y-73088334D01*
X145310749Y-73110861D01*
X145333276Y-73138310D01*
X145350017Y-73169631D01*
X145360325Y-73203609D01*
X145364410Y-73245090D01*
X145364410Y-73921310D01*
X145360325Y-73962791D01*
X145350017Y-73996769D01*
X145333276Y-74028090D01*
X145310749Y-74055539D01*
X145283300Y-74078066D01*
X145251979Y-74094807D01*
X145218001Y-74105115D01*
X145176520Y-74109200D01*
X144575300Y-74109200D01*
X144533819Y-74105115D01*
X144499841Y-74094807D01*
X144468520Y-74078066D01*
X144441071Y-74055539D01*
X144418544Y-74028090D01*
X144401803Y-73996769D01*
X144391495Y-73962791D01*
X144387410Y-73921310D01*
X144387410Y-73245090D01*
X144391495Y-73203609D01*
X144401803Y-73169631D01*
X144418544Y-73138310D01*
X144441071Y-73110861D01*
X144468520Y-73088334D01*
X144499841Y-73071593D01*
X144533819Y-73061285D01*
X144575300Y-73057200D01*
X145176520Y-73057200D01*
X145218001Y-73061285D01*
G37*
G36*
X143382014Y-72271547D02*
G01*
X143418554Y-72282632D01*
X143452231Y-72300633D01*
X143481751Y-72324859D01*
X143505977Y-72354379D01*
X143523978Y-72388056D01*
X143535063Y-72424596D01*
X143539410Y-72468738D01*
X143539410Y-73417662D01*
X143535063Y-73461804D01*
X143523978Y-73498344D01*
X143505977Y-73532021D01*
X143481751Y-73561541D01*
X143452231Y-73585767D01*
X143418554Y-73603768D01*
X143382014Y-73614853D01*
X143337872Y-73619200D01*
X141888948Y-73619200D01*
X141844806Y-73614853D01*
X141808266Y-73603768D01*
X141774589Y-73585767D01*
X141745069Y-73561541D01*
X141720843Y-73532021D01*
X141702842Y-73498344D01*
X141691757Y-73461804D01*
X141687410Y-73417662D01*
X141687410Y-72468738D01*
X141691757Y-72424596D01*
X141702842Y-72388056D01*
X141720843Y-72354379D01*
X141745069Y-72324859D01*
X141774589Y-72300633D01*
X141808266Y-72282632D01*
X141844806Y-72271547D01*
X141888948Y-72267200D01*
X143337872Y-72267200D01*
X143382014Y-72271547D01*
G37*
G36*
X149972014Y-72261547D02*
G01*
X150008554Y-72272632D01*
X150042231Y-72290633D01*
X150071751Y-72314859D01*
X150095977Y-72344379D01*
X150113978Y-72378056D01*
X150125063Y-72414596D01*
X150129410Y-72458738D01*
X150129410Y-73407662D01*
X150125063Y-73451804D01*
X150113978Y-73488344D01*
X150095977Y-73522021D01*
X150071751Y-73551541D01*
X150042231Y-73575767D01*
X150008554Y-73593768D01*
X149972014Y-73604853D01*
X149927872Y-73609200D01*
X148478948Y-73609200D01*
X148434806Y-73604853D01*
X148398266Y-73593768D01*
X148364589Y-73575767D01*
X148335069Y-73551541D01*
X148310843Y-73522021D01*
X148292842Y-73488344D01*
X148281757Y-73451804D01*
X148277410Y-73407662D01*
X148277410Y-72458738D01*
X148281757Y-72414596D01*
X148292842Y-72378056D01*
X148310843Y-72344379D01*
X148335069Y-72314859D01*
X148364589Y-72290633D01*
X148398266Y-72272632D01*
X148434806Y-72261547D01*
X148478948Y-72257200D01*
X149927872Y-72257200D01*
X149972014Y-72261547D01*
G37*
G36*
X136505348Y-72444916D02*
G01*
X136525967Y-72451171D01*
X136544963Y-72461324D01*
X136561618Y-72474992D01*
X136575286Y-72491647D01*
X136585439Y-72510643D01*
X136591694Y-72531262D01*
X136594410Y-72558840D01*
X136594410Y-73067560D01*
X136591694Y-73095138D01*
X136585439Y-73115757D01*
X136575286Y-73134753D01*
X136561618Y-73151408D01*
X136544963Y-73165076D01*
X136525967Y-73175229D01*
X136505348Y-73181484D01*
X136477770Y-73184200D01*
X136019050Y-73184200D01*
X135991472Y-73181484D01*
X135970853Y-73175229D01*
X135951857Y-73165076D01*
X135935202Y-73151408D01*
X135921534Y-73134753D01*
X135911381Y-73115757D01*
X135905126Y-73095138D01*
X135902410Y-73067560D01*
X135902410Y-72558840D01*
X135905126Y-72531262D01*
X135911381Y-72510643D01*
X135921534Y-72491647D01*
X135935202Y-72474992D01*
X135951857Y-72461324D01*
X135970853Y-72451171D01*
X135991472Y-72444916D01*
X136019050Y-72442200D01*
X136477770Y-72442200D01*
X136505348Y-72444916D01*
G37*
G36*
X137475348Y-72444916D02*
G01*
X137495967Y-72451171D01*
X137514963Y-72461324D01*
X137531618Y-72474992D01*
X137545286Y-72491647D01*
X137555439Y-72510643D01*
X137561694Y-72531262D01*
X137564410Y-72558840D01*
X137564410Y-73067560D01*
X137561694Y-73095138D01*
X137555439Y-73115757D01*
X137545286Y-73134753D01*
X137531618Y-73151408D01*
X137514963Y-73165076D01*
X137495967Y-73175229D01*
X137475348Y-73181484D01*
X137447770Y-73184200D01*
X136989050Y-73184200D01*
X136961472Y-73181484D01*
X136940853Y-73175229D01*
X136921857Y-73165076D01*
X136905202Y-73151408D01*
X136891534Y-73134753D01*
X136881381Y-73115757D01*
X136875126Y-73095138D01*
X136872410Y-73067560D01*
X136872410Y-72558840D01*
X136875126Y-72531262D01*
X136881381Y-72510643D01*
X136891534Y-72491647D01*
X136905202Y-72474992D01*
X136921857Y-72461324D01*
X136940853Y-72451171D01*
X136961472Y-72444916D01*
X136989050Y-72442200D01*
X137447770Y-72442200D01*
X137475348Y-72444916D01*
G37*
G36*
X152093001Y-72141285D02*
G01*
X152126979Y-72151593D01*
X152158300Y-72168334D01*
X152185749Y-72190861D01*
X152208276Y-72218310D01*
X152225017Y-72249631D01*
X152235325Y-72283609D01*
X152239410Y-72325090D01*
X152239410Y-72926310D01*
X152235325Y-72967791D01*
X152225017Y-73001769D01*
X152208276Y-73033090D01*
X152185749Y-73060539D01*
X152158300Y-73083066D01*
X152126979Y-73099807D01*
X152093001Y-73110115D01*
X152051520Y-73114200D01*
X151375300Y-73114200D01*
X151333819Y-73110115D01*
X151299841Y-73099807D01*
X151268520Y-73083066D01*
X151241071Y-73060539D01*
X151218544Y-73033090D01*
X151201803Y-73001769D01*
X151191495Y-72967791D01*
X151187410Y-72926310D01*
X151187410Y-72325090D01*
X151191495Y-72283609D01*
X151201803Y-72249631D01*
X151218544Y-72218310D01*
X151241071Y-72190861D01*
X151268520Y-72168334D01*
X151299841Y-72151593D01*
X151333819Y-72141285D01*
X151375300Y-72137200D01*
X152051520Y-72137200D01*
X152093001Y-72141285D01*
G37*
G36*
X139535348Y-72204916D02*
G01*
X139555967Y-72211171D01*
X139574963Y-72221324D01*
X139591618Y-72234992D01*
X139605286Y-72251647D01*
X139615439Y-72270643D01*
X139621694Y-72291262D01*
X139624410Y-72318840D01*
X139624410Y-72827560D01*
X139621694Y-72855138D01*
X139615439Y-72875757D01*
X139605286Y-72894753D01*
X139591618Y-72911408D01*
X139574963Y-72925076D01*
X139555967Y-72935229D01*
X139535348Y-72941484D01*
X139507770Y-72944200D01*
X139049050Y-72944200D01*
X139021472Y-72941484D01*
X139000853Y-72935229D01*
X138981857Y-72925076D01*
X138965202Y-72911408D01*
X138951534Y-72894753D01*
X138941381Y-72875757D01*
X138935126Y-72855138D01*
X138932410Y-72827560D01*
X138932410Y-72318840D01*
X138935126Y-72291262D01*
X138941381Y-72270643D01*
X138951534Y-72251647D01*
X138965202Y-72234992D01*
X138981857Y-72221324D01*
X139000853Y-72211171D01*
X139021472Y-72204916D01*
X139049050Y-72202200D01*
X139507770Y-72202200D01*
X139535348Y-72204916D01*
G37*
G36*
X138565348Y-72204916D02*
G01*
X138585967Y-72211171D01*
X138604963Y-72221324D01*
X138621618Y-72234992D01*
X138635286Y-72251647D01*
X138645439Y-72270643D01*
X138651694Y-72291262D01*
X138654410Y-72318840D01*
X138654410Y-72827560D01*
X138651694Y-72855138D01*
X138645439Y-72875757D01*
X138635286Y-72894753D01*
X138621618Y-72911408D01*
X138604963Y-72925076D01*
X138585967Y-72935229D01*
X138565348Y-72941484D01*
X138537770Y-72944200D01*
X138079050Y-72944200D01*
X138051472Y-72941484D01*
X138030853Y-72935229D01*
X138011857Y-72925076D01*
X137995202Y-72911408D01*
X137981534Y-72894753D01*
X137971381Y-72875757D01*
X137965126Y-72855138D01*
X137962410Y-72827560D01*
X137962410Y-72318840D01*
X137965126Y-72291262D01*
X137971381Y-72270643D01*
X137981534Y-72251647D01*
X137995202Y-72234992D01*
X138011857Y-72221324D01*
X138030853Y-72211171D01*
X138051472Y-72204916D01*
X138079050Y-72202200D01*
X138537770Y-72202200D01*
X138565348Y-72204916D01*
G37*
G36*
X133754564Y-70739382D02*
G01*
X133822892Y-70752973D01*
X133877921Y-70775767D01*
X134015983Y-70832954D01*
X134189756Y-70949065D01*
X134337545Y-71096854D01*
X134453656Y-71270627D01*
X134533637Y-71463719D01*
X134574410Y-71668699D01*
X134574410Y-71877701D01*
X134554527Y-71977661D01*
X134533637Y-72082682D01*
X134511055Y-72137200D01*
X134453656Y-72275773D01*
X134337545Y-72449546D01*
X134189756Y-72597335D01*
X134015983Y-72713446D01*
X133967498Y-72733529D01*
X133822892Y-72793427D01*
X133764956Y-72804951D01*
X133617911Y-72834200D01*
X133408909Y-72834200D01*
X133261864Y-72804951D01*
X133203928Y-72793427D01*
X133059322Y-72733529D01*
X133010837Y-72713446D01*
X132837064Y-72597335D01*
X132689275Y-72449546D01*
X132573164Y-72275773D01*
X132515765Y-72137200D01*
X132493183Y-72082682D01*
X132472293Y-71977661D01*
X132452410Y-71877701D01*
X132452410Y-71668699D01*
X132493183Y-71463719D01*
X132573164Y-71270627D01*
X132689275Y-71096854D01*
X132837064Y-70949065D01*
X133010837Y-70832954D01*
X133148899Y-70775767D01*
X133203928Y-70752973D01*
X133272256Y-70739382D01*
X133408909Y-70712200D01*
X133617911Y-70712200D01*
X133754564Y-70739382D01*
G37*
G36*
X140965348Y-72094916D02*
G01*
X140985967Y-72101171D01*
X141004963Y-72111324D01*
X141021618Y-72124992D01*
X141035286Y-72141647D01*
X141045439Y-72160643D01*
X141051694Y-72181262D01*
X141054410Y-72208840D01*
X141054410Y-72667560D01*
X141051694Y-72695138D01*
X141045439Y-72715757D01*
X141035286Y-72734753D01*
X141021618Y-72751408D01*
X141004963Y-72765076D01*
X140985967Y-72775229D01*
X140965348Y-72781484D01*
X140937770Y-72784200D01*
X140429050Y-72784200D01*
X140401472Y-72781484D01*
X140380853Y-72775229D01*
X140361857Y-72765076D01*
X140345202Y-72751408D01*
X140331534Y-72734753D01*
X140321381Y-72715757D01*
X140315126Y-72695138D01*
X140312410Y-72667560D01*
X140312410Y-72208840D01*
X140315126Y-72181262D01*
X140321381Y-72160643D01*
X140331534Y-72141647D01*
X140345202Y-72124992D01*
X140361857Y-72111324D01*
X140380853Y-72101171D01*
X140401472Y-72094916D01*
X140429050Y-72092200D01*
X140937770Y-72092200D01*
X140965348Y-72094916D01*
G37*
G36*
X147697010Y-72208000D02*
G01*
X146375810Y-72208000D01*
X146375810Y-71598000D01*
X147697010Y-71598000D01*
X147697010Y-72208000D01*
G37*
G36*
X145411010Y-72208000D02*
G01*
X144089810Y-72208000D01*
X144089810Y-71598000D01*
X145411010Y-71598000D01*
X145411010Y-72208000D01*
G37*
G36*
X136913001Y-71076285D02*
G01*
X136946979Y-71086593D01*
X136978300Y-71103334D01*
X137005749Y-71125861D01*
X137028276Y-71153310D01*
X137045017Y-71184631D01*
X137055325Y-71218609D01*
X137059410Y-71260090D01*
X137059410Y-71861310D01*
X137055325Y-71902791D01*
X137045017Y-71936769D01*
X137028276Y-71968090D01*
X137005749Y-71995539D01*
X136978300Y-72018066D01*
X136946979Y-72034807D01*
X136913001Y-72045115D01*
X136871520Y-72049200D01*
X136195300Y-72049200D01*
X136153819Y-72045115D01*
X136119841Y-72034807D01*
X136088520Y-72018066D01*
X136061071Y-71995539D01*
X136038544Y-71968090D01*
X136021803Y-71936769D01*
X136011495Y-71902791D01*
X136007410Y-71861310D01*
X136007410Y-71260090D01*
X136011495Y-71218609D01*
X136021803Y-71184631D01*
X136038544Y-71153310D01*
X136061071Y-71125861D01*
X136088520Y-71103334D01*
X136119841Y-71086593D01*
X136153819Y-71076285D01*
X136195300Y-71072200D01*
X136871520Y-71072200D01*
X136913001Y-71076285D01*
G37*
G36*
X138565348Y-71104916D02*
G01*
X138585967Y-71111171D01*
X138604963Y-71121324D01*
X138621618Y-71134992D01*
X138635286Y-71151647D01*
X138645439Y-71170643D01*
X138651694Y-71191262D01*
X138654410Y-71218840D01*
X138654410Y-71727560D01*
X138651694Y-71755138D01*
X138645439Y-71775757D01*
X138635286Y-71794753D01*
X138621618Y-71811408D01*
X138604963Y-71825076D01*
X138585967Y-71835229D01*
X138565348Y-71841484D01*
X138537770Y-71844200D01*
X138079050Y-71844200D01*
X138051472Y-71841484D01*
X138030853Y-71835229D01*
X138011857Y-71825076D01*
X137995202Y-71811408D01*
X137981534Y-71794753D01*
X137971381Y-71775757D01*
X137965126Y-71755138D01*
X137962410Y-71727560D01*
X137962410Y-71218840D01*
X137965126Y-71191262D01*
X137971381Y-71170643D01*
X137981534Y-71151647D01*
X137995202Y-71134992D01*
X138011857Y-71121324D01*
X138030853Y-71111171D01*
X138051472Y-71104916D01*
X138079050Y-71102200D01*
X138537770Y-71102200D01*
X138565348Y-71104916D01*
G37*
G36*
X139535348Y-71104916D02*
G01*
X139555967Y-71111171D01*
X139574963Y-71121324D01*
X139591618Y-71134992D01*
X139605286Y-71151647D01*
X139615439Y-71170643D01*
X139621694Y-71191262D01*
X139624410Y-71218840D01*
X139624410Y-71727560D01*
X139621694Y-71755138D01*
X139615439Y-71775757D01*
X139605286Y-71794753D01*
X139591618Y-71811408D01*
X139574963Y-71825076D01*
X139555967Y-71835229D01*
X139535348Y-71841484D01*
X139507770Y-71844200D01*
X139049050Y-71844200D01*
X139021472Y-71841484D01*
X139000853Y-71835229D01*
X138981857Y-71825076D01*
X138965202Y-71811408D01*
X138951534Y-71794753D01*
X138941381Y-71775757D01*
X138935126Y-71755138D01*
X138932410Y-71727560D01*
X138932410Y-71218840D01*
X138935126Y-71191262D01*
X138941381Y-71170643D01*
X138951534Y-71151647D01*
X138965202Y-71134992D01*
X138981857Y-71121324D01*
X139000853Y-71111171D01*
X139021472Y-71104916D01*
X139049050Y-71102200D01*
X139507770Y-71102200D01*
X139535348Y-71104916D01*
G37*
G36*
X140965348Y-71124916D02*
G01*
X140985967Y-71131171D01*
X141004963Y-71141324D01*
X141021618Y-71154992D01*
X141035286Y-71171647D01*
X141045439Y-71190643D01*
X141051694Y-71211262D01*
X141054410Y-71238840D01*
X141054410Y-71697560D01*
X141051694Y-71725138D01*
X141045439Y-71745757D01*
X141035286Y-71764753D01*
X141021618Y-71781408D01*
X141004963Y-71795076D01*
X140985967Y-71805229D01*
X140965348Y-71811484D01*
X140937770Y-71814200D01*
X140429050Y-71814200D01*
X140401472Y-71811484D01*
X140380853Y-71805229D01*
X140361857Y-71795076D01*
X140345202Y-71781408D01*
X140331534Y-71764753D01*
X140321381Y-71745757D01*
X140315126Y-71725138D01*
X140312410Y-71697560D01*
X140312410Y-71238840D01*
X140315126Y-71211262D01*
X140321381Y-71190643D01*
X140331534Y-71171647D01*
X140345202Y-71154992D01*
X140361857Y-71141324D01*
X140380853Y-71131171D01*
X140401472Y-71124916D01*
X140429050Y-71122200D01*
X140937770Y-71122200D01*
X140965348Y-71124916D01*
G37*
G36*
X151555348Y-70954916D02*
G01*
X151575967Y-70961171D01*
X151594963Y-70971324D01*
X151611618Y-70984992D01*
X151625286Y-71001647D01*
X151635439Y-71020643D01*
X151641694Y-71041262D01*
X151644410Y-71068840D01*
X151644410Y-71577560D01*
X151641694Y-71605138D01*
X151635439Y-71625757D01*
X151625286Y-71644753D01*
X151611618Y-71661408D01*
X151594963Y-71675076D01*
X151575967Y-71685229D01*
X151555348Y-71691484D01*
X151527770Y-71694200D01*
X151069050Y-71694200D01*
X151041472Y-71691484D01*
X151020853Y-71685229D01*
X151001857Y-71675076D01*
X150985202Y-71661408D01*
X150971534Y-71644753D01*
X150961381Y-71625757D01*
X150955126Y-71605138D01*
X150952410Y-71577560D01*
X150952410Y-71068840D01*
X150955126Y-71041262D01*
X150961381Y-71020643D01*
X150971534Y-71001647D01*
X150985202Y-70984992D01*
X151001857Y-70971324D01*
X151020853Y-70961171D01*
X151041472Y-70954916D01*
X151069050Y-70952200D01*
X151527770Y-70952200D01*
X151555348Y-70954916D01*
G37*
G36*
X152525348Y-70954916D02*
G01*
X152545967Y-70961171D01*
X152564963Y-70971324D01*
X152581618Y-70984992D01*
X152595286Y-71001647D01*
X152605439Y-71020643D01*
X152611694Y-71041262D01*
X152614410Y-71068840D01*
X152614410Y-71577560D01*
X152611694Y-71605138D01*
X152605439Y-71625757D01*
X152595286Y-71644753D01*
X152581618Y-71661408D01*
X152564963Y-71675076D01*
X152545967Y-71685229D01*
X152525348Y-71691484D01*
X152497770Y-71694200D01*
X152039050Y-71694200D01*
X152011472Y-71691484D01*
X151990853Y-71685229D01*
X151971857Y-71675076D01*
X151955202Y-71661408D01*
X151941534Y-71644753D01*
X151931381Y-71625757D01*
X151925126Y-71605138D01*
X151922410Y-71577560D01*
X151922410Y-71068840D01*
X151925126Y-71041262D01*
X151931381Y-71020643D01*
X151941534Y-71001647D01*
X151955202Y-70984992D01*
X151971857Y-70971324D01*
X151990853Y-70961171D01*
X152011472Y-70954916D01*
X152039050Y-70952200D01*
X152497770Y-70952200D01*
X152525348Y-70954916D01*
G37*
G36*
X147697010Y-71268200D02*
G01*
X146375810Y-71268200D01*
X146375810Y-70658200D01*
X147697010Y-70658200D01*
X147697010Y-71268200D01*
G37*
G36*
X145411010Y-71268200D02*
G01*
X144089810Y-71268200D01*
X144089810Y-70658200D01*
X145411010Y-70658200D01*
X145411010Y-71268200D01*
G37*
G36*
X143382014Y-69471547D02*
G01*
X143418554Y-69482632D01*
X143452231Y-69500633D01*
X143481751Y-69524859D01*
X143505977Y-69554379D01*
X143523978Y-69588056D01*
X143535063Y-69624596D01*
X143539410Y-69668738D01*
X143539410Y-70617662D01*
X143535063Y-70661804D01*
X143523978Y-70698344D01*
X143505977Y-70732021D01*
X143481751Y-70761541D01*
X143452231Y-70785767D01*
X143418554Y-70803768D01*
X143382014Y-70814853D01*
X143337872Y-70819200D01*
X141888948Y-70819200D01*
X141844806Y-70814853D01*
X141808266Y-70803768D01*
X141774589Y-70785767D01*
X141745069Y-70761541D01*
X141720843Y-70732021D01*
X141702842Y-70698344D01*
X141691757Y-70661804D01*
X141687410Y-70617662D01*
X141687410Y-69668738D01*
X141691757Y-69624596D01*
X141702842Y-69588056D01*
X141720843Y-69554379D01*
X141745069Y-69524859D01*
X141774589Y-69500633D01*
X141808266Y-69482632D01*
X141844806Y-69471547D01*
X141888948Y-69467200D01*
X143337872Y-69467200D01*
X143382014Y-69471547D01*
G37*
G36*
X149972014Y-69461547D02*
G01*
X150008554Y-69472632D01*
X150042231Y-69490633D01*
X150071751Y-69514859D01*
X150095977Y-69544379D01*
X150113978Y-69578056D01*
X150125063Y-69614596D01*
X150129410Y-69658738D01*
X150129410Y-70607662D01*
X150125063Y-70651804D01*
X150113978Y-70688344D01*
X150095977Y-70722021D01*
X150071751Y-70751541D01*
X150042231Y-70775767D01*
X150008554Y-70793768D01*
X149972014Y-70804853D01*
X149927872Y-70809200D01*
X148478948Y-70809200D01*
X148434806Y-70804853D01*
X148398266Y-70793768D01*
X148364589Y-70775767D01*
X148335069Y-70751541D01*
X148310843Y-70722021D01*
X148292842Y-70688344D01*
X148281757Y-70651804D01*
X148277410Y-70607662D01*
X148277410Y-69658738D01*
X148281757Y-69614596D01*
X148292842Y-69578056D01*
X148310843Y-69544379D01*
X148335069Y-69514859D01*
X148364589Y-69490633D01*
X148398266Y-69472632D01*
X148434806Y-69461547D01*
X148478948Y-69457200D01*
X149927872Y-69457200D01*
X149972014Y-69461547D01*
G37*
G36*
X141013001Y-69593785D02*
G01*
X141046979Y-69604093D01*
X141078300Y-69620834D01*
X141105749Y-69643361D01*
X141128276Y-69670810D01*
X141145017Y-69702131D01*
X141155325Y-69736109D01*
X141159410Y-69777590D01*
X141159410Y-70453810D01*
X141155325Y-70495291D01*
X141145017Y-70529269D01*
X141128276Y-70560590D01*
X141105749Y-70588039D01*
X141078300Y-70610566D01*
X141046979Y-70627307D01*
X141013001Y-70637615D01*
X140971520Y-70641700D01*
X140370300Y-70641700D01*
X140328819Y-70637615D01*
X140294841Y-70627307D01*
X140263520Y-70610566D01*
X140236071Y-70588039D01*
X140213544Y-70560590D01*
X140196803Y-70529269D01*
X140186495Y-70495291D01*
X140182410Y-70453810D01*
X140182410Y-69777590D01*
X140186495Y-69736109D01*
X140196803Y-69702131D01*
X140213544Y-69670810D01*
X140236071Y-69643361D01*
X140263520Y-69620834D01*
X140294841Y-69604093D01*
X140328819Y-69593785D01*
X140370300Y-69589700D01*
X140971520Y-69589700D01*
X141013001Y-69593785D01*
G37*
G36*
X139438001Y-69593785D02*
G01*
X139471979Y-69604093D01*
X139503300Y-69620834D01*
X139530749Y-69643361D01*
X139553276Y-69670810D01*
X139570017Y-69702131D01*
X139580325Y-69736109D01*
X139584410Y-69777590D01*
X139584410Y-70453810D01*
X139580325Y-70495291D01*
X139570017Y-70529269D01*
X139553276Y-70560590D01*
X139530749Y-70588039D01*
X139503300Y-70610566D01*
X139471979Y-70627307D01*
X139438001Y-70637615D01*
X139396520Y-70641700D01*
X138795300Y-70641700D01*
X138753819Y-70637615D01*
X138719841Y-70627307D01*
X138688520Y-70610566D01*
X138661071Y-70588039D01*
X138638544Y-70560590D01*
X138621803Y-70529269D01*
X138611495Y-70495291D01*
X138607410Y-70453810D01*
X138607410Y-69777590D01*
X138611495Y-69736109D01*
X138621803Y-69702131D01*
X138638544Y-69670810D01*
X138661071Y-69643361D01*
X138688520Y-69620834D01*
X138719841Y-69604093D01*
X138753819Y-69593785D01*
X138795300Y-69589700D01*
X139396520Y-69589700D01*
X139438001Y-69593785D01*
G37*
G36*
X136913001Y-69501285D02*
G01*
X136946979Y-69511593D01*
X136978300Y-69528334D01*
X137005749Y-69550861D01*
X137028276Y-69578310D01*
X137045017Y-69609631D01*
X137055325Y-69643609D01*
X137059410Y-69685090D01*
X137059410Y-70286310D01*
X137055325Y-70327791D01*
X137045017Y-70361769D01*
X137028276Y-70393090D01*
X137005749Y-70420539D01*
X136978300Y-70443066D01*
X136946979Y-70459807D01*
X136913001Y-70470115D01*
X136871520Y-70474200D01*
X136195300Y-70474200D01*
X136153819Y-70470115D01*
X136119841Y-70459807D01*
X136088520Y-70443066D01*
X136061071Y-70420539D01*
X136038544Y-70393090D01*
X136021803Y-70361769D01*
X136011495Y-70327791D01*
X136007410Y-70286310D01*
X136007410Y-69685090D01*
X136011495Y-69643609D01*
X136021803Y-69609631D01*
X136038544Y-69578310D01*
X136061071Y-69550861D01*
X136088520Y-69528334D01*
X136119841Y-69511593D01*
X136153819Y-69501285D01*
X136195300Y-69497200D01*
X136871520Y-69497200D01*
X136913001Y-69501285D01*
G37*
G36*
X147697010Y-70328400D02*
G01*
X146375810Y-70328400D01*
X146375810Y-69718400D01*
X147697010Y-69718400D01*
X147697010Y-70328400D01*
G37*
G36*
X145411010Y-70328400D02*
G01*
X144089810Y-70328400D01*
X144089810Y-69718400D01*
X145411010Y-69718400D01*
X145411010Y-70328400D01*
G37*
G36*
X151564410Y-68609200D02*
G01*
X146382410Y-68609200D01*
X146382410Y-66097200D01*
X151564410Y-66097200D01*
X151564410Y-68609200D01*
G37*
G36*
X138429410Y-68599200D02*
G01*
X133247410Y-68599200D01*
X133247410Y-66087200D01*
X138429410Y-66087200D01*
X138429410Y-68599200D01*
G37*
G36*
X135694410Y-63328200D02*
G01*
X133242410Y-63328200D01*
X133242410Y-62718200D01*
X135694410Y-62718200D01*
X135694410Y-63328200D01*
G37*
G36*
X151549410Y-63328200D02*
G01*
X149097410Y-63328200D01*
X149097410Y-62718200D01*
X151549410Y-62718200D01*
X151549410Y-63328200D01*
G37*
G36*
X151564410Y-59969200D02*
G01*
X146382410Y-59969200D01*
X146382410Y-57457200D01*
X151564410Y-57457200D01*
X151564410Y-59969200D01*
G37*
G36*
X138429410Y-59959200D02*
G01*
X133247410Y-59959200D01*
X133247410Y-57447200D01*
X138429410Y-57447200D01*
X138429410Y-59959200D01*
G37*
M02*
