%TF.GenerationSoftware,KiCad,Pcbnew,5.1.5-52549c5~84~ubuntu18.04.1*%
%TF.CreationDate,2020-03-03T14:54:20+01:00*%
%TF.ProjectId,HMC_RF_IPE,484d435f-5246-45f4-9950-452e6b696361,rev?*%
%TF.SameCoordinates,Original*%
%TF.FileFunction,Soldermask,Top*%
%TF.FilePolarity,Negative*%
%FSLAX46Y46*%
G04 Gerber Fmt 4.6, Leading zero omitted, Abs format (unit mm)*
G04 Created by KiCad (PCBNEW 5.1.5-52549c5~84~ubuntu18.04.1) date 2020-03-03 14:54:20*
%MOMM*%
%LPD*%
G04 APERTURE LIST*
%ADD10C,0.100000*%
%ADD11C,3.000000*%
G04 APERTURE END LIST*
D10*
G36*
X136393410Y-97953200D02*
G01*
X130143410Y-97953200D01*
X130143410Y-86793200D01*
X136393410Y-86793200D01*
X136393410Y-97953200D01*
G37*
X136393410Y-97953200D02*
X130143410Y-97953200D01*
X130143410Y-86793200D01*
X136393410Y-86793200D01*
X136393410Y-97953200D01*
G36*
X154703410Y-97953200D02*
G01*
X148453410Y-97953200D01*
X148453410Y-86793200D01*
X154703410Y-86793200D01*
X154703410Y-97953200D01*
G37*
X154703410Y-97953200D02*
X148453410Y-97953200D01*
X148453410Y-86793200D01*
X154703410Y-86793200D01*
X154703410Y-97953200D01*
G36*
X152623410Y-68643200D02*
G01*
X146373410Y-68643200D01*
X146373410Y-57483200D01*
X152623410Y-57483200D01*
X152623410Y-68643200D01*
G37*
X152623410Y-68643200D02*
X146373410Y-68643200D01*
X146373410Y-57483200D01*
X152623410Y-57483200D01*
X152623410Y-68643200D01*
G36*
X138443410Y-68653200D02*
G01*
X132193410Y-68653200D01*
X132193410Y-57493200D01*
X138443410Y-57493200D01*
X138443410Y-68653200D01*
G37*
X138443410Y-68653200D02*
X132193410Y-68653200D01*
X132193410Y-57493200D01*
X138443410Y-57493200D01*
X138443410Y-68653200D01*
D11*
X140443410Y-92373200D02*
X130153410Y-92373200D01*
X154433410Y-92363200D02*
X144403410Y-92373200D01*
X154623410Y-62983200D02*
X131763410Y-62993200D01*
D10*
G36*
X153854410Y-97949200D02*
G01*
X148672410Y-97949200D01*
X148672410Y-95437200D01*
X153854410Y-95437200D01*
X153854410Y-97949200D01*
G37*
G36*
X136134410Y-97949200D02*
G01*
X130952410Y-97949200D01*
X130952410Y-95437200D01*
X136134410Y-95437200D01*
X136134410Y-97949200D01*
G37*
G36*
X143308411Y-91077200D02*
G01*
X143310813Y-91101586D01*
X143317926Y-91125035D01*
X143329477Y-91146646D01*
X143345022Y-91165588D01*
X143363964Y-91181133D01*
X143385575Y-91192684D01*
X143409024Y-91199797D01*
X143433410Y-91202199D01*
X144293210Y-91202199D01*
X144293210Y-93044201D01*
X143433410Y-93044201D01*
X143409024Y-93046603D01*
X143385575Y-93053716D01*
X143363964Y-93065267D01*
X143345022Y-93080812D01*
X143329477Y-93099754D01*
X143317926Y-93121365D01*
X143310813Y-93144814D01*
X143308411Y-93169200D01*
X143308411Y-94029000D01*
X141466409Y-94029000D01*
X141466409Y-93169200D01*
X141464007Y-93144814D01*
X141456894Y-93121365D01*
X141445343Y-93099754D01*
X141429798Y-93080812D01*
X141410856Y-93065267D01*
X141389245Y-93053716D01*
X141365796Y-93046603D01*
X141341410Y-93044201D01*
X140481610Y-93044201D01*
X140481610Y-91202199D01*
X141341410Y-91202199D01*
X141365796Y-91199797D01*
X141389245Y-91192684D01*
X141410856Y-91181133D01*
X141429798Y-91165588D01*
X141445343Y-91146646D01*
X141456894Y-91125035D01*
X141464007Y-91101586D01*
X141466409Y-91077200D01*
X141466409Y-90217400D01*
X143308411Y-90217400D01*
X143308411Y-91077200D01*
G37*
G36*
X133404410Y-92678200D02*
G01*
X130952410Y-92678200D01*
X130952410Y-92068200D01*
X133404410Y-92068200D01*
X133404410Y-92678200D01*
G37*
G36*
X153854410Y-92678200D02*
G01*
X151402410Y-92678200D01*
X151402410Y-92068200D01*
X153854410Y-92068200D01*
X153854410Y-92678200D01*
G37*
G36*
X141815348Y-88934916D02*
G01*
X141835967Y-88941171D01*
X141854963Y-88951324D01*
X141871618Y-88964992D01*
X141885286Y-88981647D01*
X141895439Y-89000643D01*
X141901694Y-89021262D01*
X141904410Y-89048840D01*
X141904410Y-89557560D01*
X141901694Y-89585138D01*
X141895439Y-89605757D01*
X141885286Y-89624753D01*
X141871618Y-89641408D01*
X141854963Y-89655076D01*
X141835967Y-89665229D01*
X141815348Y-89671484D01*
X141787770Y-89674200D01*
X141329050Y-89674200D01*
X141301472Y-89671484D01*
X141280853Y-89665229D01*
X141261857Y-89655076D01*
X141245202Y-89641408D01*
X141231534Y-89624753D01*
X141221381Y-89605757D01*
X141215126Y-89585138D01*
X141212410Y-89557560D01*
X141212410Y-89048840D01*
X141215126Y-89021262D01*
X141221381Y-89000643D01*
X141231534Y-88981647D01*
X141245202Y-88964992D01*
X141261857Y-88951324D01*
X141280853Y-88941171D01*
X141301472Y-88934916D01*
X141329050Y-88932200D01*
X141787770Y-88932200D01*
X141815348Y-88934916D01*
G37*
G36*
X143465348Y-88934916D02*
G01*
X143485967Y-88941171D01*
X143504963Y-88951324D01*
X143521618Y-88964992D01*
X143535286Y-88981647D01*
X143545439Y-89000643D01*
X143551694Y-89021262D01*
X143554410Y-89048840D01*
X143554410Y-89557560D01*
X143551694Y-89585138D01*
X143545439Y-89605757D01*
X143535286Y-89624753D01*
X143521618Y-89641408D01*
X143504963Y-89655076D01*
X143485967Y-89665229D01*
X143465348Y-89671484D01*
X143437770Y-89674200D01*
X142979050Y-89674200D01*
X142951472Y-89671484D01*
X142930853Y-89665229D01*
X142911857Y-89655076D01*
X142895202Y-89641408D01*
X142881534Y-89624753D01*
X142871381Y-89605757D01*
X142865126Y-89585138D01*
X142862410Y-89557560D01*
X142862410Y-89048840D01*
X142865126Y-89021262D01*
X142871381Y-89000643D01*
X142881534Y-88981647D01*
X142895202Y-88964992D01*
X142911857Y-88951324D01*
X142930853Y-88941171D01*
X142951472Y-88934916D01*
X142979050Y-88932200D01*
X143437770Y-88932200D01*
X143465348Y-88934916D01*
G37*
G36*
X144435348Y-88934916D02*
G01*
X144455967Y-88941171D01*
X144474963Y-88951324D01*
X144491618Y-88964992D01*
X144505286Y-88981647D01*
X144515439Y-89000643D01*
X144521694Y-89021262D01*
X144524410Y-89048840D01*
X144524410Y-89557560D01*
X144521694Y-89585138D01*
X144515439Y-89605757D01*
X144505286Y-89624753D01*
X144491618Y-89641408D01*
X144474963Y-89655076D01*
X144455967Y-89665229D01*
X144435348Y-89671484D01*
X144407770Y-89674200D01*
X143949050Y-89674200D01*
X143921472Y-89671484D01*
X143900853Y-89665229D01*
X143881857Y-89655076D01*
X143865202Y-89641408D01*
X143851534Y-89624753D01*
X143841381Y-89605757D01*
X143835126Y-89585138D01*
X143832410Y-89557560D01*
X143832410Y-89048840D01*
X143835126Y-89021262D01*
X143841381Y-89000643D01*
X143851534Y-88981647D01*
X143865202Y-88964992D01*
X143881857Y-88951324D01*
X143900853Y-88941171D01*
X143921472Y-88934916D01*
X143949050Y-88932200D01*
X144407770Y-88932200D01*
X144435348Y-88934916D01*
G37*
G36*
X140845348Y-88934916D02*
G01*
X140865967Y-88941171D01*
X140884963Y-88951324D01*
X140901618Y-88964992D01*
X140915286Y-88981647D01*
X140925439Y-89000643D01*
X140931694Y-89021262D01*
X140934410Y-89048840D01*
X140934410Y-89557560D01*
X140931694Y-89585138D01*
X140925439Y-89605757D01*
X140915286Y-89624753D01*
X140901618Y-89641408D01*
X140884963Y-89655076D01*
X140865967Y-89665229D01*
X140845348Y-89671484D01*
X140817770Y-89674200D01*
X140359050Y-89674200D01*
X140331472Y-89671484D01*
X140310853Y-89665229D01*
X140291857Y-89655076D01*
X140275202Y-89641408D01*
X140261534Y-89624753D01*
X140251381Y-89605757D01*
X140245126Y-89585138D01*
X140242410Y-89557560D01*
X140242410Y-89048840D01*
X140245126Y-89021262D01*
X140251381Y-89000643D01*
X140261534Y-88981647D01*
X140275202Y-88964992D01*
X140291857Y-88951324D01*
X140310853Y-88941171D01*
X140331472Y-88934916D01*
X140359050Y-88932200D01*
X140817770Y-88932200D01*
X140845348Y-88934916D01*
G37*
G36*
X153854410Y-89309200D02*
G01*
X148672410Y-89309200D01*
X148672410Y-86797200D01*
X153854410Y-86797200D01*
X153854410Y-89309200D01*
G37*
G36*
X136134410Y-89309200D02*
G01*
X130952410Y-89309200D01*
X130952410Y-86797200D01*
X136134410Y-86797200D01*
X136134410Y-89309200D01*
G37*
G36*
X147233001Y-87521285D02*
G01*
X147266979Y-87531593D01*
X147298300Y-87548334D01*
X147325749Y-87570861D01*
X147348276Y-87598310D01*
X147365017Y-87629631D01*
X147375325Y-87663609D01*
X147379410Y-87705090D01*
X147379410Y-88381310D01*
X147375325Y-88422791D01*
X147365017Y-88456769D01*
X147348276Y-88488090D01*
X147325749Y-88515539D01*
X147298300Y-88538066D01*
X147266979Y-88554807D01*
X147233001Y-88565115D01*
X147191520Y-88569200D01*
X146590300Y-88569200D01*
X146548819Y-88565115D01*
X146514841Y-88554807D01*
X146483520Y-88538066D01*
X146456071Y-88515539D01*
X146433544Y-88488090D01*
X146416803Y-88456769D01*
X146406495Y-88422791D01*
X146402410Y-88381310D01*
X146402410Y-87705090D01*
X146406495Y-87663609D01*
X146416803Y-87629631D01*
X146433544Y-87598310D01*
X146456071Y-87570861D01*
X146483520Y-87548334D01*
X146514841Y-87531593D01*
X146548819Y-87521285D01*
X146590300Y-87517200D01*
X147191520Y-87517200D01*
X147233001Y-87521285D01*
G37*
G36*
X145658001Y-87521285D02*
G01*
X145691979Y-87531593D01*
X145723300Y-87548334D01*
X145750749Y-87570861D01*
X145773276Y-87598310D01*
X145790017Y-87629631D01*
X145800325Y-87663609D01*
X145804410Y-87705090D01*
X145804410Y-88381310D01*
X145800325Y-88422791D01*
X145790017Y-88456769D01*
X145773276Y-88488090D01*
X145750749Y-88515539D01*
X145723300Y-88538066D01*
X145691979Y-88554807D01*
X145658001Y-88565115D01*
X145616520Y-88569200D01*
X145015300Y-88569200D01*
X144973819Y-88565115D01*
X144939841Y-88554807D01*
X144908520Y-88538066D01*
X144881071Y-88515539D01*
X144858544Y-88488090D01*
X144841803Y-88456769D01*
X144831495Y-88422791D01*
X144827410Y-88381310D01*
X144827410Y-87705090D01*
X144831495Y-87663609D01*
X144841803Y-87629631D01*
X144858544Y-87598310D01*
X144881071Y-87570861D01*
X144908520Y-87548334D01*
X144939841Y-87531593D01*
X144973819Y-87521285D01*
X145015300Y-87517200D01*
X145616520Y-87517200D01*
X145658001Y-87521285D01*
G37*
G36*
X139755501Y-87511285D02*
G01*
X139789479Y-87521593D01*
X139820800Y-87538334D01*
X139848249Y-87560861D01*
X139870776Y-87588310D01*
X139887517Y-87619631D01*
X139897825Y-87653609D01*
X139901910Y-87695090D01*
X139901910Y-88371310D01*
X139897825Y-88412791D01*
X139887517Y-88446769D01*
X139870776Y-88478090D01*
X139848249Y-88505539D01*
X139820800Y-88528066D01*
X139789479Y-88544807D01*
X139755501Y-88555115D01*
X139714020Y-88559200D01*
X139112800Y-88559200D01*
X139071319Y-88555115D01*
X139037341Y-88544807D01*
X139006020Y-88528066D01*
X138978571Y-88505539D01*
X138956044Y-88478090D01*
X138939303Y-88446769D01*
X138928995Y-88412791D01*
X138924910Y-88371310D01*
X138924910Y-87695090D01*
X138928995Y-87653609D01*
X138939303Y-87619631D01*
X138956044Y-87588310D01*
X138978571Y-87560861D01*
X139006020Y-87538334D01*
X139037341Y-87521593D01*
X139071319Y-87511285D01*
X139112800Y-87507200D01*
X139714020Y-87507200D01*
X139755501Y-87511285D01*
G37*
G36*
X138180501Y-87511285D02*
G01*
X138214479Y-87521593D01*
X138245800Y-87538334D01*
X138273249Y-87560861D01*
X138295776Y-87588310D01*
X138312517Y-87619631D01*
X138322825Y-87653609D01*
X138326910Y-87695090D01*
X138326910Y-88371310D01*
X138322825Y-88412791D01*
X138312517Y-88446769D01*
X138295776Y-88478090D01*
X138273249Y-88505539D01*
X138245800Y-88528066D01*
X138214479Y-88544807D01*
X138180501Y-88555115D01*
X138139020Y-88559200D01*
X137537800Y-88559200D01*
X137496319Y-88555115D01*
X137462341Y-88544807D01*
X137431020Y-88528066D01*
X137403571Y-88505539D01*
X137381044Y-88478090D01*
X137364303Y-88446769D01*
X137353995Y-88412791D01*
X137349910Y-88371310D01*
X137349910Y-87695090D01*
X137353995Y-87653609D01*
X137364303Y-87619631D01*
X137381044Y-87588310D01*
X137403571Y-87560861D01*
X137431020Y-87538334D01*
X137462341Y-87521593D01*
X137496319Y-87511285D01*
X137537800Y-87507200D01*
X138139020Y-87507200D01*
X138180501Y-87511285D01*
G37*
G36*
X143903001Y-87546285D02*
G01*
X143936979Y-87556593D01*
X143968300Y-87573334D01*
X143995749Y-87595861D01*
X144018276Y-87623310D01*
X144035017Y-87654631D01*
X144045325Y-87688609D01*
X144049410Y-87730090D01*
X144049410Y-88331310D01*
X144045325Y-88372791D01*
X144035017Y-88406769D01*
X144018276Y-88438090D01*
X143995749Y-88465539D01*
X143968300Y-88488066D01*
X143936979Y-88504807D01*
X143903001Y-88515115D01*
X143861520Y-88519200D01*
X143185300Y-88519200D01*
X143143819Y-88515115D01*
X143109841Y-88504807D01*
X143078520Y-88488066D01*
X143051071Y-88465539D01*
X143028544Y-88438090D01*
X143011803Y-88406769D01*
X143001495Y-88372791D01*
X142997410Y-88331310D01*
X142997410Y-87730090D01*
X143001495Y-87688609D01*
X143011803Y-87654631D01*
X143028544Y-87623310D01*
X143051071Y-87595861D01*
X143078520Y-87573334D01*
X143109841Y-87556593D01*
X143143819Y-87546285D01*
X143185300Y-87542200D01*
X143861520Y-87542200D01*
X143903001Y-87546285D01*
G37*
G36*
X141673001Y-87536285D02*
G01*
X141706979Y-87546593D01*
X141738300Y-87563334D01*
X141765749Y-87585861D01*
X141788276Y-87613310D01*
X141805017Y-87644631D01*
X141815325Y-87678609D01*
X141819410Y-87720090D01*
X141819410Y-88321310D01*
X141815325Y-88362791D01*
X141805017Y-88396769D01*
X141788276Y-88428090D01*
X141765749Y-88455539D01*
X141738300Y-88478066D01*
X141706979Y-88494807D01*
X141673001Y-88505115D01*
X141631520Y-88509200D01*
X140955300Y-88509200D01*
X140913819Y-88505115D01*
X140879841Y-88494807D01*
X140848520Y-88478066D01*
X140821071Y-88455539D01*
X140798544Y-88428090D01*
X140781803Y-88396769D01*
X140771495Y-88362791D01*
X140767410Y-88321310D01*
X140767410Y-87720090D01*
X140771495Y-87678609D01*
X140781803Y-87644631D01*
X140798544Y-87613310D01*
X140821071Y-87585861D01*
X140848520Y-87563334D01*
X140879841Y-87546593D01*
X140913819Y-87536285D01*
X140955300Y-87532200D01*
X141631520Y-87532200D01*
X141673001Y-87536285D01*
G37*
G36*
X143903001Y-85971285D02*
G01*
X143936979Y-85981593D01*
X143968300Y-85998334D01*
X143995749Y-86020861D01*
X144018276Y-86048310D01*
X144035017Y-86079631D01*
X144045325Y-86113609D01*
X144049410Y-86155090D01*
X144049410Y-86756310D01*
X144045325Y-86797791D01*
X144035017Y-86831769D01*
X144018276Y-86863090D01*
X143995749Y-86890539D01*
X143968300Y-86913066D01*
X143936979Y-86929807D01*
X143903001Y-86940115D01*
X143861520Y-86944200D01*
X143185300Y-86944200D01*
X143143819Y-86940115D01*
X143109841Y-86929807D01*
X143078520Y-86913066D01*
X143051071Y-86890539D01*
X143028544Y-86863090D01*
X143011803Y-86831769D01*
X143001495Y-86797791D01*
X142997410Y-86756310D01*
X142997410Y-86155090D01*
X143001495Y-86113609D01*
X143011803Y-86079631D01*
X143028544Y-86048310D01*
X143051071Y-86020861D01*
X143078520Y-85998334D01*
X143109841Y-85981593D01*
X143143819Y-85971285D01*
X143185300Y-85967200D01*
X143861520Y-85967200D01*
X143903001Y-85971285D01*
G37*
G36*
X141673001Y-85961285D02*
G01*
X141706979Y-85971593D01*
X141738300Y-85988334D01*
X141765749Y-86010861D01*
X141788276Y-86038310D01*
X141805017Y-86069631D01*
X141815325Y-86103609D01*
X141819410Y-86145090D01*
X141819410Y-86746310D01*
X141815325Y-86787791D01*
X141805017Y-86821769D01*
X141788276Y-86853090D01*
X141765749Y-86880539D01*
X141738300Y-86903066D01*
X141706979Y-86919807D01*
X141673001Y-86930115D01*
X141631520Y-86934200D01*
X140955300Y-86934200D01*
X140913819Y-86930115D01*
X140879841Y-86919807D01*
X140848520Y-86903066D01*
X140821071Y-86880539D01*
X140798544Y-86853090D01*
X140781803Y-86821769D01*
X140771495Y-86787791D01*
X140767410Y-86746310D01*
X140767410Y-86145090D01*
X140771495Y-86103609D01*
X140781803Y-86069631D01*
X140798544Y-86038310D01*
X140821071Y-86010861D01*
X140848520Y-85988334D01*
X140879841Y-85971593D01*
X140913819Y-85961285D01*
X140955300Y-85957200D01*
X141631520Y-85957200D01*
X141673001Y-85961285D01*
G37*
G36*
X132714310Y-85562900D02*
G01*
X131418510Y-85562900D01*
X131418510Y-84673500D01*
X132714310Y-84673500D01*
X132714310Y-85562900D01*
G37*
G36*
X140442584Y-85204200D02*
G01*
X137670584Y-85204200D01*
X137670584Y-84082200D01*
X140442584Y-84082200D01*
X140442584Y-85204200D01*
G37*
G36*
X143800996Y-85204200D02*
G01*
X141028996Y-85204200D01*
X141028996Y-84082200D01*
X143800996Y-84082200D01*
X143800996Y-85204200D01*
G37*
G36*
X147159410Y-85204200D02*
G01*
X144387410Y-85204200D01*
X144387410Y-84082200D01*
X147159410Y-84082200D01*
X147159410Y-85204200D01*
G37*
G36*
X136892610Y-84686600D02*
G01*
X135266610Y-84686600D01*
X135266610Y-83009800D01*
X136892610Y-83009800D01*
X136892610Y-84686600D01*
G37*
G36*
X149225348Y-83004916D02*
G01*
X149245967Y-83011171D01*
X149264963Y-83021324D01*
X149281618Y-83034992D01*
X149295286Y-83051647D01*
X149305439Y-83070643D01*
X149311694Y-83091262D01*
X149314410Y-83118840D01*
X149314410Y-83577560D01*
X149311694Y-83605138D01*
X149305439Y-83625757D01*
X149295286Y-83644753D01*
X149281618Y-83661408D01*
X149264963Y-83675076D01*
X149245967Y-83685229D01*
X149225348Y-83691484D01*
X149197770Y-83694200D01*
X148689050Y-83694200D01*
X148661472Y-83691484D01*
X148640853Y-83685229D01*
X148621857Y-83675076D01*
X148605202Y-83661408D01*
X148591534Y-83644753D01*
X148581381Y-83625757D01*
X148575126Y-83605138D01*
X148572410Y-83577560D01*
X148572410Y-83118840D01*
X148575126Y-83091262D01*
X148581381Y-83070643D01*
X148591534Y-83051647D01*
X148605202Y-83034992D01*
X148621857Y-83021324D01*
X148640853Y-83011171D01*
X148661472Y-83004916D01*
X148689050Y-83002200D01*
X149197770Y-83002200D01*
X149225348Y-83004916D01*
G37*
G36*
X151752014Y-82211547D02*
G01*
X151788554Y-82222632D01*
X151822231Y-82240633D01*
X151851751Y-82264859D01*
X151875977Y-82294379D01*
X151893978Y-82328056D01*
X151905063Y-82364596D01*
X151909410Y-82408738D01*
X151909410Y-83357662D01*
X151905063Y-83401804D01*
X151893978Y-83438344D01*
X151875977Y-83472021D01*
X151851751Y-83501541D01*
X151822231Y-83525767D01*
X151788554Y-83543768D01*
X151752014Y-83554853D01*
X151707872Y-83559200D01*
X150258948Y-83559200D01*
X150214806Y-83554853D01*
X150178266Y-83543768D01*
X150144589Y-83525767D01*
X150115069Y-83501541D01*
X150090843Y-83472021D01*
X150072842Y-83438344D01*
X150061757Y-83401804D01*
X150057410Y-83357662D01*
X150057410Y-82408738D01*
X150061757Y-82364596D01*
X150072842Y-82328056D01*
X150090843Y-82294379D01*
X150115069Y-82264859D01*
X150144589Y-82240633D01*
X150178266Y-82222632D01*
X150214806Y-82211547D01*
X150258948Y-82207200D01*
X151707872Y-82207200D01*
X151752014Y-82211547D01*
G37*
G36*
X138992014Y-82131547D02*
G01*
X139028554Y-82142632D01*
X139062231Y-82160633D01*
X139091751Y-82184859D01*
X139115977Y-82214379D01*
X139133978Y-82248056D01*
X139145063Y-82284596D01*
X139149410Y-82328738D01*
X139149410Y-83277662D01*
X139145063Y-83321804D01*
X139133978Y-83358344D01*
X139115977Y-83392021D01*
X139091751Y-83421541D01*
X139062231Y-83445767D01*
X139028554Y-83463768D01*
X138992014Y-83474853D01*
X138947872Y-83479200D01*
X137498948Y-83479200D01*
X137454806Y-83474853D01*
X137418266Y-83463768D01*
X137384589Y-83445767D01*
X137355069Y-83421541D01*
X137330843Y-83392021D01*
X137312842Y-83358344D01*
X137301757Y-83321804D01*
X137297410Y-83277662D01*
X137297410Y-82328738D01*
X137301757Y-82284596D01*
X137312842Y-82248056D01*
X137330843Y-82214379D01*
X137355069Y-82184859D01*
X137384589Y-82160633D01*
X137418266Y-82142632D01*
X137454806Y-82131547D01*
X137498948Y-82127200D01*
X138947872Y-82127200D01*
X138992014Y-82131547D01*
G37*
G36*
X140635348Y-82684916D02*
G01*
X140655967Y-82691171D01*
X140674963Y-82701324D01*
X140691618Y-82714992D01*
X140705286Y-82731647D01*
X140715439Y-82750643D01*
X140721694Y-82771262D01*
X140724410Y-82798840D01*
X140724410Y-83257560D01*
X140721694Y-83285138D01*
X140715439Y-83305757D01*
X140705286Y-83324753D01*
X140691618Y-83341408D01*
X140674963Y-83355076D01*
X140655967Y-83365229D01*
X140635348Y-83371484D01*
X140607770Y-83374200D01*
X140099050Y-83374200D01*
X140071472Y-83371484D01*
X140050853Y-83365229D01*
X140031857Y-83355076D01*
X140015202Y-83341408D01*
X140001534Y-83324753D01*
X139991381Y-83305757D01*
X139985126Y-83285138D01*
X139982410Y-83257560D01*
X139982410Y-82798840D01*
X139985126Y-82771262D01*
X139991381Y-82750643D01*
X140001534Y-82731647D01*
X140015202Y-82714992D01*
X140031857Y-82701324D01*
X140050853Y-82691171D01*
X140071472Y-82684916D01*
X140099050Y-82682200D01*
X140607770Y-82682200D01*
X140635348Y-82684916D01*
G37*
G36*
X132765110Y-83022900D02*
G01*
X131469310Y-83022900D01*
X131469310Y-82133500D01*
X132765110Y-82133500D01*
X132765110Y-83022900D01*
G37*
G36*
X147578110Y-82835099D02*
G01*
X145698110Y-82835099D01*
X145698110Y-80351301D01*
X147578110Y-80351301D01*
X147578110Y-82835099D01*
G37*
G36*
X143488710Y-82835099D02*
G01*
X141608710Y-82835099D01*
X141608710Y-80351301D01*
X143488710Y-80351301D01*
X143488710Y-82835099D01*
G37*
G36*
X149225348Y-82034916D02*
G01*
X149245967Y-82041171D01*
X149264963Y-82051324D01*
X149281618Y-82064992D01*
X149295286Y-82081647D01*
X149305439Y-82100643D01*
X149311694Y-82121262D01*
X149314410Y-82148840D01*
X149314410Y-82607560D01*
X149311694Y-82635138D01*
X149305439Y-82655757D01*
X149295286Y-82674753D01*
X149281618Y-82691408D01*
X149264963Y-82705076D01*
X149245967Y-82715229D01*
X149225348Y-82721484D01*
X149197770Y-82724200D01*
X148689050Y-82724200D01*
X148661472Y-82721484D01*
X148640853Y-82715229D01*
X148621857Y-82705076D01*
X148605202Y-82691408D01*
X148591534Y-82674753D01*
X148581381Y-82655757D01*
X148575126Y-82635138D01*
X148572410Y-82607560D01*
X148572410Y-82148840D01*
X148575126Y-82121262D01*
X148581381Y-82100643D01*
X148591534Y-82081647D01*
X148605202Y-82064992D01*
X148621857Y-82051324D01*
X148640853Y-82041171D01*
X148661472Y-82034916D01*
X148689050Y-82032200D01*
X149197770Y-82032200D01*
X149225348Y-82034916D01*
G37*
G36*
X140635348Y-81714916D02*
G01*
X140655967Y-81721171D01*
X140674963Y-81731324D01*
X140691618Y-81744992D01*
X140705286Y-81761647D01*
X140715439Y-81780643D01*
X140721694Y-81801262D01*
X140724410Y-81828840D01*
X140724410Y-82287560D01*
X140721694Y-82315138D01*
X140715439Y-82335757D01*
X140705286Y-82354753D01*
X140691618Y-82371408D01*
X140674963Y-82385076D01*
X140655967Y-82395229D01*
X140635348Y-82401484D01*
X140607770Y-82404200D01*
X140099050Y-82404200D01*
X140071472Y-82401484D01*
X140050853Y-82395229D01*
X140031857Y-82385076D01*
X140015202Y-82371408D01*
X140001534Y-82354753D01*
X139991381Y-82335757D01*
X139985126Y-82315138D01*
X139982410Y-82287560D01*
X139982410Y-81828840D01*
X139985126Y-81801262D01*
X139991381Y-81780643D01*
X140001534Y-81761647D01*
X140015202Y-81744992D01*
X140031857Y-81731324D01*
X140050853Y-81721171D01*
X140071472Y-81714916D01*
X140099050Y-81712200D01*
X140607770Y-81712200D01*
X140635348Y-81714916D01*
G37*
G36*
X140645348Y-80454916D02*
G01*
X140665967Y-80461171D01*
X140684963Y-80471324D01*
X140701618Y-80484992D01*
X140715286Y-80501647D01*
X140725439Y-80520643D01*
X140731694Y-80541262D01*
X140734410Y-80568840D01*
X140734410Y-81027560D01*
X140731694Y-81055138D01*
X140725439Y-81075757D01*
X140715286Y-81094753D01*
X140701618Y-81111408D01*
X140684963Y-81125076D01*
X140665967Y-81135229D01*
X140645348Y-81141484D01*
X140617770Y-81144200D01*
X140109050Y-81144200D01*
X140081472Y-81141484D01*
X140060853Y-81135229D01*
X140041857Y-81125076D01*
X140025202Y-81111408D01*
X140011534Y-81094753D01*
X140001381Y-81075757D01*
X139995126Y-81055138D01*
X139992410Y-81027560D01*
X139992410Y-80568840D01*
X139995126Y-80541262D01*
X140001381Y-80520643D01*
X140011534Y-80501647D01*
X140025202Y-80484992D01*
X140041857Y-80471324D01*
X140060853Y-80461171D01*
X140081472Y-80454916D01*
X140109050Y-80452200D01*
X140617770Y-80452200D01*
X140645348Y-80454916D01*
G37*
G36*
X149225348Y-80344916D02*
G01*
X149245967Y-80351171D01*
X149264963Y-80361324D01*
X149281618Y-80374992D01*
X149295286Y-80391647D01*
X149305439Y-80410643D01*
X149311694Y-80431262D01*
X149314410Y-80458840D01*
X149314410Y-80917560D01*
X149311694Y-80945138D01*
X149305439Y-80965757D01*
X149295286Y-80984753D01*
X149281618Y-81001408D01*
X149264963Y-81015076D01*
X149245967Y-81025229D01*
X149225348Y-81031484D01*
X149197770Y-81034200D01*
X148689050Y-81034200D01*
X148661472Y-81031484D01*
X148640853Y-81025229D01*
X148621857Y-81015076D01*
X148605202Y-81001408D01*
X148591534Y-80984753D01*
X148581381Y-80965757D01*
X148575126Y-80945138D01*
X148572410Y-80917560D01*
X148572410Y-80458840D01*
X148575126Y-80431262D01*
X148581381Y-80410643D01*
X148591534Y-80391647D01*
X148605202Y-80374992D01*
X148621857Y-80361324D01*
X148640853Y-80351171D01*
X148661472Y-80344916D01*
X148689050Y-80342200D01*
X149197770Y-80342200D01*
X149225348Y-80344916D01*
G37*
G36*
X151752014Y-79411547D02*
G01*
X151788554Y-79422632D01*
X151822231Y-79440633D01*
X151851751Y-79464859D01*
X151875977Y-79494379D01*
X151893978Y-79528056D01*
X151905063Y-79564596D01*
X151909410Y-79608738D01*
X151909410Y-80557662D01*
X151905063Y-80601804D01*
X151893978Y-80638344D01*
X151875977Y-80672021D01*
X151851751Y-80701541D01*
X151822231Y-80725767D01*
X151788554Y-80743768D01*
X151752014Y-80754853D01*
X151707872Y-80759200D01*
X150258948Y-80759200D01*
X150214806Y-80754853D01*
X150178266Y-80743768D01*
X150144589Y-80725767D01*
X150115069Y-80701541D01*
X150090843Y-80672021D01*
X150072842Y-80638344D01*
X150061757Y-80601804D01*
X150057410Y-80557662D01*
X150057410Y-79608738D01*
X150061757Y-79564596D01*
X150072842Y-79528056D01*
X150090843Y-79494379D01*
X150115069Y-79464859D01*
X150144589Y-79440633D01*
X150178266Y-79422632D01*
X150214806Y-79411547D01*
X150258948Y-79407200D01*
X151707872Y-79407200D01*
X151752014Y-79411547D01*
G37*
G36*
X138992014Y-79331547D02*
G01*
X139028554Y-79342632D01*
X139062231Y-79360633D01*
X139091751Y-79384859D01*
X139115977Y-79414379D01*
X139133978Y-79448056D01*
X139145063Y-79484596D01*
X139149410Y-79528738D01*
X139149410Y-80477662D01*
X139145063Y-80521804D01*
X139133978Y-80558344D01*
X139115977Y-80592021D01*
X139091751Y-80621541D01*
X139062231Y-80645767D01*
X139028554Y-80663768D01*
X138992014Y-80674853D01*
X138947872Y-80679200D01*
X137498948Y-80679200D01*
X137454806Y-80674853D01*
X137418266Y-80663768D01*
X137384589Y-80645767D01*
X137355069Y-80621541D01*
X137330843Y-80592021D01*
X137312842Y-80558344D01*
X137301757Y-80521804D01*
X137297410Y-80477662D01*
X137297410Y-79528738D01*
X137301757Y-79484596D01*
X137312842Y-79448056D01*
X137330843Y-79414379D01*
X137355069Y-79384859D01*
X137384589Y-79360633D01*
X137418266Y-79342632D01*
X137454806Y-79331547D01*
X137498948Y-79327200D01*
X138947872Y-79327200D01*
X138992014Y-79331547D01*
G37*
G36*
X133754564Y-78359382D02*
G01*
X133822892Y-78372973D01*
X133919437Y-78412963D01*
X134015983Y-78452954D01*
X134189756Y-78569065D01*
X134337545Y-78716854D01*
X134453656Y-78890627D01*
X134533637Y-79083719D01*
X134574410Y-79288699D01*
X134574410Y-79497701D01*
X134533637Y-79702681D01*
X134453656Y-79895773D01*
X134337545Y-80069546D01*
X134189756Y-80217335D01*
X134015983Y-80333446D01*
X133963056Y-80355369D01*
X133822892Y-80413427D01*
X133754564Y-80427018D01*
X133617911Y-80454200D01*
X133408909Y-80454200D01*
X133272256Y-80427018D01*
X133203928Y-80413427D01*
X133063764Y-80355369D01*
X133010837Y-80333446D01*
X132837064Y-80217335D01*
X132689275Y-80069546D01*
X132573164Y-79895773D01*
X132493183Y-79702681D01*
X132452410Y-79497701D01*
X132452410Y-79288699D01*
X132493183Y-79083719D01*
X132573164Y-78890627D01*
X132689275Y-78716854D01*
X132837064Y-78569065D01*
X133010837Y-78452954D01*
X133107383Y-78412964D01*
X133203928Y-78372973D01*
X133272256Y-78359382D01*
X133408909Y-78332200D01*
X133617911Y-78332200D01*
X133754564Y-78359382D01*
G37*
G36*
X140645348Y-79484916D02*
G01*
X140665967Y-79491171D01*
X140684963Y-79501324D01*
X140701618Y-79514992D01*
X140715286Y-79531647D01*
X140725439Y-79550643D01*
X140731694Y-79571262D01*
X140734410Y-79598840D01*
X140734410Y-80057560D01*
X140731694Y-80085138D01*
X140725439Y-80105757D01*
X140715286Y-80124753D01*
X140701618Y-80141408D01*
X140684963Y-80155076D01*
X140665967Y-80165229D01*
X140645348Y-80171484D01*
X140617770Y-80174200D01*
X140109050Y-80174200D01*
X140081472Y-80171484D01*
X140060853Y-80165229D01*
X140041857Y-80155076D01*
X140025202Y-80141408D01*
X140011534Y-80124753D01*
X140001381Y-80105757D01*
X139995126Y-80085138D01*
X139992410Y-80057560D01*
X139992410Y-79598840D01*
X139995126Y-79571262D01*
X140001381Y-79550643D01*
X140011534Y-79531647D01*
X140025202Y-79514992D01*
X140041857Y-79501324D01*
X140060853Y-79491171D01*
X140081472Y-79484916D01*
X140109050Y-79482200D01*
X140617770Y-79482200D01*
X140645348Y-79484916D01*
G37*
G36*
X149225348Y-79374916D02*
G01*
X149245967Y-79381171D01*
X149264963Y-79391324D01*
X149281618Y-79404992D01*
X149295286Y-79421647D01*
X149305439Y-79440643D01*
X149311694Y-79461262D01*
X149314410Y-79488840D01*
X149314410Y-79947560D01*
X149311694Y-79975138D01*
X149305439Y-79995757D01*
X149295286Y-80014753D01*
X149281618Y-80031408D01*
X149264963Y-80045076D01*
X149245967Y-80055229D01*
X149225348Y-80061484D01*
X149197770Y-80064200D01*
X148689050Y-80064200D01*
X148661472Y-80061484D01*
X148640853Y-80055229D01*
X148621857Y-80045076D01*
X148605202Y-80031408D01*
X148591534Y-80014753D01*
X148581381Y-79995757D01*
X148575126Y-79975138D01*
X148572410Y-79947560D01*
X148572410Y-79488840D01*
X148575126Y-79461262D01*
X148581381Y-79440643D01*
X148591534Y-79421647D01*
X148605202Y-79404992D01*
X148621857Y-79391324D01*
X148640853Y-79381171D01*
X148661472Y-79374916D01*
X148689050Y-79372200D01*
X149197770Y-79372200D01*
X149225348Y-79374916D01*
G37*
G36*
X147890348Y-78629916D02*
G01*
X147910967Y-78636171D01*
X147929963Y-78646324D01*
X147946618Y-78659992D01*
X147960286Y-78676647D01*
X147970439Y-78695643D01*
X147976694Y-78716262D01*
X147979410Y-78743840D01*
X147979410Y-79252560D01*
X147976694Y-79280138D01*
X147970439Y-79300757D01*
X147960286Y-79319753D01*
X147946618Y-79336408D01*
X147929963Y-79350076D01*
X147910967Y-79360229D01*
X147890348Y-79366484D01*
X147862770Y-79369200D01*
X147404050Y-79369200D01*
X147376472Y-79366484D01*
X147355853Y-79360229D01*
X147336857Y-79350076D01*
X147320202Y-79336408D01*
X147306534Y-79319753D01*
X147296381Y-79300757D01*
X147290126Y-79280138D01*
X147287410Y-79252560D01*
X147287410Y-78743840D01*
X147290126Y-78716262D01*
X147296381Y-78695643D01*
X147306534Y-78676647D01*
X147320202Y-78659992D01*
X147336857Y-78646324D01*
X147355853Y-78636171D01*
X147376472Y-78629916D01*
X147404050Y-78627200D01*
X147862770Y-78627200D01*
X147890348Y-78629916D01*
G37*
G36*
X146920348Y-78629916D02*
G01*
X146940967Y-78636171D01*
X146959963Y-78646324D01*
X146976618Y-78659992D01*
X146990286Y-78676647D01*
X147000439Y-78695643D01*
X147006694Y-78716262D01*
X147009410Y-78743840D01*
X147009410Y-79252560D01*
X147006694Y-79280138D01*
X147000439Y-79300757D01*
X146990286Y-79319753D01*
X146976618Y-79336408D01*
X146959963Y-79350076D01*
X146940967Y-79360229D01*
X146920348Y-79366484D01*
X146892770Y-79369200D01*
X146434050Y-79369200D01*
X146406472Y-79366484D01*
X146385853Y-79360229D01*
X146366857Y-79350076D01*
X146350202Y-79336408D01*
X146336534Y-79319753D01*
X146326381Y-79300757D01*
X146320126Y-79280138D01*
X146317410Y-79252560D01*
X146317410Y-78743840D01*
X146320126Y-78716262D01*
X146326381Y-78695643D01*
X146336534Y-78676647D01*
X146350202Y-78659992D01*
X146366857Y-78646324D01*
X146385853Y-78636171D01*
X146406472Y-78629916D01*
X146434050Y-78627200D01*
X146892770Y-78627200D01*
X146920348Y-78629916D01*
G37*
G36*
X137822014Y-77429547D02*
G01*
X137858554Y-77440632D01*
X137892231Y-77458633D01*
X137921751Y-77482859D01*
X137945977Y-77512379D01*
X137963978Y-77546056D01*
X137975063Y-77582596D01*
X137979410Y-77626738D01*
X137979410Y-78575662D01*
X137975063Y-78619804D01*
X137963978Y-78656344D01*
X137945977Y-78690021D01*
X137921751Y-78719541D01*
X137892231Y-78743767D01*
X137858554Y-78761768D01*
X137822014Y-78772853D01*
X137777872Y-78777200D01*
X136328948Y-78777200D01*
X136284806Y-78772853D01*
X136248266Y-78761768D01*
X136214589Y-78743767D01*
X136185069Y-78719541D01*
X136160843Y-78690021D01*
X136142842Y-78656344D01*
X136131757Y-78619804D01*
X136127410Y-78575662D01*
X136127410Y-77626738D01*
X136131757Y-77582596D01*
X136142842Y-77546056D01*
X136160843Y-77512379D01*
X136185069Y-77482859D01*
X136214589Y-77458633D01*
X136248266Y-77440632D01*
X136284806Y-77429547D01*
X136328948Y-77425200D01*
X137777872Y-77425200D01*
X137822014Y-77429547D01*
G37*
G36*
X149640014Y-76276547D02*
G01*
X149676554Y-76287632D01*
X149710231Y-76305633D01*
X149739751Y-76329859D01*
X149763977Y-76359379D01*
X149781978Y-76393056D01*
X149793063Y-76429596D01*
X149797410Y-76473738D01*
X149797410Y-77922662D01*
X149793063Y-77966804D01*
X149781978Y-78003344D01*
X149763977Y-78037021D01*
X149739751Y-78066541D01*
X149710231Y-78090767D01*
X149676554Y-78108768D01*
X149640014Y-78119853D01*
X149595872Y-78124200D01*
X148646948Y-78124200D01*
X148602806Y-78119853D01*
X148566266Y-78108768D01*
X148532589Y-78090767D01*
X148503069Y-78066541D01*
X148478843Y-78037021D01*
X148460842Y-78003344D01*
X148449757Y-77966804D01*
X148445410Y-77922662D01*
X148445410Y-76473738D01*
X148449757Y-76429596D01*
X148460842Y-76393056D01*
X148478843Y-76359379D01*
X148503069Y-76329859D01*
X148532589Y-76305633D01*
X148566266Y-76287632D01*
X148602806Y-76276547D01*
X148646948Y-76272200D01*
X149595872Y-76272200D01*
X149640014Y-76276547D01*
G37*
G36*
X146840014Y-76276547D02*
G01*
X146876554Y-76287632D01*
X146910231Y-76305633D01*
X146939751Y-76329859D01*
X146963977Y-76359379D01*
X146981978Y-76393056D01*
X146993063Y-76429596D01*
X146997410Y-76473738D01*
X146997410Y-77922662D01*
X146993063Y-77966804D01*
X146981978Y-78003344D01*
X146963977Y-78037021D01*
X146939751Y-78066541D01*
X146910231Y-78090767D01*
X146876554Y-78108768D01*
X146840014Y-78119853D01*
X146795872Y-78124200D01*
X145846948Y-78124200D01*
X145802806Y-78119853D01*
X145766266Y-78108768D01*
X145732589Y-78090767D01*
X145703069Y-78066541D01*
X145678843Y-78037021D01*
X145660842Y-78003344D01*
X145649757Y-77966804D01*
X145645410Y-77922662D01*
X145645410Y-76473738D01*
X145649757Y-76429596D01*
X145660842Y-76393056D01*
X145678843Y-76359379D01*
X145703069Y-76329859D01*
X145732589Y-76305633D01*
X145766266Y-76287632D01*
X145802806Y-76276547D01*
X145846948Y-76272200D01*
X146795872Y-76272200D01*
X146840014Y-76276547D01*
G37*
G36*
X152917410Y-78109200D02*
G01*
X150145410Y-78109200D01*
X150145410Y-76987200D01*
X152917410Y-76987200D01*
X152917410Y-78109200D01*
G37*
G36*
X133708795Y-75810278D02*
G01*
X133822892Y-75832973D01*
X133919437Y-75872963D01*
X134015983Y-75912954D01*
X134189756Y-76029065D01*
X134337545Y-76176854D01*
X134453656Y-76350627D01*
X134486366Y-76429596D01*
X134533174Y-76542600D01*
X134533637Y-76543719D01*
X134574410Y-76748699D01*
X134574410Y-76957701D01*
X134533637Y-77162681D01*
X134453656Y-77355773D01*
X134337545Y-77529546D01*
X134189756Y-77677335D01*
X134015983Y-77793446D01*
X133919437Y-77833436D01*
X133822892Y-77873427D01*
X133754564Y-77887018D01*
X133617911Y-77914200D01*
X133408909Y-77914200D01*
X133272256Y-77887018D01*
X133203928Y-77873427D01*
X133107383Y-77833436D01*
X133010837Y-77793446D01*
X132837064Y-77677335D01*
X132689275Y-77529546D01*
X132573164Y-77355773D01*
X132493183Y-77162681D01*
X132452410Y-76957701D01*
X132452410Y-76748699D01*
X132493183Y-76543719D01*
X132493647Y-76542600D01*
X132540454Y-76429596D01*
X132573164Y-76350627D01*
X132689275Y-76176854D01*
X132837064Y-76029065D01*
X133010837Y-75912954D01*
X133107383Y-75872964D01*
X133203928Y-75832973D01*
X133318025Y-75810278D01*
X133408909Y-75792200D01*
X133617911Y-75792200D01*
X133708795Y-75810278D01*
G37*
G36*
X144356110Y-76841100D02*
G01*
X143466710Y-76841100D01*
X143466710Y-75545300D01*
X144356110Y-75545300D01*
X144356110Y-76841100D01*
G37*
G36*
X141816110Y-76790300D02*
G01*
X140926710Y-76790300D01*
X140926710Y-75494500D01*
X141816110Y-75494500D01*
X141816110Y-76790300D01*
G37*
G36*
X137822014Y-74629547D02*
G01*
X137858554Y-74640632D01*
X137892231Y-74658633D01*
X137921751Y-74682859D01*
X137945977Y-74712379D01*
X137963978Y-74746056D01*
X137975063Y-74782596D01*
X137979410Y-74826738D01*
X137979410Y-75775662D01*
X137975063Y-75819804D01*
X137963978Y-75856344D01*
X137945977Y-75890021D01*
X137921751Y-75919541D01*
X137892231Y-75943767D01*
X137858554Y-75961768D01*
X137822014Y-75972853D01*
X137777872Y-75977200D01*
X136328948Y-75977200D01*
X136284806Y-75972853D01*
X136248266Y-75961768D01*
X136214589Y-75943767D01*
X136185069Y-75919541D01*
X136160843Y-75890021D01*
X136142842Y-75856344D01*
X136131757Y-75819804D01*
X136127410Y-75775662D01*
X136127410Y-74826738D01*
X136131757Y-74782596D01*
X136142842Y-74746056D01*
X136160843Y-74712379D01*
X136185069Y-74682859D01*
X136214589Y-74658633D01*
X136248266Y-74640632D01*
X136284806Y-74629547D01*
X136328948Y-74625200D01*
X137777872Y-74625200D01*
X137822014Y-74629547D01*
G37*
G36*
X133754564Y-73279382D02*
G01*
X133822892Y-73292973D01*
X133919437Y-73332963D01*
X134015983Y-73372954D01*
X134189756Y-73489065D01*
X134337545Y-73636854D01*
X134453656Y-73810627D01*
X134533637Y-74003719D01*
X134574410Y-74208699D01*
X134574410Y-74417701D01*
X134557522Y-74502601D01*
X134533637Y-74622682D01*
X134514838Y-74668066D01*
X134453656Y-74815773D01*
X134337545Y-74989546D01*
X134189756Y-75137335D01*
X134015983Y-75253446D01*
X133919437Y-75293436D01*
X133822892Y-75333427D01*
X133754564Y-75347018D01*
X133617911Y-75374200D01*
X133408909Y-75374200D01*
X133272256Y-75347018D01*
X133203928Y-75333427D01*
X133107383Y-75293436D01*
X133010837Y-75253446D01*
X132837064Y-75137335D01*
X132689275Y-74989546D01*
X132573164Y-74815773D01*
X132511982Y-74668066D01*
X132493183Y-74622682D01*
X132469298Y-74502601D01*
X132452410Y-74417701D01*
X132452410Y-74208699D01*
X132493183Y-74003719D01*
X132573164Y-73810627D01*
X132689275Y-73636854D01*
X132837064Y-73489065D01*
X133010837Y-73372954D01*
X133107383Y-73332963D01*
X133203928Y-73292973D01*
X133272256Y-73279382D01*
X133408909Y-73252200D01*
X133617911Y-73252200D01*
X133754564Y-73279382D01*
G37*
G36*
X153173001Y-73726285D02*
G01*
X153206979Y-73736593D01*
X153238300Y-73753334D01*
X153265749Y-73775861D01*
X153288276Y-73803310D01*
X153305017Y-73834631D01*
X153315325Y-73868609D01*
X153319410Y-73910090D01*
X153319410Y-74511310D01*
X153315325Y-74552791D01*
X153305017Y-74586769D01*
X153288276Y-74618090D01*
X153265749Y-74645539D01*
X153238300Y-74668066D01*
X153206979Y-74684807D01*
X153173001Y-74695115D01*
X153131520Y-74699200D01*
X152455300Y-74699200D01*
X152413819Y-74695115D01*
X152379841Y-74684807D01*
X152348520Y-74668066D01*
X152321071Y-74645539D01*
X152298544Y-74618090D01*
X152281803Y-74586769D01*
X152271495Y-74552791D01*
X152267410Y-74511310D01*
X152267410Y-73910090D01*
X152271495Y-73868609D01*
X152281803Y-73834631D01*
X152298544Y-73803310D01*
X152321071Y-73775861D01*
X152348520Y-73753334D01*
X152379841Y-73736593D01*
X152413819Y-73726285D01*
X152455300Y-73722200D01*
X153131520Y-73722200D01*
X153173001Y-73726285D01*
G37*
G36*
X151603001Y-73726285D02*
G01*
X151636979Y-73736593D01*
X151668300Y-73753334D01*
X151695749Y-73775861D01*
X151718276Y-73803310D01*
X151735017Y-73834631D01*
X151745325Y-73868609D01*
X151749410Y-73910090D01*
X151749410Y-74511310D01*
X151745325Y-74552791D01*
X151735017Y-74586769D01*
X151718276Y-74618090D01*
X151695749Y-74645539D01*
X151668300Y-74668066D01*
X151636979Y-74684807D01*
X151603001Y-74695115D01*
X151561520Y-74699200D01*
X150885300Y-74699200D01*
X150843819Y-74695115D01*
X150809841Y-74684807D01*
X150778520Y-74668066D01*
X150751071Y-74645539D01*
X150728544Y-74618090D01*
X150711803Y-74586769D01*
X150701495Y-74552791D01*
X150697410Y-74511310D01*
X150697410Y-73910090D01*
X150701495Y-73868609D01*
X150711803Y-73834631D01*
X150728544Y-73803310D01*
X150751071Y-73775861D01*
X150778520Y-73753334D01*
X150809841Y-73736593D01*
X150843819Y-73726285D01*
X150885300Y-73722200D01*
X151561520Y-73722200D01*
X151603001Y-73726285D01*
G37*
G36*
X153173001Y-72151285D02*
G01*
X153206979Y-72161593D01*
X153238300Y-72178334D01*
X153265749Y-72200861D01*
X153288276Y-72228310D01*
X153305017Y-72259631D01*
X153315325Y-72293609D01*
X153319410Y-72335090D01*
X153319410Y-72936310D01*
X153315325Y-72977791D01*
X153305017Y-73011769D01*
X153288276Y-73043090D01*
X153265749Y-73070539D01*
X153238300Y-73093066D01*
X153206979Y-73109807D01*
X153173001Y-73120115D01*
X153131520Y-73124200D01*
X152455300Y-73124200D01*
X152413819Y-73120115D01*
X152379841Y-73109807D01*
X152348520Y-73093066D01*
X152321071Y-73070539D01*
X152298544Y-73043090D01*
X152281803Y-73011769D01*
X152271495Y-72977791D01*
X152267410Y-72936310D01*
X152267410Y-72335090D01*
X152271495Y-72293609D01*
X152281803Y-72259631D01*
X152298544Y-72228310D01*
X152321071Y-72200861D01*
X152348520Y-72178334D01*
X152379841Y-72161593D01*
X152413819Y-72151285D01*
X152455300Y-72147200D01*
X153131520Y-72147200D01*
X153173001Y-72151285D01*
G37*
G36*
X151603001Y-72151285D02*
G01*
X151636979Y-72161593D01*
X151668300Y-72178334D01*
X151695749Y-72200861D01*
X151718276Y-72228310D01*
X151735017Y-72259631D01*
X151745325Y-72293609D01*
X151749410Y-72335090D01*
X151749410Y-72936310D01*
X151745325Y-72977791D01*
X151735017Y-73011769D01*
X151718276Y-73043090D01*
X151695749Y-73070539D01*
X151668300Y-73093066D01*
X151636979Y-73109807D01*
X151603001Y-73120115D01*
X151561520Y-73124200D01*
X150885300Y-73124200D01*
X150843819Y-73120115D01*
X150809841Y-73109807D01*
X150778520Y-73093066D01*
X150751071Y-73070539D01*
X150728544Y-73043090D01*
X150711803Y-73011769D01*
X150701495Y-72977791D01*
X150697410Y-72936310D01*
X150697410Y-72335090D01*
X150701495Y-72293609D01*
X150711803Y-72259631D01*
X150728544Y-72228310D01*
X150751071Y-72200861D01*
X150778520Y-72178334D01*
X150809841Y-72161593D01*
X150843819Y-72151285D01*
X150885300Y-72147200D01*
X151561520Y-72147200D01*
X151603001Y-72151285D01*
G37*
G36*
X143479810Y-72993000D02*
G01*
X141803010Y-72993000D01*
X141803010Y-71367000D01*
X143479810Y-71367000D01*
X143479810Y-72993000D01*
G37*
G36*
X133739130Y-70736312D02*
G01*
X133822892Y-70752973D01*
X133895354Y-70782988D01*
X134015983Y-70832954D01*
X134189756Y-70949065D01*
X134337545Y-71096854D01*
X134453656Y-71270627D01*
X134533637Y-71463719D01*
X134574410Y-71668699D01*
X134574410Y-71877701D01*
X134547228Y-72014354D01*
X134533637Y-72082682D01*
X134504969Y-72151893D01*
X134453656Y-72275773D01*
X134337545Y-72449546D01*
X134189756Y-72597335D01*
X134015983Y-72713446D01*
X133938986Y-72745339D01*
X133822892Y-72793427D01*
X133771220Y-72803705D01*
X133617911Y-72834200D01*
X133408909Y-72834200D01*
X133255600Y-72803705D01*
X133203928Y-72793427D01*
X133087834Y-72745339D01*
X133010837Y-72713446D01*
X132837064Y-72597335D01*
X132689275Y-72449546D01*
X132573164Y-72275773D01*
X132521851Y-72151893D01*
X132493183Y-72082682D01*
X132479592Y-72014354D01*
X132452410Y-71877701D01*
X132452410Y-71668699D01*
X132493183Y-71463719D01*
X132573164Y-71270627D01*
X132689275Y-71096854D01*
X132837064Y-70949065D01*
X133010837Y-70832954D01*
X133131466Y-70782988D01*
X133203928Y-70752973D01*
X133287690Y-70736312D01*
X133408909Y-70712200D01*
X133617911Y-70712200D01*
X133739130Y-70736312D01*
G37*
G36*
X139507878Y-71751765D02*
G01*
X139546548Y-71763496D01*
X139582187Y-71782546D01*
X139613427Y-71808183D01*
X139639064Y-71839423D01*
X139658114Y-71875062D01*
X139669845Y-71913732D01*
X139674410Y-71960088D01*
X139674410Y-72611312D01*
X139669845Y-72657668D01*
X139658114Y-72696338D01*
X139639064Y-72731977D01*
X139613427Y-72763217D01*
X139582187Y-72788854D01*
X139546548Y-72807904D01*
X139507878Y-72819635D01*
X139461522Y-72824200D01*
X138385298Y-72824200D01*
X138338942Y-72819635D01*
X138300272Y-72807904D01*
X138264633Y-72788854D01*
X138233393Y-72763217D01*
X138207756Y-72731977D01*
X138188706Y-72696338D01*
X138176975Y-72657668D01*
X138172410Y-72611312D01*
X138172410Y-71960088D01*
X138176975Y-71913732D01*
X138188706Y-71875062D01*
X138207756Y-71839423D01*
X138233393Y-71808183D01*
X138264633Y-71782546D01*
X138300272Y-71763496D01*
X138338942Y-71751765D01*
X138385298Y-71747200D01*
X139461522Y-71747200D01*
X139507878Y-71751765D01*
G37*
G36*
X139507878Y-69876765D02*
G01*
X139546548Y-69888496D01*
X139582187Y-69907546D01*
X139613427Y-69933183D01*
X139639064Y-69964423D01*
X139658114Y-70000062D01*
X139669845Y-70038732D01*
X139674410Y-70085088D01*
X139674410Y-70736312D01*
X139669845Y-70782668D01*
X139658114Y-70821338D01*
X139639064Y-70856977D01*
X139613427Y-70888217D01*
X139582187Y-70913854D01*
X139546548Y-70932904D01*
X139507878Y-70944635D01*
X139461522Y-70949200D01*
X138385298Y-70949200D01*
X138338942Y-70944635D01*
X138300272Y-70932904D01*
X138264633Y-70913854D01*
X138233393Y-70888217D01*
X138207756Y-70856977D01*
X138188706Y-70821338D01*
X138176975Y-70782668D01*
X138172410Y-70736312D01*
X138172410Y-70085088D01*
X138176975Y-70038732D01*
X138188706Y-70000062D01*
X138207756Y-69964423D01*
X138233393Y-69933183D01*
X138264633Y-69907546D01*
X138300272Y-69888496D01*
X138338942Y-69876765D01*
X138385298Y-69872200D01*
X139461522Y-69872200D01*
X139507878Y-69876765D01*
G37*
G36*
X136670348Y-69979916D02*
G01*
X136690967Y-69986171D01*
X136709963Y-69996324D01*
X136726618Y-70009992D01*
X136740286Y-70026647D01*
X136750439Y-70045643D01*
X136756694Y-70066262D01*
X136759410Y-70093840D01*
X136759410Y-70602560D01*
X136756694Y-70630138D01*
X136750439Y-70650757D01*
X136740286Y-70669753D01*
X136726618Y-70686408D01*
X136709963Y-70700076D01*
X136690967Y-70710229D01*
X136670348Y-70716484D01*
X136642770Y-70719200D01*
X136184050Y-70719200D01*
X136156472Y-70716484D01*
X136135853Y-70710229D01*
X136116857Y-70700076D01*
X136100202Y-70686408D01*
X136086534Y-70669753D01*
X136076381Y-70650757D01*
X136070126Y-70630138D01*
X136067410Y-70602560D01*
X136067410Y-70093840D01*
X136070126Y-70066262D01*
X136076381Y-70045643D01*
X136086534Y-70026647D01*
X136100202Y-70009992D01*
X136116857Y-69996324D01*
X136135853Y-69986171D01*
X136156472Y-69979916D01*
X136184050Y-69977200D01*
X136642770Y-69977200D01*
X136670348Y-69979916D01*
G37*
G36*
X137640348Y-69979916D02*
G01*
X137660967Y-69986171D01*
X137679963Y-69996324D01*
X137696618Y-70009992D01*
X137710286Y-70026647D01*
X137720439Y-70045643D01*
X137726694Y-70066262D01*
X137729410Y-70093840D01*
X137729410Y-70602560D01*
X137726694Y-70630138D01*
X137720439Y-70650757D01*
X137710286Y-70669753D01*
X137696618Y-70686408D01*
X137679963Y-70700076D01*
X137660967Y-70710229D01*
X137640348Y-70716484D01*
X137612770Y-70719200D01*
X137154050Y-70719200D01*
X137126472Y-70716484D01*
X137105853Y-70710229D01*
X137086857Y-70700076D01*
X137070202Y-70686408D01*
X137056534Y-70669753D01*
X137046381Y-70650757D01*
X137040126Y-70630138D01*
X137037410Y-70602560D01*
X137037410Y-70093840D01*
X137040126Y-70066262D01*
X137046381Y-70045643D01*
X137056534Y-70026647D01*
X137070202Y-70009992D01*
X137086857Y-69996324D01*
X137105853Y-69986171D01*
X137126472Y-69979916D01*
X137154050Y-69977200D01*
X137612770Y-69977200D01*
X137640348Y-69979916D01*
G37*
G36*
X151564410Y-68609200D02*
G01*
X146382410Y-68609200D01*
X146382410Y-66097200D01*
X151564410Y-66097200D01*
X151564410Y-68609200D01*
G37*
G36*
X138429410Y-68599200D02*
G01*
X133247410Y-68599200D01*
X133247410Y-66087200D01*
X138429410Y-66087200D01*
X138429410Y-68599200D01*
G37*
G36*
X151564410Y-63338200D02*
G01*
X149112410Y-63338200D01*
X149112410Y-62728200D01*
X151564410Y-62728200D01*
X151564410Y-63338200D01*
G37*
G36*
X135699410Y-63328200D02*
G01*
X133247410Y-63328200D01*
X133247410Y-62718200D01*
X135699410Y-62718200D01*
X135699410Y-63328200D01*
G37*
G36*
X151564410Y-59969200D02*
G01*
X146382410Y-59969200D01*
X146382410Y-57457200D01*
X151564410Y-57457200D01*
X151564410Y-59969200D01*
G37*
G36*
X138429410Y-59959200D02*
G01*
X133247410Y-59959200D01*
X133247410Y-57447200D01*
X138429410Y-57447200D01*
X138429410Y-59959200D01*
G37*
M02*
