%TF.GenerationSoftware,KiCad,Pcbnew,5.1.5-52549c5~84~ubuntu18.04.1*%
%TF.CreationDate,2020-03-03T14:54:20+01:00*%
%TF.ProjectId,HMC_RF_IPE,484d435f-5246-45f4-9950-452e6b696361,rev?*%
%TF.SameCoordinates,Original*%
%TF.FileFunction,Copper,L2,Inr*%
%TF.FilePolarity,Positive*%
%FSLAX46Y46*%
G04 Gerber Fmt 4.6, Leading zero omitted, Abs format (unit mm)*
G04 Created by KiCad (PCBNEW 5.1.5-52549c5~84~ubuntu18.04.1) date 2020-03-03 14:54:20*
%MOMM*%
%LPD*%
G04 APERTURE LIST*
%TA.AperFunction,ViaPad*%
%ADD10C,2.020000*%
%TD*%
%TA.AperFunction,ViaPad*%
%ADD11C,0.400000*%
%TD*%
%TA.AperFunction,ViaPad*%
%ADD12C,0.800000*%
%TD*%
%TA.AperFunction,Conductor*%
%ADD13C,0.100000*%
%TD*%
G04 APERTURE END LIST*
D10*
%TO.N,+5V*%
%TO.C,J1*%
X133513410Y-71773200D03*
%TO.N,GND*%
X133513410Y-74313200D03*
%TO.N,Net-(J1-Pad3)*%
X133513410Y-76853200D03*
%TO.N,Net-(J1-Pad4)*%
X133513410Y-79393200D03*
%TD*%
D11*
%TO.N,GND*%
X142383410Y-92253200D03*
D12*
X136853410Y-71583200D03*
D11*
X141033410Y-90753200D03*
D12*
X131798410Y-83848200D03*
X131853410Y-81338200D03*
X132948410Y-83848200D03*
X132953410Y-81368200D03*
X136163410Y-81348200D03*
X153055410Y-75939200D03*
D11*
X148099874Y-89843200D03*
X147118186Y-89843200D03*
X146136498Y-89843200D03*
X145333410Y-89823200D03*
X147939874Y-89213200D03*
X146958186Y-89213200D03*
X145976498Y-89213200D03*
X145173410Y-89193200D03*
X139259874Y-89793200D03*
X138278186Y-89793200D03*
X137296498Y-89793200D03*
X136493410Y-89773200D03*
X139789874Y-89203200D03*
X138808186Y-89203200D03*
X137826498Y-89203200D03*
X137023410Y-89183200D03*
X139799874Y-86943200D03*
X138818186Y-86943200D03*
X147839874Y-86863200D03*
X146858186Y-86863200D03*
X145876498Y-86863200D03*
X145073410Y-86843200D03*
X136106036Y-95023200D03*
X137057880Y-95023200D03*
X138009723Y-95023200D03*
X138961566Y-95023200D03*
X145636036Y-94943200D03*
X146587880Y-94943200D03*
X147539723Y-94943200D03*
X148491566Y-94943200D03*
X132336036Y-86123200D03*
X133287880Y-86123200D03*
X134239723Y-86123200D03*
X135191566Y-86123200D03*
X132196036Y-98273200D03*
X133147880Y-98273200D03*
X134099723Y-98273200D03*
X135051566Y-98273200D03*
X149786036Y-98273200D03*
X150737880Y-98273200D03*
X151689723Y-98273200D03*
X152641566Y-98273200D03*
X149836036Y-86173200D03*
X150787880Y-86173200D03*
X151739723Y-86173200D03*
X152691566Y-86173200D03*
X138752402Y-60523000D03*
X137921002Y-60523000D03*
X137089601Y-60523000D03*
X136258201Y-60523000D03*
X135426800Y-60523000D03*
X134595400Y-60523000D03*
X133764000Y-60523000D03*
X138742402Y-65563000D03*
X137911002Y-65563000D03*
X137079601Y-65563000D03*
X136248201Y-65563000D03*
X135416800Y-65563000D03*
X134585400Y-65563000D03*
X133754000Y-65563000D03*
X151202402Y-65643000D03*
X150371002Y-65643000D03*
X149539601Y-65643000D03*
X148708201Y-65643000D03*
X147876800Y-65643000D03*
X147045400Y-65643000D03*
X146214000Y-65643000D03*
X151212402Y-60403000D03*
X150381002Y-60403000D03*
X149549601Y-60403000D03*
X148718201Y-60403000D03*
X147886800Y-60403000D03*
X147055400Y-60403000D03*
X146224000Y-60403000D03*
X143773410Y-93483200D03*
X141023410Y-93483200D03*
X144813410Y-91223200D03*
X144813410Y-90523200D03*
X143783410Y-90753200D03*
X151506624Y-94935200D03*
X153470000Y-94935200D03*
X149543249Y-94935200D03*
X151536624Y-89779200D03*
X153500000Y-89779200D03*
X149573249Y-89779200D03*
X133280506Y-94965200D03*
X131376820Y-94965200D03*
X135184193Y-94965200D03*
X133240506Y-89779200D03*
X131336820Y-89779200D03*
X135144193Y-89779200D03*
X144733410Y-94933200D03*
X139913410Y-94973200D03*
X142387410Y-95497200D03*
X140863410Y-95497200D03*
X141616811Y-95517200D03*
X143149410Y-95497200D03*
X143911410Y-95497200D03*
X143911410Y-94735200D03*
X140863410Y-94043200D03*
X141963410Y-92713200D03*
X142793410Y-92723200D03*
X142793410Y-91863200D03*
X141973410Y-91873200D03*
X143149410Y-94735200D03*
X142387410Y-94735200D03*
X141616811Y-94755200D03*
X140863410Y-94735200D03*
X143923410Y-94053200D03*
X132328663Y-94203200D03*
X133280506Y-94203200D03*
X134232350Y-94203200D03*
X135184193Y-94203200D03*
X136136036Y-94203200D03*
X137087880Y-94203200D03*
X138039723Y-94203200D03*
X138991566Y-94203200D03*
X131376820Y-94203200D03*
X139943410Y-94203200D03*
X138961566Y-90543200D03*
X138009723Y-90543200D03*
X137057880Y-90543200D03*
X136106036Y-90543200D03*
X135154193Y-90543200D03*
X134202350Y-90543200D03*
X133250506Y-90543200D03*
X132298663Y-90543200D03*
X139913410Y-90543200D03*
X131346820Y-90543200D03*
X145616498Y-94173200D03*
X146598186Y-94173200D03*
X147579874Y-94173200D03*
X148561561Y-94173200D03*
X149543249Y-94173200D03*
X150524937Y-94173200D03*
X151506624Y-94173200D03*
X152488312Y-94173200D03*
X144744811Y-94193200D03*
X153470000Y-94173200D03*
X152488312Y-90543200D03*
X151506624Y-90543200D03*
X150524937Y-90543200D03*
X149543249Y-90543200D03*
X148561561Y-90543200D03*
X147579874Y-90543200D03*
X146598186Y-90543200D03*
X145616498Y-90543200D03*
X153470000Y-90543200D03*
X132328663Y-93503200D03*
X133280506Y-93503200D03*
X134232350Y-93503200D03*
X135184193Y-93503200D03*
X136136036Y-93503200D03*
X137087880Y-93503200D03*
X138039723Y-93503200D03*
X138991566Y-93503200D03*
X131376820Y-93503200D03*
X138961566Y-91243200D03*
X138009723Y-91243200D03*
X137057880Y-91243200D03*
X136106036Y-91243200D03*
X135154193Y-91243200D03*
X134202350Y-91243200D03*
X133250506Y-91243200D03*
X132298663Y-91243200D03*
X139913410Y-91243200D03*
X131346820Y-91243200D03*
X145616498Y-93473200D03*
X146598186Y-93473200D03*
X147579874Y-93473200D03*
X148561561Y-93473200D03*
X149543249Y-93473200D03*
X150524937Y-93473200D03*
X151506624Y-93473200D03*
X152488312Y-93473200D03*
X144744811Y-93493200D03*
X139943410Y-93503200D03*
X153470000Y-93473200D03*
X152488312Y-91243200D03*
X151506624Y-91243200D03*
X150524937Y-91243200D03*
X149543249Y-91243200D03*
X148561561Y-91243200D03*
X147579874Y-91243200D03*
X146598186Y-91243200D03*
X145616498Y-91243200D03*
X153470000Y-91243200D03*
X134585400Y-64893000D03*
X135416800Y-64893000D03*
X136248201Y-64893000D03*
X137079601Y-64893000D03*
X137911002Y-64893000D03*
X138742402Y-64893000D03*
X139573803Y-64893000D03*
X140405203Y-64893000D03*
X141236604Y-64893000D03*
X142068004Y-64893000D03*
X142899405Y-64893000D03*
X143730805Y-64893000D03*
X144562206Y-64893000D03*
X145393606Y-64893000D03*
X146225007Y-64893000D03*
X147056407Y-64893000D03*
X147887808Y-64893000D03*
X148719208Y-64893000D03*
X149550609Y-64893000D03*
X150382009Y-64893000D03*
X133754000Y-64893000D03*
X151213410Y-64893000D03*
X150382009Y-61203000D03*
X149550609Y-61203000D03*
X148719208Y-61203000D03*
X147887808Y-61203000D03*
X147056407Y-61203000D03*
X146225007Y-61203000D03*
X145393606Y-61203000D03*
X144562206Y-61203000D03*
X143730805Y-61203000D03*
X142899405Y-61203000D03*
X142068004Y-61203000D03*
X141236604Y-61203000D03*
X140405203Y-61203000D03*
X139573803Y-61203000D03*
X138742402Y-61203000D03*
X137911002Y-61203000D03*
X137079601Y-61203000D03*
X136248201Y-61203000D03*
X135416800Y-61203000D03*
X134585400Y-61203000D03*
X151213410Y-61203000D03*
X133754000Y-61203000D03*
X134585400Y-64193000D03*
X135416800Y-64193000D03*
X136248201Y-64193000D03*
X137079601Y-64193000D03*
X137911002Y-64193000D03*
X138742402Y-64193000D03*
X139573803Y-64193000D03*
X140405203Y-64193000D03*
X141236604Y-64193000D03*
X142068004Y-64193000D03*
X142899405Y-64193000D03*
X143730805Y-64193000D03*
X147056407Y-64193000D03*
X147887808Y-64193000D03*
X148719208Y-64193000D03*
X149550609Y-64193000D03*
X150382009Y-64193000D03*
X133754000Y-64193000D03*
X151213410Y-64193000D03*
X150382009Y-61903000D03*
X149550609Y-61903000D03*
X148719208Y-61903000D03*
X147887808Y-61903000D03*
X147056407Y-61903000D03*
X146225007Y-61903000D03*
X145393606Y-61903000D03*
X144562206Y-61903000D03*
X143730805Y-61903000D03*
X142899405Y-61903000D03*
X142068004Y-61903000D03*
X141236604Y-61903000D03*
X140405203Y-61903000D03*
X139573803Y-61903000D03*
X138742402Y-61903000D03*
X137911002Y-61903000D03*
X137079601Y-61903000D03*
X136248201Y-61903000D03*
X135416800Y-61903000D03*
X134585400Y-61903000D03*
X151213410Y-61903000D03*
X133754000Y-61903000D03*
X137836498Y-86943200D03*
X137033410Y-86923200D03*
D12*
X150515410Y-75685200D03*
X152963410Y-78930700D03*
X152963410Y-80768200D03*
X152963410Y-82605700D03*
X152963410Y-84443200D03*
X144163410Y-80853200D03*
X131683410Y-76843200D03*
X131673410Y-78163200D03*
X131623410Y-79773200D03*
X133583410Y-69903200D03*
X131873410Y-70383200D03*
X135103410Y-72623200D03*
X135143410Y-73773200D03*
X131783410Y-72603200D03*
X131753410Y-74873200D03*
X135303410Y-71233200D03*
X139273410Y-74333200D03*
X135021410Y-75177200D03*
X144673410Y-77717200D03*
X142641410Y-75939200D03*
D11*
X144562206Y-64193000D03*
X145393606Y-64193000D03*
X146225007Y-64193000D03*
D12*
%TO.N,VSS*%
X151703410Y-76263200D03*
%TO.N,Net-(C10-Pad1)*%
X138493410Y-76613200D03*
%TO.N,Net-(J1-Pad4)*%
X144053410Y-79723200D03*
%TO.N,Net-(J1-Pad3)*%
X142413410Y-77323200D03*
%TO.N,Net-(R2-Pad2)*%
X139173410Y-85948200D03*
%TO.N,Net-(R3-Pad2)*%
X148991410Y-75685200D03*
D11*
%TO.N,/Control/I*%
X142393410Y-89613200D03*
D12*
%TO.N,Net-(C11-Pad1)*%
X137293410Y-81433200D03*
X144683410Y-82740199D03*
%TO.N,Net-(C13-Pad1)*%
X140143410Y-76543200D03*
D11*
%TO.N,Net-(C14-Pad1)*%
X141643410Y-90003200D03*
D12*
%TO.N,GNDS*%
X141819410Y-74433200D03*
X150848410Y-70348200D03*
X151823410Y-70348200D03*
X143149410Y-74415200D03*
X140723410Y-73399200D03*
X140733410Y-74433200D03*
X149193410Y-71613200D03*
X145663410Y-74683200D03*
X153198410Y-72323200D03*
X147623410Y-73073200D03*
D11*
%TO.N,Net-(C17-Pad1)*%
X143323410Y-90023200D03*
%TD*%
D13*
%TO.N,GND*%
G36*
X151416467Y-57001563D02*
G01*
X151418005Y-57002029D01*
X151424422Y-57002661D01*
X151434009Y-57005457D01*
X151436566Y-57006436D01*
X151436672Y-57006523D01*
X151445304Y-57011137D01*
X151445831Y-57011779D01*
X151451450Y-57016390D01*
X151451981Y-57016935D01*
X151455295Y-57020870D01*
X151456058Y-57022044D01*
X151462476Y-57032236D01*
X151463190Y-57033546D01*
X151463359Y-57033924D01*
X151463442Y-57034196D01*
X151463581Y-57035605D01*
X151466282Y-57044509D01*
X151467410Y-57053533D01*
X151467411Y-68865692D01*
X151467376Y-68873294D01*
X151467986Y-68879822D01*
X151467887Y-68886380D01*
X151468075Y-68888465D01*
X151489177Y-69106037D01*
X151491803Y-69119374D01*
X151494244Y-69132751D01*
X151494833Y-69134761D01*
X151557792Y-69344089D01*
X151562964Y-69356675D01*
X151567952Y-69369310D01*
X151568920Y-69371167D01*
X151671340Y-69564281D01*
X151678849Y-69575609D01*
X151686204Y-69587048D01*
X151687514Y-69588682D01*
X151776642Y-69698200D01*
X151759391Y-69698200D01*
X151633812Y-69723179D01*
X151515520Y-69772178D01*
X151409059Y-69843312D01*
X151335910Y-69916461D01*
X151262761Y-69843312D01*
X151156300Y-69772178D01*
X151038008Y-69723179D01*
X150912429Y-69698200D01*
X150784391Y-69698200D01*
X150658812Y-69723179D01*
X150540520Y-69772178D01*
X150434059Y-69843312D01*
X150343522Y-69933849D01*
X150272388Y-70040310D01*
X150223389Y-70158602D01*
X150198410Y-70284181D01*
X150198410Y-70412219D01*
X150223389Y-70537798D01*
X150272388Y-70656090D01*
X150343522Y-70762551D01*
X150434059Y-70853088D01*
X150540520Y-70924222D01*
X150658812Y-70973221D01*
X150784391Y-70998200D01*
X150912429Y-70998200D01*
X151038008Y-70973221D01*
X151156300Y-70924222D01*
X151262761Y-70853088D01*
X151335910Y-70779939D01*
X151409059Y-70853088D01*
X151515520Y-70924222D01*
X151633812Y-70973221D01*
X151759391Y-70998200D01*
X151887429Y-70998200D01*
X152013008Y-70973221D01*
X152131300Y-70924222D01*
X152237761Y-70853088D01*
X152328298Y-70762551D01*
X152399432Y-70656090D01*
X152448431Y-70537798D01*
X152473410Y-70412219D01*
X152473410Y-70284181D01*
X152448431Y-70158602D01*
X152425186Y-70102485D01*
X152466531Y-70115331D01*
X152479859Y-70118081D01*
X152493122Y-70121012D01*
X152495203Y-70121248D01*
X152698458Y-70142827D01*
X152699001Y-70142992D01*
X152721045Y-70145163D01*
X153753410Y-70145195D01*
X153753410Y-71983848D01*
X153703298Y-71908849D01*
X153612761Y-71818312D01*
X153506300Y-71747178D01*
X153388008Y-71698179D01*
X153262429Y-71673200D01*
X153134391Y-71673200D01*
X153008812Y-71698179D01*
X152890520Y-71747178D01*
X152784059Y-71818312D01*
X152693522Y-71908849D01*
X152622388Y-72015310D01*
X152573389Y-72133602D01*
X152548410Y-72259181D01*
X152548410Y-72387219D01*
X152573389Y-72512798D01*
X152622388Y-72631090D01*
X152693522Y-72737551D01*
X152784059Y-72828088D01*
X152890520Y-72899222D01*
X153008812Y-72948221D01*
X153134391Y-72973200D01*
X153262429Y-72973200D01*
X153388008Y-72948221D01*
X153506300Y-72899222D01*
X153612761Y-72828088D01*
X153703298Y-72737551D01*
X153753410Y-72662552D01*
X153753411Y-98574200D01*
X131043410Y-98574200D01*
X131043410Y-89958879D01*
X141193410Y-89958879D01*
X141193410Y-90047521D01*
X141210704Y-90134460D01*
X141244625Y-90216355D01*
X141293872Y-90290058D01*
X141356552Y-90352738D01*
X141430255Y-90401985D01*
X141512150Y-90435906D01*
X141599089Y-90453200D01*
X141687731Y-90453200D01*
X141774670Y-90435906D01*
X141856565Y-90401985D01*
X141930268Y-90352738D01*
X141992948Y-90290058D01*
X142042195Y-90216355D01*
X142076116Y-90134460D01*
X142093410Y-90047521D01*
X142093410Y-89958879D01*
X142091105Y-89947291D01*
X142106552Y-89962738D01*
X142180255Y-90011985D01*
X142262150Y-90045906D01*
X142349089Y-90063200D01*
X142437731Y-90063200D01*
X142524670Y-90045906D01*
X142606565Y-90011985D01*
X142656111Y-89978879D01*
X142873410Y-89978879D01*
X142873410Y-90067521D01*
X142890704Y-90154460D01*
X142924625Y-90236355D01*
X142973872Y-90310058D01*
X143036552Y-90372738D01*
X143110255Y-90421985D01*
X143192150Y-90455906D01*
X143279089Y-90473200D01*
X143367731Y-90473200D01*
X143454670Y-90455906D01*
X143536565Y-90421985D01*
X143610268Y-90372738D01*
X143672948Y-90310058D01*
X143722195Y-90236355D01*
X143756116Y-90154460D01*
X143773410Y-90067521D01*
X143773410Y-89978879D01*
X143756116Y-89891940D01*
X143722195Y-89810045D01*
X143672948Y-89736342D01*
X143610268Y-89673662D01*
X143536565Y-89624415D01*
X143454670Y-89590494D01*
X143367731Y-89573200D01*
X143279089Y-89573200D01*
X143192150Y-89590494D01*
X143110255Y-89624415D01*
X143036552Y-89673662D01*
X142973872Y-89736342D01*
X142924625Y-89810045D01*
X142890704Y-89891940D01*
X142873410Y-89978879D01*
X142656111Y-89978879D01*
X142680268Y-89962738D01*
X142742948Y-89900058D01*
X142792195Y-89826355D01*
X142826116Y-89744460D01*
X142843410Y-89657521D01*
X142843410Y-89568879D01*
X142826116Y-89481940D01*
X142792195Y-89400045D01*
X142742948Y-89326342D01*
X142680268Y-89263662D01*
X142606565Y-89214415D01*
X142524670Y-89180494D01*
X142437731Y-89163200D01*
X142349089Y-89163200D01*
X142262150Y-89180494D01*
X142180255Y-89214415D01*
X142106552Y-89263662D01*
X142043872Y-89326342D01*
X141994625Y-89400045D01*
X141960704Y-89481940D01*
X141943410Y-89568879D01*
X141943410Y-89657521D01*
X141945715Y-89669109D01*
X141930268Y-89653662D01*
X141856565Y-89604415D01*
X141774670Y-89570494D01*
X141687731Y-89553200D01*
X141599089Y-89553200D01*
X141512150Y-89570494D01*
X141430255Y-89604415D01*
X141356552Y-89653662D01*
X141293872Y-89716342D01*
X141244625Y-89790045D01*
X141210704Y-89871940D01*
X141193410Y-89958879D01*
X131043410Y-89958879D01*
X131043410Y-85884181D01*
X138523410Y-85884181D01*
X138523410Y-86012219D01*
X138548389Y-86137798D01*
X138597388Y-86256090D01*
X138668522Y-86362551D01*
X138759059Y-86453088D01*
X138865520Y-86524222D01*
X138983812Y-86573221D01*
X139109391Y-86598200D01*
X139237429Y-86598200D01*
X139363008Y-86573221D01*
X139481300Y-86524222D01*
X139587761Y-86453088D01*
X139678298Y-86362551D01*
X139749432Y-86256090D01*
X139798431Y-86137798D01*
X139823410Y-86012219D01*
X139823410Y-85884181D01*
X139798431Y-85758602D01*
X139749432Y-85640310D01*
X139678298Y-85533849D01*
X139587761Y-85443312D01*
X139481300Y-85372178D01*
X139363008Y-85323179D01*
X139237429Y-85298200D01*
X139109391Y-85298200D01*
X138983812Y-85323179D01*
X138865520Y-85372178D01*
X138759059Y-85443312D01*
X138668522Y-85533849D01*
X138597388Y-85640310D01*
X138548389Y-85758602D01*
X138523410Y-85884181D01*
X131043410Y-85884181D01*
X131043410Y-82676180D01*
X144033410Y-82676180D01*
X144033410Y-82804218D01*
X144058389Y-82929797D01*
X144107388Y-83048089D01*
X144178522Y-83154550D01*
X144269059Y-83245087D01*
X144375520Y-83316221D01*
X144493812Y-83365220D01*
X144619391Y-83390199D01*
X144747429Y-83390199D01*
X144873008Y-83365220D01*
X144991300Y-83316221D01*
X145097761Y-83245087D01*
X145188298Y-83154550D01*
X145259432Y-83048089D01*
X145308431Y-82929797D01*
X145333410Y-82804218D01*
X145333410Y-82676180D01*
X145308431Y-82550601D01*
X145259432Y-82432309D01*
X145188298Y-82325848D01*
X145097761Y-82235311D01*
X144991300Y-82164177D01*
X144873008Y-82115178D01*
X144747429Y-82090199D01*
X144619391Y-82090199D01*
X144493812Y-82115178D01*
X144375520Y-82164177D01*
X144269059Y-82235311D01*
X144178522Y-82325848D01*
X144107388Y-82432309D01*
X144058389Y-82550601D01*
X144033410Y-82676180D01*
X131043410Y-82676180D01*
X131043410Y-81369181D01*
X136643410Y-81369181D01*
X136643410Y-81497219D01*
X136668389Y-81622798D01*
X136717388Y-81741090D01*
X136788522Y-81847551D01*
X136879059Y-81938088D01*
X136985520Y-82009222D01*
X137103812Y-82058221D01*
X137229391Y-82083200D01*
X137357429Y-82083200D01*
X137483008Y-82058221D01*
X137601300Y-82009222D01*
X137707761Y-81938088D01*
X137798298Y-81847551D01*
X137869432Y-81741090D01*
X137918431Y-81622798D01*
X137943410Y-81497219D01*
X137943410Y-81369181D01*
X137918431Y-81243602D01*
X137869432Y-81125310D01*
X137798298Y-81018849D01*
X137707761Y-80928312D01*
X137601300Y-80857178D01*
X137483008Y-80808179D01*
X137357429Y-80783200D01*
X137229391Y-80783200D01*
X137103812Y-80808179D01*
X136985520Y-80857178D01*
X136879059Y-80928312D01*
X136788522Y-81018849D01*
X136717388Y-81125310D01*
X136668389Y-81243602D01*
X136643410Y-81369181D01*
X131043410Y-81369181D01*
X131043410Y-79269101D01*
X132253410Y-79269101D01*
X132253410Y-79517299D01*
X132301831Y-79760729D01*
X132396812Y-79990034D01*
X132534704Y-80196403D01*
X132710207Y-80371906D01*
X132916576Y-80509798D01*
X133145881Y-80604779D01*
X133389311Y-80653200D01*
X133637509Y-80653200D01*
X133880939Y-80604779D01*
X134110244Y-80509798D01*
X134316613Y-80371906D01*
X134492116Y-80196403D01*
X134630008Y-79990034D01*
X134724989Y-79760729D01*
X134745188Y-79659181D01*
X143403410Y-79659181D01*
X143403410Y-79787219D01*
X143428389Y-79912798D01*
X143477388Y-80031090D01*
X143548522Y-80137551D01*
X143639059Y-80228088D01*
X143745520Y-80299222D01*
X143863812Y-80348221D01*
X143989391Y-80373200D01*
X144117429Y-80373200D01*
X144243008Y-80348221D01*
X144361300Y-80299222D01*
X144467761Y-80228088D01*
X144558298Y-80137551D01*
X144629432Y-80031090D01*
X144678431Y-79912798D01*
X144703410Y-79787219D01*
X144703410Y-79659181D01*
X144678431Y-79533602D01*
X144629432Y-79415310D01*
X144558298Y-79308849D01*
X144467761Y-79218312D01*
X144361300Y-79147178D01*
X144243008Y-79098179D01*
X144117429Y-79073200D01*
X143989391Y-79073200D01*
X143863812Y-79098179D01*
X143745520Y-79147178D01*
X143639059Y-79218312D01*
X143548522Y-79308849D01*
X143477388Y-79415310D01*
X143428389Y-79533602D01*
X143403410Y-79659181D01*
X134745188Y-79659181D01*
X134773410Y-79517299D01*
X134773410Y-79269101D01*
X134724989Y-79025671D01*
X134630008Y-78796366D01*
X134492116Y-78589997D01*
X134316613Y-78414494D01*
X134110244Y-78276602D01*
X133880939Y-78181621D01*
X133637509Y-78133200D01*
X133389311Y-78133200D01*
X133145881Y-78181621D01*
X132916576Y-78276602D01*
X132710207Y-78414494D01*
X132534704Y-78589997D01*
X132396812Y-78796366D01*
X132301831Y-79025671D01*
X132253410Y-79269101D01*
X131043410Y-79269101D01*
X131043410Y-76729101D01*
X132253410Y-76729101D01*
X132253410Y-76977299D01*
X132301831Y-77220729D01*
X132396812Y-77450034D01*
X132534704Y-77656403D01*
X132710207Y-77831906D01*
X132916576Y-77969798D01*
X133145881Y-78064779D01*
X133389311Y-78113200D01*
X133637509Y-78113200D01*
X133880939Y-78064779D01*
X134110244Y-77969798D01*
X134316613Y-77831906D01*
X134492116Y-77656403D01*
X134630008Y-77450034D01*
X134724989Y-77220729D01*
X134773410Y-76977299D01*
X134773410Y-76729101D01*
X134737622Y-76549181D01*
X137843410Y-76549181D01*
X137843410Y-76677219D01*
X137868389Y-76802798D01*
X137917388Y-76921090D01*
X137988522Y-77027551D01*
X138079059Y-77118088D01*
X138185520Y-77189222D01*
X138303812Y-77238221D01*
X138429391Y-77263200D01*
X138557429Y-77263200D01*
X138577634Y-77259181D01*
X141763410Y-77259181D01*
X141763410Y-77387219D01*
X141788389Y-77512798D01*
X141837388Y-77631090D01*
X141908522Y-77737551D01*
X141999059Y-77828088D01*
X142105520Y-77899222D01*
X142223812Y-77948221D01*
X142349391Y-77973200D01*
X142477429Y-77973200D01*
X142603008Y-77948221D01*
X142721300Y-77899222D01*
X142827761Y-77828088D01*
X142918298Y-77737551D01*
X142989432Y-77631090D01*
X143038431Y-77512798D01*
X143063410Y-77387219D01*
X143063410Y-77259181D01*
X143038431Y-77133602D01*
X142989432Y-77015310D01*
X142918298Y-76908849D01*
X142827761Y-76818312D01*
X142721300Y-76747178D01*
X142603008Y-76698179D01*
X142477429Y-76673200D01*
X142349391Y-76673200D01*
X142223812Y-76698179D01*
X142105520Y-76747178D01*
X141999059Y-76818312D01*
X141908522Y-76908849D01*
X141837388Y-77015310D01*
X141788389Y-77133602D01*
X141763410Y-77259181D01*
X138577634Y-77259181D01*
X138683008Y-77238221D01*
X138801300Y-77189222D01*
X138907761Y-77118088D01*
X138998298Y-77027551D01*
X139069432Y-76921090D01*
X139118431Y-76802798D01*
X139143410Y-76677219D01*
X139143410Y-76549181D01*
X139129487Y-76479181D01*
X139493410Y-76479181D01*
X139493410Y-76607219D01*
X139518389Y-76732798D01*
X139567388Y-76851090D01*
X139638522Y-76957551D01*
X139729059Y-77048088D01*
X139835520Y-77119222D01*
X139953812Y-77168221D01*
X140079391Y-77193200D01*
X140207429Y-77193200D01*
X140333008Y-77168221D01*
X140451300Y-77119222D01*
X140557761Y-77048088D01*
X140648298Y-76957551D01*
X140719432Y-76851090D01*
X140768431Y-76732798D01*
X140793410Y-76607219D01*
X140793410Y-76479181D01*
X140768431Y-76353602D01*
X140719432Y-76235310D01*
X140648298Y-76128849D01*
X140557761Y-76038312D01*
X140451300Y-75967178D01*
X140333008Y-75918179D01*
X140207429Y-75893200D01*
X140079391Y-75893200D01*
X139953812Y-75918179D01*
X139835520Y-75967178D01*
X139729059Y-76038312D01*
X139638522Y-76128849D01*
X139567388Y-76235310D01*
X139518389Y-76353602D01*
X139493410Y-76479181D01*
X139129487Y-76479181D01*
X139118431Y-76423602D01*
X139069432Y-76305310D01*
X138998298Y-76198849D01*
X138907761Y-76108312D01*
X138801300Y-76037178D01*
X138683008Y-75988179D01*
X138557429Y-75963200D01*
X138429391Y-75963200D01*
X138303812Y-75988179D01*
X138185520Y-76037178D01*
X138079059Y-76108312D01*
X137988522Y-76198849D01*
X137917388Y-76305310D01*
X137868389Y-76423602D01*
X137843410Y-76549181D01*
X134737622Y-76549181D01*
X134724989Y-76485671D01*
X134630008Y-76256366D01*
X134492116Y-76049997D01*
X134316613Y-75874494D01*
X134110244Y-75736602D01*
X133880939Y-75641621D01*
X133778180Y-75621181D01*
X148341410Y-75621181D01*
X148341410Y-75749219D01*
X148366389Y-75874798D01*
X148415388Y-75993090D01*
X148486522Y-76099551D01*
X148577059Y-76190088D01*
X148683520Y-76261222D01*
X148801812Y-76310221D01*
X148927391Y-76335200D01*
X149055429Y-76335200D01*
X149181008Y-76310221D01*
X149299300Y-76261222D01*
X149392152Y-76199181D01*
X151053410Y-76199181D01*
X151053410Y-76327219D01*
X151078389Y-76452798D01*
X151127388Y-76571090D01*
X151198522Y-76677551D01*
X151289059Y-76768088D01*
X151395520Y-76839222D01*
X151513812Y-76888221D01*
X151639391Y-76913200D01*
X151767429Y-76913200D01*
X151893008Y-76888221D01*
X152011300Y-76839222D01*
X152117761Y-76768088D01*
X152208298Y-76677551D01*
X152279432Y-76571090D01*
X152328431Y-76452798D01*
X152353410Y-76327219D01*
X152353410Y-76199181D01*
X152328431Y-76073602D01*
X152279432Y-75955310D01*
X152208298Y-75848849D01*
X152117761Y-75758312D01*
X152011300Y-75687178D01*
X151893008Y-75638179D01*
X151767429Y-75613200D01*
X151639391Y-75613200D01*
X151513812Y-75638179D01*
X151395520Y-75687178D01*
X151289059Y-75758312D01*
X151198522Y-75848849D01*
X151127388Y-75955310D01*
X151078389Y-76073602D01*
X151053410Y-76199181D01*
X149392152Y-76199181D01*
X149405761Y-76190088D01*
X149496298Y-76099551D01*
X149567432Y-75993090D01*
X149616431Y-75874798D01*
X149641410Y-75749219D01*
X149641410Y-75621181D01*
X149616431Y-75495602D01*
X149567432Y-75377310D01*
X149496298Y-75270849D01*
X149405761Y-75180312D01*
X149299300Y-75109178D01*
X149181008Y-75060179D01*
X149055429Y-75035200D01*
X148927391Y-75035200D01*
X148801812Y-75060179D01*
X148683520Y-75109178D01*
X148577059Y-75180312D01*
X148486522Y-75270849D01*
X148415388Y-75377310D01*
X148366389Y-75495602D01*
X148341410Y-75621181D01*
X133778180Y-75621181D01*
X133637509Y-75593200D01*
X133389311Y-75593200D01*
X133145881Y-75641621D01*
X132916576Y-75736602D01*
X132710207Y-75874494D01*
X132534704Y-76049997D01*
X132396812Y-76256366D01*
X132301831Y-76485671D01*
X132253410Y-76729101D01*
X131043410Y-76729101D01*
X131043410Y-73335181D01*
X140073410Y-73335181D01*
X140073410Y-73463219D01*
X140098389Y-73588798D01*
X140147388Y-73707090D01*
X140218522Y-73813551D01*
X140309059Y-73904088D01*
X140332186Y-73919541D01*
X140319059Y-73928312D01*
X140228522Y-74018849D01*
X140157388Y-74125310D01*
X140108389Y-74243602D01*
X140083410Y-74369181D01*
X140083410Y-74497219D01*
X140108389Y-74622798D01*
X140157388Y-74741090D01*
X140228522Y-74847551D01*
X140319059Y-74938088D01*
X140425520Y-75009222D01*
X140543812Y-75058221D01*
X140669391Y-75083200D01*
X140797429Y-75083200D01*
X140923008Y-75058221D01*
X141041300Y-75009222D01*
X141147761Y-74938088D01*
X141238298Y-74847551D01*
X141276410Y-74790512D01*
X141314522Y-74847551D01*
X141405059Y-74938088D01*
X141511520Y-75009222D01*
X141629812Y-75058221D01*
X141755391Y-75083200D01*
X141883429Y-75083200D01*
X142009008Y-75058221D01*
X142127300Y-75009222D01*
X142233761Y-74938088D01*
X142324298Y-74847551D01*
X142395432Y-74741090D01*
X142444431Y-74622798D01*
X142469410Y-74497219D01*
X142469410Y-74369181D01*
X142465830Y-74351181D01*
X142499410Y-74351181D01*
X142499410Y-74479219D01*
X142524389Y-74604798D01*
X142573388Y-74723090D01*
X142644522Y-74829551D01*
X142735059Y-74920088D01*
X142841520Y-74991222D01*
X142959812Y-75040221D01*
X143085391Y-75065200D01*
X143213429Y-75065200D01*
X143339008Y-75040221D01*
X143457300Y-74991222D01*
X143563761Y-74920088D01*
X143654298Y-74829551D01*
X143725432Y-74723090D01*
X143768473Y-74619181D01*
X145013410Y-74619181D01*
X145013410Y-74747219D01*
X145038389Y-74872798D01*
X145087388Y-74991090D01*
X145158522Y-75097551D01*
X145249059Y-75188088D01*
X145355520Y-75259222D01*
X145473812Y-75308221D01*
X145599391Y-75333200D01*
X145727429Y-75333200D01*
X145853008Y-75308221D01*
X145971300Y-75259222D01*
X146077761Y-75188088D01*
X146168298Y-75097551D01*
X146239432Y-74991090D01*
X146288431Y-74872798D01*
X146313410Y-74747219D01*
X146313410Y-74619181D01*
X146288431Y-74493602D01*
X146239432Y-74375310D01*
X146168298Y-74268849D01*
X146077761Y-74178312D01*
X145971300Y-74107178D01*
X145853008Y-74058179D01*
X145727429Y-74033200D01*
X145599391Y-74033200D01*
X145473812Y-74058179D01*
X145355520Y-74107178D01*
X145249059Y-74178312D01*
X145158522Y-74268849D01*
X145087388Y-74375310D01*
X145038389Y-74493602D01*
X145013410Y-74619181D01*
X143768473Y-74619181D01*
X143774431Y-74604798D01*
X143799410Y-74479219D01*
X143799410Y-74351181D01*
X143774431Y-74225602D01*
X143725432Y-74107310D01*
X143654298Y-74000849D01*
X143563761Y-73910312D01*
X143457300Y-73839178D01*
X143339008Y-73790179D01*
X143213429Y-73765200D01*
X143085391Y-73765200D01*
X142959812Y-73790179D01*
X142841520Y-73839178D01*
X142735059Y-73910312D01*
X142644522Y-74000849D01*
X142573388Y-74107310D01*
X142524389Y-74225602D01*
X142499410Y-74351181D01*
X142465830Y-74351181D01*
X142444431Y-74243602D01*
X142395432Y-74125310D01*
X142324298Y-74018849D01*
X142233761Y-73928312D01*
X142127300Y-73857178D01*
X142009008Y-73808179D01*
X141883429Y-73783200D01*
X141755391Y-73783200D01*
X141629812Y-73808179D01*
X141511520Y-73857178D01*
X141405059Y-73928312D01*
X141314522Y-74018849D01*
X141276410Y-74075888D01*
X141238298Y-74018849D01*
X141147761Y-73928312D01*
X141124634Y-73912859D01*
X141137761Y-73904088D01*
X141228298Y-73813551D01*
X141299432Y-73707090D01*
X141348431Y-73588798D01*
X141373410Y-73463219D01*
X141373410Y-73335181D01*
X141348431Y-73209602D01*
X141299432Y-73091310D01*
X141244556Y-73009181D01*
X146973410Y-73009181D01*
X146973410Y-73137219D01*
X146998389Y-73262798D01*
X147047388Y-73381090D01*
X147118522Y-73487551D01*
X147209059Y-73578088D01*
X147315520Y-73649222D01*
X147433812Y-73698221D01*
X147559391Y-73723200D01*
X147687429Y-73723200D01*
X147813008Y-73698221D01*
X147931300Y-73649222D01*
X148037761Y-73578088D01*
X148128298Y-73487551D01*
X148199432Y-73381090D01*
X148248431Y-73262798D01*
X148273410Y-73137219D01*
X148273410Y-73009181D01*
X148248431Y-72883602D01*
X148199432Y-72765310D01*
X148128298Y-72658849D01*
X148037761Y-72568312D01*
X147931300Y-72497178D01*
X147813008Y-72448179D01*
X147687429Y-72423200D01*
X147559391Y-72423200D01*
X147433812Y-72448179D01*
X147315520Y-72497178D01*
X147209059Y-72568312D01*
X147118522Y-72658849D01*
X147047388Y-72765310D01*
X146998389Y-72883602D01*
X146973410Y-73009181D01*
X141244556Y-73009181D01*
X141228298Y-72984849D01*
X141137761Y-72894312D01*
X141031300Y-72823178D01*
X140913008Y-72774179D01*
X140787429Y-72749200D01*
X140659391Y-72749200D01*
X140533812Y-72774179D01*
X140415520Y-72823178D01*
X140309059Y-72894312D01*
X140218522Y-72984849D01*
X140147388Y-73091310D01*
X140098389Y-73209602D01*
X140073410Y-73335181D01*
X131043410Y-73335181D01*
X131043410Y-71649101D01*
X132253410Y-71649101D01*
X132253410Y-71897299D01*
X132301831Y-72140729D01*
X132396812Y-72370034D01*
X132534704Y-72576403D01*
X132710207Y-72751906D01*
X132916576Y-72889798D01*
X133145881Y-72984779D01*
X133389311Y-73033200D01*
X133637509Y-73033200D01*
X133880939Y-72984779D01*
X134110244Y-72889798D01*
X134316613Y-72751906D01*
X134492116Y-72576403D01*
X134630008Y-72370034D01*
X134724989Y-72140729D01*
X134773410Y-71897299D01*
X134773410Y-71649101D01*
X134753535Y-71549181D01*
X148543410Y-71549181D01*
X148543410Y-71677219D01*
X148568389Y-71802798D01*
X148617388Y-71921090D01*
X148688522Y-72027551D01*
X148779059Y-72118088D01*
X148885520Y-72189222D01*
X149003812Y-72238221D01*
X149129391Y-72263200D01*
X149257429Y-72263200D01*
X149383008Y-72238221D01*
X149501300Y-72189222D01*
X149607761Y-72118088D01*
X149698298Y-72027551D01*
X149769432Y-71921090D01*
X149818431Y-71802798D01*
X149843410Y-71677219D01*
X149843410Y-71549181D01*
X149818431Y-71423602D01*
X149769432Y-71305310D01*
X149698298Y-71198849D01*
X149607761Y-71108312D01*
X149501300Y-71037178D01*
X149383008Y-70988179D01*
X149257429Y-70963200D01*
X149129391Y-70963200D01*
X149003812Y-70988179D01*
X148885520Y-71037178D01*
X148779059Y-71108312D01*
X148688522Y-71198849D01*
X148617388Y-71305310D01*
X148568389Y-71423602D01*
X148543410Y-71549181D01*
X134753535Y-71549181D01*
X134724989Y-71405671D01*
X134630008Y-71176366D01*
X134492116Y-70969997D01*
X134316613Y-70794494D01*
X134110244Y-70656602D01*
X133880939Y-70561621D01*
X133637509Y-70513200D01*
X133389311Y-70513200D01*
X133145881Y-70561621D01*
X132916576Y-70656602D01*
X132710207Y-70794494D01*
X132534704Y-70969997D01*
X132396812Y-71176366D01*
X132301831Y-71405671D01*
X132253410Y-71649101D01*
X131043410Y-71649101D01*
X131043410Y-69887195D01*
X132049992Y-69887163D01*
X132057540Y-69887198D01*
X132064068Y-69886588D01*
X132070626Y-69886687D01*
X132072711Y-69886499D01*
X132290283Y-69865397D01*
X132303620Y-69862771D01*
X132316997Y-69860330D01*
X132319007Y-69859741D01*
X132528335Y-69796782D01*
X132540921Y-69791610D01*
X132553556Y-69786622D01*
X132555413Y-69785654D01*
X132748527Y-69683234D01*
X132759855Y-69675725D01*
X132771294Y-69668370D01*
X132772928Y-69667060D01*
X132942471Y-69529082D01*
X132952168Y-69519472D01*
X132961917Y-69510077D01*
X132963265Y-69508475D01*
X133102779Y-69340193D01*
X133110416Y-69328896D01*
X133118163Y-69317774D01*
X133119174Y-69315940D01*
X133223344Y-69123766D01*
X133228635Y-69111217D01*
X133234081Y-69098786D01*
X133234717Y-69096791D01*
X133299577Y-68888043D01*
X133302327Y-68874715D01*
X133305258Y-68861452D01*
X133305494Y-68859371D01*
X133327073Y-68656115D01*
X133327239Y-68655569D01*
X133329410Y-68633525D01*
X133329410Y-57055164D01*
X133329772Y-57052143D01*
X133330239Y-57050605D01*
X133330871Y-57044188D01*
X133333667Y-57034601D01*
X133334646Y-57032044D01*
X133334733Y-57031938D01*
X133339347Y-57023306D01*
X133339989Y-57022779D01*
X133344602Y-57017158D01*
X133345141Y-57016632D01*
X133349073Y-57013321D01*
X133350247Y-57012557D01*
X133360489Y-57006110D01*
X133361750Y-57005423D01*
X133362139Y-57005249D01*
X133362406Y-57005168D01*
X133363815Y-57005029D01*
X133372719Y-57002328D01*
X133381743Y-57001200D01*
X151413446Y-57001200D01*
X151416467Y-57001563D01*
G37*
X151416467Y-57001563D02*
X151418005Y-57002029D01*
X151424422Y-57002661D01*
X151434009Y-57005457D01*
X151436566Y-57006436D01*
X151436672Y-57006523D01*
X151445304Y-57011137D01*
X151445831Y-57011779D01*
X151451450Y-57016390D01*
X151451981Y-57016935D01*
X151455295Y-57020870D01*
X151456058Y-57022044D01*
X151462476Y-57032236D01*
X151463190Y-57033546D01*
X151463359Y-57033924D01*
X151463442Y-57034196D01*
X151463581Y-57035605D01*
X151466282Y-57044509D01*
X151467410Y-57053533D01*
X151467411Y-68865692D01*
X151467376Y-68873294D01*
X151467986Y-68879822D01*
X151467887Y-68886380D01*
X151468075Y-68888465D01*
X151489177Y-69106037D01*
X151491803Y-69119374D01*
X151494244Y-69132751D01*
X151494833Y-69134761D01*
X151557792Y-69344089D01*
X151562964Y-69356675D01*
X151567952Y-69369310D01*
X151568920Y-69371167D01*
X151671340Y-69564281D01*
X151678849Y-69575609D01*
X151686204Y-69587048D01*
X151687514Y-69588682D01*
X151776642Y-69698200D01*
X151759391Y-69698200D01*
X151633812Y-69723179D01*
X151515520Y-69772178D01*
X151409059Y-69843312D01*
X151335910Y-69916461D01*
X151262761Y-69843312D01*
X151156300Y-69772178D01*
X151038008Y-69723179D01*
X150912429Y-69698200D01*
X150784391Y-69698200D01*
X150658812Y-69723179D01*
X150540520Y-69772178D01*
X150434059Y-69843312D01*
X150343522Y-69933849D01*
X150272388Y-70040310D01*
X150223389Y-70158602D01*
X150198410Y-70284181D01*
X150198410Y-70412219D01*
X150223389Y-70537798D01*
X150272388Y-70656090D01*
X150343522Y-70762551D01*
X150434059Y-70853088D01*
X150540520Y-70924222D01*
X150658812Y-70973221D01*
X150784391Y-70998200D01*
X150912429Y-70998200D01*
X151038008Y-70973221D01*
X151156300Y-70924222D01*
X151262761Y-70853088D01*
X151335910Y-70779939D01*
X151409059Y-70853088D01*
X151515520Y-70924222D01*
X151633812Y-70973221D01*
X151759391Y-70998200D01*
X151887429Y-70998200D01*
X152013008Y-70973221D01*
X152131300Y-70924222D01*
X152237761Y-70853088D01*
X152328298Y-70762551D01*
X152399432Y-70656090D01*
X152448431Y-70537798D01*
X152473410Y-70412219D01*
X152473410Y-70284181D01*
X152448431Y-70158602D01*
X152425186Y-70102485D01*
X152466531Y-70115331D01*
X152479859Y-70118081D01*
X152493122Y-70121012D01*
X152495203Y-70121248D01*
X152698458Y-70142827D01*
X152699001Y-70142992D01*
X152721045Y-70145163D01*
X153753410Y-70145195D01*
X153753410Y-71983848D01*
X153703298Y-71908849D01*
X153612761Y-71818312D01*
X153506300Y-71747178D01*
X153388008Y-71698179D01*
X153262429Y-71673200D01*
X153134391Y-71673200D01*
X153008812Y-71698179D01*
X152890520Y-71747178D01*
X152784059Y-71818312D01*
X152693522Y-71908849D01*
X152622388Y-72015310D01*
X152573389Y-72133602D01*
X152548410Y-72259181D01*
X152548410Y-72387219D01*
X152573389Y-72512798D01*
X152622388Y-72631090D01*
X152693522Y-72737551D01*
X152784059Y-72828088D01*
X152890520Y-72899222D01*
X153008812Y-72948221D01*
X153134391Y-72973200D01*
X153262429Y-72973200D01*
X153388008Y-72948221D01*
X153506300Y-72899222D01*
X153612761Y-72828088D01*
X153703298Y-72737551D01*
X153753410Y-72662552D01*
X153753411Y-98574200D01*
X131043410Y-98574200D01*
X131043410Y-89958879D01*
X141193410Y-89958879D01*
X141193410Y-90047521D01*
X141210704Y-90134460D01*
X141244625Y-90216355D01*
X141293872Y-90290058D01*
X141356552Y-90352738D01*
X141430255Y-90401985D01*
X141512150Y-90435906D01*
X141599089Y-90453200D01*
X141687731Y-90453200D01*
X141774670Y-90435906D01*
X141856565Y-90401985D01*
X141930268Y-90352738D01*
X141992948Y-90290058D01*
X142042195Y-90216355D01*
X142076116Y-90134460D01*
X142093410Y-90047521D01*
X142093410Y-89958879D01*
X142091105Y-89947291D01*
X142106552Y-89962738D01*
X142180255Y-90011985D01*
X142262150Y-90045906D01*
X142349089Y-90063200D01*
X142437731Y-90063200D01*
X142524670Y-90045906D01*
X142606565Y-90011985D01*
X142656111Y-89978879D01*
X142873410Y-89978879D01*
X142873410Y-90067521D01*
X142890704Y-90154460D01*
X142924625Y-90236355D01*
X142973872Y-90310058D01*
X143036552Y-90372738D01*
X143110255Y-90421985D01*
X143192150Y-90455906D01*
X143279089Y-90473200D01*
X143367731Y-90473200D01*
X143454670Y-90455906D01*
X143536565Y-90421985D01*
X143610268Y-90372738D01*
X143672948Y-90310058D01*
X143722195Y-90236355D01*
X143756116Y-90154460D01*
X143773410Y-90067521D01*
X143773410Y-89978879D01*
X143756116Y-89891940D01*
X143722195Y-89810045D01*
X143672948Y-89736342D01*
X143610268Y-89673662D01*
X143536565Y-89624415D01*
X143454670Y-89590494D01*
X143367731Y-89573200D01*
X143279089Y-89573200D01*
X143192150Y-89590494D01*
X143110255Y-89624415D01*
X143036552Y-89673662D01*
X142973872Y-89736342D01*
X142924625Y-89810045D01*
X142890704Y-89891940D01*
X142873410Y-89978879D01*
X142656111Y-89978879D01*
X142680268Y-89962738D01*
X142742948Y-89900058D01*
X142792195Y-89826355D01*
X142826116Y-89744460D01*
X142843410Y-89657521D01*
X142843410Y-89568879D01*
X142826116Y-89481940D01*
X142792195Y-89400045D01*
X142742948Y-89326342D01*
X142680268Y-89263662D01*
X142606565Y-89214415D01*
X142524670Y-89180494D01*
X142437731Y-89163200D01*
X142349089Y-89163200D01*
X142262150Y-89180494D01*
X142180255Y-89214415D01*
X142106552Y-89263662D01*
X142043872Y-89326342D01*
X141994625Y-89400045D01*
X141960704Y-89481940D01*
X141943410Y-89568879D01*
X141943410Y-89657521D01*
X141945715Y-89669109D01*
X141930268Y-89653662D01*
X141856565Y-89604415D01*
X141774670Y-89570494D01*
X141687731Y-89553200D01*
X141599089Y-89553200D01*
X141512150Y-89570494D01*
X141430255Y-89604415D01*
X141356552Y-89653662D01*
X141293872Y-89716342D01*
X141244625Y-89790045D01*
X141210704Y-89871940D01*
X141193410Y-89958879D01*
X131043410Y-89958879D01*
X131043410Y-85884181D01*
X138523410Y-85884181D01*
X138523410Y-86012219D01*
X138548389Y-86137798D01*
X138597388Y-86256090D01*
X138668522Y-86362551D01*
X138759059Y-86453088D01*
X138865520Y-86524222D01*
X138983812Y-86573221D01*
X139109391Y-86598200D01*
X139237429Y-86598200D01*
X139363008Y-86573221D01*
X139481300Y-86524222D01*
X139587761Y-86453088D01*
X139678298Y-86362551D01*
X139749432Y-86256090D01*
X139798431Y-86137798D01*
X139823410Y-86012219D01*
X139823410Y-85884181D01*
X139798431Y-85758602D01*
X139749432Y-85640310D01*
X139678298Y-85533849D01*
X139587761Y-85443312D01*
X139481300Y-85372178D01*
X139363008Y-85323179D01*
X139237429Y-85298200D01*
X139109391Y-85298200D01*
X138983812Y-85323179D01*
X138865520Y-85372178D01*
X138759059Y-85443312D01*
X138668522Y-85533849D01*
X138597388Y-85640310D01*
X138548389Y-85758602D01*
X138523410Y-85884181D01*
X131043410Y-85884181D01*
X131043410Y-82676180D01*
X144033410Y-82676180D01*
X144033410Y-82804218D01*
X144058389Y-82929797D01*
X144107388Y-83048089D01*
X144178522Y-83154550D01*
X144269059Y-83245087D01*
X144375520Y-83316221D01*
X144493812Y-83365220D01*
X144619391Y-83390199D01*
X144747429Y-83390199D01*
X144873008Y-83365220D01*
X144991300Y-83316221D01*
X145097761Y-83245087D01*
X145188298Y-83154550D01*
X145259432Y-83048089D01*
X145308431Y-82929797D01*
X145333410Y-82804218D01*
X145333410Y-82676180D01*
X145308431Y-82550601D01*
X145259432Y-82432309D01*
X145188298Y-82325848D01*
X145097761Y-82235311D01*
X144991300Y-82164177D01*
X144873008Y-82115178D01*
X144747429Y-82090199D01*
X144619391Y-82090199D01*
X144493812Y-82115178D01*
X144375520Y-82164177D01*
X144269059Y-82235311D01*
X144178522Y-82325848D01*
X144107388Y-82432309D01*
X144058389Y-82550601D01*
X144033410Y-82676180D01*
X131043410Y-82676180D01*
X131043410Y-81369181D01*
X136643410Y-81369181D01*
X136643410Y-81497219D01*
X136668389Y-81622798D01*
X136717388Y-81741090D01*
X136788522Y-81847551D01*
X136879059Y-81938088D01*
X136985520Y-82009222D01*
X137103812Y-82058221D01*
X137229391Y-82083200D01*
X137357429Y-82083200D01*
X137483008Y-82058221D01*
X137601300Y-82009222D01*
X137707761Y-81938088D01*
X137798298Y-81847551D01*
X137869432Y-81741090D01*
X137918431Y-81622798D01*
X137943410Y-81497219D01*
X137943410Y-81369181D01*
X137918431Y-81243602D01*
X137869432Y-81125310D01*
X137798298Y-81018849D01*
X137707761Y-80928312D01*
X137601300Y-80857178D01*
X137483008Y-80808179D01*
X137357429Y-80783200D01*
X137229391Y-80783200D01*
X137103812Y-80808179D01*
X136985520Y-80857178D01*
X136879059Y-80928312D01*
X136788522Y-81018849D01*
X136717388Y-81125310D01*
X136668389Y-81243602D01*
X136643410Y-81369181D01*
X131043410Y-81369181D01*
X131043410Y-79269101D01*
X132253410Y-79269101D01*
X132253410Y-79517299D01*
X132301831Y-79760729D01*
X132396812Y-79990034D01*
X132534704Y-80196403D01*
X132710207Y-80371906D01*
X132916576Y-80509798D01*
X133145881Y-80604779D01*
X133389311Y-80653200D01*
X133637509Y-80653200D01*
X133880939Y-80604779D01*
X134110244Y-80509798D01*
X134316613Y-80371906D01*
X134492116Y-80196403D01*
X134630008Y-79990034D01*
X134724989Y-79760729D01*
X134745188Y-79659181D01*
X143403410Y-79659181D01*
X143403410Y-79787219D01*
X143428389Y-79912798D01*
X143477388Y-80031090D01*
X143548522Y-80137551D01*
X143639059Y-80228088D01*
X143745520Y-80299222D01*
X143863812Y-80348221D01*
X143989391Y-80373200D01*
X144117429Y-80373200D01*
X144243008Y-80348221D01*
X144361300Y-80299222D01*
X144467761Y-80228088D01*
X144558298Y-80137551D01*
X144629432Y-80031090D01*
X144678431Y-79912798D01*
X144703410Y-79787219D01*
X144703410Y-79659181D01*
X144678431Y-79533602D01*
X144629432Y-79415310D01*
X144558298Y-79308849D01*
X144467761Y-79218312D01*
X144361300Y-79147178D01*
X144243008Y-79098179D01*
X144117429Y-79073200D01*
X143989391Y-79073200D01*
X143863812Y-79098179D01*
X143745520Y-79147178D01*
X143639059Y-79218312D01*
X143548522Y-79308849D01*
X143477388Y-79415310D01*
X143428389Y-79533602D01*
X143403410Y-79659181D01*
X134745188Y-79659181D01*
X134773410Y-79517299D01*
X134773410Y-79269101D01*
X134724989Y-79025671D01*
X134630008Y-78796366D01*
X134492116Y-78589997D01*
X134316613Y-78414494D01*
X134110244Y-78276602D01*
X133880939Y-78181621D01*
X133637509Y-78133200D01*
X133389311Y-78133200D01*
X133145881Y-78181621D01*
X132916576Y-78276602D01*
X132710207Y-78414494D01*
X132534704Y-78589997D01*
X132396812Y-78796366D01*
X132301831Y-79025671D01*
X132253410Y-79269101D01*
X131043410Y-79269101D01*
X131043410Y-76729101D01*
X132253410Y-76729101D01*
X132253410Y-76977299D01*
X132301831Y-77220729D01*
X132396812Y-77450034D01*
X132534704Y-77656403D01*
X132710207Y-77831906D01*
X132916576Y-77969798D01*
X133145881Y-78064779D01*
X133389311Y-78113200D01*
X133637509Y-78113200D01*
X133880939Y-78064779D01*
X134110244Y-77969798D01*
X134316613Y-77831906D01*
X134492116Y-77656403D01*
X134630008Y-77450034D01*
X134724989Y-77220729D01*
X134773410Y-76977299D01*
X134773410Y-76729101D01*
X134737622Y-76549181D01*
X137843410Y-76549181D01*
X137843410Y-76677219D01*
X137868389Y-76802798D01*
X137917388Y-76921090D01*
X137988522Y-77027551D01*
X138079059Y-77118088D01*
X138185520Y-77189222D01*
X138303812Y-77238221D01*
X138429391Y-77263200D01*
X138557429Y-77263200D01*
X138577634Y-77259181D01*
X141763410Y-77259181D01*
X141763410Y-77387219D01*
X141788389Y-77512798D01*
X141837388Y-77631090D01*
X141908522Y-77737551D01*
X141999059Y-77828088D01*
X142105520Y-77899222D01*
X142223812Y-77948221D01*
X142349391Y-77973200D01*
X142477429Y-77973200D01*
X142603008Y-77948221D01*
X142721300Y-77899222D01*
X142827761Y-77828088D01*
X142918298Y-77737551D01*
X142989432Y-77631090D01*
X143038431Y-77512798D01*
X143063410Y-77387219D01*
X143063410Y-77259181D01*
X143038431Y-77133602D01*
X142989432Y-77015310D01*
X142918298Y-76908849D01*
X142827761Y-76818312D01*
X142721300Y-76747178D01*
X142603008Y-76698179D01*
X142477429Y-76673200D01*
X142349391Y-76673200D01*
X142223812Y-76698179D01*
X142105520Y-76747178D01*
X141999059Y-76818312D01*
X141908522Y-76908849D01*
X141837388Y-77015310D01*
X141788389Y-77133602D01*
X141763410Y-77259181D01*
X138577634Y-77259181D01*
X138683008Y-77238221D01*
X138801300Y-77189222D01*
X138907761Y-77118088D01*
X138998298Y-77027551D01*
X139069432Y-76921090D01*
X139118431Y-76802798D01*
X139143410Y-76677219D01*
X139143410Y-76549181D01*
X139129487Y-76479181D01*
X139493410Y-76479181D01*
X139493410Y-76607219D01*
X139518389Y-76732798D01*
X139567388Y-76851090D01*
X139638522Y-76957551D01*
X139729059Y-77048088D01*
X139835520Y-77119222D01*
X139953812Y-77168221D01*
X140079391Y-77193200D01*
X140207429Y-77193200D01*
X140333008Y-77168221D01*
X140451300Y-77119222D01*
X140557761Y-77048088D01*
X140648298Y-76957551D01*
X140719432Y-76851090D01*
X140768431Y-76732798D01*
X140793410Y-76607219D01*
X140793410Y-76479181D01*
X140768431Y-76353602D01*
X140719432Y-76235310D01*
X140648298Y-76128849D01*
X140557761Y-76038312D01*
X140451300Y-75967178D01*
X140333008Y-75918179D01*
X140207429Y-75893200D01*
X140079391Y-75893200D01*
X139953812Y-75918179D01*
X139835520Y-75967178D01*
X139729059Y-76038312D01*
X139638522Y-76128849D01*
X139567388Y-76235310D01*
X139518389Y-76353602D01*
X139493410Y-76479181D01*
X139129487Y-76479181D01*
X139118431Y-76423602D01*
X139069432Y-76305310D01*
X138998298Y-76198849D01*
X138907761Y-76108312D01*
X138801300Y-76037178D01*
X138683008Y-75988179D01*
X138557429Y-75963200D01*
X138429391Y-75963200D01*
X138303812Y-75988179D01*
X138185520Y-76037178D01*
X138079059Y-76108312D01*
X137988522Y-76198849D01*
X137917388Y-76305310D01*
X137868389Y-76423602D01*
X137843410Y-76549181D01*
X134737622Y-76549181D01*
X134724989Y-76485671D01*
X134630008Y-76256366D01*
X134492116Y-76049997D01*
X134316613Y-75874494D01*
X134110244Y-75736602D01*
X133880939Y-75641621D01*
X133778180Y-75621181D01*
X148341410Y-75621181D01*
X148341410Y-75749219D01*
X148366389Y-75874798D01*
X148415388Y-75993090D01*
X148486522Y-76099551D01*
X148577059Y-76190088D01*
X148683520Y-76261222D01*
X148801812Y-76310221D01*
X148927391Y-76335200D01*
X149055429Y-76335200D01*
X149181008Y-76310221D01*
X149299300Y-76261222D01*
X149392152Y-76199181D01*
X151053410Y-76199181D01*
X151053410Y-76327219D01*
X151078389Y-76452798D01*
X151127388Y-76571090D01*
X151198522Y-76677551D01*
X151289059Y-76768088D01*
X151395520Y-76839222D01*
X151513812Y-76888221D01*
X151639391Y-76913200D01*
X151767429Y-76913200D01*
X151893008Y-76888221D01*
X152011300Y-76839222D01*
X152117761Y-76768088D01*
X152208298Y-76677551D01*
X152279432Y-76571090D01*
X152328431Y-76452798D01*
X152353410Y-76327219D01*
X152353410Y-76199181D01*
X152328431Y-76073602D01*
X152279432Y-75955310D01*
X152208298Y-75848849D01*
X152117761Y-75758312D01*
X152011300Y-75687178D01*
X151893008Y-75638179D01*
X151767429Y-75613200D01*
X151639391Y-75613200D01*
X151513812Y-75638179D01*
X151395520Y-75687178D01*
X151289059Y-75758312D01*
X151198522Y-75848849D01*
X151127388Y-75955310D01*
X151078389Y-76073602D01*
X151053410Y-76199181D01*
X149392152Y-76199181D01*
X149405761Y-76190088D01*
X149496298Y-76099551D01*
X149567432Y-75993090D01*
X149616431Y-75874798D01*
X149641410Y-75749219D01*
X149641410Y-75621181D01*
X149616431Y-75495602D01*
X149567432Y-75377310D01*
X149496298Y-75270849D01*
X149405761Y-75180312D01*
X149299300Y-75109178D01*
X149181008Y-75060179D01*
X149055429Y-75035200D01*
X148927391Y-75035200D01*
X148801812Y-75060179D01*
X148683520Y-75109178D01*
X148577059Y-75180312D01*
X148486522Y-75270849D01*
X148415388Y-75377310D01*
X148366389Y-75495602D01*
X148341410Y-75621181D01*
X133778180Y-75621181D01*
X133637509Y-75593200D01*
X133389311Y-75593200D01*
X133145881Y-75641621D01*
X132916576Y-75736602D01*
X132710207Y-75874494D01*
X132534704Y-76049997D01*
X132396812Y-76256366D01*
X132301831Y-76485671D01*
X132253410Y-76729101D01*
X131043410Y-76729101D01*
X131043410Y-73335181D01*
X140073410Y-73335181D01*
X140073410Y-73463219D01*
X140098389Y-73588798D01*
X140147388Y-73707090D01*
X140218522Y-73813551D01*
X140309059Y-73904088D01*
X140332186Y-73919541D01*
X140319059Y-73928312D01*
X140228522Y-74018849D01*
X140157388Y-74125310D01*
X140108389Y-74243602D01*
X140083410Y-74369181D01*
X140083410Y-74497219D01*
X140108389Y-74622798D01*
X140157388Y-74741090D01*
X140228522Y-74847551D01*
X140319059Y-74938088D01*
X140425520Y-75009222D01*
X140543812Y-75058221D01*
X140669391Y-75083200D01*
X140797429Y-75083200D01*
X140923008Y-75058221D01*
X141041300Y-75009222D01*
X141147761Y-74938088D01*
X141238298Y-74847551D01*
X141276410Y-74790512D01*
X141314522Y-74847551D01*
X141405059Y-74938088D01*
X141511520Y-75009222D01*
X141629812Y-75058221D01*
X141755391Y-75083200D01*
X141883429Y-75083200D01*
X142009008Y-75058221D01*
X142127300Y-75009222D01*
X142233761Y-74938088D01*
X142324298Y-74847551D01*
X142395432Y-74741090D01*
X142444431Y-74622798D01*
X142469410Y-74497219D01*
X142469410Y-74369181D01*
X142465830Y-74351181D01*
X142499410Y-74351181D01*
X142499410Y-74479219D01*
X142524389Y-74604798D01*
X142573388Y-74723090D01*
X142644522Y-74829551D01*
X142735059Y-74920088D01*
X142841520Y-74991222D01*
X142959812Y-75040221D01*
X143085391Y-75065200D01*
X143213429Y-75065200D01*
X143339008Y-75040221D01*
X143457300Y-74991222D01*
X143563761Y-74920088D01*
X143654298Y-74829551D01*
X143725432Y-74723090D01*
X143768473Y-74619181D01*
X145013410Y-74619181D01*
X145013410Y-74747219D01*
X145038389Y-74872798D01*
X145087388Y-74991090D01*
X145158522Y-75097551D01*
X145249059Y-75188088D01*
X145355520Y-75259222D01*
X145473812Y-75308221D01*
X145599391Y-75333200D01*
X145727429Y-75333200D01*
X145853008Y-75308221D01*
X145971300Y-75259222D01*
X146077761Y-75188088D01*
X146168298Y-75097551D01*
X146239432Y-74991090D01*
X146288431Y-74872798D01*
X146313410Y-74747219D01*
X146313410Y-74619181D01*
X146288431Y-74493602D01*
X146239432Y-74375310D01*
X146168298Y-74268849D01*
X146077761Y-74178312D01*
X145971300Y-74107178D01*
X145853008Y-74058179D01*
X145727429Y-74033200D01*
X145599391Y-74033200D01*
X145473812Y-74058179D01*
X145355520Y-74107178D01*
X145249059Y-74178312D01*
X145158522Y-74268849D01*
X145087388Y-74375310D01*
X145038389Y-74493602D01*
X145013410Y-74619181D01*
X143768473Y-74619181D01*
X143774431Y-74604798D01*
X143799410Y-74479219D01*
X143799410Y-74351181D01*
X143774431Y-74225602D01*
X143725432Y-74107310D01*
X143654298Y-74000849D01*
X143563761Y-73910312D01*
X143457300Y-73839178D01*
X143339008Y-73790179D01*
X143213429Y-73765200D01*
X143085391Y-73765200D01*
X142959812Y-73790179D01*
X142841520Y-73839178D01*
X142735059Y-73910312D01*
X142644522Y-74000849D01*
X142573388Y-74107310D01*
X142524389Y-74225602D01*
X142499410Y-74351181D01*
X142465830Y-74351181D01*
X142444431Y-74243602D01*
X142395432Y-74125310D01*
X142324298Y-74018849D01*
X142233761Y-73928312D01*
X142127300Y-73857178D01*
X142009008Y-73808179D01*
X141883429Y-73783200D01*
X141755391Y-73783200D01*
X141629812Y-73808179D01*
X141511520Y-73857178D01*
X141405059Y-73928312D01*
X141314522Y-74018849D01*
X141276410Y-74075888D01*
X141238298Y-74018849D01*
X141147761Y-73928312D01*
X141124634Y-73912859D01*
X141137761Y-73904088D01*
X141228298Y-73813551D01*
X141299432Y-73707090D01*
X141348431Y-73588798D01*
X141373410Y-73463219D01*
X141373410Y-73335181D01*
X141348431Y-73209602D01*
X141299432Y-73091310D01*
X141244556Y-73009181D01*
X146973410Y-73009181D01*
X146973410Y-73137219D01*
X146998389Y-73262798D01*
X147047388Y-73381090D01*
X147118522Y-73487551D01*
X147209059Y-73578088D01*
X147315520Y-73649222D01*
X147433812Y-73698221D01*
X147559391Y-73723200D01*
X147687429Y-73723200D01*
X147813008Y-73698221D01*
X147931300Y-73649222D01*
X148037761Y-73578088D01*
X148128298Y-73487551D01*
X148199432Y-73381090D01*
X148248431Y-73262798D01*
X148273410Y-73137219D01*
X148273410Y-73009181D01*
X148248431Y-72883602D01*
X148199432Y-72765310D01*
X148128298Y-72658849D01*
X148037761Y-72568312D01*
X147931300Y-72497178D01*
X147813008Y-72448179D01*
X147687429Y-72423200D01*
X147559391Y-72423200D01*
X147433812Y-72448179D01*
X147315520Y-72497178D01*
X147209059Y-72568312D01*
X147118522Y-72658849D01*
X147047388Y-72765310D01*
X146998389Y-72883602D01*
X146973410Y-73009181D01*
X141244556Y-73009181D01*
X141228298Y-72984849D01*
X141137761Y-72894312D01*
X141031300Y-72823178D01*
X140913008Y-72774179D01*
X140787429Y-72749200D01*
X140659391Y-72749200D01*
X140533812Y-72774179D01*
X140415520Y-72823178D01*
X140309059Y-72894312D01*
X140218522Y-72984849D01*
X140147388Y-73091310D01*
X140098389Y-73209602D01*
X140073410Y-73335181D01*
X131043410Y-73335181D01*
X131043410Y-71649101D01*
X132253410Y-71649101D01*
X132253410Y-71897299D01*
X132301831Y-72140729D01*
X132396812Y-72370034D01*
X132534704Y-72576403D01*
X132710207Y-72751906D01*
X132916576Y-72889798D01*
X133145881Y-72984779D01*
X133389311Y-73033200D01*
X133637509Y-73033200D01*
X133880939Y-72984779D01*
X134110244Y-72889798D01*
X134316613Y-72751906D01*
X134492116Y-72576403D01*
X134630008Y-72370034D01*
X134724989Y-72140729D01*
X134773410Y-71897299D01*
X134773410Y-71649101D01*
X134753535Y-71549181D01*
X148543410Y-71549181D01*
X148543410Y-71677219D01*
X148568389Y-71802798D01*
X148617388Y-71921090D01*
X148688522Y-72027551D01*
X148779059Y-72118088D01*
X148885520Y-72189222D01*
X149003812Y-72238221D01*
X149129391Y-72263200D01*
X149257429Y-72263200D01*
X149383008Y-72238221D01*
X149501300Y-72189222D01*
X149607761Y-72118088D01*
X149698298Y-72027551D01*
X149769432Y-71921090D01*
X149818431Y-71802798D01*
X149843410Y-71677219D01*
X149843410Y-71549181D01*
X149818431Y-71423602D01*
X149769432Y-71305310D01*
X149698298Y-71198849D01*
X149607761Y-71108312D01*
X149501300Y-71037178D01*
X149383008Y-70988179D01*
X149257429Y-70963200D01*
X149129391Y-70963200D01*
X149003812Y-70988179D01*
X148885520Y-71037178D01*
X148779059Y-71108312D01*
X148688522Y-71198849D01*
X148617388Y-71305310D01*
X148568389Y-71423602D01*
X148543410Y-71549181D01*
X134753535Y-71549181D01*
X134724989Y-71405671D01*
X134630008Y-71176366D01*
X134492116Y-70969997D01*
X134316613Y-70794494D01*
X134110244Y-70656602D01*
X133880939Y-70561621D01*
X133637509Y-70513200D01*
X133389311Y-70513200D01*
X133145881Y-70561621D01*
X132916576Y-70656602D01*
X132710207Y-70794494D01*
X132534704Y-70969997D01*
X132396812Y-71176366D01*
X132301831Y-71405671D01*
X132253410Y-71649101D01*
X131043410Y-71649101D01*
X131043410Y-69887195D01*
X132049992Y-69887163D01*
X132057540Y-69887198D01*
X132064068Y-69886588D01*
X132070626Y-69886687D01*
X132072711Y-69886499D01*
X132290283Y-69865397D01*
X132303620Y-69862771D01*
X132316997Y-69860330D01*
X132319007Y-69859741D01*
X132528335Y-69796782D01*
X132540921Y-69791610D01*
X132553556Y-69786622D01*
X132555413Y-69785654D01*
X132748527Y-69683234D01*
X132759855Y-69675725D01*
X132771294Y-69668370D01*
X132772928Y-69667060D01*
X132942471Y-69529082D01*
X132952168Y-69519472D01*
X132961917Y-69510077D01*
X132963265Y-69508475D01*
X133102779Y-69340193D01*
X133110416Y-69328896D01*
X133118163Y-69317774D01*
X133119174Y-69315940D01*
X133223344Y-69123766D01*
X133228635Y-69111217D01*
X133234081Y-69098786D01*
X133234717Y-69096791D01*
X133299577Y-68888043D01*
X133302327Y-68874715D01*
X133305258Y-68861452D01*
X133305494Y-68859371D01*
X133327073Y-68656115D01*
X133327239Y-68655569D01*
X133329410Y-68633525D01*
X133329410Y-57055164D01*
X133329772Y-57052143D01*
X133330239Y-57050605D01*
X133330871Y-57044188D01*
X133333667Y-57034601D01*
X133334646Y-57032044D01*
X133334733Y-57031938D01*
X133339347Y-57023306D01*
X133339989Y-57022779D01*
X133344602Y-57017158D01*
X133345141Y-57016632D01*
X133349073Y-57013321D01*
X133350247Y-57012557D01*
X133360489Y-57006110D01*
X133361750Y-57005423D01*
X133362139Y-57005249D01*
X133362406Y-57005168D01*
X133363815Y-57005029D01*
X133372719Y-57002328D01*
X133381743Y-57001200D01*
X151413446Y-57001200D01*
X151416467Y-57001563D01*
%TD*%
M02*
