  0
SECTION
  2
HEADER
  9
$ANGBASE
  50
0.0
  9
$ANGDIR
  70
1
  9
$MEASUREMENT
  70
0
  0
ENDSEC
  0
SECTION
  2
TABLES
  0
TABLE
  2
LTYPE
  70
4
  0
LTYPE
  5
40F
  2
CONTINUOUS
  70
0
  3
Solid line
  72
65
  73
0
  40
0.0
  0
LTYPE
  5
410
  2
DASHDOT
 70
0
  3
Dash Dot ____ _ ____ _
 72
65
 73
4
 40
2.0
 49
1.25
 49
-0.25
 49
0.25
 49
-0.25
  0
LTYPE
  5
411
  2
DASHED
 70
0
  3
Dashed __ __ __ __ __
 72
65
 73
2
 40
0.75
 49
0.5
 49
-0.25
  0
LTYPE
  5
43B
  2
DOTTED
 70
0
  3
Dotted .  .  .  .
 72
65
 73
2
 40
0.2
 49
0.0
 49
-0.2
  0
ENDTAB
  0
TABLE
  2
STYLE
  70
4
  0
STYLE
  2
KICAD
  70
0
  40
0
  41
1
  42
1
  50
0
  71
0
  3
isocp.shx
  0
STYLE
  2
KICADB
  70
0
  40
0
  41
1
  42
1
  50
0
  71
0
  3
isocp.shx
  0
STYLE
  2
KICADI
  70
0
  40
0
  41
1
  42
1
  50
15
  71
0
  3
isocp.shx
  0
STYLE
  2
KICADBI
  70
0
  40
0
  41
1
  42
1
  50
15
  71
0
  3
isocp.shx
  0
ENDTAB
  0
TABLE
  2
LAYER
  70
1
  0
LAYER
  2
BLACK
  70
0
  62
7
  6
CONTINUOUS
  0
ENDTAB
  0
ENDSEC
  0
SECTION
  2
ENTITIES
0
LINE
8
BLACK
6
CONTINUOUS
10
5.31634
20
-3.33312
11
5.31634
21
-3.33311
0
LINE
8
BLACK
6
CONTINUOUS
10
5.31634
20
-3.33311
11
5.31634
21
-3.33311
0
LINE
8
BLACK
6
CONTINUOUS
10
5.31634
20
-3.33311
11
5.31634
21
-3.33308
0
LINE
8
BLACK
6
CONTINUOUS
10
5.31634
20
-3.33308
11
5.31639
21
-3.33261
0
LINE
8
BLACK
6
CONTINUOUS
10
5.31639
20
-3.33261
11
5.31644
21
-3.33214
0
LINE
8
BLACK
6
CONTINUOUS
10
5.31644
20
-3.33214
11
5.31645
21
-3.33213
0
LINE
8
BLACK
6
CONTINUOUS
10
5.31645
20
-3.33213
11
5.31645
21
-3.33211
0
LINE
8
BLACK
6
CONTINUOUS
10
5.31645
20
-3.33211
11
5.31659
21
-3.33166
0
LINE
8
BLACK
6
CONTINUOUS
10
5.31659
20
-3.33166
11
5.31673
21
-3.33121
0
LINE
8
BLACK
6
CONTINUOUS
10
5.31673
20
-3.33121
11
5.31674
21
-3.3312
0
LINE
8
BLACK
6
CONTINUOUS
10
5.31674
20
-3.3312
11
5.31674
21
-3.33118
0
LINE
8
BLACK
6
CONTINUOUS
10
5.31674
20
-3.33118
11
5.31697
21
-3.33077
0
LINE
8
BLACK
6
CONTINUOUS
10
5.31697
20
-3.33077
11
5.31719
21
-3.33035
0
LINE
8
BLACK
6
CONTINUOUS
10
5.31719
20
-3.33035
11
5.3172
21
-3.33034
0
LINE
8
BLACK
6
CONTINUOUS
10
5.3172
20
-3.33034
11
5.31721
21
-3.33032
0
LINE
8
BLACK
6
CONTINUOUS
10
5.31721
20
-3.33032
11
5.31751
21
-3.32997
0
LINE
8
BLACK
6
CONTINUOUS
10
5.31751
20
-3.32997
11
5.31782
21
-3.3296
0
LINE
8
BLACK
6
CONTINUOUS
10
5.31782
20
-3.3296
11
5.31783
21
-3.32959
0
LINE
8
BLACK
6
CONTINUOUS
10
5.31783
20
-3.32959
11
5.31784
21
-3.32958
0
LINE
8
BLACK
6
CONTINUOUS
10
5.31784
20
-3.32958
11
5.31821
21
-3.32928
0
LINE
8
BLACK
6
CONTINUOUS
10
5.31821
20
-3.32928
11
5.31857
21
-3.32898
0
LINE
8
BLACK
6
CONTINUOUS
10
5.31857
20
-3.32898
11
5.31859
21
-3.32898
0
LINE
8
BLACK
6
CONTINUOUS
10
5.31859
20
-3.32898
11
5.3186
21
-3.32897
0
LINE
8
BLACK
6
CONTINUOUS
10
5.3186
20
-3.32897
11
5.31902
21
-3.32875
0
LINE
8
BLACK
6
CONTINUOUS
10
5.31902
20
-3.32875
11
5.31943
21
-3.32853
0
LINE
8
BLACK
6
CONTINUOUS
10
5.31943
20
-3.32853
11
5.31945
21
-3.32852
0
LINE
8
BLACK
6
CONTINUOUS
10
5.31945
20
-3.32852
11
5.31947
21
-3.32851
0
LINE
8
BLACK
6
CONTINUOUS
10
5.31947
20
-3.32851
11
5.31992
21
-3.32838
0
LINE
8
BLACK
6
CONTINUOUS
10
5.31992
20
-3.32838
11
5.32037
21
-3.32824
0
LINE
8
BLACK
6
CONTINUOUS
10
5.32037
20
-3.32824
11
5.32038
21
-3.32824
0
LINE
8
BLACK
6
CONTINUOUS
10
5.32038
20
-3.32824
11
5.3204
21
-3.32824
0
LINE
8
BLACK
6
CONTINUOUS
10
5.3204
20
-3.32824
11
5.32087
21
-3.3282
0
LINE
8
BLACK
6
CONTINUOUS
10
5.32087
20
-3.3282
11
5.32134
21
-3.32815
0
LINE
8
BLACK
6
CONTINUOUS
10
5.32134
20
-3.32815
11
6.48969
21
-3.32815
0
LINE
8
BLACK
6
CONTINUOUS
10
6.48969
20
-3.32815
11
6.48972
21
-3.32815
0
LINE
8
BLACK
6
CONTINUOUS
10
6.48972
20
-3.32815
11
6.48972
21
-3.32815
0
LINE
8
BLACK
6
CONTINUOUS
10
6.48972
20
-3.32815
11
6.48972
21
-3.32815
0
LINE
8
BLACK
6
CONTINUOUS
10
6.48972
20
-3.32815
11
6.48975
21
-3.32815
0
LINE
8
BLACK
6
CONTINUOUS
10
6.48975
20
-3.32815
11
6.49022
21
-3.3282
0
LINE
8
BLACK
6
CONTINUOUS
10
6.49022
20
-3.3282
11
6.49069
21
-3.32825
0
LINE
8
BLACK
6
CONTINUOUS
10
6.49069
20
-3.32825
11
6.49071
21
-3.32826
0
LINE
8
BLACK
6
CONTINUOUS
10
6.49071
20
-3.32826
11
6.49072
21
-3.32826
0
LINE
8
BLACK
6
CONTINUOUS
10
6.49072
20
-3.32826
11
6.49117
21
-3.3284
0
LINE
8
BLACK
6
CONTINUOUS
10
6.49117
20
-3.3284
11
6.49162
21
-3.32854
0
LINE
8
BLACK
6
CONTINUOUS
10
6.49162
20
-3.32854
11
6.49164
21
-3.32855
0
LINE
8
BLACK
6
CONTINUOUS
10
6.49164
20
-3.32855
11
6.49165
21
-3.32855
0
LINE
8
BLACK
6
CONTINUOUS
10
6.49165
20
-3.32855
11
6.49207
21
-3.32878
0
LINE
8
BLACK
6
CONTINUOUS
10
6.49207
20
-3.32878
11
6.49248
21
-3.329
0
LINE
8
BLACK
6
CONTINUOUS
10
6.49248
20
-3.329
11
6.49249
21
-3.32902
0
LINE
8
BLACK
6
CONTINUOUS
10
6.49249
20
-3.32902
11
6.49251
21
-3.32902
0
LINE
8
BLACK
6
CONTINUOUS
10
6.49251
20
-3.32902
11
6.49287
21
-3.32933
0
LINE
8
BLACK
6
CONTINUOUS
10
6.49287
20
-3.32933
11
6.49323
21
-3.32963
0
LINE
8
BLACK
6
CONTINUOUS
10
6.49323
20
-3.32963
11
6.49324
21
-3.32964
0
LINE
8
BLACK
6
CONTINUOUS
10
6.49324
20
-3.32964
11
6.49326
21
-3.32965
0
LINE
8
BLACK
6
CONTINUOUS
10
6.49326
20
-3.32965
11
6.49355
21
-3.33002
0
LINE
8
BLACK
6
CONTINUOUS
10
6.49355
20
-3.33002
11
6.49385
21
-3.33038
0
LINE
8
BLACK
6
CONTINUOUS
10
6.49385
20
-3.33038
11
6.49386
21
-3.3304
0
LINE
8
BLACK
6
CONTINUOUS
10
6.49386
20
-3.3304
11
6.49387
21
-3.33041
0
LINE
8
BLACK
6
CONTINUOUS
10
6.49387
20
-3.33041
11
6.49409
21
-3.33083
0
LINE
8
BLACK
6
CONTINUOUS
10
6.49409
20
-3.33083
11
6.49431
21
-3.33124
0
LINE
8
BLACK
6
CONTINUOUS
10
6.49431
20
-3.33124
11
6.49431
21
-3.33126
0
LINE
8
BLACK
6
CONTINUOUS
10
6.49431
20
-3.33126
11
6.49432
21
-3.33128
0
LINE
8
BLACK
6
CONTINUOUS
10
6.49432
20
-3.33128
11
6.49445
21
-3.33173
0
LINE
8
BLACK
6
CONTINUOUS
10
6.49445
20
-3.33173
11
6.49459
21
-3.33218
0
LINE
8
BLACK
6
CONTINUOUS
10
6.49459
20
-3.33218
11
6.49459
21
-3.3322
0
LINE
8
BLACK
6
CONTINUOUS
10
6.49459
20
-3.3322
11
6.4946
21
-3.33221
0
LINE
8
BLACK
6
CONTINUOUS
10
6.4946
20
-3.33221
11
6.49464
21
-3.33268
0
LINE
8
BLACK
6
CONTINUOUS
10
6.49464
20
-3.33268
11
6.49469
21
-3.33315
0
LINE
8
BLACK
6
CONTINUOUS
10
6.49469
20
-3.33315
11
6.49469
21
-3.91094
0
LINE
8
BLACK
6
CONTINUOUS
10
6.49469
20
-3.91094
11
6.49468
21
-3.91098
0
LINE
8
BLACK
6
CONTINUOUS
10
6.49468
20
-3.91098
11
6.49468
21
-3.91098
0
LINE
8
BLACK
6
CONTINUOUS
10
6.49468
20
-3.91098
11
6.49468
21
-3.91098
0
LINE
8
BLACK
6
CONTINUOUS
10
6.49468
20
-3.91098
11
6.49468
21
-3.91101
0
LINE
8
BLACK
6
CONTINUOUS
10
6.49468
20
-3.91101
11
6.49463
21
-3.91148
0
LINE
8
BLACK
6
CONTINUOUS
10
6.49463
20
-3.91148
11
6.49458
21
-3.91195
0
LINE
8
BLACK
6
CONTINUOUS
10
6.49458
20
-3.91195
11
6.49458
21
-3.91197
0
LINE
8
BLACK
6
CONTINUOUS
10
6.49458
20
-3.91197
11
6.49458
21
-3.91198
0
LINE
8
BLACK
6
CONTINUOUS
10
6.49458
20
-3.91198
11
6.49443
21
-3.91243
0
LINE
8
BLACK
6
CONTINUOUS
10
6.49443
20
-3.91243
11
6.49429
21
-3.91288
0
LINE
8
BLACK
6
CONTINUOUS
10
6.49429
20
-3.91288
11
6.49429
21
-3.9129
0
LINE
8
BLACK
6
CONTINUOUS
10
6.49429
20
-3.9129
11
6.49428
21
-3.91291
0
LINE
8
BLACK
6
CONTINUOUS
10
6.49428
20
-3.91291
11
6.49405
21
-3.91333
0
LINE
8
BLACK
6
CONTINUOUS
10
6.49405
20
-3.91333
11
6.49383
21
-3.91374
0
LINE
8
BLACK
6
CONTINUOUS
10
6.49383
20
-3.91374
11
6.49382
21
-3.91375
0
LINE
8
BLACK
6
CONTINUOUS
10
6.49382
20
-3.91375
11
6.49381
21
-3.91377
0
LINE
8
BLACK
6
CONTINUOUS
10
6.49381
20
-3.91377
11
6.49351
21
-3.91413
0
LINE
8
BLACK
6
CONTINUOUS
10
6.49351
20
-3.91413
11
6.49321
21
-3.91449
0
LINE
8
BLACK
6
CONTINUOUS
10
6.49321
20
-3.91449
11
6.49319
21
-3.9145
0
LINE
8
BLACK
6
CONTINUOUS
10
6.49319
20
-3.9145
11
6.49318
21
-3.91452
0
LINE
8
BLACK
6
CONTINUOUS
10
6.49318
20
-3.91452
11
6.49282
21
-3.91481
0
LINE
8
BLACK
6
CONTINUOUS
10
6.49282
20
-3.91481
11
6.49245
21
-3.91511
0
LINE
8
BLACK
6
CONTINUOUS
10
6.49245
20
-3.91511
11
6.49244
21
-3.91512
0
LINE
8
BLACK
6
CONTINUOUS
10
6.49244
20
-3.91512
11
6.49242
21
-3.91513
0
LINE
8
BLACK
6
CONTINUOUS
10
6.49242
20
-3.91513
11
6.49201
21
-3.91535
0
LINE
8
BLACK
6
CONTINUOUS
10
6.49201
20
-3.91535
11
6.49159
21
-3.91557
0
LINE
8
BLACK
6
CONTINUOUS
10
6.49159
20
-3.91557
11
6.49157
21
-3.91557
0
LINE
8
BLACK
6
CONTINUOUS
10
6.49157
20
-3.91557
11
6.49156
21
-3.91558
0
LINE
8
BLACK
6
CONTINUOUS
10
6.49156
20
-3.91558
11
6.49111
21
-3.91571
0
LINE
8
BLACK
6
CONTINUOUS
10
6.49111
20
-3.91571
11
6.49066
21
-3.91585
0
LINE
8
BLACK
6
CONTINUOUS
10
6.49066
20
-3.91585
11
6.49064
21
-3.91585
0
LINE
8
BLACK
6
CONTINUOUS
10
6.49064
20
-3.91585
11
6.49062
21
-3.91586
0
LINE
8
BLACK
6
CONTINUOUS
10
6.49062
20
-3.91586
11
6.49015
21
-3.9159
0
LINE
8
BLACK
6
CONTINUOUS
10
6.49015
20
-3.9159
11
6.48969
21
-3.91594
0
LINE
8
BLACK
6
CONTINUOUS
10
6.48969
20
-3.91594
11
5.32134
21
-3.91594
0
LINE
8
BLACK
6
CONTINUOUS
10
5.32134
20
-3.91594
11
5.3213
21
-3.91594
0
LINE
8
BLACK
6
CONTINUOUS
10
5.3213
20
-3.91594
11
5.3213
21
-3.91594
0
LINE
8
BLACK
6
CONTINUOUS
10
5.3213
20
-3.91594
11
5.3213
21
-3.91594
0
LINE
8
BLACK
6
CONTINUOUS
10
5.3213
20
-3.91594
11
5.32127
21
-3.91594
0
LINE
8
BLACK
6
CONTINUOUS
10
5.32127
20
-3.91594
11
5.3208
21
-3.91589
0
LINE
8
BLACK
6
CONTINUOUS
10
5.3208
20
-3.91589
11
5.32033
21
-3.91584
0
LINE
8
BLACK
6
CONTINUOUS
10
5.32033
20
-3.91584
11
5.32032
21
-3.91584
0
LINE
8
BLACK
6
CONTINUOUS
10
5.32032
20
-3.91584
11
5.3203
21
-3.91584
0
LINE
8
BLACK
6
CONTINUOUS
10
5.3203
20
-3.91584
11
5.31985
21
-3.91569
0
LINE
8
BLACK
6
CONTINUOUS
10
5.31985
20
-3.91569
11
5.3194
21
-3.91555
0
LINE
8
BLACK
6
CONTINUOUS
10
5.3194
20
-3.91555
11
5.31939
21
-3.91555
0
LINE
8
BLACK
6
CONTINUOUS
10
5.31939
20
-3.91555
11
5.31937
21
-3.91554
0
LINE
8
BLACK
6
CONTINUOUS
10
5.31937
20
-3.91554
11
5.31896
21
-3.91531
0
LINE
8
BLACK
6
CONTINUOUS
10
5.31896
20
-3.91531
11
5.31854
21
-3.91509
0
LINE
8
BLACK
6
CONTINUOUS
10
5.31854
20
-3.91509
11
5.31853
21
-3.91508
0
LINE
8
BLACK
6
CONTINUOUS
10
5.31853
20
-3.91508
11
5.31851
21
-3.91507
0
LINE
8
BLACK
6
CONTINUOUS
10
5.31851
20
-3.91507
11
5.31815
21
-3.91477
0
LINE
8
BLACK
6
CONTINUOUS
10
5.31815
20
-3.91477
11
5.31779
21
-3.91447
0
LINE
8
BLACK
6
CONTINUOUS
10
5.31779
20
-3.91447
11
5.31778
21
-3.91445
0
LINE
8
BLACK
6
CONTINUOUS
10
5.31778
20
-3.91445
11
5.31777
21
-3.91444
0
LINE
8
BLACK
6
CONTINUOUS
10
5.31777
20
-3.91444
11
5.31747
21
-3.91408
0
LINE
8
BLACK
6
CONTINUOUS
10
5.31747
20
-3.91408
11
5.31717
21
-3.91371
0
LINE
8
BLACK
6
CONTINUOUS
10
5.31717
20
-3.91371
11
5.31717
21
-3.9137
0
LINE
8
BLACK
6
CONTINUOUS
10
5.31717
20
-3.9137
11
5.31715
21
-3.91368
0
LINE
8
BLACK
6
CONTINUOUS
10
5.31715
20
-3.91368
11
5.31694
21
-3.91327
0
LINE
8
BLACK
6
CONTINUOUS
10
5.31694
20
-3.91327
11
5.31672
21
-3.91285
0
LINE
8
BLACK
6
CONTINUOUS
10
5.31672
20
-3.91285
11
5.31671
21
-3.91283
0
LINE
8
BLACK
6
CONTINUOUS
10
5.31671
20
-3.91283
11
5.3167
21
-3.91282
0
LINE
8
BLACK
6
CONTINUOUS
10
5.3167
20
-3.91282
11
5.31657
21
-3.91237
0
LINE
8
BLACK
6
CONTINUOUS
10
5.31657
20
-3.91237
11
5.31643
21
-3.91192
0
LINE
8
BLACK
6
CONTINUOUS
10
5.31643
20
-3.91192
11
5.31643
21
-3.9119
0
LINE
8
BLACK
6
CONTINUOUS
10
5.31643
20
-3.9119
11
5.31643
21
-3.91188
0
LINE
8
BLACK
6
CONTINUOUS
10
5.31643
20
-3.91188
11
5.31638
21
-3.91141
0
LINE
8
BLACK
6
CONTINUOUS
10
5.31638
20
-3.91141
11
5.31634
21
-3.91094
0
LINE
8
BLACK
6
CONTINUOUS
10
5.31634
20
-3.91094
11
5.31634
21
-3.33315
0
LINE
8
BLACK
6
CONTINUOUS
10
5.31634
20
-3.33315
11
5.31634
21
-3.33312
0
LINE
8
BLACK
6
CONTINUOUS
10
6.15928
20
-3.84639
11
6.15508
21
-3.84722
0
LINE
8
BLACK
6
CONTINUOUS
10
6.15508
20
-3.84722
11
6.15113
21
-3.84886
0
LINE
8
BLACK
6
CONTINUOUS
10
6.15113
20
-3.84886
11
6.14757
21
-3.85124
0
LINE
8
BLACK
6
CONTINUOUS
10
6.14757
20
-3.85124
11
6.14455
21
-3.85426
0
LINE
8
BLACK
6
CONTINUOUS
10
6.14455
20
-3.85426
11
6.14217
21
-3.85782
0
LINE
8
BLACK
6
CONTINUOUS
10
6.14217
20
-3.85782
11
6.14053
21
-3.86177
0
LINE
8
BLACK
6
CONTINUOUS
10
6.14053
20
-3.86177
11
6.1397
21
-3.86597
0
LINE
8
BLACK
6
CONTINUOUS
10
6.1397
20
-3.86597
11
6.1397
21
-3.87025
0
LINE
8
BLACK
6
CONTINUOUS
10
6.1397
20
-3.87025
11
6.14053
21
-3.87445
0
LINE
8
BLACK
6
CONTINUOUS
10
6.14053
20
-3.87445
11
6.14217
21
-3.8784
0
LINE
8
BLACK
6
CONTINUOUS
10
6.14217
20
-3.8784
11
6.14455
21
-3.88196
0
LINE
8
BLACK
6
CONTINUOUS
10
6.14455
20
-3.88196
11
6.14757
21
-3.88498
0
LINE
8
BLACK
6
CONTINUOUS
10
6.14757
20
-3.88498
11
6.15113
21
-3.88736
0
LINE
8
BLACK
6
CONTINUOUS
10
6.15113
20
-3.88736
11
6.15508
21
-3.889
0
LINE
8
BLACK
6
CONTINUOUS
10
6.15508
20
-3.889
11
6.15928
21
-3.88983
0
LINE
8
BLACK
6
CONTINUOUS
10
6.15928
20
-3.88983
11
6.16356
21
-3.88983
0
LINE
8
BLACK
6
CONTINUOUS
10
6.16356
20
-3.88983
11
6.16775
21
-3.889
0
LINE
8
BLACK
6
CONTINUOUS
10
6.16775
20
-3.889
11
6.17171
21
-3.88736
0
LINE
8
BLACK
6
CONTINUOUS
10
6.17171
20
-3.88736
11
6.17526
21
-3.88498
0
LINE
8
BLACK
6
CONTINUOUS
10
6.17526
20
-3.88498
11
6.17829
21
-3.88196
0
LINE
8
BLACK
6
CONTINUOUS
10
6.17829
20
-3.88196
11
6.18067
21
-3.8784
0
LINE
8
BLACK
6
CONTINUOUS
10
6.18067
20
-3.8784
11
6.1823
21
-3.87445
0
LINE
8
BLACK
6
CONTINUOUS
10
6.1823
20
-3.87445
11
6.18314
21
-3.87025
0
LINE
8
BLACK
6
CONTINUOUS
10
6.18314
20
-3.87025
11
6.18314
21
-3.86597
0
LINE
8
BLACK
6
CONTINUOUS
10
6.18314
20
-3.86597
11
6.1823
21
-3.86177
0
LINE
8
BLACK
6
CONTINUOUS
10
6.1823
20
-3.86177
11
6.18067
21
-3.85782
0
LINE
8
BLACK
6
CONTINUOUS
10
6.18067
20
-3.85782
11
6.17829
21
-3.85426
0
LINE
8
BLACK
6
CONTINUOUS
10
6.17829
20
-3.85426
11
6.17526
21
-3.85124
0
LINE
8
BLACK
6
CONTINUOUS
10
6.17526
20
-3.85124
11
6.17171
21
-3.84886
0
LINE
8
BLACK
6
CONTINUOUS
10
6.17171
20
-3.84886
11
6.16775
21
-3.84722
0
LINE
8
BLACK
6
CONTINUOUS
10
6.16775
20
-3.84722
11
6.16356
21
-3.84639
0
LINE
8
BLACK
6
CONTINUOUS
10
6.16356
20
-3.84639
11
6.15928
21
-3.84639
0
LINE
8
BLACK
6
CONTINUOUS
10
5.64747
20
-3.84639
11
5.64327
21
-3.84722
0
LINE
8
BLACK
6
CONTINUOUS
10
5.64327
20
-3.84722
11
5.63932
21
-3.84886
0
LINE
8
BLACK
6
CONTINUOUS
10
5.63932
20
-3.84886
11
5.63576
21
-3.85124
0
LINE
8
BLACK
6
CONTINUOUS
10
5.63576
20
-3.85124
11
5.63273
21
-3.85426
0
LINE
8
BLACK
6
CONTINUOUS
10
5.63273
20
-3.85426
11
5.63036
21
-3.85782
0
LINE
8
BLACK
6
CONTINUOUS
10
5.63036
20
-3.85782
11
5.62872
21
-3.86177
0
LINE
8
BLACK
6
CONTINUOUS
10
5.62872
20
-3.86177
11
5.62789
21
-3.86597
0
LINE
8
BLACK
6
CONTINUOUS
10
5.62789
20
-3.86597
11
5.62789
21
-3.87025
0
LINE
8
BLACK
6
CONTINUOUS
10
5.62789
20
-3.87025
11
5.62872
21
-3.87445
0
LINE
8
BLACK
6
CONTINUOUS
10
5.62872
20
-3.87445
11
5.63036
21
-3.8784
0
LINE
8
BLACK
6
CONTINUOUS
10
5.63036
20
-3.8784
11
5.63273
21
-3.88196
0
LINE
8
BLACK
6
CONTINUOUS
10
5.63273
20
-3.88196
11
5.63576
21
-3.88498
0
LINE
8
BLACK
6
CONTINUOUS
10
5.63576
20
-3.88498
11
5.63932
21
-3.88736
0
LINE
8
BLACK
6
CONTINUOUS
10
5.63932
20
-3.88736
11
5.64327
21
-3.889
0
LINE
8
BLACK
6
CONTINUOUS
10
5.64327
20
-3.889
11
5.64747
21
-3.88983
0
LINE
8
BLACK
6
CONTINUOUS
10
5.64747
20
-3.88983
11
5.65175
21
-3.88983
0
LINE
8
BLACK
6
CONTINUOUS
10
5.65175
20
-3.88983
11
5.65594
21
-3.889
0
LINE
8
BLACK
6
CONTINUOUS
10
5.65594
20
-3.889
11
5.6599
21
-3.88736
0
LINE
8
BLACK
6
CONTINUOUS
10
5.6599
20
-3.88736
11
5.66345
21
-3.88498
0
LINE
8
BLACK
6
CONTINUOUS
10
5.66345
20
-3.88498
11
5.66648
21
-3.88196
0
LINE
8
BLACK
6
CONTINUOUS
10
5.66648
20
-3.88196
11
5.66886
21
-3.8784
0
LINE
8
BLACK
6
CONTINUOUS
10
5.66886
20
-3.8784
11
5.67049
21
-3.87445
0
LINE
8
BLACK
6
CONTINUOUS
10
5.67049
20
-3.87445
11
5.67133
21
-3.87025
0
LINE
8
BLACK
6
CONTINUOUS
10
5.67133
20
-3.87025
11
5.67133
21
-3.86597
0
LINE
8
BLACK
6
CONTINUOUS
10
5.67133
20
-3.86597
11
5.67049
21
-3.86177
0
LINE
8
BLACK
6
CONTINUOUS
10
5.67049
20
-3.86177
11
5.66886
21
-3.85782
0
LINE
8
BLACK
6
CONTINUOUS
10
5.66886
20
-3.85782
11
5.66648
21
-3.85426
0
LINE
8
BLACK
6
CONTINUOUS
10
5.66648
20
-3.85426
11
5.66345
21
-3.85124
0
LINE
8
BLACK
6
CONTINUOUS
10
5.66345
20
-3.85124
11
5.6599
21
-3.84886
0
LINE
8
BLACK
6
CONTINUOUS
10
5.6599
20
-3.84886
11
5.65594
21
-3.84722
0
LINE
8
BLACK
6
CONTINUOUS
10
5.65594
20
-3.84722
11
5.65175
21
-3.84639
0
LINE
8
BLACK
6
CONTINUOUS
10
5.65175
20
-3.84639
11
5.64747
21
-3.84639
0
LINE
8
BLACK
6
CONTINUOUS
10
6.10374
20
-3.42544
11
6.10376
21
-3.4253
0
LINE
8
BLACK
6
CONTINUOUS
10
6.10376
20
-3.4253
11
6.10372
21
-3.42493
0
LINE
8
BLACK
6
CONTINUOUS
10
6.10372
20
-3.42493
11
6.10364
21
-3.42467
0
LINE
8
BLACK
6
CONTINUOUS
10
6.10364
20
-3.42467
11
6.10351
21
-3.42443
0
LINE
8
BLACK
6
CONTINUOUS
10
6.10351
20
-3.42443
11
6.10334
21
-3.42422
0
LINE
8
BLACK
6
CONTINUOUS
10
6.10334
20
-3.42422
11
6.10313
21
-3.42405
0
LINE
8
BLACK
6
CONTINUOUS
10
6.10313
20
-3.42405
11
6.10289
21
-3.42392
0
LINE
8
BLACK
6
CONTINUOUS
10
6.10289
20
-3.42392
11
6.10263
21
-3.42384
0
LINE
8
BLACK
6
CONTINUOUS
10
6.10263
20
-3.42384
11
6.10224
21
-3.4238
0
LINE
8
BLACK
6
CONTINUOUS
10
6.10224
20
-3.4238
11
6.10205
21
-3.42382
0
LINE
8
BLACK
6
CONTINUOUS
10
6.10205
20
-3.42382
11
5.70897
21
-3.42382
0
LINE
8
BLACK
6
CONTINUOUS
10
5.70897
20
-3.42382
11
5.7089
21
-3.42382
0
LINE
8
BLACK
6
CONTINUOUS
10
5.7089
20
-3.42382
11
5.70876
21
-3.4238
0
LINE
8
BLACK
6
CONTINUOUS
10
5.70876
20
-3.4238
11
5.70839
21
-3.42384
0
LINE
8
BLACK
6
CONTINUOUS
10
5.70839
20
-3.42384
11
5.70813
21
-3.42392
0
LINE
8
BLACK
6
CONTINUOUS
10
5.70813
20
-3.42392
11
5.70789
21
-3.42405
0
LINE
8
BLACK
6
CONTINUOUS
10
5.70789
20
-3.42405
11
5.70768
21
-3.42422
0
LINE
8
BLACK
6
CONTINUOUS
10
5.70768
20
-3.42422
11
5.70751
21
-3.42443
0
LINE
8
BLACK
6
CONTINUOUS
10
5.70751
20
-3.42443
11
5.70738
21
-3.42467
0
LINE
8
BLACK
6
CONTINUOUS
10
5.70738
20
-3.42467
11
5.7073
21
-3.42493
0
LINE
8
BLACK
6
CONTINUOUS
10
5.7073
20
-3.42493
11
5.70726
21
-3.42532
0
LINE
8
BLACK
6
CONTINUOUS
10
5.70726
20
-3.42532
11
5.70728
21
-3.42551
0
LINE
8
BLACK
6
CONTINUOUS
10
5.70728
20
-3.42551
11
5.70728
21
-3.81858
0
LINE
8
BLACK
6
CONTINUOUS
10
5.70728
20
-3.81858
11
5.70728
21
-3.81865
0
LINE
8
BLACK
6
CONTINUOUS
10
5.70728
20
-3.81865
11
5.70727
21
-3.8188
0
LINE
8
BLACK
6
CONTINUOUS
10
5.70727
20
-3.8188
11
5.7073
21
-3.81917
0
LINE
8
BLACK
6
CONTINUOUS
10
5.7073
20
-3.81917
11
5.70738
21
-3.81943
0
LINE
8
BLACK
6
CONTINUOUS
10
5.70738
20
-3.81943
11
5.70751
21
-3.81967
0
LINE
8
BLACK
6
CONTINUOUS
10
5.70751
20
-3.81967
11
5.70768
21
-3.81988
0
LINE
8
BLACK
6
CONTINUOUS
10
5.70768
20
-3.81988
11
5.70789
21
-3.82005
0
LINE
8
BLACK
6
CONTINUOUS
10
5.70789
20
-3.82005
11
5.70813
21
-3.82018
0
LINE
8
BLACK
6
CONTINUOUS
10
5.70813
20
-3.82018
11
5.70839
21
-3.82026
0
LINE
8
BLACK
6
CONTINUOUS
10
5.70839
20
-3.82026
11
5.70878
21
-3.82029
0
LINE
8
BLACK
6
CONTINUOUS
10
5.70878
20
-3.82029
11
5.70897
21
-3.82028
0
LINE
8
BLACK
6
CONTINUOUS
10
5.70897
20
-3.82028
11
6.10205
21
-3.82028
0
LINE
8
BLACK
6
CONTINUOUS
10
6.10205
20
-3.82028
11
6.10212
21
-3.82028
0
LINE
8
BLACK
6
CONTINUOUS
10
6.10212
20
-3.82028
11
6.10226
21
-3.82029
0
LINE
8
BLACK
6
CONTINUOUS
10
6.10226
20
-3.82029
11
6.10263
21
-3.82026
0
LINE
8
BLACK
6
CONTINUOUS
10
6.10263
20
-3.82026
11
6.10289
21
-3.82018
0
LINE
8
BLACK
6
CONTINUOUS
10
6.10289
20
-3.82018
11
6.10313
21
-3.82005
0
LINE
8
BLACK
6
CONTINUOUS
10
6.10313
20
-3.82005
11
6.10334
21
-3.81988
0
LINE
8
BLACK
6
CONTINUOUS
10
6.10334
20
-3.81988
11
6.10351
21
-3.81967
0
LINE
8
BLACK
6
CONTINUOUS
10
6.10351
20
-3.81967
11
6.10364
21
-3.81943
0
LINE
8
BLACK
6
CONTINUOUS
10
6.10364
20
-3.81943
11
6.10372
21
-3.81917
0
LINE
8
BLACK
6
CONTINUOUS
10
6.10372
20
-3.81917
11
6.10376
21
-3.81878
0
LINE
8
BLACK
6
CONTINUOUS
10
6.10376
20
-3.81878
11
6.10374
21
-3.81858
0
LINE
8
BLACK
6
CONTINUOUS
10
6.10374
20
-3.81858
11
6.10374
21
-3.42551
0
LINE
8
BLACK
6
CONTINUOUS
10
6.10374
20
-3.42551
11
6.10374
21
-3.42544
0
LINE
8
BLACK
6
CONTINUOUS
10
6.29514
20
-3.58074
11
6.28716
21
-3.58232
0
LINE
8
BLACK
6
CONTINUOUS
10
6.28716
20
-3.58232
11
6.27964
21
-3.58544
0
LINE
8
BLACK
6
CONTINUOUS
10
6.27964
20
-3.58544
11
6.27288
21
-3.58996
0
LINE
8
BLACK
6
CONTINUOUS
10
6.27288
20
-3.58996
11
6.26712
21
-3.59571
0
LINE
8
BLACK
6
CONTINUOUS
10
6.26712
20
-3.59571
11
6.2626
21
-3.60248
0
LINE
8
BLACK
6
CONTINUOUS
10
6.2626
20
-3.60248
11
6.25949
21
-3.61
0
LINE
8
BLACK
6
CONTINUOUS
10
6.25949
20
-3.61
11
6.2579
21
-3.61798
0
LINE
8
BLACK
6
CONTINUOUS
10
6.2579
20
-3.61798
11
6.2579
21
-3.62612
0
LINE
8
BLACK
6
CONTINUOUS
10
6.2579
20
-3.62612
11
6.25949
21
-3.6341
0
LINE
8
BLACK
6
CONTINUOUS
10
6.25949
20
-3.6341
11
6.2626
21
-3.64162
0
LINE
8
BLACK
6
CONTINUOUS
10
6.2626
20
-3.64162
11
6.26712
21
-3.64838
0
LINE
8
BLACK
6
CONTINUOUS
10
6.26712
20
-3.64838
11
6.27288
21
-3.65414
0
LINE
8
BLACK
6
CONTINUOUS
10
6.27288
20
-3.65414
11
6.27964
21
-3.65866
0
LINE
8
BLACK
6
CONTINUOUS
10
6.27964
20
-3.65866
11
6.28716
21
-3.66177
0
LINE
8
BLACK
6
CONTINUOUS
10
6.28716
20
-3.66177
11
6.29514
21
-3.66336
0
LINE
8
BLACK
6
CONTINUOUS
10
6.29514
20
-3.66336
11
6.30328
21
-3.66336
0
LINE
8
BLACK
6
CONTINUOUS
10
6.30328
20
-3.66336
11
6.31126
21
-3.66177
0
LINE
8
BLACK
6
CONTINUOUS
10
6.31126
20
-3.66177
11
6.31878
21
-3.65866
0
LINE
8
BLACK
6
CONTINUOUS
10
6.31878
20
-3.65866
11
6.32555
21
-3.65414
0
LINE
8
BLACK
6
CONTINUOUS
10
6.32555
20
-3.65414
11
6.3313
21
-3.64838
0
LINE
8
BLACK
6
CONTINUOUS
10
6.3313
20
-3.64838
11
6.33582
21
-3.64162
0
LINE
8
BLACK
6
CONTINUOUS
10
6.33582
20
-3.64162
11
6.33894
21
-3.6341
0
LINE
8
BLACK
6
CONTINUOUS
10
6.33894
20
-3.6341
11
6.34052
21
-3.62612
0
LINE
8
BLACK
6
CONTINUOUS
10
6.34052
20
-3.62612
11
6.34052
21
-3.61798
0
LINE
8
BLACK
6
CONTINUOUS
10
6.34052
20
-3.61798
11
6.33894
21
-3.61
0
LINE
8
BLACK
6
CONTINUOUS
10
6.33894
20
-3.61
11
6.33582
21
-3.60248
0
LINE
8
BLACK
6
CONTINUOUS
10
6.33582
20
-3.60248
11
6.3313
21
-3.59571
0
LINE
8
BLACK
6
CONTINUOUS
10
6.3313
20
-3.59571
11
6.32555
21
-3.58996
0
LINE
8
BLACK
6
CONTINUOUS
10
6.32555
20
-3.58996
11
6.31878
21
-3.58544
0
LINE
8
BLACK
6
CONTINUOUS
10
6.31878
20
-3.58544
11
6.31126
21
-3.58232
0
LINE
8
BLACK
6
CONTINUOUS
10
6.31126
20
-3.58232
11
6.30328
21
-3.58074
0
LINE
8
BLACK
6
CONTINUOUS
10
6.30328
20
-3.58074
11
6.29514
21
-3.58074
0
LINE
8
BLACK
6
CONTINUOUS
10
5.50774
20
-3.58074
11
5.49976
21
-3.58232
0
LINE
8
BLACK
6
CONTINUOUS
10
5.49976
20
-3.58232
11
5.49224
21
-3.58544
0
LINE
8
BLACK
6
CONTINUOUS
10
5.49224
20
-3.58544
11
5.48548
21
-3.58996
0
LINE
8
BLACK
6
CONTINUOUS
10
5.48548
20
-3.58996
11
5.47972
21
-3.59571
0
LINE
8
BLACK
6
CONTINUOUS
10
5.47972
20
-3.59571
11
5.4752
21
-3.60248
0
LINE
8
BLACK
6
CONTINUOUS
10
5.4752
20
-3.60248
11
5.47209
21
-3.61
0
LINE
8
BLACK
6
CONTINUOUS
10
5.47209
20
-3.61
11
5.4705
21
-3.61798
0
LINE
8
BLACK
6
CONTINUOUS
10
5.4705
20
-3.61798
11
5.4705
21
-3.62612
0
LINE
8
BLACK
6
CONTINUOUS
10
5.4705
20
-3.62612
11
5.47209
21
-3.6341
0
LINE
8
BLACK
6
CONTINUOUS
10
5.47209
20
-3.6341
11
5.4752
21
-3.64162
0
LINE
8
BLACK
6
CONTINUOUS
10
5.4752
20
-3.64162
11
5.47972
21
-3.64838
0
LINE
8
BLACK
6
CONTINUOUS
10
5.47972
20
-3.64838
11
5.48548
21
-3.65414
0
LINE
8
BLACK
6
CONTINUOUS
10
5.48548
20
-3.65414
11
5.49224
21
-3.65866
0
LINE
8
BLACK
6
CONTINUOUS
10
5.49224
20
-3.65866
11
5.49976
21
-3.66177
0
LINE
8
BLACK
6
CONTINUOUS
10
5.49976
20
-3.66177
11
5.50774
21
-3.66336
0
LINE
8
BLACK
6
CONTINUOUS
10
5.50774
20
-3.66336
11
5.51588
21
-3.66336
0
LINE
8
BLACK
6
CONTINUOUS
10
5.51588
20
-3.66336
11
5.52386
21
-3.66177
0
LINE
8
BLACK
6
CONTINUOUS
10
5.52386
20
-3.66177
11
5.53138
21
-3.65866
0
LINE
8
BLACK
6
CONTINUOUS
10
5.53138
20
-3.65866
11
5.53815
21
-3.65414
0
LINE
8
BLACK
6
CONTINUOUS
10
5.53815
20
-3.65414
11
5.5439
21
-3.64838
0
LINE
8
BLACK
6
CONTINUOUS
10
5.5439
20
-3.64838
11
5.54842
21
-3.64162
0
LINE
8
BLACK
6
CONTINUOUS
10
5.54842
20
-3.64162
11
5.55153
21
-3.6341
0
LINE
8
BLACK
6
CONTINUOUS
10
5.55153
20
-3.6341
11
5.55312
21
-3.62612
0
LINE
8
BLACK
6
CONTINUOUS
10
5.55312
20
-3.62612
11
5.55312
21
-3.61798
0
LINE
8
BLACK
6
CONTINUOUS
10
5.55312
20
-3.61798
11
5.55153
21
-3.61
0
LINE
8
BLACK
6
CONTINUOUS
10
5.55153
20
-3.61
11
5.54842
21
-3.60248
0
LINE
8
BLACK
6
CONTINUOUS
10
5.54842
20
-3.60248
11
5.5439
21
-3.59571
0
LINE
8
BLACK
6
CONTINUOUS
10
5.5439
20
-3.59571
11
5.53815
21
-3.58996
0
LINE
8
BLACK
6
CONTINUOUS
10
5.53815
20
-3.58996
11
5.53138
21
-3.58544
0
LINE
8
BLACK
6
CONTINUOUS
10
5.53138
20
-3.58544
11
5.52386
21
-3.58232
0
LINE
8
BLACK
6
CONTINUOUS
10
5.52386
20
-3.58232
11
5.51588
21
-3.58074
0
LINE
8
BLACK
6
CONTINUOUS
10
5.51588
20
-3.58074
11
5.50774
21
-3.58074
0
LINE
8
BLACK
6
CONTINUOUS
10
6.15928
20
-3.35426
11
6.15508
21
-3.3551
0
LINE
8
BLACK
6
CONTINUOUS
10
6.15508
20
-3.3551
11
6.15113
21
-3.35674
0
LINE
8
BLACK
6
CONTINUOUS
10
6.15113
20
-3.35674
11
6.14757
21
-3.35911
0
LINE
8
BLACK
6
CONTINUOUS
10
6.14757
20
-3.35911
11
6.14455
21
-3.36214
0
LINE
8
BLACK
6
CONTINUOUS
10
6.14455
20
-3.36214
11
6.14217
21
-3.3657
0
LINE
8
BLACK
6
CONTINUOUS
10
6.14217
20
-3.3657
11
6.14053
21
-3.36965
0
LINE
8
BLACK
6
CONTINUOUS
10
6.14053
20
-3.36965
11
6.1397
21
-3.37384
0
LINE
8
BLACK
6
CONTINUOUS
10
6.1397
20
-3.37384
11
6.1397
21
-3.37812
0
LINE
8
BLACK
6
CONTINUOUS
10
6.1397
20
-3.37812
11
6.14053
21
-3.38232
0
LINE
8
BLACK
6
CONTINUOUS
10
6.14053
20
-3.38232
11
6.14217
21
-3.38627
0
LINE
8
BLACK
6
CONTINUOUS
10
6.14217
20
-3.38627
11
6.14455
21
-3.38983
0
LINE
8
BLACK
6
CONTINUOUS
10
6.14455
20
-3.38983
11
6.14757
21
-3.39286
0
LINE
8
BLACK
6
CONTINUOUS
10
6.14757
20
-3.39286
11
6.15113
21
-3.39523
0
LINE
8
BLACK
6
CONTINUOUS
10
6.15113
20
-3.39523
11
6.15508
21
-3.39687
0
LINE
8
BLACK
6
CONTINUOUS
10
6.15508
20
-3.39687
11
6.15928
21
-3.39771
0
LINE
8
BLACK
6
CONTINUOUS
10
6.15928
20
-3.39771
11
6.16356
21
-3.39771
0
LINE
8
BLACK
6
CONTINUOUS
10
6.16356
20
-3.39771
11
6.16775
21
-3.39687
0
LINE
8
BLACK
6
CONTINUOUS
10
6.16775
20
-3.39687
11
6.17171
21
-3.39523
0
LINE
8
BLACK
6
CONTINUOUS
10
6.17171
20
-3.39523
11
6.17526
21
-3.39286
0
LINE
8
BLACK
6
CONTINUOUS
10
6.17526
20
-3.39286
11
6.17829
21
-3.38983
0
LINE
8
BLACK
6
CONTINUOUS
10
6.17829
20
-3.38983
11
6.18067
21
-3.38627
0
LINE
8
BLACK
6
CONTINUOUS
10
6.18067
20
-3.38627
11
6.1823
21
-3.38232
0
LINE
8
BLACK
6
CONTINUOUS
10
6.1823
20
-3.38232
11
6.18314
21
-3.37812
0
LINE
8
BLACK
6
CONTINUOUS
10
6.18314
20
-3.37812
11
6.18314
21
-3.37384
0
LINE
8
BLACK
6
CONTINUOUS
10
6.18314
20
-3.37384
11
6.1823
21
-3.36965
0
LINE
8
BLACK
6
CONTINUOUS
10
6.1823
20
-3.36965
11
6.18067
21
-3.3657
0
LINE
8
BLACK
6
CONTINUOUS
10
6.18067
20
-3.3657
11
6.17829
21
-3.36214
0
LINE
8
BLACK
6
CONTINUOUS
10
6.17829
20
-3.36214
11
6.17526
21
-3.35911
0
LINE
8
BLACK
6
CONTINUOUS
10
6.17526
20
-3.35911
11
6.17171
21
-3.35674
0
LINE
8
BLACK
6
CONTINUOUS
10
6.17171
20
-3.35674
11
6.16775
21
-3.3551
0
LINE
8
BLACK
6
CONTINUOUS
10
6.16775
20
-3.3551
11
6.16356
21
-3.35426
0
LINE
8
BLACK
6
CONTINUOUS
10
6.16356
20
-3.35426
11
6.15928
21
-3.35426
0
LINE
8
BLACK
6
CONTINUOUS
10
5.64747
20
-3.35426
11
5.64327
21
-3.3551
0
LINE
8
BLACK
6
CONTINUOUS
10
5.64327
20
-3.3551
11
5.63932
21
-3.35674
0
LINE
8
BLACK
6
CONTINUOUS
10
5.63932
20
-3.35674
11
5.63576
21
-3.35911
0
LINE
8
BLACK
6
CONTINUOUS
10
5.63576
20
-3.35911
11
5.63273
21
-3.36214
0
LINE
8
BLACK
6
CONTINUOUS
10
5.63273
20
-3.36214
11
5.63036
21
-3.3657
0
LINE
8
BLACK
6
CONTINUOUS
10
5.63036
20
-3.3657
11
5.62872
21
-3.36965
0
LINE
8
BLACK
6
CONTINUOUS
10
5.62872
20
-3.36965
11
5.62789
21
-3.37384
0
LINE
8
BLACK
6
CONTINUOUS
10
5.62789
20
-3.37384
11
5.62789
21
-3.37812
0
LINE
8
BLACK
6
CONTINUOUS
10
5.62789
20
-3.37812
11
5.62872
21
-3.38232
0
LINE
8
BLACK
6
CONTINUOUS
10
5.62872
20
-3.38232
11
5.63036
21
-3.38627
0
LINE
8
BLACK
6
CONTINUOUS
10
5.63036
20
-3.38627
11
5.63273
21
-3.38983
0
LINE
8
BLACK
6
CONTINUOUS
10
5.63273
20
-3.38983
11
5.63576
21
-3.39286
0
LINE
8
BLACK
6
CONTINUOUS
10
5.63576
20
-3.39286
11
5.63932
21
-3.39523
0
LINE
8
BLACK
6
CONTINUOUS
10
5.63932
20
-3.39523
11
5.64327
21
-3.39687
0
LINE
8
BLACK
6
CONTINUOUS
10
5.64327
20
-3.39687
11
5.64747
21
-3.39771
0
LINE
8
BLACK
6
CONTINUOUS
10
5.64747
20
-3.39771
11
5.65175
21
-3.39771
0
LINE
8
BLACK
6
CONTINUOUS
10
5.65175
20
-3.39771
11
5.65594
21
-3.39687
0
LINE
8
BLACK
6
CONTINUOUS
10
5.65594
20
-3.39687
11
5.6599
21
-3.39523
0
LINE
8
BLACK
6
CONTINUOUS
10
5.6599
20
-3.39523
11
5.66345
21
-3.39286
0
LINE
8
BLACK
6
CONTINUOUS
10
5.66345
20
-3.39286
11
5.66648
21
-3.38983
0
LINE
8
BLACK
6
CONTINUOUS
10
5.66648
20
-3.38983
11
5.66886
21
-3.38627
0
LINE
8
BLACK
6
CONTINUOUS
10
5.66886
20
-3.38627
11
5.67049
21
-3.38232
0
LINE
8
BLACK
6
CONTINUOUS
10
5.67049
20
-3.38232
11
5.67133
21
-3.37812
0
LINE
8
BLACK
6
CONTINUOUS
10
5.67133
20
-3.37812
11
5.67133
21
-3.37384
0
LINE
8
BLACK
6
CONTINUOUS
10
5.67133
20
-3.37384
11
5.67049
21
-3.36965
0
LINE
8
BLACK
6
CONTINUOUS
10
5.67049
20
-3.36965
11
5.66886
21
-3.3657
0
LINE
8
BLACK
6
CONTINUOUS
10
5.66886
20
-3.3657
11
5.66648
21
-3.36214
0
LINE
8
BLACK
6
CONTINUOUS
10
5.66648
20
-3.36214
11
5.66345
21
-3.35911
0
LINE
8
BLACK
6
CONTINUOUS
10
5.66345
20
-3.35911
11
5.6599
21
-3.35674
0
LINE
8
BLACK
6
CONTINUOUS
10
5.6599
20
-3.35674
11
5.65594
21
-3.3551
0
LINE
8
BLACK
6
CONTINUOUS
10
5.65594
20
-3.3551
11
5.65175
21
-3.35426
0
LINE
8
BLACK
6
CONTINUOUS
10
5.65175
20
-3.35426
11
5.64747
21
-3.35426
0
CIRCLE
8
BLACK
10
5.65583
20
-3.47244
40
0.00590551
0
CIRCLE
8
BLACK
10
5.61285
20
-3.46932
40
0.00590551
0
CIRCLE
8
BLACK
10
5.5713
20
-3.45793
40
0.00590551
0
CIRCLE
8
BLACK
10
5.53227
20
-3.43958
40
0.00590551
0
CIRCLE
8
BLACK
10
5.49364
20
-3.42037
40
0.00590551
0
CIRCLE
8
BLACK
10
5.45332
20
-3.4051
40
0.00590551
0
CIRCLE
8
BLACK
10
5.41115
20
-3.39616
40
0.00590551
0
CIRCLE
8
BLACK
10
5.36811
20
-3.3937
40
0.00590551
0
CIRCLE
8
BLACK
10
5.69898
20
-3.47244
40
0.00590551
0
CIRCLE
8
BLACK
10
5.32496
20
-3.3937
40
0.00590551
0
CIRCLE
8
BLACK
10
5.37061
20
-3.45669
40
0.00590551
0
CIRCLE
8
BLACK
10
5.416
20
-3.46077
40
0.00590551
0
CIRCLE
8
BLACK
10
5.45957
20
-3.47413
40
0.00590551
0
CIRCLE
8
BLACK
10
5.50058
20
-3.49417
40
0.00590551
0
CIRCLE
8
BLACK
10
5.54172
20
-3.51395
40
0.00590551
0
CIRCLE
8
BLACK
10
5.64176
20
-3.53532
40
0.00590551
0
CIRCLE
8
BLACK
10
5.32496
20
-3.45669
40
0.00590551
0
CIRCLE
8
BLACK
10
5.58512
20
-3.52795
40
0.00590551
0
CIRCLE
8
BLACK
10
5.58512
20
-3.52795
40
0.00590551
0
CIRCLE
8
BLACK
10
5.69898
20
-3.53543
40
0.00590551
0
CIRCLE
8
BLACK
10
5.37246
20
-3.85039
40
0.00590551
0
CIRCLE
8
BLACK
10
5.4149
20
-3.84741
40
0.00590551
0
CIRCLE
8
BLACK
10
5.4564
20
-3.83807
40
0.00590551
0
CIRCLE
8
BLACK
10
5.49603
20
-3.82259
40
0.00590551
0
CIRCLE
8
BLACK
10
5.53413
20
-3.80358
40
0.00590551
0
CIRCLE
8
BLACK
10
5.57271
20
-3.78562
40
0.00590551
0
CIRCLE
8
BLACK
10
5.61378
20
-3.77461
40
0.00590551
0
CIRCLE
8
BLACK
10
5.6562
20
-3.77165
40
0.00590551
0
CIRCLE
8
BLACK
10
5.32988
20
-3.85039
40
0.00590551
0
CIRCLE
8
BLACK
10
5.69878
20
-3.77165
40
0.00590551
0
CIRCLE
8
BLACK
10
5.6562
20
-3.70866
40
0.00590551
0
CIRCLE
8
BLACK
10
5.61371
20
-3.71096
40
0.00590551
0
CIRCLE
8
BLACK
10
5.57205
20
-3.71955
40
0.00590551
0
CIRCLE
8
BLACK
10
5.53216
20
-3.73432
40
0.00590551
0
CIRCLE
8
BLACK
10
5.494
20
-3.75322
40
0.00590551
0
CIRCLE
8
BLACK
10
5.4556
20
-3.7716
40
0.00590551
0
CIRCLE
8
BLACK
10
5.41481
20
-3.78356
40
0.00590551
0
CIRCLE
8
BLACK
10
5.37246
20
-3.7874
40
0.00590551
0
CIRCLE
8
BLACK
10
5.69878
20
-3.70866
40
0.00590551
0
CIRCLE
8
BLACK
10
5.32988
20
-3.7874
40
0.00590551
0
CIRCLE
8
BLACK
10
6.44323
20
-3.7874
40
0.00590551
0
CIRCLE
8
BLACK
10
6.40025
20
-3.78428
40
0.00590551
0
CIRCLE
8
BLACK
10
6.35871
20
-3.7729
40
0.00590551
0
CIRCLE
8
BLACK
10
6.31967
20
-3.75454
40
0.00590551
0
CIRCLE
8
BLACK
10
6.28104
20
-3.73533
40
0.00590551
0
CIRCLE
8
BLACK
10
6.24073
20
-3.72006
40
0.00590551
0
CIRCLE
8
BLACK
10
6.19855
20
-3.71112
40
0.00590551
0
CIRCLE
8
BLACK
10
6.15551
20
-3.70866
40
0.00590551
0
CIRCLE
8
BLACK
10
6.48638
20
-3.7874
40
0.00590551
0
CIRCLE
8
BLACK
10
6.11236
20
-3.70866
40
0.00590551
0
CIRCLE
8
BLACK
10
6.15802
20
-3.77165
40
0.00590551
0
CIRCLE
8
BLACK
10
6.20341
20
-3.77573
40
0.00590551
0
CIRCLE
8
BLACK
10
6.24697
20
-3.78909
40
0.00590551
0
CIRCLE
8
BLACK
10
6.28799
20
-3.80913
40
0.00590551
0
CIRCLE
8
BLACK
10
6.32912
20
-3.82891
40
0.00590551
0
CIRCLE
8
BLACK
10
6.42916
20
-3.85028
40
0.00590551
0
CIRCLE
8
BLACK
10
6.11236
20
-3.77165
40
0.00590551
0
CIRCLE
8
BLACK
10
6.37252
20
-3.84291
40
0.00590551
0
CIRCLE
8
BLACK
10
6.37252
20
-3.84291
40
0.00590551
0
CIRCLE
8
BLACK
10
6.48638
20
-3.85039
40
0.00590551
0
CIRCLE
8
BLACK
10
6.15483
20
-3.53543
40
0.00590551
0
CIRCLE
8
BLACK
10
6.19731
20
-3.53313
40
0.00590551
0
CIRCLE
8
BLACK
10
6.23897
20
-3.52454
40
0.00590551
0
CIRCLE
8
BLACK
10
6.27887
20
-3.50977
40
0.00590551
0
CIRCLE
8
BLACK
10
6.31703
20
-3.49087
40
0.00590551
0
CIRCLE
8
BLACK
10
6.35542
20
-3.47249
40
0.00590551
0
CIRCLE
8
BLACK
10
6.39622
20
-3.46053
40
0.00590551
0
CIRCLE
8
BLACK
10
6.43856
20
-3.45669
40
0.00590551
0
CIRCLE
8
BLACK
10
6.11224
20
-3.53543
40
0.00590551
0
CIRCLE
8
BLACK
10
6.48114
20
-3.45669
40
0.00590551
0
CIRCLE
8
BLACK
10
6.43856
20
-3.3937
40
0.00590551
0
CIRCLE
8
BLACK
10
6.39612
20
-3.39668
40
0.00590551
0
CIRCLE
8
BLACK
10
6.35462
20
-3.40603
40
0.00590551
0
CIRCLE
8
BLACK
10
6.31499
20
-3.4215
40
0.00590551
0
CIRCLE
8
BLACK
10
6.27689
20
-3.44051
40
0.00590551
0
CIRCLE
8
BLACK
10
6.23831
20
-3.45847
40
0.00590551
0
CIRCLE
8
BLACK
10
6.19724
20
-3.46948
40
0.00590551
0
CIRCLE
8
BLACK
10
6.15483
20
-3.47244
40
0.00590551
0
CIRCLE
8
BLACK
10
6.48114
20
-3.3937
40
0.00590551
0
CIRCLE
8
BLACK
10
6.11224
20
-3.47244
40
0.00590551
  0
ENDSEC
  0
EOF
