G04 #@! TF.GenerationSoftware,KiCad,Pcbnew,5.1.5-52549c5~84~ubuntu18.04.1*
G04 #@! TF.CreationDate,2020-05-23T22:27:17-03:00*
G04 #@! TF.ProjectId,SampleHolder_Cryo,53616d70-6c65-4486-9f6c-6465725f4372,rev?*
G04 #@! TF.SameCoordinates,Original*
G04 #@! TF.FileFunction,Copper,L1,Top*
G04 #@! TF.FilePolarity,Positive*
%FSLAX46Y46*%
G04 Gerber Fmt 4.6, Leading zero omitted, Abs format (unit mm)*
G04 Created by KiCad (PCBNEW 5.1.5-52549c5~84~ubuntu18.04.1) date 2020-05-23 22:27:17*
%MOMM*%
%LPD*%
G04 APERTURE LIST*
%ADD10C,0.500000*%
%ADD11C,0.254000*%
G04 APERTURE END LIST*
D10*
X163500000Y-87000000D02*
X164621000Y-87000000D01*
X163500000Y-87000000D02*
X163407938Y-87000666D01*
X163407938Y-87000666D02*
X163315896Y-87002667D01*
X163315896Y-87002667D02*
X163223893Y-87006001D01*
X163223893Y-87006001D02*
X163131948Y-87010668D01*
X163131948Y-87010668D02*
X163040079Y-87016666D01*
X163040079Y-87016666D02*
X162948308Y-87023995D01*
X162948308Y-87023995D02*
X162856652Y-87032652D01*
X162856652Y-87032652D02*
X162765132Y-87042637D01*
X162765132Y-87042637D02*
X162673765Y-87053947D01*
X162673765Y-87053947D02*
X162582572Y-87066579D01*
X162582572Y-87066579D02*
X162491572Y-87080531D01*
X162491572Y-87080531D02*
X162400783Y-87095800D01*
X162400783Y-87095800D02*
X162310225Y-87112383D01*
X162310225Y-87112383D02*
X162219917Y-87130276D01*
X162219917Y-87130276D02*
X162129878Y-87149476D01*
X162129878Y-87149476D02*
X162040126Y-87169978D01*
X162040126Y-87169978D02*
X161950681Y-87191778D01*
X161950681Y-87191778D02*
X161861560Y-87214872D01*
X161861560Y-87214872D02*
X161772784Y-87239255D01*
X161772784Y-87239255D02*
X161684371Y-87264922D01*
X161684371Y-87264922D02*
X161596338Y-87291867D01*
X161596338Y-87291867D02*
X161508706Y-87320084D01*
X161508706Y-87320084D02*
X161421491Y-87349568D01*
X161421491Y-87349568D02*
X161334713Y-87380313D01*
X161334713Y-87380313D02*
X161248389Y-87412312D01*
X161248389Y-87412312D02*
X161162537Y-87445558D01*
X161162537Y-87445558D02*
X161077177Y-87480044D01*
X161077177Y-87480044D02*
X160992325Y-87515764D01*
X160992325Y-87515764D02*
X160908000Y-87552709D01*
X160908000Y-87552709D02*
X160824218Y-87590872D01*
X160824218Y-87590872D02*
X160740999Y-87630245D01*
X160740999Y-87630245D02*
X160658359Y-87670820D01*
X156500000Y-89000000D02*
X155251000Y-89000000D01*
X156500000Y-89000000D02*
X156592061Y-88999332D01*
X156592061Y-88999332D02*
X156684103Y-88997331D01*
X156684103Y-88997331D02*
X156776106Y-88993997D01*
X156776106Y-88993997D02*
X156868051Y-88989331D01*
X156868051Y-88989331D02*
X156959919Y-88983332D01*
X156959919Y-88983332D02*
X157051691Y-88976004D01*
X157051691Y-88976004D02*
X157143347Y-88967346D01*
X157143347Y-88967346D02*
X157234867Y-88957361D01*
X157234867Y-88957361D02*
X157326234Y-88946052D01*
X157326234Y-88946052D02*
X157417426Y-88933419D01*
X157417426Y-88933419D02*
X157508427Y-88919467D01*
X157508427Y-88919467D02*
X157599215Y-88904198D01*
X157599215Y-88904198D02*
X157689773Y-88887615D01*
X157689773Y-88887615D02*
X157780081Y-88869722D01*
X157780081Y-88869722D02*
X157870121Y-88850522D01*
X157870121Y-88850522D02*
X157959873Y-88830020D01*
X157959873Y-88830020D02*
X158049318Y-88808220D01*
X158049318Y-88808220D02*
X158138438Y-88785126D01*
X158138438Y-88785126D02*
X158227214Y-88760743D01*
X158227214Y-88760743D02*
X158315627Y-88735076D01*
X158315627Y-88735076D02*
X158403660Y-88708131D01*
X158403660Y-88708131D02*
X158491293Y-88679914D01*
X158491293Y-88679914D02*
X158578507Y-88650430D01*
X158578507Y-88650430D02*
X158665286Y-88619685D01*
X158665286Y-88619685D02*
X158751609Y-88587686D01*
X158751609Y-88587686D02*
X158837461Y-88554440D01*
X158837461Y-88554440D02*
X158922821Y-88519953D01*
X158922821Y-88519953D02*
X159007673Y-88484234D01*
X159007673Y-88484234D02*
X159091998Y-88447289D01*
X159091998Y-88447289D02*
X159175779Y-88409126D01*
X159175779Y-88409126D02*
X159258999Y-88369753D01*
X159258999Y-88369753D02*
X159341640Y-88329179D01*
X159341640Y-88329179D02*
X160658359Y-87670820D01*
X142765133Y-95042639D02*
X142673766Y-95053948D01*
X141861562Y-95214874D02*
X141772786Y-95239257D01*
X142310227Y-95112385D02*
X142219919Y-95130278D01*
X142219919Y-95130278D02*
X142129879Y-95149478D01*
X143500000Y-95000000D02*
X143407939Y-95000668D01*
X137780083Y-96869724D02*
X137870122Y-96850524D01*
X141421493Y-95349570D02*
X141334714Y-95380315D01*
X138751611Y-96587688D02*
X138837463Y-96554442D01*
X141248391Y-95412314D02*
X141162539Y-95445560D01*
X140658360Y-95670821D02*
X139341641Y-96329180D01*
X142129879Y-95149478D02*
X142040127Y-95169980D01*
X143500000Y-95000000D02*
X144749000Y-95000000D01*
X136500000Y-97000000D02*
X135379000Y-97000000D01*
X137689775Y-96887617D02*
X137780083Y-96869724D01*
X136684104Y-96997333D02*
X136776107Y-96993999D01*
X138837463Y-96554442D02*
X138922823Y-96519956D01*
X142491573Y-95080533D02*
X142400785Y-95095802D01*
X142400785Y-95095802D02*
X142310227Y-95112385D01*
X136776107Y-96993999D02*
X136868052Y-96989332D01*
X141772786Y-95239257D02*
X141684373Y-95264924D01*
X137051692Y-96976005D02*
X137143348Y-96967348D01*
X141162539Y-95445560D02*
X141077179Y-95480047D01*
X138665287Y-96619687D02*
X138751611Y-96587688D01*
X137234868Y-96957363D02*
X137326235Y-96946053D01*
X139175782Y-96409128D02*
X139259001Y-96369755D01*
X143131949Y-95010669D02*
X143040081Y-95016668D01*
X143315897Y-95002669D02*
X143223894Y-95006003D01*
X143223894Y-95006003D02*
X143131949Y-95010669D01*
X141508707Y-95320086D02*
X141421493Y-95349570D01*
X141950682Y-95191780D02*
X141861562Y-95214874D01*
X141077179Y-95480047D02*
X140992327Y-95515766D01*
X140992327Y-95515766D02*
X140908002Y-95552711D01*
X140824221Y-95590874D02*
X140741001Y-95630247D01*
X143407939Y-95000668D02*
X143315897Y-95002669D01*
X137870122Y-96850524D02*
X137959874Y-96830022D01*
X138922823Y-96519956D02*
X139007675Y-96484236D01*
X137143348Y-96967348D02*
X137234868Y-96957363D01*
X138227216Y-96760745D02*
X138315629Y-96735078D01*
X137326235Y-96946053D02*
X137417428Y-96933421D01*
X138315629Y-96735078D02*
X138403662Y-96708133D01*
X139007675Y-96484236D02*
X139092000Y-96447291D01*
X137417428Y-96933421D02*
X137508428Y-96919469D01*
X138578509Y-96650432D02*
X138665287Y-96619687D01*
X142040127Y-95169980D02*
X141950682Y-95191780D01*
X138403662Y-96708133D02*
X138491294Y-96679916D01*
X138491294Y-96679916D02*
X138578509Y-96650432D01*
X140908002Y-95552711D02*
X140824221Y-95590874D01*
X136868052Y-96989332D02*
X136959921Y-96983334D01*
X143040081Y-95016668D02*
X142948309Y-95023996D01*
X136959921Y-96983334D02*
X137051692Y-96976005D01*
X138049319Y-96808222D02*
X138138440Y-96785128D01*
X139092000Y-96447291D02*
X139175782Y-96409128D01*
X140741001Y-95630247D02*
X140658360Y-95670821D01*
X137959874Y-96830022D02*
X138049319Y-96808222D01*
X142856653Y-95032654D02*
X142765133Y-95042639D01*
X139259001Y-96369755D02*
X139341641Y-96329180D01*
X136500000Y-97000000D02*
X136592062Y-96999334D01*
X142673766Y-95053948D02*
X142582574Y-95066581D01*
X142582574Y-95066581D02*
X142491573Y-95080533D01*
X141334714Y-95380315D02*
X141248391Y-95412314D01*
X138138440Y-96785128D02*
X138227216Y-96760745D01*
X137508428Y-96919469D02*
X137599217Y-96904200D01*
X137599217Y-96904200D02*
X137689775Y-96887617D01*
X136592062Y-96999334D02*
X136684104Y-96997333D01*
X141596340Y-95291869D02*
X141508707Y-95320086D01*
X141684373Y-95264924D02*
X141596340Y-95291869D01*
X142948309Y-95023996D02*
X142856653Y-95032654D01*
X136500000Y-87000000D02*
X135254000Y-87000000D01*
X136500000Y-87000000D02*
X136592061Y-87000666D01*
X136592061Y-87000666D02*
X136684103Y-87002667D01*
X136684103Y-87002667D02*
X136776106Y-87006001D01*
X136776106Y-87006001D02*
X136868051Y-87010668D01*
X136868051Y-87010668D02*
X136959919Y-87016666D01*
X136959919Y-87016666D02*
X137051691Y-87023995D01*
X137051691Y-87023995D02*
X137143347Y-87032653D01*
X137143347Y-87032653D02*
X137234867Y-87042637D01*
X137234867Y-87042637D02*
X137326234Y-87053947D01*
X137326234Y-87053947D02*
X137417426Y-87066579D01*
X137417426Y-87066579D02*
X137508427Y-87080531D01*
X137508427Y-87080531D02*
X137599215Y-87095800D01*
X137599215Y-87095800D02*
X137689773Y-87112383D01*
X137689773Y-87112383D02*
X137780081Y-87130276D01*
X137780081Y-87130276D02*
X137870121Y-87149476D01*
X137870121Y-87149476D02*
X137959873Y-87169978D01*
X137959873Y-87169978D02*
X138049318Y-87191779D01*
X138049318Y-87191779D02*
X138138438Y-87214873D01*
X138138438Y-87214873D02*
X138227214Y-87239256D01*
X138227214Y-87239256D02*
X138315627Y-87264922D01*
X138315627Y-87264922D02*
X138403660Y-87291867D01*
X138403660Y-87291867D02*
X138491293Y-87320084D01*
X138491293Y-87320084D02*
X138578507Y-87349569D01*
X138578507Y-87349569D02*
X138665286Y-87380313D01*
X138665286Y-87380313D02*
X138751609Y-87412312D01*
X138751609Y-87412312D02*
X138837461Y-87445558D01*
X138837461Y-87445558D02*
X138922821Y-87480044D01*
X138922821Y-87480044D02*
X139007673Y-87515764D01*
X139007673Y-87515764D02*
X139091998Y-87552709D01*
X139091998Y-87552709D02*
X139175779Y-87590872D01*
X139175779Y-87590872D02*
X139258999Y-87630245D01*
X139258999Y-87630245D02*
X139341640Y-87670820D01*
X143500000Y-89000000D02*
X144754000Y-89000000D01*
X143500000Y-89000000D02*
X143407938Y-88999332D01*
X143407938Y-88999332D02*
X143315896Y-88997332D01*
X143315896Y-88997332D02*
X143223893Y-88993998D01*
X143223893Y-88993998D02*
X143131948Y-88989331D01*
X143131948Y-88989331D02*
X143040079Y-88983333D01*
X143040079Y-88983333D02*
X142948308Y-88976004D01*
X142948308Y-88976004D02*
X142856652Y-88967346D01*
X142856652Y-88967346D02*
X142765132Y-88957362D01*
X142765132Y-88957362D02*
X142673765Y-88946052D01*
X142673765Y-88946052D02*
X142582572Y-88933420D01*
X142582572Y-88933420D02*
X142491572Y-88919468D01*
X142491572Y-88919468D02*
X142400783Y-88904199D01*
X142400783Y-88904199D02*
X142310225Y-88887616D01*
X142310225Y-88887616D02*
X142219917Y-88869722D01*
X142219917Y-88869722D02*
X142129878Y-88850523D01*
X142129878Y-88850523D02*
X142040126Y-88830020D01*
X142040126Y-88830020D02*
X141950681Y-88808220D01*
X141950681Y-88808220D02*
X141861560Y-88785126D01*
X141861560Y-88785126D02*
X141772784Y-88760743D01*
X141772784Y-88760743D02*
X141684371Y-88735076D01*
X141684371Y-88735076D02*
X141596338Y-88708132D01*
X141596338Y-88708132D02*
X141508706Y-88679914D01*
X141508706Y-88679914D02*
X141421491Y-88650430D01*
X141421491Y-88650430D02*
X141334713Y-88619685D01*
X141334713Y-88619685D02*
X141248389Y-88587686D01*
X141248389Y-88587686D02*
X141162538Y-88554440D01*
X141162538Y-88554440D02*
X141077177Y-88519954D01*
X141077177Y-88519954D02*
X140992325Y-88484234D01*
X140992325Y-88484234D02*
X140908000Y-88447289D01*
X140908000Y-88447289D02*
X140824218Y-88409126D01*
X140824218Y-88409126D02*
X140740999Y-88369753D01*
X140740999Y-88369753D02*
X140658359Y-88329179D01*
X140658359Y-88329179D02*
X139341640Y-87670820D01*
X163315896Y-96997332D02*
X163223893Y-96993998D01*
X162856652Y-96967346D02*
X162765132Y-96957362D01*
X162765132Y-96957362D02*
X162673765Y-96946052D01*
X157870121Y-95149476D02*
X157959873Y-95169978D01*
X162673765Y-96946052D02*
X162582572Y-96933420D01*
X161684371Y-96735076D02*
X161596338Y-96708132D01*
X162310225Y-96887616D02*
X162219917Y-96869722D01*
X161077177Y-96519954D02*
X160992325Y-96484234D01*
X157780081Y-95130276D02*
X157870121Y-95149476D01*
X156959919Y-95016666D02*
X157051691Y-95023995D01*
X158049318Y-95191779D02*
X158138438Y-95214873D01*
X158227214Y-95239256D02*
X158315627Y-95264922D01*
X162582572Y-96933420D02*
X162491572Y-96919468D01*
X157508427Y-95080531D02*
X157599215Y-95095800D01*
X161248389Y-96587686D02*
X161162538Y-96554440D01*
X162400783Y-96904199D02*
X162310225Y-96887616D01*
X162040126Y-96830020D02*
X161950681Y-96808220D01*
X158578507Y-95349569D02*
X158665286Y-95380313D01*
X159007673Y-95515764D02*
X159091998Y-95552709D01*
X163500000Y-97000000D02*
X163407938Y-96999332D01*
X161421491Y-96650430D02*
X161334713Y-96619685D01*
X161861560Y-96785126D02*
X161772784Y-96760743D01*
X157417426Y-95066579D02*
X157508427Y-95080531D01*
X158751609Y-95412312D02*
X158837461Y-95445558D01*
X160992325Y-96484234D02*
X160908000Y-96447289D01*
X156868051Y-95010668D02*
X156959919Y-95016666D01*
X163407938Y-96999332D02*
X163315896Y-96997332D01*
X156500000Y-95000000D02*
X155254000Y-95000000D01*
X161162538Y-96554440D02*
X161077177Y-96519954D01*
X156684103Y-95002667D02*
X156776106Y-95006001D01*
X157143347Y-95032653D02*
X157234867Y-95042637D01*
X163500000Y-97000000D02*
X164754000Y-97000000D01*
X162948308Y-96976004D02*
X162856652Y-96967346D01*
X161508706Y-96679914D02*
X161421491Y-96650430D01*
X156776106Y-95006001D02*
X156868051Y-95010668D01*
X159258999Y-95630245D02*
X159341640Y-95670820D01*
X158315627Y-95264922D02*
X158403660Y-95291867D01*
X158922821Y-95480044D02*
X159007673Y-95515764D01*
X157959873Y-95169978D02*
X158049318Y-95191779D01*
X159091998Y-95552709D02*
X159175779Y-95590872D01*
X159175779Y-95590872D02*
X159258999Y-95630245D01*
X160908000Y-96447289D02*
X160824218Y-96409126D01*
X163040079Y-96983333D02*
X162948308Y-96976004D01*
X158837461Y-95445558D02*
X158922821Y-95480044D01*
X157326234Y-95053947D02*
X157417426Y-95066579D01*
X161334713Y-96619685D02*
X161248389Y-96587686D01*
X158491293Y-95320084D02*
X158578507Y-95349569D01*
X158665286Y-95380313D02*
X158751609Y-95412312D01*
X157599215Y-95095800D02*
X157689773Y-95112383D01*
X157051691Y-95023995D02*
X157143347Y-95032653D01*
X160658359Y-96329179D02*
X159341640Y-95670820D01*
X161950681Y-96808220D02*
X161861560Y-96785126D01*
X157234867Y-95042637D02*
X157326234Y-95053947D01*
X161596338Y-96708132D02*
X161508706Y-96679914D01*
X162219917Y-96869722D02*
X162129878Y-96850523D01*
X160824218Y-96409126D02*
X160740999Y-96369753D01*
X162491572Y-96919468D02*
X162400783Y-96904199D01*
X158138438Y-95214873D02*
X158227214Y-95239256D01*
X160740999Y-96369753D02*
X160658359Y-96329179D01*
X162129878Y-96850523D02*
X162040126Y-96830020D01*
X157689773Y-95112383D02*
X157780081Y-95130276D01*
X163131948Y-96989331D02*
X163040079Y-96983333D01*
X158403660Y-95291867D02*
X158491293Y-95320084D01*
X156500000Y-95000000D02*
X156592061Y-95000666D01*
X156592061Y-95000666D02*
X156684103Y-95002667D01*
X161772784Y-96760743D02*
X161684371Y-96735076D01*
X163223893Y-96993998D02*
X163131948Y-96989331D01*
X151000000Y-97300000D02*
X151000000Y-101724990D01*
X153000000Y-97300000D02*
X153000000Y-101724990D01*
X149000000Y-97300000D02*
X149000000Y-101724990D01*
X147000000Y-97300000D02*
X147000000Y-101724990D01*
D11*
G36*
X150431350Y-97186889D02*
G01*
X150423000Y-97271665D01*
X150423001Y-101753326D01*
X150431341Y-101838000D01*
X149568660Y-101838000D01*
X149577000Y-101753326D01*
X149577000Y-97271664D01*
X149568650Y-97186888D01*
X149561100Y-97162000D01*
X150438900Y-97162000D01*
X150431350Y-97186889D01*
G37*
X150431350Y-97186889D02*
X150423000Y-97271665D01*
X150423001Y-101753326D01*
X150431341Y-101838000D01*
X149568660Y-101838000D01*
X149577000Y-101753326D01*
X149577000Y-97271664D01*
X149568650Y-97186888D01*
X149561100Y-97162000D01*
X150438900Y-97162000D01*
X150431350Y-97186889D01*
G36*
X144838000Y-96992051D02*
G01*
X144837217Y-97000000D01*
X144840345Y-97031757D01*
X144849608Y-97062294D01*
X144864651Y-97090437D01*
X144879964Y-97109096D01*
X144884895Y-97115105D01*
X144909563Y-97135349D01*
X144937706Y-97150392D01*
X144968243Y-97159655D01*
X145000000Y-97162783D01*
X145007949Y-97162000D01*
X146438900Y-97162000D01*
X146431350Y-97186889D01*
X146423000Y-97271665D01*
X146423001Y-101753326D01*
X146431341Y-101838000D01*
X135162000Y-101838000D01*
X135162000Y-98433152D01*
X142821284Y-98433152D01*
X142821284Y-98566848D01*
X142847367Y-98697974D01*
X142898530Y-98821493D01*
X142972807Y-98932656D01*
X143067344Y-99027193D01*
X143178507Y-99101470D01*
X143302026Y-99152633D01*
X143433152Y-99178716D01*
X143566848Y-99178716D01*
X143697974Y-99152633D01*
X143821493Y-99101470D01*
X143932656Y-99027193D01*
X144027193Y-98932656D01*
X144101470Y-98821493D01*
X144152633Y-98697974D01*
X144178716Y-98566848D01*
X144178716Y-98433152D01*
X144152633Y-98302026D01*
X144101470Y-98178507D01*
X144027193Y-98067344D01*
X143932656Y-97972807D01*
X143821493Y-97898530D01*
X143697974Y-97847367D01*
X143566848Y-97821284D01*
X143433152Y-97821284D01*
X143302026Y-97847367D01*
X143178507Y-97898530D01*
X143067344Y-97972807D01*
X142972807Y-98067344D01*
X142898530Y-98178507D01*
X142847367Y-98302026D01*
X142821284Y-98433152D01*
X135162000Y-98433152D01*
X135162000Y-97537136D01*
X135265888Y-97568650D01*
X135350664Y-97577000D01*
X136473766Y-97577000D01*
X136475839Y-97577189D01*
X136501964Y-97577000D01*
X136528336Y-97577000D01*
X136530427Y-97576794D01*
X136572091Y-97576493D01*
X136576274Y-97576813D01*
X136600441Y-97576288D01*
X136624570Y-97576113D01*
X136628734Y-97575672D01*
X136672504Y-97574721D01*
X136676683Y-97574980D01*
X136700835Y-97574105D01*
X136724974Y-97573580D01*
X136729127Y-97573080D01*
X136772875Y-97571494D01*
X136777057Y-97571693D01*
X136801168Y-97570469D01*
X136825319Y-97569594D01*
X136829472Y-97569032D01*
X136873180Y-97566814D01*
X136877367Y-97566952D01*
X136901505Y-97565376D01*
X136925601Y-97564153D01*
X136929733Y-97563533D01*
X136973425Y-97560681D01*
X136977608Y-97560758D01*
X137001649Y-97558838D01*
X137025788Y-97557262D01*
X137029929Y-97556579D01*
X137073554Y-97553095D01*
X137077738Y-97553112D01*
X137101793Y-97550840D01*
X137125871Y-97548917D01*
X137129988Y-97548177D01*
X137173565Y-97544061D01*
X137177759Y-97544017D01*
X137201796Y-97541395D01*
X137225815Y-97539126D01*
X137229922Y-97538326D01*
X137273448Y-97533577D01*
X137277630Y-97533473D01*
X137301575Y-97530509D01*
X137325617Y-97527886D01*
X137329720Y-97527025D01*
X137373157Y-97521648D01*
X137377336Y-97521483D01*
X137401246Y-97518171D01*
X137425239Y-97515201D01*
X137429325Y-97514281D01*
X137472682Y-97508276D01*
X137476862Y-97508050D01*
X137500735Y-97504390D01*
X137524666Y-97501075D01*
X137528737Y-97500097D01*
X137572003Y-97493463D01*
X137576181Y-97493177D01*
X137600006Y-97489170D01*
X137623879Y-97485510D01*
X137627935Y-97484473D01*
X137671104Y-97477213D01*
X137675276Y-97476866D01*
X137699026Y-97472517D01*
X137722857Y-97468509D01*
X137726900Y-97467413D01*
X137769957Y-97459528D01*
X137774122Y-97459121D01*
X137797818Y-97454426D01*
X137821579Y-97450075D01*
X137825602Y-97448921D01*
X137868540Y-97440414D01*
X137872704Y-97439946D01*
X137896335Y-97434907D01*
X137920021Y-97430214D01*
X137924029Y-97429001D01*
X137966851Y-97419870D01*
X137970991Y-97419344D01*
X137994483Y-97413978D01*
X138018169Y-97408927D01*
X138022165Y-97407654D01*
X138064832Y-97397908D01*
X138068973Y-97397321D01*
X138092420Y-97391606D01*
X138115992Y-97386222D01*
X138119966Y-97384893D01*
X138162490Y-97374529D01*
X138166626Y-97373881D01*
X138190000Y-97367824D01*
X138213478Y-97362102D01*
X138217431Y-97360716D01*
X138259808Y-97349735D01*
X138263934Y-97349027D01*
X138287212Y-97342634D01*
X138310608Y-97336571D01*
X138314541Y-97335127D01*
X138356756Y-97323533D01*
X138360869Y-97322766D01*
X138384043Y-97316038D01*
X138407358Y-97309635D01*
X138411271Y-97308134D01*
X138453307Y-97295931D01*
X138457407Y-97295105D01*
X138480486Y-97288041D01*
X138503707Y-97281300D01*
X138507596Y-97279743D01*
X138549453Y-97266932D01*
X138553538Y-97266047D01*
X138576490Y-97258657D01*
X138599630Y-97251574D01*
X138603501Y-97249959D01*
X138645157Y-97236546D01*
X138649238Y-97235600D01*
X138672139Y-97227858D01*
X138695115Y-97220460D01*
X138698952Y-97218794D01*
X138740431Y-97204772D01*
X138744491Y-97203768D01*
X138767224Y-97195714D01*
X138790140Y-97187967D01*
X138793963Y-97186241D01*
X138835219Y-97171624D01*
X138839267Y-97170561D01*
X138861904Y-97162170D01*
X138884687Y-97154098D01*
X138888480Y-97152318D01*
X138929512Y-97137108D01*
X138933551Y-97135985D01*
X138956108Y-97127249D01*
X138978730Y-97118864D01*
X138982490Y-97117033D01*
X139023304Y-97101228D01*
X139027329Y-97100045D01*
X139049776Y-97090976D01*
X139072250Y-97082273D01*
X139075979Y-97080390D01*
X139116581Y-97063986D01*
X139120577Y-97062749D01*
X139142820Y-97053386D01*
X139165234Y-97044330D01*
X139168947Y-97042387D01*
X139209291Y-97025403D01*
X139213270Y-97024108D01*
X139235391Y-97014416D01*
X139257662Y-97005041D01*
X139261342Y-97003046D01*
X139301439Y-96985479D01*
X139305394Y-96984128D01*
X139327337Y-96974133D01*
X139349504Y-96964421D01*
X139353163Y-96962369D01*
X139392984Y-96944230D01*
X139396935Y-96942816D01*
X139418815Y-96932464D01*
X139440749Y-96922473D01*
X139444364Y-96920376D01*
X139483945Y-96901650D01*
X139487865Y-96900182D01*
X139509531Y-96889544D01*
X139531382Y-96879206D01*
X139534978Y-96877050D01*
X139572387Y-96858683D01*
X139574338Y-96857936D01*
X139597797Y-96846207D01*
X139621377Y-96834629D01*
X139623156Y-96833527D01*
X140914656Y-96187779D01*
X140991527Y-96150038D01*
X141067260Y-96114208D01*
X141143353Y-96079546D01*
X141220078Y-96045932D01*
X141297167Y-96013480D01*
X141374807Y-95982112D01*
X141452861Y-95951886D01*
X141531331Y-95922797D01*
X141610212Y-95894850D01*
X141689537Y-95868033D01*
X141769200Y-95842383D01*
X141849285Y-95817870D01*
X141929673Y-95794534D01*
X142010335Y-95772380D01*
X142091415Y-95751369D01*
X142172714Y-95731555D01*
X142254279Y-95712923D01*
X142336164Y-95695462D01*
X142418288Y-95679191D01*
X142500592Y-95664119D01*
X142583198Y-95650227D01*
X142665858Y-95637554D01*
X142748823Y-95626060D01*
X142831852Y-95615783D01*
X142915117Y-95606699D01*
X142998394Y-95598833D01*
X143081803Y-95592172D01*
X143165390Y-95586714D01*
X143248979Y-95582472D01*
X143332629Y-95579441D01*
X143416276Y-95577622D01*
X143502058Y-95577000D01*
X144777336Y-95577000D01*
X144838000Y-95571025D01*
X144838000Y-96992051D01*
G37*
X144838000Y-96992051D02*
X144837217Y-97000000D01*
X144840345Y-97031757D01*
X144849608Y-97062294D01*
X144864651Y-97090437D01*
X144879964Y-97109096D01*
X144884895Y-97115105D01*
X144909563Y-97135349D01*
X144937706Y-97150392D01*
X144968243Y-97159655D01*
X145000000Y-97162783D01*
X145007949Y-97162000D01*
X146438900Y-97162000D01*
X146431350Y-97186889D01*
X146423000Y-97271665D01*
X146423001Y-101753326D01*
X146431341Y-101838000D01*
X135162000Y-101838000D01*
X135162000Y-98433152D01*
X142821284Y-98433152D01*
X142821284Y-98566848D01*
X142847367Y-98697974D01*
X142898530Y-98821493D01*
X142972807Y-98932656D01*
X143067344Y-99027193D01*
X143178507Y-99101470D01*
X143302026Y-99152633D01*
X143433152Y-99178716D01*
X143566848Y-99178716D01*
X143697974Y-99152633D01*
X143821493Y-99101470D01*
X143932656Y-99027193D01*
X144027193Y-98932656D01*
X144101470Y-98821493D01*
X144152633Y-98697974D01*
X144178716Y-98566848D01*
X144178716Y-98433152D01*
X144152633Y-98302026D01*
X144101470Y-98178507D01*
X144027193Y-98067344D01*
X143932656Y-97972807D01*
X143821493Y-97898530D01*
X143697974Y-97847367D01*
X143566848Y-97821284D01*
X143433152Y-97821284D01*
X143302026Y-97847367D01*
X143178507Y-97898530D01*
X143067344Y-97972807D01*
X142972807Y-98067344D01*
X142898530Y-98178507D01*
X142847367Y-98302026D01*
X142821284Y-98433152D01*
X135162000Y-98433152D01*
X135162000Y-97537136D01*
X135265888Y-97568650D01*
X135350664Y-97577000D01*
X136473766Y-97577000D01*
X136475839Y-97577189D01*
X136501964Y-97577000D01*
X136528336Y-97577000D01*
X136530427Y-97576794D01*
X136572091Y-97576493D01*
X136576274Y-97576813D01*
X136600441Y-97576288D01*
X136624570Y-97576113D01*
X136628734Y-97575672D01*
X136672504Y-97574721D01*
X136676683Y-97574980D01*
X136700835Y-97574105D01*
X136724974Y-97573580D01*
X136729127Y-97573080D01*
X136772875Y-97571494D01*
X136777057Y-97571693D01*
X136801168Y-97570469D01*
X136825319Y-97569594D01*
X136829472Y-97569032D01*
X136873180Y-97566814D01*
X136877367Y-97566952D01*
X136901505Y-97565376D01*
X136925601Y-97564153D01*
X136929733Y-97563533D01*
X136973425Y-97560681D01*
X136977608Y-97560758D01*
X137001649Y-97558838D01*
X137025788Y-97557262D01*
X137029929Y-97556579D01*
X137073554Y-97553095D01*
X137077738Y-97553112D01*
X137101793Y-97550840D01*
X137125871Y-97548917D01*
X137129988Y-97548177D01*
X137173565Y-97544061D01*
X137177759Y-97544017D01*
X137201796Y-97541395D01*
X137225815Y-97539126D01*
X137229922Y-97538326D01*
X137273448Y-97533577D01*
X137277630Y-97533473D01*
X137301575Y-97530509D01*
X137325617Y-97527886D01*
X137329720Y-97527025D01*
X137373157Y-97521648D01*
X137377336Y-97521483D01*
X137401246Y-97518171D01*
X137425239Y-97515201D01*
X137429325Y-97514281D01*
X137472682Y-97508276D01*
X137476862Y-97508050D01*
X137500735Y-97504390D01*
X137524666Y-97501075D01*
X137528737Y-97500097D01*
X137572003Y-97493463D01*
X137576181Y-97493177D01*
X137600006Y-97489170D01*
X137623879Y-97485510D01*
X137627935Y-97484473D01*
X137671104Y-97477213D01*
X137675276Y-97476866D01*
X137699026Y-97472517D01*
X137722857Y-97468509D01*
X137726900Y-97467413D01*
X137769957Y-97459528D01*
X137774122Y-97459121D01*
X137797818Y-97454426D01*
X137821579Y-97450075D01*
X137825602Y-97448921D01*
X137868540Y-97440414D01*
X137872704Y-97439946D01*
X137896335Y-97434907D01*
X137920021Y-97430214D01*
X137924029Y-97429001D01*
X137966851Y-97419870D01*
X137970991Y-97419344D01*
X137994483Y-97413978D01*
X138018169Y-97408927D01*
X138022165Y-97407654D01*
X138064832Y-97397908D01*
X138068973Y-97397321D01*
X138092420Y-97391606D01*
X138115992Y-97386222D01*
X138119966Y-97384893D01*
X138162490Y-97374529D01*
X138166626Y-97373881D01*
X138190000Y-97367824D01*
X138213478Y-97362102D01*
X138217431Y-97360716D01*
X138259808Y-97349735D01*
X138263934Y-97349027D01*
X138287212Y-97342634D01*
X138310608Y-97336571D01*
X138314541Y-97335127D01*
X138356756Y-97323533D01*
X138360869Y-97322766D01*
X138384043Y-97316038D01*
X138407358Y-97309635D01*
X138411271Y-97308134D01*
X138453307Y-97295931D01*
X138457407Y-97295105D01*
X138480486Y-97288041D01*
X138503707Y-97281300D01*
X138507596Y-97279743D01*
X138549453Y-97266932D01*
X138553538Y-97266047D01*
X138576490Y-97258657D01*
X138599630Y-97251574D01*
X138603501Y-97249959D01*
X138645157Y-97236546D01*
X138649238Y-97235600D01*
X138672139Y-97227858D01*
X138695115Y-97220460D01*
X138698952Y-97218794D01*
X138740431Y-97204772D01*
X138744491Y-97203768D01*
X138767224Y-97195714D01*
X138790140Y-97187967D01*
X138793963Y-97186241D01*
X138835219Y-97171624D01*
X138839267Y-97170561D01*
X138861904Y-97162170D01*
X138884687Y-97154098D01*
X138888480Y-97152318D01*
X138929512Y-97137108D01*
X138933551Y-97135985D01*
X138956108Y-97127249D01*
X138978730Y-97118864D01*
X138982490Y-97117033D01*
X139023304Y-97101228D01*
X139027329Y-97100045D01*
X139049776Y-97090976D01*
X139072250Y-97082273D01*
X139075979Y-97080390D01*
X139116581Y-97063986D01*
X139120577Y-97062749D01*
X139142820Y-97053386D01*
X139165234Y-97044330D01*
X139168947Y-97042387D01*
X139209291Y-97025403D01*
X139213270Y-97024108D01*
X139235391Y-97014416D01*
X139257662Y-97005041D01*
X139261342Y-97003046D01*
X139301439Y-96985479D01*
X139305394Y-96984128D01*
X139327337Y-96974133D01*
X139349504Y-96964421D01*
X139353163Y-96962369D01*
X139392984Y-96944230D01*
X139396935Y-96942816D01*
X139418815Y-96932464D01*
X139440749Y-96922473D01*
X139444364Y-96920376D01*
X139483945Y-96901650D01*
X139487865Y-96900182D01*
X139509531Y-96889544D01*
X139531382Y-96879206D01*
X139534978Y-96877050D01*
X139572387Y-96858683D01*
X139574338Y-96857936D01*
X139597797Y-96846207D01*
X139621377Y-96834629D01*
X139623156Y-96833527D01*
X140914656Y-96187779D01*
X140991527Y-96150038D01*
X141067260Y-96114208D01*
X141143353Y-96079546D01*
X141220078Y-96045932D01*
X141297167Y-96013480D01*
X141374807Y-95982112D01*
X141452861Y-95951886D01*
X141531331Y-95922797D01*
X141610212Y-95894850D01*
X141689537Y-95868033D01*
X141769200Y-95842383D01*
X141849285Y-95817870D01*
X141929673Y-95794534D01*
X142010335Y-95772380D01*
X142091415Y-95751369D01*
X142172714Y-95731555D01*
X142254279Y-95712923D01*
X142336164Y-95695462D01*
X142418288Y-95679191D01*
X142500592Y-95664119D01*
X142583198Y-95650227D01*
X142665858Y-95637554D01*
X142748823Y-95626060D01*
X142831852Y-95615783D01*
X142915117Y-95606699D01*
X142998394Y-95598833D01*
X143081803Y-95592172D01*
X143165390Y-95586714D01*
X143248979Y-95582472D01*
X143332629Y-95579441D01*
X143416276Y-95577622D01*
X143502058Y-95577000D01*
X144777336Y-95577000D01*
X144838000Y-95571025D01*
X144838000Y-96992051D01*
G36*
X155225664Y-95577000D02*
G01*
X156498039Y-95577000D01*
X156583695Y-95577620D01*
X156667371Y-95579439D01*
X156751038Y-95582471D01*
X156834595Y-95586712D01*
X156918150Y-95592167D01*
X157001627Y-95598834D01*
X157084946Y-95606704D01*
X157168103Y-95615776D01*
X157251222Y-95626065D01*
X157334120Y-95637548D01*
X157416808Y-95650226D01*
X157499414Y-95664118D01*
X157581721Y-95679191D01*
X157663821Y-95695457D01*
X157745725Y-95712922D01*
X157827293Y-95731554D01*
X157908586Y-95751368D01*
X157989655Y-95772376D01*
X158070411Y-95794556D01*
X158150761Y-95817882D01*
X158230806Y-95842382D01*
X158310464Y-95868032D01*
X158389728Y-95894829D01*
X158468692Y-95922804D01*
X158547134Y-95951882D01*
X158625165Y-95982099D01*
X158702826Y-96013475D01*
X158779956Y-96045943D01*
X158856628Y-96079536D01*
X158932766Y-96114218D01*
X159008473Y-96150036D01*
X159085500Y-96187855D01*
X160376854Y-96833531D01*
X160378629Y-96834631D01*
X160402127Y-96846168D01*
X160425661Y-96857935D01*
X160427621Y-96858685D01*
X160465032Y-96877053D01*
X160468618Y-96879203D01*
X160490425Y-96889520D01*
X160512140Y-96900182D01*
X160516066Y-96901652D01*
X160555621Y-96920366D01*
X160559250Y-96922471D01*
X160581264Y-96932498D01*
X160603065Y-96942813D01*
X160607003Y-96944223D01*
X160646848Y-96962372D01*
X160650496Y-96964418D01*
X160672615Y-96974109D01*
X160694606Y-96984126D01*
X160698567Y-96985479D01*
X160738657Y-97003044D01*
X160742338Y-97005039D01*
X160764597Y-97014409D01*
X160786729Y-97024106D01*
X160790712Y-97025403D01*
X160831053Y-97042385D01*
X160834768Y-97044329D01*
X160857174Y-97053381D01*
X160879423Y-97062747D01*
X160883424Y-97063986D01*
X160924012Y-97080383D01*
X160927748Y-97082270D01*
X160950290Y-97090999D01*
X160972675Y-97100043D01*
X160976686Y-97101221D01*
X161017508Y-97117030D01*
X161021270Y-97118862D01*
X161043905Y-97127253D01*
X161066447Y-97135982D01*
X161070483Y-97137105D01*
X161111519Y-97152316D01*
X161115313Y-97154096D01*
X161138096Y-97162168D01*
X161160733Y-97170559D01*
X161164781Y-97171622D01*
X161206037Y-97186239D01*
X161209860Y-97187965D01*
X161232772Y-97195711D01*
X161255509Y-97203766D01*
X161259571Y-97204770D01*
X161301045Y-97218791D01*
X161304880Y-97220456D01*
X161327878Y-97227862D01*
X161350763Y-97235598D01*
X161354836Y-97236542D01*
X161396511Y-97249962D01*
X161400375Y-97251574D01*
X161423429Y-97258630D01*
X161446456Y-97266045D01*
X161450562Y-97266934D01*
X161492410Y-97279743D01*
X161496293Y-97281297D01*
X161519500Y-97288034D01*
X161542599Y-97295104D01*
X161546698Y-97295930D01*
X161588725Y-97308131D01*
X161592642Y-97309633D01*
X161615975Y-97316042D01*
X161639131Y-97322764D01*
X161643241Y-97323530D01*
X161685468Y-97335128D01*
X161689393Y-97336569D01*
X161712735Y-97342618D01*
X161736067Y-97349026D01*
X161740203Y-97349735D01*
X161782564Y-97360713D01*
X161786521Y-97362100D01*
X161810018Y-97367827D01*
X161833374Y-97373879D01*
X161837507Y-97374526D01*
X161880037Y-97384892D01*
X161884002Y-97386218D01*
X161907544Y-97391596D01*
X161931026Y-97397319D01*
X161935169Y-97397907D01*
X161977840Y-97407654D01*
X161981837Y-97408927D01*
X162005474Y-97413967D01*
X162029003Y-97419342D01*
X162033159Y-97419870D01*
X162075967Y-97428998D01*
X162079973Y-97430210D01*
X162103696Y-97434910D01*
X162127302Y-97439944D01*
X162131453Y-97440411D01*
X162174392Y-97448919D01*
X162178421Y-97450074D01*
X162202193Y-97454427D01*
X162225872Y-97459119D01*
X162230038Y-97459526D01*
X162273101Y-97467412D01*
X162277143Y-97468508D01*
X162300966Y-97472515D01*
X162324723Y-97476865D01*
X162328896Y-97477212D01*
X162372066Y-97484472D01*
X162376121Y-97485509D01*
X162399986Y-97489168D01*
X162423818Y-97493176D01*
X162427997Y-97493462D01*
X162471267Y-97500096D01*
X162475335Y-97501074D01*
X162499250Y-97504387D01*
X162523137Y-97508049D01*
X162527319Y-97508275D01*
X162570673Y-97514280D01*
X162574760Y-97515200D01*
X162598756Y-97518170D01*
X162622663Y-97521482D01*
X162626842Y-97521647D01*
X162670295Y-97527026D01*
X162674389Y-97527885D01*
X162698362Y-97530500D01*
X162722369Y-97533472D01*
X162726563Y-97533577D01*
X162770073Y-97538323D01*
X162774179Y-97539123D01*
X162798225Y-97541395D01*
X162822246Y-97544015D01*
X162826430Y-97544059D01*
X162870009Y-97548176D01*
X162874128Y-97548916D01*
X162898191Y-97550838D01*
X162922255Y-97553111D01*
X162926445Y-97553094D01*
X162970073Y-97556579D01*
X162974212Y-97557261D01*
X162998342Y-97558836D01*
X163022390Y-97560757D01*
X163026574Y-97560680D01*
X163070267Y-97563532D01*
X163074399Y-97564152D01*
X163098492Y-97565375D01*
X163122632Y-97566951D01*
X163126819Y-97566813D01*
X163170529Y-97569032D01*
X163174681Y-97569593D01*
X163198829Y-97570468D01*
X163222942Y-97571692D01*
X163227124Y-97571493D01*
X163270870Y-97573079D01*
X163275032Y-97573580D01*
X163299203Y-97574105D01*
X163323317Y-97574979D01*
X163327494Y-97574720D01*
X163371258Y-97575671D01*
X163375417Y-97576111D01*
X163399585Y-97576286D01*
X163423732Y-97576811D01*
X163427900Y-97576492D01*
X163469573Y-97576794D01*
X163471664Y-97577000D01*
X163497958Y-97577000D01*
X163524148Y-97577190D01*
X163526232Y-97577000D01*
X164782336Y-97577000D01*
X164838001Y-97571517D01*
X164838001Y-101838000D01*
X153568660Y-101838000D01*
X153577000Y-101753326D01*
X153577000Y-98433152D01*
X155821284Y-98433152D01*
X155821284Y-98566848D01*
X155847367Y-98697974D01*
X155898530Y-98821493D01*
X155972807Y-98932656D01*
X156067344Y-99027193D01*
X156178507Y-99101470D01*
X156302026Y-99152633D01*
X156433152Y-99178716D01*
X156566848Y-99178716D01*
X156697974Y-99152633D01*
X156821493Y-99101470D01*
X156932656Y-99027193D01*
X157027193Y-98932656D01*
X157101470Y-98821493D01*
X157152633Y-98697974D01*
X157178716Y-98566848D01*
X157178716Y-98433152D01*
X157152633Y-98302026D01*
X157101470Y-98178507D01*
X157027193Y-98067344D01*
X156932656Y-97972807D01*
X156821493Y-97898530D01*
X156697974Y-97847367D01*
X156566848Y-97821284D01*
X156433152Y-97821284D01*
X156302026Y-97847367D01*
X156178507Y-97898530D01*
X156067344Y-97972807D01*
X155972807Y-98067344D01*
X155898530Y-98178507D01*
X155847367Y-98302026D01*
X155821284Y-98433152D01*
X153577000Y-98433152D01*
X153577000Y-97271664D01*
X153568650Y-97186888D01*
X153561100Y-97162000D01*
X154992051Y-97162000D01*
X155000000Y-97162783D01*
X155007949Y-97162000D01*
X155031757Y-97159655D01*
X155062294Y-97150392D01*
X155090437Y-97135349D01*
X155115105Y-97115105D01*
X155135349Y-97090437D01*
X155150392Y-97062294D01*
X155159655Y-97031757D01*
X155162783Y-97000000D01*
X155162000Y-96992051D01*
X155162000Y-95570729D01*
X155225664Y-95577000D01*
G37*
X155225664Y-95577000D02*
X156498039Y-95577000D01*
X156583695Y-95577620D01*
X156667371Y-95579439D01*
X156751038Y-95582471D01*
X156834595Y-95586712D01*
X156918150Y-95592167D01*
X157001627Y-95598834D01*
X157084946Y-95606704D01*
X157168103Y-95615776D01*
X157251222Y-95626065D01*
X157334120Y-95637548D01*
X157416808Y-95650226D01*
X157499414Y-95664118D01*
X157581721Y-95679191D01*
X157663821Y-95695457D01*
X157745725Y-95712922D01*
X157827293Y-95731554D01*
X157908586Y-95751368D01*
X157989655Y-95772376D01*
X158070411Y-95794556D01*
X158150761Y-95817882D01*
X158230806Y-95842382D01*
X158310464Y-95868032D01*
X158389728Y-95894829D01*
X158468692Y-95922804D01*
X158547134Y-95951882D01*
X158625165Y-95982099D01*
X158702826Y-96013475D01*
X158779956Y-96045943D01*
X158856628Y-96079536D01*
X158932766Y-96114218D01*
X159008473Y-96150036D01*
X159085500Y-96187855D01*
X160376854Y-96833531D01*
X160378629Y-96834631D01*
X160402127Y-96846168D01*
X160425661Y-96857935D01*
X160427621Y-96858685D01*
X160465032Y-96877053D01*
X160468618Y-96879203D01*
X160490425Y-96889520D01*
X160512140Y-96900182D01*
X160516066Y-96901652D01*
X160555621Y-96920366D01*
X160559250Y-96922471D01*
X160581264Y-96932498D01*
X160603065Y-96942813D01*
X160607003Y-96944223D01*
X160646848Y-96962372D01*
X160650496Y-96964418D01*
X160672615Y-96974109D01*
X160694606Y-96984126D01*
X160698567Y-96985479D01*
X160738657Y-97003044D01*
X160742338Y-97005039D01*
X160764597Y-97014409D01*
X160786729Y-97024106D01*
X160790712Y-97025403D01*
X160831053Y-97042385D01*
X160834768Y-97044329D01*
X160857174Y-97053381D01*
X160879423Y-97062747D01*
X160883424Y-97063986D01*
X160924012Y-97080383D01*
X160927748Y-97082270D01*
X160950290Y-97090999D01*
X160972675Y-97100043D01*
X160976686Y-97101221D01*
X161017508Y-97117030D01*
X161021270Y-97118862D01*
X161043905Y-97127253D01*
X161066447Y-97135982D01*
X161070483Y-97137105D01*
X161111519Y-97152316D01*
X161115313Y-97154096D01*
X161138096Y-97162168D01*
X161160733Y-97170559D01*
X161164781Y-97171622D01*
X161206037Y-97186239D01*
X161209860Y-97187965D01*
X161232772Y-97195711D01*
X161255509Y-97203766D01*
X161259571Y-97204770D01*
X161301045Y-97218791D01*
X161304880Y-97220456D01*
X161327878Y-97227862D01*
X161350763Y-97235598D01*
X161354836Y-97236542D01*
X161396511Y-97249962D01*
X161400375Y-97251574D01*
X161423429Y-97258630D01*
X161446456Y-97266045D01*
X161450562Y-97266934D01*
X161492410Y-97279743D01*
X161496293Y-97281297D01*
X161519500Y-97288034D01*
X161542599Y-97295104D01*
X161546698Y-97295930D01*
X161588725Y-97308131D01*
X161592642Y-97309633D01*
X161615975Y-97316042D01*
X161639131Y-97322764D01*
X161643241Y-97323530D01*
X161685468Y-97335128D01*
X161689393Y-97336569D01*
X161712735Y-97342618D01*
X161736067Y-97349026D01*
X161740203Y-97349735D01*
X161782564Y-97360713D01*
X161786521Y-97362100D01*
X161810018Y-97367827D01*
X161833374Y-97373879D01*
X161837507Y-97374526D01*
X161880037Y-97384892D01*
X161884002Y-97386218D01*
X161907544Y-97391596D01*
X161931026Y-97397319D01*
X161935169Y-97397907D01*
X161977840Y-97407654D01*
X161981837Y-97408927D01*
X162005474Y-97413967D01*
X162029003Y-97419342D01*
X162033159Y-97419870D01*
X162075967Y-97428998D01*
X162079973Y-97430210D01*
X162103696Y-97434910D01*
X162127302Y-97439944D01*
X162131453Y-97440411D01*
X162174392Y-97448919D01*
X162178421Y-97450074D01*
X162202193Y-97454427D01*
X162225872Y-97459119D01*
X162230038Y-97459526D01*
X162273101Y-97467412D01*
X162277143Y-97468508D01*
X162300966Y-97472515D01*
X162324723Y-97476865D01*
X162328896Y-97477212D01*
X162372066Y-97484472D01*
X162376121Y-97485509D01*
X162399986Y-97489168D01*
X162423818Y-97493176D01*
X162427997Y-97493462D01*
X162471267Y-97500096D01*
X162475335Y-97501074D01*
X162499250Y-97504387D01*
X162523137Y-97508049D01*
X162527319Y-97508275D01*
X162570673Y-97514280D01*
X162574760Y-97515200D01*
X162598756Y-97518170D01*
X162622663Y-97521482D01*
X162626842Y-97521647D01*
X162670295Y-97527026D01*
X162674389Y-97527885D01*
X162698362Y-97530500D01*
X162722369Y-97533472D01*
X162726563Y-97533577D01*
X162770073Y-97538323D01*
X162774179Y-97539123D01*
X162798225Y-97541395D01*
X162822246Y-97544015D01*
X162826430Y-97544059D01*
X162870009Y-97548176D01*
X162874128Y-97548916D01*
X162898191Y-97550838D01*
X162922255Y-97553111D01*
X162926445Y-97553094D01*
X162970073Y-97556579D01*
X162974212Y-97557261D01*
X162998342Y-97558836D01*
X163022390Y-97560757D01*
X163026574Y-97560680D01*
X163070267Y-97563532D01*
X163074399Y-97564152D01*
X163098492Y-97565375D01*
X163122632Y-97566951D01*
X163126819Y-97566813D01*
X163170529Y-97569032D01*
X163174681Y-97569593D01*
X163198829Y-97570468D01*
X163222942Y-97571692D01*
X163227124Y-97571493D01*
X163270870Y-97573079D01*
X163275032Y-97573580D01*
X163299203Y-97574105D01*
X163323317Y-97574979D01*
X163327494Y-97574720D01*
X163371258Y-97575671D01*
X163375417Y-97576111D01*
X163399585Y-97576286D01*
X163423732Y-97576811D01*
X163427900Y-97576492D01*
X163469573Y-97576794D01*
X163471664Y-97577000D01*
X163497958Y-97577000D01*
X163524148Y-97577190D01*
X163526232Y-97577000D01*
X164782336Y-97577000D01*
X164838001Y-97571517D01*
X164838001Y-101838000D01*
X153568660Y-101838000D01*
X153577000Y-101753326D01*
X153577000Y-98433152D01*
X155821284Y-98433152D01*
X155821284Y-98566848D01*
X155847367Y-98697974D01*
X155898530Y-98821493D01*
X155972807Y-98932656D01*
X156067344Y-99027193D01*
X156178507Y-99101470D01*
X156302026Y-99152633D01*
X156433152Y-99178716D01*
X156566848Y-99178716D01*
X156697974Y-99152633D01*
X156821493Y-99101470D01*
X156932656Y-99027193D01*
X157027193Y-98932656D01*
X157101470Y-98821493D01*
X157152633Y-98697974D01*
X157178716Y-98566848D01*
X157178716Y-98433152D01*
X157152633Y-98302026D01*
X157101470Y-98178507D01*
X157027193Y-98067344D01*
X156932656Y-97972807D01*
X156821493Y-97898530D01*
X156697974Y-97847367D01*
X156566848Y-97821284D01*
X156433152Y-97821284D01*
X156302026Y-97847367D01*
X156178507Y-97898530D01*
X156067344Y-97972807D01*
X155972807Y-98067344D01*
X155898530Y-98178507D01*
X155847367Y-98302026D01*
X155821284Y-98433152D01*
X153577000Y-98433152D01*
X153577000Y-97271664D01*
X153568650Y-97186888D01*
X153561100Y-97162000D01*
X154992051Y-97162000D01*
X155000000Y-97162783D01*
X155007949Y-97162000D01*
X155031757Y-97159655D01*
X155062294Y-97150392D01*
X155090437Y-97135349D01*
X155115105Y-97115105D01*
X155135349Y-97090437D01*
X155150392Y-97062294D01*
X155159655Y-97031757D01*
X155162783Y-97000000D01*
X155162000Y-96992051D01*
X155162000Y-95570729D01*
X155225664Y-95577000D01*
G36*
X152431350Y-97186889D02*
G01*
X152423000Y-97271665D01*
X152423001Y-101753326D01*
X152431341Y-101838000D01*
X151568660Y-101838000D01*
X151577000Y-101753326D01*
X151577000Y-97271664D01*
X151568650Y-97186888D01*
X151561100Y-97162000D01*
X152438900Y-97162000D01*
X152431350Y-97186889D01*
G37*
X152431350Y-97186889D02*
X152423000Y-97271665D01*
X152423001Y-101753326D01*
X152431341Y-101838000D01*
X151568660Y-101838000D01*
X151577000Y-101753326D01*
X151577000Y-97271664D01*
X151568650Y-97186888D01*
X151561100Y-97162000D01*
X152438900Y-97162000D01*
X152431350Y-97186889D01*
G36*
X148431350Y-97186889D02*
G01*
X148423000Y-97271665D01*
X148423001Y-101753326D01*
X148431341Y-101838000D01*
X147568660Y-101838000D01*
X147577000Y-101753326D01*
X147577000Y-97271664D01*
X147568650Y-97186888D01*
X147561100Y-97162000D01*
X148438900Y-97162000D01*
X148431350Y-97186889D01*
G37*
X148431350Y-97186889D02*
X148423000Y-97271665D01*
X148423001Y-101753326D01*
X148431341Y-101838000D01*
X147568660Y-101838000D01*
X147577000Y-101753326D01*
X147577000Y-97271664D01*
X147568650Y-97186888D01*
X147561100Y-97162000D01*
X148438900Y-97162000D01*
X148431350Y-97186889D01*
G36*
X135225664Y-87577000D02*
G01*
X136498039Y-87577000D01*
X136583695Y-87577620D01*
X136667371Y-87579439D01*
X136751038Y-87582471D01*
X136834595Y-87586712D01*
X136918150Y-87592167D01*
X137001627Y-87598834D01*
X137084946Y-87606704D01*
X137168103Y-87615776D01*
X137251222Y-87626065D01*
X137334120Y-87637548D01*
X137416808Y-87650226D01*
X137499414Y-87664118D01*
X137581721Y-87679191D01*
X137663821Y-87695457D01*
X137745725Y-87712922D01*
X137827293Y-87731554D01*
X137908586Y-87751368D01*
X137989655Y-87772376D01*
X138070411Y-87794556D01*
X138150761Y-87817882D01*
X138230806Y-87842382D01*
X138310464Y-87868032D01*
X138389728Y-87894829D01*
X138468692Y-87922804D01*
X138547134Y-87951882D01*
X138625165Y-87982099D01*
X138702826Y-88013475D01*
X138779956Y-88045943D01*
X138856628Y-88079536D01*
X138932766Y-88114218D01*
X139008473Y-88150036D01*
X139085500Y-88187855D01*
X140376854Y-88833531D01*
X140378629Y-88834631D01*
X140402127Y-88846168D01*
X140425661Y-88857935D01*
X140427621Y-88858685D01*
X140465032Y-88877053D01*
X140468618Y-88879203D01*
X140490425Y-88889520D01*
X140512140Y-88900182D01*
X140516066Y-88901652D01*
X140555621Y-88920366D01*
X140559250Y-88922471D01*
X140581264Y-88932498D01*
X140603065Y-88942813D01*
X140607003Y-88944223D01*
X140646848Y-88962372D01*
X140650496Y-88964418D01*
X140672615Y-88974109D01*
X140694606Y-88984126D01*
X140698567Y-88985479D01*
X140738657Y-89003044D01*
X140742338Y-89005039D01*
X140764597Y-89014409D01*
X140786729Y-89024106D01*
X140790712Y-89025403D01*
X140831053Y-89042385D01*
X140834768Y-89044329D01*
X140857174Y-89053381D01*
X140879423Y-89062747D01*
X140883424Y-89063986D01*
X140924012Y-89080383D01*
X140927748Y-89082270D01*
X140950290Y-89090999D01*
X140972675Y-89100043D01*
X140976686Y-89101221D01*
X141017508Y-89117030D01*
X141021270Y-89118862D01*
X141043905Y-89127253D01*
X141066447Y-89135982D01*
X141070483Y-89137105D01*
X141111519Y-89152316D01*
X141115313Y-89154096D01*
X141138096Y-89162168D01*
X141160733Y-89170559D01*
X141164781Y-89171622D01*
X141206037Y-89186239D01*
X141209860Y-89187965D01*
X141232772Y-89195711D01*
X141255509Y-89203766D01*
X141259571Y-89204770D01*
X141301045Y-89218791D01*
X141304880Y-89220456D01*
X141327878Y-89227862D01*
X141350763Y-89235598D01*
X141354836Y-89236542D01*
X141396511Y-89249962D01*
X141400375Y-89251574D01*
X141423429Y-89258630D01*
X141446456Y-89266045D01*
X141450562Y-89266934D01*
X141492410Y-89279743D01*
X141496293Y-89281297D01*
X141519500Y-89288034D01*
X141542599Y-89295104D01*
X141546698Y-89295930D01*
X141588725Y-89308131D01*
X141592642Y-89309633D01*
X141615975Y-89316042D01*
X141639131Y-89322764D01*
X141643241Y-89323530D01*
X141685468Y-89335128D01*
X141689393Y-89336569D01*
X141712735Y-89342618D01*
X141736067Y-89349026D01*
X141740203Y-89349735D01*
X141782564Y-89360713D01*
X141786521Y-89362100D01*
X141810018Y-89367827D01*
X141833374Y-89373879D01*
X141837507Y-89374526D01*
X141880037Y-89384892D01*
X141884002Y-89386218D01*
X141907544Y-89391596D01*
X141931026Y-89397319D01*
X141935169Y-89397907D01*
X141977840Y-89407654D01*
X141981837Y-89408927D01*
X142005474Y-89413967D01*
X142029003Y-89419342D01*
X142033159Y-89419870D01*
X142075967Y-89428998D01*
X142079973Y-89430210D01*
X142103696Y-89434910D01*
X142127302Y-89439944D01*
X142131453Y-89440411D01*
X142174392Y-89448919D01*
X142178421Y-89450074D01*
X142202193Y-89454427D01*
X142225872Y-89459119D01*
X142230038Y-89459526D01*
X142273101Y-89467412D01*
X142277143Y-89468508D01*
X142300966Y-89472515D01*
X142324723Y-89476865D01*
X142328896Y-89477212D01*
X142372066Y-89484472D01*
X142376121Y-89485509D01*
X142399986Y-89489168D01*
X142423818Y-89493176D01*
X142427997Y-89493462D01*
X142471267Y-89500096D01*
X142475335Y-89501074D01*
X142499250Y-89504387D01*
X142523137Y-89508049D01*
X142527319Y-89508275D01*
X142570673Y-89514280D01*
X142574760Y-89515200D01*
X142598756Y-89518170D01*
X142622663Y-89521482D01*
X142626842Y-89521647D01*
X142670295Y-89527026D01*
X142674389Y-89527885D01*
X142698362Y-89530500D01*
X142722369Y-89533472D01*
X142726563Y-89533577D01*
X142770073Y-89538323D01*
X142774179Y-89539123D01*
X142798225Y-89541395D01*
X142822246Y-89544015D01*
X142826430Y-89544059D01*
X142870009Y-89548176D01*
X142874128Y-89548916D01*
X142898191Y-89550838D01*
X142922255Y-89553111D01*
X142926445Y-89553094D01*
X142970073Y-89556579D01*
X142974212Y-89557261D01*
X142998342Y-89558836D01*
X143022390Y-89560757D01*
X143026574Y-89560680D01*
X143070267Y-89563532D01*
X143074399Y-89564152D01*
X143098492Y-89565375D01*
X143122632Y-89566951D01*
X143126819Y-89566813D01*
X143170529Y-89569032D01*
X143174681Y-89569593D01*
X143198829Y-89570468D01*
X143222942Y-89571692D01*
X143227124Y-89571493D01*
X143270870Y-89573079D01*
X143275032Y-89573580D01*
X143299203Y-89574105D01*
X143323317Y-89574979D01*
X143327494Y-89574720D01*
X143371258Y-89575671D01*
X143375417Y-89576111D01*
X143399585Y-89576286D01*
X143423732Y-89576811D01*
X143427900Y-89576492D01*
X143469573Y-89576794D01*
X143471664Y-89577000D01*
X143497958Y-89577000D01*
X143524148Y-89577190D01*
X143526232Y-89577000D01*
X144782336Y-89577000D01*
X144838001Y-89571517D01*
X144838000Y-94428975D01*
X144777336Y-94423000D01*
X143526232Y-94423000D01*
X143524148Y-94422810D01*
X143497958Y-94423000D01*
X143471664Y-94423000D01*
X143469573Y-94423206D01*
X143427896Y-94423508D01*
X143423727Y-94423189D01*
X143399600Y-94423714D01*
X143375418Y-94423889D01*
X143371252Y-94424330D01*
X143327497Y-94425281D01*
X143323318Y-94425022D01*
X143299166Y-94425897D01*
X143275027Y-94426422D01*
X143270874Y-94426922D01*
X143227128Y-94428508D01*
X143222949Y-94428309D01*
X143198829Y-94429533D01*
X143174682Y-94430408D01*
X143170534Y-94430969D01*
X143126818Y-94433187D01*
X143122626Y-94433049D01*
X143098511Y-94434624D01*
X143074406Y-94435847D01*
X143070263Y-94436468D01*
X143026576Y-94439321D01*
X143022399Y-94439244D01*
X142998341Y-94441165D01*
X142974208Y-94442741D01*
X142970078Y-94443422D01*
X142926449Y-94446906D01*
X142922256Y-94446889D01*
X142898200Y-94449161D01*
X142874136Y-94451083D01*
X142870013Y-94451824D01*
X142826432Y-94455941D01*
X142822241Y-94455985D01*
X142798192Y-94458609D01*
X142774180Y-94460877D01*
X142770078Y-94461676D01*
X142726550Y-94466425D01*
X142722376Y-94466529D01*
X142698447Y-94469491D01*
X142674384Y-94472116D01*
X142670282Y-94472977D01*
X142626852Y-94478352D01*
X142622657Y-94478518D01*
X142598710Y-94481835D01*
X142574767Y-94484799D01*
X142570680Y-94485719D01*
X142527312Y-94491727D01*
X142523140Y-94491952D01*
X142499282Y-94495610D01*
X142475330Y-94498928D01*
X142471260Y-94499906D01*
X142428002Y-94506538D01*
X142423818Y-94506825D01*
X142399966Y-94510837D01*
X142376123Y-94514492D01*
X142372071Y-94515528D01*
X142328895Y-94522789D01*
X142324725Y-94523136D01*
X142300981Y-94527484D01*
X142277144Y-94531493D01*
X142273100Y-94532590D01*
X142230045Y-94540474D01*
X142225880Y-94540881D01*
X142202186Y-94545575D01*
X142178423Y-94549927D01*
X142174400Y-94551081D01*
X142131461Y-94559588D01*
X142127299Y-94560056D01*
X142103678Y-94565093D01*
X142079981Y-94569788D01*
X142075972Y-94571001D01*
X142033154Y-94580131D01*
X142029010Y-94580658D01*
X142005501Y-94586028D01*
X141981833Y-94591075D01*
X141977839Y-94592347D01*
X141935171Y-94602093D01*
X141931027Y-94602681D01*
X141907565Y-94608399D01*
X141884009Y-94613780D01*
X141880037Y-94615108D01*
X141837512Y-94625473D01*
X141833373Y-94626121D01*
X141809988Y-94632181D01*
X141786522Y-94637900D01*
X141782570Y-94639286D01*
X141740198Y-94650266D01*
X141736069Y-94650974D01*
X141712773Y-94657373D01*
X141689393Y-94663431D01*
X141685462Y-94664874D01*
X141643243Y-94676470D01*
X141639133Y-94677236D01*
X141615977Y-94683958D01*
X141592644Y-94690367D01*
X141588727Y-94691869D01*
X141546705Y-94704069D01*
X141542594Y-94704897D01*
X141519454Y-94711980D01*
X141496295Y-94718703D01*
X141492415Y-94720256D01*
X141450559Y-94733067D01*
X141446466Y-94733954D01*
X141423453Y-94741364D01*
X141400371Y-94748429D01*
X141396512Y-94750039D01*
X141354844Y-94763456D01*
X141350762Y-94764402D01*
X141327870Y-94772141D01*
X141304888Y-94779541D01*
X141301048Y-94781209D01*
X141259576Y-94795229D01*
X141255513Y-94796233D01*
X141232753Y-94804297D01*
X141209860Y-94812036D01*
X141206042Y-94813760D01*
X141164780Y-94828379D01*
X141160732Y-94829442D01*
X141138098Y-94837832D01*
X141115315Y-94845904D01*
X141111521Y-94847684D01*
X141070481Y-94862897D01*
X141066451Y-94864018D01*
X141043928Y-94872740D01*
X141021270Y-94881139D01*
X141017508Y-94882971D01*
X140976697Y-94898775D01*
X140972667Y-94899959D01*
X140950230Y-94909024D01*
X140927751Y-94917729D01*
X140924016Y-94919615D01*
X140883421Y-94936017D01*
X140879431Y-94937252D01*
X140857179Y-94946619D01*
X140834762Y-94955676D01*
X140831056Y-94957615D01*
X140790716Y-94974596D01*
X140786731Y-94975894D01*
X140764607Y-94985587D01*
X140742346Y-94994958D01*
X140738661Y-94996955D01*
X140698569Y-95014521D01*
X140694605Y-95015875D01*
X140672604Y-95025897D01*
X140650498Y-95035582D01*
X140646850Y-95037628D01*
X140607016Y-95055772D01*
X140603070Y-95057185D01*
X140581206Y-95067529D01*
X140559251Y-95077530D01*
X140555634Y-95079628D01*
X140516058Y-95098352D01*
X140512145Y-95099817D01*
X140490490Y-95110449D01*
X140468622Y-95120795D01*
X140465029Y-95122949D01*
X140427620Y-95141316D01*
X140425662Y-95142065D01*
X140402202Y-95153795D01*
X140378632Y-95165367D01*
X140376849Y-95166472D01*
X139085488Y-95812152D01*
X139008405Y-95849998D01*
X138932814Y-95885762D01*
X138856636Y-95920461D01*
X138779958Y-95954057D01*
X138702828Y-95986525D01*
X138625167Y-96017901D01*
X138547157Y-96048110D01*
X138468650Y-96077212D01*
X138389731Y-96105172D01*
X138310436Y-96131978D01*
X138230826Y-96157612D01*
X138150733Y-96182127D01*
X138070416Y-96205444D01*
X137989627Y-96227633D01*
X137908639Y-96248620D01*
X137827271Y-96268451D01*
X137745671Y-96287091D01*
X137663876Y-96304532D01*
X137581723Y-96320809D01*
X137499407Y-96335883D01*
X137416831Y-96349771D01*
X137334102Y-96362455D01*
X137251235Y-96373934D01*
X137168134Y-96384220D01*
X137084878Y-96393303D01*
X137001617Y-96401167D01*
X136918200Y-96407830D01*
X136834597Y-96413288D01*
X136751039Y-96417529D01*
X136667372Y-96420561D01*
X136583696Y-96422380D01*
X136498039Y-96423000D01*
X135350664Y-96423000D01*
X135265888Y-96431350D01*
X135162000Y-96462864D01*
X135162000Y-91884144D01*
X138823692Y-91884144D01*
X138823692Y-92115856D01*
X138868897Y-92343116D01*
X138957569Y-92557191D01*
X139086302Y-92749853D01*
X139250147Y-92913698D01*
X139442809Y-93042431D01*
X139656884Y-93131103D01*
X139884144Y-93176308D01*
X140115856Y-93176308D01*
X140343116Y-93131103D01*
X140557191Y-93042431D01*
X140749853Y-92913698D01*
X140913698Y-92749853D01*
X141042431Y-92557191D01*
X141131103Y-92343116D01*
X141176308Y-92115856D01*
X141176308Y-91884144D01*
X141131103Y-91656884D01*
X141042431Y-91442809D01*
X140913698Y-91250147D01*
X140749853Y-91086302D01*
X140557191Y-90957569D01*
X140343116Y-90868897D01*
X140115856Y-90823692D01*
X139884144Y-90823692D01*
X139656884Y-90868897D01*
X139442809Y-90957569D01*
X139250147Y-91086302D01*
X139086302Y-91250147D01*
X138957569Y-91442809D01*
X138868897Y-91656884D01*
X138823692Y-91884144D01*
X135162000Y-91884144D01*
X135162000Y-87570729D01*
X135225664Y-87577000D01*
G37*
X135225664Y-87577000D02*
X136498039Y-87577000D01*
X136583695Y-87577620D01*
X136667371Y-87579439D01*
X136751038Y-87582471D01*
X136834595Y-87586712D01*
X136918150Y-87592167D01*
X137001627Y-87598834D01*
X137084946Y-87606704D01*
X137168103Y-87615776D01*
X137251222Y-87626065D01*
X137334120Y-87637548D01*
X137416808Y-87650226D01*
X137499414Y-87664118D01*
X137581721Y-87679191D01*
X137663821Y-87695457D01*
X137745725Y-87712922D01*
X137827293Y-87731554D01*
X137908586Y-87751368D01*
X137989655Y-87772376D01*
X138070411Y-87794556D01*
X138150761Y-87817882D01*
X138230806Y-87842382D01*
X138310464Y-87868032D01*
X138389728Y-87894829D01*
X138468692Y-87922804D01*
X138547134Y-87951882D01*
X138625165Y-87982099D01*
X138702826Y-88013475D01*
X138779956Y-88045943D01*
X138856628Y-88079536D01*
X138932766Y-88114218D01*
X139008473Y-88150036D01*
X139085500Y-88187855D01*
X140376854Y-88833531D01*
X140378629Y-88834631D01*
X140402127Y-88846168D01*
X140425661Y-88857935D01*
X140427621Y-88858685D01*
X140465032Y-88877053D01*
X140468618Y-88879203D01*
X140490425Y-88889520D01*
X140512140Y-88900182D01*
X140516066Y-88901652D01*
X140555621Y-88920366D01*
X140559250Y-88922471D01*
X140581264Y-88932498D01*
X140603065Y-88942813D01*
X140607003Y-88944223D01*
X140646848Y-88962372D01*
X140650496Y-88964418D01*
X140672615Y-88974109D01*
X140694606Y-88984126D01*
X140698567Y-88985479D01*
X140738657Y-89003044D01*
X140742338Y-89005039D01*
X140764597Y-89014409D01*
X140786729Y-89024106D01*
X140790712Y-89025403D01*
X140831053Y-89042385D01*
X140834768Y-89044329D01*
X140857174Y-89053381D01*
X140879423Y-89062747D01*
X140883424Y-89063986D01*
X140924012Y-89080383D01*
X140927748Y-89082270D01*
X140950290Y-89090999D01*
X140972675Y-89100043D01*
X140976686Y-89101221D01*
X141017508Y-89117030D01*
X141021270Y-89118862D01*
X141043905Y-89127253D01*
X141066447Y-89135982D01*
X141070483Y-89137105D01*
X141111519Y-89152316D01*
X141115313Y-89154096D01*
X141138096Y-89162168D01*
X141160733Y-89170559D01*
X141164781Y-89171622D01*
X141206037Y-89186239D01*
X141209860Y-89187965D01*
X141232772Y-89195711D01*
X141255509Y-89203766D01*
X141259571Y-89204770D01*
X141301045Y-89218791D01*
X141304880Y-89220456D01*
X141327878Y-89227862D01*
X141350763Y-89235598D01*
X141354836Y-89236542D01*
X141396511Y-89249962D01*
X141400375Y-89251574D01*
X141423429Y-89258630D01*
X141446456Y-89266045D01*
X141450562Y-89266934D01*
X141492410Y-89279743D01*
X141496293Y-89281297D01*
X141519500Y-89288034D01*
X141542599Y-89295104D01*
X141546698Y-89295930D01*
X141588725Y-89308131D01*
X141592642Y-89309633D01*
X141615975Y-89316042D01*
X141639131Y-89322764D01*
X141643241Y-89323530D01*
X141685468Y-89335128D01*
X141689393Y-89336569D01*
X141712735Y-89342618D01*
X141736067Y-89349026D01*
X141740203Y-89349735D01*
X141782564Y-89360713D01*
X141786521Y-89362100D01*
X141810018Y-89367827D01*
X141833374Y-89373879D01*
X141837507Y-89374526D01*
X141880037Y-89384892D01*
X141884002Y-89386218D01*
X141907544Y-89391596D01*
X141931026Y-89397319D01*
X141935169Y-89397907D01*
X141977840Y-89407654D01*
X141981837Y-89408927D01*
X142005474Y-89413967D01*
X142029003Y-89419342D01*
X142033159Y-89419870D01*
X142075967Y-89428998D01*
X142079973Y-89430210D01*
X142103696Y-89434910D01*
X142127302Y-89439944D01*
X142131453Y-89440411D01*
X142174392Y-89448919D01*
X142178421Y-89450074D01*
X142202193Y-89454427D01*
X142225872Y-89459119D01*
X142230038Y-89459526D01*
X142273101Y-89467412D01*
X142277143Y-89468508D01*
X142300966Y-89472515D01*
X142324723Y-89476865D01*
X142328896Y-89477212D01*
X142372066Y-89484472D01*
X142376121Y-89485509D01*
X142399986Y-89489168D01*
X142423818Y-89493176D01*
X142427997Y-89493462D01*
X142471267Y-89500096D01*
X142475335Y-89501074D01*
X142499250Y-89504387D01*
X142523137Y-89508049D01*
X142527319Y-89508275D01*
X142570673Y-89514280D01*
X142574760Y-89515200D01*
X142598756Y-89518170D01*
X142622663Y-89521482D01*
X142626842Y-89521647D01*
X142670295Y-89527026D01*
X142674389Y-89527885D01*
X142698362Y-89530500D01*
X142722369Y-89533472D01*
X142726563Y-89533577D01*
X142770073Y-89538323D01*
X142774179Y-89539123D01*
X142798225Y-89541395D01*
X142822246Y-89544015D01*
X142826430Y-89544059D01*
X142870009Y-89548176D01*
X142874128Y-89548916D01*
X142898191Y-89550838D01*
X142922255Y-89553111D01*
X142926445Y-89553094D01*
X142970073Y-89556579D01*
X142974212Y-89557261D01*
X142998342Y-89558836D01*
X143022390Y-89560757D01*
X143026574Y-89560680D01*
X143070267Y-89563532D01*
X143074399Y-89564152D01*
X143098492Y-89565375D01*
X143122632Y-89566951D01*
X143126819Y-89566813D01*
X143170529Y-89569032D01*
X143174681Y-89569593D01*
X143198829Y-89570468D01*
X143222942Y-89571692D01*
X143227124Y-89571493D01*
X143270870Y-89573079D01*
X143275032Y-89573580D01*
X143299203Y-89574105D01*
X143323317Y-89574979D01*
X143327494Y-89574720D01*
X143371258Y-89575671D01*
X143375417Y-89576111D01*
X143399585Y-89576286D01*
X143423732Y-89576811D01*
X143427900Y-89576492D01*
X143469573Y-89576794D01*
X143471664Y-89577000D01*
X143497958Y-89577000D01*
X143524148Y-89577190D01*
X143526232Y-89577000D01*
X144782336Y-89577000D01*
X144838001Y-89571517D01*
X144838000Y-94428975D01*
X144777336Y-94423000D01*
X143526232Y-94423000D01*
X143524148Y-94422810D01*
X143497958Y-94423000D01*
X143471664Y-94423000D01*
X143469573Y-94423206D01*
X143427896Y-94423508D01*
X143423727Y-94423189D01*
X143399600Y-94423714D01*
X143375418Y-94423889D01*
X143371252Y-94424330D01*
X143327497Y-94425281D01*
X143323318Y-94425022D01*
X143299166Y-94425897D01*
X143275027Y-94426422D01*
X143270874Y-94426922D01*
X143227128Y-94428508D01*
X143222949Y-94428309D01*
X143198829Y-94429533D01*
X143174682Y-94430408D01*
X143170534Y-94430969D01*
X143126818Y-94433187D01*
X143122626Y-94433049D01*
X143098511Y-94434624D01*
X143074406Y-94435847D01*
X143070263Y-94436468D01*
X143026576Y-94439321D01*
X143022399Y-94439244D01*
X142998341Y-94441165D01*
X142974208Y-94442741D01*
X142970078Y-94443422D01*
X142926449Y-94446906D01*
X142922256Y-94446889D01*
X142898200Y-94449161D01*
X142874136Y-94451083D01*
X142870013Y-94451824D01*
X142826432Y-94455941D01*
X142822241Y-94455985D01*
X142798192Y-94458609D01*
X142774180Y-94460877D01*
X142770078Y-94461676D01*
X142726550Y-94466425D01*
X142722376Y-94466529D01*
X142698447Y-94469491D01*
X142674384Y-94472116D01*
X142670282Y-94472977D01*
X142626852Y-94478352D01*
X142622657Y-94478518D01*
X142598710Y-94481835D01*
X142574767Y-94484799D01*
X142570680Y-94485719D01*
X142527312Y-94491727D01*
X142523140Y-94491952D01*
X142499282Y-94495610D01*
X142475330Y-94498928D01*
X142471260Y-94499906D01*
X142428002Y-94506538D01*
X142423818Y-94506825D01*
X142399966Y-94510837D01*
X142376123Y-94514492D01*
X142372071Y-94515528D01*
X142328895Y-94522789D01*
X142324725Y-94523136D01*
X142300981Y-94527484D01*
X142277144Y-94531493D01*
X142273100Y-94532590D01*
X142230045Y-94540474D01*
X142225880Y-94540881D01*
X142202186Y-94545575D01*
X142178423Y-94549927D01*
X142174400Y-94551081D01*
X142131461Y-94559588D01*
X142127299Y-94560056D01*
X142103678Y-94565093D01*
X142079981Y-94569788D01*
X142075972Y-94571001D01*
X142033154Y-94580131D01*
X142029010Y-94580658D01*
X142005501Y-94586028D01*
X141981833Y-94591075D01*
X141977839Y-94592347D01*
X141935171Y-94602093D01*
X141931027Y-94602681D01*
X141907565Y-94608399D01*
X141884009Y-94613780D01*
X141880037Y-94615108D01*
X141837512Y-94625473D01*
X141833373Y-94626121D01*
X141809988Y-94632181D01*
X141786522Y-94637900D01*
X141782570Y-94639286D01*
X141740198Y-94650266D01*
X141736069Y-94650974D01*
X141712773Y-94657373D01*
X141689393Y-94663431D01*
X141685462Y-94664874D01*
X141643243Y-94676470D01*
X141639133Y-94677236D01*
X141615977Y-94683958D01*
X141592644Y-94690367D01*
X141588727Y-94691869D01*
X141546705Y-94704069D01*
X141542594Y-94704897D01*
X141519454Y-94711980D01*
X141496295Y-94718703D01*
X141492415Y-94720256D01*
X141450559Y-94733067D01*
X141446466Y-94733954D01*
X141423453Y-94741364D01*
X141400371Y-94748429D01*
X141396512Y-94750039D01*
X141354844Y-94763456D01*
X141350762Y-94764402D01*
X141327870Y-94772141D01*
X141304888Y-94779541D01*
X141301048Y-94781209D01*
X141259576Y-94795229D01*
X141255513Y-94796233D01*
X141232753Y-94804297D01*
X141209860Y-94812036D01*
X141206042Y-94813760D01*
X141164780Y-94828379D01*
X141160732Y-94829442D01*
X141138098Y-94837832D01*
X141115315Y-94845904D01*
X141111521Y-94847684D01*
X141070481Y-94862897D01*
X141066451Y-94864018D01*
X141043928Y-94872740D01*
X141021270Y-94881139D01*
X141017508Y-94882971D01*
X140976697Y-94898775D01*
X140972667Y-94899959D01*
X140950230Y-94909024D01*
X140927751Y-94917729D01*
X140924016Y-94919615D01*
X140883421Y-94936017D01*
X140879431Y-94937252D01*
X140857179Y-94946619D01*
X140834762Y-94955676D01*
X140831056Y-94957615D01*
X140790716Y-94974596D01*
X140786731Y-94975894D01*
X140764607Y-94985587D01*
X140742346Y-94994958D01*
X140738661Y-94996955D01*
X140698569Y-95014521D01*
X140694605Y-95015875D01*
X140672604Y-95025897D01*
X140650498Y-95035582D01*
X140646850Y-95037628D01*
X140607016Y-95055772D01*
X140603070Y-95057185D01*
X140581206Y-95067529D01*
X140559251Y-95077530D01*
X140555634Y-95079628D01*
X140516058Y-95098352D01*
X140512145Y-95099817D01*
X140490490Y-95110449D01*
X140468622Y-95120795D01*
X140465029Y-95122949D01*
X140427620Y-95141316D01*
X140425662Y-95142065D01*
X140402202Y-95153795D01*
X140378632Y-95165367D01*
X140376849Y-95166472D01*
X139085488Y-95812152D01*
X139008405Y-95849998D01*
X138932814Y-95885762D01*
X138856636Y-95920461D01*
X138779958Y-95954057D01*
X138702828Y-95986525D01*
X138625167Y-96017901D01*
X138547157Y-96048110D01*
X138468650Y-96077212D01*
X138389731Y-96105172D01*
X138310436Y-96131978D01*
X138230826Y-96157612D01*
X138150733Y-96182127D01*
X138070416Y-96205444D01*
X137989627Y-96227633D01*
X137908639Y-96248620D01*
X137827271Y-96268451D01*
X137745671Y-96287091D01*
X137663876Y-96304532D01*
X137581723Y-96320809D01*
X137499407Y-96335883D01*
X137416831Y-96349771D01*
X137334102Y-96362455D01*
X137251235Y-96373934D01*
X137168134Y-96384220D01*
X137084878Y-96393303D01*
X137001617Y-96401167D01*
X136918200Y-96407830D01*
X136834597Y-96413288D01*
X136751039Y-96417529D01*
X136667372Y-96420561D01*
X136583696Y-96422380D01*
X136498039Y-96423000D01*
X135350664Y-96423000D01*
X135265888Y-96431350D01*
X135162000Y-96462864D01*
X135162000Y-91884144D01*
X138823692Y-91884144D01*
X138823692Y-92115856D01*
X138868897Y-92343116D01*
X138957569Y-92557191D01*
X139086302Y-92749853D01*
X139250147Y-92913698D01*
X139442809Y-93042431D01*
X139656884Y-93131103D01*
X139884144Y-93176308D01*
X140115856Y-93176308D01*
X140343116Y-93131103D01*
X140557191Y-93042431D01*
X140749853Y-92913698D01*
X140913698Y-92749853D01*
X141042431Y-92557191D01*
X141131103Y-92343116D01*
X141176308Y-92115856D01*
X141176308Y-91884144D01*
X141131103Y-91656884D01*
X141042431Y-91442809D01*
X140913698Y-91250147D01*
X140749853Y-91086302D01*
X140557191Y-90957569D01*
X140343116Y-90868897D01*
X140115856Y-90823692D01*
X139884144Y-90823692D01*
X139656884Y-90868897D01*
X139442809Y-90957569D01*
X139250147Y-91086302D01*
X139086302Y-91250147D01*
X138957569Y-91442809D01*
X138868897Y-91656884D01*
X138823692Y-91884144D01*
X135162000Y-91884144D01*
X135162000Y-87570729D01*
X135225664Y-87577000D01*
G36*
X164838001Y-96428483D02*
G01*
X164782336Y-96423000D01*
X163502058Y-96423000D01*
X163416304Y-96422378D01*
X163332606Y-96420559D01*
X163248960Y-96417528D01*
X163165405Y-96413287D01*
X163081797Y-96407828D01*
X162998391Y-96401167D01*
X162915057Y-96393295D01*
X162831893Y-96384223D01*
X162748779Y-96373934D01*
X162665901Y-96362454D01*
X162583175Y-96349771D01*
X162500599Y-96335883D01*
X162418261Y-96320806D01*
X162336174Y-96304541D01*
X162254255Y-96287073D01*
X162172717Y-96268446D01*
X162091390Y-96248625D01*
X162010359Y-96227627D01*
X161929671Y-96205466D01*
X161849231Y-96182115D01*
X161769222Y-96157626D01*
X161689542Y-96131969D01*
X161610252Y-96105164D01*
X161531350Y-96077210D01*
X161452848Y-96048110D01*
X161374794Y-96017883D01*
X161297220Y-95986544D01*
X161220082Y-95954071D01*
X161143351Y-95920454D01*
X161067249Y-95885789D01*
X160991501Y-95849951D01*
X160914647Y-95812217D01*
X159623151Y-95166471D01*
X159621372Y-95165369D01*
X159597802Y-95153796D01*
X159574337Y-95142064D01*
X159572385Y-95141317D01*
X159534972Y-95122948D01*
X159531378Y-95120793D01*
X159509536Y-95110459D01*
X159487861Y-95099817D01*
X159483939Y-95098349D01*
X159444360Y-95079623D01*
X159440748Y-95077528D01*
X159418820Y-95067540D01*
X159396930Y-95057183D01*
X159392979Y-95055769D01*
X159353163Y-95037632D01*
X159349502Y-95035579D01*
X159327326Y-95025863D01*
X159305394Y-95015873D01*
X159301439Y-95014522D01*
X159261340Y-94996954D01*
X159257660Y-94994959D01*
X159235389Y-94985584D01*
X159213268Y-94975892D01*
X159209289Y-94974597D01*
X159168945Y-94957613D01*
X159165232Y-94955670D01*
X159142818Y-94946614D01*
X159120575Y-94937251D01*
X159116579Y-94936014D01*
X159075977Y-94919610D01*
X159072248Y-94917727D01*
X159049774Y-94909024D01*
X159027327Y-94899955D01*
X159023302Y-94898772D01*
X158982487Y-94882967D01*
X158978730Y-94881137D01*
X158956118Y-94872755D01*
X158933549Y-94864015D01*
X158929509Y-94862891D01*
X158888481Y-94847683D01*
X158884679Y-94845899D01*
X158861869Y-94837818D01*
X158839268Y-94829440D01*
X158835222Y-94828377D01*
X158793954Y-94813757D01*
X158790145Y-94812037D01*
X158767265Y-94804302D01*
X158744481Y-94796230D01*
X158740420Y-94795226D01*
X158698957Y-94781209D01*
X158695112Y-94779539D01*
X158672118Y-94772135D01*
X158649244Y-94764402D01*
X158645163Y-94763456D01*
X158603494Y-94750039D01*
X158599628Y-94748426D01*
X158576513Y-94741351D01*
X158553534Y-94733952D01*
X158549445Y-94733066D01*
X158507581Y-94720253D01*
X158503699Y-94718699D01*
X158480531Y-94711973D01*
X158457405Y-94704895D01*
X158453297Y-94704067D01*
X158411266Y-94691866D01*
X158407356Y-94690366D01*
X158384058Y-94683967D01*
X158360861Y-94677233D01*
X158356745Y-94676466D01*
X158314543Y-94664875D01*
X158310607Y-94663430D01*
X158287188Y-94657361D01*
X158263932Y-94650974D01*
X158259812Y-94650267D01*
X158217431Y-94639285D01*
X158213484Y-94637901D01*
X158190028Y-94632184D01*
X158166627Y-94626120D01*
X158162489Y-94625472D01*
X158119967Y-94615108D01*
X158115991Y-94613778D01*
X158092431Y-94608396D01*
X158068978Y-94602680D01*
X158064832Y-94602092D01*
X158022157Y-94592344D01*
X158018166Y-94591073D01*
X157994511Y-94586029D01*
X157970990Y-94580656D01*
X157966845Y-94580129D01*
X157924029Y-94570999D01*
X157920019Y-94569786D01*
X157896319Y-94565090D01*
X157872701Y-94560054D01*
X157868539Y-94559586D01*
X157825600Y-94551079D01*
X157821577Y-94549925D01*
X157797816Y-94545574D01*
X157774120Y-94540879D01*
X157769955Y-94540472D01*
X157726901Y-94532588D01*
X157722856Y-94531491D01*
X157699011Y-94527481D01*
X157675274Y-94523134D01*
X157671105Y-94522787D01*
X157627930Y-94515526D01*
X157623877Y-94514490D01*
X157600027Y-94510833D01*
X157576181Y-94506823D01*
X157571999Y-94506536D01*
X157528736Y-94499904D01*
X157524664Y-94498925D01*
X157500721Y-94495608D01*
X157476859Y-94491950D01*
X157472682Y-94491724D01*
X157429324Y-94485718D01*
X157425238Y-94484799D01*
X157401251Y-94481830D01*
X157377336Y-94478517D01*
X157373156Y-94478352D01*
X157329705Y-94472973D01*
X157325610Y-94472114D01*
X157301630Y-94469498D01*
X157277629Y-94466527D01*
X157273435Y-94466422D01*
X157229926Y-94461676D01*
X157225820Y-94460876D01*
X157201769Y-94458604D01*
X157177752Y-94455984D01*
X157173569Y-94455940D01*
X157129999Y-94451824D01*
X157125870Y-94451082D01*
X157101752Y-94449156D01*
X157077743Y-94446888D01*
X157073561Y-94446905D01*
X157029913Y-94443419D01*
X157025787Y-94442739D01*
X157001711Y-94441167D01*
X156977606Y-94439242D01*
X156973416Y-94439319D01*
X156929736Y-94436467D01*
X156925600Y-94435847D01*
X156901496Y-94434624D01*
X156877367Y-94433048D01*
X156873179Y-94433186D01*
X156829471Y-94430968D01*
X156825318Y-94430406D01*
X156801167Y-94429531D01*
X156777056Y-94428307D01*
X156772874Y-94428506D01*
X156729126Y-94426920D01*
X156724973Y-94426420D01*
X156700834Y-94425895D01*
X156676682Y-94425020D01*
X156672503Y-94425279D01*
X156628733Y-94424328D01*
X156624569Y-94423887D01*
X156600440Y-94423712D01*
X156576273Y-94423187D01*
X156572090Y-94423507D01*
X156530427Y-94423206D01*
X156528336Y-94423000D01*
X156501964Y-94423000D01*
X156475839Y-94422811D01*
X156473766Y-94423000D01*
X155225664Y-94423000D01*
X155162000Y-94429271D01*
X155162000Y-91884144D01*
X158823692Y-91884144D01*
X158823692Y-92115856D01*
X158868897Y-92343116D01*
X158957569Y-92557191D01*
X159086302Y-92749853D01*
X159250147Y-92913698D01*
X159442809Y-93042431D01*
X159656884Y-93131103D01*
X159884144Y-93176308D01*
X160115856Y-93176308D01*
X160343116Y-93131103D01*
X160557191Y-93042431D01*
X160749853Y-92913698D01*
X160913698Y-92749853D01*
X161042431Y-92557191D01*
X161131103Y-92343116D01*
X161176308Y-92115856D01*
X161176308Y-91884144D01*
X161131103Y-91656884D01*
X161042431Y-91442809D01*
X160913698Y-91250147D01*
X160749853Y-91086302D01*
X160557191Y-90957569D01*
X160343116Y-90868897D01*
X160115856Y-90823692D01*
X159884144Y-90823692D01*
X159656884Y-90868897D01*
X159442809Y-90957569D01*
X159250147Y-91086302D01*
X159086302Y-91250147D01*
X158957569Y-91442809D01*
X158868897Y-91656884D01*
X158823692Y-91884144D01*
X155162000Y-91884144D01*
X155162000Y-89571025D01*
X155222664Y-89577000D01*
X156473768Y-89577000D01*
X156475852Y-89577190D01*
X156502042Y-89577000D01*
X156528336Y-89577000D01*
X156530427Y-89576794D01*
X156572104Y-89576492D01*
X156576273Y-89576811D01*
X156600400Y-89576286D01*
X156624582Y-89576111D01*
X156628748Y-89575670D01*
X156672503Y-89574719D01*
X156676682Y-89574978D01*
X156700834Y-89574103D01*
X156724973Y-89573578D01*
X156729126Y-89573078D01*
X156772871Y-89571492D01*
X156777050Y-89571691D01*
X156801168Y-89570467D01*
X156825318Y-89569592D01*
X156829466Y-89569031D01*
X156873181Y-89566813D01*
X156877373Y-89566951D01*
X156901487Y-89565376D01*
X156925594Y-89564153D01*
X156929737Y-89563532D01*
X156973424Y-89560679D01*
X156977600Y-89560756D01*
X157001652Y-89558835D01*
X157025793Y-89557259D01*
X157029925Y-89556578D01*
X157073551Y-89553094D01*
X157077743Y-89553111D01*
X157101796Y-89550839D01*
X157125864Y-89548917D01*
X157129988Y-89548176D01*
X157173568Y-89544059D01*
X157177758Y-89544015D01*
X157201802Y-89541392D01*
X157225820Y-89539123D01*
X157229923Y-89538324D01*
X157273450Y-89533575D01*
X157277623Y-89533471D01*
X157301546Y-89530510D01*
X157325616Y-89527884D01*
X157329719Y-89527023D01*
X157373147Y-89521648D01*
X157377342Y-89521482D01*
X157401290Y-89518164D01*
X157425232Y-89515201D01*
X157429319Y-89514281D01*
X157472688Y-89508273D01*
X157476859Y-89508048D01*
X157500711Y-89504391D01*
X157524670Y-89501072D01*
X157528741Y-89500094D01*
X157571999Y-89493462D01*
X157576181Y-89493175D01*
X157600027Y-89489165D01*
X157623877Y-89485508D01*
X157627930Y-89484472D01*
X157671105Y-89477211D01*
X157675274Y-89476864D01*
X157699011Y-89472517D01*
X157722856Y-89468507D01*
X157726901Y-89467410D01*
X157769955Y-89459526D01*
X157774120Y-89459119D01*
X157797816Y-89454424D01*
X157821577Y-89450073D01*
X157825600Y-89448919D01*
X157868539Y-89440412D01*
X157872701Y-89439944D01*
X157896319Y-89434908D01*
X157920019Y-89430212D01*
X157924029Y-89428999D01*
X157966845Y-89419869D01*
X157970990Y-89419342D01*
X157994511Y-89413969D01*
X158018166Y-89408925D01*
X158022157Y-89407654D01*
X158064831Y-89397906D01*
X158068972Y-89397319D01*
X158092419Y-89391604D01*
X158115991Y-89386220D01*
X158119965Y-89384891D01*
X158162486Y-89374528D01*
X158166627Y-89373879D01*
X158190028Y-89367815D01*
X158213477Y-89362100D01*
X158217426Y-89360715D01*
X158259812Y-89349732D01*
X158263932Y-89349025D01*
X158287188Y-89342638D01*
X158310607Y-89336569D01*
X158314543Y-89335124D01*
X158356754Y-89323531D01*
X158360867Y-89322764D01*
X158384041Y-89316036D01*
X158407356Y-89309633D01*
X158411269Y-89308132D01*
X158453305Y-89295929D01*
X158457405Y-89295103D01*
X158480484Y-89288039D01*
X158503705Y-89281298D01*
X158507594Y-89279741D01*
X158549445Y-89266932D01*
X158553534Y-89266046D01*
X158576513Y-89258647D01*
X158599628Y-89251572D01*
X158603494Y-89249959D01*
X158645156Y-89236544D01*
X158649238Y-89235598D01*
X158672130Y-89227859D01*
X158695112Y-89220459D01*
X158698952Y-89218791D01*
X158740424Y-89204771D01*
X158744487Y-89203767D01*
X158767244Y-89195704D01*
X158790140Y-89187964D01*
X158793959Y-89186239D01*
X158835217Y-89171622D01*
X158839268Y-89170558D01*
X158861920Y-89162161D01*
X158884684Y-89154096D01*
X158888475Y-89152318D01*
X158929509Y-89137107D01*
X158933549Y-89135983D01*
X158956118Y-89127243D01*
X158978730Y-89118861D01*
X158982487Y-89117031D01*
X159023307Y-89101224D01*
X159027332Y-89100041D01*
X159049765Y-89090978D01*
X159072248Y-89082271D01*
X159075980Y-89080386D01*
X159116578Y-89063984D01*
X159120570Y-89062748D01*
X159142810Y-89053386D01*
X159165237Y-89044325D01*
X159168947Y-89042383D01*
X159209285Y-89025403D01*
X159213268Y-89024106D01*
X159235405Y-89014407D01*
X159257655Y-89005041D01*
X159261334Y-89003047D01*
X159301439Y-88985476D01*
X159305394Y-88984125D01*
X159327326Y-88974135D01*
X159349502Y-88964419D01*
X159353163Y-88962366D01*
X159392979Y-88944229D01*
X159396930Y-88942815D01*
X159418820Y-88932458D01*
X159440748Y-88922470D01*
X159444360Y-88920375D01*
X159483942Y-88901648D01*
X159487855Y-88900183D01*
X159509510Y-88889551D01*
X159531378Y-88879205D01*
X159534971Y-88877051D01*
X159572384Y-88858682D01*
X159574337Y-88857935D01*
X159597746Y-88846231D01*
X159621368Y-88834633D01*
X159623155Y-88833526D01*
X160914631Y-88187790D01*
X160991517Y-88150040D01*
X161067249Y-88114209D01*
X161143351Y-88079544D01*
X161220082Y-88045927D01*
X161297172Y-88013475D01*
X161374791Y-87982116D01*
X161452838Y-87951891D01*
X161531350Y-87922788D01*
X161610252Y-87894834D01*
X161689569Y-87868020D01*
X161769180Y-87842386D01*
X161849283Y-87817868D01*
X161929671Y-87794532D01*
X162010359Y-87772371D01*
X162091390Y-87751373D01*
X162172713Y-87731553D01*
X162254263Y-87712925D01*
X162336190Y-87695454D01*
X162418286Y-87679189D01*
X162500599Y-87664116D01*
X162583175Y-87650228D01*
X162665901Y-87637545D01*
X162748779Y-87626065D01*
X162831863Y-87615780D01*
X162915125Y-87606696D01*
X162998391Y-87598832D01*
X163081797Y-87592171D01*
X163165405Y-87586712D01*
X163248960Y-87582471D01*
X163332628Y-87579439D01*
X163416305Y-87577620D01*
X163501960Y-87577000D01*
X164649336Y-87577000D01*
X164734112Y-87568650D01*
X164838000Y-87537136D01*
X164838001Y-96428483D01*
G37*
X164838001Y-96428483D02*
X164782336Y-96423000D01*
X163502058Y-96423000D01*
X163416304Y-96422378D01*
X163332606Y-96420559D01*
X163248960Y-96417528D01*
X163165405Y-96413287D01*
X163081797Y-96407828D01*
X162998391Y-96401167D01*
X162915057Y-96393295D01*
X162831893Y-96384223D01*
X162748779Y-96373934D01*
X162665901Y-96362454D01*
X162583175Y-96349771D01*
X162500599Y-96335883D01*
X162418261Y-96320806D01*
X162336174Y-96304541D01*
X162254255Y-96287073D01*
X162172717Y-96268446D01*
X162091390Y-96248625D01*
X162010359Y-96227627D01*
X161929671Y-96205466D01*
X161849231Y-96182115D01*
X161769222Y-96157626D01*
X161689542Y-96131969D01*
X161610252Y-96105164D01*
X161531350Y-96077210D01*
X161452848Y-96048110D01*
X161374794Y-96017883D01*
X161297220Y-95986544D01*
X161220082Y-95954071D01*
X161143351Y-95920454D01*
X161067249Y-95885789D01*
X160991501Y-95849951D01*
X160914647Y-95812217D01*
X159623151Y-95166471D01*
X159621372Y-95165369D01*
X159597802Y-95153796D01*
X159574337Y-95142064D01*
X159572385Y-95141317D01*
X159534972Y-95122948D01*
X159531378Y-95120793D01*
X159509536Y-95110459D01*
X159487861Y-95099817D01*
X159483939Y-95098349D01*
X159444360Y-95079623D01*
X159440748Y-95077528D01*
X159418820Y-95067540D01*
X159396930Y-95057183D01*
X159392979Y-95055769D01*
X159353163Y-95037632D01*
X159349502Y-95035579D01*
X159327326Y-95025863D01*
X159305394Y-95015873D01*
X159301439Y-95014522D01*
X159261340Y-94996954D01*
X159257660Y-94994959D01*
X159235389Y-94985584D01*
X159213268Y-94975892D01*
X159209289Y-94974597D01*
X159168945Y-94957613D01*
X159165232Y-94955670D01*
X159142818Y-94946614D01*
X159120575Y-94937251D01*
X159116579Y-94936014D01*
X159075977Y-94919610D01*
X159072248Y-94917727D01*
X159049774Y-94909024D01*
X159027327Y-94899955D01*
X159023302Y-94898772D01*
X158982487Y-94882967D01*
X158978730Y-94881137D01*
X158956118Y-94872755D01*
X158933549Y-94864015D01*
X158929509Y-94862891D01*
X158888481Y-94847683D01*
X158884679Y-94845899D01*
X158861869Y-94837818D01*
X158839268Y-94829440D01*
X158835222Y-94828377D01*
X158793954Y-94813757D01*
X158790145Y-94812037D01*
X158767265Y-94804302D01*
X158744481Y-94796230D01*
X158740420Y-94795226D01*
X158698957Y-94781209D01*
X158695112Y-94779539D01*
X158672118Y-94772135D01*
X158649244Y-94764402D01*
X158645163Y-94763456D01*
X158603494Y-94750039D01*
X158599628Y-94748426D01*
X158576513Y-94741351D01*
X158553534Y-94733952D01*
X158549445Y-94733066D01*
X158507581Y-94720253D01*
X158503699Y-94718699D01*
X158480531Y-94711973D01*
X158457405Y-94704895D01*
X158453297Y-94704067D01*
X158411266Y-94691866D01*
X158407356Y-94690366D01*
X158384058Y-94683967D01*
X158360861Y-94677233D01*
X158356745Y-94676466D01*
X158314543Y-94664875D01*
X158310607Y-94663430D01*
X158287188Y-94657361D01*
X158263932Y-94650974D01*
X158259812Y-94650267D01*
X158217431Y-94639285D01*
X158213484Y-94637901D01*
X158190028Y-94632184D01*
X158166627Y-94626120D01*
X158162489Y-94625472D01*
X158119967Y-94615108D01*
X158115991Y-94613778D01*
X158092431Y-94608396D01*
X158068978Y-94602680D01*
X158064832Y-94602092D01*
X158022157Y-94592344D01*
X158018166Y-94591073D01*
X157994511Y-94586029D01*
X157970990Y-94580656D01*
X157966845Y-94580129D01*
X157924029Y-94570999D01*
X157920019Y-94569786D01*
X157896319Y-94565090D01*
X157872701Y-94560054D01*
X157868539Y-94559586D01*
X157825600Y-94551079D01*
X157821577Y-94549925D01*
X157797816Y-94545574D01*
X157774120Y-94540879D01*
X157769955Y-94540472D01*
X157726901Y-94532588D01*
X157722856Y-94531491D01*
X157699011Y-94527481D01*
X157675274Y-94523134D01*
X157671105Y-94522787D01*
X157627930Y-94515526D01*
X157623877Y-94514490D01*
X157600027Y-94510833D01*
X157576181Y-94506823D01*
X157571999Y-94506536D01*
X157528736Y-94499904D01*
X157524664Y-94498925D01*
X157500721Y-94495608D01*
X157476859Y-94491950D01*
X157472682Y-94491724D01*
X157429324Y-94485718D01*
X157425238Y-94484799D01*
X157401251Y-94481830D01*
X157377336Y-94478517D01*
X157373156Y-94478352D01*
X157329705Y-94472973D01*
X157325610Y-94472114D01*
X157301630Y-94469498D01*
X157277629Y-94466527D01*
X157273435Y-94466422D01*
X157229926Y-94461676D01*
X157225820Y-94460876D01*
X157201769Y-94458604D01*
X157177752Y-94455984D01*
X157173569Y-94455940D01*
X157129999Y-94451824D01*
X157125870Y-94451082D01*
X157101752Y-94449156D01*
X157077743Y-94446888D01*
X157073561Y-94446905D01*
X157029913Y-94443419D01*
X157025787Y-94442739D01*
X157001711Y-94441167D01*
X156977606Y-94439242D01*
X156973416Y-94439319D01*
X156929736Y-94436467D01*
X156925600Y-94435847D01*
X156901496Y-94434624D01*
X156877367Y-94433048D01*
X156873179Y-94433186D01*
X156829471Y-94430968D01*
X156825318Y-94430406D01*
X156801167Y-94429531D01*
X156777056Y-94428307D01*
X156772874Y-94428506D01*
X156729126Y-94426920D01*
X156724973Y-94426420D01*
X156700834Y-94425895D01*
X156676682Y-94425020D01*
X156672503Y-94425279D01*
X156628733Y-94424328D01*
X156624569Y-94423887D01*
X156600440Y-94423712D01*
X156576273Y-94423187D01*
X156572090Y-94423507D01*
X156530427Y-94423206D01*
X156528336Y-94423000D01*
X156501964Y-94423000D01*
X156475839Y-94422811D01*
X156473766Y-94423000D01*
X155225664Y-94423000D01*
X155162000Y-94429271D01*
X155162000Y-91884144D01*
X158823692Y-91884144D01*
X158823692Y-92115856D01*
X158868897Y-92343116D01*
X158957569Y-92557191D01*
X159086302Y-92749853D01*
X159250147Y-92913698D01*
X159442809Y-93042431D01*
X159656884Y-93131103D01*
X159884144Y-93176308D01*
X160115856Y-93176308D01*
X160343116Y-93131103D01*
X160557191Y-93042431D01*
X160749853Y-92913698D01*
X160913698Y-92749853D01*
X161042431Y-92557191D01*
X161131103Y-92343116D01*
X161176308Y-92115856D01*
X161176308Y-91884144D01*
X161131103Y-91656884D01*
X161042431Y-91442809D01*
X160913698Y-91250147D01*
X160749853Y-91086302D01*
X160557191Y-90957569D01*
X160343116Y-90868897D01*
X160115856Y-90823692D01*
X159884144Y-90823692D01*
X159656884Y-90868897D01*
X159442809Y-90957569D01*
X159250147Y-91086302D01*
X159086302Y-91250147D01*
X158957569Y-91442809D01*
X158868897Y-91656884D01*
X158823692Y-91884144D01*
X155162000Y-91884144D01*
X155162000Y-89571025D01*
X155222664Y-89577000D01*
X156473768Y-89577000D01*
X156475852Y-89577190D01*
X156502042Y-89577000D01*
X156528336Y-89577000D01*
X156530427Y-89576794D01*
X156572104Y-89576492D01*
X156576273Y-89576811D01*
X156600400Y-89576286D01*
X156624582Y-89576111D01*
X156628748Y-89575670D01*
X156672503Y-89574719D01*
X156676682Y-89574978D01*
X156700834Y-89574103D01*
X156724973Y-89573578D01*
X156729126Y-89573078D01*
X156772871Y-89571492D01*
X156777050Y-89571691D01*
X156801168Y-89570467D01*
X156825318Y-89569592D01*
X156829466Y-89569031D01*
X156873181Y-89566813D01*
X156877373Y-89566951D01*
X156901487Y-89565376D01*
X156925594Y-89564153D01*
X156929737Y-89563532D01*
X156973424Y-89560679D01*
X156977600Y-89560756D01*
X157001652Y-89558835D01*
X157025793Y-89557259D01*
X157029925Y-89556578D01*
X157073551Y-89553094D01*
X157077743Y-89553111D01*
X157101796Y-89550839D01*
X157125864Y-89548917D01*
X157129988Y-89548176D01*
X157173568Y-89544059D01*
X157177758Y-89544015D01*
X157201802Y-89541392D01*
X157225820Y-89539123D01*
X157229923Y-89538324D01*
X157273450Y-89533575D01*
X157277623Y-89533471D01*
X157301546Y-89530510D01*
X157325616Y-89527884D01*
X157329719Y-89527023D01*
X157373147Y-89521648D01*
X157377342Y-89521482D01*
X157401290Y-89518164D01*
X157425232Y-89515201D01*
X157429319Y-89514281D01*
X157472688Y-89508273D01*
X157476859Y-89508048D01*
X157500711Y-89504391D01*
X157524670Y-89501072D01*
X157528741Y-89500094D01*
X157571999Y-89493462D01*
X157576181Y-89493175D01*
X157600027Y-89489165D01*
X157623877Y-89485508D01*
X157627930Y-89484472D01*
X157671105Y-89477211D01*
X157675274Y-89476864D01*
X157699011Y-89472517D01*
X157722856Y-89468507D01*
X157726901Y-89467410D01*
X157769955Y-89459526D01*
X157774120Y-89459119D01*
X157797816Y-89454424D01*
X157821577Y-89450073D01*
X157825600Y-89448919D01*
X157868539Y-89440412D01*
X157872701Y-89439944D01*
X157896319Y-89434908D01*
X157920019Y-89430212D01*
X157924029Y-89428999D01*
X157966845Y-89419869D01*
X157970990Y-89419342D01*
X157994511Y-89413969D01*
X158018166Y-89408925D01*
X158022157Y-89407654D01*
X158064831Y-89397906D01*
X158068972Y-89397319D01*
X158092419Y-89391604D01*
X158115991Y-89386220D01*
X158119965Y-89384891D01*
X158162486Y-89374528D01*
X158166627Y-89373879D01*
X158190028Y-89367815D01*
X158213477Y-89362100D01*
X158217426Y-89360715D01*
X158259812Y-89349732D01*
X158263932Y-89349025D01*
X158287188Y-89342638D01*
X158310607Y-89336569D01*
X158314543Y-89335124D01*
X158356754Y-89323531D01*
X158360867Y-89322764D01*
X158384041Y-89316036D01*
X158407356Y-89309633D01*
X158411269Y-89308132D01*
X158453305Y-89295929D01*
X158457405Y-89295103D01*
X158480484Y-89288039D01*
X158503705Y-89281298D01*
X158507594Y-89279741D01*
X158549445Y-89266932D01*
X158553534Y-89266046D01*
X158576513Y-89258647D01*
X158599628Y-89251572D01*
X158603494Y-89249959D01*
X158645156Y-89236544D01*
X158649238Y-89235598D01*
X158672130Y-89227859D01*
X158695112Y-89220459D01*
X158698952Y-89218791D01*
X158740424Y-89204771D01*
X158744487Y-89203767D01*
X158767244Y-89195704D01*
X158790140Y-89187964D01*
X158793959Y-89186239D01*
X158835217Y-89171622D01*
X158839268Y-89170558D01*
X158861920Y-89162161D01*
X158884684Y-89154096D01*
X158888475Y-89152318D01*
X158929509Y-89137107D01*
X158933549Y-89135983D01*
X158956118Y-89127243D01*
X158978730Y-89118861D01*
X158982487Y-89117031D01*
X159023307Y-89101224D01*
X159027332Y-89100041D01*
X159049765Y-89090978D01*
X159072248Y-89082271D01*
X159075980Y-89080386D01*
X159116578Y-89063984D01*
X159120570Y-89062748D01*
X159142810Y-89053386D01*
X159165237Y-89044325D01*
X159168947Y-89042383D01*
X159209285Y-89025403D01*
X159213268Y-89024106D01*
X159235405Y-89014407D01*
X159257655Y-89005041D01*
X159261334Y-89003047D01*
X159301439Y-88985476D01*
X159305394Y-88984125D01*
X159327326Y-88974135D01*
X159349502Y-88964419D01*
X159353163Y-88962366D01*
X159392979Y-88944229D01*
X159396930Y-88942815D01*
X159418820Y-88932458D01*
X159440748Y-88922470D01*
X159444360Y-88920375D01*
X159483942Y-88901648D01*
X159487855Y-88900183D01*
X159509510Y-88889551D01*
X159531378Y-88879205D01*
X159534971Y-88877051D01*
X159572384Y-88858682D01*
X159574337Y-88857935D01*
X159597746Y-88846231D01*
X159621368Y-88834633D01*
X159623155Y-88833526D01*
X160914631Y-88187790D01*
X160991517Y-88150040D01*
X161067249Y-88114209D01*
X161143351Y-88079544D01*
X161220082Y-88045927D01*
X161297172Y-88013475D01*
X161374791Y-87982116D01*
X161452838Y-87951891D01*
X161531350Y-87922788D01*
X161610252Y-87894834D01*
X161689569Y-87868020D01*
X161769180Y-87842386D01*
X161849283Y-87817868D01*
X161929671Y-87794532D01*
X162010359Y-87772371D01*
X162091390Y-87751373D01*
X162172713Y-87731553D01*
X162254263Y-87712925D01*
X162336190Y-87695454D01*
X162418286Y-87679189D01*
X162500599Y-87664116D01*
X162583175Y-87650228D01*
X162665901Y-87637545D01*
X162748779Y-87626065D01*
X162831863Y-87615780D01*
X162915125Y-87606696D01*
X162998391Y-87598832D01*
X163081797Y-87592171D01*
X163165405Y-87586712D01*
X163248960Y-87582471D01*
X163332628Y-87579439D01*
X163416305Y-87577620D01*
X163501960Y-87577000D01*
X164649336Y-87577000D01*
X164734112Y-87568650D01*
X164838000Y-87537136D01*
X164838001Y-96428483D01*
G36*
X164838000Y-86462864D02*
G01*
X164734112Y-86431350D01*
X164649336Y-86423000D01*
X163526233Y-86423000D01*
X163524160Y-86422811D01*
X163498035Y-86423000D01*
X163471664Y-86423000D01*
X163469573Y-86423206D01*
X163427909Y-86423507D01*
X163423726Y-86423187D01*
X163399559Y-86423712D01*
X163375429Y-86423887D01*
X163371265Y-86424328D01*
X163327496Y-86425279D01*
X163323317Y-86425020D01*
X163299165Y-86425895D01*
X163275026Y-86426420D01*
X163270873Y-86426920D01*
X163227124Y-86428506D01*
X163222942Y-86428307D01*
X163198829Y-86429531D01*
X163174681Y-86430406D01*
X163170529Y-86430967D01*
X163126819Y-86433186D01*
X163122632Y-86433048D01*
X163098492Y-86434624D01*
X163074399Y-86435847D01*
X163070267Y-86436467D01*
X163026574Y-86439319D01*
X163022390Y-86439242D01*
X162998342Y-86441163D01*
X162974212Y-86442738D01*
X162970073Y-86443420D01*
X162926444Y-86446905D01*
X162922261Y-86446888D01*
X162898208Y-86449160D01*
X162874128Y-86451083D01*
X162870011Y-86451823D01*
X162826434Y-86455939D01*
X162822240Y-86455983D01*
X162798199Y-86458606D01*
X162774185Y-86460874D01*
X162770078Y-86461674D01*
X162726552Y-86466422D01*
X162722369Y-86466527D01*
X162698418Y-86469492D01*
X162674383Y-86472114D01*
X162670282Y-86472975D01*
X162626842Y-86478352D01*
X162622663Y-86478517D01*
X162598756Y-86481829D01*
X162574760Y-86484799D01*
X162570673Y-86485719D01*
X162527319Y-86491724D01*
X162523137Y-86491950D01*
X162499250Y-86495612D01*
X162475335Y-86498925D01*
X162471267Y-86499903D01*
X162427997Y-86506537D01*
X162423818Y-86506823D01*
X162399986Y-86510831D01*
X162376121Y-86514490D01*
X162372066Y-86515527D01*
X162328896Y-86522787D01*
X162324723Y-86523134D01*
X162300966Y-86527484D01*
X162277143Y-86531491D01*
X162273101Y-86532587D01*
X162230043Y-86540472D01*
X162225878Y-86540879D01*
X162202184Y-86545573D01*
X162178421Y-86549925D01*
X162174398Y-86551079D01*
X162131449Y-86559588D01*
X162127296Y-86560055D01*
X162103731Y-86565080D01*
X162079979Y-86569786D01*
X162075960Y-86571002D01*
X162033161Y-86580128D01*
X162029009Y-86580656D01*
X162005451Y-86586037D01*
X161981831Y-86591074D01*
X161977845Y-86592343D01*
X161935170Y-86602091D01*
X161931026Y-86602679D01*
X161907564Y-86608397D01*
X161884008Y-86613778D01*
X161880036Y-86615106D01*
X161837507Y-86625472D01*
X161833374Y-86626119D01*
X161810018Y-86632171D01*
X161786521Y-86637898D01*
X161782564Y-86639285D01*
X161740203Y-86650263D01*
X161736067Y-86650972D01*
X161712735Y-86657380D01*
X161689393Y-86663429D01*
X161685468Y-86664870D01*
X161643241Y-86676468D01*
X161639131Y-86677234D01*
X161615975Y-86683956D01*
X161592642Y-86690365D01*
X161588725Y-86691867D01*
X161546703Y-86704067D01*
X161542592Y-86704895D01*
X161519452Y-86711978D01*
X161496293Y-86718701D01*
X161492413Y-86720254D01*
X161450551Y-86733067D01*
X161446462Y-86733953D01*
X161423477Y-86741354D01*
X161400369Y-86748427D01*
X161396505Y-86750039D01*
X161354840Y-86763455D01*
X161350763Y-86764400D01*
X161327879Y-86772136D01*
X161304885Y-86779540D01*
X161301046Y-86781207D01*
X161259571Y-86795228D01*
X161255509Y-86796232D01*
X161232772Y-86804287D01*
X161209860Y-86812033D01*
X161206037Y-86813759D01*
X161164781Y-86828376D01*
X161160733Y-86829439D01*
X161138096Y-86837830D01*
X161115313Y-86845902D01*
X161111519Y-86847682D01*
X161070478Y-86862895D01*
X161066449Y-86864016D01*
X161043938Y-86872733D01*
X161021270Y-86881136D01*
X161017505Y-86882969D01*
X160976697Y-86898772D01*
X160972671Y-86899955D01*
X160950234Y-86909020D01*
X160927749Y-86917727D01*
X160924016Y-86919612D01*
X160883419Y-86936014D01*
X160879423Y-86937251D01*
X160857180Y-86946614D01*
X160834766Y-86955670D01*
X160831053Y-86957613D01*
X160790712Y-86974595D01*
X160786729Y-86975892D01*
X160764597Y-86985589D01*
X160742338Y-86994959D01*
X160738657Y-86996954D01*
X160698567Y-87014519D01*
X160694606Y-87015872D01*
X160672615Y-87025889D01*
X160650496Y-87035580D01*
X160646848Y-87037626D01*
X160607003Y-87055775D01*
X160603065Y-87057185D01*
X160581264Y-87067500D01*
X160559250Y-87077527D01*
X160555621Y-87079632D01*
X160516066Y-87098346D01*
X160512135Y-87099818D01*
X160490408Y-87110486D01*
X160468618Y-87120795D01*
X160465033Y-87122944D01*
X160427614Y-87141317D01*
X160425661Y-87142064D01*
X160402197Y-87153796D01*
X160378624Y-87165370D01*
X160376845Y-87166472D01*
X159085452Y-87812168D01*
X159008473Y-87849962D01*
X158932766Y-87885780D01*
X158856628Y-87920462D01*
X158779950Y-87954057D01*
X158702823Y-87986524D01*
X158625173Y-88017896D01*
X158547134Y-88048116D01*
X158468673Y-88077201D01*
X158389771Y-88105155D01*
X158310463Y-88131967D01*
X158230806Y-88157616D01*
X158150731Y-88182125D01*
X158070414Y-88205442D01*
X157989655Y-88227623D01*
X157908601Y-88248627D01*
X157827270Y-88268449D01*
X157745725Y-88287076D01*
X157663825Y-88304540D01*
X157581721Y-88320807D01*
X157499414Y-88335880D01*
X157416808Y-88349772D01*
X157334147Y-88362446D01*
X157251184Y-88373939D01*
X157168145Y-88384217D01*
X157084886Y-88393300D01*
X157001609Y-88401167D01*
X156918199Y-88407828D01*
X156834615Y-88413286D01*
X156751020Y-88417528D01*
X156667371Y-88420559D01*
X156583724Y-88422378D01*
X156497942Y-88423000D01*
X155222664Y-88423000D01*
X155162000Y-88428975D01*
X155162000Y-87007949D01*
X155162783Y-87000000D01*
X155159655Y-86968243D01*
X155150392Y-86937706D01*
X155135349Y-86909563D01*
X155115105Y-86884895D01*
X155090437Y-86864651D01*
X155062294Y-86849608D01*
X155031757Y-86840345D01*
X155007949Y-86838000D01*
X155000000Y-86837217D01*
X154992051Y-86838000D01*
X145007949Y-86838000D01*
X145000000Y-86837217D01*
X144992051Y-86838000D01*
X144968243Y-86840345D01*
X144937706Y-86849608D01*
X144909563Y-86864651D01*
X144884895Y-86884895D01*
X144864651Y-86909563D01*
X144849608Y-86937706D01*
X144840345Y-86968243D01*
X144837217Y-87000000D01*
X144838001Y-87007960D01*
X144838001Y-88428483D01*
X144782336Y-88423000D01*
X143502058Y-88423000D01*
X143416304Y-88422378D01*
X143332606Y-88420559D01*
X143248960Y-88417528D01*
X143165405Y-88413287D01*
X143081797Y-88407828D01*
X142998391Y-88401167D01*
X142915057Y-88393295D01*
X142831893Y-88384223D01*
X142748779Y-88373934D01*
X142665901Y-88362454D01*
X142583175Y-88349771D01*
X142500599Y-88335883D01*
X142418261Y-88320806D01*
X142336174Y-88304541D01*
X142254255Y-88287073D01*
X142172717Y-88268446D01*
X142091390Y-88248625D01*
X142010359Y-88227627D01*
X141929671Y-88205466D01*
X141849231Y-88182115D01*
X141769222Y-88157626D01*
X141689542Y-88131969D01*
X141610252Y-88105164D01*
X141531350Y-88077210D01*
X141452848Y-88048110D01*
X141374794Y-88017883D01*
X141297220Y-87986544D01*
X141220082Y-87954071D01*
X141143351Y-87920454D01*
X141067249Y-87885789D01*
X140991501Y-87849951D01*
X140914647Y-87812217D01*
X139623151Y-87166471D01*
X139621372Y-87165369D01*
X139597802Y-87153796D01*
X139574337Y-87142064D01*
X139572385Y-87141317D01*
X139534972Y-87122948D01*
X139531378Y-87120793D01*
X139509536Y-87110459D01*
X139487861Y-87099817D01*
X139483939Y-87098349D01*
X139444360Y-87079623D01*
X139440748Y-87077528D01*
X139418820Y-87067540D01*
X139396930Y-87057183D01*
X139392979Y-87055769D01*
X139353163Y-87037632D01*
X139349502Y-87035579D01*
X139327326Y-87025863D01*
X139305394Y-87015873D01*
X139301439Y-87014522D01*
X139261340Y-86996954D01*
X139257660Y-86994959D01*
X139235389Y-86985584D01*
X139213268Y-86975892D01*
X139209289Y-86974597D01*
X139168945Y-86957613D01*
X139165232Y-86955670D01*
X139142818Y-86946614D01*
X139120575Y-86937251D01*
X139116579Y-86936014D01*
X139075977Y-86919610D01*
X139072248Y-86917727D01*
X139049774Y-86909024D01*
X139027327Y-86899955D01*
X139023302Y-86898772D01*
X138982487Y-86882967D01*
X138978730Y-86881137D01*
X138956118Y-86872755D01*
X138933549Y-86864015D01*
X138929509Y-86862891D01*
X138888481Y-86847683D01*
X138884679Y-86845899D01*
X138861869Y-86837818D01*
X138839268Y-86829440D01*
X138835222Y-86828377D01*
X138793954Y-86813757D01*
X138790145Y-86812037D01*
X138767265Y-86804302D01*
X138744481Y-86796230D01*
X138740420Y-86795226D01*
X138698957Y-86781209D01*
X138695112Y-86779539D01*
X138672118Y-86772135D01*
X138649244Y-86764402D01*
X138645163Y-86763456D01*
X138603494Y-86750039D01*
X138599628Y-86748426D01*
X138576513Y-86741351D01*
X138553534Y-86733952D01*
X138549445Y-86733066D01*
X138507581Y-86720253D01*
X138503699Y-86718699D01*
X138480531Y-86711973D01*
X138457405Y-86704895D01*
X138453297Y-86704067D01*
X138411266Y-86691866D01*
X138407356Y-86690366D01*
X138384058Y-86683967D01*
X138360861Y-86677233D01*
X138356745Y-86676466D01*
X138314543Y-86664875D01*
X138310607Y-86663430D01*
X138287188Y-86657361D01*
X138263932Y-86650974D01*
X138259812Y-86650267D01*
X138217431Y-86639285D01*
X138213484Y-86637901D01*
X138190028Y-86632184D01*
X138166627Y-86626120D01*
X138162489Y-86625472D01*
X138119967Y-86615108D01*
X138115991Y-86613778D01*
X138092431Y-86608396D01*
X138068978Y-86602680D01*
X138064832Y-86602092D01*
X138022157Y-86592344D01*
X138018166Y-86591073D01*
X137994511Y-86586029D01*
X137970990Y-86580656D01*
X137966845Y-86580129D01*
X137924029Y-86570999D01*
X137920019Y-86569786D01*
X137896319Y-86565090D01*
X137872701Y-86560054D01*
X137868539Y-86559586D01*
X137825600Y-86551079D01*
X137821577Y-86549925D01*
X137797816Y-86545574D01*
X137774120Y-86540879D01*
X137769955Y-86540472D01*
X137726901Y-86532588D01*
X137722856Y-86531491D01*
X137699011Y-86527481D01*
X137675274Y-86523134D01*
X137671105Y-86522787D01*
X137627930Y-86515526D01*
X137623877Y-86514490D01*
X137600027Y-86510833D01*
X137576181Y-86506823D01*
X137571999Y-86506536D01*
X137528736Y-86499904D01*
X137524664Y-86498925D01*
X137500721Y-86495608D01*
X137476859Y-86491950D01*
X137472682Y-86491724D01*
X137429324Y-86485718D01*
X137425238Y-86484799D01*
X137401251Y-86481830D01*
X137377336Y-86478517D01*
X137373156Y-86478352D01*
X137329705Y-86472973D01*
X137325610Y-86472114D01*
X137301630Y-86469498D01*
X137277629Y-86466527D01*
X137273435Y-86466422D01*
X137229926Y-86461676D01*
X137225820Y-86460876D01*
X137201769Y-86458604D01*
X137177752Y-86455984D01*
X137173569Y-86455940D01*
X137129999Y-86451824D01*
X137125870Y-86451082D01*
X137101752Y-86449156D01*
X137077743Y-86446888D01*
X137073561Y-86446905D01*
X137029913Y-86443419D01*
X137025787Y-86442739D01*
X137001711Y-86441167D01*
X136977606Y-86439242D01*
X136973416Y-86439319D01*
X136929736Y-86436467D01*
X136925600Y-86435847D01*
X136901496Y-86434624D01*
X136877367Y-86433048D01*
X136873179Y-86433186D01*
X136829471Y-86430968D01*
X136825318Y-86430406D01*
X136801167Y-86429531D01*
X136777056Y-86428307D01*
X136772874Y-86428506D01*
X136729126Y-86426920D01*
X136724973Y-86426420D01*
X136700834Y-86425895D01*
X136676682Y-86425020D01*
X136672503Y-86425279D01*
X136628733Y-86424328D01*
X136624569Y-86423887D01*
X136600440Y-86423712D01*
X136576273Y-86423187D01*
X136572090Y-86423507D01*
X136530427Y-86423206D01*
X136528336Y-86423000D01*
X136501964Y-86423000D01*
X136475839Y-86422811D01*
X136473766Y-86423000D01*
X135225664Y-86423000D01*
X135162000Y-86429271D01*
X135162000Y-85433152D01*
X142821284Y-85433152D01*
X142821284Y-85566848D01*
X142847367Y-85697974D01*
X142898530Y-85821493D01*
X142972807Y-85932656D01*
X143067344Y-86027193D01*
X143178507Y-86101470D01*
X143302026Y-86152633D01*
X143433152Y-86178716D01*
X143566848Y-86178716D01*
X143697974Y-86152633D01*
X143821493Y-86101470D01*
X143932656Y-86027193D01*
X144027193Y-85932656D01*
X144101470Y-85821493D01*
X144152633Y-85697974D01*
X144178716Y-85566848D01*
X144178716Y-85433152D01*
X155821284Y-85433152D01*
X155821284Y-85566848D01*
X155847367Y-85697974D01*
X155898530Y-85821493D01*
X155972807Y-85932656D01*
X156067344Y-86027193D01*
X156178507Y-86101470D01*
X156302026Y-86152633D01*
X156433152Y-86178716D01*
X156566848Y-86178716D01*
X156697974Y-86152633D01*
X156821493Y-86101470D01*
X156932656Y-86027193D01*
X157027193Y-85932656D01*
X157101470Y-85821493D01*
X157152633Y-85697974D01*
X157178716Y-85566848D01*
X157178716Y-85433152D01*
X157152633Y-85302026D01*
X157101470Y-85178507D01*
X157027193Y-85067344D01*
X156932656Y-84972807D01*
X156821493Y-84898530D01*
X156697974Y-84847367D01*
X156566848Y-84821284D01*
X156433152Y-84821284D01*
X156302026Y-84847367D01*
X156178507Y-84898530D01*
X156067344Y-84972807D01*
X155972807Y-85067344D01*
X155898530Y-85178507D01*
X155847367Y-85302026D01*
X155821284Y-85433152D01*
X144178716Y-85433152D01*
X144152633Y-85302026D01*
X144101470Y-85178507D01*
X144027193Y-85067344D01*
X143932656Y-84972807D01*
X143821493Y-84898530D01*
X143697974Y-84847367D01*
X143566848Y-84821284D01*
X143433152Y-84821284D01*
X143302026Y-84847367D01*
X143178507Y-84898530D01*
X143067344Y-84972807D01*
X142972807Y-85067344D01*
X142898530Y-85178507D01*
X142847367Y-85302026D01*
X142821284Y-85433152D01*
X135162000Y-85433152D01*
X135162000Y-82162000D01*
X164838000Y-82162000D01*
X164838000Y-86462864D01*
G37*
X164838000Y-86462864D02*
X164734112Y-86431350D01*
X164649336Y-86423000D01*
X163526233Y-86423000D01*
X163524160Y-86422811D01*
X163498035Y-86423000D01*
X163471664Y-86423000D01*
X163469573Y-86423206D01*
X163427909Y-86423507D01*
X163423726Y-86423187D01*
X163399559Y-86423712D01*
X163375429Y-86423887D01*
X163371265Y-86424328D01*
X163327496Y-86425279D01*
X163323317Y-86425020D01*
X163299165Y-86425895D01*
X163275026Y-86426420D01*
X163270873Y-86426920D01*
X163227124Y-86428506D01*
X163222942Y-86428307D01*
X163198829Y-86429531D01*
X163174681Y-86430406D01*
X163170529Y-86430967D01*
X163126819Y-86433186D01*
X163122632Y-86433048D01*
X163098492Y-86434624D01*
X163074399Y-86435847D01*
X163070267Y-86436467D01*
X163026574Y-86439319D01*
X163022390Y-86439242D01*
X162998342Y-86441163D01*
X162974212Y-86442738D01*
X162970073Y-86443420D01*
X162926444Y-86446905D01*
X162922261Y-86446888D01*
X162898208Y-86449160D01*
X162874128Y-86451083D01*
X162870011Y-86451823D01*
X162826434Y-86455939D01*
X162822240Y-86455983D01*
X162798199Y-86458606D01*
X162774185Y-86460874D01*
X162770078Y-86461674D01*
X162726552Y-86466422D01*
X162722369Y-86466527D01*
X162698418Y-86469492D01*
X162674383Y-86472114D01*
X162670282Y-86472975D01*
X162626842Y-86478352D01*
X162622663Y-86478517D01*
X162598756Y-86481829D01*
X162574760Y-86484799D01*
X162570673Y-86485719D01*
X162527319Y-86491724D01*
X162523137Y-86491950D01*
X162499250Y-86495612D01*
X162475335Y-86498925D01*
X162471267Y-86499903D01*
X162427997Y-86506537D01*
X162423818Y-86506823D01*
X162399986Y-86510831D01*
X162376121Y-86514490D01*
X162372066Y-86515527D01*
X162328896Y-86522787D01*
X162324723Y-86523134D01*
X162300966Y-86527484D01*
X162277143Y-86531491D01*
X162273101Y-86532587D01*
X162230043Y-86540472D01*
X162225878Y-86540879D01*
X162202184Y-86545573D01*
X162178421Y-86549925D01*
X162174398Y-86551079D01*
X162131449Y-86559588D01*
X162127296Y-86560055D01*
X162103731Y-86565080D01*
X162079979Y-86569786D01*
X162075960Y-86571002D01*
X162033161Y-86580128D01*
X162029009Y-86580656D01*
X162005451Y-86586037D01*
X161981831Y-86591074D01*
X161977845Y-86592343D01*
X161935170Y-86602091D01*
X161931026Y-86602679D01*
X161907564Y-86608397D01*
X161884008Y-86613778D01*
X161880036Y-86615106D01*
X161837507Y-86625472D01*
X161833374Y-86626119D01*
X161810018Y-86632171D01*
X161786521Y-86637898D01*
X161782564Y-86639285D01*
X161740203Y-86650263D01*
X161736067Y-86650972D01*
X161712735Y-86657380D01*
X161689393Y-86663429D01*
X161685468Y-86664870D01*
X161643241Y-86676468D01*
X161639131Y-86677234D01*
X161615975Y-86683956D01*
X161592642Y-86690365D01*
X161588725Y-86691867D01*
X161546703Y-86704067D01*
X161542592Y-86704895D01*
X161519452Y-86711978D01*
X161496293Y-86718701D01*
X161492413Y-86720254D01*
X161450551Y-86733067D01*
X161446462Y-86733953D01*
X161423477Y-86741354D01*
X161400369Y-86748427D01*
X161396505Y-86750039D01*
X161354840Y-86763455D01*
X161350763Y-86764400D01*
X161327879Y-86772136D01*
X161304885Y-86779540D01*
X161301046Y-86781207D01*
X161259571Y-86795228D01*
X161255509Y-86796232D01*
X161232772Y-86804287D01*
X161209860Y-86812033D01*
X161206037Y-86813759D01*
X161164781Y-86828376D01*
X161160733Y-86829439D01*
X161138096Y-86837830D01*
X161115313Y-86845902D01*
X161111519Y-86847682D01*
X161070478Y-86862895D01*
X161066449Y-86864016D01*
X161043938Y-86872733D01*
X161021270Y-86881136D01*
X161017505Y-86882969D01*
X160976697Y-86898772D01*
X160972671Y-86899955D01*
X160950234Y-86909020D01*
X160927749Y-86917727D01*
X160924016Y-86919612D01*
X160883419Y-86936014D01*
X160879423Y-86937251D01*
X160857180Y-86946614D01*
X160834766Y-86955670D01*
X160831053Y-86957613D01*
X160790712Y-86974595D01*
X160786729Y-86975892D01*
X160764597Y-86985589D01*
X160742338Y-86994959D01*
X160738657Y-86996954D01*
X160698567Y-87014519D01*
X160694606Y-87015872D01*
X160672615Y-87025889D01*
X160650496Y-87035580D01*
X160646848Y-87037626D01*
X160607003Y-87055775D01*
X160603065Y-87057185D01*
X160581264Y-87067500D01*
X160559250Y-87077527D01*
X160555621Y-87079632D01*
X160516066Y-87098346D01*
X160512135Y-87099818D01*
X160490408Y-87110486D01*
X160468618Y-87120795D01*
X160465033Y-87122944D01*
X160427614Y-87141317D01*
X160425661Y-87142064D01*
X160402197Y-87153796D01*
X160378624Y-87165370D01*
X160376845Y-87166472D01*
X159085452Y-87812168D01*
X159008473Y-87849962D01*
X158932766Y-87885780D01*
X158856628Y-87920462D01*
X158779950Y-87954057D01*
X158702823Y-87986524D01*
X158625173Y-88017896D01*
X158547134Y-88048116D01*
X158468673Y-88077201D01*
X158389771Y-88105155D01*
X158310463Y-88131967D01*
X158230806Y-88157616D01*
X158150731Y-88182125D01*
X158070414Y-88205442D01*
X157989655Y-88227623D01*
X157908601Y-88248627D01*
X157827270Y-88268449D01*
X157745725Y-88287076D01*
X157663825Y-88304540D01*
X157581721Y-88320807D01*
X157499414Y-88335880D01*
X157416808Y-88349772D01*
X157334147Y-88362446D01*
X157251184Y-88373939D01*
X157168145Y-88384217D01*
X157084886Y-88393300D01*
X157001609Y-88401167D01*
X156918199Y-88407828D01*
X156834615Y-88413286D01*
X156751020Y-88417528D01*
X156667371Y-88420559D01*
X156583724Y-88422378D01*
X156497942Y-88423000D01*
X155222664Y-88423000D01*
X155162000Y-88428975D01*
X155162000Y-87007949D01*
X155162783Y-87000000D01*
X155159655Y-86968243D01*
X155150392Y-86937706D01*
X155135349Y-86909563D01*
X155115105Y-86884895D01*
X155090437Y-86864651D01*
X155062294Y-86849608D01*
X155031757Y-86840345D01*
X155007949Y-86838000D01*
X155000000Y-86837217D01*
X154992051Y-86838000D01*
X145007949Y-86838000D01*
X145000000Y-86837217D01*
X144992051Y-86838000D01*
X144968243Y-86840345D01*
X144937706Y-86849608D01*
X144909563Y-86864651D01*
X144884895Y-86884895D01*
X144864651Y-86909563D01*
X144849608Y-86937706D01*
X144840345Y-86968243D01*
X144837217Y-87000000D01*
X144838001Y-87007960D01*
X144838001Y-88428483D01*
X144782336Y-88423000D01*
X143502058Y-88423000D01*
X143416304Y-88422378D01*
X143332606Y-88420559D01*
X143248960Y-88417528D01*
X143165405Y-88413287D01*
X143081797Y-88407828D01*
X142998391Y-88401167D01*
X142915057Y-88393295D01*
X142831893Y-88384223D01*
X142748779Y-88373934D01*
X142665901Y-88362454D01*
X142583175Y-88349771D01*
X142500599Y-88335883D01*
X142418261Y-88320806D01*
X142336174Y-88304541D01*
X142254255Y-88287073D01*
X142172717Y-88268446D01*
X142091390Y-88248625D01*
X142010359Y-88227627D01*
X141929671Y-88205466D01*
X141849231Y-88182115D01*
X141769222Y-88157626D01*
X141689542Y-88131969D01*
X141610252Y-88105164D01*
X141531350Y-88077210D01*
X141452848Y-88048110D01*
X141374794Y-88017883D01*
X141297220Y-87986544D01*
X141220082Y-87954071D01*
X141143351Y-87920454D01*
X141067249Y-87885789D01*
X140991501Y-87849951D01*
X140914647Y-87812217D01*
X139623151Y-87166471D01*
X139621372Y-87165369D01*
X139597802Y-87153796D01*
X139574337Y-87142064D01*
X139572385Y-87141317D01*
X139534972Y-87122948D01*
X139531378Y-87120793D01*
X139509536Y-87110459D01*
X139487861Y-87099817D01*
X139483939Y-87098349D01*
X139444360Y-87079623D01*
X139440748Y-87077528D01*
X139418820Y-87067540D01*
X139396930Y-87057183D01*
X139392979Y-87055769D01*
X139353163Y-87037632D01*
X139349502Y-87035579D01*
X139327326Y-87025863D01*
X139305394Y-87015873D01*
X139301439Y-87014522D01*
X139261340Y-86996954D01*
X139257660Y-86994959D01*
X139235389Y-86985584D01*
X139213268Y-86975892D01*
X139209289Y-86974597D01*
X139168945Y-86957613D01*
X139165232Y-86955670D01*
X139142818Y-86946614D01*
X139120575Y-86937251D01*
X139116579Y-86936014D01*
X139075977Y-86919610D01*
X139072248Y-86917727D01*
X139049774Y-86909024D01*
X139027327Y-86899955D01*
X139023302Y-86898772D01*
X138982487Y-86882967D01*
X138978730Y-86881137D01*
X138956118Y-86872755D01*
X138933549Y-86864015D01*
X138929509Y-86862891D01*
X138888481Y-86847683D01*
X138884679Y-86845899D01*
X138861869Y-86837818D01*
X138839268Y-86829440D01*
X138835222Y-86828377D01*
X138793954Y-86813757D01*
X138790145Y-86812037D01*
X138767265Y-86804302D01*
X138744481Y-86796230D01*
X138740420Y-86795226D01*
X138698957Y-86781209D01*
X138695112Y-86779539D01*
X138672118Y-86772135D01*
X138649244Y-86764402D01*
X138645163Y-86763456D01*
X138603494Y-86750039D01*
X138599628Y-86748426D01*
X138576513Y-86741351D01*
X138553534Y-86733952D01*
X138549445Y-86733066D01*
X138507581Y-86720253D01*
X138503699Y-86718699D01*
X138480531Y-86711973D01*
X138457405Y-86704895D01*
X138453297Y-86704067D01*
X138411266Y-86691866D01*
X138407356Y-86690366D01*
X138384058Y-86683967D01*
X138360861Y-86677233D01*
X138356745Y-86676466D01*
X138314543Y-86664875D01*
X138310607Y-86663430D01*
X138287188Y-86657361D01*
X138263932Y-86650974D01*
X138259812Y-86650267D01*
X138217431Y-86639285D01*
X138213484Y-86637901D01*
X138190028Y-86632184D01*
X138166627Y-86626120D01*
X138162489Y-86625472D01*
X138119967Y-86615108D01*
X138115991Y-86613778D01*
X138092431Y-86608396D01*
X138068978Y-86602680D01*
X138064832Y-86602092D01*
X138022157Y-86592344D01*
X138018166Y-86591073D01*
X137994511Y-86586029D01*
X137970990Y-86580656D01*
X137966845Y-86580129D01*
X137924029Y-86570999D01*
X137920019Y-86569786D01*
X137896319Y-86565090D01*
X137872701Y-86560054D01*
X137868539Y-86559586D01*
X137825600Y-86551079D01*
X137821577Y-86549925D01*
X137797816Y-86545574D01*
X137774120Y-86540879D01*
X137769955Y-86540472D01*
X137726901Y-86532588D01*
X137722856Y-86531491D01*
X137699011Y-86527481D01*
X137675274Y-86523134D01*
X137671105Y-86522787D01*
X137627930Y-86515526D01*
X137623877Y-86514490D01*
X137600027Y-86510833D01*
X137576181Y-86506823D01*
X137571999Y-86506536D01*
X137528736Y-86499904D01*
X137524664Y-86498925D01*
X137500721Y-86495608D01*
X137476859Y-86491950D01*
X137472682Y-86491724D01*
X137429324Y-86485718D01*
X137425238Y-86484799D01*
X137401251Y-86481830D01*
X137377336Y-86478517D01*
X137373156Y-86478352D01*
X137329705Y-86472973D01*
X137325610Y-86472114D01*
X137301630Y-86469498D01*
X137277629Y-86466527D01*
X137273435Y-86466422D01*
X137229926Y-86461676D01*
X137225820Y-86460876D01*
X137201769Y-86458604D01*
X137177752Y-86455984D01*
X137173569Y-86455940D01*
X137129999Y-86451824D01*
X137125870Y-86451082D01*
X137101752Y-86449156D01*
X137077743Y-86446888D01*
X137073561Y-86446905D01*
X137029913Y-86443419D01*
X137025787Y-86442739D01*
X137001711Y-86441167D01*
X136977606Y-86439242D01*
X136973416Y-86439319D01*
X136929736Y-86436467D01*
X136925600Y-86435847D01*
X136901496Y-86434624D01*
X136877367Y-86433048D01*
X136873179Y-86433186D01*
X136829471Y-86430968D01*
X136825318Y-86430406D01*
X136801167Y-86429531D01*
X136777056Y-86428307D01*
X136772874Y-86428506D01*
X136729126Y-86426920D01*
X136724973Y-86426420D01*
X136700834Y-86425895D01*
X136676682Y-86425020D01*
X136672503Y-86425279D01*
X136628733Y-86424328D01*
X136624569Y-86423887D01*
X136600440Y-86423712D01*
X136576273Y-86423187D01*
X136572090Y-86423507D01*
X136530427Y-86423206D01*
X136528336Y-86423000D01*
X136501964Y-86423000D01*
X136475839Y-86422811D01*
X136473766Y-86423000D01*
X135225664Y-86423000D01*
X135162000Y-86429271D01*
X135162000Y-85433152D01*
X142821284Y-85433152D01*
X142821284Y-85566848D01*
X142847367Y-85697974D01*
X142898530Y-85821493D01*
X142972807Y-85932656D01*
X143067344Y-86027193D01*
X143178507Y-86101470D01*
X143302026Y-86152633D01*
X143433152Y-86178716D01*
X143566848Y-86178716D01*
X143697974Y-86152633D01*
X143821493Y-86101470D01*
X143932656Y-86027193D01*
X144027193Y-85932656D01*
X144101470Y-85821493D01*
X144152633Y-85697974D01*
X144178716Y-85566848D01*
X144178716Y-85433152D01*
X155821284Y-85433152D01*
X155821284Y-85566848D01*
X155847367Y-85697974D01*
X155898530Y-85821493D01*
X155972807Y-85932656D01*
X156067344Y-86027193D01*
X156178507Y-86101470D01*
X156302026Y-86152633D01*
X156433152Y-86178716D01*
X156566848Y-86178716D01*
X156697974Y-86152633D01*
X156821493Y-86101470D01*
X156932656Y-86027193D01*
X157027193Y-85932656D01*
X157101470Y-85821493D01*
X157152633Y-85697974D01*
X157178716Y-85566848D01*
X157178716Y-85433152D01*
X157152633Y-85302026D01*
X157101470Y-85178507D01*
X157027193Y-85067344D01*
X156932656Y-84972807D01*
X156821493Y-84898530D01*
X156697974Y-84847367D01*
X156566848Y-84821284D01*
X156433152Y-84821284D01*
X156302026Y-84847367D01*
X156178507Y-84898530D01*
X156067344Y-84972807D01*
X155972807Y-85067344D01*
X155898530Y-85178507D01*
X155847367Y-85302026D01*
X155821284Y-85433152D01*
X144178716Y-85433152D01*
X144152633Y-85302026D01*
X144101470Y-85178507D01*
X144027193Y-85067344D01*
X143932656Y-84972807D01*
X143821493Y-84898530D01*
X143697974Y-84847367D01*
X143566848Y-84821284D01*
X143433152Y-84821284D01*
X143302026Y-84847367D01*
X143178507Y-84898530D01*
X143067344Y-84972807D01*
X142972807Y-85067344D01*
X142898530Y-85178507D01*
X142847367Y-85302026D01*
X142821284Y-85433152D01*
X135162000Y-85433152D01*
X135162000Y-82162000D01*
X164838000Y-82162000D01*
X164838000Y-86462864D01*
M02*
