G04 #@! TF.GenerationSoftware,KiCad,Pcbnew,5.1.5-52549c5~84~ubuntu18.04.1*
G04 #@! TF.CreationDate,2020-05-23T22:27:17-03:00*
G04 #@! TF.ProjectId,SampleHolder_Cryo,53616d70-6c65-4486-9f6c-6465725f4372,rev?*
G04 #@! TF.SameCoordinates,Original*
G04 #@! TF.FileFunction,Copper,L2,Bot*
G04 #@! TF.FilePolarity,Positive*
%FSLAX46Y46*%
G04 Gerber Fmt 4.6, Leading zero omitted, Abs format (unit mm)*
G04 Created by KiCad (PCBNEW 5.1.5-52549c5~84~ubuntu18.04.1) date 2020-05-23 22:27:17*
%MOMM*%
%LPD*%
G04 APERTURE LIST*
%ADD10C,0.254000*%
G04 APERTURE END LIST*
D10*
G36*
X164838001Y-101838000D02*
G01*
X135162000Y-101838000D01*
X135162000Y-98433152D01*
X142821284Y-98433152D01*
X142821284Y-98566848D01*
X142847367Y-98697974D01*
X142898530Y-98821493D01*
X142972807Y-98932656D01*
X143067344Y-99027193D01*
X143178507Y-99101470D01*
X143302026Y-99152633D01*
X143433152Y-99178716D01*
X143566848Y-99178716D01*
X143697974Y-99152633D01*
X143821493Y-99101470D01*
X143932656Y-99027193D01*
X144027193Y-98932656D01*
X144101470Y-98821493D01*
X144152633Y-98697974D01*
X144178716Y-98566848D01*
X144178716Y-98433152D01*
X155821284Y-98433152D01*
X155821284Y-98566848D01*
X155847367Y-98697974D01*
X155898530Y-98821493D01*
X155972807Y-98932656D01*
X156067344Y-99027193D01*
X156178507Y-99101470D01*
X156302026Y-99152633D01*
X156433152Y-99178716D01*
X156566848Y-99178716D01*
X156697974Y-99152633D01*
X156821493Y-99101470D01*
X156932656Y-99027193D01*
X157027193Y-98932656D01*
X157101470Y-98821493D01*
X157152633Y-98697974D01*
X157178716Y-98566848D01*
X157178716Y-98433152D01*
X157152633Y-98302026D01*
X157101470Y-98178507D01*
X157027193Y-98067344D01*
X156932656Y-97972807D01*
X156821493Y-97898530D01*
X156697974Y-97847367D01*
X156566848Y-97821284D01*
X156433152Y-97821284D01*
X156302026Y-97847367D01*
X156178507Y-97898530D01*
X156067344Y-97972807D01*
X155972807Y-98067344D01*
X155898530Y-98178507D01*
X155847367Y-98302026D01*
X155821284Y-98433152D01*
X144178716Y-98433152D01*
X144152633Y-98302026D01*
X144101470Y-98178507D01*
X144027193Y-98067344D01*
X143932656Y-97972807D01*
X143821493Y-97898530D01*
X143697974Y-97847367D01*
X143566848Y-97821284D01*
X143433152Y-97821284D01*
X143302026Y-97847367D01*
X143178507Y-97898530D01*
X143067344Y-97972807D01*
X142972807Y-98067344D01*
X142898530Y-98178507D01*
X142847367Y-98302026D01*
X142821284Y-98433152D01*
X135162000Y-98433152D01*
X135162000Y-91884144D01*
X138823692Y-91884144D01*
X138823692Y-92115856D01*
X138868897Y-92343116D01*
X138957569Y-92557191D01*
X139086302Y-92749853D01*
X139250147Y-92913698D01*
X139442809Y-93042431D01*
X139656884Y-93131103D01*
X139884144Y-93176308D01*
X140115856Y-93176308D01*
X140343116Y-93131103D01*
X140557191Y-93042431D01*
X140749853Y-92913698D01*
X140913698Y-92749853D01*
X141042431Y-92557191D01*
X141131103Y-92343116D01*
X141176308Y-92115856D01*
X141176308Y-91884144D01*
X141131103Y-91656884D01*
X141042431Y-91442809D01*
X140913698Y-91250147D01*
X140749853Y-91086302D01*
X140557191Y-90957569D01*
X140343116Y-90868897D01*
X140115856Y-90823692D01*
X139884144Y-90823692D01*
X139656884Y-90868897D01*
X139442809Y-90957569D01*
X139250147Y-91086302D01*
X139086302Y-91250147D01*
X138957569Y-91442809D01*
X138868897Y-91656884D01*
X138823692Y-91884144D01*
X135162000Y-91884144D01*
X135162000Y-87000000D01*
X144837217Y-87000000D01*
X144838001Y-87007960D01*
X144838000Y-96992051D01*
X144837217Y-97000000D01*
X144840345Y-97031757D01*
X144849608Y-97062294D01*
X144864651Y-97090437D01*
X144884895Y-97115105D01*
X144909563Y-97135349D01*
X144937706Y-97150392D01*
X144968243Y-97159655D01*
X145000000Y-97162783D01*
X145007949Y-97162000D01*
X154992051Y-97162000D01*
X155000000Y-97162783D01*
X155007949Y-97162000D01*
X155031757Y-97159655D01*
X155062294Y-97150392D01*
X155090437Y-97135349D01*
X155115105Y-97115105D01*
X155135349Y-97090437D01*
X155150392Y-97062294D01*
X155159655Y-97031757D01*
X155162783Y-97000000D01*
X155162000Y-96992051D01*
X155162000Y-91884144D01*
X158823692Y-91884144D01*
X158823692Y-92115856D01*
X158868897Y-92343116D01*
X158957569Y-92557191D01*
X159086302Y-92749853D01*
X159250147Y-92913698D01*
X159442809Y-93042431D01*
X159656884Y-93131103D01*
X159884144Y-93176308D01*
X160115856Y-93176308D01*
X160343116Y-93131103D01*
X160557191Y-93042431D01*
X160749853Y-92913698D01*
X160913698Y-92749853D01*
X161042431Y-92557191D01*
X161131103Y-92343116D01*
X161176308Y-92115856D01*
X161176308Y-91884144D01*
X161131103Y-91656884D01*
X161042431Y-91442809D01*
X160913698Y-91250147D01*
X160749853Y-91086302D01*
X160557191Y-90957569D01*
X160343116Y-90868897D01*
X160115856Y-90823692D01*
X159884144Y-90823692D01*
X159656884Y-90868897D01*
X159442809Y-90957569D01*
X159250147Y-91086302D01*
X159086302Y-91250147D01*
X158957569Y-91442809D01*
X158868897Y-91656884D01*
X158823692Y-91884144D01*
X155162000Y-91884144D01*
X155162000Y-87007949D01*
X155162783Y-87000000D01*
X155159655Y-86968243D01*
X155150392Y-86937706D01*
X155135349Y-86909563D01*
X155115105Y-86884895D01*
X155090437Y-86864651D01*
X155062294Y-86849608D01*
X155031757Y-86840345D01*
X155007949Y-86838000D01*
X155000000Y-86837217D01*
X154992051Y-86838000D01*
X145007949Y-86838000D01*
X145000000Y-86837217D01*
X144992051Y-86838000D01*
X144968243Y-86840345D01*
X144937706Y-86849608D01*
X144909563Y-86864651D01*
X144884895Y-86884895D01*
X144864651Y-86909563D01*
X144849608Y-86937706D01*
X144840345Y-86968243D01*
X144837217Y-87000000D01*
X135162000Y-87000000D01*
X135162000Y-85433152D01*
X142821284Y-85433152D01*
X142821284Y-85566848D01*
X142847367Y-85697974D01*
X142898530Y-85821493D01*
X142972807Y-85932656D01*
X143067344Y-86027193D01*
X143178507Y-86101470D01*
X143302026Y-86152633D01*
X143433152Y-86178716D01*
X143566848Y-86178716D01*
X143697974Y-86152633D01*
X143821493Y-86101470D01*
X143932656Y-86027193D01*
X144027193Y-85932656D01*
X144101470Y-85821493D01*
X144152633Y-85697974D01*
X144178716Y-85566848D01*
X144178716Y-85433152D01*
X155821284Y-85433152D01*
X155821284Y-85566848D01*
X155847367Y-85697974D01*
X155898530Y-85821493D01*
X155972807Y-85932656D01*
X156067344Y-86027193D01*
X156178507Y-86101470D01*
X156302026Y-86152633D01*
X156433152Y-86178716D01*
X156566848Y-86178716D01*
X156697974Y-86152633D01*
X156821493Y-86101470D01*
X156932656Y-86027193D01*
X157027193Y-85932656D01*
X157101470Y-85821493D01*
X157152633Y-85697974D01*
X157178716Y-85566848D01*
X157178716Y-85433152D01*
X157152633Y-85302026D01*
X157101470Y-85178507D01*
X157027193Y-85067344D01*
X156932656Y-84972807D01*
X156821493Y-84898530D01*
X156697974Y-84847367D01*
X156566848Y-84821284D01*
X156433152Y-84821284D01*
X156302026Y-84847367D01*
X156178507Y-84898530D01*
X156067344Y-84972807D01*
X155972807Y-85067344D01*
X155898530Y-85178507D01*
X155847367Y-85302026D01*
X155821284Y-85433152D01*
X144178716Y-85433152D01*
X144152633Y-85302026D01*
X144101470Y-85178507D01*
X144027193Y-85067344D01*
X143932656Y-84972807D01*
X143821493Y-84898530D01*
X143697974Y-84847367D01*
X143566848Y-84821284D01*
X143433152Y-84821284D01*
X143302026Y-84847367D01*
X143178507Y-84898530D01*
X143067344Y-84972807D01*
X142972807Y-85067344D01*
X142898530Y-85178507D01*
X142847367Y-85302026D01*
X142821284Y-85433152D01*
X135162000Y-85433152D01*
X135162000Y-82162000D01*
X164838000Y-82162000D01*
X164838001Y-101838000D01*
G37*
X164838001Y-101838000D02*
X135162000Y-101838000D01*
X135162000Y-98433152D01*
X142821284Y-98433152D01*
X142821284Y-98566848D01*
X142847367Y-98697974D01*
X142898530Y-98821493D01*
X142972807Y-98932656D01*
X143067344Y-99027193D01*
X143178507Y-99101470D01*
X143302026Y-99152633D01*
X143433152Y-99178716D01*
X143566848Y-99178716D01*
X143697974Y-99152633D01*
X143821493Y-99101470D01*
X143932656Y-99027193D01*
X144027193Y-98932656D01*
X144101470Y-98821493D01*
X144152633Y-98697974D01*
X144178716Y-98566848D01*
X144178716Y-98433152D01*
X155821284Y-98433152D01*
X155821284Y-98566848D01*
X155847367Y-98697974D01*
X155898530Y-98821493D01*
X155972807Y-98932656D01*
X156067344Y-99027193D01*
X156178507Y-99101470D01*
X156302026Y-99152633D01*
X156433152Y-99178716D01*
X156566848Y-99178716D01*
X156697974Y-99152633D01*
X156821493Y-99101470D01*
X156932656Y-99027193D01*
X157027193Y-98932656D01*
X157101470Y-98821493D01*
X157152633Y-98697974D01*
X157178716Y-98566848D01*
X157178716Y-98433152D01*
X157152633Y-98302026D01*
X157101470Y-98178507D01*
X157027193Y-98067344D01*
X156932656Y-97972807D01*
X156821493Y-97898530D01*
X156697974Y-97847367D01*
X156566848Y-97821284D01*
X156433152Y-97821284D01*
X156302026Y-97847367D01*
X156178507Y-97898530D01*
X156067344Y-97972807D01*
X155972807Y-98067344D01*
X155898530Y-98178507D01*
X155847367Y-98302026D01*
X155821284Y-98433152D01*
X144178716Y-98433152D01*
X144152633Y-98302026D01*
X144101470Y-98178507D01*
X144027193Y-98067344D01*
X143932656Y-97972807D01*
X143821493Y-97898530D01*
X143697974Y-97847367D01*
X143566848Y-97821284D01*
X143433152Y-97821284D01*
X143302026Y-97847367D01*
X143178507Y-97898530D01*
X143067344Y-97972807D01*
X142972807Y-98067344D01*
X142898530Y-98178507D01*
X142847367Y-98302026D01*
X142821284Y-98433152D01*
X135162000Y-98433152D01*
X135162000Y-91884144D01*
X138823692Y-91884144D01*
X138823692Y-92115856D01*
X138868897Y-92343116D01*
X138957569Y-92557191D01*
X139086302Y-92749853D01*
X139250147Y-92913698D01*
X139442809Y-93042431D01*
X139656884Y-93131103D01*
X139884144Y-93176308D01*
X140115856Y-93176308D01*
X140343116Y-93131103D01*
X140557191Y-93042431D01*
X140749853Y-92913698D01*
X140913698Y-92749853D01*
X141042431Y-92557191D01*
X141131103Y-92343116D01*
X141176308Y-92115856D01*
X141176308Y-91884144D01*
X141131103Y-91656884D01*
X141042431Y-91442809D01*
X140913698Y-91250147D01*
X140749853Y-91086302D01*
X140557191Y-90957569D01*
X140343116Y-90868897D01*
X140115856Y-90823692D01*
X139884144Y-90823692D01*
X139656884Y-90868897D01*
X139442809Y-90957569D01*
X139250147Y-91086302D01*
X139086302Y-91250147D01*
X138957569Y-91442809D01*
X138868897Y-91656884D01*
X138823692Y-91884144D01*
X135162000Y-91884144D01*
X135162000Y-87000000D01*
X144837217Y-87000000D01*
X144838001Y-87007960D01*
X144838000Y-96992051D01*
X144837217Y-97000000D01*
X144840345Y-97031757D01*
X144849608Y-97062294D01*
X144864651Y-97090437D01*
X144884895Y-97115105D01*
X144909563Y-97135349D01*
X144937706Y-97150392D01*
X144968243Y-97159655D01*
X145000000Y-97162783D01*
X145007949Y-97162000D01*
X154992051Y-97162000D01*
X155000000Y-97162783D01*
X155007949Y-97162000D01*
X155031757Y-97159655D01*
X155062294Y-97150392D01*
X155090437Y-97135349D01*
X155115105Y-97115105D01*
X155135349Y-97090437D01*
X155150392Y-97062294D01*
X155159655Y-97031757D01*
X155162783Y-97000000D01*
X155162000Y-96992051D01*
X155162000Y-91884144D01*
X158823692Y-91884144D01*
X158823692Y-92115856D01*
X158868897Y-92343116D01*
X158957569Y-92557191D01*
X159086302Y-92749853D01*
X159250147Y-92913698D01*
X159442809Y-93042431D01*
X159656884Y-93131103D01*
X159884144Y-93176308D01*
X160115856Y-93176308D01*
X160343116Y-93131103D01*
X160557191Y-93042431D01*
X160749853Y-92913698D01*
X160913698Y-92749853D01*
X161042431Y-92557191D01*
X161131103Y-92343116D01*
X161176308Y-92115856D01*
X161176308Y-91884144D01*
X161131103Y-91656884D01*
X161042431Y-91442809D01*
X160913698Y-91250147D01*
X160749853Y-91086302D01*
X160557191Y-90957569D01*
X160343116Y-90868897D01*
X160115856Y-90823692D01*
X159884144Y-90823692D01*
X159656884Y-90868897D01*
X159442809Y-90957569D01*
X159250147Y-91086302D01*
X159086302Y-91250147D01*
X158957569Y-91442809D01*
X158868897Y-91656884D01*
X158823692Y-91884144D01*
X155162000Y-91884144D01*
X155162000Y-87007949D01*
X155162783Y-87000000D01*
X155159655Y-86968243D01*
X155150392Y-86937706D01*
X155135349Y-86909563D01*
X155115105Y-86884895D01*
X155090437Y-86864651D01*
X155062294Y-86849608D01*
X155031757Y-86840345D01*
X155007949Y-86838000D01*
X155000000Y-86837217D01*
X154992051Y-86838000D01*
X145007949Y-86838000D01*
X145000000Y-86837217D01*
X144992051Y-86838000D01*
X144968243Y-86840345D01*
X144937706Y-86849608D01*
X144909563Y-86864651D01*
X144884895Y-86884895D01*
X144864651Y-86909563D01*
X144849608Y-86937706D01*
X144840345Y-86968243D01*
X144837217Y-87000000D01*
X135162000Y-87000000D01*
X135162000Y-85433152D01*
X142821284Y-85433152D01*
X142821284Y-85566848D01*
X142847367Y-85697974D01*
X142898530Y-85821493D01*
X142972807Y-85932656D01*
X143067344Y-86027193D01*
X143178507Y-86101470D01*
X143302026Y-86152633D01*
X143433152Y-86178716D01*
X143566848Y-86178716D01*
X143697974Y-86152633D01*
X143821493Y-86101470D01*
X143932656Y-86027193D01*
X144027193Y-85932656D01*
X144101470Y-85821493D01*
X144152633Y-85697974D01*
X144178716Y-85566848D01*
X144178716Y-85433152D01*
X155821284Y-85433152D01*
X155821284Y-85566848D01*
X155847367Y-85697974D01*
X155898530Y-85821493D01*
X155972807Y-85932656D01*
X156067344Y-86027193D01*
X156178507Y-86101470D01*
X156302026Y-86152633D01*
X156433152Y-86178716D01*
X156566848Y-86178716D01*
X156697974Y-86152633D01*
X156821493Y-86101470D01*
X156932656Y-86027193D01*
X157027193Y-85932656D01*
X157101470Y-85821493D01*
X157152633Y-85697974D01*
X157178716Y-85566848D01*
X157178716Y-85433152D01*
X157152633Y-85302026D01*
X157101470Y-85178507D01*
X157027193Y-85067344D01*
X156932656Y-84972807D01*
X156821493Y-84898530D01*
X156697974Y-84847367D01*
X156566848Y-84821284D01*
X156433152Y-84821284D01*
X156302026Y-84847367D01*
X156178507Y-84898530D01*
X156067344Y-84972807D01*
X155972807Y-85067344D01*
X155898530Y-85178507D01*
X155847367Y-85302026D01*
X155821284Y-85433152D01*
X144178716Y-85433152D01*
X144152633Y-85302026D01*
X144101470Y-85178507D01*
X144027193Y-85067344D01*
X143932656Y-84972807D01*
X143821493Y-84898530D01*
X143697974Y-84847367D01*
X143566848Y-84821284D01*
X143433152Y-84821284D01*
X143302026Y-84847367D01*
X143178507Y-84898530D01*
X143067344Y-84972807D01*
X142972807Y-85067344D01*
X142898530Y-85178507D01*
X142847367Y-85302026D01*
X142821284Y-85433152D01*
X135162000Y-85433152D01*
X135162000Y-82162000D01*
X164838000Y-82162000D01*
X164838001Y-101838000D01*
M02*
