  0
SECTION
  2
HEADER
  9
$ANGBASE
  50
0.0
  9
$ANGDIR
  70
1
  9
$MEASUREMENT
  70
0
  0
ENDSEC
  0
SECTION
  2
TABLES
  0
TABLE
  2
LTYPE
  70
4
  0
LTYPE
  5
40F
  2
CONTINUOUS
  70
0
  3
Solid line
  72
65
  73
0
  40
0.0
  0
LTYPE
  5
410
  2
DASHDOT
 70
0
  3
Dash Dot ____ _ ____ _
 72
65
 73
4
 40
2.0
 49
1.25
 49
-0.25
 49
0.25
 49
-0.25
  0
LTYPE
  5
411
  2
DASHED
 70
0
  3
Dashed __ __ __ __ __
 72
65
 73
2
 40
0.75
 49
0.5
 49
-0.25
  0
LTYPE
  5
43B
  2
DOTTED
 70
0
  3
Dotted .  .  .  .
 72
65
 73
2
 40
0.2
 49
0.0
 49
-0.2
  0
ENDTAB
  0
TABLE
  2
STYLE
  70
4
  0
STYLE
  2
KICAD
  70
0
  40
0
  41
1
  42
1
  50
0
  71
0
  3
isocp.shx
  0
STYLE
  2
KICADB
  70
0
  40
0
  41
1
  42
1
  50
0
  71
0
  3
isocp.shx
  0
STYLE
  2
KICADI
  70
0
  40
0
  41
1
  42
1
  50
15
  71
0
  3
isocp.shx
  0
STYLE
  2
KICADBI
  70
0
  40
0
  41
1
  42
1
  50
15
  71
0
  3
isocp.shx
  0
ENDTAB
  0
TABLE
  2
LAYER
  70
1
  0
LAYER
  2
BLACK
  70
0
  62
7
  6
CONTINUOUS
  0
ENDTAB
  0
ENDSEC
  0
SECTION
  2
ENTITIES
0
LINE
8
BLACK
6
CONTINUOUS
10
5.84286
20
-2.96635
11
5.84305
21
-2.96638
0
LINE
8
BLACK
6
CONTINUOUS
10
5.84305
20
-2.96638
11
5.84323
21
-2.96639
0
LINE
8
BLACK
6
CONTINUOUS
10
5.84323
20
-2.96639
11
5.84324
21
-2.9664
0
LINE
8
BLACK
6
CONTINUOUS
10
5.84324
20
-2.9664
11
5.84324
21
-2.9664
0
LINE
8
BLACK
6
CONTINUOUS
10
5.84324
20
-2.9664
11
5.84342
21
-2.96645
0
LINE
8
BLACK
6
CONTINUOUS
10
5.84342
20
-2.96645
11
5.8436
21
-2.96651
0
LINE
8
BLACK
6
CONTINUOUS
10
5.8436
20
-2.96651
11
5.8436
21
-2.96651
0
LINE
8
BLACK
6
CONTINUOUS
10
5.8436
20
-2.96651
11
5.84361
21
-2.96651
0
LINE
8
BLACK
6
CONTINUOUS
10
5.84361
20
-2.96651
11
5.84377
21
-2.9666
0
LINE
8
BLACK
6
CONTINUOUS
10
5.84377
20
-2.9666
11
5.84393
21
-2.96669
0
LINE
8
BLACK
6
CONTINUOUS
10
5.84393
20
-2.96669
11
5.84394
21
-2.9667
0
LINE
8
BLACK
6
CONTINUOUS
10
5.84394
20
-2.9667
11
5.84395
21
-2.9667
0
LINE
8
BLACK
6
CONTINUOUS
10
5.84395
20
-2.9667
11
5.84409
21
-2.96682
0
LINE
8
BLACK
6
CONTINUOUS
10
5.84409
20
-2.96682
11
5.84423
21
-2.96694
0
LINE
8
BLACK
6
CONTINUOUS
10
5.84423
20
-2.96694
11
5.84423
21
-2.96694
0
LINE
8
BLACK
6
CONTINUOUS
10
5.84423
20
-2.96694
11
5.84424
21
-2.96695
0
LINE
8
BLACK
6
CONTINUOUS
10
5.84424
20
-2.96695
11
5.84436
21
-2.96709
0
LINE
8
BLACK
6
CONTINUOUS
10
5.84436
20
-2.96709
11
5.84447
21
-2.96724
0
LINE
8
BLACK
6
CONTINUOUS
10
5.84447
20
-2.96724
11
5.84448
21
-2.96724
0
LINE
8
BLACK
6
CONTINUOUS
10
5.84448
20
-2.96724
11
5.84448
21
-2.96725
0
LINE
8
BLACK
6
CONTINUOUS
10
5.84448
20
-2.96725
11
5.84456
21
-2.96741
0
LINE
8
BLACK
6
CONTINUOUS
10
5.84456
20
-2.96741
11
5.84465
21
-2.96758
0
LINE
8
BLACK
6
CONTINUOUS
10
5.84465
20
-2.96758
11
5.84465
21
-2.96758
0
LINE
8
BLACK
6
CONTINUOUS
10
5.84465
20
-2.96758
11
5.84466
21
-2.96759
0
LINE
8
BLACK
6
CONTINUOUS
10
5.84466
20
-2.96759
11
5.84471
21
-2.96776
0
LINE
8
BLACK
6
CONTINUOUS
10
5.84471
20
-2.96776
11
5.84476
21
-2.96794
0
LINE
8
BLACK
6
CONTINUOUS
10
5.84476
20
-2.96794
11
5.84476
21
-2.96795
0
LINE
8
BLACK
6
CONTINUOUS
10
5.84476
20
-2.96795
11
5.84476
21
-2.96796
0
LINE
8
BLACK
6
CONTINUOUS
10
5.84476
20
-2.96796
11
5.84478
21
-2.96814
0
LINE
8
BLACK
6
CONTINUOUS
10
5.84478
20
-2.96814
11
5.8448
21
-2.96833
0
LINE
8
BLACK
6
CONTINUOUS
10
5.8448
20
-2.96833
11
5.8448
21
-2.96833
0
LINE
8
BLACK
6
CONTINUOUS
10
5.8448
20
-2.96833
11
5.8448
21
-2.96834
0
LINE
8
BLACK
6
CONTINUOUS
10
5.8448
20
-2.96834
11
5.84478
21
-2.96853
0
LINE
8
BLACK
6
CONTINUOUS
10
5.84478
20
-2.96853
11
5.84476
21
-2.96871
0
LINE
8
BLACK
6
CONTINUOUS
10
5.84476
20
-2.96871
11
5.84476
21
-2.96871
0
LINE
8
BLACK
6
CONTINUOUS
10
5.84476
20
-2.96871
11
5.84476
21
-2.96872
0
LINE
8
BLACK
6
CONTINUOUS
10
5.84476
20
-2.96872
11
5.8447
21
-2.9689
0
LINE
8
BLACK
6
CONTINUOUS
10
5.8447
20
-2.9689
11
5.84465
21
-2.96908
0
LINE
8
BLACK
6
CONTINUOUS
10
5.84465
20
-2.96908
11
5.84309
21
-2.97284
0
LINE
8
BLACK
6
CONTINUOUS
10
5.84309
20
-2.97284
11
5.84218
21
-2.97741
0
LINE
8
BLACK
6
CONTINUOUS
10
5.84218
20
-2.97741
11
5.84218
21
-2.98206
0
LINE
8
BLACK
6
CONTINUOUS
10
5.84218
20
-2.98206
11
5.84309
21
-2.98662
0
LINE
8
BLACK
6
CONTINUOUS
10
5.84309
20
-2.98662
11
5.84487
21
-2.99092
0
LINE
8
BLACK
6
CONTINUOUS
10
5.84487
20
-2.99092
11
5.84746
21
-2.99479
0
LINE
8
BLACK
6
CONTINUOUS
10
5.84746
20
-2.99479
11
5.85075
21
-2.99808
0
LINE
8
BLACK
6
CONTINUOUS
10
5.85075
20
-2.99808
11
5.85461
21
-3.00067
0
LINE
8
BLACK
6
CONTINUOUS
10
5.85461
20
-3.00067
11
5.85891
21
-3.00245
0
LINE
8
BLACK
6
CONTINUOUS
10
5.85891
20
-3.00245
11
5.86348
21
-3.00335
0
LINE
8
BLACK
6
CONTINUOUS
10
5.86348
20
-3.00335
11
5.86813
21
-3.00335
0
LINE
8
BLACK
6
CONTINUOUS
10
5.86813
20
-3.00335
11
5.87269
21
-3.00245
0
LINE
8
BLACK
6
CONTINUOUS
10
5.87269
20
-3.00245
11
5.87699
21
-3.00067
0
LINE
8
BLACK
6
CONTINUOUS
10
5.87699
20
-3.00067
11
5.88049
21
-2.99833
0
LINE
8
BLACK
6
CONTINUOUS
10
5.88049
20
-2.99833
11
5.88086
21
-2.99808
0
LINE
8
BLACK
6
CONTINUOUS
10
5.88086
20
-2.99808
11
5.88415
21
-2.99479
0
LINE
8
BLACK
6
CONTINUOUS
10
5.88415
20
-2.99479
11
5.88674
21
-2.99092
0
LINE
8
BLACK
6
CONTINUOUS
10
5.88674
20
-2.99092
11
5.88852
21
-2.98662
0
LINE
8
BLACK
6
CONTINUOUS
10
5.88852
20
-2.98662
11
5.88943
21
-2.98206
0
LINE
8
BLACK
6
CONTINUOUS
10
5.88943
20
-2.98206
11
5.88943
21
-2.97741
0
LINE
8
BLACK
6
CONTINUOUS
10
5.88943
20
-2.97741
11
5.88852
21
-2.97284
0
LINE
8
BLACK
6
CONTINUOUS
10
5.88852
20
-2.97284
11
5.88699
21
-2.96914
0
LINE
8
BLACK
6
CONTINUOUS
10
5.88699
20
-2.96914
11
5.88698
21
-2.96912
0
LINE
8
BLACK
6
CONTINUOUS
10
5.88698
20
-2.96912
11
5.88698
21
-2.96912
0
LINE
8
BLACK
6
CONTINUOUS
10
5.88698
20
-2.96912
11
5.88698
21
-2.96912
0
LINE
8
BLACK
6
CONTINUOUS
10
5.88698
20
-2.96912
11
5.88697
21
-2.96912
0
LINE
8
BLACK
6
CONTINUOUS
10
5.88697
20
-2.96912
11
5.88692
21
-2.96894
0
LINE
8
BLACK
6
CONTINUOUS
10
5.88692
20
-2.96894
11
5.88687
21
-2.96875
0
LINE
8
BLACK
6
CONTINUOUS
10
5.88687
20
-2.96875
11
5.88687
21
-2.96875
0
LINE
8
BLACK
6
CONTINUOUS
10
5.88687
20
-2.96875
11
5.88687
21
-2.96875
0
LINE
8
BLACK
6
CONTINUOUS
10
5.88687
20
-2.96875
11
5.88685
21
-2.96856
0
LINE
8
BLACK
6
CONTINUOUS
10
5.88685
20
-2.96856
11
5.88684
21
-2.96837
0
LINE
8
BLACK
6
CONTINUOUS
10
5.88684
20
-2.96837
11
5.88684
21
-2.96837
0
LINE
8
BLACK
6
CONTINUOUS
10
5.88684
20
-2.96837
11
5.88684
21
-2.96836
0
LINE
8
BLACK
6
CONTINUOUS
10
5.88684
20
-2.96836
11
5.88686
21
-2.96818
0
LINE
8
BLACK
6
CONTINUOUS
10
5.88686
20
-2.96818
11
5.88688
21
-2.96799
0
LINE
8
BLACK
6
CONTINUOUS
10
5.88688
20
-2.96799
11
5.88688
21
-2.96799
0
LINE
8
BLACK
6
CONTINUOUS
10
5.88688
20
-2.96799
11
5.88688
21
-2.96798
0
LINE
8
BLACK
6
CONTINUOUS
10
5.88688
20
-2.96798
11
5.88694
21
-2.9678
0
LINE
8
BLACK
6
CONTINUOUS
10
5.88694
20
-2.9678
11
5.88699
21
-2.96762
0
LINE
8
BLACK
6
CONTINUOUS
10
5.88699
20
-2.96762
11
5.88699
21
-2.96762
0
LINE
8
BLACK
6
CONTINUOUS
10
5.88699
20
-2.96762
11
5.88699
21
-2.96762
0
LINE
8
BLACK
6
CONTINUOUS
10
5.88699
20
-2.96762
11
5.88708
21
-2.96745
0
LINE
8
BLACK
6
CONTINUOUS
10
5.88708
20
-2.96745
11
5.88717
21
-2.96729
0
LINE
8
BLACK
6
CONTINUOUS
10
5.88717
20
-2.96729
11
5.88718
21
-2.96728
0
LINE
8
BLACK
6
CONTINUOUS
10
5.88718
20
-2.96728
11
5.88718
21
-2.96728
0
LINE
8
BLACK
6
CONTINUOUS
10
5.88718
20
-2.96728
11
5.8873
21
-2.96714
0
LINE
8
BLACK
6
CONTINUOUS
10
5.8873
20
-2.96714
11
5.88742
21
-2.96699
0
LINE
8
BLACK
6
CONTINUOUS
10
5.88742
20
-2.96699
11
5.88742
21
-2.96699
0
LINE
8
BLACK
6
CONTINUOUS
10
5.88742
20
-2.96699
11
5.88742
21
-2.96698
0
LINE
8
BLACK
6
CONTINUOUS
10
5.88742
20
-2.96698
11
5.88756
21
-2.96687
0
LINE
8
BLACK
6
CONTINUOUS
10
5.88756
20
-2.96687
11
5.88772
21
-2.96675
0
LINE
8
BLACK
6
CONTINUOUS
10
5.88772
20
-2.96675
11
5.88772
21
-2.96675
0
LINE
8
BLACK
6
CONTINUOUS
10
5.88772
20
-2.96675
11
5.88772
21
-2.96674
0
LINE
8
BLACK
6
CONTINUOUS
10
5.88772
20
-2.96674
11
5.88789
21
-2.96666
0
LINE
8
BLACK
6
CONTINUOUS
10
5.88789
20
-2.96666
11
5.88806
21
-2.96657
0
LINE
8
BLACK
6
CONTINUOUS
10
5.88806
20
-2.96657
11
5.88806
21
-2.96657
0
LINE
8
BLACK
6
CONTINUOUS
10
5.88806
20
-2.96657
11
5.88806
21
-2.96657
0
LINE
8
BLACK
6
CONTINUOUS
10
5.88806
20
-2.96657
11
5.88825
21
-2.96651
0
LINE
8
BLACK
6
CONTINUOUS
10
5.88825
20
-2.96651
11
5.88842
21
-2.96646
0
LINE
8
BLACK
6
CONTINUOUS
10
5.88842
20
-2.96646
11
5.88843
21
-2.96646
0
LINE
8
BLACK
6
CONTINUOUS
10
5.88843
20
-2.96646
11
5.88843
21
-2.96646
0
LINE
8
BLACK
6
CONTINUOUS
10
5.88843
20
-2.96646
11
5.88862
21
-2.96644
0
LINE
8
BLACK
6
CONTINUOUS
10
5.88862
20
-2.96644
11
5.88881
21
-2.96642
0
LINE
8
BLACK
6
CONTINUOUS
10
5.88881
20
-2.96642
11
5.91732
21
-2.96646
0
LINE
8
BLACK
6
CONTINUOUS
10
5.91732
20
-2.96646
11
5.91834
21
-2.96578
0
LINE
8
BLACK
6
CONTINUOUS
10
5.91834
20
-2.96578
11
5.92121
21
-2.96459
0
LINE
8
BLACK
6
CONTINUOUS
10
5.92121
20
-2.96459
11
5.92425
21
-2.96398
0
LINE
8
BLACK
6
CONTINUOUS
10
5.92425
20
-2.96398
11
5.92493
21
-2.96398
0
LINE
8
BLACK
6
CONTINUOUS
10
5.92493
20
-2.96398
11
5.92575
21
-2.96299
0
LINE
8
BLACK
6
CONTINUOUS
10
5.92575
20
-2.96299
11
5.92648
21
-2.96164
0
LINE
8
BLACK
6
CONTINUOUS
10
5.92648
20
-2.96164
11
5.92694
21
-2.96017
0
LINE
8
BLACK
6
CONTINUOUS
10
5.92694
20
-2.96017
11
5.92711
21
-2.95853
0
LINE
8
BLACK
6
CONTINUOUS
10
5.92711
20
-2.95853
11
5.92744
21
-2.8956
0
LINE
8
BLACK
6
CONTINUOUS
10
5.92744
20
-2.8956
11
5.92744
21
-2.89559
0
LINE
8
BLACK
6
CONTINUOUS
10
5.92744
20
-2.89559
11
5.92744
21
-2.89559
0
LINE
8
BLACK
6
CONTINUOUS
10
5.92744
20
-2.89559
11
5.92744
21
-2.89559
0
LINE
8
BLACK
6
CONTINUOUS
10
5.92744
20
-2.89559
11
5.92744
21
-2.89557
0
LINE
8
BLACK
6
CONTINUOUS
10
5.92744
20
-2.89557
11
5.92746
21
-2.89539
0
LINE
8
BLACK
6
CONTINUOUS
10
5.92746
20
-2.89539
11
5.92748
21
-2.89521
0
LINE
8
BLACK
6
CONTINUOUS
10
5.92748
20
-2.89521
11
5.92748
21
-2.8952
0
LINE
8
BLACK
6
CONTINUOUS
10
5.92748
20
-2.8952
11
5.92748
21
-2.89519
0
LINE
8
BLACK
6
CONTINUOUS
10
5.92748
20
-2.89519
11
5.92754
21
-2.89502
0
LINE
8
BLACK
6
CONTINUOUS
10
5.92754
20
-2.89502
11
5.92759
21
-2.89484
0
LINE
8
BLACK
6
CONTINUOUS
10
5.92759
20
-2.89484
11
5.9276
21
-2.89483
0
LINE
8
BLACK
6
CONTINUOUS
10
5.9276
20
-2.89483
11
5.9276
21
-2.89482
0
LINE
8
BLACK
6
CONTINUOUS
10
5.9276
20
-2.89482
11
5.92769
21
-2.89467
0
LINE
8
BLACK
6
CONTINUOUS
10
5.92769
20
-2.89467
11
5.92778
21
-2.89451
0
LINE
8
BLACK
6
CONTINUOUS
10
5.92778
20
-2.89451
11
5.92778
21
-2.8945
0
LINE
8
BLACK
6
CONTINUOUS
10
5.92778
20
-2.8945
11
5.92779
21
-2.89449
0
LINE
8
BLACK
6
CONTINUOUS
10
5.92779
20
-2.89449
11
5.9279
21
-2.89435
0
LINE
8
BLACK
6
CONTINUOUS
10
5.9279
20
-2.89435
11
5.92802
21
-2.89421
0
LINE
8
BLACK
6
CONTINUOUS
10
5.92802
20
-2.89421
11
5.92803
21
-2.8942
0
LINE
8
BLACK
6
CONTINUOUS
10
5.92803
20
-2.8942
11
5.92804
21
-2.8942
0
LINE
8
BLACK
6
CONTINUOUS
10
5.92804
20
-2.8942
11
5.92818
21
-2.89408
0
LINE
8
BLACK
6
CONTINUOUS
10
5.92818
20
-2.89408
11
5.92832
21
-2.89397
0
LINE
8
BLACK
6
CONTINUOUS
10
5.92832
20
-2.89397
11
5.92833
21
-2.89396
0
LINE
8
BLACK
6
CONTINUOUS
10
5.92833
20
-2.89396
11
5.92834
21
-2.89396
0
LINE
8
BLACK
6
CONTINUOUS
10
5.92834
20
-2.89396
11
5.9285
21
-2.89387
0
LINE
8
BLACK
6
CONTINUOUS
10
5.9285
20
-2.89387
11
5.92866
21
-2.89379
0
LINE
8
BLACK
6
CONTINUOUS
10
5.92866
20
-2.89379
11
5.92867
21
-2.89379
0
LINE
8
BLACK
6
CONTINUOUS
10
5.92867
20
-2.89379
11
5.92868
21
-2.89378
0
LINE
8
BLACK
6
CONTINUOUS
10
5.92868
20
-2.89378
11
5.92885
21
-2.89373
0
LINE
8
BLACK
6
CONTINUOUS
10
5.92885
20
-2.89373
11
5.92903
21
-2.89368
0
LINE
8
BLACK
6
CONTINUOUS
10
5.92903
20
-2.89368
11
5.92904
21
-2.89368
0
LINE
8
BLACK
6
CONTINUOUS
10
5.92904
20
-2.89368
11
5.92905
21
-2.89367
0
LINE
8
BLACK
6
CONTINUOUS
10
5.92905
20
-2.89367
11
5.92923
21
-2.89366
0
LINE
8
BLACK
6
CONTINUOUS
10
5.92923
20
-2.89366
11
5.92941
21
-2.89364
0
LINE
8
BLACK
6
CONTINUOUS
10
5.92941
20
-2.89364
11
6.05329
21
-2.89378
0
LINE
8
BLACK
6
CONTINUOUS
10
6.05329
20
-2.89378
11
6.0533
21
-2.89378
0
LINE
8
BLACK
6
CONTINUOUS
10
6.0533
20
-2.89378
11
6.0533
21
-2.89378
0
LINE
8
BLACK
6
CONTINUOUS
10
6.0533
20
-2.89378
11
6.0533
21
-2.89378
0
LINE
8
BLACK
6
CONTINUOUS
10
6.0533
20
-2.89378
11
6.05331
21
-2.89378
0
LINE
8
BLACK
6
CONTINUOUS
10
6.05331
20
-2.89378
11
6.05349
21
-2.8938
0
LINE
8
BLACK
6
CONTINUOUS
10
6.05349
20
-2.8938
11
6.05368
21
-2.89382
0
LINE
8
BLACK
6
CONTINUOUS
10
6.05368
20
-2.89382
11
6.05369
21
-2.89382
0
LINE
8
BLACK
6
CONTINUOUS
10
6.05369
20
-2.89382
11
6.0537
21
-2.89382
0
LINE
8
BLACK
6
CONTINUOUS
10
6.0537
20
-2.89382
11
6.05387
21
-2.89388
0
LINE
8
BLACK
6
CONTINUOUS
10
6.05387
20
-2.89388
11
6.05405
21
-2.89393
0
LINE
8
BLACK
6
CONTINUOUS
10
6.05405
20
-2.89393
11
6.05405
21
-2.89394
0
LINE
8
BLACK
6
CONTINUOUS
10
6.05405
20
-2.89394
11
6.05406
21
-2.89394
0
LINE
8
BLACK
6
CONTINUOUS
10
6.05406
20
-2.89394
11
6.05422
21
-2.89403
0
LINE
8
BLACK
6
CONTINUOUS
10
6.05422
20
-2.89403
11
6.05438
21
-2.89412
0
LINE
8
BLACK
6
CONTINUOUS
10
6.05438
20
-2.89412
11
6.05439
21
-2.89412
0
LINE
8
BLACK
6
CONTINUOUS
10
6.05439
20
-2.89412
11
6.0544
21
-2.89413
0
LINE
8
BLACK
6
CONTINUOUS
10
6.0544
20
-2.89413
11
6.05454
21
-2.89424
0
LINE
8
BLACK
6
CONTINUOUS
10
6.05454
20
-2.89424
11
6.05468
21
-2.89436
0
LINE
8
BLACK
6
CONTINUOUS
10
6.05468
20
-2.89436
11
6.05469
21
-2.89437
0
LINE
8
BLACK
6
CONTINUOUS
10
6.05469
20
-2.89437
11
6.05469
21
-2.89437
0
LINE
8
BLACK
6
CONTINUOUS
10
6.05469
20
-2.89437
11
6.05481
21
-2.89452
0
LINE
8
BLACK
6
CONTINUOUS
10
6.05481
20
-2.89452
11
6.05492
21
-2.89466
0
LINE
8
BLACK
6
CONTINUOUS
10
6.05492
20
-2.89466
11
6.05493
21
-2.89467
0
LINE
8
BLACK
6
CONTINUOUS
10
6.05493
20
-2.89467
11
6.05493
21
-2.89467
0
LINE
8
BLACK
6
CONTINUOUS
10
6.05493
20
-2.89467
11
6.05502
21
-2.89484
0
LINE
8
BLACK
6
CONTINUOUS
10
6.05502
20
-2.89484
11
6.0551
21
-2.895
0
LINE
8
BLACK
6
CONTINUOUS
10
6.0551
20
-2.895
11
6.05511
21
-2.89501
0
LINE
8
BLACK
6
CONTINUOUS
10
6.05511
20
-2.89501
11
6.05511
21
-2.89501
0
LINE
8
BLACK
6
CONTINUOUS
10
6.05511
20
-2.89501
11
6.05516
21
-2.89519
0
LINE
8
BLACK
6
CONTINUOUS
10
6.05516
20
-2.89519
11
6.05521
21
-2.89537
0
LINE
8
BLACK
6
CONTINUOUS
10
6.05521
20
-2.89537
11
6.05522
21
-2.89537
0
LINE
8
BLACK
6
CONTINUOUS
10
6.05522
20
-2.89537
11
6.05522
21
-2.89538
0
LINE
8
BLACK
6
CONTINUOUS
10
6.05522
20
-2.89538
11
6.05523
21
-2.89557
0
LINE
8
BLACK
6
CONTINUOUS
10
6.05523
20
-2.89557
11
6.05525
21
-2.89575
0
LINE
8
BLACK
6
CONTINUOUS
10
6.05525
20
-2.89575
11
6.05525
21
-3.88087
0
LINE
8
BLACK
6
CONTINUOUS
10
6.05525
20
-3.88087
11
6.05525
21
-3.88089
0
LINE
8
BLACK
6
CONTINUOUS
10
6.05525
20
-3.88089
11
6.05525
21
-3.88089
0
LINE
8
BLACK
6
CONTINUOUS
10
6.05525
20
-3.88089
11
6.05525
21
-3.88089
0
LINE
8
BLACK
6
CONTINUOUS
10
6.05525
20
-3.88089
11
6.05525
21
-3.8809
0
LINE
8
BLACK
6
CONTINUOUS
10
6.05525
20
-3.8809
11
6.05523
21
-3.88108
0
LINE
8
BLACK
6
CONTINUOUS
10
6.05523
20
-3.88108
11
6.05521
21
-3.88127
0
LINE
8
BLACK
6
CONTINUOUS
10
6.05521
20
-3.88127
11
6.05521
21
-3.88128
0
LINE
8
BLACK
6
CONTINUOUS
10
6.05521
20
-3.88128
11
6.05521
21
-3.88128
0
LINE
8
BLACK
6
CONTINUOUS
10
6.05521
20
-3.88128
11
6.05515
21
-3.88146
0
LINE
8
BLACK
6
CONTINUOUS
10
6.05515
20
-3.88146
11
6.0551
21
-3.88164
0
LINE
8
BLACK
6
CONTINUOUS
10
6.0551
20
-3.88164
11
6.0551
21
-3.88164
0
LINE
8
BLACK
6
CONTINUOUS
10
6.0551
20
-3.88164
11
6.05509
21
-3.88165
0
LINE
8
BLACK
6
CONTINUOUS
10
6.05509
20
-3.88165
11
6.055
21
-3.88181
0
LINE
8
BLACK
6
CONTINUOUS
10
6.055
20
-3.88181
11
6.05492
21
-3.88197
0
LINE
8
BLACK
6
CONTINUOUS
10
6.05492
20
-3.88197
11
6.05491
21
-3.88198
0
LINE
8
BLACK
6
CONTINUOUS
10
6.05491
20
-3.88198
11
6.05491
21
-3.88199
0
LINE
8
BLACK
6
CONTINUOUS
10
6.05491
20
-3.88199
11
6.05479
21
-3.88213
0
LINE
8
BLACK
6
CONTINUOUS
10
6.05479
20
-3.88213
11
6.05467
21
-3.88227
0
LINE
8
BLACK
6
CONTINUOUS
10
6.05467
20
-3.88227
11
6.05467
21
-3.88228
0
LINE
8
BLACK
6
CONTINUOUS
10
6.05467
20
-3.88228
11
6.05466
21
-3.88228
0
LINE
8
BLACK
6
CONTINUOUS
10
6.05466
20
-3.88228
11
6.05452
21
-3.8824
0
LINE
8
BLACK
6
CONTINUOUS
10
6.05452
20
-3.8824
11
6.05437
21
-3.88251
0
LINE
8
BLACK
6
CONTINUOUS
10
6.05437
20
-3.88251
11
6.05437
21
-3.88252
0
LINE
8
BLACK
6
CONTINUOUS
10
6.05437
20
-3.88252
11
6.05436
21
-3.88252
0
LINE
8
BLACK
6
CONTINUOUS
10
6.05436
20
-3.88252
11
6.0542
21
-3.88261
0
LINE
8
BLACK
6
CONTINUOUS
10
6.0542
20
-3.88261
11
6.05403
21
-3.88269
0
LINE
8
BLACK
6
CONTINUOUS
10
6.05403
20
-3.88269
11
6.05403
21
-3.8827
0
LINE
8
BLACK
6
CONTINUOUS
10
6.05403
20
-3.8827
11
6.05402
21
-3.8827
0
LINE
8
BLACK
6
CONTINUOUS
10
6.05402
20
-3.8827
11
6.05385
21
-3.88275
0
LINE
8
BLACK
6
CONTINUOUS
10
6.05385
20
-3.88275
11
6.05367
21
-3.88281
0
LINE
8
BLACK
6
CONTINUOUS
10
6.05367
20
-3.88281
11
6.05366
21
-3.88281
0
LINE
8
BLACK
6
CONTINUOUS
10
6.05366
20
-3.88281
11
6.05365
21
-3.88281
0
LINE
8
BLACK
6
CONTINUOUS
10
6.05365
20
-3.88281
11
6.05347
21
-3.88282
0
LINE
8
BLACK
6
CONTINUOUS
10
6.05347
20
-3.88282
11
6.05328
21
-3.88284
0
LINE
8
BLACK
6
CONTINUOUS
10
6.05328
20
-3.88284
11
5.15919
21
-3.88284
0
LINE
8
BLACK
6
CONTINUOUS
10
5.15919
20
-3.88284
11
5.15918
21
-3.88284
0
LINE
8
BLACK
6
CONTINUOUS
10
5.15918
20
-3.88284
11
5.15918
21
-3.88284
0
LINE
8
BLACK
6
CONTINUOUS
10
5.15918
20
-3.88284
11
5.15918
21
-3.88284
0
LINE
8
BLACK
6
CONTINUOUS
10
5.15918
20
-3.88284
11
5.15916
21
-3.88284
0
LINE
8
BLACK
6
CONTINUOUS
10
5.15916
20
-3.88284
11
5.15898
21
-3.88282
0
LINE
8
BLACK
6
CONTINUOUS
10
5.15898
20
-3.88282
11
5.15879
21
-3.8828
0
LINE
8
BLACK
6
CONTINUOUS
10
5.15879
20
-3.8828
11
5.15879
21
-3.8828
0
LINE
8
BLACK
6
CONTINUOUS
10
5.15879
20
-3.8828
11
5.15878
21
-3.8828
0
LINE
8
BLACK
6
CONTINUOUS
10
5.15878
20
-3.8828
11
5.1586
21
-3.88274
0
LINE
8
BLACK
6
CONTINUOUS
10
5.1586
20
-3.88274
11
5.15843
21
-3.88269
0
LINE
8
BLACK
6
CONTINUOUS
10
5.15843
20
-3.88269
11
5.15842
21
-3.88269
0
LINE
8
BLACK
6
CONTINUOUS
10
5.15842
20
-3.88269
11
5.15841
21
-3.88268
0
LINE
8
BLACK
6
CONTINUOUS
10
5.15841
20
-3.88268
11
5.15825
21
-3.88259
0
LINE
8
BLACK
6
CONTINUOUS
10
5.15825
20
-3.88259
11
5.15809
21
-3.88251
0
LINE
8
BLACK
6
CONTINUOUS
10
5.15809
20
-3.88251
11
5.15808
21
-3.8825
0
LINE
8
BLACK
6
CONTINUOUS
10
5.15808
20
-3.8825
11
5.15808
21
-3.8825
0
LINE
8
BLACK
6
CONTINUOUS
10
5.15808
20
-3.8825
11
5.15794
21
-3.88238
0
LINE
8
BLACK
6
CONTINUOUS
10
5.15794
20
-3.88238
11
5.15779
21
-3.88226
0
LINE
8
BLACK
6
CONTINUOUS
10
5.15779
20
-3.88226
11
5.15779
21
-3.88226
0
LINE
8
BLACK
6
CONTINUOUS
10
5.15779
20
-3.88226
11
5.15778
21
-3.88225
0
LINE
8
BLACK
6
CONTINUOUS
10
5.15778
20
-3.88225
11
5.15767
21
-3.88211
0
LINE
8
BLACK
6
CONTINUOUS
10
5.15767
20
-3.88211
11
5.15755
21
-3.88196
0
LINE
8
BLACK
6
CONTINUOUS
10
5.15755
20
-3.88196
11
5.15755
21
-3.88196
0
LINE
8
BLACK
6
CONTINUOUS
10
5.15755
20
-3.88196
11
5.15754
21
-3.88195
0
LINE
8
BLACK
6
CONTINUOUS
10
5.15754
20
-3.88195
11
5.15746
21
-3.88179
0
LINE
8
BLACK
6
CONTINUOUS
10
5.15746
20
-3.88179
11
5.15737
21
-3.88162
0
LINE
8
BLACK
6
CONTINUOUS
10
5.15737
20
-3.88162
11
5.15737
21
-3.88162
0
LINE
8
BLACK
6
CONTINUOUS
10
5.15737
20
-3.88162
11
5.15736
21
-3.88161
0
LINE
8
BLACK
6
CONTINUOUS
10
5.15736
20
-3.88161
11
5.15731
21
-3.88144
0
LINE
8
BLACK
6
CONTINUOUS
10
5.15731
20
-3.88144
11
5.15726
21
-3.88126
0
LINE
8
BLACK
6
CONTINUOUS
10
5.15726
20
-3.88126
11
5.15726
21
-3.88125
0
LINE
8
BLACK
6
CONTINUOUS
10
5.15726
20
-3.88125
11
5.15726
21
-3.88124
0
LINE
8
BLACK
6
CONTINUOUS
10
5.15726
20
-3.88124
11
5.15724
21
-3.88106
0
LINE
8
BLACK
6
CONTINUOUS
10
5.15724
20
-3.88106
11
5.15722
21
-3.88087
0
LINE
8
BLACK
6
CONTINUOUS
10
5.15722
20
-3.88087
11
5.15722
21
-2.75146
0
LINE
8
BLACK
6
CONTINUOUS
10
5.15722
20
-2.75146
11
5.15722
21
-2.75145
0
LINE
8
BLACK
6
CONTINUOUS
10
5.15722
20
-2.75145
11
5.15722
21
-2.75145
0
LINE
8
BLACK
6
CONTINUOUS
10
5.15722
20
-2.75145
11
5.15722
21
-2.75145
0
LINE
8
BLACK
6
CONTINUOUS
10
5.15722
20
-2.75145
11
5.15722
21
-2.75144
0
LINE
8
BLACK
6
CONTINUOUS
10
5.15722
20
-2.75144
11
5.15724
21
-2.75125
0
LINE
8
BLACK
6
CONTINUOUS
10
5.15724
20
-2.75125
11
5.15726
21
-2.75107
0
LINE
8
BLACK
6
CONTINUOUS
10
5.15726
20
-2.75107
11
5.15726
21
-2.75106
0
LINE
8
BLACK
6
CONTINUOUS
10
5.15726
20
-2.75106
11
5.15726
21
-2.75106
0
LINE
8
BLACK
6
CONTINUOUS
10
5.15726
20
-2.75106
11
5.15732
21
-2.75088
0
LINE
8
BLACK
6
CONTINUOUS
10
5.15732
20
-2.75088
11
5.15737
21
-2.7507
0
LINE
8
BLACK
6
CONTINUOUS
10
5.15737
20
-2.7507
11
5.15738
21
-2.7507
0
LINE
8
BLACK
6
CONTINUOUS
10
5.15738
20
-2.7507
11
5.15738
21
-2.75069
0
LINE
8
BLACK
6
CONTINUOUS
10
5.15738
20
-2.75069
11
5.15747
21
-2.75053
0
LINE
8
BLACK
6
CONTINUOUS
10
5.15747
20
-2.75053
11
5.15756
21
-2.75036
0
LINE
8
BLACK
6
CONTINUOUS
10
5.15756
20
-2.75036
11
5.15756
21
-2.75036
0
LINE
8
BLACK
6
CONTINUOUS
10
5.15756
20
-2.75036
11
5.15757
21
-2.75035
0
LINE
8
BLACK
6
CONTINUOUS
10
5.15757
20
-2.75035
11
5.15768
21
-2.75021
0
LINE
8
BLACK
6
CONTINUOUS
10
5.15768
20
-2.75021
11
5.1578
21
-2.75007
0
LINE
8
BLACK
6
CONTINUOUS
10
5.1578
20
-2.75007
11
5.15781
21
-2.75006
0
LINE
8
BLACK
6
CONTINUOUS
10
5.15781
20
-2.75006
11
5.15781
21
-2.75006
0
LINE
8
BLACK
6
CONTINUOUS
10
5.15781
20
-2.75006
11
5.15796
21
-2.74994
0
LINE
8
BLACK
6
CONTINUOUS
10
5.15796
20
-2.74994
11
5.1581
21
-2.74982
0
LINE
8
BLACK
6
CONTINUOUS
10
5.1581
20
-2.74982
11
5.15811
21
-2.74982
0
LINE
8
BLACK
6
CONTINUOUS
10
5.15811
20
-2.74982
11
5.15811
21
-2.74982
0
LINE
8
BLACK
6
CONTINUOUS
10
5.15811
20
-2.74982
11
5.15828
21
-2.74973
0
LINE
8
BLACK
6
CONTINUOUS
10
5.15828
20
-2.74973
11
5.15844
21
-2.74964
0
LINE
8
BLACK
6
CONTINUOUS
10
5.15844
20
-2.74964
11
5.15845
21
-2.74964
0
LINE
8
BLACK
6
CONTINUOUS
10
5.15845
20
-2.74964
11
5.15845
21
-2.74964
0
LINE
8
BLACK
6
CONTINUOUS
10
5.15845
20
-2.74964
11
5.15863
21
-2.74959
0
LINE
8
BLACK
6
CONTINUOUS
10
5.15863
20
-2.74959
11
5.15881
21
-2.74953
0
LINE
8
BLACK
6
CONTINUOUS
10
5.15881
20
-2.74953
11
5.15881
21
-2.74953
0
LINE
8
BLACK
6
CONTINUOUS
10
5.15881
20
-2.74953
11
5.15882
21
-2.74953
0
LINE
8
BLACK
6
CONTINUOUS
10
5.15882
20
-2.74953
11
5.159
21
-2.74951
0
LINE
8
BLACK
6
CONTINUOUS
10
5.159
20
-2.74951
11
5.15919
21
-2.7495
0
LINE
8
BLACK
6
CONTINUOUS
10
5.15919
20
-2.7495
11
5.19882
21
-2.74949
0
LINE
8
BLACK
6
CONTINUOUS
10
5.19882
20
-2.74949
11
5.19883
21
-2.74949
0
LINE
8
BLACK
6
CONTINUOUS
10
5.19883
20
-2.74949
11
5.19883
21
-2.74949
0
LINE
8
BLACK
6
CONTINUOUS
10
5.19883
20
-2.74949
11
5.19903
21
-2.7495
0
LINE
8
BLACK
6
CONTINUOUS
10
5.19903
20
-2.7495
11
5.19919
21
-2.74948
0
LINE
8
BLACK
6
CONTINUOUS
10
5.19919
20
-2.74948
11
5.19922
21
-2.74948
0
LINE
8
BLACK
6
CONTINUOUS
10
5.19922
20
-2.74948
11
5.19931
21
-2.74948
0
LINE
8
BLACK
6
CONTINUOUS
10
5.19931
20
-2.74948
11
5.1994
21
-2.74947
0
LINE
8
BLACK
6
CONTINUOUS
10
5.1994
20
-2.74947
11
5.19956
21
-2.74947
0
LINE
8
BLACK
6
CONTINUOUS
10
5.19956
20
-2.74947
11
5.20799
21
-2.74866
0
LINE
8
BLACK
6
CONTINUOUS
10
5.20799
20
-2.74866
11
5.20842
21
-2.74857
0
LINE
8
BLACK
6
CONTINUOUS
10
5.20842
20
-2.74857
11
5.20845
21
-2.74857
0
LINE
8
BLACK
6
CONTINUOUS
10
5.20845
20
-2.74857
11
5.20845
21
-2.74857
0
LINE
8
BLACK
6
CONTINUOUS
10
5.20845
20
-2.74857
11
5.20887
21
-2.74849
0
LINE
8
BLACK
6
CONTINUOUS
10
5.20887
20
-2.74849
11
5.21699
21
-2.74605
0
LINE
8
BLACK
6
CONTINUOUS
10
5.21699
20
-2.74605
11
5.2174
21
-2.74588
0
LINE
8
BLACK
6
CONTINUOUS
10
5.2174
20
-2.74588
11
5.21742
21
-2.74587
0
LINE
8
BLACK
6
CONTINUOUS
10
5.21742
20
-2.74587
11
5.21742
21
-2.74587
0
LINE
8
BLACK
6
CONTINUOUS
10
5.21742
20
-2.74587
11
5.21782
21
-2.74571
0
LINE
8
BLACK
6
CONTINUOUS
10
5.21782
20
-2.74571
11
5.22531
21
-2.74174
0
LINE
8
BLACK
6
CONTINUOUS
10
5.22531
20
-2.74174
11
5.22568
21
-2.7415
0
LINE
8
BLACK
6
CONTINUOUS
10
5.22568
20
-2.7415
11
5.2257
21
-2.74148
0
LINE
8
BLACK
6
CONTINUOUS
10
5.2257
20
-2.74148
11
5.22606
21
-2.74125
0
LINE
8
BLACK
6
CONTINUOUS
10
5.22606
20
-2.74125
11
5.23264
21
-2.7359
0
LINE
8
BLACK
6
CONTINUOUS
10
5.23264
20
-2.7359
11
5.23295
21
-2.73559
0
LINE
8
BLACK
6
CONTINUOUS
10
5.23295
20
-2.73559
11
5.23297
21
-2.73557
0
LINE
8
BLACK
6
CONTINUOUS
10
5.23297
20
-2.73557
11
5.23297
21
-2.73557
0
LINE
8
BLACK
6
CONTINUOUS
10
5.23297
20
-2.73557
11
5.23328
21
-2.73527
0
LINE
8
BLACK
6
CONTINUOUS
10
5.23328
20
-2.73527
11
5.23869
21
-2.72875
0
LINE
8
BLACK
6
CONTINUOUS
10
5.23869
20
-2.72875
11
5.23894
21
-2.72838
0
LINE
8
BLACK
6
CONTINUOUS
10
5.23894
20
-2.72838
11
5.23895
21
-2.72836
0
LINE
8
BLACK
6
CONTINUOUS
10
5.23895
20
-2.72836
11
5.2392
21
-2.72801
0
LINE
8
BLACK
6
CONTINUOUS
10
5.2392
20
-2.72801
11
5.24324
21
-2.72055
0
LINE
8
BLACK
6
CONTINUOUS
10
5.24324
20
-2.72055
11
5.24341
21
-2.72015
0
LINE
8
BLACK
6
CONTINUOUS
10
5.24341
20
-2.72015
11
5.24342
21
-2.72012
0
LINE
8
BLACK
6
CONTINUOUS
10
5.24342
20
-2.72012
11
5.24342
21
-2.72012
0
LINE
8
BLACK
6
CONTINUOUS
10
5.24342
20
-2.72012
11
5.24359
21
-2.71973
0
LINE
8
BLACK
6
CONTINUOUS
10
5.24359
20
-2.71973
11
5.24611
21
-2.71164
0
LINE
8
BLACK
6
CONTINUOUS
10
5.24611
20
-2.71164
11
5.2462
21
-2.71121
0
LINE
8
BLACK
6
CONTINUOUS
10
5.2462
20
-2.71121
11
5.2462
21
-2.71118
0
LINE
8
BLACK
6
CONTINUOUS
10
5.2462
20
-2.71118
11
5.2462
21
-2.71118
0
LINE
8
BLACK
6
CONTINUOUS
10
5.2462
20
-2.71118
11
5.24629
21
-2.71076
0
LINE
8
BLACK
6
CONTINUOUS
10
5.24629
20
-2.71076
11
5.24714
21
-2.70279
0
LINE
8
BLACK
6
CONTINUOUS
10
5.24714
20
-2.70279
11
5.24714
21
-2.70276
0
LINE
8
BLACK
6
CONTINUOUS
10
5.24714
20
-2.70276
11
5.24715
21
-2.70273
0
LINE
8
BLACK
6
CONTINUOUS
10
5.24715
20
-2.70273
11
5.24722
21
-2.70201
0
LINE
8
BLACK
6
CONTINUOUS
10
5.24722
20
-2.70201
11
5.24722
21
-2.24627
0
LINE
8
BLACK
6
CONTINUOUS
10
5.24722
20
-2.24627
11
5.24722
21
-2.24624
0
LINE
8
BLACK
6
CONTINUOUS
10
5.24722
20
-2.24624
11
5.24723
21
-2.24614
0
LINE
8
BLACK
6
CONTINUOUS
10
5.24723
20
-2.24614
11
5.24723
21
-2.24603
0
LINE
8
BLACK
6
CONTINUOUS
10
5.24723
20
-2.24603
11
5.24725
21
-2.24591
0
LINE
8
BLACK
6
CONTINUOUS
10
5.24725
20
-2.24591
11
5.24725
21
-2.24589
0
LINE
8
BLACK
6
CONTINUOUS
10
5.24725
20
-2.24589
11
5.24727
21
-2.2458
0
LINE
8
BLACK
6
CONTINUOUS
10
5.24727
20
-2.2458
11
5.24729
21
-2.24564
0
LINE
8
BLACK
6
CONTINUOUS
10
5.24729
20
-2.24564
11
5.24729
21
-2.24561
0
LINE
8
BLACK
6
CONTINUOUS
10
5.24729
20
-2.24561
11
5.24733
21
-2.24545
0
LINE
8
BLACK
6
CONTINUOUS
10
5.24733
20
-2.24545
11
5.24736
21
-2.24528
0
LINE
8
BLACK
6
CONTINUOUS
10
5.24736
20
-2.24528
11
5.24747
21
-2.24491
0
LINE
8
BLACK
6
CONTINUOUS
10
5.24747
20
-2.24491
11
5.24748
21
-2.24488
0
LINE
8
BLACK
6
CONTINUOUS
10
5.24748
20
-2.24488
11
5.2475
21
-2.24482
0
LINE
8
BLACK
6
CONTINUOUS
10
5.2475
20
-2.24482
11
5.24752
21
-2.24475
0
LINE
8
BLACK
6
CONTINUOUS
10
5.24752
20
-2.24475
11
5.24756
21
-2.24465
0
LINE
8
BLACK
6
CONTINUOUS
10
5.24756
20
-2.24465
11
5.24757
21
-2.24463
0
LINE
8
BLACK
6
CONTINUOUS
10
5.24757
20
-2.24463
11
5.24762
21
-2.24453
0
LINE
8
BLACK
6
CONTINUOUS
10
5.24762
20
-2.24453
11
5.24766
21
-2.24443
0
LINE
8
BLACK
6
CONTINUOUS
10
5.24766
20
-2.24443
11
5.24767
21
-2.24442
0
LINE
8
BLACK
6
CONTINUOUS
10
5.24767
20
-2.24442
11
5.24784
21
-2.24408
0
LINE
8
BLACK
6
CONTINUOUS
10
5.24784
20
-2.24408
11
5.24785
21
-2.24408
0
LINE
8
BLACK
6
CONTINUOUS
10
5.24785
20
-2.24408
11
5.24785
21
-2.24408
0
LINE
8
BLACK
6
CONTINUOUS
10
5.24785
20
-2.24408
11
5.24785
21
-2.24408
0
LINE
8
BLACK
6
CONTINUOUS
10
5.24785
20
-2.24408
11
5.24786
21
-2.24406
0
LINE
8
BLACK
6
CONTINUOUS
10
5.24786
20
-2.24406
11
5.24796
21
-2.24391
0
LINE
8
BLACK
6
CONTINUOUS
10
5.24796
20
-2.24391
11
5.24806
21
-2.24376
0
LINE
8
BLACK
6
CONTINUOUS
10
5.24806
20
-2.24376
11
5.24807
21
-2.24375
0
LINE
8
BLACK
6
CONTINUOUS
10
5.24807
20
-2.24375
11
5.24808
21
-2.24374
0
LINE
8
BLACK
6
CONTINUOUS
10
5.24808
20
-2.24374
11
5.24812
21
-2.2437
0
LINE
8
BLACK
6
CONTINUOUS
10
5.24812
20
-2.2437
11
5.24827
21
-2.24352
0
LINE
8
BLACK
6
CONTINUOUS
10
5.24827
20
-2.24352
11
5.24828
21
-2.2435
0
LINE
8
BLACK
6
CONTINUOUS
10
5.24828
20
-2.2435
11
5.24835
21
-2.24343
0
LINE
8
BLACK
6
CONTINUOUS
10
5.24835
20
-2.24343
11
5.24841
21
-2.24336
0
LINE
8
BLACK
6
CONTINUOUS
10
5.24841
20
-2.24336
11
5.24843
21
-2.24334
0
LINE
8
BLACK
6
CONTINUOUS
10
5.24843
20
-2.24334
11
5.24845
21
-2.24332
0
LINE
8
BLACK
6
CONTINUOUS
10
5.24845
20
-2.24332
11
5.2485
21
-2.24329
0
LINE
8
BLACK
6
CONTINUOUS
10
5.2485
20
-2.24329
11
5.24854
21
-2.24324
0
LINE
8
BLACK
6
CONTINUOUS
10
5.24854
20
-2.24324
11
5.2487
21
-2.24311
0
LINE
8
BLACK
6
CONTINUOUS
10
5.2487
20
-2.24311
11
5.24872
21
-2.2431
0
LINE
8
BLACK
6
CONTINUOUS
10
5.24872
20
-2.2431
11
5.24881
21
-2.24304
0
LINE
8
BLACK
6
CONTINUOUS
10
5.24881
20
-2.24304
11
5.24889
21
-2.24297
0
LINE
8
BLACK
6
CONTINUOUS
10
5.24889
20
-2.24297
11
5.24894
21
-2.24294
0
LINE
8
BLACK
6
CONTINUOUS
10
5.24894
20
-2.24294
11
5.24896
21
-2.24292
0
LINE
8
BLACK
6
CONTINUOUS
10
5.24896
20
-2.24292
11
5.24896
21
-2.24292
0
LINE
8
BLACK
6
CONTINUOUS
10
5.24896
20
-2.24292
11
5.24896
21
-2.24292
0
LINE
8
BLACK
6
CONTINUOUS
10
5.24896
20
-2.24292
11
5.24936
21
-2.24267
0
LINE
8
BLACK
6
CONTINUOUS
10
5.24936
20
-2.24267
11
5.24939
21
-2.24265
0
LINE
8
BLACK
6
CONTINUOUS
10
5.24939
20
-2.24265
11
5.24943
21
-2.24263
0
LINE
8
BLACK
6
CONTINUOUS
10
5.24943
20
-2.24263
11
5.24947
21
-2.24261
0
LINE
8
BLACK
6
CONTINUOUS
10
5.24947
20
-2.24261
11
5.24952
21
-2.24258
0
LINE
8
BLACK
6
CONTINUOUS
10
5.24952
20
-2.24258
11
5.24955
21
-2.24257
0
LINE
8
BLACK
6
CONTINUOUS
10
5.24955
20
-2.24257
11
5.2496
21
-2.24254
0
LINE
8
BLACK
6
CONTINUOUS
10
5.2496
20
-2.24254
11
5.24966
21
-2.24251
0
LINE
8
BLACK
6
CONTINUOUS
10
5.24966
20
-2.24251
11
5.24967
21
-2.2425
0
LINE
8
BLACK
6
CONTINUOUS
10
5.24967
20
-2.2425
11
5.2497
21
-2.24249
0
LINE
8
BLACK
6
CONTINUOUS
10
5.2497
20
-2.24249
11
5.2498
21
-2.24246
0
LINE
8
BLACK
6
CONTINUOUS
10
5.2498
20
-2.24246
11
5.24991
21
-2.24242
0
LINE
8
BLACK
6
CONTINUOUS
10
5.24991
20
-2.24242
11
5.24992
21
-2.24241
0
LINE
8
BLACK
6
CONTINUOUS
10
5.24992
20
-2.24241
11
5.24992
21
-2.24241
0
LINE
8
BLACK
6
CONTINUOUS
10
5.24992
20
-2.24241
11
5.24992
21
-2.24241
0
LINE
8
BLACK
6
CONTINUOUS
10
5.24992
20
-2.24241
11
5.24992
21
-2.24241
0
LINE
8
BLACK
6
CONTINUOUS
10
5.24992
20
-2.24241
11
5.24994
21
-2.24241
0
LINE
8
BLACK
6
CONTINUOUS
10
5.24994
20
-2.24241
11
5.25001
21
-2.24239
0
LINE
8
BLACK
6
CONTINUOUS
10
5.25001
20
-2.24239
11
5.25007
21
-2.24238
0
LINE
8
BLACK
6
CONTINUOUS
10
5.25007
20
-2.24238
11
5.25009
21
-2.24237
0
LINE
8
BLACK
6
CONTINUOUS
10
5.25009
20
-2.24237
11
5.25032
21
-2.2423
0
LINE
8
BLACK
6
CONTINUOUS
10
5.25032
20
-2.2423
11
5.25035
21
-2.24229
0
LINE
8
BLACK
6
CONTINUOUS
10
5.25035
20
-2.24229
11
5.2505
21
-2.24227
0
LINE
8
BLACK
6
CONTINUOUS
10
5.2505
20
-2.24227
11
5.25065
21
-2.24223
0
LINE
8
BLACK
6
CONTINUOUS
10
5.25065
20
-2.24223
11
5.25101
21
-2.24219
0
LINE
8
BLACK
6
CONTINUOUS
10
5.25101
20
-2.24219
11
5.25103
21
-2.24219
0
LINE
8
BLACK
6
CONTINUOUS
10
5.25103
20
-2.24219
11
5.25114
21
-2.24218
0
LINE
8
BLACK
6
CONTINUOUS
10
5.25114
20
-2.24218
11
5.25125
21
-2.24217
0
LINE
8
BLACK
6
CONTINUOUS
10
5.25125
20
-2.24217
11
5.96116
21
-2.24217
0
LINE
8
BLACK
6
CONTINUOUS
10
5.96116
20
-2.24217
11
5.96119
21
-2.24217
0
LINE
8
BLACK
6
CONTINUOUS
10
5.96119
20
-2.24217
11
5.96129
21
-2.24219
0
LINE
8
BLACK
6
CONTINUOUS
10
5.96129
20
-2.24219
11
5.96139
21
-2.24219
0
LINE
8
BLACK
6
CONTINUOUS
10
5.96139
20
-2.24219
11
5.96151
21
-2.2422
0
LINE
8
BLACK
6
CONTINUOUS
10
5.96151
20
-2.2422
11
5.96154
21
-2.24221
0
LINE
8
BLACK
6
CONTINUOUS
10
5.96154
20
-2.24221
11
5.96162
21
-2.24222
0
LINE
8
BLACK
6
CONTINUOUS
10
5.96162
20
-2.24222
11
5.96178
21
-2.24224
0
LINE
8
BLACK
6
CONTINUOUS
10
5.96178
20
-2.24224
11
5.96181
21
-2.24224
0
LINE
8
BLACK
6
CONTINUOUS
10
5.96181
20
-2.24224
11
5.96198
21
-2.24228
0
LINE
8
BLACK
6
CONTINUOUS
10
5.96198
20
-2.24228
11
5.96214
21
-2.24231
0
LINE
8
BLACK
6
CONTINUOUS
10
5.96214
20
-2.24231
11
5.96252
21
-2.24242
0
LINE
8
BLACK
6
CONTINUOUS
10
5.96252
20
-2.24242
11
5.96255
21
-2.24243
0
LINE
8
BLACK
6
CONTINUOUS
10
5.96255
20
-2.24243
11
5.96261
21
-2.24245
0
LINE
8
BLACK
6
CONTINUOUS
10
5.96261
20
-2.24245
11
5.96267
21
-2.24247
0
LINE
8
BLACK
6
CONTINUOUS
10
5.96267
20
-2.24247
11
5.96277
21
-2.24251
0
LINE
8
BLACK
6
CONTINUOUS
10
5.96277
20
-2.24251
11
5.9628
21
-2.24252
0
LINE
8
BLACK
6
CONTINUOUS
10
5.9628
20
-2.24252
11
5.9629
21
-2.24257
0
LINE
8
BLACK
6
CONTINUOUS
10
5.9629
20
-2.24257
11
5.963
21
-2.24261
0
LINE
8
BLACK
6
CONTINUOUS
10
5.963
20
-2.24261
11
5.96301
21
-2.24262
0
LINE
8
BLACK
6
CONTINUOUS
10
5.96301
20
-2.24262
11
5.96334
21
-2.2428
0
LINE
8
BLACK
6
CONTINUOUS
10
5.96334
20
-2.2428
11
5.96334
21
-2.2428
0
LINE
8
BLACK
6
CONTINUOUS
10
5.96334
20
-2.2428
11
5.96334
21
-2.2428
0
LINE
8
BLACK
6
CONTINUOUS
10
5.96334
20
-2.2428
11
5.96334
21
-2.2428
0
LINE
8
BLACK
6
CONTINUOUS
10
5.96334
20
-2.2428
11
5.96337
21
-2.24281
0
LINE
8
BLACK
6
CONTINUOUS
10
5.96337
20
-2.24281
11
5.96351
21
-2.24291
0
LINE
8
BLACK
6
CONTINUOUS
10
5.96351
20
-2.24291
11
5.96366
21
-2.24301
0
LINE
8
BLACK
6
CONTINUOUS
10
5.96366
20
-2.24301
11
5.96367
21
-2.24302
0
LINE
8
BLACK
6
CONTINUOUS
10
5.96367
20
-2.24302
11
5.96368
21
-2.24303
0
LINE
8
BLACK
6
CONTINUOUS
10
5.96368
20
-2.24303
11
5.96372
21
-2.24307
0
LINE
8
BLACK
6
CONTINUOUS
10
5.96372
20
-2.24307
11
5.9639
21
-2.24322
0
LINE
8
BLACK
6
CONTINUOUS
10
5.9639
20
-2.24322
11
5.96393
21
-2.24324
0
LINE
8
BLACK
6
CONTINUOUS
10
5.96393
20
-2.24324
11
5.96399
21
-2.2433
0
LINE
8
BLACK
6
CONTINUOUS
10
5.96399
20
-2.2433
11
5.96407
21
-2.24337
0
LINE
8
BLACK
6
CONTINUOUS
10
5.96407
20
-2.24337
11
5.96409
21
-2.24339
0
LINE
8
BLACK
6
CONTINUOUS
10
5.96409
20
-2.24339
11
5.96411
21
-2.24341
0
LINE
8
BLACK
6
CONTINUOUS
10
5.96411
20
-2.24341
11
5.96414
21
-2.24345
0
LINE
8
BLACK
6
CONTINUOUS
10
5.96414
20
-2.24345
11
5.96418
21
-2.24349
0
LINE
8
BLACK
6
CONTINUOUS
10
5.96418
20
-2.24349
11
5.96431
21
-2.24365
0
LINE
8
BLACK
6
CONTINUOUS
10
5.96431
20
-2.24365
11
5.96433
21
-2.24367
0
LINE
8
BLACK
6
CONTINUOUS
10
5.96433
20
-2.24367
11
5.96439
21
-2.24376
0
LINE
8
BLACK
6
CONTINUOUS
10
5.96439
20
-2.24376
11
5.96446
21
-2.24384
0
LINE
8
BLACK
6
CONTINUOUS
10
5.96446
20
-2.24384
11
5.96449
21
-2.24389
0
LINE
8
BLACK
6
CONTINUOUS
10
5.96449
20
-2.24389
11
5.9645
21
-2.24391
0
LINE
8
BLACK
6
CONTINUOUS
10
5.9645
20
-2.24391
11
5.9645
21
-2.24391
0
LINE
8
BLACK
6
CONTINUOUS
10
5.9645
20
-2.24391
11
5.9645
21
-2.24391
0
LINE
8
BLACK
6
CONTINUOUS
10
5.9645
20
-2.24391
11
5.96476
21
-2.24431
0
LINE
8
BLACK
6
CONTINUOUS
10
5.96476
20
-2.24431
11
5.96477
21
-2.24434
0
LINE
8
BLACK
6
CONTINUOUS
10
5.96477
20
-2.24434
11
5.96479
21
-2.24438
0
LINE
8
BLACK
6
CONTINUOUS
10
5.96479
20
-2.24438
11
5.96482
21
-2.24442
0
LINE
8
BLACK
6
CONTINUOUS
10
5.96482
20
-2.24442
11
5.96485
21
-2.24447
0
LINE
8
BLACK
6
CONTINUOUS
10
5.96485
20
-2.24447
11
5.96486
21
-2.2445
0
LINE
8
BLACK
6
CONTINUOUS
10
5.96486
20
-2.2445
11
5.96488
21
-2.24456
0
LINE
8
BLACK
6
CONTINUOUS
10
5.96488
20
-2.24456
11
5.96491
21
-2.24461
0
LINE
8
BLACK
6
CONTINUOUS
10
5.96491
20
-2.24461
11
5.96492
21
-2.24463
0
LINE
8
BLACK
6
CONTINUOUS
10
5.96492
20
-2.24463
11
5.96493
21
-2.24465
0
LINE
8
BLACK
6
CONTINUOUS
10
5.96493
20
-2.24465
11
5.96497
21
-2.24476
0
LINE
8
BLACK
6
CONTINUOUS
10
5.96497
20
-2.24476
11
5.96501
21
-2.24486
0
LINE
8
BLACK
6
CONTINUOUS
10
5.96501
20
-2.24486
11
5.96501
21
-2.24487
0
LINE
8
BLACK
6
CONTINUOUS
10
5.96501
20
-2.24487
11
5.96501
21
-2.24487
0
LINE
8
BLACK
6
CONTINUOUS
10
5.96501
20
-2.24487
11
5.96501
21
-2.24487
0
LINE
8
BLACK
6
CONTINUOUS
10
5.96501
20
-2.24487
11
5.96501
21
-2.24487
0
LINE
8
BLACK
6
CONTINUOUS
10
5.96501
20
-2.24487
11
5.96502
21
-2.24489
0
LINE
8
BLACK
6
CONTINUOUS
10
5.96502
20
-2.24489
11
5.96503
21
-2.24496
0
LINE
8
BLACK
6
CONTINUOUS
10
5.96503
20
-2.24496
11
5.96505
21
-2.24502
0
LINE
8
BLACK
6
CONTINUOUS
10
5.96505
20
-2.24502
11
5.96505
21
-2.24504
0
LINE
8
BLACK
6
CONTINUOUS
10
5.96505
20
-2.24504
11
5.96512
21
-2.24528
0
LINE
8
BLACK
6
CONTINUOUS
10
5.96512
20
-2.24528
11
5.96513
21
-2.2453
0
LINE
8
BLACK
6
CONTINUOUS
10
5.96513
20
-2.2453
11
5.96516
21
-2.24545
0
LINE
8
BLACK
6
CONTINUOUS
10
5.96516
20
-2.24545
11
5.96519
21
-2.2456
0
LINE
8
BLACK
6
CONTINUOUS
10
5.96519
20
-2.2456
11
5.96524
21
-2.24596
0
LINE
8
BLACK
6
CONTINUOUS
10
5.96524
20
-2.24596
11
5.96524
21
-2.24599
0
LINE
8
BLACK
6
CONTINUOUS
10
5.96524
20
-2.24599
11
5.96524
21
-2.24609
0
LINE
8
BLACK
6
CONTINUOUS
10
5.96524
20
-2.24609
11
5.96525
21
-2.2462
0
LINE
8
BLACK
6
CONTINUOUS
10
5.96525
20
-2.2462
11
5.96525
21
-2.71125
0
LINE
8
BLACK
6
CONTINUOUS
10
5.96525
20
-2.71125
11
5.96525
21
-2.71126
0
LINE
8
BLACK
6
CONTINUOUS
10
5.96525
20
-2.71126
11
5.96525
21
-2.71126
0
LINE
8
BLACK
6
CONTINUOUS
10
5.96525
20
-2.71126
11
5.96525
21
-2.71146
0
LINE
8
BLACK
6
CONTINUOUS
10
5.96525
20
-2.71146
11
5.96527
21
-2.71162
0
LINE
8
BLACK
6
CONTINUOUS
10
5.96527
20
-2.71162
11
5.96527
21
-2.71165
0
LINE
8
BLACK
6
CONTINUOUS
10
5.96527
20
-2.71165
11
5.96527
21
-2.71174
0
LINE
8
BLACK
6
CONTINUOUS
10
5.96527
20
-2.71174
11
5.96527
21
-2.71183
0
LINE
8
BLACK
6
CONTINUOUS
10
5.96527
20
-2.71183
11
5.96527
21
-2.71199
0
LINE
8
BLACK
6
CONTINUOUS
10
5.96527
20
-2.71199
11
5.96574
21
-2.71678
0
LINE
8
BLACK
6
CONTINUOUS
10
5.96574
20
-2.71678
11
5.96574
21
-2.7168
0
LINE
8
BLACK
6
CONTINUOUS
10
5.96574
20
-2.7168
11
5.96574
21
-2.71689
0
LINE
8
BLACK
6
CONTINUOUS
10
5.96574
20
-2.71689
11
5.96575
21
-2.71698
0
LINE
8
BLACK
6
CONTINUOUS
10
5.96575
20
-2.71698
11
5.96574
21
-2.71708
0
LINE
8
BLACK
6
CONTINUOUS
10
5.96574
20
-2.71708
11
5.96573
21
-2.71719
0
LINE
8
BLACK
6
CONTINUOUS
10
5.96573
20
-2.71719
11
5.96572
21
-2.71727
0
LINE
8
BLACK
6
CONTINUOUS
10
5.96572
20
-2.71727
11
5.96571
21
-2.71736
0
LINE
8
BLACK
6
CONTINUOUS
10
5.96571
20
-2.71736
11
5.96568
21
-2.71746
0
LINE
8
BLACK
6
CONTINUOUS
10
5.96568
20
-2.71746
11
5.96565
21
-2.71756
0
LINE
8
BLACK
6
CONTINUOUS
10
5.96565
20
-2.71756
11
5.96562
21
-2.71765
0
LINE
8
BLACK
6
CONTINUOUS
10
5.96562
20
-2.71765
11
5.96559
21
-2.71773
0
LINE
8
BLACK
6
CONTINUOUS
10
5.96559
20
-2.71773
11
5.96554
21
-2.71782
0
LINE
8
BLACK
6
CONTINUOUS
10
5.96554
20
-2.71782
11
5.9655
21
-2.71792
0
LINE
8
BLACK
6
CONTINUOUS
10
5.9655
20
-2.71792
11
5.96545
21
-2.71799
0
LINE
8
BLACK
6
CONTINUOUS
10
5.96545
20
-2.71799
11
5.96541
21
-2.71807
0
LINE
8
BLACK
6
CONTINUOUS
10
5.96541
20
-2.71807
11
5.96534
21
-2.71815
0
LINE
8
BLACK
6
CONTINUOUS
10
5.96534
20
-2.71815
11
5.96528
21
-2.71823
0
LINE
8
BLACK
6
CONTINUOUS
10
5.96528
20
-2.71823
11
5.96522
21
-2.7183
0
LINE
8
BLACK
6
CONTINUOUS
10
5.96522
20
-2.7183
11
5.96516
21
-2.71836
0
LINE
8
BLACK
6
CONTINUOUS
10
5.96516
20
-2.71836
11
5.96508
21
-2.71843
0
LINE
8
BLACK
6
CONTINUOUS
10
5.96508
20
-2.71843
11
5.96501
21
-2.7185
0
LINE
8
BLACK
6
CONTINUOUS
10
5.96501
20
-2.7185
11
5.96494
21
-2.71855
0
LINE
8
BLACK
6
CONTINUOUS
10
5.96494
20
-2.71855
11
5.96487
21
-2.71861
0
LINE
8
BLACK
6
CONTINUOUS
10
5.96487
20
-2.71861
11
5.96477
21
-2.71866
0
LINE
8
BLACK
6
CONTINUOUS
10
5.96477
20
-2.71866
11
5.96469
21
-2.71871
0
LINE
8
BLACK
6
CONTINUOUS
10
5.96469
20
-2.71871
11
5.96461
21
-2.71875
0
LINE
8
BLACK
6
CONTINUOUS
10
5.96461
20
-2.71875
11
5.96453
21
-2.71879
0
LINE
8
BLACK
6
CONTINUOUS
10
5.96453
20
-2.71879
11
5.96443
21
-2.71882
0
LINE
8
BLACK
6
CONTINUOUS
10
5.96443
20
-2.71882
11
5.96433
21
-2.71886
0
LINE
8
BLACK
6
CONTINUOUS
10
5.96433
20
-2.71886
11
5.96424
21
-2.71887
0
LINE
8
BLACK
6
CONTINUOUS
10
5.96424
20
-2.71887
11
5.96416
21
-2.7189
0
LINE
8
BLACK
6
CONTINUOUS
10
5.96416
20
-2.7189
11
5.96406
21
-2.71891
0
LINE
8
BLACK
6
CONTINUOUS
10
5.96406
20
-2.71891
11
5.96395
21
-2.71893
0
LINE
8
BLACK
6
CONTINUOUS
10
5.96395
20
-2.71893
11
5.96387
21
-2.71893
0
LINE
8
BLACK
6
CONTINUOUS
10
5.96387
20
-2.71893
11
5.96378
21
-2.71894
0
LINE
8
BLACK
6
CONTINUOUS
10
5.96378
20
-2.71894
11
5.51343
21
-2.71863
0
LINE
8
BLACK
6
CONTINUOUS
10
5.51343
20
-2.71863
11
5.51184
21
-2.71878
0
LINE
8
BLACK
6
CONTINUOUS
10
5.51184
20
-2.71878
11
5.51036
21
-2.71922
0
LINE
8
BLACK
6
CONTINUOUS
10
5.51036
20
-2.71922
11
5.50899
21
-2.71994
0
LINE
8
BLACK
6
CONTINUOUS
10
5.50899
20
-2.71994
11
5.5078
21
-2.72091
0
LINE
8
BLACK
6
CONTINUOUS
10
5.5078
20
-2.72091
11
5.50681
21
-2.7221
0
LINE
8
BLACK
6
CONTINUOUS
10
5.50681
20
-2.7221
11
5.50608
21
-2.72346
0
LINE
8
BLACK
6
CONTINUOUS
10
5.50608
20
-2.72346
11
5.50562
21
-2.72493
0
LINE
8
BLACK
6
CONTINUOUS
10
5.50562
20
-2.72493
11
5.50545
21
-2.72656
0
LINE
8
BLACK
6
CONTINUOUS
10
5.50545
20
-2.72656
11
5.50426
21
-2.95786
0
LINE
8
BLACK
6
CONTINUOUS
10
5.50426
20
-2.95786
11
5.50442
21
-2.95952
0
LINE
8
BLACK
6
CONTINUOUS
10
5.50442
20
-2.95952
11
5.50487
21
-2.961
0
LINE
8
BLACK
6
CONTINUOUS
10
5.50487
20
-2.961
11
5.50559
21
-2.96236
0
LINE
8
BLACK
6
CONTINUOUS
10
5.50559
20
-2.96236
11
5.50657
21
-2.96355
0
LINE
8
BLACK
6
CONTINUOUS
10
5.50657
20
-2.96355
11
5.50776
21
-2.96453
0
LINE
8
BLACK
6
CONTINUOUS
10
5.50776
20
-2.96453
11
5.50912
21
-2.96526
0
LINE
8
BLACK
6
CONTINUOUS
10
5.50912
20
-2.96526
11
5.51059
21
-2.96571
0
LINE
8
BLACK
6
CONTINUOUS
10
5.51059
20
-2.96571
11
5.51222
21
-2.96587
0
LINE
8
BLACK
6
CONTINUOUS
10
5.51222
20
-2.96587
11
5.84283
21
-2.96635
0
LINE
8
BLACK
6
CONTINUOUS
10
5.84283
20
-2.96635
11
5.84285
21
-2.96635
0
LINE
8
BLACK
6
CONTINUOUS
10
5.84285
20
-2.96635
11
5.84285
21
-2.96635
0
LINE
8
BLACK
6
CONTINUOUS
10
5.84285
20
-2.96635
11
5.84286
21
-2.96635
0
LINE
8
BLACK
6
CONTINUOUS
10
5.6411
20
-3.52847
11
5.63806
21
-3.52908
0
LINE
8
BLACK
6
CONTINUOUS
10
5.63806
20
-3.52908
11
5.63519
21
-3.53026
0
LINE
8
BLACK
6
CONTINUOUS
10
5.63519
20
-3.53026
11
5.63262
21
-3.53199
0
LINE
8
BLACK
6
CONTINUOUS
10
5.63262
20
-3.53199
11
5.63042
21
-3.53418
0
LINE
8
BLACK
6
CONTINUOUS
10
5.63042
20
-3.53418
11
5.6287
21
-3.53676
0
LINE
8
BLACK
6
CONTINUOUS
10
5.6287
20
-3.53676
11
5.62751
21
-3.53963
0
LINE
8
BLACK
6
CONTINUOUS
10
5.62751
20
-3.53963
11
5.62691
21
-3.54267
0
LINE
8
BLACK
6
CONTINUOUS
10
5.62691
20
-3.54267
11
5.62691
21
-3.54577
0
LINE
8
BLACK
6
CONTINUOUS
10
5.62691
20
-3.54577
11
5.62751
21
-3.54881
0
LINE
8
BLACK
6
CONTINUOUS
10
5.62751
20
-3.54881
11
5.6287
21
-3.55168
0
LINE
8
BLACK
6
CONTINUOUS
10
5.6287
20
-3.55168
11
5.63042
21
-3.55426
0
LINE
8
BLACK
6
CONTINUOUS
10
5.63042
20
-3.55426
11
5.63262
21
-3.55645
0
LINE
8
BLACK
6
CONTINUOUS
10
5.63262
20
-3.55645
11
5.63519
21
-3.55818
0
LINE
8
BLACK
6
CONTINUOUS
10
5.63519
20
-3.55818
11
5.63806
21
-3.55936
0
LINE
8
BLACK
6
CONTINUOUS
10
5.63806
20
-3.55936
11
5.6411
21
-3.55997
0
LINE
8
BLACK
6
CONTINUOUS
10
5.6411
20
-3.55997
11
5.6442
21
-3.55997
0
LINE
8
BLACK
6
CONTINUOUS
10
5.6442
20
-3.55997
11
5.64725
21
-3.55936
0
LINE
8
BLACK
6
CONTINUOUS
10
5.64725
20
-3.55936
11
5.65011
21
-3.55818
0
LINE
8
BLACK
6
CONTINUOUS
10
5.65011
20
-3.55818
11
5.65269
21
-3.55645
0
LINE
8
BLACK
6
CONTINUOUS
10
5.65269
20
-3.55645
11
5.65489
21
-3.55426
0
LINE
8
BLACK
6
CONTINUOUS
10
5.65489
20
-3.55426
11
5.65661
21
-3.55168
0
LINE
8
BLACK
6
CONTINUOUS
10
5.65661
20
-3.55168
11
5.6578
21
-3.54881
0
LINE
8
BLACK
6
CONTINUOUS
10
5.6578
20
-3.54881
11
5.6584
21
-3.54577
0
LINE
8
BLACK
6
CONTINUOUS
10
5.6584
20
-3.54577
11
5.6584
21
-3.54267
0
LINE
8
BLACK
6
CONTINUOUS
10
5.6584
20
-3.54267
11
5.6578
21
-3.53963
0
LINE
8
BLACK
6
CONTINUOUS
10
5.6578
20
-3.53963
11
5.65661
21
-3.53676
0
LINE
8
BLACK
6
CONTINUOUS
10
5.65661
20
-3.53676
11
5.65489
21
-3.53418
0
LINE
8
BLACK
6
CONTINUOUS
10
5.65489
20
-3.53418
11
5.65269
21
-3.53199
0
LINE
8
BLACK
6
CONTINUOUS
10
5.65269
20
-3.53199
11
5.65011
21
-3.53026
0
LINE
8
BLACK
6
CONTINUOUS
10
5.65011
20
-3.53026
11
5.64725
21
-3.52908
0
LINE
8
BLACK
6
CONTINUOUS
10
5.64725
20
-3.52908
11
5.6442
21
-3.52847
0
LINE
8
BLACK
6
CONTINUOUS
10
5.6442
20
-3.52847
11
5.6411
21
-3.52847
0
LINE
8
BLACK
6
CONTINUOUS
10
5.60449
20
-3.51233
11
5.60145
21
-3.51294
0
LINE
8
BLACK
6
CONTINUOUS
10
5.60145
20
-3.51294
11
5.59858
21
-3.51412
0
LINE
8
BLACK
6
CONTINUOUS
10
5.59858
20
-3.51412
11
5.596
21
-3.51585
0
LINE
8
BLACK
6
CONTINUOUS
10
5.596
20
-3.51585
11
5.59381
21
-3.51804
0
LINE
8
BLACK
6
CONTINUOUS
10
5.59381
20
-3.51804
11
5.59208
21
-3.52062
0
LINE
8
BLACK
6
CONTINUOUS
10
5.59208
20
-3.52062
11
5.5909
21
-3.52349
0
LINE
8
BLACK
6
CONTINUOUS
10
5.5909
20
-3.52349
11
5.59029
21
-3.52653
0
LINE
8
BLACK
6
CONTINUOUS
10
5.59029
20
-3.52653
11
5.59029
21
-3.52963
0
LINE
8
BLACK
6
CONTINUOUS
10
5.59029
20
-3.52963
11
5.59034
21
-3.5299
0
LINE
8
BLACK
6
CONTINUOUS
10
5.59034
20
-3.5299
11
5.59035
21
-3.52992
0
LINE
8
BLACK
6
CONTINUOUS
10
5.59035
20
-3.52992
11
5.59037
21
-3.53012
0
LINE
8
BLACK
6
CONTINUOUS
10
5.59037
20
-3.53012
11
5.59038
21
-3.5303
0
LINE
8
BLACK
6
CONTINUOUS
10
5.59038
20
-3.5303
11
5.59038
21
-3.5303
0
LINE
8
BLACK
6
CONTINUOUS
10
5.59038
20
-3.5303
11
5.59038
21
-3.53031
0
LINE
8
BLACK
6
CONTINUOUS
10
5.59038
20
-3.53031
11
5.59036
21
-3.53049
0
LINE
8
BLACK
6
CONTINUOUS
10
5.59036
20
-3.53049
11
5.59034
21
-3.53068
0
LINE
8
BLACK
6
CONTINUOUS
10
5.59034
20
-3.53068
11
5.59034
21
-3.53068
0
LINE
8
BLACK
6
CONTINUOUS
10
5.59034
20
-3.53068
11
5.59034
21
-3.53069
0
LINE
8
BLACK
6
CONTINUOUS
10
5.59034
20
-3.53069
11
5.59028
21
-3.53088
0
LINE
8
BLACK
6
CONTINUOUS
10
5.59028
20
-3.53088
11
5.59023
21
-3.53105
0
LINE
8
BLACK
6
CONTINUOUS
10
5.59023
20
-3.53105
11
5.59022
21
-3.53105
0
LINE
8
BLACK
6
CONTINUOUS
10
5.59022
20
-3.53105
11
5.59022
21
-3.53105
0
LINE
8
BLACK
6
CONTINUOUS
10
5.59022
20
-3.53105
11
5.59013
21
-3.53123
0
LINE
8
BLACK
6
CONTINUOUS
10
5.59013
20
-3.53123
11
5.59004
21
-3.53139
0
LINE
8
BLACK
6
CONTINUOUS
10
5.59004
20
-3.53139
11
5.59004
21
-3.53139
0
LINE
8
BLACK
6
CONTINUOUS
10
5.59004
20
-3.53139
11
5.59004
21
-3.53139
0
LINE
8
BLACK
6
CONTINUOUS
10
5.59004
20
-3.53139
11
5.58991
21
-3.53154
0
LINE
8
BLACK
6
CONTINUOUS
10
5.58991
20
-3.53154
11
5.5898
21
-3.53168
0
LINE
8
BLACK
6
CONTINUOUS
10
5.5898
20
-3.53168
11
5.58979
21
-3.53168
0
LINE
8
BLACK
6
CONTINUOUS
10
5.58979
20
-3.53168
11
5.58979
21
-3.53169
0
LINE
8
BLACK
6
CONTINUOUS
10
5.58979
20
-3.53169
11
5.58965
21
-3.5318
0
LINE
8
BLACK
6
CONTINUOUS
10
5.58965
20
-3.5318
11
5.5895
21
-3.53192
0
LINE
8
BLACK
6
CONTINUOUS
10
5.5895
20
-3.53192
11
5.5895
21
-3.53192
0
LINE
8
BLACK
6
CONTINUOUS
10
5.5895
20
-3.53192
11
5.58949
21
-3.53193
0
LINE
8
BLACK
6
CONTINUOUS
10
5.58949
20
-3.53193
11
5.58933
21
-3.53201
0
LINE
8
BLACK
6
CONTINUOUS
10
5.58933
20
-3.53201
11
5.58916
21
-3.5321
0
LINE
8
BLACK
6
CONTINUOUS
10
5.58916
20
-3.5321
11
5.58916
21
-3.5321
0
LINE
8
BLACK
6
CONTINUOUS
10
5.58916
20
-3.5321
11
5.58915
21
-3.5321
0
LINE
8
BLACK
6
CONTINUOUS
10
5.58915
20
-3.5321
11
5.58897
21
-3.53216
0
LINE
8
BLACK
6
CONTINUOUS
10
5.58897
20
-3.53216
11
5.58879
21
-3.53221
0
LINE
8
BLACK
6
CONTINUOUS
10
5.58879
20
-3.53221
11
5.58879
21
-3.53221
0
LINE
8
BLACK
6
CONTINUOUS
10
5.58879
20
-3.53221
11
5.58878
21
-3.53221
0
LINE
8
BLACK
6
CONTINUOUS
10
5.58878
20
-3.53221
11
5.5886
21
-3.53223
0
LINE
8
BLACK
6
CONTINUOUS
10
5.5886
20
-3.53223
11
5.58841
21
-3.53225
0
LINE
8
BLACK
6
CONTINUOUS
10
5.58841
20
-3.53225
11
5.5884
21
-3.53225
0
LINE
8
BLACK
6
CONTINUOUS
10
5.5884
20
-3.53225
11
5.5884
21
-3.53225
0
LINE
8
BLACK
6
CONTINUOUS
10
5.5884
20
-3.53225
11
5.58822
21
-3.53223
0
LINE
8
BLACK
6
CONTINUOUS
10
5.58822
20
-3.53223
11
5.58802
21
-3.53221
0
LINE
8
BLACK
6
CONTINUOUS
10
5.58802
20
-3.53221
11
5.58802
21
-3.53221
0
LINE
8
BLACK
6
CONTINUOUS
10
5.58802
20
-3.53221
11
5.58802
21
-3.53221
0
LINE
8
BLACK
6
CONTINUOUS
10
5.58802
20
-3.53221
11
5.58784
21
-3.53215
0
LINE
8
BLACK
6
CONTINUOUS
10
5.58784
20
-3.53215
11
5.58766
21
-3.5321
0
LINE
8
BLACK
6
CONTINUOUS
10
5.58766
20
-3.5321
11
5.58766
21
-3.5321
0
LINE
8
BLACK
6
CONTINUOUS
10
5.58766
20
-3.5321
11
5.58765
21
-3.5321
0
LINE
8
BLACK
6
CONTINUOUS
10
5.58765
20
-3.5321
11
5.58747
21
-3.532
0
LINE
8
BLACK
6
CONTINUOUS
10
5.58747
20
-3.532
11
5.58732
21
-3.53192
0
LINE
8
BLACK
6
CONTINUOUS
10
5.58732
20
-3.53192
11
5.58732
21
-3.53191
0
LINE
8
BLACK
6
CONTINUOUS
10
5.58732
20
-3.53191
11
5.58731
21
-3.53191
0
LINE
8
BLACK
6
CONTINUOUS
10
5.58731
20
-3.53191
11
5.58716
21
-3.53179
0
LINE
8
BLACK
6
CONTINUOUS
10
5.58716
20
-3.53179
11
5.58702
21
-3.53167
0
LINE
8
BLACK
6
CONTINUOUS
10
5.58702
20
-3.53167
11
5.58655
21
-3.5312
0
LINE
8
BLACK
6
CONTINUOUS
10
5.58655
20
-3.5312
11
5.58397
21
-3.52948
0
LINE
8
BLACK
6
CONTINUOUS
10
5.58397
20
-3.52948
11
5.58111
21
-3.52829
0
LINE
8
BLACK
6
CONTINUOUS
10
5.58111
20
-3.52829
11
5.57806
21
-3.52769
0
LINE
8
BLACK
6
CONTINUOUS
10
5.57806
20
-3.52769
11
5.57496
21
-3.52769
0
LINE
8
BLACK
6
CONTINUOUS
10
5.57496
20
-3.52769
11
5.57192
21
-3.52829
0
LINE
8
BLACK
6
CONTINUOUS
10
5.57192
20
-3.52829
11
5.56905
21
-3.52948
0
LINE
8
BLACK
6
CONTINUOUS
10
5.56905
20
-3.52948
11
5.56647
21
-3.5312
0
LINE
8
BLACK
6
CONTINUOUS
10
5.56647
20
-3.5312
11
5.56428
21
-3.53339
0
LINE
8
BLACK
6
CONTINUOUS
10
5.56428
20
-3.53339
11
5.56256
21
-3.53597
0
LINE
8
BLACK
6
CONTINUOUS
10
5.56256
20
-3.53597
11
5.56137
21
-3.53884
0
LINE
8
BLACK
6
CONTINUOUS
10
5.56137
20
-3.53884
11
5.56076
21
-3.54188
0
LINE
8
BLACK
6
CONTINUOUS
10
5.56076
20
-3.54188
11
5.56076
21
-3.54498
0
LINE
8
BLACK
6
CONTINUOUS
10
5.56076
20
-3.54498
11
5.56137
21
-3.54803
0
LINE
8
BLACK
6
CONTINUOUS
10
5.56137
20
-3.54803
11
5.56256
21
-3.55089
0
LINE
8
BLACK
6
CONTINUOUS
10
5.56256
20
-3.55089
11
5.56428
21
-3.55347
0
LINE
8
BLACK
6
CONTINUOUS
10
5.56428
20
-3.55347
11
5.56647
21
-3.55567
0
LINE
8
BLACK
6
CONTINUOUS
10
5.56647
20
-3.55567
11
5.56905
21
-3.55739
0
LINE
8
BLACK
6
CONTINUOUS
10
5.56905
20
-3.55739
11
5.57192
21
-3.55858
0
LINE
8
BLACK
6
CONTINUOUS
10
5.57192
20
-3.55858
11
5.57496
21
-3.55918
0
LINE
8
BLACK
6
CONTINUOUS
10
5.57496
20
-3.55918
11
5.57806
21
-3.55918
0
LINE
8
BLACK
6
CONTINUOUS
10
5.57806
20
-3.55918
11
5.58111
21
-3.55858
0
LINE
8
BLACK
6
CONTINUOUS
10
5.58111
20
-3.55858
11
5.58397
21
-3.55739
0
LINE
8
BLACK
6
CONTINUOUS
10
5.58397
20
-3.55739
11
5.58655
21
-3.55567
0
LINE
8
BLACK
6
CONTINUOUS
10
5.58655
20
-3.55567
11
5.58874
21
-3.55347
0
LINE
8
BLACK
6
CONTINUOUS
10
5.58874
20
-3.55347
11
5.59047
21
-3.55089
0
LINE
8
BLACK
6
CONTINUOUS
10
5.59047
20
-3.55089
11
5.59166
21
-3.54803
0
LINE
8
BLACK
6
CONTINUOUS
10
5.59166
20
-3.54803
11
5.59226
21
-3.54498
0
LINE
8
BLACK
6
CONTINUOUS
10
5.59226
20
-3.54498
11
5.59226
21
-3.54188
0
LINE
8
BLACK
6
CONTINUOUS
10
5.59226
20
-3.54188
11
5.59221
21
-3.54162
0
LINE
8
BLACK
6
CONTINUOUS
10
5.59221
20
-3.54162
11
5.5922
21
-3.54159
0
LINE
8
BLACK
6
CONTINUOUS
10
5.5922
20
-3.54159
11
5.5922
21
-3.54159
0
LINE
8
BLACK
6
CONTINUOUS
10
5.5922
20
-3.54159
11
5.5922
21
-3.54159
0
LINE
8
BLACK
6
CONTINUOUS
10
5.5922
20
-3.54159
11
5.5922
21
-3.54159
0
LINE
8
BLACK
6
CONTINUOUS
10
5.5922
20
-3.54159
11
5.59219
21
-3.5414
0
LINE
8
BLACK
6
CONTINUOUS
10
5.59219
20
-3.5414
11
5.59217
21
-3.54121
0
LINE
8
BLACK
6
CONTINUOUS
10
5.59217
20
-3.54121
11
5.59217
21
-3.54121
0
LINE
8
BLACK
6
CONTINUOUS
10
5.59217
20
-3.54121
11
5.59217
21
-3.54121
0
LINE
8
BLACK
6
CONTINUOUS
10
5.59217
20
-3.54121
11
5.59219
21
-3.54101
0
LINE
8
BLACK
6
CONTINUOUS
10
5.59219
20
-3.54101
11
5.59221
21
-3.54083
0
LINE
8
BLACK
6
CONTINUOUS
10
5.59221
20
-3.54083
11
5.59221
21
-3.54083
0
LINE
8
BLACK
6
CONTINUOUS
10
5.59221
20
-3.54083
11
5.59221
21
-3.54082
0
LINE
8
BLACK
6
CONTINUOUS
10
5.59221
20
-3.54082
11
5.59227
21
-3.54064
0
LINE
8
BLACK
6
CONTINUOUS
10
5.59227
20
-3.54064
11
5.59233
21
-3.54046
0
LINE
8
BLACK
6
CONTINUOUS
10
5.59233
20
-3.54046
11
5.59233
21
-3.54046
0
LINE
8
BLACK
6
CONTINUOUS
10
5.59233
20
-3.54046
11
5.59233
21
-3.54046
0
LINE
8
BLACK
6
CONTINUOUS
10
5.59233
20
-3.54046
11
5.59242
21
-3.54028
0
LINE
8
BLACK
6
CONTINUOUS
10
5.59242
20
-3.54028
11
5.59251
21
-3.54013
0
LINE
8
BLACK
6
CONTINUOUS
10
5.59251
20
-3.54013
11
5.59251
21
-3.54012
0
LINE
8
BLACK
6
CONTINUOUS
10
5.59251
20
-3.54012
11
5.59251
21
-3.54012
0
LINE
8
BLACK
6
CONTINUOUS
10
5.59251
20
-3.54012
11
5.59263
21
-3.53998
0
LINE
8
BLACK
6
CONTINUOUS
10
5.59263
20
-3.53998
11
5.59276
21
-3.53983
0
LINE
8
BLACK
6
CONTINUOUS
10
5.59276
20
-3.53983
11
5.59276
21
-3.53983
0
LINE
8
BLACK
6
CONTINUOUS
10
5.59276
20
-3.53983
11
5.59276
21
-3.53983
0
LINE
8
BLACK
6
CONTINUOUS
10
5.59276
20
-3.53983
11
5.5929
21
-3.53971
0
LINE
8
BLACK
6
CONTINUOUS
10
5.5929
20
-3.53971
11
5.59305
21
-3.53959
0
LINE
8
BLACK
6
CONTINUOUS
10
5.59305
20
-3.53959
11
5.59306
21
-3.53959
0
LINE
8
BLACK
6
CONTINUOUS
10
5.59306
20
-3.53959
11
5.59306
21
-3.53959
0
LINE
8
BLACK
6
CONTINUOUS
10
5.59306
20
-3.53959
11
5.59321
21
-3.53951
0
LINE
8
BLACK
6
CONTINUOUS
10
5.59321
20
-3.53951
11
5.59339
21
-3.53941
0
LINE
8
BLACK
6
CONTINUOUS
10
5.59339
20
-3.53941
11
5.5934
21
-3.53941
0
LINE
8
BLACK
6
CONTINUOUS
10
5.5934
20
-3.53941
11
5.5934
21
-3.53941
0
LINE
8
BLACK
6
CONTINUOUS
10
5.5934
20
-3.53941
11
5.59357
21
-3.53936
0
LINE
8
BLACK
6
CONTINUOUS
10
5.59357
20
-3.53936
11
5.59376
21
-3.5393
0
LINE
8
BLACK
6
CONTINUOUS
10
5.59376
20
-3.5393
11
5.59377
21
-3.5393
0
LINE
8
BLACK
6
CONTINUOUS
10
5.59377
20
-3.5393
11
5.59377
21
-3.5393
0
LINE
8
BLACK
6
CONTINUOUS
10
5.59377
20
-3.5393
11
5.59395
21
-3.53928
0
LINE
8
BLACK
6
CONTINUOUS
10
5.59395
20
-3.53928
11
5.59414
21
-3.53926
0
LINE
8
BLACK
6
CONTINUOUS
10
5.59414
20
-3.53926
11
5.59415
21
-3.53926
0
LINE
8
BLACK
6
CONTINUOUS
10
5.59415
20
-3.53926
11
5.59415
21
-3.53926
0
LINE
8
BLACK
6
CONTINUOUS
10
5.59415
20
-3.53926
11
5.59433
21
-3.53928
0
LINE
8
BLACK
6
CONTINUOUS
10
5.59433
20
-3.53928
11
5.59453
21
-3.5393
0
LINE
8
BLACK
6
CONTINUOUS
10
5.59453
20
-3.5393
11
5.59453
21
-3.5393
0
LINE
8
BLACK
6
CONTINUOUS
10
5.59453
20
-3.5393
11
5.59453
21
-3.5393
0
LINE
8
BLACK
6
CONTINUOUS
10
5.59453
20
-3.5393
11
5.5947
21
-3.53936
0
LINE
8
BLACK
6
CONTINUOUS
10
5.5947
20
-3.53936
11
5.59489
21
-3.53941
0
LINE
8
BLACK
6
CONTINUOUS
10
5.59489
20
-3.53941
11
5.5949
21
-3.53942
0
LINE
8
BLACK
6
CONTINUOUS
10
5.5949
20
-3.53942
11
5.5949
21
-3.53942
0
LINE
8
BLACK
6
CONTINUOUS
10
5.5949
20
-3.53942
11
5.59507
21
-3.53951
0
LINE
8
BLACK
6
CONTINUOUS
10
5.59507
20
-3.53951
11
5.59523
21
-3.5396
0
LINE
8
BLACK
6
CONTINUOUS
10
5.59523
20
-3.5396
11
5.59524
21
-3.5396
0
LINE
8
BLACK
6
CONTINUOUS
10
5.59524
20
-3.5396
11
5.59524
21
-3.5396
0
LINE
8
BLACK
6
CONTINUOUS
10
5.59524
20
-3.5396
11
5.59539
21
-3.53972
0
LINE
8
BLACK
6
CONTINUOUS
10
5.59539
20
-3.53972
11
5.59553
21
-3.53984
0
LINE
8
BLACK
6
CONTINUOUS
10
5.59553
20
-3.53984
11
5.59553
21
-3.53984
0
LINE
8
BLACK
6
CONTINUOUS
10
5.59553
20
-3.53984
11
5.59553
21
-3.53984
0
LINE
8
BLACK
6
CONTINUOUS
10
5.59553
20
-3.53984
11
5.59553
21
-3.53984
0
LINE
8
BLACK
6
CONTINUOUS
10
5.59553
20
-3.53984
11
5.596
21
-3.54031
0
LINE
8
BLACK
6
CONTINUOUS
10
5.596
20
-3.54031
11
5.59858
21
-3.54203
0
LINE
8
BLACK
6
CONTINUOUS
10
5.59858
20
-3.54203
11
5.60145
21
-3.54322
0
LINE
8
BLACK
6
CONTINUOUS
10
5.60145
20
-3.54322
11
5.60449
21
-3.54383
0
LINE
8
BLACK
6
CONTINUOUS
10
5.60449
20
-3.54383
11
5.60759
21
-3.54383
0
LINE
8
BLACK
6
CONTINUOUS
10
5.60759
20
-3.54383
11
5.61063
21
-3.54322
0
LINE
8
BLACK
6
CONTINUOUS
10
5.61063
20
-3.54322
11
5.6135
21
-3.54203
0
LINE
8
BLACK
6
CONTINUOUS
10
5.6135
20
-3.54203
11
5.61529
21
-3.54084
0
LINE
8
BLACK
6
CONTINUOUS
10
5.61529
20
-3.54084
11
5.61529
21
-3.54084
0
LINE
8
BLACK
6
CONTINUOUS
10
5.61529
20
-3.54084
11
5.61608
21
-3.54031
0
LINE
8
BLACK
6
CONTINUOUS
10
5.61608
20
-3.54031
11
5.61827
21
-3.53812
0
LINE
8
BLACK
6
CONTINUOUS
10
5.61827
20
-3.53812
11
5.62
21
-3.53554
0
LINE
8
BLACK
6
CONTINUOUS
10
5.62
20
-3.53554
11
5.62118
21
-3.53267
0
LINE
8
BLACK
6
CONTINUOUS
10
5.62118
20
-3.53267
11
5.62179
21
-3.52963
0
LINE
8
BLACK
6
CONTINUOUS
10
5.62179
20
-3.52963
11
5.62179
21
-3.52653
0
LINE
8
BLACK
6
CONTINUOUS
10
5.62179
20
-3.52653
11
5.62118
21
-3.52349
0
LINE
8
BLACK
6
CONTINUOUS
10
5.62118
20
-3.52349
11
5.62
21
-3.52062
0
LINE
8
BLACK
6
CONTINUOUS
10
5.62
20
-3.52062
11
5.61827
21
-3.51804
0
LINE
8
BLACK
6
CONTINUOUS
10
5.61827
20
-3.51804
11
5.61608
21
-3.51585
0
LINE
8
BLACK
6
CONTINUOUS
10
5.61608
20
-3.51585
11
5.6135
21
-3.51412
0
LINE
8
BLACK
6
CONTINUOUS
10
5.6135
20
-3.51412
11
5.61063
21
-3.51294
0
LINE
8
BLACK
6
CONTINUOUS
10
5.61063
20
-3.51294
11
5.60759
21
-3.51233
0
LINE
8
BLACK
6
CONTINUOUS
10
5.60759
20
-3.51233
11
5.60449
21
-3.51233
0
LINE
8
BLACK
6
CONTINUOUS
10
5.47694
20
-3.36017
11
5.47238
21
-3.36107
0
LINE
8
BLACK
6
CONTINUOUS
10
5.47238
20
-3.36107
11
5.46808
21
-3.36285
0
LINE
8
BLACK
6
CONTINUOUS
10
5.46808
20
-3.36285
11
5.46421
21
-3.36544
0
LINE
8
BLACK
6
CONTINUOUS
10
5.46421
20
-3.36544
11
5.46092
21
-3.36873
0
LINE
8
BLACK
6
CONTINUOUS
10
5.46092
20
-3.36873
11
5.45833
21
-3.3726
0
LINE
8
BLACK
6
CONTINUOUS
10
5.45833
20
-3.3726
11
5.45655
21
-3.3769
0
LINE
8
BLACK
6
CONTINUOUS
10
5.45655
20
-3.3769
11
5.45565
21
-3.38146
0
LINE
8
BLACK
6
CONTINUOUS
10
5.45565
20
-3.38146
11
5.45565
21
-3.38611
0
LINE
8
BLACK
6
CONTINUOUS
10
5.45565
20
-3.38611
11
5.45655
21
-3.39068
0
LINE
8
BLACK
6
CONTINUOUS
10
5.45655
20
-3.39068
11
5.45833
21
-3.39498
0
LINE
8
BLACK
6
CONTINUOUS
10
5.45833
20
-3.39498
11
5.46092
21
-3.39885
0
LINE
8
BLACK
6
CONTINUOUS
10
5.46092
20
-3.39885
11
5.46421
21
-3.40214
0
LINE
8
BLACK
6
CONTINUOUS
10
5.46421
20
-3.40214
11
5.46808
21
-3.40472
0
LINE
8
BLACK
6
CONTINUOUS
10
5.46808
20
-3.40472
11
5.47238
21
-3.4065
0
LINE
8
BLACK
6
CONTINUOUS
10
5.47238
20
-3.4065
11
5.47694
21
-3.40741
0
LINE
8
BLACK
6
CONTINUOUS
10
5.47694
20
-3.40741
11
5.48159
21
-3.40741
0
LINE
8
BLACK
6
CONTINUOUS
10
5.48159
20
-3.40741
11
5.48616
21
-3.4065
0
LINE
8
BLACK
6
CONTINUOUS
10
5.48616
20
-3.4065
11
5.49046
21
-3.40472
0
LINE
8
BLACK
6
CONTINUOUS
10
5.49046
20
-3.40472
11
5.49433
21
-3.40214
0
LINE
8
BLACK
6
CONTINUOUS
10
5.49433
20
-3.40214
11
5.49762
21
-3.39885
0
LINE
8
BLACK
6
CONTINUOUS
10
5.49762
20
-3.39885
11
5.5002
21
-3.39498
0
LINE
8
BLACK
6
CONTINUOUS
10
5.5002
20
-3.39498
11
5.50198
21
-3.39068
0
LINE
8
BLACK
6
CONTINUOUS
10
5.50198
20
-3.39068
11
5.50289
21
-3.38611
0
LINE
8
BLACK
6
CONTINUOUS
10
5.50289
20
-3.38611
11
5.50289
21
-3.38146
0
LINE
8
BLACK
6
CONTINUOUS
10
5.50289
20
-3.38146
11
5.50198
21
-3.3769
0
LINE
8
BLACK
6
CONTINUOUS
10
5.50198
20
-3.3769
11
5.5002
21
-3.3726
0
LINE
8
BLACK
6
CONTINUOUS
10
5.5002
20
-3.3726
11
5.49762
21
-3.36873
0
LINE
8
BLACK
6
CONTINUOUS
10
5.49762
20
-3.36873
11
5.49433
21
-3.36544
0
LINE
8
BLACK
6
CONTINUOUS
10
5.49433
20
-3.36544
11
5.49046
21
-3.36285
0
LINE
8
BLACK
6
CONTINUOUS
10
5.49046
20
-3.36285
11
5.48616
21
-3.36107
0
LINE
8
BLACK
6
CONTINUOUS
10
5.48616
20
-3.36107
11
5.48159
21
-3.36017
0
LINE
8
BLACK
6
CONTINUOUS
10
5.48159
20
-3.36017
11
5.47694
21
-3.36017
0
LINE
8
BLACK
6
CONTINUOUS
10
5.40293
20
-3.18241
11
5.39836
21
-3.18332
0
LINE
8
BLACK
6
CONTINUOUS
10
5.39836
20
-3.18332
11
5.39406
21
-3.1851
0
LINE
8
BLACK
6
CONTINUOUS
10
5.39406
20
-3.1851
11
5.39019
21
-3.18768
0
LINE
8
BLACK
6
CONTINUOUS
10
5.39019
20
-3.18768
11
5.3869
21
-3.19097
0
LINE
8
BLACK
6
CONTINUOUS
10
5.3869
20
-3.19097
11
5.38432
21
-3.19484
0
LINE
8
BLACK
6
CONTINUOUS
10
5.38432
20
-3.19484
11
5.38254
21
-3.19914
0
LINE
8
BLACK
6
CONTINUOUS
10
5.38254
20
-3.19914
11
5.38163
21
-3.2037
0
LINE
8
BLACK
6
CONTINUOUS
10
5.38163
20
-3.2037
11
5.38163
21
-3.20836
0
LINE
8
BLACK
6
CONTINUOUS
10
5.38163
20
-3.20836
11
5.38254
21
-3.21292
0
LINE
8
BLACK
6
CONTINUOUS
10
5.38254
20
-3.21292
11
5.38432
21
-3.21722
0
LINE
8
BLACK
6
CONTINUOUS
10
5.38432
20
-3.21722
11
5.3869
21
-3.22109
0
LINE
8
BLACK
6
CONTINUOUS
10
5.3869
20
-3.22109
11
5.39019
21
-3.22438
0
LINE
8
BLACK
6
CONTINUOUS
10
5.39019
20
-3.22438
11
5.39406
21
-3.22697
0
LINE
8
BLACK
6
CONTINUOUS
10
5.39406
20
-3.22697
11
5.39836
21
-3.22875
0
LINE
8
BLACK
6
CONTINUOUS
10
5.39836
20
-3.22875
11
5.40311
21
-3.22969
0
LINE
8
BLACK
6
CONTINUOUS
10
5.40311
20
-3.22969
11
5.40311
21
-3.22969
0
LINE
8
BLACK
6
CONTINUOUS
10
5.40311
20
-3.22969
11
5.40311
21
-3.22969
0
LINE
8
BLACK
6
CONTINUOUS
10
5.40311
20
-3.22969
11
5.40311
21
-3.22969
0
LINE
8
BLACK
6
CONTINUOUS
10
5.40311
20
-3.22969
11
5.40314
21
-3.2297
0
LINE
8
BLACK
6
CONTINUOUS
10
5.40314
20
-3.2297
11
5.4033
21
-3.22975
0
LINE
8
BLACK
6
CONTINUOUS
10
5.4033
20
-3.22975
11
5.40348
21
-3.2298
0
LINE
8
BLACK
6
CONTINUOUS
10
5.40348
20
-3.2298
11
5.40349
21
-3.22981
0
LINE
8
BLACK
6
CONTINUOUS
10
5.40349
20
-3.22981
11
5.4035
21
-3.22981
0
LINE
8
BLACK
6
CONTINUOUS
10
5.4035
20
-3.22981
11
5.40366
21
-3.2299
0
LINE
8
BLACK
6
CONTINUOUS
10
5.40366
20
-3.2299
11
5.40382
21
-3.22998
0
LINE
8
BLACK
6
CONTINUOUS
10
5.40382
20
-3.22998
11
5.40383
21
-3.22999
0
LINE
8
BLACK
6
CONTINUOUS
10
5.40383
20
-3.22999
11
5.40384
21
-3.23
0
LINE
8
BLACK
6
CONTINUOUS
10
5.40384
20
-3.23
11
5.40397
21
-3.23011
0
LINE
8
BLACK
6
CONTINUOUS
10
5.40397
20
-3.23011
11
5.40412
21
-3.23023
0
LINE
8
BLACK
6
CONTINUOUS
10
5.40412
20
-3.23023
11
5.44335
21
-3.26946
0
LINE
8
BLACK
6
CONTINUOUS
10
5.44335
20
-3.26946
11
5.44337
21
-3.26948
0
LINE
8
BLACK
6
CONTINUOUS
10
5.44337
20
-3.26948
11
5.44342
21
-3.26955
0
LINE
8
BLACK
6
CONTINUOUS
10
5.44342
20
-3.26955
11
5.44348
21
-3.26961
0
LINE
8
BLACK
6
CONTINUOUS
10
5.44348
20
-3.26961
11
5.44398
21
-3.27022
0
LINE
8
BLACK
6
CONTINUOUS
10
5.44398
20
-3.27022
11
5.44459
21
-3.27072
0
LINE
8
BLACK
6
CONTINUOUS
10
5.44459
20
-3.27072
11
5.44671
21
-3.27245
0
LINE
8
BLACK
6
CONTINUOUS
10
5.44671
20
-3.27245
11
5.44982
21
-3.27412
0
LINE
8
BLACK
6
CONTINUOUS
10
5.44982
20
-3.27412
11
5.4532
21
-3.27514
0
LINE
8
BLACK
6
CONTINUOUS
10
5.4532
20
-3.27514
11
5.45593
21
-3.27541
0
LINE
8
BLACK
6
CONTINUOUS
10
5.45593
20
-3.27541
11
5.45593
21
-3.27541
0
LINE
8
BLACK
6
CONTINUOUS
10
5.45593
20
-3.27541
11
5.45671
21
-3.27549
0
LINE
8
BLACK
6
CONTINUOUS
10
5.45671
20
-3.27549
11
5.45749
21
-3.27541
0
LINE
8
BLACK
6
CONTINUOUS
10
5.45749
20
-3.27541
11
5.45752
21
-3.27541
0
LINE
8
BLACK
6
CONTINUOUS
10
5.45752
20
-3.27541
11
5.4576
21
-3.27541
0
LINE
8
BLACK
6
CONTINUOUS
10
5.4576
20
-3.27541
11
5.45769
21
-3.2754
0
LINE
8
BLACK
6
CONTINUOUS
10
5.45769
20
-3.2754
11
5.67989
21
-3.2754
0
LINE
8
BLACK
6
CONTINUOUS
10
5.67989
20
-3.2754
11
5.6799
21
-3.2754
0
LINE
8
BLACK
6
CONTINUOUS
10
5.6799
20
-3.2754
11
5.6799
21
-3.2754
0
LINE
8
BLACK
6
CONTINUOUS
10
5.6799
20
-3.2754
11
5.6799
21
-3.2754
0
LINE
8
BLACK
6
CONTINUOUS
10
5.6799
20
-3.2754
11
5.67992
21
-3.2754
0
LINE
8
BLACK
6
CONTINUOUS
10
5.67992
20
-3.2754
11
5.6801
21
-3.27542
0
LINE
8
BLACK
6
CONTINUOUS
10
5.6801
20
-3.27542
11
5.68028
21
-3.27544
0
LINE
8
BLACK
6
CONTINUOUS
10
5.68028
20
-3.27544
11
5.68029
21
-3.27544
0
LINE
8
BLACK
6
CONTINUOUS
10
5.68029
20
-3.27544
11
5.6803
21
-3.27544
0
LINE
8
BLACK
6
CONTINUOUS
10
5.6803
20
-3.27544
11
5.68047
21
-3.2755
0
LINE
8
BLACK
6
CONTINUOUS
10
5.68047
20
-3.2755
11
5.68065
21
-3.27555
0
LINE
8
BLACK
6
CONTINUOUS
10
5.68065
20
-3.27555
11
5.68066
21
-3.27556
0
LINE
8
BLACK
6
CONTINUOUS
10
5.68066
20
-3.27556
11
5.68067
21
-3.27556
0
LINE
8
BLACK
6
CONTINUOUS
10
5.68067
20
-3.27556
11
5.68082
21
-3.27565
0
LINE
8
BLACK
6
CONTINUOUS
10
5.68082
20
-3.27565
11
5.68098
21
-3.27573
0
LINE
8
BLACK
6
CONTINUOUS
10
5.68098
20
-3.27573
11
5.68501
21
-3.27842
0
LINE
8
BLACK
6
CONTINUOUS
10
5.68501
20
-3.27842
11
5.68931
21
-3.2802
0
LINE
8
BLACK
6
CONTINUOUS
10
5.68931
20
-3.2802
11
5.69387
21
-3.28111
0
LINE
8
BLACK
6
CONTINUOUS
10
5.69387
20
-3.28111
11
5.69852
21
-3.28111
0
LINE
8
BLACK
6
CONTINUOUS
10
5.69852
20
-3.28111
11
5.70309
21
-3.2802
0
LINE
8
BLACK
6
CONTINUOUS
10
5.70309
20
-3.2802
11
5.70739
21
-3.27842
0
LINE
8
BLACK
6
CONTINUOUS
10
5.70739
20
-3.27842
11
5.71126
21
-3.27584
0
LINE
8
BLACK
6
CONTINUOUS
10
5.71126
20
-3.27584
11
5.71455
21
-3.27255
0
LINE
8
BLACK
6
CONTINUOUS
10
5.71455
20
-3.27255
11
5.71713
21
-3.26868
0
LINE
8
BLACK
6
CONTINUOUS
10
5.71713
20
-3.26868
11
5.71891
21
-3.26438
0
LINE
8
BLACK
6
CONTINUOUS
10
5.71891
20
-3.26438
11
5.71982
21
-3.25981
0
LINE
8
BLACK
6
CONTINUOUS
10
5.71982
20
-3.25981
11
5.71982
21
-3.25516
0
LINE
8
BLACK
6
CONTINUOUS
10
5.71982
20
-3.25516
11
5.71891
21
-3.2506
0
LINE
8
BLACK
6
CONTINUOUS
10
5.71891
20
-3.2506
11
5.71713
21
-3.2463
0
LINE
8
BLACK
6
CONTINUOUS
10
5.71713
20
-3.2463
11
5.71455
21
-3.24243
0
LINE
8
BLACK
6
CONTINUOUS
10
5.71455
20
-3.24243
11
5.71126
21
-3.23914
0
LINE
8
BLACK
6
CONTINUOUS
10
5.71126
20
-3.23914
11
5.70739
21
-3.23655
0
LINE
8
BLACK
6
CONTINUOUS
10
5.70739
20
-3.23655
11
5.70309
21
-3.23477
0
LINE
8
BLACK
6
CONTINUOUS
10
5.70309
20
-3.23477
11
5.69852
21
-3.23387
0
LINE
8
BLACK
6
CONTINUOUS
10
5.69852
20
-3.23387
11
5.69387
21
-3.23387
0
LINE
8
BLACK
6
CONTINUOUS
10
5.69387
20
-3.23387
11
5.68931
21
-3.23477
0
LINE
8
BLACK
6
CONTINUOUS
10
5.68931
20
-3.23477
11
5.68501
21
-3.23655
0
LINE
8
BLACK
6
CONTINUOUS
10
5.68501
20
-3.23655
11
5.68098
21
-3.23924
0
LINE
8
BLACK
6
CONTINUOUS
10
5.68098
20
-3.23924
11
5.68098
21
-3.23925
0
LINE
8
BLACK
6
CONTINUOUS
10
5.68098
20
-3.23925
11
5.68098
21
-3.23925
0
LINE
8
BLACK
6
CONTINUOUS
10
5.68098
20
-3.23925
11
5.68098
21
-3.23925
0
LINE
8
BLACK
6
CONTINUOUS
10
5.68098
20
-3.23925
11
5.68096
21
-3.23926
0
LINE
8
BLACK
6
CONTINUOUS
10
5.68096
20
-3.23926
11
5.6808
21
-3.23934
0
LINE
8
BLACK
6
CONTINUOUS
10
5.6808
20
-3.23934
11
5.68064
21
-3.23943
0
LINE
8
BLACK
6
CONTINUOUS
10
5.68064
20
-3.23943
11
5.68063
21
-3.23943
0
LINE
8
BLACK
6
CONTINUOUS
10
5.68063
20
-3.23943
11
5.68062
21
-3.23943
0
LINE
8
BLACK
6
CONTINUOUS
10
5.68062
20
-3.23943
11
5.68045
21
-3.23948
0
LINE
8
BLACK
6
CONTINUOUS
10
5.68045
20
-3.23948
11
5.68027
21
-3.23954
0
LINE
8
BLACK
6
CONTINUOUS
10
5.68027
20
-3.23954
11
5.68026
21
-3.23954
0
LINE
8
BLACK
6
CONTINUOUS
10
5.68026
20
-3.23954
11
5.68025
21
-3.23954
0
LINE
8
BLACK
6
CONTINUOUS
10
5.68025
20
-3.23954
11
5.68007
21
-3.23956
0
LINE
8
BLACK
6
CONTINUOUS
10
5.68007
20
-3.23956
11
5.67989
21
-3.23957
0
LINE
8
BLACK
6
CONTINUOUS
10
5.67989
20
-3.23957
11
5.46494
21
-3.23957
0
LINE
8
BLACK
6
CONTINUOUS
10
5.46494
20
-3.23957
11
5.46494
21
-3.23957
0
LINE
8
BLACK
6
CONTINUOUS
10
5.46494
20
-3.23957
11
5.46494
21
-3.23957
0
LINE
8
BLACK
6
CONTINUOUS
10
5.46494
20
-3.23957
11
5.46494
21
-3.23957
0
LINE
8
BLACK
6
CONTINUOUS
10
5.46494
20
-3.23957
11
5.46492
21
-3.23957
0
LINE
8
BLACK
6
CONTINUOUS
10
5.46492
20
-3.23957
11
5.46474
21
-3.23955
0
LINE
8
BLACK
6
CONTINUOUS
10
5.46474
20
-3.23955
11
5.46456
21
-3.23954
0
LINE
8
BLACK
6
CONTINUOUS
10
5.46456
20
-3.23954
11
5.46455
21
-3.23953
0
LINE
8
BLACK
6
CONTINUOUS
10
5.46455
20
-3.23953
11
5.46454
21
-3.23953
0
LINE
8
BLACK
6
CONTINUOUS
10
5.46454
20
-3.23953
11
5.46436
21
-3.23948
0
LINE
8
BLACK
6
CONTINUOUS
10
5.46436
20
-3.23948
11
5.46419
21
-3.23942
0
LINE
8
BLACK
6
CONTINUOUS
10
5.46419
20
-3.23942
11
5.46418
21
-3.23942
0
LINE
8
BLACK
6
CONTINUOUS
10
5.46418
20
-3.23942
11
5.46417
21
-3.23942
0
LINE
8
BLACK
6
CONTINUOUS
10
5.46417
20
-3.23942
11
5.46401
21
-3.23933
0
LINE
8
BLACK
6
CONTINUOUS
10
5.46401
20
-3.23933
11
5.46385
21
-3.23924
0
LINE
8
BLACK
6
CONTINUOUS
10
5.46385
20
-3.23924
11
5.46384
21
-3.23924
0
LINE
8
BLACK
6
CONTINUOUS
10
5.46384
20
-3.23924
11
5.46383
21
-3.23923
0
LINE
8
BLACK
6
CONTINUOUS
10
5.46383
20
-3.23923
11
5.46369
21
-3.23911
0
LINE
8
BLACK
6
CONTINUOUS
10
5.46369
20
-3.23911
11
5.46355
21
-3.239
0
LINE
8
BLACK
6
CONTINUOUS
10
5.46355
20
-3.239
11
5.42945
21
-3.2049
0
LINE
8
BLACK
6
CONTINUOUS
10
5.42945
20
-3.2049
11
5.42945
21
-3.20489
0
LINE
8
BLACK
6
CONTINUOUS
10
5.42945
20
-3.20489
11
5.42945
21
-3.20489
0
LINE
8
BLACK
6
CONTINUOUS
10
5.42945
20
-3.20489
11
5.42945
21
-3.20489
0
LINE
8
BLACK
6
CONTINUOUS
10
5.42945
20
-3.20489
11
5.42943
21
-3.20488
0
LINE
8
BLACK
6
CONTINUOUS
10
5.42943
20
-3.20488
11
5.42932
21
-3.20474
0
LINE
8
BLACK
6
CONTINUOUS
10
5.42932
20
-3.20474
11
5.4292
21
-3.20459
0
LINE
8
BLACK
6
CONTINUOUS
10
5.4292
20
-3.20459
11
5.4292
21
-3.20458
0
LINE
8
BLACK
6
CONTINUOUS
10
5.4292
20
-3.20458
11
5.42919
21
-3.20458
0
LINE
8
BLACK
6
CONTINUOUS
10
5.42919
20
-3.20458
11
5.42911
21
-3.20442
0
LINE
8
BLACK
6
CONTINUOUS
10
5.42911
20
-3.20442
11
5.42902
21
-3.20426
0
LINE
8
BLACK
6
CONTINUOUS
10
5.42902
20
-3.20426
11
5.42902
21
-3.20424
0
LINE
8
BLACK
6
CONTINUOUS
10
5.42902
20
-3.20424
11
5.42901
21
-3.20423
0
LINE
8
BLACK
6
CONTINUOUS
10
5.42901
20
-3.20423
11
5.42896
21
-3.20406
0
LINE
8
BLACK
6
CONTINUOUS
10
5.42896
20
-3.20406
11
5.42891
21
-3.20389
0
LINE
8
BLACK
6
CONTINUOUS
10
5.42891
20
-3.20389
11
5.42797
21
-3.19914
0
LINE
8
BLACK
6
CONTINUOUS
10
5.42797
20
-3.19914
11
5.42619
21
-3.19484
0
LINE
8
BLACK
6
CONTINUOUS
10
5.42619
20
-3.19484
11
5.4236
21
-3.19097
0
LINE
8
BLACK
6
CONTINUOUS
10
5.4236
20
-3.19097
11
5.42031
21
-3.18768
0
LINE
8
BLACK
6
CONTINUOUS
10
5.42031
20
-3.18768
11
5.41644
21
-3.1851
0
LINE
8
BLACK
6
CONTINUOUS
10
5.41644
20
-3.1851
11
5.41214
21
-3.18332
0
LINE
8
BLACK
6
CONTINUOUS
10
5.41214
20
-3.18332
11
5.40758
21
-3.18241
0
LINE
8
BLACK
6
CONTINUOUS
10
5.40758
20
-3.18241
11
5.40293
21
-3.18241
0
LINE
8
BLACK
6
CONTINUOUS
10
5.25174
20
-3.07808
11
5.24254
21
-3.07991
0
LINE
8
BLACK
6
CONTINUOUS
10
5.24254
20
-3.07991
11
5.23387
21
-3.0835
0
LINE
8
BLACK
6
CONTINUOUS
10
5.23387
20
-3.0835
11
5.22607
21
-3.08871
0
LINE
8
BLACK
6
CONTINUOUS
10
5.22607
20
-3.08871
11
5.21943
21
-3.09535
0
LINE
8
BLACK
6
CONTINUOUS
10
5.21943
20
-3.09535
11
5.21422
21
-3.10315
0
LINE
8
BLACK
6
CONTINUOUS
10
5.21422
20
-3.10315
11
5.21063
21
-3.11182
0
LINE
8
BLACK
6
CONTINUOUS
10
5.21063
20
-3.11182
11
5.2088
21
-3.12102
0
LINE
8
BLACK
6
CONTINUOUS
10
5.2088
20
-3.12102
11
5.2088
21
-3.13041
0
LINE
8
BLACK
6
CONTINUOUS
10
5.2088
20
-3.13041
11
5.21063
21
-3.13961
0
LINE
8
BLACK
6
CONTINUOUS
10
5.21063
20
-3.13961
11
5.21422
21
-3.14828
0
LINE
8
BLACK
6
CONTINUOUS
10
5.21422
20
-3.14828
11
5.21943
21
-3.15608
0
LINE
8
BLACK
6
CONTINUOUS
10
5.21943
20
-3.15608
11
5.22607
21
-3.16272
0
LINE
8
BLACK
6
CONTINUOUS
10
5.22607
20
-3.16272
11
5.23387
21
-3.16793
0
LINE
8
BLACK
6
CONTINUOUS
10
5.23387
20
-3.16793
11
5.24254
21
-3.17152
0
LINE
8
BLACK
6
CONTINUOUS
10
5.24254
20
-3.17152
11
5.25174
21
-3.17335
0
LINE
8
BLACK
6
CONTINUOUS
10
5.25174
20
-3.17335
11
5.26113
21
-3.17335
0
LINE
8
BLACK
6
CONTINUOUS
10
5.26113
20
-3.17335
11
5.27033
21
-3.17152
0
LINE
8
BLACK
6
CONTINUOUS
10
5.27033
20
-3.17152
11
5.27714
21
-3.1687
0
LINE
8
BLACK
6
CONTINUOUS
10
5.27714
20
-3.1687
11
5.27716
21
-3.16869
0
LINE
8
BLACK
6
CONTINUOUS
10
5.27716
20
-3.16869
11
5.27724
21
-3.16867
0
LINE
8
BLACK
6
CONTINUOUS
10
5.27724
20
-3.16867
11
5.27732
21
-3.16864
0
LINE
8
BLACK
6
CONTINUOUS
10
5.27732
20
-3.16864
11
5.27743
21
-3.16862
0
LINE
8
BLACK
6
CONTINUOUS
10
5.27743
20
-3.16862
11
5.27753
21
-3.16859
0
LINE
8
BLACK
6
CONTINUOUS
10
5.27753
20
-3.16859
11
5.27761
21
-3.16858
0
LINE
8
BLACK
6
CONTINUOUS
10
5.27761
20
-3.16858
11
5.2777
21
-3.16856
0
LINE
8
BLACK
6
CONTINUOUS
10
5.2777
20
-3.16856
11
5.27781
21
-3.16856
0
LINE
8
BLACK
6
CONTINUOUS
10
5.27781
20
-3.16856
11
5.27791
21
-3.16855
0
LINE
8
BLACK
6
CONTINUOUS
10
5.27791
20
-3.16855
11
5.278
21
-3.16856
0
LINE
8
BLACK
6
CONTINUOUS
10
5.278
20
-3.16856
11
5.27808
21
-3.16856
0
LINE
8
BLACK
6
CONTINUOUS
10
5.27808
20
-3.16856
11
5.28163
21
-3.16891
0
LINE
8
BLACK
6
CONTINUOUS
10
5.28163
20
-3.16891
11
5.28514
21
-3.16857
0
LINE
8
BLACK
6
CONTINUOUS
10
5.28514
20
-3.16857
11
5.28852
21
-3.16754
0
LINE
8
BLACK
6
CONTINUOUS
10
5.28852
20
-3.16754
11
5.29163
21
-3.16588
0
LINE
8
BLACK
6
CONTINUOUS
10
5.29163
20
-3.16588
11
5.29436
21
-3.16364
0
LINE
8
BLACK
6
CONTINUOUS
10
5.29436
20
-3.16364
11
5.2966
21
-3.16091
0
LINE
8
BLACK
6
CONTINUOUS
10
5.2966
20
-3.16091
11
5.29833
21
-3.15766
0
LINE
8
BLACK
6
CONTINUOUS
10
5.29833
20
-3.15766
11
5.29835
21
-3.15764
0
LINE
8
BLACK
6
CONTINUOUS
10
5.29835
20
-3.15764
11
5.2984
21
-3.15757
0
LINE
8
BLACK
6
CONTINUOUS
10
5.2984
20
-3.15757
11
5.29844
21
-3.15749
0
LINE
8
BLACK
6
CONTINUOUS
10
5.29844
20
-3.15749
11
5.29851
21
-3.15741
0
LINE
8
BLACK
6
CONTINUOUS
10
5.29851
20
-3.15741
11
5.29857
21
-3.15732
0
LINE
8
BLACK
6
CONTINUOUS
10
5.29857
20
-3.15732
11
5.29863
21
-3.15726
0
LINE
8
BLACK
6
CONTINUOUS
10
5.29863
20
-3.15726
11
5.29868
21
-3.15719
0
LINE
8
BLACK
6
CONTINUOUS
10
5.29868
20
-3.15719
11
5.29877
21
-3.15713
0
LINE
8
BLACK
6
CONTINUOUS
10
5.29877
20
-3.15713
11
5.29884
21
-3.15705
0
LINE
8
BLACK
6
CONTINUOUS
10
5.29884
20
-3.15705
11
5.29891
21
-3.15701
0
LINE
8
BLACK
6
CONTINUOUS
10
5.29891
20
-3.15701
11
5.29898
21
-3.15695
0
LINE
8
BLACK
6
CONTINUOUS
10
5.29898
20
-3.15695
11
5.29907
21
-3.1569
0
LINE
8
BLACK
6
CONTINUOUS
10
5.29907
20
-3.1569
11
5.29916
21
-3.15684
0
LINE
8
BLACK
6
CONTINUOUS
10
5.29916
20
-3.15684
11
5.29924
21
-3.15681
0
LINE
8
BLACK
6
CONTINUOUS
10
5.29924
20
-3.15681
11
5.29932
21
-3.15677
0
LINE
8
BLACK
6
CONTINUOUS
10
5.29932
20
-3.15677
11
5.29942
21
-3.15674
0
LINE
8
BLACK
6
CONTINUOUS
10
5.29942
20
-3.15674
11
5.29952
21
-3.1567
0
LINE
8
BLACK
6
CONTINUOUS
10
5.29952
20
-3.1567
11
5.2996
21
-3.15668
0
LINE
8
BLACK
6
CONTINUOUS
10
5.2996
20
-3.15668
11
5.29969
21
-3.15666
0
LINE
8
BLACK
6
CONTINUOUS
10
5.29969
20
-3.15666
11
5.29979
21
-3.15665
0
LINE
8
BLACK
6
CONTINUOUS
10
5.29979
20
-3.15665
11
5.2999
21
-3.15663
0
LINE
8
BLACK
6
CONTINUOUS
10
5.2999
20
-3.15663
11
5.29998
21
-3.15663
0
LINE
8
BLACK
6
CONTINUOUS
10
5.29998
20
-3.15663
11
5.30007
21
-3.15662
0
LINE
8
BLACK
6
CONTINUOUS
10
5.30007
20
-3.15662
11
5.65509
21
-3.15662
0
LINE
8
BLACK
6
CONTINUOUS
10
5.65509
20
-3.15662
11
5.65509
21
-3.15662
0
LINE
8
BLACK
6
CONTINUOUS
10
5.65509
20
-3.15662
11
5.65509
21
-3.15662
0
LINE
8
BLACK
6
CONTINUOUS
10
5.65509
20
-3.15662
11
5.65509
21
-3.15662
0
LINE
8
BLACK
6
CONTINUOUS
10
5.65509
20
-3.15662
11
5.65512
21
-3.15662
0
LINE
8
BLACK
6
CONTINUOUS
10
5.65512
20
-3.15662
11
5.65529
21
-3.15664
0
LINE
8
BLACK
6
CONTINUOUS
10
5.65529
20
-3.15664
11
5.65548
21
-3.15666
0
LINE
8
BLACK
6
CONTINUOUS
10
5.65548
20
-3.15666
11
5.65549
21
-3.15666
0
LINE
8
BLACK
6
CONTINUOUS
10
5.65549
20
-3.15666
11
5.6555
21
-3.15667
0
LINE
8
BLACK
6
CONTINUOUS
10
5.6555
20
-3.15667
11
5.65567
21
-3.15672
0
LINE
8
BLACK
6
CONTINUOUS
10
5.65567
20
-3.15672
11
5.65584
21
-3.15677
0
LINE
8
BLACK
6
CONTINUOUS
10
5.65584
20
-3.15677
11
5.65585
21
-3.15678
0
LINE
8
BLACK
6
CONTINUOUS
10
5.65585
20
-3.15678
11
5.65586
21
-3.15678
0
LINE
8
BLACK
6
CONTINUOUS
10
5.65586
20
-3.15678
11
5.65602
21
-3.15687
0
LINE
8
BLACK
6
CONTINUOUS
10
5.65602
20
-3.15687
11
5.65618
21
-3.15695
0
LINE
8
BLACK
6
CONTINUOUS
10
5.65618
20
-3.15695
11
5.6602
21
-3.15964
0
LINE
8
BLACK
6
CONTINUOUS
10
5.6602
20
-3.15964
11
5.6645
21
-3.16142
0
LINE
8
BLACK
6
CONTINUOUS
10
5.6645
20
-3.16142
11
5.66907
21
-3.16233
0
LINE
8
BLACK
6
CONTINUOUS
10
5.66907
20
-3.16233
11
5.67372
21
-3.16233
0
LINE
8
BLACK
6
CONTINUOUS
10
5.67372
20
-3.16233
11
5.67828
21
-3.16142
0
LINE
8
BLACK
6
CONTINUOUS
10
5.67828
20
-3.16142
11
5.68258
21
-3.15964
0
LINE
8
BLACK
6
CONTINUOUS
10
5.68258
20
-3.15964
11
5.68645
21
-3.15706
0
LINE
8
BLACK
6
CONTINUOUS
10
5.68645
20
-3.15706
11
5.68974
21
-3.15377
0
LINE
8
BLACK
6
CONTINUOUS
10
5.68974
20
-3.15377
11
5.69233
21
-3.1499
0
LINE
8
BLACK
6
CONTINUOUS
10
5.69233
20
-3.1499
11
5.69411
21
-3.1456
0
LINE
8
BLACK
6
CONTINUOUS
10
5.69411
20
-3.1456
11
5.69502
21
-3.14104
0
LINE
8
BLACK
6
CONTINUOUS
10
5.69502
20
-3.14104
11
5.69502
21
-3.13638
0
LINE
8
BLACK
6
CONTINUOUS
10
5.69502
20
-3.13638
11
5.69411
21
-3.13182
0
LINE
8
BLACK
6
CONTINUOUS
10
5.69411
20
-3.13182
11
5.69233
21
-3.12752
0
LINE
8
BLACK
6
CONTINUOUS
10
5.69233
20
-3.12752
11
5.68974
21
-3.12365
0
LINE
8
BLACK
6
CONTINUOUS
10
5.68974
20
-3.12365
11
5.68645
21
-3.12036
0
LINE
8
BLACK
6
CONTINUOUS
10
5.68645
20
-3.12036
11
5.68258
21
-3.11778
0
LINE
8
BLACK
6
CONTINUOUS
10
5.68258
20
-3.11778
11
5.67828
21
-3.11599
0
LINE
8
BLACK
6
CONTINUOUS
10
5.67828
20
-3.11599
11
5.67372
21
-3.11509
0
LINE
8
BLACK
6
CONTINUOUS
10
5.67372
20
-3.11509
11
5.66907
21
-3.11509
0
LINE
8
BLACK
6
CONTINUOUS
10
5.66907
20
-3.11509
11
5.6645
21
-3.11599
0
LINE
8
BLACK
6
CONTINUOUS
10
5.6645
20
-3.11599
11
5.6602
21
-3.11778
0
LINE
8
BLACK
6
CONTINUOUS
10
5.6602
20
-3.11778
11
5.65618
21
-3.12046
0
LINE
8
BLACK
6
CONTINUOUS
10
5.65618
20
-3.12046
11
5.65618
21
-3.12047
0
LINE
8
BLACK
6
CONTINUOUS
10
5.65618
20
-3.12047
11
5.65618
21
-3.12047
0
LINE
8
BLACK
6
CONTINUOUS
10
5.65618
20
-3.12047
11
5.65618
21
-3.12047
0
LINE
8
BLACK
6
CONTINUOUS
10
5.65618
20
-3.12047
11
5.65616
21
-3.12048
0
LINE
8
BLACK
6
CONTINUOUS
10
5.65616
20
-3.12048
11
5.656
21
-3.12056
0
LINE
8
BLACK
6
CONTINUOUS
10
5.656
20
-3.12056
11
5.65584
21
-3.12065
0
LINE
8
BLACK
6
CONTINUOUS
10
5.65584
20
-3.12065
11
5.65583
21
-3.12065
0
LINE
8
BLACK
6
CONTINUOUS
10
5.65583
20
-3.12065
11
5.65582
21
-3.12066
0
LINE
8
BLACK
6
CONTINUOUS
10
5.65582
20
-3.12066
11
5.65564
21
-3.12071
0
LINE
8
BLACK
6
CONTINUOUS
10
5.65564
20
-3.12071
11
5.65547
21
-3.12076
0
LINE
8
BLACK
6
CONTINUOUS
10
5.65547
20
-3.12076
11
5.65546
21
-3.12076
0
LINE
8
BLACK
6
CONTINUOUS
10
5.65546
20
-3.12076
11
5.65545
21
-3.12076
0
LINE
8
BLACK
6
CONTINUOUS
10
5.65545
20
-3.12076
11
5.65527
21
-3.12078
0
LINE
8
BLACK
6
CONTINUOUS
10
5.65527
20
-3.12078
11
5.65509
21
-3.1208
0
LINE
8
BLACK
6
CONTINUOUS
10
5.65509
20
-3.1208
11
5.30564
21
-3.1208
0
LINE
8
BLACK
6
CONTINUOUS
10
5.30564
20
-3.1208
11
5.30563
21
-3.1208
0
LINE
8
BLACK
6
CONTINUOUS
10
5.30563
20
-3.1208
11
5.30563
21
-3.1208
0
LINE
8
BLACK
6
CONTINUOUS
10
5.30563
20
-3.1208
11
5.30563
21
-3.1208
0
LINE
8
BLACK
6
CONTINUOUS
10
5.30563
20
-3.1208
11
5.30561
21
-3.1208
0
LINE
8
BLACK
6
CONTINUOUS
10
5.30561
20
-3.1208
11
5.30544
21
-3.12078
0
LINE
8
BLACK
6
CONTINUOUS
10
5.30544
20
-3.12078
11
5.30525
21
-3.12076
0
LINE
8
BLACK
6
CONTINUOUS
10
5.30525
20
-3.12076
11
5.30524
21
-3.12075
0
LINE
8
BLACK
6
CONTINUOUS
10
5.30524
20
-3.12075
11
5.30523
21
-3.12075
0
LINE
8
BLACK
6
CONTINUOUS
10
5.30523
20
-3.12075
11
5.30506
21
-3.1207
0
LINE
8
BLACK
6
CONTINUOUS
10
5.30506
20
-3.1207
11
5.30488
21
-3.12064
0
LINE
8
BLACK
6
CONTINUOUS
10
5.30488
20
-3.12064
11
5.30487
21
-3.12064
0
LINE
8
BLACK
6
CONTINUOUS
10
5.30487
20
-3.12064
11
5.30487
21
-3.12064
0
LINE
8
BLACK
6
CONTINUOUS
10
5.30487
20
-3.12064
11
5.30471
21
-3.12055
0
LINE
8
BLACK
6
CONTINUOUS
10
5.30471
20
-3.12055
11
5.30454
21
-3.12046
0
LINE
8
BLACK
6
CONTINUOUS
10
5.30454
20
-3.12046
11
5.30454
21
-3.12045
0
LINE
8
BLACK
6
CONTINUOUS
10
5.30454
20
-3.12045
11
5.30453
21
-3.12045
0
LINE
8
BLACK
6
CONTINUOUS
10
5.30453
20
-3.12045
11
5.30439
21
-3.12033
0
LINE
8
BLACK
6
CONTINUOUS
10
5.30439
20
-3.12033
11
5.30425
21
-3.12022
0
LINE
8
BLACK
6
CONTINUOUS
10
5.30425
20
-3.12022
11
5.30424
21
-3.12021
0
LINE
8
BLACK
6
CONTINUOUS
10
5.30424
20
-3.12021
11
5.30423
21
-3.1202
0
LINE
8
BLACK
6
CONTINUOUS
10
5.30423
20
-3.1202
11
5.30412
21
-3.12006
0
LINE
8
BLACK
6
CONTINUOUS
10
5.30412
20
-3.12006
11
5.304
21
-3.11992
0
LINE
8
BLACK
6
CONTINUOUS
10
5.304
20
-3.11992
11
5.304
21
-3.11991
0
LINE
8
BLACK
6
CONTINUOUS
10
5.304
20
-3.11991
11
5.30399
21
-3.1199
0
LINE
8
BLACK
6
CONTINUOUS
10
5.30399
20
-3.1199
11
5.30391
21
-3.11974
0
LINE
8
BLACK
6
CONTINUOUS
10
5.30391
20
-3.11974
11
5.30382
21
-3.11958
0
LINE
8
BLACK
6
CONTINUOUS
10
5.30382
20
-3.11958
11
5.30382
21
-3.11957
0
LINE
8
BLACK
6
CONTINUOUS
10
5.30382
20
-3.11957
11
5.30382
21
-3.11956
0
LINE
8
BLACK
6
CONTINUOUS
10
5.30382
20
-3.11956
11
5.30376
21
-3.11939
0
LINE
8
BLACK
6
CONTINUOUS
10
5.30376
20
-3.11939
11
5.30371
21
-3.11921
0
LINE
8
BLACK
6
CONTINUOUS
10
5.30371
20
-3.11921
11
5.30224
21
-3.11182
0
LINE
8
BLACK
6
CONTINUOUS
10
5.30224
20
-3.11182
11
5.29865
21
-3.10315
0
LINE
8
BLACK
6
CONTINUOUS
10
5.29865
20
-3.10315
11
5.29344
21
-3.09535
0
LINE
8
BLACK
6
CONTINUOUS
10
5.29344
20
-3.09535
11
5.2868
21
-3.08871
0
LINE
8
BLACK
6
CONTINUOUS
10
5.2868
20
-3.08871
11
5.279
21
-3.0835
0
LINE
8
BLACK
6
CONTINUOUS
10
5.279
20
-3.0835
11
5.27033
21
-3.07991
0
LINE
8
BLACK
6
CONTINUOUS
10
5.27033
20
-3.07991
11
5.26113
21
-3.07808
0
LINE
8
BLACK
6
CONTINUOUS
10
5.26113
20
-3.07808
11
5.25174
21
-3.07808
0
LINE
8
BLACK
6
CONTINUOUS
10
5.25174
20
-2.97808
11
5.24254
21
-2.97991
0
LINE
8
BLACK
6
CONTINUOUS
10
5.24254
20
-2.97991
11
5.23387
21
-2.9835
0
LINE
8
BLACK
6
CONTINUOUS
10
5.23387
20
-2.9835
11
5.22607
21
-2.98871
0
LINE
8
BLACK
6
CONTINUOUS
10
5.22607
20
-2.98871
11
5.21943
21
-2.99535
0
LINE
8
BLACK
6
CONTINUOUS
10
5.21943
20
-2.99535
11
5.21422
21
-3.00315
0
LINE
8
BLACK
6
CONTINUOUS
10
5.21422
20
-3.00315
11
5.21063
21
-3.01182
0
LINE
8
BLACK
6
CONTINUOUS
10
5.21063
20
-3.01182
11
5.2088
21
-3.02102
0
LINE
8
BLACK
6
CONTINUOUS
10
5.2088
20
-3.02102
11
5.2088
21
-3.03041
0
LINE
8
BLACK
6
CONTINUOUS
10
5.2088
20
-3.03041
11
5.21063
21
-3.03961
0
LINE
8
BLACK
6
CONTINUOUS
10
5.21063
20
-3.03961
11
5.21422
21
-3.04828
0
LINE
8
BLACK
6
CONTINUOUS
10
5.21422
20
-3.04828
11
5.21943
21
-3.05608
0
LINE
8
BLACK
6
CONTINUOUS
10
5.21943
20
-3.05608
11
5.22607
21
-3.06272
0
LINE
8
BLACK
6
CONTINUOUS
10
5.22607
20
-3.06272
11
5.23387
21
-3.06793
0
LINE
8
BLACK
6
CONTINUOUS
10
5.23387
20
-3.06793
11
5.24254
21
-3.07152
0
LINE
8
BLACK
6
CONTINUOUS
10
5.24254
20
-3.07152
11
5.25174
21
-3.07335
0
LINE
8
BLACK
6
CONTINUOUS
10
5.25174
20
-3.07335
11
5.26113
21
-3.07335
0
LINE
8
BLACK
6
CONTINUOUS
10
5.26113
20
-3.07335
11
5.27033
21
-3.07152
0
LINE
8
BLACK
6
CONTINUOUS
10
5.27033
20
-3.07152
11
5.27377
21
-3.0701
0
LINE
8
BLACK
6
CONTINUOUS
10
5.27377
20
-3.0701
11
5.27377
21
-3.0701
0
LINE
8
BLACK
6
CONTINUOUS
10
5.27377
20
-3.0701
11
5.27377
21
-3.0701
0
LINE
8
BLACK
6
CONTINUOUS
10
5.27377
20
-3.0701
11
5.27378
21
-3.0701
0
LINE
8
BLACK
6
CONTINUOUS
10
5.27378
20
-3.0701
11
5.27379
21
-3.07009
0
LINE
8
BLACK
6
CONTINUOUS
10
5.27379
20
-3.07009
11
5.27396
21
-3.07004
0
LINE
8
BLACK
6
CONTINUOUS
10
5.27396
20
-3.07004
11
5.27414
21
-3.06999
0
LINE
8
BLACK
6
CONTINUOUS
10
5.27414
20
-3.06999
11
5.27415
21
-3.06999
0
LINE
8
BLACK
6
CONTINUOUS
10
5.27415
20
-3.06999
11
5.27416
21
-3.06998
0
LINE
8
BLACK
6
CONTINUOUS
10
5.27416
20
-3.06998
11
5.27434
21
-3.06997
0
LINE
8
BLACK
6
CONTINUOUS
10
5.27434
20
-3.06997
11
5.27453
21
-3.06995
0
LINE
8
BLACK
6
CONTINUOUS
10
5.27453
20
-3.06995
11
5.27453
21
-3.06995
0
LINE
8
BLACK
6
CONTINUOUS
10
5.27453
20
-3.06995
11
5.27454
21
-3.06995
0
LINE
8
BLACK
6
CONTINUOUS
10
5.27454
20
-3.06995
11
5.27472
21
-3.06997
0
LINE
8
BLACK
6
CONTINUOUS
10
5.27472
20
-3.06997
11
5.27491
21
-3.06999
0
LINE
8
BLACK
6
CONTINUOUS
10
5.27491
20
-3.06999
11
5.27492
21
-3.06999
0
LINE
8
BLACK
6
CONTINUOUS
10
5.27492
20
-3.06999
11
5.27492
21
-3.06999
0
LINE
8
BLACK
6
CONTINUOUS
10
5.27492
20
-3.06999
11
5.2751
21
-3.07005
0
LINE
8
BLACK
6
CONTINUOUS
10
5.2751
20
-3.07005
11
5.27528
21
-3.0701
0
LINE
8
BLACK
6
CONTINUOUS
10
5.27528
20
-3.0701
11
5.27528
21
-3.07011
0
LINE
8
BLACK
6
CONTINUOUS
10
5.27528
20
-3.07011
11
5.27529
21
-3.07011
0
LINE
8
BLACK
6
CONTINUOUS
10
5.27529
20
-3.07011
11
5.27545
21
-3.0702
0
LINE
8
BLACK
6
CONTINUOUS
10
5.27545
20
-3.0702
11
5.27561
21
-3.07028
0
LINE
8
BLACK
6
CONTINUOUS
10
5.27561
20
-3.07028
11
5.27562
21
-3.07029
0
LINE
8
BLACK
6
CONTINUOUS
10
5.27562
20
-3.07029
11
5.27563
21
-3.07029
0
LINE
8
BLACK
6
CONTINUOUS
10
5.27563
20
-3.07029
11
5.27577
21
-3.07041
0
LINE
8
BLACK
6
CONTINUOUS
10
5.27577
20
-3.07041
11
5.27591
21
-3.07053
0
LINE
8
BLACK
6
CONTINUOUS
10
5.27591
20
-3.07053
11
5.28284
21
-3.07746
0
LINE
8
BLACK
6
CONTINUOUS
10
5.28284
20
-3.07746
11
5.28286
21
-3.07748
0
LINE
8
BLACK
6
CONTINUOUS
10
5.28286
20
-3.07748
11
5.28291
21
-3.07754
0
LINE
8
BLACK
6
CONTINUOUS
10
5.28291
20
-3.07754
11
5.28297
21
-3.0776
0
LINE
8
BLACK
6
CONTINUOUS
10
5.28297
20
-3.0776
11
5.28347
21
-3.07821
0
LINE
8
BLACK
6
CONTINUOUS
10
5.28347
20
-3.07821
11
5.28408
21
-3.07871
0
LINE
8
BLACK
6
CONTINUOUS
10
5.28408
20
-3.07871
11
5.28408
21
-3.07871
0
LINE
8
BLACK
6
CONTINUOUS
10
5.28408
20
-3.07871
11
5.2862
21
-3.08045
0
LINE
8
BLACK
6
CONTINUOUS
10
5.2862
20
-3.08045
11
5.28787
21
-3.08134
0
LINE
8
BLACK
6
CONTINUOUS
10
5.28787
20
-3.08134
11
5.28787
21
-3.08134
0
LINE
8
BLACK
6
CONTINUOUS
10
5.28787
20
-3.08134
11
5.28931
21
-3.08211
0
LINE
8
BLACK
6
CONTINUOUS
10
5.28931
20
-3.08211
11
5.29269
21
-3.08313
0
LINE
8
BLACK
6
CONTINUOUS
10
5.29269
20
-3.08313
11
5.29541
21
-3.0834
0
LINE
8
BLACK
6
CONTINUOUS
10
5.29541
20
-3.0834
11
5.29541
21
-3.0834
0
LINE
8
BLACK
6
CONTINUOUS
10
5.29541
20
-3.0834
11
5.2962
21
-3.08348
0
LINE
8
BLACK
6
CONTINUOUS
10
5.2962
20
-3.08348
11
5.29698
21
-3.0834
0
LINE
8
BLACK
6
CONTINUOUS
10
5.29698
20
-3.0834
11
5.29701
21
-3.0834
0
LINE
8
BLACK
6
CONTINUOUS
10
5.29701
20
-3.0834
11
5.29709
21
-3.0834
0
LINE
8
BLACK
6
CONTINUOUS
10
5.29709
20
-3.0834
11
5.29717
21
-3.08339
0
LINE
8
BLACK
6
CONTINUOUS
10
5.29717
20
-3.08339
11
5.58459
21
-3.08339
0
LINE
8
BLACK
6
CONTINUOUS
10
5.58459
20
-3.08339
11
5.58462
21
-3.08339
0
LINE
8
BLACK
6
CONTINUOUS
10
5.58462
20
-3.08339
11
5.5847
21
-3.0834
0
LINE
8
BLACK
6
CONTINUOUS
10
5.5847
20
-3.0834
11
5.58478
21
-3.0834
0
LINE
8
BLACK
6
CONTINUOUS
10
5.58478
20
-3.0834
11
5.58557
21
-3.08348
0
LINE
8
BLACK
6
CONTINUOUS
10
5.58557
20
-3.08348
11
5.58635
21
-3.0834
0
LINE
8
BLACK
6
CONTINUOUS
10
5.58635
20
-3.0834
11
5.58636
21
-3.0834
0
LINE
8
BLACK
6
CONTINUOUS
10
5.58636
20
-3.0834
11
5.58908
21
-3.08313
0
LINE
8
BLACK
6
CONTINUOUS
10
5.58908
20
-3.08313
11
5.59246
21
-3.08211
0
LINE
8
BLACK
6
CONTINUOUS
10
5.59246
20
-3.08211
11
5.59557
21
-3.08045
0
LINE
8
BLACK
6
CONTINUOUS
10
5.59557
20
-3.08045
11
5.5983
21
-3.07821
0
LINE
8
BLACK
6
CONTINUOUS
10
5.5983
20
-3.07821
11
5.59879
21
-3.0776
0
LINE
8
BLACK
6
CONTINUOUS
10
5.59879
20
-3.0776
11
5.59881
21
-3.07758
0
LINE
8
BLACK
6
CONTINUOUS
10
5.59881
20
-3.07758
11
5.59887
21
-3.07752
0
LINE
8
BLACK
6
CONTINUOUS
10
5.59887
20
-3.07752
11
5.59892
21
-3.07746
0
LINE
8
BLACK
6
CONTINUOUS
10
5.59892
20
-3.07746
11
5.60796
21
-3.06842
0
LINE
8
BLACK
6
CONTINUOUS
10
5.60796
20
-3.06842
11
5.60797
21
-3.06841
0
LINE
8
BLACK
6
CONTINUOUS
10
5.60797
20
-3.06841
11
5.60797
21
-3.06841
0
LINE
8
BLACK
6
CONTINUOUS
10
5.60797
20
-3.06841
11
5.60797
21
-3.06841
0
LINE
8
BLACK
6
CONTINUOUS
10
5.60797
20
-3.06841
11
5.60798
21
-3.0684
0
LINE
8
BLACK
6
CONTINUOUS
10
5.60798
20
-3.0684
11
5.60812
21
-3.06828
0
LINE
8
BLACK
6
CONTINUOUS
10
5.60812
20
-3.06828
11
5.60826
21
-3.06817
0
LINE
8
BLACK
6
CONTINUOUS
10
5.60826
20
-3.06817
11
5.60827
21
-3.06817
0
LINE
8
BLACK
6
CONTINUOUS
10
5.60827
20
-3.06817
11
5.60828
21
-3.06816
0
LINE
8
BLACK
6
CONTINUOUS
10
5.60828
20
-3.06816
11
5.60845
21
-3.06807
0
LINE
8
BLACK
6
CONTINUOUS
10
5.60845
20
-3.06807
11
5.6086
21
-3.06799
0
LINE
8
BLACK
6
CONTINUOUS
10
5.6086
20
-3.06799
11
5.60861
21
-3.06799
0
LINE
8
BLACK
6
CONTINUOUS
10
5.60861
20
-3.06799
11
5.60862
21
-3.06798
0
LINE
8
BLACK
6
CONTINUOUS
10
5.60862
20
-3.06798
11
5.6088
21
-3.06793
0
LINE
8
BLACK
6
CONTINUOUS
10
5.6088
20
-3.06793
11
5.60897
21
-3.06788
0
LINE
8
BLACK
6
CONTINUOUS
10
5.60897
20
-3.06788
11
5.61372
21
-3.06693
0
LINE
8
BLACK
6
CONTINUOUS
10
5.61372
20
-3.06693
11
5.61802
21
-3.06515
0
LINE
8
BLACK
6
CONTINUOUS
10
5.61802
20
-3.06515
11
5.62189
21
-3.06257
0
LINE
8
BLACK
6
CONTINUOUS
10
5.62189
20
-3.06257
11
5.62518
21
-3.05928
0
LINE
8
BLACK
6
CONTINUOUS
10
5.62518
20
-3.05928
11
5.62776
21
-3.05541
0
LINE
8
BLACK
6
CONTINUOUS
10
5.62776
20
-3.05541
11
5.62954
21
-3.05111
0
LINE
8
BLACK
6
CONTINUOUS
10
5.62954
20
-3.05111
11
5.63045
21
-3.04655
0
LINE
8
BLACK
6
CONTINUOUS
10
5.63045
20
-3.04655
11
5.63045
21
-3.04189
0
LINE
8
BLACK
6
CONTINUOUS
10
5.63045
20
-3.04189
11
5.62954
21
-3.03733
0
LINE
8
BLACK
6
CONTINUOUS
10
5.62954
20
-3.03733
11
5.62776
21
-3.03303
0
LINE
8
BLACK
6
CONTINUOUS
10
5.62776
20
-3.03303
11
5.62518
21
-3.02916
0
LINE
8
BLACK
6
CONTINUOUS
10
5.62518
20
-3.02916
11
5.62189
21
-3.02587
0
LINE
8
BLACK
6
CONTINUOUS
10
5.62189
20
-3.02587
11
5.61802
21
-3.02329
0
LINE
8
BLACK
6
CONTINUOUS
10
5.61802
20
-3.02329
11
5.61372
21
-3.02151
0
LINE
8
BLACK
6
CONTINUOUS
10
5.61372
20
-3.02151
11
5.60915
21
-3.0206
0
LINE
8
BLACK
6
CONTINUOUS
10
5.60915
20
-3.0206
11
5.6045
21
-3.0206
0
LINE
8
BLACK
6
CONTINUOUS
10
5.6045
20
-3.0206
11
5.59994
21
-3.02151
0
LINE
8
BLACK
6
CONTINUOUS
10
5.59994
20
-3.02151
11
5.59564
21
-3.02329
0
LINE
8
BLACK
6
CONTINUOUS
10
5.59564
20
-3.02329
11
5.59177
21
-3.02587
0
LINE
8
BLACK
6
CONTINUOUS
10
5.59177
20
-3.02587
11
5.58848
21
-3.02916
0
LINE
8
BLACK
6
CONTINUOUS
10
5.58848
20
-3.02916
11
5.58589
21
-3.03303
0
LINE
8
BLACK
6
CONTINUOUS
10
5.58589
20
-3.03303
11
5.58411
21
-3.03733
0
LINE
8
BLACK
6
CONTINUOUS
10
5.58411
20
-3.03733
11
5.58317
21
-3.04208
0
LINE
8
BLACK
6
CONTINUOUS
10
5.58317
20
-3.04208
11
5.58317
21
-3.04208
0
LINE
8
BLACK
6
CONTINUOUS
10
5.58317
20
-3.04208
11
5.58317
21
-3.04208
0
LINE
8
BLACK
6
CONTINUOUS
10
5.58317
20
-3.04208
11
5.58317
21
-3.04208
0
LINE
8
BLACK
6
CONTINUOUS
10
5.58317
20
-3.04208
11
5.58316
21
-3.0421
0
LINE
8
BLACK
6
CONTINUOUS
10
5.58316
20
-3.0421
11
5.58311
21
-3.04227
0
LINE
8
BLACK
6
CONTINUOUS
10
5.58311
20
-3.04227
11
5.58306
21
-3.04245
0
LINE
8
BLACK
6
CONTINUOUS
10
5.58306
20
-3.04245
11
5.58305
21
-3.04246
0
LINE
8
BLACK
6
CONTINUOUS
10
5.58305
20
-3.04246
11
5.58305
21
-3.04247
0
LINE
8
BLACK
6
CONTINUOUS
10
5.58305
20
-3.04247
11
5.58296
21
-3.04263
0
LINE
8
BLACK
6
CONTINUOUS
10
5.58296
20
-3.04263
11
5.58287
21
-3.04279
0
LINE
8
BLACK
6
CONTINUOUS
10
5.58287
20
-3.04279
11
5.58287
21
-3.0428
0
LINE
8
BLACK
6
CONTINUOUS
10
5.58287
20
-3.0428
11
5.58286
21
-3.04281
0
LINE
8
BLACK
6
CONTINUOUS
10
5.58286
20
-3.04281
11
5.58275
21
-3.04294
0
LINE
8
BLACK
6
CONTINUOUS
10
5.58275
20
-3.04294
11
5.58263
21
-3.04308
0
LINE
8
BLACK
6
CONTINUOUS
10
5.58263
20
-3.04308
11
5.57872
21
-3.04699
0
LINE
8
BLACK
6
CONTINUOUS
10
5.57872
20
-3.04699
11
5.57872
21
-3.04699
0
LINE
8
BLACK
6
CONTINUOUS
10
5.57872
20
-3.04699
11
5.57872
21
-3.047
0
LINE
8
BLACK
6
CONTINUOUS
10
5.57872
20
-3.047
11
5.57872
21
-3.047
0
LINE
8
BLACK
6
CONTINUOUS
10
5.57872
20
-3.047
11
5.5787
21
-3.04701
0
LINE
8
BLACK
6
CONTINUOUS
10
5.5787
20
-3.04701
11
5.57856
21
-3.04712
0
LINE
8
BLACK
6
CONTINUOUS
10
5.57856
20
-3.04712
11
5.57842
21
-3.04724
0
LINE
8
BLACK
6
CONTINUOUS
10
5.57842
20
-3.04724
11
5.57841
21
-3.04724
0
LINE
8
BLACK
6
CONTINUOUS
10
5.57841
20
-3.04724
11
5.5784
21
-3.04725
0
LINE
8
BLACK
6
CONTINUOUS
10
5.5784
20
-3.04725
11
5.57824
21
-3.04733
0
LINE
8
BLACK
6
CONTINUOUS
10
5.57824
20
-3.04733
11
5.57808
21
-3.04742
0
LINE
8
BLACK
6
CONTINUOUS
10
5.57808
20
-3.04742
11
5.57807
21
-3.04742
0
LINE
8
BLACK
6
CONTINUOUS
10
5.57807
20
-3.04742
11
5.57806
21
-3.04743
0
LINE
8
BLACK
6
CONTINUOUS
10
5.57806
20
-3.04743
11
5.57789
21
-3.04748
0
LINE
8
BLACK
6
CONTINUOUS
10
5.57789
20
-3.04748
11
5.57771
21
-3.04753
0
LINE
8
BLACK
6
CONTINUOUS
10
5.57771
20
-3.04753
11
5.5777
21
-3.04753
0
LINE
8
BLACK
6
CONTINUOUS
10
5.5777
20
-3.04753
11
5.57769
21
-3.04753
0
LINE
8
BLACK
6
CONTINUOUS
10
5.57769
20
-3.04753
11
5.57751
21
-3.04755
0
LINE
8
BLACK
6
CONTINUOUS
10
5.57751
20
-3.04755
11
5.57733
21
-3.04757
0
LINE
8
BLACK
6
CONTINUOUS
10
5.57733
20
-3.04757
11
5.30443
21
-3.04757
0
LINE
8
BLACK
6
CONTINUOUS
10
5.30443
20
-3.04757
11
5.30443
21
-3.04757
0
LINE
8
BLACK
6
CONTINUOUS
10
5.30443
20
-3.04757
11
5.30443
21
-3.04757
0
LINE
8
BLACK
6
CONTINUOUS
10
5.30443
20
-3.04757
11
5.30443
21
-3.04757
0
LINE
8
BLACK
6
CONTINUOUS
10
5.30443
20
-3.04757
11
5.30441
21
-3.04757
0
LINE
8
BLACK
6
CONTINUOUS
10
5.30441
20
-3.04757
11
5.30423
21
-3.04755
0
LINE
8
BLACK
6
CONTINUOUS
10
5.30423
20
-3.04755
11
5.30404
21
-3.04753
0
LINE
8
BLACK
6
CONTINUOUS
10
5.30404
20
-3.04753
11
5.30403
21
-3.04752
0
LINE
8
BLACK
6
CONTINUOUS
10
5.30403
20
-3.04752
11
5.30402
21
-3.04752
0
LINE
8
BLACK
6
CONTINUOUS
10
5.30402
20
-3.04752
11
5.30385
21
-3.04747
0
LINE
8
BLACK
6
CONTINUOUS
10
5.30385
20
-3.04747
11
5.30368
21
-3.04742
0
LINE
8
BLACK
6
CONTINUOUS
10
5.30368
20
-3.04742
11
5.30367
21
-3.04741
0
LINE
8
BLACK
6
CONTINUOUS
10
5.30367
20
-3.04741
11
5.30366
21
-3.04741
0
LINE
8
BLACK
6
CONTINUOUS
10
5.30366
20
-3.04741
11
5.3035
21
-3.04732
0
LINE
8
BLACK
6
CONTINUOUS
10
5.3035
20
-3.04732
11
5.30334
21
-3.04723
0
LINE
8
BLACK
6
CONTINUOUS
10
5.30334
20
-3.04723
11
5.30333
21
-3.04723
0
LINE
8
BLACK
6
CONTINUOUS
10
5.30333
20
-3.04723
11
5.30332
21
-3.04722
0
LINE
8
BLACK
6
CONTINUOUS
10
5.30332
20
-3.04722
11
5.30318
21
-3.04711
0
LINE
8
BLACK
6
CONTINUOUS
10
5.30318
20
-3.04711
11
5.30304
21
-3.04699
0
LINE
8
BLACK
6
CONTINUOUS
10
5.30304
20
-3.04699
11
5.30124
21
-3.04519
0
LINE
8
BLACK
6
CONTINUOUS
10
5.30124
20
-3.04519
11
5.30124
21
-3.04519
0
LINE
8
BLACK
6
CONTINUOUS
10
5.30124
20
-3.04519
11
5.30124
21
-3.04519
0
LINE
8
BLACK
6
CONTINUOUS
10
5.30124
20
-3.04519
11
5.30124
21
-3.04519
0
LINE
8
BLACK
6
CONTINUOUS
10
5.30124
20
-3.04519
11
5.30122
21
-3.04517
0
LINE
8
BLACK
6
CONTINUOUS
10
5.30122
20
-3.04517
11
5.30111
21
-3.04503
0
LINE
8
BLACK
6
CONTINUOUS
10
5.30111
20
-3.04503
11
5.30099
21
-3.04489
0
LINE
8
BLACK
6
CONTINUOUS
10
5.30099
20
-3.04489
11
5.30099
21
-3.04488
0
LINE
8
BLACK
6
CONTINUOUS
10
5.30099
20
-3.04488
11
5.30098
21
-3.04487
0
LINE
8
BLACK
6
CONTINUOUS
10
5.30098
20
-3.04487
11
5.3009
21
-3.04471
0
LINE
8
BLACK
6
CONTINUOUS
10
5.3009
20
-3.04471
11
5.30081
21
-3.04455
0
LINE
8
BLACK
6
CONTINUOUS
10
5.30081
20
-3.04455
11
5.30081
21
-3.04454
0
LINE
8
BLACK
6
CONTINUOUS
10
5.30081
20
-3.04454
11
5.30081
21
-3.04453
0
LINE
8
BLACK
6
CONTINUOUS
10
5.30081
20
-3.04453
11
5.30076
21
-3.04436
0
LINE
8
BLACK
6
CONTINUOUS
10
5.30076
20
-3.04436
11
5.3007
21
-3.04418
0
LINE
8
BLACK
6
CONTINUOUS
10
5.3007
20
-3.04418
11
5.3007
21
-3.04417
0
LINE
8
BLACK
6
CONTINUOUS
10
5.3007
20
-3.04417
11
5.3007
21
-3.04416
0
LINE
8
BLACK
6
CONTINUOUS
10
5.3007
20
-3.04416
11
5.30068
21
-3.04398
0
LINE
8
BLACK
6
CONTINUOUS
10
5.30068
20
-3.04398
11
5.30067
21
-3.0438
0
LINE
8
BLACK
6
CONTINUOUS
10
5.30067
20
-3.0438
11
5.30067
21
-3.04379
0
LINE
8
BLACK
6
CONTINUOUS
10
5.30067
20
-3.04379
11
5.30067
21
-3.04378
0
LINE
8
BLACK
6
CONTINUOUS
10
5.30067
20
-3.04378
11
5.30069
21
-3.0436
0
LINE
8
BLACK
6
CONTINUOUS
10
5.30069
20
-3.0436
11
5.30071
21
-3.04342
0
LINE
8
BLACK
6
CONTINUOUS
10
5.30071
20
-3.04342
11
5.30071
21
-3.04341
0
LINE
8
BLACK
6
CONTINUOUS
10
5.30071
20
-3.04341
11
5.30071
21
-3.0434
0
LINE
8
BLACK
6
CONTINUOUS
10
5.30071
20
-3.0434
11
5.30076
21
-3.04323
0
LINE
8
BLACK
6
CONTINUOUS
10
5.30076
20
-3.04323
11
5.30082
21
-3.04305
0
LINE
8
BLACK
6
CONTINUOUS
10
5.30082
20
-3.04305
11
5.30224
21
-3.03961
0
LINE
8
BLACK
6
CONTINUOUS
10
5.30224
20
-3.03961
11
5.30407
21
-3.03041
0
LINE
8
BLACK
6
CONTINUOUS
10
5.30407
20
-3.03041
11
5.30407
21
-3.02102
0
LINE
8
BLACK
6
CONTINUOUS
10
5.30407
20
-3.02102
11
5.3027
21
-3.01413
0
LINE
8
BLACK
6
CONTINUOUS
10
5.3027
20
-3.01413
11
5.30224
21
-3.01182
0
LINE
8
BLACK
6
CONTINUOUS
10
5.30224
20
-3.01182
11
5.29865
21
-3.00315
0
LINE
8
BLACK
6
CONTINUOUS
10
5.29865
20
-3.00315
11
5.29344
21
-2.99535
0
LINE
8
BLACK
6
CONTINUOUS
10
5.29344
20
-2.99535
11
5.2868
21
-2.98871
0
LINE
8
BLACK
6
CONTINUOUS
10
5.2868
20
-2.98871
11
5.279
21
-2.9835
0
LINE
8
BLACK
6
CONTINUOUS
10
5.279
20
-2.9835
11
5.27033
21
-2.97991
0
LINE
8
BLACK
6
CONTINUOUS
10
5.27033
20
-2.97991
11
5.26113
21
-2.97808
0
LINE
8
BLACK
6
CONTINUOUS
10
5.26113
20
-2.97808
11
5.25174
21
-2.97808
0
LINE
8
BLACK
6
CONTINUOUS
10
5.45017
20
-2.99265
11
5.44561
21
-2.99355
0
LINE
8
BLACK
6
CONTINUOUS
10
5.44561
20
-2.99355
11
5.44131
21
-2.99533
0
LINE
8
BLACK
6
CONTINUOUS
10
5.44131
20
-2.99533
11
5.43744
21
-2.99792
0
LINE
8
BLACK
6
CONTINUOUS
10
5.43744
20
-2.99792
11
5.43415
21
-3.00121
0
LINE
8
BLACK
6
CONTINUOUS
10
5.43415
20
-3.00121
11
5.43156
21
-3.00508
0
LINE
8
BLACK
6
CONTINUOUS
10
5.43156
20
-3.00508
11
5.42978
21
-3.00938
0
LINE
8
BLACK
6
CONTINUOUS
10
5.42978
20
-3.00938
11
5.42887
21
-3.01394
0
LINE
8
BLACK
6
CONTINUOUS
10
5.42887
20
-3.01394
11
5.42887
21
-3.01859
0
LINE
8
BLACK
6
CONTINUOUS
10
5.42887
20
-3.01859
11
5.42978
21
-3.02316
0
LINE
8
BLACK
6
CONTINUOUS
10
5.42978
20
-3.02316
11
5.43156
21
-3.02746
0
LINE
8
BLACK
6
CONTINUOUS
10
5.43156
20
-3.02746
11
5.43415
21
-3.03133
0
LINE
8
BLACK
6
CONTINUOUS
10
5.43415
20
-3.03133
11
5.43744
21
-3.03462
0
LINE
8
BLACK
6
CONTINUOUS
10
5.43744
20
-3.03462
11
5.44131
21
-3.0372
0
LINE
8
BLACK
6
CONTINUOUS
10
5.44131
20
-3.0372
11
5.44561
21
-3.03898
0
LINE
8
BLACK
6
CONTINUOUS
10
5.44561
20
-3.03898
11
5.45017
21
-3.03989
0
LINE
8
BLACK
6
CONTINUOUS
10
5.45017
20
-3.03989
11
5.45482
21
-3.03989
0
LINE
8
BLACK
6
CONTINUOUS
10
5.45482
20
-3.03989
11
5.45939
21
-3.03898
0
LINE
8
BLACK
6
CONTINUOUS
10
5.45939
20
-3.03898
11
5.46369
21
-3.0372
0
LINE
8
BLACK
6
CONTINUOUS
10
5.46369
20
-3.0372
11
5.46755
21
-3.03462
0
LINE
8
BLACK
6
CONTINUOUS
10
5.46755
20
-3.03462
11
5.47084
21
-3.03133
0
LINE
8
BLACK
6
CONTINUOUS
10
5.47084
20
-3.03133
11
5.47343
21
-3.02746
0
LINE
8
BLACK
6
CONTINUOUS
10
5.47343
20
-3.02746
11
5.47521
21
-3.02316
0
LINE
8
BLACK
6
CONTINUOUS
10
5.47521
20
-3.02316
11
5.47612
21
-3.01859
0
LINE
8
BLACK
6
CONTINUOUS
10
5.47612
20
-3.01859
11
5.47612
21
-3.01394
0
LINE
8
BLACK
6
CONTINUOUS
10
5.47612
20
-3.01394
11
5.47561
21
-3.01138
0
LINE
8
BLACK
6
CONTINUOUS
10
5.47561
20
-3.01138
11
5.47521
21
-3.00938
0
LINE
8
BLACK
6
CONTINUOUS
10
5.47521
20
-3.00938
11
5.47343
21
-3.00508
0
LINE
8
BLACK
6
CONTINUOUS
10
5.47343
20
-3.00508
11
5.47084
21
-3.00121
0
LINE
8
BLACK
6
CONTINUOUS
10
5.47084
20
-3.00121
11
5.46755
21
-2.99792
0
LINE
8
BLACK
6
CONTINUOUS
10
5.46755
20
-2.99792
11
5.46369
21
-2.99533
0
LINE
8
BLACK
6
CONTINUOUS
10
5.46369
20
-2.99533
11
5.45939
21
-2.99355
0
LINE
8
BLACK
6
CONTINUOUS
10
5.45939
20
-2.99355
11
5.45482
21
-2.99265
0
LINE
8
BLACK
6
CONTINUOUS
10
5.45482
20
-2.99265
11
5.45017
21
-2.99265
0
LINE
8
BLACK
6
CONTINUOUS
10
5.51513
20
-2.98989
11
5.51057
21
-2.9908
0
LINE
8
BLACK
6
CONTINUOUS
10
5.51057
20
-2.9908
11
5.50627
21
-2.99258
0
LINE
8
BLACK
6
CONTINUOUS
10
5.50627
20
-2.99258
11
5.5024
21
-2.99516
0
LINE
8
BLACK
6
CONTINUOUS
10
5.5024
20
-2.99516
11
5.49911
21
-2.99845
0
LINE
8
BLACK
6
CONTINUOUS
10
5.49911
20
-2.99845
11
5.49652
21
-3.00232
0
LINE
8
BLACK
6
CONTINUOUS
10
5.49652
20
-3.00232
11
5.49474
21
-3.00662
0
LINE
8
BLACK
6
CONTINUOUS
10
5.49474
20
-3.00662
11
5.49384
21
-3.01119
0
LINE
8
BLACK
6
CONTINUOUS
10
5.49384
20
-3.01119
11
5.49384
21
-3.01584
0
LINE
8
BLACK
6
CONTINUOUS
10
5.49384
20
-3.01584
11
5.49474
21
-3.0204
0
LINE
8
BLACK
6
CONTINUOUS
10
5.49474
20
-3.0204
11
5.49652
21
-3.0247
0
LINE
8
BLACK
6
CONTINUOUS
10
5.49652
20
-3.0247
11
5.49911
21
-3.02857
0
LINE
8
BLACK
6
CONTINUOUS
10
5.49911
20
-3.02857
11
5.5024
21
-3.03186
0
LINE
8
BLACK
6
CONTINUOUS
10
5.5024
20
-3.03186
11
5.50627
21
-3.03445
0
LINE
8
BLACK
6
CONTINUOUS
10
5.50627
20
-3.03445
11
5.51057
21
-3.03623
0
LINE
8
BLACK
6
CONTINUOUS
10
5.51057
20
-3.03623
11
5.51513
21
-3.03713
0
LINE
8
BLACK
6
CONTINUOUS
10
5.51513
20
-3.03713
11
5.51978
21
-3.03713
0
LINE
8
BLACK
6
CONTINUOUS
10
5.51978
20
-3.03713
11
5.52435
21
-3.03623
0
LINE
8
BLACK
6
CONTINUOUS
10
5.52435
20
-3.03623
11
5.52865
21
-3.03445
0
LINE
8
BLACK
6
CONTINUOUS
10
5.52865
20
-3.03445
11
5.53252
21
-3.03186
0
LINE
8
BLACK
6
CONTINUOUS
10
5.53252
20
-3.03186
11
5.53581
21
-3.02857
0
LINE
8
BLACK
6
CONTINUOUS
10
5.53581
20
-3.02857
11
5.53839
21
-3.0247
0
LINE
8
BLACK
6
CONTINUOUS
10
5.53839
20
-3.0247
11
5.54017
21
-3.0204
0
LINE
8
BLACK
6
CONTINUOUS
10
5.54017
20
-3.0204
11
5.54108
21
-3.01584
0
LINE
8
BLACK
6
CONTINUOUS
10
5.54108
20
-3.01584
11
5.54108
21
-3.01119
0
LINE
8
BLACK
6
CONTINUOUS
10
5.54108
20
-3.01119
11
5.54017
21
-3.00662
0
LINE
8
BLACK
6
CONTINUOUS
10
5.54017
20
-3.00662
11
5.53839
21
-3.00232
0
LINE
8
BLACK
6
CONTINUOUS
10
5.53839
20
-3.00232
11
5.53581
21
-2.99845
0
LINE
8
BLACK
6
CONTINUOUS
10
5.53581
20
-2.99845
11
5.53252
21
-2.99516
0
LINE
8
BLACK
6
CONTINUOUS
10
5.53252
20
-2.99516
11
5.52865
21
-2.99258
0
LINE
8
BLACK
6
CONTINUOUS
10
5.52865
20
-2.99258
11
5.52435
21
-2.9908
0
LINE
8
BLACK
6
CONTINUOUS
10
5.52435
20
-2.9908
11
5.51978
21
-2.98989
0
LINE
8
BLACK
6
CONTINUOUS
10
5.51978
20
-2.98989
11
5.51513
21
-2.98989
0
LINE
8
BLACK
6
CONTINUOUS
10
5.97025
20
-2.97887
11
5.96569
21
-2.97977
0
LINE
8
BLACK
6
CONTINUOUS
10
5.96569
20
-2.97977
11
5.96139
21
-2.98155
0
LINE
8
BLACK
6
CONTINUOUS
10
5.96139
20
-2.98155
11
5.95752
21
-2.98414
0
LINE
8
BLACK
6
CONTINUOUS
10
5.95752
20
-2.98414
11
5.95423
21
-2.98743
0
LINE
8
BLACK
6
CONTINUOUS
10
5.95423
20
-2.98743
11
5.95164
21
-2.9913
0
LINE
8
BLACK
6
CONTINUOUS
10
5.95164
20
-2.9913
11
5.94986
21
-2.9956
0
LINE
8
BLACK
6
CONTINUOUS
10
5.94986
20
-2.9956
11
5.94895
21
-3.00016
0
LINE
8
BLACK
6
CONTINUOUS
10
5.94895
20
-3.00016
11
5.94895
21
-3.00481
0
LINE
8
BLACK
6
CONTINUOUS
10
5.94895
20
-3.00481
11
5.94986
21
-3.00938
0
LINE
8
BLACK
6
CONTINUOUS
10
5.94986
20
-3.00938
11
5.95164
21
-3.01368
0
LINE
8
BLACK
6
CONTINUOUS
10
5.95164
20
-3.01368
11
5.95423
21
-3.01755
0
LINE
8
BLACK
6
CONTINUOUS
10
5.95423
20
-3.01755
11
5.95752
21
-3.02084
0
LINE
8
BLACK
6
CONTINUOUS
10
5.95752
20
-3.02084
11
5.96139
21
-3.02342
0
LINE
8
BLACK
6
CONTINUOUS
10
5.96139
20
-3.02342
11
5.96569
21
-3.0252
0
LINE
8
BLACK
6
CONTINUOUS
10
5.96569
20
-3.0252
11
5.97025
21
-3.02611
0
LINE
8
BLACK
6
CONTINUOUS
10
5.97025
20
-3.02611
11
5.9749
21
-3.02611
0
LINE
8
BLACK
6
CONTINUOUS
10
5.9749
20
-3.02611
11
5.97947
21
-3.0252
0
LINE
8
BLACK
6
CONTINUOUS
10
5.97947
20
-3.0252
11
5.98376
21
-3.02342
0
LINE
8
BLACK
6
CONTINUOUS
10
5.98376
20
-3.02342
11
5.98763
21
-3.02084
0
LINE
8
BLACK
6
CONTINUOUS
10
5.98763
20
-3.02084
11
5.99092
21
-3.01755
0
LINE
8
BLACK
6
CONTINUOUS
10
5.99092
20
-3.01755
11
5.99351
21
-3.01368
0
LINE
8
BLACK
6
CONTINUOUS
10
5.99351
20
-3.01368
11
5.99529
21
-3.00938
0
LINE
8
BLACK
6
CONTINUOUS
10
5.99529
20
-3.00938
11
5.9962
21
-3.00481
0
LINE
8
BLACK
6
CONTINUOUS
10
5.9962
20
-3.00481
11
5.9962
21
-3.00016
0
LINE
8
BLACK
6
CONTINUOUS
10
5.9962
20
-3.00016
11
5.99529
21
-2.9956
0
LINE
8
BLACK
6
CONTINUOUS
10
5.99529
20
-2.9956
11
5.99351
21
-2.9913
0
LINE
8
BLACK
6
CONTINUOUS
10
5.99351
20
-2.9913
11
5.99092
21
-2.98743
0
LINE
8
BLACK
6
CONTINUOUS
10
5.99092
20
-2.98743
11
5.98763
21
-2.98414
0
LINE
8
BLACK
6
CONTINUOUS
10
5.98763
20
-2.98414
11
5.98376
21
-2.98155
0
LINE
8
BLACK
6
CONTINUOUS
10
5.98376
20
-2.98155
11
5.97947
21
-2.97977
0
LINE
8
BLACK
6
CONTINUOUS
10
5.97947
20
-2.97977
11
5.9749
21
-2.97887
0
LINE
8
BLACK
6
CONTINUOUS
10
5.9749
20
-2.97887
11
5.97025
21
-2.97887
0
LINE
8
BLACK
6
CONTINUOUS
10
5.25174
20
-2.77808
11
5.24254
21
-2.77991
0
LINE
8
BLACK
6
CONTINUOUS
10
5.24254
20
-2.77991
11
5.23387
21
-2.7835
0
LINE
8
BLACK
6
CONTINUOUS
10
5.23387
20
-2.7835
11
5.22607
21
-2.78871
0
LINE
8
BLACK
6
CONTINUOUS
10
5.22607
20
-2.78871
11
5.21943
21
-2.79535
0
LINE
8
BLACK
6
CONTINUOUS
10
5.21943
20
-2.79535
11
5.21422
21
-2.80315
0
LINE
8
BLACK
6
CONTINUOUS
10
5.21422
20
-2.80315
11
5.21063
21
-2.81182
0
LINE
8
BLACK
6
CONTINUOUS
10
5.21063
20
-2.81182
11
5.2088
21
-2.82102
0
LINE
8
BLACK
6
CONTINUOUS
10
5.2088
20
-2.82102
11
5.2088
21
-2.83041
0
LINE
8
BLACK
6
CONTINUOUS
10
5.2088
20
-2.83041
11
5.21063
21
-2.83961
0
LINE
8
BLACK
6
CONTINUOUS
10
5.21063
20
-2.83961
11
5.21422
21
-2.84828
0
LINE
8
BLACK
6
CONTINUOUS
10
5.21422
20
-2.84828
11
5.21943
21
-2.85608
0
LINE
8
BLACK
6
CONTINUOUS
10
5.21943
20
-2.85608
11
5.22607
21
-2.86272
0
LINE
8
BLACK
6
CONTINUOUS
10
5.22607
20
-2.86272
11
5.23387
21
-2.86793
0
LINE
8
BLACK
6
CONTINUOUS
10
5.23387
20
-2.86793
11
5.24254
21
-2.87152
0
LINE
8
BLACK
6
CONTINUOUS
10
5.24254
20
-2.87152
11
5.25174
21
-2.87335
0
LINE
8
BLACK
6
CONTINUOUS
10
5.25174
20
-2.87335
11
5.26113
21
-2.87335
0
LINE
8
BLACK
6
CONTINUOUS
10
5.26113
20
-2.87335
11
5.27033
21
-2.87152
0
LINE
8
BLACK
6
CONTINUOUS
10
5.27033
20
-2.87152
11
5.279
21
-2.86793
0
LINE
8
BLACK
6
CONTINUOUS
10
5.279
20
-2.86793
11
5.2868
21
-2.86272
0
LINE
8
BLACK
6
CONTINUOUS
10
5.2868
20
-2.86272
11
5.29344
21
-2.85608
0
LINE
8
BLACK
6
CONTINUOUS
10
5.29344
20
-2.85608
11
5.29865
21
-2.84828
0
LINE
8
BLACK
6
CONTINUOUS
10
5.29865
20
-2.84828
11
5.30224
21
-2.83961
0
LINE
8
BLACK
6
CONTINUOUS
10
5.30224
20
-2.83961
11
5.30407
21
-2.83041
0
LINE
8
BLACK
6
CONTINUOUS
10
5.30407
20
-2.83041
11
5.30407
21
-2.82102
0
LINE
8
BLACK
6
CONTINUOUS
10
5.30407
20
-2.82102
11
5.30224
21
-2.81182
0
LINE
8
BLACK
6
CONTINUOUS
10
5.30224
20
-2.81182
11
5.29865
21
-2.80315
0
LINE
8
BLACK
6
CONTINUOUS
10
5.29865
20
-2.80315
11
5.29344
21
-2.79535
0
LINE
8
BLACK
6
CONTINUOUS
10
5.29344
20
-2.79535
11
5.2868
21
-2.78871
0
LINE
8
BLACK
6
CONTINUOUS
10
5.2868
20
-2.78871
11
5.279
21
-2.7835
0
LINE
8
BLACK
6
CONTINUOUS
10
5.279
20
-2.7835
11
5.27033
21
-2.77991
0
LINE
8
BLACK
6
CONTINUOUS
10
5.27033
20
-2.77991
11
5.26113
21
-2.77808
0
LINE
8
BLACK
6
CONTINUOUS
10
5.26113
20
-2.77808
11
5.25174
21
-2.77808
0
LINE
8
BLACK
6
CONTINUOUS
10
5.64495
20
-3.53665
11
5.64638
21
-3.53724
0
LINE
8
BLACK
6
CONTINUOUS
10
5.64638
20
-3.53724
11
5.64767
21
-3.5381
0
LINE
8
BLACK
6
CONTINUOUS
10
5.64767
20
-3.5381
11
5.64877
21
-3.5392
0
LINE
8
BLACK
6
CONTINUOUS
10
5.64877
20
-3.5392
11
5.64963
21
-3.54049
0
LINE
8
BLACK
6
CONTINUOUS
10
5.64963
20
-3.54049
11
5.65023
21
-3.54192
0
LINE
8
BLACK
6
CONTINUOUS
10
5.65023
20
-3.54192
11
5.65053
21
-3.54344
0
LINE
8
BLACK
6
CONTINUOUS
10
5.65053
20
-3.54344
11
5.65053
21
-3.545
0
LINE
8
BLACK
6
CONTINUOUS
10
5.65053
20
-3.545
11
5.65023
21
-3.54652
0
LINE
8
BLACK
6
CONTINUOUS
10
5.65023
20
-3.54652
11
5.64963
21
-3.54795
0
LINE
8
BLACK
6
CONTINUOUS
10
5.64963
20
-3.54795
11
5.64877
21
-3.54924
0
LINE
8
BLACK
6
CONTINUOUS
10
5.64877
20
-3.54924
11
5.64767
21
-3.55034
0
LINE
8
BLACK
6
CONTINUOUS
10
5.64767
20
-3.55034
11
5.64638
21
-3.5512
0
LINE
8
BLACK
6
CONTINUOUS
10
5.64638
20
-3.5512
11
5.64495
21
-3.55179
0
LINE
8
BLACK
6
CONTINUOUS
10
5.64495
20
-3.55179
11
5.64343
21
-3.55209
0
LINE
8
BLACK
6
CONTINUOUS
10
5.64343
20
-3.55209
11
5.64188
21
-3.55209
0
LINE
8
BLACK
6
CONTINUOUS
10
5.64188
20
-3.55209
11
5.64036
21
-3.55179
0
LINE
8
BLACK
6
CONTINUOUS
10
5.64036
20
-3.55179
11
5.63892
21
-3.5512
0
LINE
8
BLACK
6
CONTINUOUS
10
5.63892
20
-3.5512
11
5.63763
21
-3.55034
0
LINE
8
BLACK
6
CONTINUOUS
10
5.63763
20
-3.55034
11
5.63654
21
-3.54924
0
LINE
8
BLACK
6
CONTINUOUS
10
5.63654
20
-3.54924
11
5.63568
21
-3.54795
0
LINE
8
BLACK
6
CONTINUOUS
10
5.63568
20
-3.54795
11
5.63508
21
-3.54652
0
LINE
8
BLACK
6
CONTINUOUS
10
5.63508
20
-3.54652
11
5.63478
21
-3.545
0
LINE
8
BLACK
6
CONTINUOUS
10
5.63478
20
-3.545
11
5.63478
21
-3.54344
0
LINE
8
BLACK
6
CONTINUOUS
10
5.63478
20
-3.54344
11
5.63508
21
-3.54192
0
LINE
8
BLACK
6
CONTINUOUS
10
5.63508
20
-3.54192
11
5.63568
21
-3.54049
0
LINE
8
BLACK
6
CONTINUOUS
10
5.63568
20
-3.54049
11
5.63654
21
-3.5392
0
LINE
8
BLACK
6
CONTINUOUS
10
5.63654
20
-3.5392
11
5.63763
21
-3.5381
0
LINE
8
BLACK
6
CONTINUOUS
10
5.63763
20
-3.5381
11
5.63892
21
-3.53724
0
LINE
8
BLACK
6
CONTINUOUS
10
5.63892
20
-3.53724
11
5.64036
21
-3.53665
0
LINE
8
BLACK
6
CONTINUOUS
10
5.64036
20
-3.53665
11
5.64188
21
-3.53635
0
LINE
8
BLACK
6
CONTINUOUS
10
5.64188
20
-3.53635
11
5.64343
21
-3.53635
0
LINE
8
BLACK
6
CONTINUOUS
10
5.64343
20
-3.53635
11
5.64495
21
-3.53665
0
LINE
8
BLACK
6
CONTINUOUS
10
5.57881
20
-3.53586
11
5.58024
21
-3.53646
0
LINE
8
BLACK
6
CONTINUOUS
10
5.58024
20
-3.53646
11
5.58153
21
-3.53732
0
LINE
8
BLACK
6
CONTINUOUS
10
5.58153
20
-3.53732
11
5.58263
21
-3.53841
0
LINE
8
BLACK
6
CONTINUOUS
10
5.58263
20
-3.53841
11
5.58349
21
-3.5397
0
LINE
8
BLACK
6
CONTINUOUS
10
5.58349
20
-3.5397
11
5.58408
21
-3.54114
0
LINE
8
BLACK
6
CONTINUOUS
10
5.58408
20
-3.54114
11
5.58439
21
-3.54266
0
LINE
8
BLACK
6
CONTINUOUS
10
5.58439
20
-3.54266
11
5.58439
21
-3.54421
0
LINE
8
BLACK
6
CONTINUOUS
10
5.58439
20
-3.54421
11
5.58408
21
-3.54573
0
LINE
8
BLACK
6
CONTINUOUS
10
5.58408
20
-3.54573
11
5.58349
21
-3.54716
0
LINE
8
BLACK
6
CONTINUOUS
10
5.58349
20
-3.54716
11
5.58263
21
-3.54845
0
LINE
8
BLACK
6
CONTINUOUS
10
5.58263
20
-3.54845
11
5.58153
21
-3.54955
0
LINE
8
BLACK
6
CONTINUOUS
10
5.58153
20
-3.54955
11
5.58024
21
-3.55041
0
LINE
8
BLACK
6
CONTINUOUS
10
5.58024
20
-3.55041
11
5.57881
21
-3.551
0
LINE
8
BLACK
6
CONTINUOUS
10
5.57881
20
-3.551
11
5.57729
21
-3.55131
0
LINE
8
BLACK
6
CONTINUOUS
10
5.57729
20
-3.55131
11
5.57574
21
-3.55131
0
LINE
8
BLACK
6
CONTINUOUS
10
5.57574
20
-3.55131
11
5.57422
21
-3.551
0
LINE
8
BLACK
6
CONTINUOUS
10
5.57422
20
-3.551
11
5.57278
21
-3.55041
0
LINE
8
BLACK
6
CONTINUOUS
10
5.57278
20
-3.55041
11
5.57149
21
-3.54955
0
LINE
8
BLACK
6
CONTINUOUS
10
5.57149
20
-3.54955
11
5.5704
21
-3.54845
0
LINE
8
BLACK
6
CONTINUOUS
10
5.5704
20
-3.54845
11
5.56953
21
-3.54716
0
LINE
8
BLACK
6
CONTINUOUS
10
5.56953
20
-3.54716
11
5.56894
21
-3.54573
0
LINE
8
BLACK
6
CONTINUOUS
10
5.56894
20
-3.54573
11
5.56864
21
-3.54421
0
LINE
8
BLACK
6
CONTINUOUS
10
5.56864
20
-3.54421
11
5.56864
21
-3.54266
0
LINE
8
BLACK
6
CONTINUOUS
10
5.56864
20
-3.54266
11
5.56894
21
-3.54114
0
LINE
8
BLACK
6
CONTINUOUS
10
5.56894
20
-3.54114
11
5.56953
21
-3.5397
0
LINE
8
BLACK
6
CONTINUOUS
10
5.56953
20
-3.5397
11
5.5704
21
-3.53841
0
LINE
8
BLACK
6
CONTINUOUS
10
5.5704
20
-3.53841
11
5.57149
21
-3.53732
0
LINE
8
BLACK
6
CONTINUOUS
10
5.57149
20
-3.53732
11
5.57278
21
-3.53646
0
LINE
8
BLACK
6
CONTINUOUS
10
5.57278
20
-3.53646
11
5.57422
21
-3.53586
0
LINE
8
BLACK
6
CONTINUOUS
10
5.57422
20
-3.53586
11
5.57574
21
-3.53556
0
LINE
8
BLACK
6
CONTINUOUS
10
5.57574
20
-3.53556
11
5.57729
21
-3.53556
0
LINE
8
BLACK
6
CONTINUOUS
10
5.57729
20
-3.53556
11
5.57881
21
-3.53586
0
LINE
8
BLACK
6
CONTINUOUS
10
5.60834
20
-3.52051
11
5.60977
21
-3.5211
0
LINE
8
BLACK
6
CONTINUOUS
10
5.60977
20
-3.5211
11
5.61106
21
-3.52196
0
LINE
8
BLACK
6
CONTINUOUS
10
5.61106
20
-3.52196
11
5.61216
21
-3.52306
0
LINE
8
BLACK
6
CONTINUOUS
10
5.61216
20
-3.52306
11
5.61302
21
-3.52435
0
LINE
8
BLACK
6
CONTINUOUS
10
5.61302
20
-3.52435
11
5.61361
21
-3.52578
0
LINE
8
BLACK
6
CONTINUOUS
10
5.61361
20
-3.52578
11
5.61391
21
-3.5273
0
LINE
8
BLACK
6
CONTINUOUS
10
5.61391
20
-3.5273
11
5.61391
21
-3.52885
0
LINE
8
BLACK
6
CONTINUOUS
10
5.61391
20
-3.52885
11
5.61361
21
-3.53038
0
LINE
8
BLACK
6
CONTINUOUS
10
5.61361
20
-3.53038
11
5.61302
21
-3.53181
0
LINE
8
BLACK
6
CONTINUOUS
10
5.61302
20
-3.53181
11
5.61216
21
-3.5331
0
LINE
8
BLACK
6
CONTINUOUS
10
5.61216
20
-3.5331
11
5.61106
21
-3.53419
0
LINE
8
BLACK
6
CONTINUOUS
10
5.61106
20
-3.53419
11
5.60977
21
-3.53506
0
LINE
8
BLACK
6
CONTINUOUS
10
5.60977
20
-3.53506
11
5.60834
21
-3.53565
0
LINE
8
BLACK
6
CONTINUOUS
10
5.60834
20
-3.53565
11
5.60682
21
-3.53595
0
LINE
8
BLACK
6
CONTINUOUS
10
5.60682
20
-3.53595
11
5.60526
21
-3.53595
0
LINE
8
BLACK
6
CONTINUOUS
10
5.60526
20
-3.53595
11
5.60374
21
-3.53565
0
LINE
8
BLACK
6
CONTINUOUS
10
5.60374
20
-3.53565
11
5.60231
21
-3.53506
0
LINE
8
BLACK
6
CONTINUOUS
10
5.60231
20
-3.53506
11
5.60102
21
-3.53419
0
LINE
8
BLACK
6
CONTINUOUS
10
5.60102
20
-3.53419
11
5.59992
21
-3.5331
0
LINE
8
BLACK
6
CONTINUOUS
10
5.59992
20
-3.5331
11
5.59906
21
-3.53181
0
LINE
8
BLACK
6
CONTINUOUS
10
5.59906
20
-3.53181
11
5.59847
21
-3.53038
0
LINE
8
BLACK
6
CONTINUOUS
10
5.59847
20
-3.53038
11
5.59817
21
-3.52885
0
LINE
8
BLACK
6
CONTINUOUS
10
5.59817
20
-3.52885
11
5.59817
21
-3.5273
0
LINE
8
BLACK
6
CONTINUOUS
10
5.59817
20
-3.5273
11
5.59847
21
-3.52578
0
LINE
8
BLACK
6
CONTINUOUS
10
5.59847
20
-3.52578
11
5.59906
21
-3.52435
0
LINE
8
BLACK
6
CONTINUOUS
10
5.59906
20
-3.52435
11
5.59992
21
-3.52306
0
LINE
8
BLACK
6
CONTINUOUS
10
5.59992
20
-3.52306
11
5.60102
21
-3.52196
0
LINE
8
BLACK
6
CONTINUOUS
10
5.60102
20
-3.52196
11
5.60231
21
-3.5211
0
LINE
8
BLACK
6
CONTINUOUS
10
5.60231
20
-3.5211
11
5.60374
21
-3.52051
0
LINE
8
BLACK
6
CONTINUOUS
10
5.60374
20
-3.52051
11
5.60526
21
-3.5202
0
LINE
8
BLACK
6
CONTINUOUS
10
5.60526
20
-3.5202
11
5.60682
21
-3.5202
0
LINE
8
BLACK
6
CONTINUOUS
10
5.60682
20
-3.5202
11
5.60834
21
-3.52051
0
LINE
8
BLACK
6
CONTINUOUS
10
5.48386
20
-3.36864
11
5.48673
21
-3.36983
0
LINE
8
BLACK
6
CONTINUOUS
10
5.48673
20
-3.36983
11
5.48931
21
-3.37156
0
LINE
8
BLACK
6
CONTINUOUS
10
5.48931
20
-3.37156
11
5.4915
21
-3.37375
0
LINE
8
BLACK
6
CONTINUOUS
10
5.4915
20
-3.37375
11
5.49322
21
-3.37633
0
LINE
8
BLACK
6
CONTINUOUS
10
5.49322
20
-3.37633
11
5.49441
21
-3.37919
0
LINE
8
BLACK
6
CONTINUOUS
10
5.49441
20
-3.37919
11
5.49502
21
-3.38224
0
LINE
8
BLACK
6
CONTINUOUS
10
5.49502
20
-3.38224
11
5.49502
21
-3.38534
0
LINE
8
BLACK
6
CONTINUOUS
10
5.49502
20
-3.38534
11
5.49441
21
-3.38838
0
LINE
8
BLACK
6
CONTINUOUS
10
5.49441
20
-3.38838
11
5.49322
21
-3.39125
0
LINE
8
BLACK
6
CONTINUOUS
10
5.49322
20
-3.39125
11
5.4915
21
-3.39383
0
LINE
8
BLACK
6
CONTINUOUS
10
5.4915
20
-3.39383
11
5.48931
21
-3.39602
0
LINE
8
BLACK
6
CONTINUOUS
10
5.48931
20
-3.39602
11
5.48673
21
-3.39774
0
LINE
8
BLACK
6
CONTINUOUS
10
5.48673
20
-3.39774
11
5.48386
21
-3.39893
0
LINE
8
BLACK
6
CONTINUOUS
10
5.48386
20
-3.39893
11
5.48082
21
-3.39954
0
LINE
8
BLACK
6
CONTINUOUS
10
5.48082
20
-3.39954
11
5.47772
21
-3.39954
0
LINE
8
BLACK
6
CONTINUOUS
10
5.47772
20
-3.39954
11
5.47467
21
-3.39893
0
LINE
8
BLACK
6
CONTINUOUS
10
5.47467
20
-3.39893
11
5.47181
21
-3.39774
0
LINE
8
BLACK
6
CONTINUOUS
10
5.47181
20
-3.39774
11
5.46923
21
-3.39602
0
LINE
8
BLACK
6
CONTINUOUS
10
5.46923
20
-3.39602
11
5.46704
21
-3.39383
0
LINE
8
BLACK
6
CONTINUOUS
10
5.46704
20
-3.39383
11
5.46531
21
-3.39125
0
LINE
8
BLACK
6
CONTINUOUS
10
5.46531
20
-3.39125
11
5.46413
21
-3.38838
0
LINE
8
BLACK
6
CONTINUOUS
10
5.46413
20
-3.38838
11
5.46352
21
-3.38534
0
LINE
8
BLACK
6
CONTINUOUS
10
5.46352
20
-3.38534
11
5.46352
21
-3.38224
0
LINE
8
BLACK
6
CONTINUOUS
10
5.46352
20
-3.38224
11
5.46413
21
-3.37919
0
LINE
8
BLACK
6
CONTINUOUS
10
5.46413
20
-3.37919
11
5.46531
21
-3.37633
0
LINE
8
BLACK
6
CONTINUOUS
10
5.46531
20
-3.37633
11
5.46704
21
-3.37375
0
LINE
8
BLACK
6
CONTINUOUS
10
5.46704
20
-3.37375
11
5.46923
21
-3.37156
0
LINE
8
BLACK
6
CONTINUOUS
10
5.46923
20
-3.37156
11
5.47181
21
-3.36983
0
LINE
8
BLACK
6
CONTINUOUS
10
5.47181
20
-3.36983
11
5.47467
21
-3.36864
0
LINE
8
BLACK
6
CONTINUOUS
10
5.47467
20
-3.36864
11
5.47772
21
-3.36804
0
LINE
8
BLACK
6
CONTINUOUS
10
5.47772
20
-3.36804
11
5.48082
21
-3.36804
0
LINE
8
BLACK
6
CONTINUOUS
10
5.48082
20
-3.36804
11
5.48386
21
-3.36864
0
LINE
8
BLACK
6
CONTINUOUS
10
5.40985
20
-3.19089
11
5.41271
21
-3.19208
0
LINE
8
BLACK
6
CONTINUOUS
10
5.41271
20
-3.19208
11
5.41529
21
-3.1938
0
LINE
8
BLACK
6
CONTINUOUS
10
5.41529
20
-3.1938
11
5.41748
21
-3.19599
0
LINE
8
BLACK
6
CONTINUOUS
10
5.41748
20
-3.19599
11
5.41921
21
-3.19857
0
LINE
8
BLACK
6
CONTINUOUS
10
5.41921
20
-3.19857
11
5.4204
21
-3.20144
0
LINE
8
BLACK
6
CONTINUOUS
10
5.4204
20
-3.20144
11
5.421
21
-3.20448
0
LINE
8
BLACK
6
CONTINUOUS
10
5.421
20
-3.20448
11
5.421
21
-3.20758
0
LINE
8
BLACK
6
CONTINUOUS
10
5.421
20
-3.20758
11
5.46087
21
-3.24745
0
LINE
8
BLACK
6
CONTINUOUS
10
5.46087
20
-3.24745
11
5.68397
21
-3.24745
0
LINE
8
BLACK
6
CONTINUOUS
10
5.68397
20
-3.24745
11
5.68616
21
-3.24526
0
LINE
8
BLACK
6
CONTINUOUS
10
5.68616
20
-3.24526
11
5.68874
21
-3.24353
0
LINE
8
BLACK
6
CONTINUOUS
10
5.68874
20
-3.24353
11
5.6916
21
-3.24235
0
LINE
8
BLACK
6
CONTINUOUS
10
5.6916
20
-3.24235
11
5.69465
21
-3.24174
0
LINE
8
BLACK
6
CONTINUOUS
10
5.69465
20
-3.24174
11
5.69775
21
-3.24174
0
LINE
8
BLACK
6
CONTINUOUS
10
5.69775
20
-3.24174
11
5.70079
21
-3.24235
0
LINE
8
BLACK
6
CONTINUOUS
10
5.70079
20
-3.24235
11
5.70366
21
-3.24353
0
LINE
8
BLACK
6
CONTINUOUS
10
5.70366
20
-3.24353
11
5.70624
21
-3.24526
0
LINE
8
BLACK
6
CONTINUOUS
10
5.70624
20
-3.24526
11
5.70843
21
-3.24745
0
LINE
8
BLACK
6
CONTINUOUS
10
5.70843
20
-3.24745
11
5.71015
21
-3.25003
0
LINE
8
BLACK
6
CONTINUOUS
10
5.71015
20
-3.25003
11
5.71134
21
-3.25289
0
LINE
8
BLACK
6
CONTINUOUS
10
5.71134
20
-3.25289
11
5.71195
21
-3.25594
0
LINE
8
BLACK
6
CONTINUOUS
10
5.71195
20
-3.25594
11
5.71195
21
-3.25904
0
LINE
8
BLACK
6
CONTINUOUS
10
5.71195
20
-3.25904
11
5.71134
21
-3.26208
0
LINE
8
BLACK
6
CONTINUOUS
10
5.71134
20
-3.26208
11
5.71015
21
-3.26495
0
LINE
8
BLACK
6
CONTINUOUS
10
5.71015
20
-3.26495
11
5.70843
21
-3.26753
0
LINE
8
BLACK
6
CONTINUOUS
10
5.70843
20
-3.26753
11
5.70624
21
-3.26972
0
LINE
8
BLACK
6
CONTINUOUS
10
5.70624
20
-3.26972
11
5.70366
21
-3.27144
0
LINE
8
BLACK
6
CONTINUOUS
10
5.70366
20
-3.27144
11
5.70079
21
-3.27263
0
LINE
8
BLACK
6
CONTINUOUS
10
5.70079
20
-3.27263
11
5.69775
21
-3.27324
0
LINE
8
BLACK
6
CONTINUOUS
10
5.69775
20
-3.27324
11
5.69465
21
-3.27324
0
LINE
8
BLACK
6
CONTINUOUS
10
5.69465
20
-3.27324
11
5.6916
21
-3.27263
0
LINE
8
BLACK
6
CONTINUOUS
10
5.6916
20
-3.27263
11
5.68874
21
-3.27144
0
LINE
8
BLACK
6
CONTINUOUS
10
5.68874
20
-3.27144
11
5.68616
21
-3.26972
0
LINE
8
BLACK
6
CONTINUOUS
10
5.68616
20
-3.26972
11
5.68397
21
-3.26753
0
LINE
8
BLACK
6
CONTINUOUS
10
5.68397
20
-3.26753
11
5.4572
21
-3.26753
0
LINE
8
BLACK
6
CONTINUOUS
10
5.4572
20
-3.26753
11
5.45671
21
-3.26758
0
LINE
8
BLACK
6
CONTINUOUS
10
5.45671
20
-3.26758
11
5.45622
21
-3.26753
0
LINE
8
BLACK
6
CONTINUOUS
10
5.45622
20
-3.26753
11
5.45622
21
-3.26753
0
LINE
8
BLACK
6
CONTINUOUS
10
5.45622
20
-3.26753
11
5.45474
21
-3.26738
0
LINE
8
BLACK
6
CONTINUOUS
10
5.45474
20
-3.26738
11
5.45285
21
-3.26681
0
LINE
8
BLACK
6
CONTINUOUS
10
5.45285
20
-3.26681
11
5.45243
21
-3.26658
0
LINE
8
BLACK
6
CONTINUOUS
10
5.45243
20
-3.26658
11
5.4511
21
-3.26588
0
LINE
8
BLACK
6
CONTINUOUS
10
5.4511
20
-3.26588
11
5.44996
21
-3.26494
0
LINE
8
BLACK
6
CONTINUOUS
10
5.44996
20
-3.26494
11
5.44996
21
-3.26494
0
LINE
8
BLACK
6
CONTINUOUS
10
5.44996
20
-3.26494
11
5.44958
21
-3.26462
0
LINE
8
BLACK
6
CONTINUOUS
10
5.44958
20
-3.26462
11
5.44926
21
-3.26424
0
LINE
8
BLACK
6
CONTINUOUS
10
5.44926
20
-3.26424
11
5.4068
21
-3.22178
0
LINE
8
BLACK
6
CONTINUOUS
10
5.4068
20
-3.22178
11
5.4037
21
-3.22178
0
LINE
8
BLACK
6
CONTINUOUS
10
5.4037
20
-3.22178
11
5.40066
21
-3.22117
0
LINE
8
BLACK
6
CONTINUOUS
10
5.40066
20
-3.22117
11
5.39779
21
-3.21999
0
LINE
8
BLACK
6
CONTINUOUS
10
5.39779
20
-3.21999
11
5.39521
21
-3.21826
0
LINE
8
BLACK
6
CONTINUOUS
10
5.39521
20
-3.21826
11
5.39302
21
-3.21607
0
LINE
8
BLACK
6
CONTINUOUS
10
5.39302
20
-3.21607
11
5.3913
21
-3.21349
0
LINE
8
BLACK
6
CONTINUOUS
10
5.3913
20
-3.21349
11
5.39011
21
-3.21063
0
LINE
8
BLACK
6
CONTINUOUS
10
5.39011
20
-3.21063
11
5.3895
21
-3.20758
0
LINE
8
BLACK
6
CONTINUOUS
10
5.3895
20
-3.20758
11
5.3895
21
-3.20448
0
LINE
8
BLACK
6
CONTINUOUS
10
5.3895
20
-3.20448
11
5.39011
21
-3.20144
0
LINE
8
BLACK
6
CONTINUOUS
10
5.39011
20
-3.20144
11
5.3913
21
-3.19857
0
LINE
8
BLACK
6
CONTINUOUS
10
5.3913
20
-3.19857
11
5.39302
21
-3.19599
0
LINE
8
BLACK
6
CONTINUOUS
10
5.39302
20
-3.19599
11
5.39521
21
-3.1938
0
LINE
8
BLACK
6
CONTINUOUS
10
5.39521
20
-3.1938
11
5.39779
21
-3.19208
0
LINE
8
BLACK
6
CONTINUOUS
10
5.39779
20
-3.19208
11
5.40066
21
-3.19089
0
LINE
8
BLACK
6
CONTINUOUS
10
5.40066
20
-3.19089
11
5.4037
21
-3.19028
0
LINE
8
BLACK
6
CONTINUOUS
10
5.4037
20
-3.19028
11
5.4068
21
-3.19028
0
LINE
8
BLACK
6
CONTINUOUS
10
5.4068
20
-3.19028
11
5.40985
21
-3.19089
0
LINE
8
BLACK
6
CONTINUOUS
10
5.26803
20
-3.08748
11
5.27527
21
-3.09048
0
LINE
8
BLACK
6
CONTINUOUS
10
5.27527
20
-3.09048
11
5.28178
21
-3.09483
0
LINE
8
BLACK
6
CONTINUOUS
10
5.28178
20
-3.09483
11
5.28732
21
-3.10037
0
LINE
8
BLACK
6
CONTINUOUS
10
5.28732
20
-3.10037
11
5.29167
21
-3.10688
0
LINE
8
BLACK
6
CONTINUOUS
10
5.29167
20
-3.10688
11
5.29467
21
-3.11412
0
LINE
8
BLACK
6
CONTINUOUS
10
5.29467
20
-3.11412
11
5.2962
21
-3.1218
0
LINE
8
BLACK
6
CONTINUOUS
10
5.2962
20
-3.1218
11
5.2962
21
-3.12867
0
LINE
8
BLACK
6
CONTINUOUS
10
5.2962
20
-3.12867
11
5.65916
21
-3.12867
0
LINE
8
BLACK
6
CONTINUOUS
10
5.65916
20
-3.12867
11
5.66136
21
-3.12648
0
LINE
8
BLACK
6
CONTINUOUS
10
5.66136
20
-3.12648
11
5.66393
21
-3.12475
0
LINE
8
BLACK
6
CONTINUOUS
10
5.66393
20
-3.12475
11
5.6668
21
-3.12357
0
LINE
8
BLACK
6
CONTINUOUS
10
5.6668
20
-3.12357
11
5.66984
21
-3.12296
0
LINE
8
BLACK
6
CONTINUOUS
10
5.66984
20
-3.12296
11
5.67295
21
-3.12296
0
LINE
8
BLACK
6
CONTINUOUS
10
5.67295
20
-3.12296
11
5.67599
21
-3.12357
0
LINE
8
BLACK
6
CONTINUOUS
10
5.67599
20
-3.12357
11
5.67885
21
-3.12475
0
LINE
8
BLACK
6
CONTINUOUS
10
5.67885
20
-3.12475
11
5.68143
21
-3.12648
0
LINE
8
BLACK
6
CONTINUOUS
10
5.68143
20
-3.12648
11
5.68363
21
-3.12867
0
LINE
8
BLACK
6
CONTINUOUS
10
5.68363
20
-3.12867
11
5.68535
21
-3.13125
0
LINE
8
BLACK
6
CONTINUOUS
10
5.68535
20
-3.13125
11
5.68654
21
-3.13412
0
LINE
8
BLACK
6
CONTINUOUS
10
5.68654
20
-3.13412
11
5.68714
21
-3.13716
0
LINE
8
BLACK
6
CONTINUOUS
10
5.68714
20
-3.13716
11
5.68714
21
-3.14026
0
LINE
8
BLACK
6
CONTINUOUS
10
5.68714
20
-3.14026
11
5.68654
21
-3.1433
0
LINE
8
BLACK
6
CONTINUOUS
10
5.68654
20
-3.1433
11
5.68535
21
-3.14617
0
LINE
8
BLACK
6
CONTINUOUS
10
5.68535
20
-3.14617
11
5.68363
21
-3.14875
0
LINE
8
BLACK
6
CONTINUOUS
10
5.68363
20
-3.14875
11
5.68143
21
-3.15094
0
LINE
8
BLACK
6
CONTINUOUS
10
5.68143
20
-3.15094
11
5.67885
21
-3.15266
0
LINE
8
BLACK
6
CONTINUOUS
10
5.67885
20
-3.15266
11
5.67599
21
-3.15385
0
LINE
8
BLACK
6
CONTINUOUS
10
5.67599
20
-3.15385
11
5.67295
21
-3.15446
0
LINE
8
BLACK
6
CONTINUOUS
10
5.67295
20
-3.15446
11
5.66984
21
-3.15446
0
LINE
8
BLACK
6
CONTINUOUS
10
5.66984
20
-3.15446
11
5.6668
21
-3.15385
0
LINE
8
BLACK
6
CONTINUOUS
10
5.6668
20
-3.15385
11
5.66393
21
-3.15266
0
LINE
8
BLACK
6
CONTINUOUS
10
5.66393
20
-3.15266
11
5.66136
21
-3.15094
0
LINE
8
BLACK
6
CONTINUOUS
10
5.66136
20
-3.15094
11
5.65916
21
-3.14875
0
LINE
8
BLACK
6
CONTINUOUS
10
5.65916
20
-3.14875
11
5.29146
21
-3.14875
0
LINE
8
BLACK
6
CONTINUOUS
10
5.29146
20
-3.14875
11
5.29152
21
-3.14895
0
LINE
8
BLACK
6
CONTINUOUS
10
5.29152
20
-3.14895
11
5.29172
21
-3.15091
0
LINE
8
BLACK
6
CONTINUOUS
10
5.29172
20
-3.15091
11
5.29152
21
-3.15288
0
LINE
8
BLACK
6
CONTINUOUS
10
5.29152
20
-3.15288
11
5.29095
21
-3.15477
0
LINE
8
BLACK
6
CONTINUOUS
10
5.29095
20
-3.15477
11
5.29002
21
-3.15652
0
LINE
8
BLACK
6
CONTINUOUS
10
5.29002
20
-3.15652
11
5.28876
21
-3.15805
0
LINE
8
BLACK
6
CONTINUOUS
10
5.28876
20
-3.15805
11
5.28723
21
-3.1593
0
LINE
8
BLACK
6
CONTINUOUS
10
5.28723
20
-3.1593
11
5.28549
21
-3.16023
0
LINE
8
BLACK
6
CONTINUOUS
10
5.28549
20
-3.16023
11
5.2836
21
-3.16081
0
LINE
8
BLACK
6
CONTINUOUS
10
5.2836
20
-3.16081
11
5.28163
21
-3.161
0
LINE
8
BLACK
6
CONTINUOUS
10
5.28163
20
-3.161
11
5.27966
21
-3.16081
0
LINE
8
BLACK
6
CONTINUOUS
10
5.27966
20
-3.16081
11
5.27777
21
-3.16023
0
LINE
8
BLACK
6
CONTINUOUS
10
5.27777
20
-3.16023
11
5.27698
21
-3.15981
0
LINE
8
BLACK
6
CONTINUOUS
10
5.27698
20
-3.15981
11
5.27527
21
-3.16095
0
LINE
8
BLACK
6
CONTINUOUS
10
5.27527
20
-3.16095
11
5.26803
21
-3.16395
0
LINE
8
BLACK
6
CONTINUOUS
10
5.26803
20
-3.16395
11
5.26035
21
-3.16548
0
LINE
8
BLACK
6
CONTINUOUS
10
5.26035
20
-3.16548
11
5.25252
21
-3.16548
0
LINE
8
BLACK
6
CONTINUOUS
10
5.25252
20
-3.16548
11
5.24483
21
-3.16395
0
LINE
8
BLACK
6
CONTINUOUS
10
5.24483
20
-3.16395
11
5.2376
21
-3.16095
0
LINE
8
BLACK
6
CONTINUOUS
10
5.2376
20
-3.16095
11
5.23109
21
-3.1566
0
LINE
8
BLACK
6
CONTINUOUS
10
5.23109
20
-3.1566
11
5.22555
21
-3.15106
0
LINE
8
BLACK
6
CONTINUOUS
10
5.22555
20
-3.15106
11
5.2212
21
-3.14455
0
LINE
8
BLACK
6
CONTINUOUS
10
5.2212
20
-3.14455
11
5.2182
21
-3.13732
0
LINE
8
BLACK
6
CONTINUOUS
10
5.2182
20
-3.13732
11
5.21667
21
-3.12963
0
LINE
8
BLACK
6
CONTINUOUS
10
5.21667
20
-3.12963
11
5.21667
21
-3.1218
0
LINE
8
BLACK
6
CONTINUOUS
10
5.21667
20
-3.1218
11
5.2182
21
-3.11412
0
LINE
8
BLACK
6
CONTINUOUS
10
5.2182
20
-3.11412
11
5.2212
21
-3.10688
0
LINE
8
BLACK
6
CONTINUOUS
10
5.2212
20
-3.10688
11
5.22555
21
-3.10037
0
LINE
8
BLACK
6
CONTINUOUS
10
5.22555
20
-3.10037
11
5.23109
21
-3.09483
0
LINE
8
BLACK
6
CONTINUOUS
10
5.23109
20
-3.09483
11
5.2376
21
-3.09048
0
LINE
8
BLACK
6
CONTINUOUS
10
5.2376
20
-3.09048
11
5.24483
21
-3.08748
0
LINE
8
BLACK
6
CONTINUOUS
10
5.24483
20
-3.08748
11
5.25252
21
-3.08595
0
LINE
8
BLACK
6
CONTINUOUS
10
5.25252
20
-3.08595
11
5.26035
21
-3.08595
0
LINE
8
BLACK
6
CONTINUOUS
10
5.26035
20
-3.08595
11
5.26803
21
-3.08748
0
LINE
8
BLACK
6
CONTINUOUS
10
5.26803
20
-2.98748
11
5.27527
21
-2.99048
0
LINE
8
BLACK
6
CONTINUOUS
10
5.27527
20
-2.99048
11
5.28178
21
-2.99483
0
LINE
8
BLACK
6
CONTINUOUS
10
5.28178
20
-2.99483
11
5.28732
21
-3.00037
0
LINE
8
BLACK
6
CONTINUOUS
10
5.28732
20
-3.00037
11
5.29167
21
-3.00688
0
LINE
8
BLACK
6
CONTINUOUS
10
5.29167
20
-3.00688
11
5.29467
21
-3.01412
0
LINE
8
BLACK
6
CONTINUOUS
10
5.29467
20
-3.01412
11
5.2962
21
-3.0218
0
LINE
8
BLACK
6
CONTINUOUS
10
5.2962
20
-3.0218
11
5.2962
21
-3.02963
0
LINE
8
BLACK
6
CONTINUOUS
10
5.2962
20
-3.02963
11
5.29467
21
-3.03732
0
LINE
8
BLACK
6
CONTINUOUS
10
5.29467
20
-3.03732
11
5.29167
21
-3.04455
0
LINE
8
BLACK
6
CONTINUOUS
10
5.29167
20
-3.04455
11
5.29079
21
-3.04587
0
LINE
8
BLACK
6
CONTINUOUS
10
5.29079
20
-3.04587
11
5.30036
21
-3.05544
0
LINE
8
BLACK
6
CONTINUOUS
10
5.30036
20
-3.05544
11
5.58141
21
-3.05544
0
LINE
8
BLACK
6
CONTINUOUS
10
5.58141
20
-3.05544
11
5.59108
21
-3.04577
0
LINE
8
BLACK
6
CONTINUOUS
10
5.59108
20
-3.04577
11
5.59108
21
-3.04267
0
LINE
8
BLACK
6
CONTINUOUS
10
5.59108
20
-3.04267
11
5.59168
21
-3.03963
0
LINE
8
BLACK
6
CONTINUOUS
10
5.59168
20
-3.03963
11
5.59287
21
-3.03676
0
LINE
8
BLACK
6
CONTINUOUS
10
5.59287
20
-3.03676
11
5.59459
21
-3.03418
0
LINE
8
BLACK
6
CONTINUOUS
10
5.59459
20
-3.03418
11
5.59679
21
-3.03199
0
LINE
8
BLACK
6
CONTINUOUS
10
5.59679
20
-3.03199
11
5.59937
21
-3.03026
0
LINE
8
BLACK
6
CONTINUOUS
10
5.59937
20
-3.03026
11
5.60223
21
-3.02908
0
LINE
8
BLACK
6
CONTINUOUS
10
5.60223
20
-3.02908
11
5.60528
21
-3.02847
0
LINE
8
BLACK
6
CONTINUOUS
10
5.60528
20
-3.02847
11
5.60838
21
-3.02847
0
LINE
8
BLACK
6
CONTINUOUS
10
5.60838
20
-3.02847
11
5.61142
21
-3.02908
0
LINE
8
BLACK
6
CONTINUOUS
10
5.61142
20
-3.02908
11
5.61429
21
-3.03026
0
LINE
8
BLACK
6
CONTINUOUS
10
5.61429
20
-3.03026
11
5.61687
21
-3.03199
0
LINE
8
BLACK
6
CONTINUOUS
10
5.61687
20
-3.03199
11
5.61906
21
-3.03418
0
LINE
8
BLACK
6
CONTINUOUS
10
5.61906
20
-3.03418
11
5.62078
21
-3.03676
0
LINE
8
BLACK
6
CONTINUOUS
10
5.62078
20
-3.03676
11
5.62197
21
-3.03963
0
LINE
8
BLACK
6
CONTINUOUS
10
5.62197
20
-3.03963
11
5.62258
21
-3.04267
0
LINE
8
BLACK
6
CONTINUOUS
10
5.62258
20
-3.04267
11
5.62258
21
-3.04577
0
LINE
8
BLACK
6
CONTINUOUS
10
5.62258
20
-3.04577
11
5.62197
21
-3.04881
0
LINE
8
BLACK
6
CONTINUOUS
10
5.62197
20
-3.04881
11
5.62078
21
-3.05168
0
LINE
8
BLACK
6
CONTINUOUS
10
5.62078
20
-3.05168
11
5.61906
21
-3.05426
0
LINE
8
BLACK
6
CONTINUOUS
10
5.61906
20
-3.05426
11
5.61687
21
-3.05645
0
LINE
8
BLACK
6
CONTINUOUS
10
5.61687
20
-3.05645
11
5.61429
21
-3.05818
0
LINE
8
BLACK
6
CONTINUOUS
10
5.61429
20
-3.05818
11
5.61142
21
-3.05936
0
LINE
8
BLACK
6
CONTINUOUS
10
5.61142
20
-3.05936
11
5.60838
21
-3.05997
0
LINE
8
BLACK
6
CONTINUOUS
10
5.60838
20
-3.05997
11
5.60528
21
-3.05997
0
LINE
8
BLACK
6
CONTINUOUS
10
5.60528
20
-3.05997
11
5.59301
21
-3.07223
0
LINE
8
BLACK
6
CONTINUOUS
10
5.59301
20
-3.07223
11
5.5927
21
-3.07261
0
LINE
8
BLACK
6
CONTINUOUS
10
5.5927
20
-3.07261
11
5.59117
21
-3.07387
0
LINE
8
BLACK
6
CONTINUOUS
10
5.59117
20
-3.07387
11
5.58943
21
-3.0748
0
LINE
8
BLACK
6
CONTINUOUS
10
5.58943
20
-3.0748
11
5.58754
21
-3.07537
0
LINE
8
BLACK
6
CONTINUOUS
10
5.58754
20
-3.07537
11
5.58606
21
-3.07552
0
LINE
8
BLACK
6
CONTINUOUS
10
5.58606
20
-3.07552
11
5.58606
21
-3.07552
0
LINE
8
BLACK
6
CONTINUOUS
10
5.58606
20
-3.07552
11
5.58557
21
-3.07557
0
LINE
8
BLACK
6
CONTINUOUS
10
5.58557
20
-3.07557
11
5.58507
21
-3.07552
0
LINE
8
BLACK
6
CONTINUOUS
10
5.58507
20
-3.07552
11
5.29669
21
-3.07552
0
LINE
8
BLACK
6
CONTINUOUS
10
5.29669
20
-3.07552
11
5.2962
21
-3.07557
0
LINE
8
BLACK
6
CONTINUOUS
10
5.2962
20
-3.07557
11
5.2957
21
-3.07552
0
LINE
8
BLACK
6
CONTINUOUS
10
5.2957
20
-3.07552
11
5.2957
21
-3.07552
0
LINE
8
BLACK
6
CONTINUOUS
10
5.2957
20
-3.07552
11
5.29423
21
-3.07537
0
LINE
8
BLACK
6
CONTINUOUS
10
5.29423
20
-3.07537
11
5.29234
21
-3.0748
0
LINE
8
BLACK
6
CONTINUOUS
10
5.29234
20
-3.0748
11
5.29152
21
-3.07437
0
LINE
8
BLACK
6
CONTINUOUS
10
5.29152
20
-3.07437
11
5.29059
21
-3.07387
0
LINE
8
BLACK
6
CONTINUOUS
10
5.29059
20
-3.07387
11
5.28945
21
-3.07293
0
LINE
8
BLACK
6
CONTINUOUS
10
5.28945
20
-3.07293
11
5.28945
21
-3.07293
0
LINE
8
BLACK
6
CONTINUOUS
10
5.28945
20
-3.07293
11
5.28906
21
-3.07261
0
LINE
8
BLACK
6
CONTINUOUS
10
5.28906
20
-3.07261
11
5.28875
21
-3.07223
0
LINE
8
BLACK
6
CONTINUOUS
10
5.28875
20
-3.07223
11
5.27659
21
-3.06007
0
LINE
8
BLACK
6
CONTINUOUS
10
5.27659
20
-3.06007
11
5.27527
21
-3.06095
0
LINE
8
BLACK
6
CONTINUOUS
10
5.27527
20
-3.06095
11
5.26803
21
-3.06395
0
LINE
8
BLACK
6
CONTINUOUS
10
5.26803
20
-3.06395
11
5.26035
21
-3.06548
0
LINE
8
BLACK
6
CONTINUOUS
10
5.26035
20
-3.06548
11
5.25252
21
-3.06548
0
LINE
8
BLACK
6
CONTINUOUS
10
5.25252
20
-3.06548
11
5.24483
21
-3.06395
0
LINE
8
BLACK
6
CONTINUOUS
10
5.24483
20
-3.06395
11
5.2376
21
-3.06095
0
LINE
8
BLACK
6
CONTINUOUS
10
5.2376
20
-3.06095
11
5.23109
21
-3.0566
0
LINE
8
BLACK
6
CONTINUOUS
10
5.23109
20
-3.0566
11
5.22555
21
-3.05106
0
LINE
8
BLACK
6
CONTINUOUS
10
5.22555
20
-3.05106
11
5.2212
21
-3.04455
0
LINE
8
BLACK
6
CONTINUOUS
10
5.2212
20
-3.04455
11
5.2182
21
-3.03732
0
LINE
8
BLACK
6
CONTINUOUS
10
5.2182
20
-3.03732
11
5.21667
21
-3.02963
0
LINE
8
BLACK
6
CONTINUOUS
10
5.21667
20
-3.02963
11
5.21667
21
-3.0218
0
LINE
8
BLACK
6
CONTINUOUS
10
5.21667
20
-3.0218
11
5.2182
21
-3.01412
0
LINE
8
BLACK
6
CONTINUOUS
10
5.2182
20
-3.01412
11
5.2212
21
-3.00688
0
LINE
8
BLACK
6
CONTINUOUS
10
5.2212
20
-3.00688
11
5.22555
21
-3.00037
0
LINE
8
BLACK
6
CONTINUOUS
10
5.22555
20
-3.00037
11
5.23109
21
-2.99483
0
LINE
8
BLACK
6
CONTINUOUS
10
5.23109
20
-2.99483
11
5.2376
21
-2.99048
0
LINE
8
BLACK
6
CONTINUOUS
10
5.2376
20
-2.99048
11
5.24483
21
-2.98748
0
LINE
8
BLACK
6
CONTINUOUS
10
5.24483
20
-2.98748
11
5.25252
21
-2.98595
0
LINE
8
BLACK
6
CONTINUOUS
10
5.25252
20
-2.98595
11
5.26035
21
-2.98595
0
LINE
8
BLACK
6
CONTINUOUS
10
5.26035
20
-2.98595
11
5.26803
21
-2.98748
0
LINE
8
BLACK
6
CONTINUOUS
10
5.45709
20
-3.00112
11
5.45996
21
-3.00231
0
LINE
8
BLACK
6
CONTINUOUS
10
5.45996
20
-3.00231
11
5.46254
21
-3.00404
0
LINE
8
BLACK
6
CONTINUOUS
10
5.46254
20
-3.00404
11
5.46473
21
-3.00623
0
LINE
8
BLACK
6
CONTINUOUS
10
5.46473
20
-3.00623
11
5.46645
21
-3.00881
0
LINE
8
BLACK
6
CONTINUOUS
10
5.46645
20
-3.00881
11
5.46764
21
-3.01167
0
LINE
8
BLACK
6
CONTINUOUS
10
5.46764
20
-3.01167
11
5.46824
21
-3.01472
0
LINE
8
BLACK
6
CONTINUOUS
10
5.46824
20
-3.01472
11
5.46824
21
-3.01782
0
LINE
8
BLACK
6
CONTINUOUS
10
5.46824
20
-3.01782
11
5.46764
21
-3.02086
0
LINE
8
BLACK
6
CONTINUOUS
10
5.46764
20
-3.02086
11
5.46645
21
-3.02373
0
LINE
8
BLACK
6
CONTINUOUS
10
5.46645
20
-3.02373
11
5.46473
21
-3.02631
0
LINE
8
BLACK
6
CONTINUOUS
10
5.46473
20
-3.02631
11
5.46254
21
-3.0285
0
LINE
8
BLACK
6
CONTINUOUS
10
5.46254
20
-3.0285
11
5.45996
21
-3.03022
0
LINE
8
BLACK
6
CONTINUOUS
10
5.45996
20
-3.03022
11
5.45709
21
-3.03141
0
LINE
8
BLACK
6
CONTINUOUS
10
5.45709
20
-3.03141
11
5.45405
21
-3.03202
0
LINE
8
BLACK
6
CONTINUOUS
10
5.45405
20
-3.03202
11
5.45095
21
-3.03202
0
LINE
8
BLACK
6
CONTINUOUS
10
5.45095
20
-3.03202
11
5.4479
21
-3.03141
0
LINE
8
BLACK
6
CONTINUOUS
10
5.4479
20
-3.03141
11
5.44504
21
-3.03022
0
LINE
8
BLACK
6
CONTINUOUS
10
5.44504
20
-3.03022
11
5.44246
21
-3.0285
0
LINE
8
BLACK
6
CONTINUOUS
10
5.44246
20
-3.0285
11
5.44026
21
-3.02631
0
LINE
8
BLACK
6
CONTINUOUS
10
5.44026
20
-3.02631
11
5.43854
21
-3.02373
0
LINE
8
BLACK
6
CONTINUOUS
10
5.43854
20
-3.02373
11
5.43735
21
-3.02086
0
LINE
8
BLACK
6
CONTINUOUS
10
5.43735
20
-3.02086
11
5.43675
21
-3.01782
0
LINE
8
BLACK
6
CONTINUOUS
10
5.43675
20
-3.01782
11
5.43675
21
-3.01472
0
LINE
8
BLACK
6
CONTINUOUS
10
5.43675
20
-3.01472
11
5.43735
21
-3.01167
0
LINE
8
BLACK
6
CONTINUOUS
10
5.43735
20
-3.01167
11
5.43854
21
-3.00881
0
LINE
8
BLACK
6
CONTINUOUS
10
5.43854
20
-3.00881
11
5.44026
21
-3.00623
0
LINE
8
BLACK
6
CONTINUOUS
10
5.44026
20
-3.00623
11
5.44246
21
-3.00404
0
LINE
8
BLACK
6
CONTINUOUS
10
5.44246
20
-3.00404
11
5.44504
21
-3.00231
0
LINE
8
BLACK
6
CONTINUOUS
10
5.44504
20
-3.00231
11
5.4479
21
-3.00112
0
LINE
8
BLACK
6
CONTINUOUS
10
5.4479
20
-3.00112
11
5.45095
21
-3.00052
0
LINE
8
BLACK
6
CONTINUOUS
10
5.45095
20
-3.00052
11
5.45405
21
-3.00052
0
LINE
8
BLACK
6
CONTINUOUS
10
5.45405
20
-3.00052
11
5.45709
21
-3.00112
0
LINE
8
BLACK
6
CONTINUOUS
10
5.52205
20
-2.99837
11
5.52492
21
-2.99956
0
LINE
8
BLACK
6
CONTINUOUS
10
5.52492
20
-2.99956
11
5.5275
21
-3.00128
0
LINE
8
BLACK
6
CONTINUOUS
10
5.5275
20
-3.00128
11
5.52969
21
-3.00347
0
LINE
8
BLACK
6
CONTINUOUS
10
5.52969
20
-3.00347
11
5.53141
21
-3.00605
0
LINE
8
BLACK
6
CONTINUOUS
10
5.53141
20
-3.00605
11
5.5326
21
-3.00892
0
LINE
8
BLACK
6
CONTINUOUS
10
5.5326
20
-3.00892
11
5.53321
21
-3.01196
0
LINE
8
BLACK
6
CONTINUOUS
10
5.53321
20
-3.01196
11
5.53321
21
-3.01506
0
LINE
8
BLACK
6
CONTINUOUS
10
5.53321
20
-3.01506
11
5.5326
21
-3.01811
0
LINE
8
BLACK
6
CONTINUOUS
10
5.5326
20
-3.01811
11
5.53141
21
-3.02097
0
LINE
8
BLACK
6
CONTINUOUS
10
5.53141
20
-3.02097
11
5.52969
21
-3.02355
0
LINE
8
BLACK
6
CONTINUOUS
10
5.52969
20
-3.02355
11
5.5275
21
-3.02574
0
LINE
8
BLACK
6
CONTINUOUS
10
5.5275
20
-3.02574
11
5.52492
21
-3.02747
0
LINE
8
BLACK
6
CONTINUOUS
10
5.52492
20
-3.02747
11
5.52205
21
-3.02865
0
LINE
8
BLACK
6
CONTINUOUS
10
5.52205
20
-3.02865
11
5.51901
21
-3.02926
0
LINE
8
BLACK
6
CONTINUOUS
10
5.51901
20
-3.02926
11
5.51591
21
-3.02926
0
LINE
8
BLACK
6
CONTINUOUS
10
5.51591
20
-3.02926
11
5.51286
21
-3.02865
0
LINE
8
BLACK
6
CONTINUOUS
10
5.51286
20
-3.02865
11
5.51
21
-3.02747
0
LINE
8
BLACK
6
CONTINUOUS
10
5.51
20
-3.02747
11
5.50742
21
-3.02574
0
LINE
8
BLACK
6
CONTINUOUS
10
5.50742
20
-3.02574
11
5.50522
21
-3.02355
0
LINE
8
BLACK
6
CONTINUOUS
10
5.50522
20
-3.02355
11
5.5035
21
-3.02097
0
LINE
8
BLACK
6
CONTINUOUS
10
5.5035
20
-3.02097
11
5.50231
21
-3.01811
0
LINE
8
BLACK
6
CONTINUOUS
10
5.50231
20
-3.01811
11
5.50171
21
-3.01506
0
LINE
8
BLACK
6
CONTINUOUS
10
5.50171
20
-3.01506
11
5.50171
21
-3.01196
0
LINE
8
BLACK
6
CONTINUOUS
10
5.50171
20
-3.01196
11
5.50231
21
-3.00892
0
LINE
8
BLACK
6
CONTINUOUS
10
5.50231
20
-3.00892
11
5.5035
21
-3.00605
0
LINE
8
BLACK
6
CONTINUOUS
10
5.5035
20
-3.00605
11
5.50522
21
-3.00347
0
LINE
8
BLACK
6
CONTINUOUS
10
5.50522
20
-3.00347
11
5.50742
21
-3.00128
0
LINE
8
BLACK
6
CONTINUOUS
10
5.50742
20
-3.00128
11
5.51
21
-2.99956
0
LINE
8
BLACK
6
CONTINUOUS
10
5.51
20
-2.99956
11
5.51286
21
-2.99837
0
LINE
8
BLACK
6
CONTINUOUS
10
5.51286
20
-2.99837
11
5.51591
21
-2.99776
0
LINE
8
BLACK
6
CONTINUOUS
10
5.51591
20
-2.99776
11
5.51901
21
-2.99776
0
LINE
8
BLACK
6
CONTINUOUS
10
5.51901
20
-2.99776
11
5.52205
21
-2.99837
0
LINE
8
BLACK
6
CONTINUOUS
10
5.97717
20
-2.98735
11
5.98003
21
-2.98853
0
LINE
8
BLACK
6
CONTINUOUS
10
5.98003
20
-2.98853
11
5.98261
21
-2.99026
0
LINE
8
BLACK
6
CONTINUOUS
10
5.98261
20
-2.99026
11
5.98481
21
-2.99245
0
LINE
8
BLACK
6
CONTINUOUS
10
5.98481
20
-2.99245
11
5.98653
21
-2.99503
0
LINE
8
BLACK
6
CONTINUOUS
10
5.98653
20
-2.99503
11
5.98772
21
-2.99789
0
LINE
8
BLACK
6
CONTINUOUS
10
5.98772
20
-2.99789
11
5.98832
21
-3.00094
0
LINE
8
BLACK
6
CONTINUOUS
10
5.98832
20
-3.00094
11
5.98832
21
-3.00404
0
LINE
8
BLACK
6
CONTINUOUS
10
5.98832
20
-3.00404
11
5.98772
21
-3.00708
0
LINE
8
BLACK
6
CONTINUOUS
10
5.98772
20
-3.00708
11
5.98653
21
-3.00995
0
LINE
8
BLACK
6
CONTINUOUS
10
5.98653
20
-3.00995
11
5.98481
21
-3.01253
0
LINE
8
BLACK
6
CONTINUOUS
10
5.98481
20
-3.01253
11
5.98261
21
-3.01472
0
LINE
8
BLACK
6
CONTINUOUS
10
5.98261
20
-3.01472
11
5.98003
21
-3.01644
0
LINE
8
BLACK
6
CONTINUOUS
10
5.98003
20
-3.01644
11
5.97717
21
-3.01763
0
LINE
8
BLACK
6
CONTINUOUS
10
5.97717
20
-3.01763
11
5.97413
21
-3.01824
0
LINE
8
BLACK
6
CONTINUOUS
10
5.97413
20
-3.01824
11
5.97102
21
-3.01824
0
LINE
8
BLACK
6
CONTINUOUS
10
5.97102
20
-3.01824
11
5.96798
21
-3.01763
0
LINE
8
BLACK
6
CONTINUOUS
10
5.96798
20
-3.01763
11
5.96512
21
-3.01644
0
LINE
8
BLACK
6
CONTINUOUS
10
5.96512
20
-3.01644
11
5.96254
21
-3.01472
0
LINE
8
BLACK
6
CONTINUOUS
10
5.96254
20
-3.01472
11
5.96034
21
-3.01253
0
LINE
8
BLACK
6
CONTINUOUS
10
5.96034
20
-3.01253
11
5.95862
21
-3.00995
0
LINE
8
BLACK
6
CONTINUOUS
10
5.95862
20
-3.00995
11
5.95743
21
-3.00708
0
LINE
8
BLACK
6
CONTINUOUS
10
5.95743
20
-3.00708
11
5.95683
21
-3.00404
0
LINE
8
BLACK
6
CONTINUOUS
10
5.95683
20
-3.00404
11
5.95683
21
-3.00094
0
LINE
8
BLACK
6
CONTINUOUS
10
5.95683
20
-3.00094
11
5.95743
21
-2.99789
0
LINE
8
BLACK
6
CONTINUOUS
10
5.95743
20
-2.99789
11
5.95862
21
-2.99503
0
LINE
8
BLACK
6
CONTINUOUS
10
5.95862
20
-2.99503
11
5.96034
21
-2.99245
0
LINE
8
BLACK
6
CONTINUOUS
10
5.96034
20
-2.99245
11
5.96254
21
-2.99026
0
LINE
8
BLACK
6
CONTINUOUS
10
5.96254
20
-2.99026
11
5.96512
21
-2.98853
0
LINE
8
BLACK
6
CONTINUOUS
10
5.96512
20
-2.98853
11
5.96798
21
-2.98735
0
LINE
8
BLACK
6
CONTINUOUS
10
5.96798
20
-2.98735
11
5.97102
21
-2.98674
0
LINE
8
BLACK
6
CONTINUOUS
10
5.97102
20
-2.98674
11
5.97413
21
-2.98674
0
LINE
8
BLACK
6
CONTINUOUS
10
5.97413
20
-2.98674
11
5.97717
21
-2.98735
0
LINE
8
BLACK
6
CONTINUOUS
10
5.26803
20
-2.78748
11
5.27527
21
-2.79048
0
LINE
8
BLACK
6
CONTINUOUS
10
5.27527
20
-2.79048
11
5.28178
21
-2.79483
0
LINE
8
BLACK
6
CONTINUOUS
10
5.28178
20
-2.79483
11
5.28732
21
-2.80037
0
LINE
8
BLACK
6
CONTINUOUS
10
5.28732
20
-2.80037
11
5.29167
21
-2.80688
0
LINE
8
BLACK
6
CONTINUOUS
10
5.29167
20
-2.80688
11
5.29467
21
-2.81412
0
LINE
8
BLACK
6
CONTINUOUS
10
5.29467
20
-2.81412
11
5.2962
21
-2.8218
0
LINE
8
BLACK
6
CONTINUOUS
10
5.2962
20
-2.8218
11
5.2962
21
-2.82963
0
LINE
8
BLACK
6
CONTINUOUS
10
5.2962
20
-2.82963
11
5.29467
21
-2.83732
0
LINE
8
BLACK
6
CONTINUOUS
10
5.29467
20
-2.83732
11
5.29167
21
-2.84455
0
LINE
8
BLACK
6
CONTINUOUS
10
5.29167
20
-2.84455
11
5.28732
21
-2.85106
0
LINE
8
BLACK
6
CONTINUOUS
10
5.28732
20
-2.85106
11
5.28178
21
-2.8566
0
LINE
8
BLACK
6
CONTINUOUS
10
5.28178
20
-2.8566
11
5.27527
21
-2.86095
0
LINE
8
BLACK
6
CONTINUOUS
10
5.27527
20
-2.86095
11
5.26803
21
-2.86395
0
LINE
8
BLACK
6
CONTINUOUS
10
5.26803
20
-2.86395
11
5.26035
21
-2.86548
0
LINE
8
BLACK
6
CONTINUOUS
10
5.26035
20
-2.86548
11
5.25252
21
-2.86548
0
LINE
8
BLACK
6
CONTINUOUS
10
5.25252
20
-2.86548
11
5.24483
21
-2.86395
0
LINE
8
BLACK
6
CONTINUOUS
10
5.24483
20
-2.86395
11
5.2376
21
-2.86095
0
LINE
8
BLACK
6
CONTINUOUS
10
5.2376
20
-2.86095
11
5.23109
21
-2.8566
0
LINE
8
BLACK
6
CONTINUOUS
10
5.23109
20
-2.8566
11
5.22555
21
-2.85106
0
LINE
8
BLACK
6
CONTINUOUS
10
5.22555
20
-2.85106
11
5.2212
21
-2.84455
0
LINE
8
BLACK
6
CONTINUOUS
10
5.2212
20
-2.84455
11
5.2182
21
-2.83732
0
LINE
8
BLACK
6
CONTINUOUS
10
5.2182
20
-2.83732
11
5.21667
21
-2.82963
0
LINE
8
BLACK
6
CONTINUOUS
10
5.21667
20
-2.82963
11
5.21667
21
-2.8218
0
LINE
8
BLACK
6
CONTINUOUS
10
5.21667
20
-2.8218
11
5.2182
21
-2.81412
0
LINE
8
BLACK
6
CONTINUOUS
10
5.2182
20
-2.81412
11
5.2212
21
-2.80688
0
LINE
8
BLACK
6
CONTINUOUS
10
5.2212
20
-2.80688
11
5.22555
21
-2.80037
0
LINE
8
BLACK
6
CONTINUOUS
10
5.22555
20
-2.80037
11
5.23109
21
-2.79483
0
LINE
8
BLACK
6
CONTINUOUS
10
5.23109
20
-2.79483
11
5.2376
21
-2.79048
0
LINE
8
BLACK
6
CONTINUOUS
10
5.2376
20
-2.79048
11
5.24483
21
-2.78748
0
LINE
8
BLACK
6
CONTINUOUS
10
5.24483
20
-2.78748
11
5.25252
21
-2.78595
0
LINE
8
BLACK
6
CONTINUOUS
10
5.25252
20
-2.78595
11
5.26035
21
-2.78595
0
LINE
8
BLACK
6
CONTINUOUS
10
5.26035
20
-2.78595
11
5.26803
21
-2.78748
0
LINE
8
BLACK
6
CONTINUOUS
10
5.8704
20
-2.96459
11
5.87326
21
-2.96578
0
LINE
8
BLACK
6
CONTINUOUS
10
5.87326
20
-2.96578
11
5.87584
21
-2.9675
0
LINE
8
BLACK
6
CONTINUOUS
10
5.87584
20
-2.9675
11
5.87804
21
-2.96969
0
LINE
8
BLACK
6
CONTINUOUS
10
5.87804
20
-2.96969
11
5.87976
21
-2.97227
0
LINE
8
BLACK
6
CONTINUOUS
10
5.87976
20
-2.97227
11
5.88095
21
-2.97514
0
LINE
8
BLACK
6
CONTINUOUS
10
5.88095
20
-2.97514
11
5.88155
21
-2.97818
0
LINE
8
BLACK
6
CONTINUOUS
10
5.88155
20
-2.97818
11
5.88155
21
-2.98128
0
LINE
8
BLACK
6
CONTINUOUS
10
5.88155
20
-2.98128
11
5.88095
21
-2.98433
0
LINE
8
BLACK
6
CONTINUOUS
10
5.88095
20
-2.98433
11
5.87976
21
-2.98719
0
LINE
8
BLACK
6
CONTINUOUS
10
5.87976
20
-2.98719
11
5.87804
21
-2.98977
0
LINE
8
BLACK
6
CONTINUOUS
10
5.87804
20
-2.98977
11
5.87584
21
-2.99196
0
LINE
8
BLACK
6
CONTINUOUS
10
5.87584
20
-2.99196
11
5.87326
21
-2.99369
0
LINE
8
BLACK
6
CONTINUOUS
10
5.87326
20
-2.99369
11
5.8704
21
-2.99488
0
LINE
8
BLACK
6
CONTINUOUS
10
5.8704
20
-2.99488
11
5.86735
21
-2.99548
0
LINE
8
BLACK
6
CONTINUOUS
10
5.86735
20
-2.99548
11
5.86425
21
-2.99548
0
LINE
8
BLACK
6
CONTINUOUS
10
5.86425
20
-2.99548
11
5.86121
21
-2.99488
0
LINE
8
BLACK
6
CONTINUOUS
10
5.86121
20
-2.99488
11
5.85834
21
-2.99369
0
LINE
8
BLACK
6
CONTINUOUS
10
5.85834
20
-2.99369
11
5.85576
21
-2.99196
0
LINE
8
BLACK
6
CONTINUOUS
10
5.85576
20
-2.99196
11
5.85357
21
-2.98977
0
LINE
8
BLACK
6
CONTINUOUS
10
5.85357
20
-2.98977
11
5.85185
21
-2.98719
0
LINE
8
BLACK
6
CONTINUOUS
10
5.85185
20
-2.98719
11
5.85066
21
-2.98433
0
LINE
8
BLACK
6
CONTINUOUS
10
5.85066
20
-2.98433
11
5.85006
21
-2.98128
0
LINE
8
BLACK
6
CONTINUOUS
10
5.85006
20
-2.98128
11
5.85006
21
-2.97818
0
LINE
8
BLACK
6
CONTINUOUS
10
5.85006
20
-2.97818
11
5.85066
21
-2.97514
0
LINE
8
BLACK
6
CONTINUOUS
10
5.85066
20
-2.97514
11
5.85185
21
-2.97227
0
LINE
8
BLACK
6
CONTINUOUS
10
5.85185
20
-2.97227
11
5.85357
21
-2.96969
0
LINE
8
BLACK
6
CONTINUOUS
10
5.85357
20
-2.96969
11
5.85576
21
-2.9675
0
LINE
8
BLACK
6
CONTINUOUS
10
5.85576
20
-2.9675
11
5.85834
21
-2.96578
0
LINE
8
BLACK
6
CONTINUOUS
10
5.85834
20
-2.96578
11
5.86121
21
-2.96459
0
LINE
8
BLACK
6
CONTINUOUS
10
5.86121
20
-2.96459
11
5.86425
21
-2.96398
0
LINE
8
BLACK
6
CONTINUOUS
10
5.86425
20
-2.96398
11
5.86735
21
-2.96398
0
LINE
8
BLACK
6
CONTINUOUS
10
5.86735
20
-2.96398
11
5.8704
21
-2.96459
0
LINE
8
BLACK
6
CONTINUOUS
10
5.96429
20
-2.72681
11
5.96436
21
-2.72681
0
LINE
8
BLACK
6
CONTINUOUS
10
5.96436
20
-2.72681
11
5.96438
21
-2.72681
0
LINE
8
BLACK
6
CONTINUOUS
10
5.96438
20
-2.72681
11
5.9644
21
-2.72681
0
LINE
8
BLACK
6
CONTINUOUS
10
5.9644
20
-2.72681
11
5.96486
21
-2.72687
0
LINE
8
BLACK
6
CONTINUOUS
10
5.96486
20
-2.72687
11
5.96533
21
-2.72692
0
LINE
8
BLACK
6
CONTINUOUS
10
5.96533
20
-2.72692
11
5.96535
21
-2.72692
0
LINE
8
BLACK
6
CONTINUOUS
10
5.96535
20
-2.72692
11
5.96537
21
-2.72693
0
LINE
8
BLACK
6
CONTINUOUS
10
5.96537
20
-2.72693
11
5.96581
21
-2.72707
0
LINE
8
BLACK
6
CONTINUOUS
10
5.96581
20
-2.72707
11
5.96626
21
-2.72722
0
LINE
8
BLACK
6
CONTINUOUS
10
5.96626
20
-2.72722
11
5.96628
21
-2.72722
0
LINE
8
BLACK
6
CONTINUOUS
10
5.96628
20
-2.72722
11
5.96629
21
-2.72723
0
LINE
8
BLACK
6
CONTINUOUS
10
5.96629
20
-2.72723
11
5.96671
21
-2.72746
0
LINE
8
BLACK
6
CONTINUOUS
10
5.96671
20
-2.72746
11
5.96712
21
-2.72769
0
LINE
8
BLACK
6
CONTINUOUS
10
5.96712
20
-2.72769
11
5.96713
21
-2.7277
0
LINE
8
BLACK
6
CONTINUOUS
10
5.96713
20
-2.7277
11
5.96715
21
-2.72771
0
LINE
8
BLACK
6
CONTINUOUS
10
5.96715
20
-2.72771
11
5.9675
21
-2.72801
0
LINE
8
BLACK
6
CONTINUOUS
10
5.9675
20
-2.72801
11
5.96786
21
-2.72831
0
LINE
8
BLACK
6
CONTINUOUS
10
5.96786
20
-2.72831
11
5.96787
21
-2.72833
0
LINE
8
BLACK
6
CONTINUOUS
10
5.96787
20
-2.72833
11
5.96789
21
-2.72834
0
LINE
8
BLACK
6
CONTINUOUS
10
5.96789
20
-2.72834
11
5.96818
21
-2.72871
0
LINE
8
BLACK
6
CONTINUOUS
10
5.96818
20
-2.72871
11
5.96847
21
-2.72907
0
LINE
8
BLACK
6
CONTINUOUS
10
5.96847
20
-2.72907
11
5.96848
21
-2.72909
0
LINE
8
BLACK
6
CONTINUOUS
10
5.96848
20
-2.72909
11
5.96849
21
-2.72911
0
LINE
8
BLACK
6
CONTINUOUS
10
5.96849
20
-2.72911
11
5.96871
21
-2.72952
0
LINE
8
BLACK
6
CONTINUOUS
10
5.96871
20
-2.72952
11
5.96893
21
-2.72994
0
LINE
8
BLACK
6
CONTINUOUS
10
5.96893
20
-2.72994
11
5.96893
21
-2.72996
0
LINE
8
BLACK
6
CONTINUOUS
10
5.96893
20
-2.72996
11
5.96894
21
-2.72997
0
LINE
8
BLACK
6
CONTINUOUS
10
5.96894
20
-2.72997
11
5.9691
21
-2.73037
0
LINE
8
BLACK
6
CONTINUOUS
10
5.9691
20
-2.73037
11
5.97294
21
-2.73761
0
LINE
8
BLACK
6
CONTINUOUS
10
5.97294
20
-2.73761
11
5.97325
21
-2.73808
0
LINE
8
BLACK
6
CONTINUOUS
10
5.97325
20
-2.73808
11
5.97329
21
-2.73814
0
LINE
8
BLACK
6
CONTINUOUS
10
5.97329
20
-2.73814
11
5.97329
21
-2.73814
0
LINE
8
BLACK
6
CONTINUOUS
10
5.97329
20
-2.73814
11
5.97358
21
-2.7386
0
LINE
8
BLACK
6
CONTINUOUS
10
5.97358
20
-2.7386
11
5.97875
21
-2.74495
0
LINE
8
BLACK
6
CONTINUOUS
10
5.97875
20
-2.74495
11
5.97915
21
-2.74536
0
LINE
8
BLACK
6
CONTINUOUS
10
5.97915
20
-2.74536
11
5.9792
21
-2.74541
0
LINE
8
BLACK
6
CONTINUOUS
10
5.9792
20
-2.74541
11
5.9792
21
-2.74541
0
LINE
8
BLACK
6
CONTINUOUS
10
5.9792
20
-2.74541
11
5.97957
21
-2.74579
0
LINE
8
BLACK
6
CONTINUOUS
10
5.97957
20
-2.74579
11
5.98589
21
-2.75103
0
LINE
8
BLACK
6
CONTINUOUS
10
5.98589
20
-2.75103
11
5.98635
21
-2.75134
0
LINE
8
BLACK
6
CONTINUOUS
10
5.98635
20
-2.75134
11
5.98641
21
-2.75138
0
LINE
8
BLACK
6
CONTINUOUS
10
5.98641
20
-2.75138
11
5.98641
21
-2.75138
0
LINE
8
BLACK
6
CONTINUOUS
10
5.98641
20
-2.75138
11
5.98685
21
-2.75169
0
LINE
8
BLACK
6
CONTINUOUS
10
5.98685
20
-2.75169
11
5.99406
21
-2.7556
0
LINE
8
BLACK
6
CONTINUOUS
10
5.99406
20
-2.7556
11
5.99458
21
-2.75582
0
LINE
8
BLACK
6
CONTINUOUS
10
5.99458
20
-2.75582
11
5.99465
21
-2.75584
0
LINE
8
BLACK
6
CONTINUOUS
10
5.99465
20
-2.75584
11
5.99465
21
-2.75584
0
LINE
8
BLACK
6
CONTINUOUS
10
5.99465
20
-2.75584
11
5.99465
21
-2.75584
0
LINE
8
BLACK
6
CONTINUOUS
10
5.99465
20
-2.75584
11
5.99514
21
-2.75606
0
LINE
8
BLACK
6
CONTINUOUS
10
5.99514
20
-2.75606
11
6.00297
21
-2.75849
0
LINE
8
BLACK
6
CONTINUOUS
10
6.00297
20
-2.75849
11
6.00352
21
-2.75861
0
LINE
8
BLACK
6
CONTINUOUS
10
6.00352
20
-2.75861
11
6.00359
21
-2.75862
0
LINE
8
BLACK
6
CONTINUOUS
10
6.00359
20
-2.75862
11
6.00359
21
-2.75862
0
LINE
8
BLACK
6
CONTINUOUS
10
6.00359
20
-2.75862
11
6.00412
21
-2.75874
0
LINE
8
BLACK
6
CONTINUOUS
10
6.00412
20
-2.75874
11
6.01167
21
-2.75954
0
LINE
8
BLACK
6
CONTINUOUS
10
6.01167
20
-2.75954
11
6.01174
21
-2.75955
0
LINE
8
BLACK
6
CONTINUOUS
10
6.01174
20
-2.75955
11
6.01179
21
-2.75956
0
LINE
8
BLACK
6
CONTINUOUS
10
6.01179
20
-2.75956
11
6.01274
21
-2.75965
0
LINE
8
BLACK
6
CONTINUOUS
10
6.01274
20
-2.75965
11
6.05025
21
-2.75965
0
LINE
8
BLACK
6
CONTINUOUS
10
6.05025
20
-2.75965
11
6.05029
21
-2.75965
0
LINE
8
BLACK
6
CONTINUOUS
10
6.05029
20
-2.75965
11
6.05029
21
-2.75965
0
LINE
8
BLACK
6
CONTINUOUS
10
6.05029
20
-2.75965
11
6.05029
21
-2.75965
0
LINE
8
BLACK
6
CONTINUOUS
10
6.05029
20
-2.75965
11
6.05032
21
-2.75965
0
LINE
8
BLACK
6
CONTINUOUS
10
6.05032
20
-2.75965
11
6.05079
21
-2.75971
0
LINE
8
BLACK
6
CONTINUOUS
10
6.05079
20
-2.75971
11
6.05126
21
-2.75976
0
LINE
8
BLACK
6
CONTINUOUS
10
6.05126
20
-2.75976
11
6.05127
21
-2.75976
0
LINE
8
BLACK
6
CONTINUOUS
10
6.05127
20
-2.75976
11
6.05129
21
-2.75976
0
LINE
8
BLACK
6
CONTINUOUS
10
6.05129
20
-2.75976
11
6.05174
21
-2.7599
0
LINE
8
BLACK
6
CONTINUOUS
10
6.05174
20
-2.7599
11
6.05219
21
-2.76004
0
LINE
8
BLACK
6
CONTINUOUS
10
6.05219
20
-2.76004
11
6.05221
21
-2.76005
0
LINE
8
BLACK
6
CONTINUOUS
10
6.05221
20
-2.76005
11
6.05222
21
-2.76006
0
LINE
8
BLACK
6
CONTINUOUS
10
6.05222
20
-2.76006
11
6.05263
21
-2.76028
0
LINE
8
BLACK
6
CONTINUOUS
10
6.05263
20
-2.76028
11
6.05305
21
-2.76051
0
LINE
8
BLACK
6
CONTINUOUS
10
6.05305
20
-2.76051
11
6.05306
21
-2.76052
0
LINE
8
BLACK
6
CONTINUOUS
10
6.05306
20
-2.76052
11
6.05308
21
-2.76053
0
LINE
8
BLACK
6
CONTINUOUS
10
6.05308
20
-2.76053
11
6.05344
21
-2.76083
0
LINE
8
BLACK
6
CONTINUOUS
10
6.05344
20
-2.76083
11
6.0538
21
-2.76113
0
LINE
8
BLACK
6
CONTINUOUS
10
6.0538
20
-2.76113
11
6.05381
21
-2.76114
0
LINE
8
BLACK
6
CONTINUOUS
10
6.05381
20
-2.76114
11
6.05382
21
-2.76116
0
LINE
8
BLACK
6
CONTINUOUS
10
6.05382
20
-2.76116
11
6.05412
21
-2.76152
0
LINE
8
BLACK
6
CONTINUOUS
10
6.05412
20
-2.76152
11
6.05442
21
-2.76189
0
LINE
8
BLACK
6
CONTINUOUS
10
6.05442
20
-2.76189
11
6.05443
21
-2.7619
0
LINE
8
BLACK
6
CONTINUOUS
10
6.05443
20
-2.7619
11
6.05444
21
-2.76192
0
LINE
8
BLACK
6
CONTINUOUS
10
6.05444
20
-2.76192
11
6.05465
21
-2.76233
0
LINE
8
BLACK
6
CONTINUOUS
10
6.05465
20
-2.76233
11
6.05488
21
-2.76275
0
LINE
8
BLACK
6
CONTINUOUS
10
6.05488
20
-2.76275
11
6.05488
21
-2.76276
0
LINE
8
BLACK
6
CONTINUOUS
10
6.05488
20
-2.76276
11
6.05489
21
-2.76278
0
LINE
8
BLACK
6
CONTINUOUS
10
6.05489
20
-2.76278
11
6.05502
21
-2.76323
0
LINE
8
BLACK
6
CONTINUOUS
10
6.05502
20
-2.76323
11
6.05516
21
-2.76368
0
LINE
8
BLACK
6
CONTINUOUS
10
6.05516
20
-2.76368
11
6.05516
21
-2.7637
0
LINE
8
BLACK
6
CONTINUOUS
10
6.05516
20
-2.7637
11
6.05516
21
-2.76372
0
LINE
8
BLACK
6
CONTINUOUS
10
6.05516
20
-2.76372
11
6.05521
21
-2.76419
0
LINE
8
BLACK
6
CONTINUOUS
10
6.05521
20
-2.76419
11
6.05525
21
-2.76465
0
LINE
8
BLACK
6
CONTINUOUS
10
6.05525
20
-2.76465
11
6.05525
21
-2.8809
0
LINE
8
BLACK
6
CONTINUOUS
10
6.05525
20
-2.8809
11
6.05525
21
-2.88094
0
LINE
8
BLACK
6
CONTINUOUS
10
6.05525
20
-2.88094
11
6.05525
21
-2.88094
0
LINE
8
BLACK
6
CONTINUOUS
10
6.05525
20
-2.88094
11
6.05525
21
-2.88094
0
LINE
8
BLACK
6
CONTINUOUS
10
6.05525
20
-2.88094
11
6.05525
21
-2.88097
0
LINE
8
BLACK
6
CONTINUOUS
10
6.05525
20
-2.88097
11
6.0552
21
-2.88145
0
LINE
8
BLACK
6
CONTINUOUS
10
6.0552
20
-2.88145
11
6.05515
21
-2.88191
0
LINE
8
BLACK
6
CONTINUOUS
10
6.05515
20
-2.88191
11
6.05514
21
-2.88193
0
LINE
8
BLACK
6
CONTINUOUS
10
6.05514
20
-2.88193
11
6.05514
21
-2.88194
0
LINE
8
BLACK
6
CONTINUOUS
10
6.05514
20
-2.88194
11
6.055
21
-2.8824
0
LINE
8
BLACK
6
CONTINUOUS
10
6.055
20
-2.8824
11
6.05486
21
-2.88285
0
LINE
8
BLACK
6
CONTINUOUS
10
6.05486
20
-2.88285
11
6.05485
21
-2.88286
0
LINE
8
BLACK
6
CONTINUOUS
10
6.05485
20
-2.88286
11
6.05485
21
-2.88287
0
LINE
8
BLACK
6
CONTINUOUS
10
6.05485
20
-2.88287
11
6.05462
21
-2.88329
0
LINE
8
BLACK
6
CONTINUOUS
10
6.05462
20
-2.88329
11
6.05439
21
-2.8837
0
LINE
8
BLACK
6
CONTINUOUS
10
6.05439
20
-2.8837
11
6.05439
21
-2.88371
0
LINE
8
BLACK
6
CONTINUOUS
10
6.05439
20
-2.88371
11
6.05438
21
-2.88373
0
LINE
8
BLACK
6
CONTINUOUS
10
6.05438
20
-2.88373
11
6.05407
21
-2.88409
0
LINE
8
BLACK
6
CONTINUOUS
10
6.05407
20
-2.88409
11
6.05377
21
-2.88445
0
LINE
8
BLACK
6
CONTINUOUS
10
6.05377
20
-2.88445
11
6.05376
21
-2.88446
0
LINE
8
BLACK
6
CONTINUOUS
10
6.05376
20
-2.88446
11
6.05375
21
-2.88448
0
LINE
8
BLACK
6
CONTINUOUS
10
6.05375
20
-2.88448
11
6.05338
21
-2.88477
0
LINE
8
BLACK
6
CONTINUOUS
10
6.05338
20
-2.88477
11
6.05301
21
-2.88507
0
LINE
8
BLACK
6
CONTINUOUS
10
6.05301
20
-2.88507
11
6.053
21
-2.88508
0
LINE
8
BLACK
6
CONTINUOUS
10
6.053
20
-2.88508
11
6.05299
21
-2.88509
0
LINE
8
BLACK
6
CONTINUOUS
10
6.05299
20
-2.88509
11
6.05257
21
-2.88531
0
LINE
8
BLACK
6
CONTINUOUS
10
6.05257
20
-2.88531
11
6.05215
21
-2.88553
0
LINE
8
BLACK
6
CONTINUOUS
10
6.05215
20
-2.88553
11
6.05214
21
-2.88553
0
LINE
8
BLACK
6
CONTINUOUS
10
6.05214
20
-2.88553
11
6.05213
21
-2.88554
0
LINE
8
BLACK
6
CONTINUOUS
10
6.05213
20
-2.88554
11
6.05167
21
-2.88567
0
LINE
8
BLACK
6
CONTINUOUS
10
6.05167
20
-2.88567
11
6.05122
21
-2.88581
0
LINE
8
BLACK
6
CONTINUOUS
10
6.05122
20
-2.88581
11
6.0512
21
-2.88581
0
LINE
8
BLACK
6
CONTINUOUS
10
6.0512
20
-2.88581
11
6.05119
21
-2.88581
0
LINE
8
BLACK
6
CONTINUOUS
10
6.05119
20
-2.88581
11
6.05072
21
-2.88586
0
LINE
8
BLACK
6
CONTINUOUS
10
6.05072
20
-2.88586
11
6.05025
21
-2.8859
0
LINE
8
BLACK
6
CONTINUOUS
10
6.05025
20
-2.8859
11
5.91986
21
-2.88576
0
LINE
8
BLACK
6
CONTINUOUS
10
5.91986
20
-2.88576
11
5.91964
21
-2.88578
0
LINE
8
BLACK
6
CONTINUOUS
10
5.91964
20
-2.88578
11
5.91962
21
-2.886
0
LINE
8
BLACK
6
CONTINUOUS
10
5.91962
20
-2.886
11
5.91926
21
-2.95356
0
LINE
8
BLACK
6
CONTINUOUS
10
5.91926
20
-2.95356
11
5.91926
21
-2.95356
0
LINE
8
BLACK
6
CONTINUOUS
10
5.91926
20
-2.95356
11
5.91926
21
-2.95356
0
LINE
8
BLACK
6
CONTINUOUS
10
5.91926
20
-2.95356
11
5.91926
21
-2.95356
0
LINE
8
BLACK
6
CONTINUOUS
10
5.91926
20
-2.95356
11
5.91926
21
-2.95363
0
LINE
8
BLACK
6
CONTINUOUS
10
5.91926
20
-2.95363
11
5.91921
21
-2.95408
0
LINE
8
BLACK
6
CONTINUOUS
10
5.91921
20
-2.95408
11
5.91916
21
-2.95453
0
LINE
8
BLACK
6
CONTINUOUS
10
5.91916
20
-2.95453
11
5.91915
21
-2.95456
0
LINE
8
BLACK
6
CONTINUOUS
10
5.91915
20
-2.95456
11
5.91915
21
-2.9546
0
LINE
8
BLACK
6
CONTINUOUS
10
5.91915
20
-2.9546
11
5.91901
21
-2.95503
0
LINE
8
BLACK
6
CONTINUOUS
10
5.91901
20
-2.95503
11
5.91887
21
-2.95546
0
LINE
8
BLACK
6
CONTINUOUS
10
5.91887
20
-2.95546
11
5.91886
21
-2.95549
0
LINE
8
BLACK
6
CONTINUOUS
10
5.91886
20
-2.95549
11
5.91885
21
-2.95553
0
LINE
8
BLACK
6
CONTINUOUS
10
5.91885
20
-2.95553
11
5.91863
21
-2.95592
0
LINE
8
BLACK
6
CONTINUOUS
10
5.91863
20
-2.95592
11
5.91841
21
-2.95632
0
LINE
8
BLACK
6
CONTINUOUS
10
5.91841
20
-2.95632
11
5.91839
21
-2.95635
0
LINE
8
BLACK
6
CONTINUOUS
10
5.91839
20
-2.95635
11
5.91837
21
-2.95638
0
LINE
8
BLACK
6
CONTINUOUS
10
5.91837
20
-2.95638
11
5.91808
21
-2.95673
0
LINE
8
BLACK
6
CONTINUOUS
10
5.91808
20
-2.95673
11
5.91779
21
-2.95707
0
LINE
8
BLACK
6
CONTINUOUS
10
5.91779
20
-2.95707
11
5.91776
21
-2.9571
0
LINE
8
BLACK
6
CONTINUOUS
10
5.91776
20
-2.9571
11
5.91774
21
-2.95712
0
LINE
8
BLACK
6
CONTINUOUS
10
5.91774
20
-2.95712
11
5.91739
21
-2.95741
0
LINE
8
BLACK
6
CONTINUOUS
10
5.91739
20
-2.95741
11
5.91704
21
-2.95769
0
LINE
8
BLACK
6
CONTINUOUS
10
5.91704
20
-2.95769
11
5.917
21
-2.95771
0
LINE
8
BLACK
6
CONTINUOUS
10
5.917
20
-2.95771
11
5.91698
21
-2.95773
0
LINE
8
BLACK
6
CONTINUOUS
10
5.91698
20
-2.95773
11
5.91657
21
-2.95794
0
LINE
8
BLACK
6
CONTINUOUS
10
5.91657
20
-2.95794
11
5.91618
21
-2.95815
0
LINE
8
BLACK
6
CONTINUOUS
10
5.91618
20
-2.95815
11
5.91605
21
-2.9582
0
LINE
8
BLACK
6
CONTINUOUS
10
5.91605
20
-2.9582
11
5.91604
21
-2.95821
0
LINE
8
BLACK
6
CONTINUOUS
10
5.91604
20
-2.95821
11
5.91604
21
-2.95821
0
LINE
8
BLACK
6
CONTINUOUS
10
5.91604
20
-2.95821
11
5.91604
21
-2.95821
0
LINE
8
BLACK
6
CONTINUOUS
10
5.91604
20
-2.95821
11
5.91599
21
-2.95823
0
LINE
8
BLACK
6
CONTINUOUS
10
5.91599
20
-2.95823
11
5.91554
21
-2.95836
0
LINE
8
BLACK
6
CONTINUOUS
10
5.91554
20
-2.95836
11
5.9151
21
-2.95849
0
LINE
8
BLACK
6
CONTINUOUS
10
5.9151
20
-2.95849
11
5.91508
21
-2.95849
0
LINE
8
BLACK
6
CONTINUOUS
10
5.91508
20
-2.95849
11
5.91505
21
-2.9585
0
LINE
8
BLACK
6
CONTINUOUS
10
5.91505
20
-2.9585
11
5.91459
21
-2.95854
0
LINE
8
BLACK
6
CONTINUOUS
10
5.91459
20
-2.95854
11
5.91413
21
-2.95858
0
LINE
8
BLACK
6
CONTINUOUS
10
5.91413
20
-2.95858
11
5.87733
21
-2.95853
0
LINE
8
BLACK
6
CONTINUOUS
10
5.87733
20
-2.95853
11
5.87726
21
-2.95853
0
LINE
8
BLACK
6
CONTINUOUS
10
5.87726
20
-2.95853
11
5.87681
21
-2.95848
0
LINE
8
BLACK
6
CONTINUOUS
10
5.87681
20
-2.95848
11
5.87636
21
-2.95843
0
LINE
8
BLACK
6
CONTINUOUS
10
5.87636
20
-2.95843
11
5.87633
21
-2.95842
0
LINE
8
BLACK
6
CONTINUOUS
10
5.87633
20
-2.95842
11
5.87629
21
-2.95842
0
LINE
8
BLACK
6
CONTINUOUS
10
5.87629
20
-2.95842
11
5.87586
21
-2.95828
0
LINE
8
BLACK
6
CONTINUOUS
10
5.87586
20
-2.95828
11
5.87542
21
-2.95815
0
LINE
8
BLACK
6
CONTINUOUS
10
5.87542
20
-2.95815
11
5.87269
21
-2.95702
0
LINE
8
BLACK
6
CONTINUOUS
10
5.87269
20
-2.95702
11
5.86813
21
-2.95611
0
LINE
8
BLACK
6
CONTINUOUS
10
5.86813
20
-2.95611
11
5.86348
21
-2.95611
0
LINE
8
BLACK
6
CONTINUOUS
10
5.86348
20
-2.95611
11
5.85891
21
-2.95702
0
LINE
8
BLACK
6
CONTINUOUS
10
5.85891
20
-2.95702
11
5.85626
21
-2.95812
0
LINE
8
BLACK
6
CONTINUOUS
10
5.85626
20
-2.95812
11
5.85625
21
-2.95812
0
LINE
8
BLACK
6
CONTINUOUS
10
5.85625
20
-2.95812
11
5.85625
21
-2.95812
0
LINE
8
BLACK
6
CONTINUOUS
10
5.85625
20
-2.95812
11
5.85625
21
-2.95812
0
LINE
8
BLACK
6
CONTINUOUS
10
5.85625
20
-2.95812
11
5.8562
21
-2.95814
0
LINE
8
BLACK
6
CONTINUOUS
10
5.8562
20
-2.95814
11
5.85575
21
-2.95827
0
LINE
8
BLACK
6
CONTINUOUS
10
5.85575
20
-2.95827
11
5.85531
21
-2.9584
0
LINE
8
BLACK
6
CONTINUOUS
10
5.85531
20
-2.9584
11
5.85529
21
-2.95841
0
LINE
8
BLACK
6
CONTINUOUS
10
5.85529
20
-2.95841
11
5.85526
21
-2.95841
0
LINE
8
BLACK
6
CONTINUOUS
10
5.85526
20
-2.95841
11
5.8548
21
-2.95845
0
LINE
8
BLACK
6
CONTINUOUS
10
5.8548
20
-2.95845
11
5.85434
21
-2.9585
0
LINE
8
BLACK
6
CONTINUOUS
10
5.85434
20
-2.9585
11
5.51715
21
-2.95801
0
LINE
8
BLACK
6
CONTINUOUS
10
5.51715
20
-2.95801
11
5.5171
21
-2.95801
0
LINE
8
BLACK
6
CONTINUOUS
10
5.5171
20
-2.95801
11
5.5171
21
-2.95801
0
LINE
8
BLACK
6
CONTINUOUS
10
5.5171
20
-2.95801
11
5.5171
21
-2.95801
0
LINE
8
BLACK
6
CONTINUOUS
10
5.5171
20
-2.95801
11
5.51708
21
-2.95801
0
LINE
8
BLACK
6
CONTINUOUS
10
5.51708
20
-2.95801
11
5.51661
21
-2.95795
0
LINE
8
BLACK
6
CONTINUOUS
10
5.51661
20
-2.95795
11
5.51613
21
-2.9579
0
LINE
8
BLACK
6
CONTINUOUS
10
5.51613
20
-2.9579
11
5.51612
21
-2.9579
0
LINE
8
BLACK
6
CONTINUOUS
10
5.51612
20
-2.9579
11
5.51612
21
-2.9579
0
LINE
8
BLACK
6
CONTINUOUS
10
5.51612
20
-2.9579
11
5.51566
21
-2.95775
0
LINE
8
BLACK
6
CONTINUOUS
10
5.51566
20
-2.95775
11
5.5152
21
-2.95761
0
LINE
8
BLACK
6
CONTINUOUS
10
5.5152
20
-2.95761
11
5.51519
21
-2.9576
0
LINE
8
BLACK
6
CONTINUOUS
10
5.51519
20
-2.9576
11
5.51519
21
-2.9576
0
LINE
8
BLACK
6
CONTINUOUS
10
5.51519
20
-2.9576
11
5.51477
21
-2.95737
0
LINE
8
BLACK
6
CONTINUOUS
10
5.51477
20
-2.95737
11
5.51434
21
-2.95714
0
LINE
8
BLACK
6
CONTINUOUS
10
5.51434
20
-2.95714
11
5.51434
21
-2.95713
0
LINE
8
BLACK
6
CONTINUOUS
10
5.51434
20
-2.95713
11
5.51433
21
-2.95713
0
LINE
8
BLACK
6
CONTINUOUS
10
5.51433
20
-2.95713
11
5.51397
21
-2.95682
0
LINE
8
BLACK
6
CONTINUOUS
10
5.51397
20
-2.95682
11
5.5136
21
-2.95651
0
LINE
8
BLACK
6
CONTINUOUS
10
5.5136
20
-2.95651
11
5.51359
21
-2.95651
0
LINE
8
BLACK
6
CONTINUOUS
10
5.51359
20
-2.95651
11
5.51358
21
-2.9565
0
LINE
8
BLACK
6
CONTINUOUS
10
5.51358
20
-2.9565
11
5.51328
21
-2.95612
0
LINE
8
BLACK
6
CONTINUOUS
10
5.51328
20
-2.95612
11
5.51298
21
-2.95575
0
LINE
8
BLACK
6
CONTINUOUS
10
5.51298
20
-2.95575
11
5.51298
21
-2.95575
0
LINE
8
BLACK
6
CONTINUOUS
10
5.51298
20
-2.95575
11
5.51297
21
-2.95574
0
LINE
8
BLACK
6
CONTINUOUS
10
5.51297
20
-2.95574
11
5.51275
21
-2.95531
0
LINE
8
BLACK
6
CONTINUOUS
10
5.51275
20
-2.95531
11
5.51253
21
-2.95489
0
LINE
8
BLACK
6
CONTINUOUS
10
5.51253
20
-2.95489
11
5.51253
21
-2.95488
0
LINE
8
BLACK
6
CONTINUOUS
10
5.51253
20
-2.95488
11
5.51252
21
-2.95487
0
LINE
8
BLACK
6
CONTINUOUS
10
5.51252
20
-2.95487
11
5.51239
21
-2.95442
0
LINE
8
BLACK
6
CONTINUOUS
10
5.51239
20
-2.95442
11
5.51225
21
-2.95395
0
LINE
8
BLACK
6
CONTINUOUS
10
5.51225
20
-2.95395
11
5.51225
21
-2.95394
0
LINE
8
BLACK
6
CONTINUOUS
10
5.51225
20
-2.95394
11
5.51225
21
-2.95394
0
LINE
8
BLACK
6
CONTINUOUS
10
5.51225
20
-2.95394
11
5.51221
21
-2.95346
0
LINE
8
BLACK
6
CONTINUOUS
10
5.51221
20
-2.95346
11
5.51216
21
-2.95298
0
LINE
8
BLACK
6
CONTINUOUS
10
5.51216
20
-2.95298
11
5.5133
21
-2.73148
0
LINE
8
BLACK
6
CONTINUOUS
10
5.5133
20
-2.73148
11
5.5133
21
-2.73147
0
LINE
8
BLACK
6
CONTINUOUS
10
5.5133
20
-2.73147
11
5.5133
21
-2.73147
0
LINE
8
BLACK
6
CONTINUOUS
10
5.5133
20
-2.73147
11
5.5133
21
-2.73147
0
LINE
8
BLACK
6
CONTINUOUS
10
5.5133
20
-2.73147
11
5.5133
21
-2.73141
0
LINE
8
BLACK
6
CONTINUOUS
10
5.5133
20
-2.73141
11
5.51336
21
-2.73096
0
LINE
8
BLACK
6
CONTINUOUS
10
5.51336
20
-2.73096
11
5.51341
21
-2.7305
0
LINE
8
BLACK
6
CONTINUOUS
10
5.51341
20
-2.7305
11
5.51341
21
-2.73047
0
LINE
8
BLACK
6
CONTINUOUS
10
5.51341
20
-2.73047
11
5.51342
21
-2.73044
0
LINE
8
BLACK
6
CONTINUOUS
10
5.51342
20
-2.73044
11
5.51356
21
-2.73001
0
LINE
8
BLACK
6
CONTINUOUS
10
5.51356
20
-2.73001
11
5.5137
21
-2.72957
0
LINE
8
BLACK
6
CONTINUOUS
10
5.5137
20
-2.72957
11
5.51371
21
-2.72954
0
LINE
8
BLACK
6
CONTINUOUS
10
5.51371
20
-2.72954
11
5.51372
21
-2.72951
0
LINE
8
BLACK
6
CONTINUOUS
10
5.51372
20
-2.72951
11
5.51394
21
-2.72911
0
LINE
8
BLACK
6
CONTINUOUS
10
5.51394
20
-2.72911
11
5.51416
21
-2.72871
0
LINE
8
BLACK
6
CONTINUOUS
10
5.51416
20
-2.72871
11
5.51418
21
-2.72869
0
LINE
8
BLACK
6
CONTINUOUS
10
5.51418
20
-2.72869
11
5.51419
21
-2.72866
0
LINE
8
BLACK
6
CONTINUOUS
10
5.51419
20
-2.72866
11
5.51449
21
-2.72831
0
LINE
8
BLACK
6
CONTINUOUS
10
5.51449
20
-2.72831
11
5.51478
21
-2.72796
0
LINE
8
BLACK
6
CONTINUOUS
10
5.51478
20
-2.72796
11
5.51481
21
-2.72794
0
LINE
8
BLACK
6
CONTINUOUS
10
5.51481
20
-2.72794
11
5.51482
21
-2.72792
0
LINE
8
BLACK
6
CONTINUOUS
10
5.51482
20
-2.72792
11
5.51518
21
-2.72763
0
LINE
8
BLACK
6
CONTINUOUS
10
5.51518
20
-2.72763
11
5.51554
21
-2.72734
0
LINE
8
BLACK
6
CONTINUOUS
10
5.51554
20
-2.72734
11
5.51556
21
-2.72733
0
LINE
8
BLACK
6
CONTINUOUS
10
5.51556
20
-2.72733
11
5.51559
21
-2.72731
0
LINE
8
BLACK
6
CONTINUOUS
10
5.51559
20
-2.72731
11
5.516
21
-2.7271
0
LINE
8
BLACK
6
CONTINUOUS
10
5.516
20
-2.7271
11
5.5164
21
-2.72688
0
LINE
8
BLACK
6
CONTINUOUS
10
5.5164
20
-2.72688
11
5.51643
21
-2.72688
0
LINE
8
BLACK
6
CONTINUOUS
10
5.51643
20
-2.72688
11
5.51645
21
-2.72686
0
LINE
8
BLACK
6
CONTINUOUS
10
5.51645
20
-2.72686
11
5.51689
21
-2.72673
0
LINE
8
BLACK
6
CONTINUOUS
10
5.51689
20
-2.72673
11
5.51734
21
-2.7266
0
LINE
8
BLACK
6
CONTINUOUS
10
5.51734
20
-2.7266
11
5.51736
21
-2.7266
0
LINE
8
BLACK
6
CONTINUOUS
10
5.51736
20
-2.7266
11
5.51739
21
-2.72659
0
LINE
8
BLACK
6
CONTINUOUS
10
5.51739
20
-2.72659
11
5.51785
21
-2.72655
0
LINE
8
BLACK
6
CONTINUOUS
10
5.51785
20
-2.72655
11
5.51831
21
-2.72651
0
LINE
8
BLACK
6
CONTINUOUS
10
5.51831
20
-2.72651
11
5.96429
21
-2.72681
0
CIRCLE
8
BLACK
10
5.60565
20
-3.63202
40
0.00590551
0
CIRCLE
8
BLACK
10
5.38793
20
-2.81824
40
0.00787402
0
CIRCLE
8
BLACK
10
5.5525
20
-3.57296
40
0.00590551
0
CIRCLE
8
BLACK
10
5.69541
20
-3.54894
40
0.00590551
0
CIRCLE
8
BLACK
10
5.51509
20
-3.54894
40
0.00590551
0
CIRCLE
8
BLACK
10
5.18891
20
-3.30111
40
0.00787402
0
CIRCLE
8
BLACK
10
5.19108
20
-3.20229
40
0.00787402
0
CIRCLE
8
BLACK
10
5.23419
20
-3.30111
40
0.00787402
0
CIRCLE
8
BLACK
10
5.23439
20
-3.20347
40
0.00787402
0
CIRCLE
8
BLACK
10
5.36076
20
-3.20269
40
0.00787402
0
CIRCLE
8
BLACK
10
6.0258
20
-2.98973
40
0.00787402
0
CIRCLE
8
BLACK
10
5.8307
20
-3.54225
40
0.00590551
0
CIRCLE
8
BLACK
10
5.79205
20
-3.54225
40
0.00590551
0
CIRCLE
8
BLACK
10
5.75341
20
-3.54225
40
0.00590551
0
CIRCLE
8
BLACK
10
5.72179
20
-3.54146
40
0.00590551
0
CIRCLE
8
BLACK
10
5.8244
20
-3.51233
40
0.00590551
0
CIRCLE
8
BLACK
10
5.78576
20
-3.51233
40
0.00590551
0
CIRCLE
8
BLACK
10
5.74711
20
-3.51233
40
0.00590551
0
CIRCLE
8
BLACK
10
5.71549
20
-3.51154
40
0.00590551
0
CIRCLE
8
BLACK
10
5.48425
20
-3.54028
40
0.00590551
0
CIRCLE
8
BLACK
10
5.4456
20
-3.54028
40
0.00590551
0
CIRCLE
8
BLACK
10
5.40695
20
-3.54028
40
0.00590551
0
CIRCLE
8
BLACK
10
5.37533
20
-3.5395
40
0.00590551
0
CIRCLE
8
BLACK
10
5.50354
20
-3.51194
40
0.00590551
0
CIRCLE
8
BLACK
10
5.46489
20
-3.51194
40
0.00590551
0
CIRCLE
8
BLACK
10
5.42624
20
-3.51194
40
0.00590551
0
CIRCLE
8
BLACK
10
5.39462
20
-3.51115
40
0.00590551
0
CIRCLE
8
BLACK
10
5.50393
20
-3.42296
40
0.00590551
0
CIRCLE
8
BLACK
10
5.46528
20
-3.42296
40
0.00590551
0
CIRCLE
8
BLACK
10
5.82047
20
-3.41981
40
0.00590551
0
CIRCLE
8
BLACK
10
5.78182
20
-3.41981
40
0.00590551
0
CIRCLE
8
BLACK
10
5.74317
20
-3.41981
40
0.00590551
0
CIRCLE
8
BLACK
10
5.71155
20
-3.41902
40
0.00590551
0
CIRCLE
8
BLACK
10
5.35851
20
-3.73202
40
0.00590551
0
CIRCLE
8
BLACK
10
5.39598
20
-3.73202
40
0.00590551
0
CIRCLE
8
BLACK
10
5.43345
20
-3.73202
40
0.00590551
0
CIRCLE
8
BLACK
10
5.47093
20
-3.73202
40
0.00590551
0
CIRCLE
8
BLACK
10
5.73488
20
-3.73005
40
0.00590551
0
CIRCLE
8
BLACK
10
5.77236
20
-3.73005
40
0.00590551
0
CIRCLE
8
BLACK
10
5.80983
20
-3.73005
40
0.00590551
0
CIRCLE
8
BLACK
10
5.84731
20
-3.73005
40
0.00590551
0
CIRCLE
8
BLACK
10
5.21008
20
-3.39068
40
0.00590551
0
CIRCLE
8
BLACK
10
5.24755
20
-3.39068
40
0.00590551
0
CIRCLE
8
BLACK
10
5.28503
20
-3.39068
40
0.00590551
0
CIRCLE
8
BLACK
10
5.3225
20
-3.39068
40
0.00590551
0
CIRCLE
8
BLACK
10
5.20457
20
-3.86902
40
0.00590551
0
CIRCLE
8
BLACK
10
5.24204
20
-3.86902
40
0.00590551
0
CIRCLE
8
BLACK
10
5.27952
20
-3.86902
40
0.00590551
0
CIRCLE
8
BLACK
10
5.31699
20
-3.86902
40
0.00590551
0
CIRCLE
8
BLACK
10
5.89709
20
-3.86902
40
0.00590551
0
CIRCLE
8
BLACK
10
5.93456
20
-3.86902
40
0.00590551
0
CIRCLE
8
BLACK
10
5.97204
20
-3.86902
40
0.00590551
0
CIRCLE
8
BLACK
10
6.00951
20
-3.86902
40
0.00590551
0
CIRCLE
8
BLACK
10
5.89906
20
-3.39265
40
0.00590551
0
CIRCLE
8
BLACK
10
5.93653
20
-3.39265
40
0.00590551
0
CIRCLE
8
BLACK
10
5.974
20
-3.39265
40
0.00590551
0
CIRCLE
8
BLACK
10
6.01148
20
-3.39265
40
0.00590551
0
CIRCLE
8
BLACK
10
5.46269
20
-2.39185
40
0.00590551
0
CIRCLE
8
BLACK
10
5.42996
20
-2.39185
40
0.00590551
0
CIRCLE
8
BLACK
10
5.39723
20
-2.39185
40
0.00590551
0
CIRCLE
8
BLACK
10
5.3645
20
-2.39185
40
0.00590551
0
CIRCLE
8
BLACK
10
5.33176
20
-2.39185
40
0.00590551
0
CIRCLE
8
BLACK
10
5.29903
20
-2.39185
40
0.00590551
0
CIRCLE
8
BLACK
10
5.2663
20
-2.39185
40
0.00590551
0
CIRCLE
8
BLACK
10
5.4623
20
-2.57098
40
0.00590551
0
CIRCLE
8
BLACK
10
5.42957
20
-2.57098
40
0.00590551
0
CIRCLE
8
BLACK
10
5.39683
20
-2.57098
40
0.00590551
0
CIRCLE
8
BLACK
10
5.3641
20
-2.57098
40
0.00590551
0
CIRCLE
8
BLACK
10
5.33137
20
-2.57098
40
0.00590551
0
CIRCLE
8
BLACK
10
5.29864
20
-2.57098
40
0.00590551
0
CIRCLE
8
BLACK
10
5.26591
20
-2.57098
40
0.00590551
0
CIRCLE
8
BLACK
10
5.95285
20
-2.57413
40
0.00590551
0
CIRCLE
8
BLACK
10
5.92012
20
-2.57413
40
0.00590551
0
CIRCLE
8
BLACK
10
5.88739
20
-2.57413
40
0.00590551
0
CIRCLE
8
BLACK
10
5.85465
20
-2.57413
40
0.00590551
0
CIRCLE
8
BLACK
10
5.82192
20
-2.57413
40
0.00590551
0
CIRCLE
8
BLACK
10
5.78919
20
-2.57413
40
0.00590551
0
CIRCLE
8
BLACK
10
5.75646
20
-2.57413
40
0.00590551
0
CIRCLE
8
BLACK
10
5.95324
20
-2.38713
40
0.00590551
0
CIRCLE
8
BLACK
10
5.92051
20
-2.38713
40
0.00590551
0
CIRCLE
8
BLACK
10
5.88778
20
-2.38713
40
0.00590551
0
CIRCLE
8
BLACK
10
5.85505
20
-2.38713
40
0.00590551
0
CIRCLE
8
BLACK
10
5.82231
20
-2.38713
40
0.00590551
0
CIRCLE
8
BLACK
10
5.78958
20
-2.38713
40
0.00590551
0
CIRCLE
8
BLACK
10
5.75685
20
-2.38713
40
0.00590551
0
CIRCLE
8
BLACK
10
5.66037
20
-3.68044
40
0.00590551
0
CIRCLE
8
BLACK
10
5.5521
20
-3.68044
40
0.00590551
0
CIRCLE
8
BLACK
10
5.7025
20
-3.60052
40
0.00590551
0
CIRCLE
8
BLACK
10
5.7025
20
-3.57296
40
0.00590551
0
CIRCLE
8
BLACK
10
5.66076
20
-3.57296
40
0.00590551
0
CIRCLE
8
BLACK
10
5.96601
20
-3.72973
40
0.00590551
0
CIRCLE
8
BLACK
10
6.04331
20
-3.72973
40
0.00590551
0
CIRCLE
8
BLACK
10
5.88871
20
-3.72973
40
0.00590551
0
CIRCLE
8
BLACK
10
5.96601
20
-3.53973
40
0.00590551
0
CIRCLE
8
BLACK
10
6.04331
20
-3.53973
40
0.00590551
0
CIRCLE
8
BLACK
10
5.88871
20
-3.53973
40
0.00590551
0
CIRCLE
8
BLACK
10
5.24726
20
-3.72973
40
0.00590551
0
CIRCLE
8
BLACK
10
5.17232
20
-3.72973
40
0.00590551
0
CIRCLE
8
BLACK
10
5.32221
20
-3.72973
40
0.00590551
0
CIRCLE
8
BLACK
10
5.24726
20
-3.53973
40
0.00590551
0
CIRCLE
8
BLACK
10
5.17232
20
-3.53973
40
0.00590551
0
CIRCLE
8
BLACK
10
5.32221
20
-3.53973
40
0.00590551
0
CIRCLE
8
BLACK
10
5.69546
20
-3.72973
40
0.00590551
0
CIRCLE
8
BLACK
10
5.5084
20
-3.73005
40
0.00590551
0
CIRCLE
8
BLACK
10
5.6058
20
-3.75973
40
0.00590551
0
CIRCLE
8
BLACK
10
5.5458
20
-3.75973
40
0.00590551
0
CIRCLE
8
BLACK
10
5.57546
20
-3.76052
40
0.00590551
0
CIRCLE
8
BLACK
10
5.6358
20
-3.75973
40
0.00590551
0
CIRCLE
8
BLACK
10
5.6658
20
-3.75973
40
0.00590551
0
CIRCLE
8
BLACK
10
5.6658
20
-3.72973
40
0.00590551
0
CIRCLE
8
BLACK
10
5.5458
20
-3.70249
40
0.00590551
0
CIRCLE
8
BLACK
10
5.58911
20
-3.65013
40
0.00590551
0
CIRCLE
8
BLACK
10
5.62179
20
-3.65052
40
0.00590551
0
CIRCLE
8
BLACK
10
5.62179
20
-3.61666
40
0.00590551
0
CIRCLE
8
BLACK
10
5.5895
20
-3.61706
40
0.00590551
0
CIRCLE
8
BLACK
10
5.6358
20
-3.72973
40
0.00590551
0
CIRCLE
8
BLACK
10
5.6058
20
-3.72973
40
0.00590551
0
CIRCLE
8
BLACK
10
5.57546
20
-3.73052
40
0.00590551
0
CIRCLE
8
BLACK
10
5.5458
20
-3.72973
40
0.00590551
0
CIRCLE
8
BLACK
10
5.66628
20
-3.70288
40
0.00590551
0
CIRCLE
8
BLACK
10
5.20979
20
-3.69973
40
0.00590551
0
CIRCLE
8
BLACK
10
5.24726
20
-3.69973
40
0.00590551
0
CIRCLE
8
BLACK
10
5.28474
20
-3.69973
40
0.00590551
0
CIRCLE
8
BLACK
10
5.32221
20
-3.69973
40
0.00590551
0
CIRCLE
8
BLACK
10
5.35969
20
-3.69973
40
0.00590551
0
CIRCLE
8
BLACK
10
5.39716
20
-3.69973
40
0.00590551
0
CIRCLE
8
BLACK
10
5.43463
20
-3.69973
40
0.00590551
0
CIRCLE
8
BLACK
10
5.47211
20
-3.69973
40
0.00590551
0
CIRCLE
8
BLACK
10
5.17232
20
-3.69973
40
0.00590551
0
CIRCLE
8
BLACK
10
5.50958
20
-3.69973
40
0.00590551
0
CIRCLE
8
BLACK
10
5.47211
20
-3.57375
40
0.00590551
0
CIRCLE
8
BLACK
10
5.43463
20
-3.57375
40
0.00590551
0
CIRCLE
8
BLACK
10
5.39716
20
-3.57375
40
0.00590551
0
CIRCLE
8
BLACK
10
5.35969
20
-3.57375
40
0.00590551
0
CIRCLE
8
BLACK
10
5.32221
20
-3.57375
40
0.00590551
0
CIRCLE
8
BLACK
10
5.28474
20
-3.57375
40
0.00590551
0
CIRCLE
8
BLACK
10
5.24726
20
-3.57375
40
0.00590551
0
CIRCLE
8
BLACK
10
5.20979
20
-3.57375
40
0.00590551
0
CIRCLE
8
BLACK
10
5.50958
20
-3.57375
40
0.00590551
0
CIRCLE
8
BLACK
10
5.17232
20
-3.57375
40
0.00590551
0
CIRCLE
8
BLACK
10
5.73411
20
-3.69973
40
0.00590551
0
CIRCLE
8
BLACK
10
5.77276
20
-3.69973
40
0.00590551
0
CIRCLE
8
BLACK
10
5.81141
20
-3.69973
40
0.00590551
0
CIRCLE
8
BLACK
10
5.85006
20
-3.69973
40
0.00590551
0
CIRCLE
8
BLACK
10
5.88871
20
-3.69973
40
0.00590551
0
CIRCLE
8
BLACK
10
5.92736
20
-3.69973
40
0.00590551
0
CIRCLE
8
BLACK
10
5.96601
20
-3.69973
40
0.00590551
0
CIRCLE
8
BLACK
10
6.00466
20
-3.69973
40
0.00590551
0
CIRCLE
8
BLACK
10
5.6998
20
-3.70052
40
0.00590551
0
CIRCLE
8
BLACK
10
6.04331
20
-3.69973
40
0.00590551
0
CIRCLE
8
BLACK
10
6.00466
20
-3.57375
40
0.00590551
0
CIRCLE
8
BLACK
10
5.96601
20
-3.57375
40
0.00590551
0
CIRCLE
8
BLACK
10
5.92736
20
-3.57375
40
0.00590551
0
CIRCLE
8
BLACK
10
5.88871
20
-3.57375
40
0.00590551
0
CIRCLE
8
BLACK
10
5.85006
20
-3.57375
40
0.00590551
0
CIRCLE
8
BLACK
10
5.81141
20
-3.57375
40
0.00590551
0
CIRCLE
8
BLACK
10
5.77276
20
-3.57375
40
0.00590551
0
CIRCLE
8
BLACK
10
5.73411
20
-3.57375
40
0.00590551
0
CIRCLE
8
BLACK
10
6.04331
20
-3.57375
40
0.00590551
0
CIRCLE
8
BLACK
10
5.20979
20
-3.67217
40
0.00590551
0
CIRCLE
8
BLACK
10
5.24726
20
-3.67217
40
0.00590551
0
CIRCLE
8
BLACK
10
5.28474
20
-3.67217
40
0.00590551
0
CIRCLE
8
BLACK
10
5.32221
20
-3.67217
40
0.00590551
0
CIRCLE
8
BLACK
10
5.35969
20
-3.67217
40
0.00590551
0
CIRCLE
8
BLACK
10
5.39716
20
-3.67217
40
0.00590551
0
CIRCLE
8
BLACK
10
5.43463
20
-3.67217
40
0.00590551
0
CIRCLE
8
BLACK
10
5.47211
20
-3.67217
40
0.00590551
0
CIRCLE
8
BLACK
10
5.17232
20
-3.67217
40
0.00590551
0
CIRCLE
8
BLACK
10
5.47211
20
-3.60131
40
0.00590551
0
CIRCLE
8
BLACK
10
5.43463
20
-3.60131
40
0.00590551
0
CIRCLE
8
BLACK
10
5.39716
20
-3.60131
40
0.00590551
0
CIRCLE
8
BLACK
10
5.35969
20
-3.60131
40
0.00590551
0
CIRCLE
8
BLACK
10
5.32221
20
-3.60131
40
0.00590551
0
CIRCLE
8
BLACK
10
5.28474
20
-3.60131
40
0.00590551
0
CIRCLE
8
BLACK
10
5.24726
20
-3.60131
40
0.00590551
0
CIRCLE
8
BLACK
10
5.20979
20
-3.60131
40
0.00590551
0
CIRCLE
8
BLACK
10
5.50958
20
-3.60131
40
0.00590551
0
CIRCLE
8
BLACK
10
5.17232
20
-3.60131
40
0.00590551
0
CIRCLE
8
BLACK
10
5.73411
20
-3.67217
40
0.00590551
0
CIRCLE
8
BLACK
10
5.77276
20
-3.67217
40
0.00590551
0
CIRCLE
8
BLACK
10
5.81141
20
-3.67217
40
0.00590551
0
CIRCLE
8
BLACK
10
5.85006
20
-3.67217
40
0.00590551
0
CIRCLE
8
BLACK
10
5.88871
20
-3.67217
40
0.00590551
0
CIRCLE
8
BLACK
10
5.92736
20
-3.67217
40
0.00590551
0
CIRCLE
8
BLACK
10
5.96601
20
-3.67217
40
0.00590551
0
CIRCLE
8
BLACK
10
6.00466
20
-3.67217
40
0.00590551
0
CIRCLE
8
BLACK
10
5.6998
20
-3.67296
40
0.00590551
0
CIRCLE
8
BLACK
10
5.50958
20
-3.67217
40
0.00590551
0
CIRCLE
8
BLACK
10
6.04331
20
-3.67217
40
0.00590551
0
CIRCLE
8
BLACK
10
6.00466
20
-3.60131
40
0.00590551
0
CIRCLE
8
BLACK
10
5.96601
20
-3.60131
40
0.00590551
0
CIRCLE
8
BLACK
10
5.92736
20
-3.60131
40
0.00590551
0
CIRCLE
8
BLACK
10
5.88871
20
-3.60131
40
0.00590551
0
CIRCLE
8
BLACK
10
5.85006
20
-3.60131
40
0.00590551
0
CIRCLE
8
BLACK
10
5.81141
20
-3.60131
40
0.00590551
0
CIRCLE
8
BLACK
10
5.77276
20
-3.60131
40
0.00590551
0
CIRCLE
8
BLACK
10
5.73411
20
-3.60131
40
0.00590551
0
CIRCLE
8
BLACK
10
6.04331
20
-3.60131
40
0.00590551
0
CIRCLE
8
BLACK
10
5.29864
20
-2.54461
40
0.00590551
0
CIRCLE
8
BLACK
10
5.33137
20
-2.54461
40
0.00590551
0
CIRCLE
8
BLACK
10
5.3641
20
-2.54461
40
0.00590551
0
CIRCLE
8
BLACK
10
5.39683
20
-2.54461
40
0.00590551
0
CIRCLE
8
BLACK
10
5.42957
20
-2.54461
40
0.00590551
0
CIRCLE
8
BLACK
10
5.4623
20
-2.54461
40
0.00590551
0
CIRCLE
8
BLACK
10
5.49503
20
-2.54461
40
0.00590551
0
CIRCLE
8
BLACK
10
5.52776
20
-2.54461
40
0.00590551
0
CIRCLE
8
BLACK
10
5.5605
20
-2.54461
40
0.00590551
0
CIRCLE
8
BLACK
10
5.59323
20
-2.54461
40
0.00590551
0
CIRCLE
8
BLACK
10
5.62596
20
-2.54461
40
0.00590551
0
CIRCLE
8
BLACK
10
5.65869
20
-2.54461
40
0.00590551
0
CIRCLE
8
BLACK
10
5.69143
20
-2.54461
40
0.00590551
0
CIRCLE
8
BLACK
10
5.72416
20
-2.54461
40
0.00590551
0
CIRCLE
8
BLACK
10
5.75689
20
-2.54461
40
0.00590551
0
CIRCLE
8
BLACK
10
5.78962
20
-2.54461
40
0.00590551
0
CIRCLE
8
BLACK
10
5.82235
20
-2.54461
40
0.00590551
0
CIRCLE
8
BLACK
10
5.85509
20
-2.54461
40
0.00590551
0
CIRCLE
8
BLACK
10
5.88782
20
-2.54461
40
0.00590551
0
CIRCLE
8
BLACK
10
5.92055
20
-2.54461
40
0.00590551
0
CIRCLE
8
BLACK
10
5.26591
20
-2.54461
40
0.00590551
0
CIRCLE
8
BLACK
10
5.95328
20
-2.54461
40
0.00590551
0
CIRCLE
8
BLACK
10
5.92055
20
-2.41862
40
0.00590551
0
CIRCLE
8
BLACK
10
5.88782
20
-2.41862
40
0.00590551
0
CIRCLE
8
BLACK
10
5.85509
20
-2.41862
40
0.00590551
0
CIRCLE
8
BLACK
10
5.82235
20
-2.41862
40
0.00590551
0
CIRCLE
8
BLACK
10
5.78962
20
-2.41862
40
0.00590551
0
CIRCLE
8
BLACK
10
5.75689
20
-2.41862
40
0.00590551
0
CIRCLE
8
BLACK
10
5.72416
20
-2.41862
40
0.00590551
0
CIRCLE
8
BLACK
10
5.69143
20
-2.41862
40
0.00590551
0
CIRCLE
8
BLACK
10
5.65869
20
-2.41862
40
0.00590551
0
CIRCLE
8
BLACK
10
5.62596
20
-2.41862
40
0.00590551
0
CIRCLE
8
BLACK
10
5.59323
20
-2.41862
40
0.00590551
0
CIRCLE
8
BLACK
10
5.5605
20
-2.41862
40
0.00590551
0
CIRCLE
8
BLACK
10
5.52776
20
-2.41862
40
0.00590551
0
CIRCLE
8
BLACK
10
5.49503
20
-2.41862
40
0.00590551
0
CIRCLE
8
BLACK
10
5.4623
20
-2.41862
40
0.00590551
0
CIRCLE
8
BLACK
10
5.42957
20
-2.41862
40
0.00590551
0
CIRCLE
8
BLACK
10
5.39683
20
-2.41862
40
0.00590551
0
CIRCLE
8
BLACK
10
5.3641
20
-2.41862
40
0.00590551
0
CIRCLE
8
BLACK
10
5.33137
20
-2.41862
40
0.00590551
0
CIRCLE
8
BLACK
10
5.29864
20
-2.41862
40
0.00590551
0
CIRCLE
8
BLACK
10
5.95328
20
-2.41862
40
0.00590551
0
CIRCLE
8
BLACK
10
5.26591
20
-2.41862
40
0.00590551
0
CIRCLE
8
BLACK
10
5.29864
20
-2.51705
40
0.00590551
0
CIRCLE
8
BLACK
10
5.33137
20
-2.51705
40
0.00590551
0
CIRCLE
8
BLACK
10
5.3641
20
-2.51705
40
0.00590551
0
CIRCLE
8
BLACK
10
5.39683
20
-2.51705
40
0.00590551
0
CIRCLE
8
BLACK
10
5.42957
20
-2.51705
40
0.00590551
0
CIRCLE
8
BLACK
10
5.4623
20
-2.51705
40
0.00590551
0
CIRCLE
8
BLACK
10
5.49503
20
-2.51705
40
0.00590551
0
CIRCLE
8
BLACK
10
5.52776
20
-2.51705
40
0.00590551
0
CIRCLE
8
BLACK
10
5.5605
20
-2.51705
40
0.00590551
0
CIRCLE
8
BLACK
10
5.59323
20
-2.51705
40
0.00590551
0
CIRCLE
8
BLACK
10
5.62596
20
-2.51705
40
0.00590551
0
CIRCLE
8
BLACK
10
5.65869
20
-2.51705
40
0.00590551
0
CIRCLE
8
BLACK
10
5.78962
20
-2.51705
40
0.00590551
0
CIRCLE
8
BLACK
10
5.82235
20
-2.51705
40
0.00590551
0
CIRCLE
8
BLACK
10
5.85509
20
-2.51705
40
0.00590551
0
CIRCLE
8
BLACK
10
5.88782
20
-2.51705
40
0.00590551
0
CIRCLE
8
BLACK
10
5.92055
20
-2.51705
40
0.00590551
0
CIRCLE
8
BLACK
10
5.26591
20
-2.51705
40
0.00590551
0
CIRCLE
8
BLACK
10
5.95328
20
-2.51705
40
0.00590551
0
CIRCLE
8
BLACK
10
5.92055
20
-2.44618
40
0.00590551
0
CIRCLE
8
BLACK
10
5.88782
20
-2.44618
40
0.00590551
0
CIRCLE
8
BLACK
10
5.85509
20
-2.44618
40
0.00590551
0
CIRCLE
8
BLACK
10
5.82235
20
-2.44618
40
0.00590551
0
CIRCLE
8
BLACK
10
5.78962
20
-2.44618
40
0.00590551
0
CIRCLE
8
BLACK
10
5.75689
20
-2.44618
40
0.00590551
0
CIRCLE
8
BLACK
10
5.72416
20
-2.44618
40
0.00590551
0
CIRCLE
8
BLACK
10
5.69143
20
-2.44618
40
0.00590551
0
CIRCLE
8
BLACK
10
5.65869
20
-2.44618
40
0.00590551
0
CIRCLE
8
BLACK
10
5.62596
20
-2.44618
40
0.00590551
0
CIRCLE
8
BLACK
10
5.59323
20
-2.44618
40
0.00590551
0
CIRCLE
8
BLACK
10
5.5605
20
-2.44618
40
0.00590551
0
CIRCLE
8
BLACK
10
5.52776
20
-2.44618
40
0.00590551
0
CIRCLE
8
BLACK
10
5.49503
20
-2.44618
40
0.00590551
0
CIRCLE
8
BLACK
10
5.4623
20
-2.44618
40
0.00590551
0
CIRCLE
8
BLACK
10
5.42957
20
-2.44618
40
0.00590551
0
CIRCLE
8
BLACK
10
5.39683
20
-2.44618
40
0.00590551
0
CIRCLE
8
BLACK
10
5.3641
20
-2.44618
40
0.00590551
0
CIRCLE
8
BLACK
10
5.33137
20
-2.44618
40
0.00590551
0
CIRCLE
8
BLACK
10
5.29864
20
-2.44618
40
0.00590551
0
CIRCLE
8
BLACK
10
5.95328
20
-2.44618
40
0.00590551
0
CIRCLE
8
BLACK
10
5.26591
20
-2.44618
40
0.00590551
0
CIRCLE
8
BLACK
10
5.42663
20
-3.42296
40
0.00590551
0
CIRCLE
8
BLACK
10
5.39502
20
-3.42217
40
0.00590551
0
CIRCLE
8
BLACK
10
5.9258
20
-2.97973
40
0.00787402
0
CIRCLE
8
BLACK
10
6.02218
20
-3.10751
40
0.00787402
0
CIRCLE
8
BLACK
10
6.02218
20
-3.17985
40
0.00787402
0
CIRCLE
8
BLACK
10
6.02218
20
-3.25219
40
0.00787402
0
CIRCLE
8
BLACK
10
6.02218
20
-3.32454
40
0.00787402
0
CIRCLE
8
BLACK
10
5.67572
20
-3.1832
40
0.00787402
0
CIRCLE
8
BLACK
10
5.18439
20
-3.02532
40
0.00787402
0
CIRCLE
8
BLACK
10
5.18399
20
-3.07729
40
0.00787402
0
CIRCLE
8
BLACK
10
5.18202
20
-3.14068
40
0.00787402
0
CIRCLE
8
BLACK
10
5.25919
20
-2.75209
40
0.00787402
0
CIRCLE
8
BLACK
10
5.19187
20
-2.77099
40
0.00787402
0
CIRCLE
8
BLACK
10
5.31903
20
-2.85918
40
0.00787402
0
CIRCLE
8
BLACK
10
5.32061
20
-2.90446
40
0.00787402
0
CIRCLE
8
BLACK
10
5.18832
20
-2.85839
40
0.00787402
0
CIRCLE
8
BLACK
10
5.18714
20
-2.94776
40
0.00787402
0
CIRCLE
8
BLACK
10
5.32691
20
-2.80446
40
0.00787402
0
CIRCLE
8
BLACK
10
5.48321
20
-2.9265
40
0.00787402
0
CIRCLE
8
BLACK
10
5.3158
20
-2.95973
40
0.00787402
0
CIRCLE
8
BLACK
10
5.6958
20
-3.05973
40
0.00787402
0
CIRCLE
8
BLACK
10
5.6158
20
-2.98973
40
0.00787402
0
CIRCLE
8
BLACK
10
5.69143
20
-2.51705
40
0.00590551
0
CIRCLE
8
BLACK
10
5.72416
20
-2.51705
40
0.00590551
0
CIRCLE
8
BLACK
10
5.75689
20
-2.51705
40
0.00590551
0
CIRCLE
8
BLACK
10
5.97258
20
-3.00249
40
0.00787402
0
CIRCLE
8
BLACK
10
5.4525
20
-3.01627
40
0.00787402
0
CIRCLE
8
BLACK
10
5.67139
20
-3.13871
40
0.00787402
0
CIRCLE
8
BLACK
10
5.60683
20
-3.04422
40
0.00787402
0
CIRCLE
8
BLACK
10
5.47927
20
-3.38379
40
0.00787402
0
CIRCLE
8
BLACK
10
5.8658
20
-2.97973
40
0.00787402
0
CIRCLE
8
BLACK
10
5.60604
20
-3.52808
40
0.00590551
0
CIRCLE
8
BLACK
10
5.40525
20
-3.20603
40
0.00787402
0
CIRCLE
8
BLACK
10
5.6962
20
-3.25749
40
0.00787402
0
CIRCLE
8
BLACK
10
5.51746
20
-3.01351
40
0.00787402
0
CIRCLE
8
BLACK
10
5.57651
20
-3.54343
40
0.00590551
0
CIRCLE
8
BLACK
10
5.58344
20
-2.93044
40
0.00787402
0
CIRCLE
8
BLACK
10
5.93891
20
-2.76961
40
0.00787402
0
CIRCLE
8
BLACK
10
5.9773
20
-2.76961
40
0.00787402
0
CIRCLE
8
BLACK
10
5.6358
20
-2.92973
40
0.00787402
0
CIRCLE
8
BLACK
10
5.54029
20
-2.88973
40
0.00787402
0
CIRCLE
8
BLACK
10
5.54069
20
-2.93044
40
0.00787402
0
CIRCLE
8
BLACK
10
5.87376
20
-2.81942
40
0.00787402
0
CIRCLE
8
BLACK
10
5.73478
20
-2.94028
40
0.00787402
0
CIRCLE
8
BLACK
10
6.03143
20
-2.84737
40
0.00787402
0
CIRCLE
8
BLACK
10
5.81195
20
-2.8769
40
0.00787402
0
CIRCLE
8
BLACK
10
5.64265
20
-3.54422
40
0.00590551
  0
ENDSEC
  0
EOF
