M48
;DRILL file {KiCad 4.0.6} date Wed Apr  3 14:00:56 2019
;FORMAT={3:3/ absolute / metric / suppress leading zeros}
FMAT,2
METRIC,TZ
T1C0.300
T2C0.400
T3C1.000
T4C1.500
%
G90
G05
M71
T1
X8433Y22504
T2
X3048Y13716
X5715Y29782
X5715Y26035
X5740Y23470
X6198Y16307
X7874Y13157
X9754Y10820
X10312Y25857
X10516Y15545
X11002Y20826
X11002Y19356
X11481Y11430
X11897Y20826
X11897Y19356
X12522Y24232
X12598Y25400
X12598Y15850
X12792Y20826
X12792Y19356
X12802Y12878
X12852Y9500
X13687Y20826
X13687Y19356
X14161Y29083
X15392Y24232
X16459Y22606
X17907Y29286
X18034Y26822
X18948Y20726
X19050Y25222
X19050Y24511
X19812Y29464
X19812Y25222
X19812Y24486
T3
X21082Y18796
X21082Y16256
X21082Y13716
X21082Y11176
T4
X2743Y6541
X6858Y3238
X11938Y3238
X17031Y3238
X21133Y6541
T0
M30
