G04 #@! TF.FileFunction,Soldermask,Top*
%FSLAX46Y46*%
G04 Gerber Fmt 4.6, Leading zero omitted, Abs format (unit mm)*
G04 Created by KiCad (PCBNEW 4.0.6) date Wed Apr  3 14:00:51 2019*
%MOMM*%
%LPD*%
G01*
G04 APERTURE LIST*
%ADD10C,0.100000*%
G04 APERTURE END LIST*
D10*
G36*
X7020804Y4787470D02*
X7318566Y4726348D01*
X7598783Y4608556D01*
X7850789Y4438576D01*
X8064979Y4222884D01*
X8233192Y3969706D01*
X8349027Y3688666D01*
X8408007Y3390798D01*
X8408007Y3390789D01*
X8408067Y3390485D01*
X8403219Y3043293D01*
X8403150Y3042990D01*
X8403150Y3042983D01*
X8335876Y2746876D01*
X8212239Y2469183D01*
X8037022Y2220797D01*
X7816894Y2011171D01*
X7560244Y1848297D01*
X7276840Y1738371D01*
X6977491Y1685588D01*
X6673585Y1691954D01*
X6376706Y1757227D01*
X6098160Y1878921D01*
X5848552Y2052403D01*
X5637397Y2271059D01*
X5472731Y2526570D01*
X5360833Y2809194D01*
X5305961Y3108171D01*
X5310204Y3412113D01*
X5373404Y3709445D01*
X5493151Y3988833D01*
X5664883Y4239642D01*
X5882065Y4452322D01*
X6136414Y4618764D01*
X6418250Y4732633D01*
X6716840Y4789592D01*
X7020804Y4787470D01*
X7020804Y4787470D01*
G37*
G36*
X12100804Y4787470D02*
X12398566Y4726348D01*
X12678783Y4608556D01*
X12930789Y4438576D01*
X13144979Y4222884D01*
X13313192Y3969706D01*
X13429027Y3688666D01*
X13488007Y3390798D01*
X13488007Y3390789D01*
X13488067Y3390485D01*
X13483219Y3043293D01*
X13483150Y3042990D01*
X13483150Y3042983D01*
X13415876Y2746876D01*
X13292239Y2469183D01*
X13117022Y2220797D01*
X12896894Y2011171D01*
X12640244Y1848297D01*
X12356840Y1738371D01*
X12057491Y1685588D01*
X11753585Y1691954D01*
X11456706Y1757227D01*
X11178160Y1878921D01*
X10928552Y2052403D01*
X10717397Y2271059D01*
X10552731Y2526570D01*
X10440833Y2809194D01*
X10385961Y3108171D01*
X10390204Y3412113D01*
X10453404Y3709445D01*
X10573151Y3988833D01*
X10744883Y4239642D01*
X10962065Y4452322D01*
X11216414Y4618764D01*
X11498250Y4732633D01*
X11796840Y4789592D01*
X12100804Y4787470D01*
X12100804Y4787470D01*
G37*
G36*
X17193504Y4787470D02*
X17491266Y4726348D01*
X17771483Y4608556D01*
X18023489Y4438576D01*
X18237679Y4222884D01*
X18405892Y3969706D01*
X18521727Y3688666D01*
X18580707Y3390798D01*
X18580707Y3390789D01*
X18580767Y3390485D01*
X18575919Y3043293D01*
X18575850Y3042990D01*
X18575850Y3042983D01*
X18508576Y2746876D01*
X18384939Y2469183D01*
X18209722Y2220797D01*
X17989594Y2011171D01*
X17732944Y1848297D01*
X17449540Y1738371D01*
X17150191Y1685588D01*
X16846285Y1691954D01*
X16549406Y1757227D01*
X16270860Y1878921D01*
X16021252Y2052403D01*
X15810097Y2271059D01*
X15645431Y2526570D01*
X15533533Y2809194D01*
X15478661Y3108171D01*
X15482904Y3412113D01*
X15546104Y3709445D01*
X15665851Y3988833D01*
X15837583Y4239642D01*
X16054765Y4452322D01*
X16309114Y4618764D01*
X16590950Y4732633D01*
X16889540Y4789592D01*
X17193504Y4787470D01*
X17193504Y4787470D01*
G37*
G36*
X2906004Y8089470D02*
X3203766Y8028348D01*
X3483983Y7910556D01*
X3735989Y7740576D01*
X3950179Y7524884D01*
X4118392Y7271706D01*
X4234227Y6990666D01*
X4293207Y6692798D01*
X4293207Y6692789D01*
X4293267Y6692485D01*
X4288419Y6345293D01*
X4288350Y6344990D01*
X4288350Y6344983D01*
X4221076Y6048876D01*
X4097439Y5771183D01*
X3922222Y5522797D01*
X3702094Y5313171D01*
X3445444Y5150297D01*
X3162040Y5040371D01*
X2862691Y4987588D01*
X2558785Y4993954D01*
X2261906Y5059227D01*
X1983360Y5180921D01*
X1733752Y5354403D01*
X1522597Y5573059D01*
X1357931Y5828570D01*
X1246033Y6111194D01*
X1191161Y6410171D01*
X1195404Y6714113D01*
X1258604Y7011445D01*
X1378351Y7290833D01*
X1550083Y7541642D01*
X1767265Y7754322D01*
X2021614Y7920764D01*
X2303450Y8034633D01*
X2602040Y8091592D01*
X2906004Y8089470D01*
X2906004Y8089470D01*
G37*
G36*
X21295604Y8089470D02*
X21593366Y8028348D01*
X21873583Y7910556D01*
X22125589Y7740576D01*
X22339779Y7524884D01*
X22507992Y7271706D01*
X22623827Y6990666D01*
X22682807Y6692798D01*
X22682807Y6692789D01*
X22682867Y6692485D01*
X22678019Y6345293D01*
X22677950Y6344990D01*
X22677950Y6344983D01*
X22610676Y6048876D01*
X22487039Y5771183D01*
X22311822Y5522797D01*
X22091694Y5313171D01*
X21835044Y5150297D01*
X21551640Y5040371D01*
X21252291Y4987588D01*
X20948385Y4993954D01*
X20651506Y5059227D01*
X20372960Y5180921D01*
X20123352Y5354403D01*
X19912197Y5573059D01*
X19747531Y5828570D01*
X19635633Y6111194D01*
X19580761Y6410171D01*
X19585004Y6714113D01*
X19648204Y7011445D01*
X19767951Y7290833D01*
X19939683Y7541642D01*
X20156865Y7754322D01*
X20411214Y7920764D01*
X20693050Y8034633D01*
X20991640Y8091592D01*
X21295604Y8089470D01*
X21295604Y8089470D01*
G37*
G36*
X19372800Y6726400D02*
X18272800Y6726400D01*
X18272800Y9326400D01*
X19372800Y9326400D01*
X19372800Y6726400D01*
X19372800Y6726400D01*
G37*
G36*
X16372800Y6726400D02*
X15272800Y6726400D01*
X15272800Y9326400D01*
X16372800Y9326400D01*
X16372800Y6726400D01*
X16372800Y6726400D01*
G37*
G36*
X11640400Y7554600D02*
X10540400Y7554600D01*
X10540400Y8904600D01*
X11640400Y8904600D01*
X11640400Y7554600D01*
X11640400Y7554600D01*
G37*
G36*
X13640400Y7554600D02*
X12540400Y7554600D01*
X12540400Y8904600D01*
X13640400Y8904600D01*
X13640400Y7554600D01*
X13640400Y7554600D01*
G37*
G36*
X14828000Y7885200D02*
X14128000Y7885200D01*
X14128000Y8385200D01*
X14828000Y8385200D01*
X14828000Y7885200D01*
X14828000Y7885200D01*
G37*
G36*
X4094000Y8770400D02*
X1494000Y8770400D01*
X1494000Y9870400D01*
X4094000Y9870400D01*
X4094000Y8770400D01*
X4094000Y8770400D01*
G37*
G36*
X14828000Y8785200D02*
X14128000Y8785200D01*
X14128000Y9285200D01*
X14828000Y9285200D01*
X14828000Y8785200D01*
X14828000Y8785200D01*
G37*
G36*
X7208000Y8799600D02*
X6508000Y8799600D01*
X6508000Y9299600D01*
X7208000Y9299600D01*
X7208000Y8799600D01*
X7208000Y8799600D01*
G37*
G36*
X6009000Y8813200D02*
X4659000Y8813200D01*
X4659000Y9913200D01*
X6009000Y9913200D01*
X6009000Y8813200D01*
X6009000Y8813200D01*
G37*
G36*
X14828000Y9663200D02*
X14128000Y9663200D01*
X14128000Y10163200D01*
X14828000Y10163200D01*
X14828000Y9663200D01*
X14828000Y9663200D01*
G37*
G36*
X7208000Y9699600D02*
X6508000Y9699600D01*
X6508000Y10199600D01*
X7208000Y10199600D01*
X7208000Y9699600D01*
X7208000Y9699600D01*
G37*
G36*
X13643000Y9875200D02*
X12093000Y9875200D01*
X12093000Y10425200D01*
X13643000Y10425200D01*
X13643000Y9875200D01*
X13643000Y9875200D01*
G37*
G36*
X9243000Y9875200D02*
X7693000Y9875200D01*
X7693000Y10425200D01*
X9243000Y10425200D01*
X9243000Y9875200D01*
X9243000Y9875200D01*
G37*
G36*
X21097090Y12075925D02*
X21097092Y12075925D01*
X21098921Y12075912D01*
X21273476Y12056333D01*
X21440903Y12003222D01*
X21594825Y11918602D01*
X21729380Y11805697D01*
X21839443Y11668807D01*
X21920820Y11513146D01*
X21970414Y11344643D01*
X21970417Y11344608D01*
X21970418Y11344605D01*
X21986334Y11169715D01*
X21967980Y10995078D01*
X21967977Y10995068D01*
X21967973Y10995030D01*
X21916032Y10827236D01*
X21832489Y10672726D01*
X21720526Y10537386D01*
X21584407Y10426371D01*
X21429318Y10343909D01*
X21261166Y10293140D01*
X21086355Y10276000D01*
X21077599Y10276000D01*
X21066910Y10276075D01*
X21066908Y10276075D01*
X21065079Y10276088D01*
X20890524Y10295667D01*
X20723097Y10348778D01*
X20569175Y10433398D01*
X20434620Y10546303D01*
X20324557Y10683193D01*
X20243180Y10838854D01*
X20193586Y11007357D01*
X20193583Y11007392D01*
X20193582Y11007395D01*
X20177666Y11182285D01*
X20196020Y11356922D01*
X20196023Y11356932D01*
X20196027Y11356970D01*
X20247968Y11524764D01*
X20331511Y11679274D01*
X20443474Y11814614D01*
X20579593Y11925629D01*
X20734682Y12008091D01*
X20902834Y12058860D01*
X21077645Y12076000D01*
X21086401Y12076000D01*
X21097090Y12075925D01*
X21097090Y12075925D01*
G37*
G36*
X18372027Y11975470D02*
X18525712Y11943922D01*
X18670340Y11883127D01*
X18800408Y11795395D01*
X18910959Y11684068D01*
X18997777Y11553398D01*
X19057563Y11408344D01*
X19087975Y11254757D01*
X19087975Y11254743D01*
X19088034Y11254444D01*
X19085532Y11075248D01*
X19085464Y11074949D01*
X19085464Y11074938D01*
X19050776Y10922258D01*
X18986963Y10778931D01*
X18896529Y10650735D01*
X18782912Y10542539D01*
X18650449Y10458475D01*
X18504174Y10401738D01*
X18349673Y10374495D01*
X18192817Y10377782D01*
X18039590Y10411470D01*
X17895825Y10474280D01*
X17766994Y10563820D01*
X17658009Y10676677D01*
X17573023Y10808549D01*
X17515267Y10954422D01*
X17486947Y11108733D01*
X17489137Y11265607D01*
X17521756Y11419068D01*
X17583562Y11563272D01*
X17672196Y11692719D01*
X17784290Y11802488D01*
X17915570Y11888397D01*
X18061031Y11947166D01*
X18215143Y11976564D01*
X18372027Y11975470D01*
X18372027Y11975470D01*
G37*
G36*
X9243000Y10525200D02*
X7693000Y10525200D01*
X7693000Y11075200D01*
X9243000Y11075200D01*
X9243000Y10525200D01*
X9243000Y10525200D01*
G37*
G36*
X13643000Y10525200D02*
X12093000Y10525200D01*
X12093000Y11075200D01*
X13643000Y11075200D01*
X13643000Y10525200D01*
X13643000Y10525200D01*
G37*
G36*
X7208000Y10552200D02*
X6508000Y10552200D01*
X6508000Y11052200D01*
X7208000Y11052200D01*
X7208000Y10552200D01*
X7208000Y10552200D01*
G37*
G36*
X14828000Y10563200D02*
X14128000Y10563200D01*
X14128000Y11063200D01*
X14828000Y11063200D01*
X14828000Y10563200D01*
X14828000Y10563200D01*
G37*
G36*
X6009000Y10813200D02*
X4659000Y10813200D01*
X4659000Y11913200D01*
X6009000Y11913200D01*
X6009000Y10813200D01*
X6009000Y10813200D01*
G37*
G36*
X13643000Y11175200D02*
X12093000Y11175200D01*
X12093000Y11725200D01*
X13643000Y11725200D01*
X13643000Y11175200D01*
X13643000Y11175200D01*
G37*
G36*
X9243000Y11175200D02*
X7693000Y11175200D01*
X7693000Y11725200D01*
X9243000Y11725200D01*
X9243000Y11175200D01*
X9243000Y11175200D01*
G37*
G36*
X14828000Y11441200D02*
X14128000Y11441200D01*
X14128000Y11941200D01*
X14828000Y11941200D01*
X14828000Y11441200D01*
X14828000Y11441200D01*
G37*
G36*
X7208000Y11452200D02*
X6508000Y11452200D01*
X6508000Y11952200D01*
X7208000Y11952200D01*
X7208000Y11452200D01*
X7208000Y11452200D01*
G37*
G36*
X4094000Y11770400D02*
X1494000Y11770400D01*
X1494000Y12870400D01*
X4094000Y12870400D01*
X4094000Y11770400D01*
X4094000Y11770400D01*
G37*
G36*
X13643000Y11825200D02*
X12093000Y11825200D01*
X12093000Y12375200D01*
X13643000Y12375200D01*
X13643000Y11825200D01*
X13643000Y11825200D01*
G37*
G36*
X9243000Y11825200D02*
X7693000Y11825200D01*
X7693000Y12375200D01*
X9243000Y12375200D01*
X9243000Y11825200D01*
X9243000Y11825200D01*
G37*
G36*
X7208000Y12330200D02*
X6508000Y12330200D01*
X6508000Y12830200D01*
X7208000Y12830200D01*
X7208000Y12330200D01*
X7208000Y12330200D01*
G37*
G36*
X14828000Y12341200D02*
X14128000Y12341200D01*
X14128000Y12841200D01*
X14828000Y12841200D01*
X14828000Y12341200D01*
X14828000Y12341200D01*
G37*
G36*
X21097090Y14615925D02*
X21097092Y14615925D01*
X21098921Y14615912D01*
X21273476Y14596333D01*
X21440903Y14543222D01*
X21594825Y14458602D01*
X21729380Y14345697D01*
X21839443Y14208807D01*
X21920820Y14053146D01*
X21970414Y13884643D01*
X21970417Y13884608D01*
X21970418Y13884605D01*
X21986334Y13709715D01*
X21967980Y13535078D01*
X21967977Y13535068D01*
X21967973Y13535030D01*
X21916032Y13367236D01*
X21832489Y13212726D01*
X21720526Y13077386D01*
X21584407Y12966371D01*
X21429318Y12883909D01*
X21261166Y12833140D01*
X21086355Y12816000D01*
X21077599Y12816000D01*
X21066910Y12816075D01*
X21066908Y12816075D01*
X21065079Y12816088D01*
X20890524Y12835667D01*
X20723097Y12888778D01*
X20569175Y12973398D01*
X20434620Y13086303D01*
X20324557Y13223193D01*
X20243180Y13378854D01*
X20193586Y13547357D01*
X20193583Y13547392D01*
X20193582Y13547395D01*
X20177666Y13722285D01*
X20196020Y13896922D01*
X20196023Y13896932D01*
X20196027Y13896970D01*
X20247968Y14064764D01*
X20331511Y14219274D01*
X20443474Y14354614D01*
X20579593Y14465629D01*
X20734682Y14548091D01*
X20902834Y14598860D01*
X21077645Y14616000D01*
X21086401Y14616000D01*
X21097090Y14615925D01*
X21097090Y14615925D01*
G37*
G36*
X18372027Y14515470D02*
X18525712Y14483922D01*
X18670340Y14423127D01*
X18800408Y14335395D01*
X18910959Y14224068D01*
X18997777Y14093398D01*
X19057563Y13948344D01*
X19087975Y13794757D01*
X19087975Y13794743D01*
X19088034Y13794444D01*
X19085532Y13615248D01*
X19085464Y13614949D01*
X19085464Y13614938D01*
X19050776Y13462258D01*
X18986963Y13318931D01*
X18896529Y13190735D01*
X18782912Y13082539D01*
X18650449Y12998475D01*
X18504174Y12941738D01*
X18349673Y12914495D01*
X18192817Y12917782D01*
X18039590Y12951470D01*
X17895825Y13014280D01*
X17766994Y13103820D01*
X17658009Y13216677D01*
X17573023Y13348549D01*
X17515267Y13494422D01*
X17486947Y13648733D01*
X17489137Y13805607D01*
X17521756Y13959068D01*
X17583562Y14103272D01*
X17672196Y14232719D01*
X17784290Y14342488D01*
X17915570Y14428397D01*
X18061031Y14487166D01*
X18215143Y14516564D01*
X18372027Y14515470D01*
X18372027Y14515470D01*
G37*
G36*
X14714427Y14820270D02*
X14868112Y14788722D01*
X15012740Y14727927D01*
X15142808Y14640195D01*
X15253359Y14528868D01*
X15340177Y14398198D01*
X15399963Y14253144D01*
X15430375Y14099557D01*
X15430375Y14099543D01*
X15430434Y14099244D01*
X15427932Y13920048D01*
X15427864Y13919749D01*
X15427864Y13919738D01*
X15393176Y13767058D01*
X15329363Y13623731D01*
X15238929Y13495535D01*
X15125312Y13387339D01*
X14992849Y13303275D01*
X14846574Y13246538D01*
X14692073Y13219295D01*
X14535217Y13222582D01*
X14381990Y13256270D01*
X14238225Y13319080D01*
X14109394Y13408620D01*
X14000409Y13521477D01*
X13915423Y13653349D01*
X13857667Y13799222D01*
X13829347Y13953533D01*
X13831537Y14110407D01*
X13864156Y14263868D01*
X13925962Y14408072D01*
X14014596Y14537519D01*
X14126690Y14647288D01*
X14257970Y14733197D01*
X14403431Y14791966D01*
X14557543Y14821364D01*
X14714427Y14820270D01*
X14714427Y14820270D01*
G37*
G36*
X7208000Y13230200D02*
X6508000Y13230200D01*
X6508000Y13730200D01*
X7208000Y13730200D01*
X7208000Y13230200D01*
X7208000Y13230200D01*
G37*
G36*
X13361000Y13371200D02*
X12261000Y13371200D01*
X12261000Y14721200D01*
X13361000Y14721200D01*
X13361000Y13371200D01*
X13361000Y13371200D01*
G37*
G36*
X11361000Y13371200D02*
X10261000Y13371200D01*
X10261000Y14721200D01*
X11361000Y14721200D01*
X11361000Y13371200D01*
X11361000Y13371200D01*
G37*
G36*
X9644000Y13377200D02*
X8644000Y13377200D01*
X8644000Y13977200D01*
X9644000Y13977200D01*
X9644000Y13377200D01*
X9644000Y13377200D01*
G37*
G36*
X6942027Y15785470D02*
X7095712Y15753922D01*
X7240340Y15693127D01*
X7370408Y15605395D01*
X7480959Y15494068D01*
X7567777Y15363398D01*
X7627563Y15218344D01*
X7657975Y15064757D01*
X7657975Y15064743D01*
X7658034Y15064444D01*
X7655532Y14885248D01*
X7655464Y14884949D01*
X7655464Y14884938D01*
X7620776Y14732258D01*
X7556963Y14588931D01*
X7466529Y14460735D01*
X7352912Y14352539D01*
X7220449Y14268475D01*
X7074174Y14211738D01*
X6919673Y14184495D01*
X6762817Y14187782D01*
X6609590Y14221470D01*
X6465825Y14284280D01*
X6336994Y14373820D01*
X6228009Y14486677D01*
X6143023Y14618549D01*
X6085267Y14764422D01*
X6056947Y14918733D01*
X6059137Y15075607D01*
X6091756Y15229068D01*
X6153562Y15373272D01*
X6242196Y15502719D01*
X6354290Y15612488D01*
X6485570Y15698397D01*
X6631031Y15757166D01*
X6785143Y15786564D01*
X6942027Y15785470D01*
X6942027Y15785470D01*
G37*
G36*
X3698000Y14506000D02*
X2398000Y14506000D01*
X2398000Y15806000D01*
X3698000Y15806000D01*
X3698000Y14506000D01*
X3698000Y14506000D01*
G37*
G36*
X9644000Y14877200D02*
X8644000Y14877200D01*
X8644000Y15477200D01*
X9644000Y15477200D01*
X9644000Y14877200D01*
X9644000Y14877200D01*
G37*
G36*
X21097090Y17155925D02*
X21097092Y17155925D01*
X21098921Y17155912D01*
X21273476Y17136333D01*
X21440903Y17083222D01*
X21594825Y16998602D01*
X21729380Y16885697D01*
X21839443Y16748807D01*
X21920820Y16593146D01*
X21970414Y16424643D01*
X21970417Y16424608D01*
X21970418Y16424605D01*
X21986334Y16249715D01*
X21967980Y16075078D01*
X21967977Y16075068D01*
X21967973Y16075030D01*
X21916032Y15907236D01*
X21832489Y15752726D01*
X21720526Y15617386D01*
X21584407Y15506371D01*
X21429318Y15423909D01*
X21261166Y15373140D01*
X21086355Y15356000D01*
X21077599Y15356000D01*
X21066910Y15356075D01*
X21066908Y15356075D01*
X21065079Y15356088D01*
X20890524Y15375667D01*
X20723097Y15428778D01*
X20569175Y15513398D01*
X20434620Y15626303D01*
X20324557Y15763193D01*
X20243180Y15918854D01*
X20193586Y16087357D01*
X20193583Y16087392D01*
X20193582Y16087395D01*
X20177666Y16262285D01*
X20196020Y16436922D01*
X20196023Y16436932D01*
X20196027Y16436970D01*
X20247968Y16604764D01*
X20331511Y16759274D01*
X20443474Y16894614D01*
X20579593Y17005629D01*
X20734682Y17088091D01*
X20902834Y17138860D01*
X21077645Y17156000D01*
X21086401Y17156000D01*
X21097090Y17155925D01*
X21097090Y17155925D01*
G37*
G36*
X18372027Y17055470D02*
X18525712Y17023922D01*
X18670340Y16963127D01*
X18800408Y16875395D01*
X18910959Y16764068D01*
X18997777Y16633398D01*
X19057563Y16488344D01*
X19087975Y16334757D01*
X19087975Y16334743D01*
X19088034Y16334444D01*
X19085532Y16155248D01*
X19085464Y16154949D01*
X19085464Y16154938D01*
X19050776Y16002258D01*
X18986963Y15858931D01*
X18896529Y15730735D01*
X18782912Y15622539D01*
X18650449Y15538475D01*
X18504174Y15481738D01*
X18349673Y15454495D01*
X18192817Y15457782D01*
X18039590Y15491470D01*
X17895825Y15554280D01*
X17766994Y15643820D01*
X17658009Y15756677D01*
X17573023Y15888549D01*
X17515267Y16034422D01*
X17486947Y16188733D01*
X17489137Y16345607D01*
X17521756Y16499068D01*
X17583562Y16643272D01*
X17672196Y16772719D01*
X17784290Y16882488D01*
X17915570Y16968397D01*
X18061031Y17027166D01*
X18215143Y17056564D01*
X18372027Y17055470D01*
X18372027Y17055470D01*
G37*
G36*
X3698000Y16706000D02*
X2398000Y16706000D01*
X2398000Y18006000D01*
X3698000Y18006000D01*
X3698000Y16706000D01*
X3698000Y16706000D01*
G37*
G36*
X10344400Y16741400D02*
X9794400Y16741400D01*
X9794400Y17891400D01*
X10344400Y17891400D01*
X10344400Y16741400D01*
X10344400Y16741400D01*
G37*
G36*
X10994400Y16741400D02*
X10444400Y16741400D01*
X10444400Y17891400D01*
X10994400Y17891400D01*
X10994400Y16741400D01*
X10994400Y16741400D01*
G37*
G36*
X11644400Y16741400D02*
X11094400Y16741400D01*
X11094400Y17891400D01*
X11644400Y17891400D01*
X11644400Y16741400D01*
X11644400Y16741400D01*
G37*
G36*
X12294400Y16741400D02*
X11744400Y16741400D01*
X11744400Y17891400D01*
X12294400Y17891400D01*
X12294400Y16741400D01*
X12294400Y16741400D01*
G37*
G36*
X12944400Y16741400D02*
X12394400Y16741400D01*
X12394400Y17891400D01*
X12944400Y17891400D01*
X12944400Y16741400D01*
X12944400Y16741400D01*
G37*
G36*
X13594400Y16741400D02*
X13044400Y16741400D01*
X13044400Y17891400D01*
X13594400Y17891400D01*
X13594400Y16741400D01*
X13594400Y16741400D01*
G37*
G36*
X14244400Y16741400D02*
X13694400Y16741400D01*
X13694400Y17891400D01*
X14244400Y17891400D01*
X14244400Y16741400D01*
X14244400Y16741400D01*
G37*
G36*
X14894400Y16741400D02*
X14344400Y16741400D01*
X14344400Y17891400D01*
X14894400Y17891400D01*
X14894400Y16741400D01*
X14894400Y16741400D01*
G37*
G36*
X6697600Y16755400D02*
X5697600Y16755400D01*
X5697600Y17355400D01*
X6697600Y17355400D01*
X6697600Y16755400D01*
X6697600Y16755400D01*
G37*
G36*
X8186627Y18541370D02*
X8340312Y18509822D01*
X8484940Y18449027D01*
X8615008Y18361295D01*
X8725559Y18249968D01*
X8812377Y18119298D01*
X8872163Y17974244D01*
X8902575Y17820657D01*
X8902575Y17820643D01*
X8902634Y17820344D01*
X8900132Y17641148D01*
X8900064Y17640849D01*
X8900064Y17640838D01*
X8865376Y17488158D01*
X8801563Y17344831D01*
X8711129Y17216635D01*
X8597512Y17108439D01*
X8465049Y17024375D01*
X8318774Y16967638D01*
X8164273Y16940395D01*
X8007417Y16943682D01*
X7854190Y16977370D01*
X7710425Y17040180D01*
X7581594Y17129720D01*
X7472609Y17242577D01*
X7387623Y17374449D01*
X7329867Y17520322D01*
X7301547Y17674633D01*
X7303737Y17831507D01*
X7336356Y17984968D01*
X7398162Y18129172D01*
X7486796Y18258619D01*
X7598890Y18368388D01*
X7730170Y18454297D01*
X7875631Y18513066D01*
X8029743Y18542464D01*
X8186627Y18541370D01*
X8186627Y18541370D01*
G37*
G36*
X21982000Y17896000D02*
X20182000Y17896000D01*
X20182000Y19696000D01*
X21982000Y19696000D01*
X21982000Y17896000D01*
X21982000Y17896000D01*
G37*
G36*
X18372027Y19595470D02*
X18525712Y19563922D01*
X18670340Y19503127D01*
X18800408Y19415395D01*
X18910959Y19304068D01*
X18997777Y19173398D01*
X19057563Y19028344D01*
X19087975Y18874757D01*
X19087975Y18874743D01*
X19088034Y18874444D01*
X19085532Y18695248D01*
X19085464Y18694949D01*
X19085464Y18694938D01*
X19050776Y18542258D01*
X18986963Y18398931D01*
X18896529Y18270735D01*
X18782912Y18162539D01*
X18650449Y18078475D01*
X18504174Y18021738D01*
X18349673Y17994495D01*
X18192817Y17997782D01*
X18039590Y18031470D01*
X17895825Y18094280D01*
X17766994Y18183820D01*
X17658009Y18296677D01*
X17573023Y18428549D01*
X17515267Y18574422D01*
X17486947Y18728733D01*
X17489137Y18885607D01*
X17521756Y19039068D01*
X17583562Y19183272D01*
X17672196Y19312719D01*
X17784290Y19422488D01*
X17915570Y19508397D01*
X18061031Y19567166D01*
X18215143Y19596564D01*
X18372027Y19595470D01*
X18372027Y19595470D01*
G37*
G36*
X6697600Y18255400D02*
X5697600Y18255400D01*
X5697600Y18855400D01*
X6697600Y18855400D01*
X6697600Y18255400D01*
X6697600Y18255400D01*
G37*
G36*
X3398000Y18477000D02*
X2698000Y18477000D01*
X2698000Y18977000D01*
X3398000Y18977000D01*
X3398000Y18477000D01*
X3398000Y18477000D01*
G37*
G36*
X14184400Y18571400D02*
X10504400Y18571400D01*
X10504400Y21611400D01*
X14184400Y21611400D01*
X14184400Y18571400D01*
X14184400Y18571400D01*
G37*
G36*
X9095100Y19049400D02*
X7745100Y19049400D01*
X7745100Y20149400D01*
X9095100Y20149400D01*
X9095100Y19049400D01*
X9095100Y19049400D01*
G37*
G36*
X3398000Y19377000D02*
X2698000Y19377000D01*
X2698000Y19877000D01*
X3398000Y19877000D01*
X3398000Y19377000D01*
X3398000Y19377000D01*
G37*
G36*
X7194100Y19399400D02*
X6344100Y19399400D01*
X6344100Y20299400D01*
X7194100Y20299400D01*
X7194100Y19399400D01*
X7194100Y19399400D01*
G37*
G36*
X7194100Y20899400D02*
X6344100Y20899400D01*
X6344100Y21799400D01*
X7194100Y21799400D01*
X7194100Y20899400D01*
X7194100Y20899400D01*
G37*
G36*
X9095100Y21049400D02*
X7745100Y21049400D01*
X7745100Y22149400D01*
X9095100Y22149400D01*
X9095100Y21049400D01*
X9095100Y21049400D01*
G37*
G36*
X16702000Y21417800D02*
X16202000Y21417800D01*
X16202000Y22117800D01*
X16702000Y22117800D01*
X16702000Y21417800D01*
X16702000Y21417800D01*
G37*
G36*
X15802000Y21417800D02*
X15302000Y21417800D01*
X15302000Y22117800D01*
X15802000Y22117800D01*
X15802000Y21417800D01*
X15802000Y21417800D01*
G37*
G36*
X20312000Y22064000D02*
X19312000Y22064000D01*
X19312000Y22664000D01*
X20312000Y22664000D01*
X20312000Y22064000D01*
X20312000Y22064000D01*
G37*
G36*
X12294400Y22291400D02*
X11744400Y22291400D01*
X11744400Y23441400D01*
X12294400Y23441400D01*
X12294400Y22291400D01*
X12294400Y22291400D01*
G37*
G36*
X11644400Y22291400D02*
X11094400Y22291400D01*
X11094400Y23441400D01*
X11644400Y23441400D01*
X11644400Y22291400D01*
X11644400Y22291400D01*
G37*
G36*
X10994400Y22291400D02*
X10444400Y22291400D01*
X10444400Y23441400D01*
X10994400Y23441400D01*
X10994400Y22291400D01*
X10994400Y22291400D01*
G37*
G36*
X10344400Y22291400D02*
X9794400Y22291400D01*
X9794400Y23441400D01*
X10344400Y23441400D01*
X10344400Y22291400D01*
X10344400Y22291400D01*
G37*
G36*
X14244400Y22291400D02*
X13694400Y22291400D01*
X13694400Y23441400D01*
X14244400Y23441400D01*
X14244400Y22291400D01*
X14244400Y22291400D01*
G37*
G36*
X12944400Y22291400D02*
X12394400Y22291400D01*
X12394400Y23441400D01*
X12944400Y23441400D01*
X12944400Y22291400D01*
X12944400Y22291400D01*
G37*
G36*
X14894400Y22291400D02*
X14344400Y22291400D01*
X14344400Y23441400D01*
X14894400Y23441400D01*
X14894400Y22291400D01*
X14894400Y22291400D01*
G37*
G36*
X13594400Y22291400D02*
X13044400Y22291400D01*
X13044400Y23441400D01*
X13594400Y23441400D01*
X13594400Y22291400D01*
X13594400Y22291400D01*
G37*
G36*
X7323027Y24269070D02*
X7476712Y24237522D01*
X7621340Y24176727D01*
X7751408Y24088995D01*
X7861959Y23977668D01*
X7948777Y23846998D01*
X8008563Y23701944D01*
X8038975Y23548357D01*
X8038975Y23548343D01*
X8039034Y23548044D01*
X8036532Y23368848D01*
X8036464Y23368549D01*
X8036464Y23368538D01*
X8001776Y23215858D01*
X7937963Y23072531D01*
X7847529Y22944335D01*
X7733912Y22836139D01*
X7601449Y22752075D01*
X7455174Y22695338D01*
X7300673Y22668095D01*
X7143817Y22671382D01*
X6990590Y22705070D01*
X6846825Y22767880D01*
X6717994Y22857420D01*
X6609009Y22970277D01*
X6524023Y23102149D01*
X6466267Y23248022D01*
X6437947Y23402333D01*
X6440137Y23559207D01*
X6472756Y23712668D01*
X6534562Y23856872D01*
X6623196Y23986319D01*
X6735290Y24096088D01*
X6866570Y24181997D01*
X7012031Y24240766D01*
X7166143Y24270164D01*
X7323027Y24269070D01*
X7323027Y24269070D01*
G37*
G36*
X15802000Y22865600D02*
X15302000Y22865600D01*
X15302000Y23565600D01*
X15802000Y23565600D01*
X15802000Y22865600D01*
X15802000Y22865600D01*
G37*
G36*
X16702000Y22865600D02*
X16202000Y22865600D01*
X16202000Y23565600D01*
X16702000Y23565600D01*
X16702000Y22865600D01*
X16702000Y22865600D01*
G37*
G36*
X20312000Y23564000D02*
X19312000Y23564000D01*
X19312000Y24164000D01*
X20312000Y24164000D01*
X20312000Y23564000D01*
X20312000Y23564000D01*
G37*
G36*
X11729200Y23887200D02*
X11029200Y23887200D01*
X11029200Y24387200D01*
X11729200Y24387200D01*
X11729200Y23887200D01*
X11729200Y23887200D01*
G37*
G36*
X10662400Y23887200D02*
X9962400Y23887200D01*
X9962400Y24387200D01*
X10662400Y24387200D01*
X10662400Y23887200D01*
X10662400Y23887200D01*
G37*
G36*
X13812000Y24242800D02*
X13112000Y24242800D01*
X13112000Y24742800D01*
X13812000Y24742800D01*
X13812000Y24242800D01*
X13812000Y24242800D01*
G37*
G36*
X14878800Y24242800D02*
X14178800Y24242800D01*
X14178800Y24742800D01*
X14878800Y24742800D01*
X14878800Y24242800D01*
X14878800Y24242800D01*
G37*
G36*
X17864027Y25945470D02*
X18017712Y25913922D01*
X18162340Y25853127D01*
X18292408Y25765395D01*
X18402959Y25654068D01*
X18489777Y25523398D01*
X18549563Y25378344D01*
X18579975Y25224757D01*
X18579975Y25224743D01*
X18580034Y25224444D01*
X18577532Y25045248D01*
X18577464Y25044949D01*
X18577464Y25044938D01*
X18542776Y24892258D01*
X18478963Y24748931D01*
X18388529Y24620735D01*
X18274912Y24512539D01*
X18142449Y24428475D01*
X17996174Y24371738D01*
X17841673Y24344495D01*
X17684817Y24347782D01*
X17531590Y24381470D01*
X17387825Y24444280D01*
X17258994Y24533820D01*
X17150009Y24646677D01*
X17065023Y24778549D01*
X17007267Y24924422D01*
X16978947Y25078733D01*
X16981137Y25235607D01*
X17013756Y25389068D01*
X17075562Y25533272D01*
X17164196Y25662719D01*
X17276290Y25772488D01*
X17407570Y25858397D01*
X17553031Y25917166D01*
X17707143Y25946564D01*
X17864027Y25945470D01*
X17864027Y25945470D01*
G37*
G36*
X4765000Y24735000D02*
X3665000Y24735000D01*
X3665000Y27335000D01*
X4765000Y27335000D01*
X4765000Y24735000D01*
X4765000Y24735000D01*
G37*
G36*
X7765000Y24735000D02*
X6665000Y24735000D01*
X6665000Y27335000D01*
X7765000Y27335000D01*
X7765000Y24735000D01*
X7765000Y24735000D01*
G37*
G36*
X11729200Y24787200D02*
X11029200Y24787200D01*
X11029200Y25287200D01*
X11729200Y25287200D01*
X11729200Y24787200D01*
X11729200Y24787200D01*
G37*
G36*
X10662400Y24787200D02*
X9962400Y24787200D01*
X9962400Y25287200D01*
X10662400Y25287200D01*
X10662400Y24787200D01*
X10662400Y24787200D01*
G37*
G36*
X13812000Y25142800D02*
X13112000Y25142800D01*
X13112000Y25642800D01*
X13812000Y25642800D01*
X13812000Y25142800D01*
X13812000Y25142800D01*
G37*
G36*
X14878800Y25142800D02*
X14178800Y25142800D01*
X14178800Y25642800D01*
X14878800Y25642800D01*
X14878800Y25142800D01*
X14878800Y25142800D01*
G37*
G36*
X9326500Y25302500D02*
X8326500Y25302500D01*
X8326500Y25902500D01*
X9326500Y25902500D01*
X9326500Y25302500D01*
X9326500Y25302500D01*
G37*
G36*
X20487000Y25628000D02*
X19137000Y25628000D01*
X19137000Y26728000D01*
X20487000Y26728000D01*
X20487000Y25628000D01*
X20487000Y25628000D01*
G37*
G36*
X17375500Y26263000D02*
X16025500Y26263000D01*
X16025500Y27363000D01*
X17375500Y27363000D01*
X17375500Y26263000D01*
X17375500Y26263000D01*
G37*
G36*
X10812500Y26562500D02*
X9912500Y26562500D01*
X9912500Y27412500D01*
X10812500Y27412500D01*
X10812500Y26562500D01*
X10812500Y26562500D01*
G37*
G36*
X12312500Y26562500D02*
X11412500Y26562500D01*
X11412500Y27412500D01*
X12312500Y27412500D01*
X12312500Y26562500D01*
X12312500Y26562500D01*
G37*
G36*
X9326500Y26802500D02*
X8326500Y26802500D01*
X8326500Y27402500D01*
X9326500Y27402500D01*
X9326500Y26802500D01*
X9326500Y26802500D01*
G37*
G36*
X15460500Y27033000D02*
X12860500Y27033000D01*
X12860500Y28133000D01*
X15460500Y28133000D01*
X15460500Y27033000D01*
X15460500Y27033000D01*
G37*
G36*
X20487000Y27628000D02*
X19137000Y27628000D01*
X19137000Y28728000D01*
X20487000Y28728000D01*
X20487000Y27628000D01*
X20487000Y27628000D01*
G37*
G36*
X9449500Y28202500D02*
X8289500Y28202500D01*
X8289500Y28952500D01*
X9449500Y28952500D01*
X9449500Y28202500D01*
X9449500Y28202500D01*
G37*
G36*
X11649500Y28202500D02*
X10489500Y28202500D01*
X10489500Y28952500D01*
X11649500Y28952500D01*
X11649500Y28202500D01*
X11649500Y28202500D01*
G37*
G36*
X17375500Y28263000D02*
X16025500Y28263000D01*
X16025500Y29363000D01*
X17375500Y29363000D01*
X17375500Y28263000D01*
X17375500Y28263000D01*
G37*
G36*
X7765000Y28481500D02*
X6665000Y28481500D01*
X6665000Y31081500D01*
X7765000Y31081500D01*
X7765000Y28481500D01*
X7765000Y28481500D01*
G37*
G36*
X4765000Y28481500D02*
X3665000Y28481500D01*
X3665000Y31081500D01*
X4765000Y31081500D01*
X4765000Y28481500D01*
X4765000Y28481500D01*
G37*
G36*
X11649500Y29152500D02*
X10489500Y29152500D01*
X10489500Y29902500D01*
X11649500Y29902500D01*
X11649500Y29152500D01*
X11649500Y29152500D01*
G37*
G36*
X9449500Y29152500D02*
X8289500Y29152500D01*
X8289500Y29902500D01*
X9449500Y29902500D01*
X9449500Y29152500D01*
X9449500Y29152500D01*
G37*
G36*
X18195000Y29980000D02*
X17595000Y29980000D01*
X17595000Y30980000D01*
X18195000Y30980000D01*
X18195000Y29980000D01*
X18195000Y29980000D01*
G37*
G36*
X16695000Y29980000D02*
X16095000Y29980000D01*
X16095000Y30980000D01*
X16695000Y30980000D01*
X16695000Y29980000D01*
X16695000Y29980000D01*
G37*
G36*
X15460500Y30033000D02*
X12860500Y30033000D01*
X12860500Y31133000D01*
X15460500Y31133000D01*
X15460500Y30033000D01*
X15460500Y30033000D01*
G37*
G36*
X11649500Y30102500D02*
X10489500Y30102500D01*
X10489500Y30852500D01*
X11649500Y30852500D01*
X11649500Y30102500D01*
X11649500Y30102500D01*
G37*
G36*
X9449500Y30102500D02*
X8289500Y30102500D01*
X8289500Y30852500D01*
X9449500Y30852500D01*
X9449500Y30102500D01*
X9449500Y30102500D01*
G37*
M02*
