G04 #@! TF.FileFunction,Paste,Top*
%FSLAX46Y46*%
G04 Gerber Fmt 4.6, Leading zero omitted, Abs format (unit mm)*
G04 Created by KiCad (PCBNEW 4.0.6) date Wed Apr  3 14:00:51 2019*
%MOMM*%
%LPD*%
G01*
G04 APERTURE LIST*
%ADD10C,0.100000*%
%ADD11R,1.060000X0.650000*%
%ADD12R,1.000000X2.500000*%
%ADD13R,0.600000X0.400000*%
%ADD14R,1.250000X1.000000*%
%ADD15R,0.450000X1.050000*%
%ADD16R,0.537000X0.882000*%
%ADD17R,0.900000X0.500000*%
%ADD18R,0.800000X0.750000*%
%ADD19R,2.500000X1.000000*%
%ADD20R,0.750000X0.800000*%
%ADD21R,0.500000X0.900000*%
%ADD22R,1.000000X1.250000*%
%ADD23R,1.450000X0.450000*%
%ADD24R,1.200000X1.200000*%
%ADD25R,0.400000X0.600000*%
G04 APERTURE END LIST*
D10*
D11*
X8869500Y30477500D03*
X8869500Y29527500D03*
X8869500Y28577500D03*
X11069500Y28577500D03*
X11069500Y30477500D03*
X11069500Y29527500D03*
D12*
X7215000Y29781500D03*
X4215000Y29781500D03*
D13*
X6858000Y10802200D03*
X6858000Y11702200D03*
D14*
X8420100Y19599400D03*
X8420100Y21599400D03*
D15*
X10069400Y17316400D03*
X10719400Y17316400D03*
X11369400Y17316400D03*
X12019400Y17316400D03*
X12669400Y17316400D03*
X13319400Y17316400D03*
X13969400Y17316400D03*
X14619400Y17316400D03*
X14619400Y22866400D03*
X13969400Y22866400D03*
X13319400Y22866400D03*
X12669400Y22866400D03*
X12019400Y22866400D03*
X11369400Y22866400D03*
X10719400Y22866400D03*
X10069400Y22866400D03*
D16*
X13686900Y20826400D03*
X12791900Y20826400D03*
X11896900Y20826400D03*
X11001900Y20826400D03*
X13686900Y19356400D03*
X12791900Y19356400D03*
X11896900Y19356400D03*
X11001900Y19356400D03*
D17*
X9144000Y15177200D03*
X9144000Y13677200D03*
D18*
X10362500Y26987500D03*
X11862500Y26987500D03*
D19*
X14160500Y30583000D03*
X14160500Y27583000D03*
D14*
X16700500Y28813000D03*
X16700500Y26813000D03*
D12*
X7215000Y26035000D03*
X4215000Y26035000D03*
D20*
X6769100Y19849400D03*
X6769100Y21349400D03*
D13*
X14478000Y11691200D03*
X14478000Y12591200D03*
X6858000Y12580200D03*
X6858000Y13480200D03*
X14478000Y9913200D03*
X14478000Y10813200D03*
D21*
X16395000Y30480000D03*
X17895000Y30480000D03*
D17*
X8826500Y25602500D03*
X8826500Y27102500D03*
X6197600Y17055400D03*
X6197600Y18555400D03*
D22*
X12811000Y14046200D03*
X10811000Y14046200D03*
D23*
X12868000Y10150200D03*
X12868000Y10800200D03*
X12868000Y11450200D03*
X12868000Y12100200D03*
X8468000Y12100200D03*
X8468000Y11450200D03*
X8468000Y10800200D03*
X8468000Y10150200D03*
D14*
X19812000Y26178000D03*
X19812000Y28178000D03*
D17*
X19812000Y23864000D03*
X19812000Y22364000D03*
D19*
X2794000Y12320400D03*
X2794000Y9320400D03*
D12*
X15822800Y8026400D03*
X18822800Y8026400D03*
D14*
X5334000Y9363200D03*
X5334000Y11363200D03*
D22*
X13090400Y8229600D03*
X11090400Y8229600D03*
D24*
X3048000Y17356000D03*
X3048000Y15156000D03*
D13*
X3048000Y18727000D03*
X3048000Y19627000D03*
X6858000Y9949600D03*
X6858000Y9049600D03*
X14478000Y9035200D03*
X14478000Y8135200D03*
X11379200Y25037200D03*
X11379200Y24137200D03*
X10312400Y24137200D03*
X10312400Y25037200D03*
X14528800Y25392800D03*
X14528800Y24492800D03*
X13462000Y24492800D03*
X13462000Y25392800D03*
D25*
X15552000Y23215600D03*
X16452000Y23215600D03*
X15552000Y21767800D03*
X16452000Y21767800D03*
M02*
