G04 #@! TF.FileFunction,Copper,L3,Inr,Plane*
%FSLAX46Y46*%
G04 Gerber Fmt 4.6, Leading zero omitted, Abs format (unit mm)*
G04 Created by KiCad (PCBNEW 4.0.6) date Wed Apr  3 14:00:51 2019*
%MOMM*%
%LPD*%
G01*
G04 APERTURE LIST*
%ADD10C,0.100000*%
%ADD11C,3.000000*%
%ADD12R,1.700000X1.700000*%
%ADD13O,1.700000X1.700000*%
%ADD14C,0.600000*%
%ADD15C,0.250000*%
%ADD16C,0.254000*%
G04 APERTURE END LIST*
D10*
D11*
X17030700Y3238500D03*
X2743200Y6540500D03*
X21132800Y6540500D03*
X6858000Y3238500D03*
X11938000Y3238500D03*
D12*
X21082000Y18796000D03*
D13*
X21082000Y16256000D03*
X21082000Y13716000D03*
X21082000Y11176000D03*
D14*
X8432800Y22504400D03*
X10312400Y25857200D03*
X18034000Y26822400D03*
X12598400Y25400000D03*
X3048000Y13716000D03*
X11480800Y11430000D03*
X12791900Y19356400D03*
X19812000Y29464000D03*
X7874000Y13157200D03*
X14160500Y29083000D03*
X5715000Y26035000D03*
X5715000Y29781500D03*
X13686900Y20826400D03*
X12791900Y20826400D03*
X11896900Y20826400D03*
X11896900Y19356400D03*
X11001900Y19356400D03*
X11001900Y20826400D03*
X12598400Y15849600D03*
X13686900Y19356400D03*
X16459200Y22606000D03*
X19050000Y25222200D03*
X6197600Y16306800D03*
X19050000Y24511000D03*
X19812000Y24485600D03*
X19812000Y25222200D03*
X10515600Y15544800D03*
X17907000Y29286200D03*
X12801600Y12877800D03*
X5740400Y23469600D03*
X12852400Y9499600D03*
X9753600Y10820400D03*
X18948400Y20726400D03*
X15392400Y24231600D03*
X12522200Y24231600D03*
D15*
X21082000Y11176000D02*
X19812000Y12446000D01*
X19812000Y12446000D02*
X19812000Y19862800D01*
X19812000Y19862800D02*
X18948400Y20726400D01*
X15062200Y24231600D02*
X15392400Y24231600D01*
X12522200Y24231600D02*
X15062200Y24231600D01*
D16*
G36*
X20118000Y30074314D02*
X19948054Y30144882D01*
X19677135Y30145118D01*
X19426748Y30041661D01*
X19235013Y29850259D01*
X19131118Y29600054D01*
X19130882Y29329135D01*
X19234339Y29078748D01*
X19425741Y28887013D01*
X19675946Y28783118D01*
X19946865Y28782882D01*
X20118000Y28853593D01*
X20118000Y22987000D01*
X20126762Y22942950D01*
X20126762Y22898039D01*
X20300773Y22023225D01*
X20368861Y21858845D01*
X20368863Y21858843D01*
X20864404Y21117214D01*
X20990214Y20991404D01*
X21731846Y20495861D01*
X21896225Y20427773D01*
X22404000Y20326770D01*
X22404000Y15341600D01*
X21910786Y15341600D01*
X21976565Y15385552D01*
X22243413Y15784917D01*
X22337117Y16256000D01*
X22243413Y16727083D01*
X21976565Y17126448D01*
X21577200Y17393296D01*
X21106117Y17487000D01*
X21057883Y17487000D01*
X20586800Y17393296D01*
X20318000Y17213689D01*
X20318000Y17557536D01*
X21932000Y17557536D01*
X22073190Y17584103D01*
X22202865Y17667546D01*
X22289859Y17794866D01*
X22320464Y17946000D01*
X22320464Y19646000D01*
X22293897Y19787190D01*
X22210454Y19916865D01*
X22083134Y20003859D01*
X21932000Y20034464D01*
X20283854Y20034464D01*
X20279483Y20056438D01*
X20169796Y20220596D01*
X19629431Y20760961D01*
X19629518Y20861265D01*
X19526061Y21111652D01*
X19334659Y21303387D01*
X19084454Y21407282D01*
X18813535Y21407518D01*
X18563148Y21304061D01*
X18371413Y21112659D01*
X18267518Y20862454D01*
X18267282Y20591535D01*
X18370739Y20341148D01*
X18562141Y20149413D01*
X18812346Y20045518D01*
X18913778Y20045430D01*
X19306000Y19653208D01*
X19306000Y15341600D01*
X13053434Y15341600D01*
X13175387Y15463341D01*
X13279282Y15713546D01*
X13279518Y15984465D01*
X13176061Y16234852D01*
X12984659Y16426587D01*
X12734454Y16530482D01*
X12463535Y16530718D01*
X12213148Y16427261D01*
X12021413Y16235859D01*
X11917518Y15985654D01*
X11917282Y15714735D01*
X12020739Y15464348D01*
X12143274Y15341600D01*
X5588000Y15341600D01*
X5588000Y19221535D01*
X10320782Y19221535D01*
X10424239Y18971148D01*
X10615641Y18779413D01*
X10865846Y18675518D01*
X11136765Y18675282D01*
X11387152Y18778739D01*
X11449341Y18840820D01*
X11510641Y18779413D01*
X11760846Y18675518D01*
X12031765Y18675282D01*
X12282152Y18778739D01*
X12344341Y18840820D01*
X12405641Y18779413D01*
X12655846Y18675518D01*
X12926765Y18675282D01*
X13177152Y18778739D01*
X13239341Y18840820D01*
X13300641Y18779413D01*
X13550846Y18675518D01*
X13821765Y18675282D01*
X14072152Y18778739D01*
X14263887Y18970141D01*
X14367782Y19220346D01*
X14368018Y19491265D01*
X14264561Y19741652D01*
X14073159Y19933387D01*
X13822954Y20037282D01*
X13552035Y20037518D01*
X13301648Y19934061D01*
X13239459Y19871980D01*
X13178159Y19933387D01*
X12927954Y20037282D01*
X12657035Y20037518D01*
X12406648Y19934061D01*
X12344459Y19871980D01*
X12283159Y19933387D01*
X12032954Y20037282D01*
X11762035Y20037518D01*
X11511648Y19934061D01*
X11449459Y19871980D01*
X11388159Y19933387D01*
X11137954Y20037282D01*
X10867035Y20037518D01*
X10616648Y19934061D01*
X10424913Y19742659D01*
X10321018Y19492454D01*
X10320782Y19221535D01*
X5588000Y19221535D01*
X5588000Y19846936D01*
X8168719Y20691535D01*
X10320782Y20691535D01*
X10424239Y20441148D01*
X10615641Y20249413D01*
X10865846Y20145518D01*
X11136765Y20145282D01*
X11387152Y20248739D01*
X11449341Y20310820D01*
X11510641Y20249413D01*
X11760846Y20145518D01*
X12031765Y20145282D01*
X12282152Y20248739D01*
X12344341Y20310820D01*
X12405641Y20249413D01*
X12655846Y20145518D01*
X12926765Y20145282D01*
X13177152Y20248739D01*
X13239341Y20310820D01*
X13300641Y20249413D01*
X13550846Y20145518D01*
X13821765Y20145282D01*
X14072152Y20248739D01*
X14263887Y20440141D01*
X14367782Y20690346D01*
X14368018Y20961265D01*
X14264561Y21211652D01*
X14073159Y21403387D01*
X13822954Y21507282D01*
X13552035Y21507518D01*
X13301648Y21404061D01*
X13239459Y21341980D01*
X13178159Y21403387D01*
X12927954Y21507282D01*
X12657035Y21507518D01*
X12406648Y21404061D01*
X12344459Y21341980D01*
X12283159Y21403387D01*
X12032954Y21507282D01*
X11762035Y21507518D01*
X11511648Y21404061D01*
X11449459Y21341980D01*
X11388159Y21403387D01*
X11137954Y21507282D01*
X10867035Y21507518D01*
X10616648Y21404061D01*
X10424913Y21212659D01*
X10321018Y20962454D01*
X10320782Y20691535D01*
X8168719Y20691535D01*
X12485502Y22104300D01*
X12529349Y22129178D01*
X12560063Y22169154D01*
X12573000Y22225000D01*
X12573000Y23550555D01*
X12657065Y23550482D01*
X12907452Y23653939D01*
X12979238Y23725600D01*
X14935277Y23725600D01*
X15006141Y23654613D01*
X15256346Y23550718D01*
X15527265Y23550482D01*
X15777652Y23653939D01*
X15969387Y23845341D01*
X16073282Y24095546D01*
X16073518Y24366465D01*
X15970061Y24616852D01*
X15778659Y24808587D01*
X15528454Y24912482D01*
X15257535Y24912718D01*
X15007148Y24809261D01*
X14935362Y24737600D01*
X12979323Y24737600D01*
X12920698Y24796327D01*
X12983652Y24822339D01*
X13175387Y25013741D01*
X13279282Y25263946D01*
X13279518Y25534865D01*
X13176061Y25785252D01*
X12984659Y25976987D01*
X12734454Y26080882D01*
X12573000Y26081023D01*
X12573000Y26687535D01*
X17352882Y26687535D01*
X17456339Y26437148D01*
X17647741Y26245413D01*
X17897946Y26141518D01*
X18168865Y26141282D01*
X18419252Y26244739D01*
X18610987Y26436141D01*
X18714882Y26686346D01*
X18715118Y26957265D01*
X18611661Y27207652D01*
X18420259Y27399387D01*
X18170054Y27503282D01*
X17899135Y27503518D01*
X17648748Y27400061D01*
X17457013Y27208659D01*
X17353118Y26958454D01*
X17352882Y26687535D01*
X12573000Y26687535D01*
X12573000Y28948135D01*
X13479382Y28948135D01*
X13582839Y28697748D01*
X13774241Y28506013D01*
X14024446Y28402118D01*
X14295365Y28401882D01*
X14545752Y28505339D01*
X14737487Y28696741D01*
X14841382Y28946946D01*
X14841618Y29217865D01*
X14738161Y29468252D01*
X14546759Y29659987D01*
X14296554Y29763882D01*
X14025635Y29764118D01*
X13775248Y29660661D01*
X13583513Y29469259D01*
X13479618Y29219054D01*
X13479382Y28948135D01*
X12573000Y28948135D01*
X12573000Y31369000D01*
X20118000Y31369000D01*
X20118000Y30074314D01*
X20118000Y30074314D01*
G37*
X20118000Y30074314D02*
X19948054Y30144882D01*
X19677135Y30145118D01*
X19426748Y30041661D01*
X19235013Y29850259D01*
X19131118Y29600054D01*
X19130882Y29329135D01*
X19234339Y29078748D01*
X19425741Y28887013D01*
X19675946Y28783118D01*
X19946865Y28782882D01*
X20118000Y28853593D01*
X20118000Y22987000D01*
X20126762Y22942950D01*
X20126762Y22898039D01*
X20300773Y22023225D01*
X20368861Y21858845D01*
X20368863Y21858843D01*
X20864404Y21117214D01*
X20990214Y20991404D01*
X21731846Y20495861D01*
X21896225Y20427773D01*
X22404000Y20326770D01*
X22404000Y15341600D01*
X21910786Y15341600D01*
X21976565Y15385552D01*
X22243413Y15784917D01*
X22337117Y16256000D01*
X22243413Y16727083D01*
X21976565Y17126448D01*
X21577200Y17393296D01*
X21106117Y17487000D01*
X21057883Y17487000D01*
X20586800Y17393296D01*
X20318000Y17213689D01*
X20318000Y17557536D01*
X21932000Y17557536D01*
X22073190Y17584103D01*
X22202865Y17667546D01*
X22289859Y17794866D01*
X22320464Y17946000D01*
X22320464Y19646000D01*
X22293897Y19787190D01*
X22210454Y19916865D01*
X22083134Y20003859D01*
X21932000Y20034464D01*
X20283854Y20034464D01*
X20279483Y20056438D01*
X20169796Y20220596D01*
X19629431Y20760961D01*
X19629518Y20861265D01*
X19526061Y21111652D01*
X19334659Y21303387D01*
X19084454Y21407282D01*
X18813535Y21407518D01*
X18563148Y21304061D01*
X18371413Y21112659D01*
X18267518Y20862454D01*
X18267282Y20591535D01*
X18370739Y20341148D01*
X18562141Y20149413D01*
X18812346Y20045518D01*
X18913778Y20045430D01*
X19306000Y19653208D01*
X19306000Y15341600D01*
X13053434Y15341600D01*
X13175387Y15463341D01*
X13279282Y15713546D01*
X13279518Y15984465D01*
X13176061Y16234852D01*
X12984659Y16426587D01*
X12734454Y16530482D01*
X12463535Y16530718D01*
X12213148Y16427261D01*
X12021413Y16235859D01*
X11917518Y15985654D01*
X11917282Y15714735D01*
X12020739Y15464348D01*
X12143274Y15341600D01*
X5588000Y15341600D01*
X5588000Y19221535D01*
X10320782Y19221535D01*
X10424239Y18971148D01*
X10615641Y18779413D01*
X10865846Y18675518D01*
X11136765Y18675282D01*
X11387152Y18778739D01*
X11449341Y18840820D01*
X11510641Y18779413D01*
X11760846Y18675518D01*
X12031765Y18675282D01*
X12282152Y18778739D01*
X12344341Y18840820D01*
X12405641Y18779413D01*
X12655846Y18675518D01*
X12926765Y18675282D01*
X13177152Y18778739D01*
X13239341Y18840820D01*
X13300641Y18779413D01*
X13550846Y18675518D01*
X13821765Y18675282D01*
X14072152Y18778739D01*
X14263887Y18970141D01*
X14367782Y19220346D01*
X14368018Y19491265D01*
X14264561Y19741652D01*
X14073159Y19933387D01*
X13822954Y20037282D01*
X13552035Y20037518D01*
X13301648Y19934061D01*
X13239459Y19871980D01*
X13178159Y19933387D01*
X12927954Y20037282D01*
X12657035Y20037518D01*
X12406648Y19934061D01*
X12344459Y19871980D01*
X12283159Y19933387D01*
X12032954Y20037282D01*
X11762035Y20037518D01*
X11511648Y19934061D01*
X11449459Y19871980D01*
X11388159Y19933387D01*
X11137954Y20037282D01*
X10867035Y20037518D01*
X10616648Y19934061D01*
X10424913Y19742659D01*
X10321018Y19492454D01*
X10320782Y19221535D01*
X5588000Y19221535D01*
X5588000Y19846936D01*
X8168719Y20691535D01*
X10320782Y20691535D01*
X10424239Y20441148D01*
X10615641Y20249413D01*
X10865846Y20145518D01*
X11136765Y20145282D01*
X11387152Y20248739D01*
X11449341Y20310820D01*
X11510641Y20249413D01*
X11760846Y20145518D01*
X12031765Y20145282D01*
X12282152Y20248739D01*
X12344341Y20310820D01*
X12405641Y20249413D01*
X12655846Y20145518D01*
X12926765Y20145282D01*
X13177152Y20248739D01*
X13239341Y20310820D01*
X13300641Y20249413D01*
X13550846Y20145518D01*
X13821765Y20145282D01*
X14072152Y20248739D01*
X14263887Y20440141D01*
X14367782Y20690346D01*
X14368018Y20961265D01*
X14264561Y21211652D01*
X14073159Y21403387D01*
X13822954Y21507282D01*
X13552035Y21507518D01*
X13301648Y21404061D01*
X13239459Y21341980D01*
X13178159Y21403387D01*
X12927954Y21507282D01*
X12657035Y21507518D01*
X12406648Y21404061D01*
X12344459Y21341980D01*
X12283159Y21403387D01*
X12032954Y21507282D01*
X11762035Y21507518D01*
X11511648Y21404061D01*
X11449459Y21341980D01*
X11388159Y21403387D01*
X11137954Y21507282D01*
X10867035Y21507518D01*
X10616648Y21404061D01*
X10424913Y21212659D01*
X10321018Y20962454D01*
X10320782Y20691535D01*
X8168719Y20691535D01*
X12485502Y22104300D01*
X12529349Y22129178D01*
X12560063Y22169154D01*
X12573000Y22225000D01*
X12573000Y23550555D01*
X12657065Y23550482D01*
X12907452Y23653939D01*
X12979238Y23725600D01*
X14935277Y23725600D01*
X15006141Y23654613D01*
X15256346Y23550718D01*
X15527265Y23550482D01*
X15777652Y23653939D01*
X15969387Y23845341D01*
X16073282Y24095546D01*
X16073518Y24366465D01*
X15970061Y24616852D01*
X15778659Y24808587D01*
X15528454Y24912482D01*
X15257535Y24912718D01*
X15007148Y24809261D01*
X14935362Y24737600D01*
X12979323Y24737600D01*
X12920698Y24796327D01*
X12983652Y24822339D01*
X13175387Y25013741D01*
X13279282Y25263946D01*
X13279518Y25534865D01*
X13176061Y25785252D01*
X12984659Y25976987D01*
X12734454Y26080882D01*
X12573000Y26081023D01*
X12573000Y26687535D01*
X17352882Y26687535D01*
X17456339Y26437148D01*
X17647741Y26245413D01*
X17897946Y26141518D01*
X18168865Y26141282D01*
X18419252Y26244739D01*
X18610987Y26436141D01*
X18714882Y26686346D01*
X18715118Y26957265D01*
X18611661Y27207652D01*
X18420259Y27399387D01*
X18170054Y27503282D01*
X17899135Y27503518D01*
X17648748Y27400061D01*
X17457013Y27208659D01*
X17353118Y26958454D01*
X17352882Y26687535D01*
X12573000Y26687535D01*
X12573000Y28948135D01*
X13479382Y28948135D01*
X13582839Y28697748D01*
X13774241Y28506013D01*
X14024446Y28402118D01*
X14295365Y28401882D01*
X14545752Y28505339D01*
X14737487Y28696741D01*
X14841382Y28946946D01*
X14841618Y29217865D01*
X14738161Y29468252D01*
X14546759Y29659987D01*
X14296554Y29763882D01*
X14025635Y29764118D01*
X13775248Y29660661D01*
X13583513Y29469259D01*
X13479618Y29219054D01*
X13479382Y28948135D01*
X12573000Y28948135D01*
X12573000Y31369000D01*
X20118000Y31369000D01*
X20118000Y30074314D01*
G36*
X11811000Y22570537D02*
X5039839Y20313483D01*
X4996129Y20288366D01*
X4965634Y20248221D01*
X4953000Y20193000D01*
X4953000Y14884400D01*
X4963006Y14834990D01*
X4991447Y14793365D01*
X5033841Y14766085D01*
X5080000Y14757400D01*
X19306000Y14757400D01*
X19306000Y12446000D01*
X19344517Y12252362D01*
X19454204Y12088204D01*
X19916396Y11626012D01*
X19826883Y11176000D01*
X19920587Y10704917D01*
X20187435Y10305552D01*
X20586800Y10038704D01*
X21057883Y9945000D01*
X21106117Y9945000D01*
X21577200Y10038704D01*
X21976565Y10305552D01*
X22243413Y10704917D01*
X22337117Y11176000D01*
X22243413Y11647083D01*
X21976565Y12046448D01*
X21577200Y12313296D01*
X21106117Y12407000D01*
X21057883Y12407000D01*
X20648102Y12325490D01*
X20318000Y12655592D01*
X20318000Y12758311D01*
X20586800Y12578704D01*
X21057883Y12485000D01*
X21106117Y12485000D01*
X21577200Y12578704D01*
X21976565Y12845552D01*
X22243413Y13244917D01*
X22337117Y13716000D01*
X22243413Y14187083D01*
X21976565Y14586448D01*
X21720718Y14757400D01*
X22404000Y14757400D01*
X22404000Y8712200D01*
X1472000Y8712200D01*
X1472000Y9364735D01*
X12171282Y9364735D01*
X12274739Y9114348D01*
X12466141Y8922613D01*
X12716346Y8818718D01*
X12987265Y8818482D01*
X13237652Y8921939D01*
X13429387Y9113341D01*
X13533282Y9363546D01*
X13533518Y9634465D01*
X13430061Y9884852D01*
X13238659Y10076587D01*
X12988454Y10180482D01*
X12717535Y10180718D01*
X12467148Y10077261D01*
X12275413Y9885859D01*
X12171518Y9635654D01*
X12171282Y9364735D01*
X1472000Y9364735D01*
X1472000Y10685535D01*
X9072482Y10685535D01*
X9175939Y10435148D01*
X9367341Y10243413D01*
X9617546Y10139518D01*
X9888465Y10139282D01*
X10138852Y10242739D01*
X10330587Y10434141D01*
X10434482Y10684346D01*
X10434718Y10955265D01*
X10331261Y11205652D01*
X10241934Y11295135D01*
X10799682Y11295135D01*
X10903139Y11044748D01*
X11094541Y10853013D01*
X11344746Y10749118D01*
X11615665Y10748882D01*
X11866052Y10852339D01*
X12057787Y11043741D01*
X12161682Y11293946D01*
X12161918Y11564865D01*
X12058461Y11815252D01*
X11867059Y12006987D01*
X11616854Y12110882D01*
X11345935Y12111118D01*
X11095548Y12007661D01*
X10903813Y11816259D01*
X10799918Y11566054D01*
X10799682Y11295135D01*
X10241934Y11295135D01*
X10139859Y11397387D01*
X9889654Y11501282D01*
X9618735Y11501518D01*
X9368348Y11398061D01*
X9176613Y11206659D01*
X9072718Y10956454D01*
X9072482Y10685535D01*
X1472000Y10685535D01*
X1472000Y13022335D01*
X7192882Y13022335D01*
X7296339Y12771948D01*
X7487741Y12580213D01*
X7737946Y12476318D01*
X8008865Y12476082D01*
X8259252Y12579539D01*
X8450987Y12770941D01*
X8554882Y13021146D01*
X8555118Y13292065D01*
X8451661Y13542452D01*
X8260259Y13734187D01*
X8010054Y13838082D01*
X7739135Y13838318D01*
X7488748Y13734861D01*
X7297013Y13543459D01*
X7193118Y13293254D01*
X7192882Y13022335D01*
X1472000Y13022335D01*
X1472000Y13581135D01*
X2366882Y13581135D01*
X2470339Y13330748D01*
X2661741Y13139013D01*
X2911946Y13035118D01*
X3182865Y13034882D01*
X3433252Y13138339D01*
X3624987Y13329741D01*
X3728882Y13579946D01*
X3729118Y13850865D01*
X3625661Y14101252D01*
X3434259Y14292987D01*
X3184054Y14396882D01*
X2913135Y14397118D01*
X2662748Y14293661D01*
X2471013Y14102259D01*
X2367118Y13852054D01*
X2366882Y13581135D01*
X1472000Y13581135D01*
X1472000Y20326770D01*
X1979775Y20427773D01*
X2144155Y20495861D01*
X2144157Y20495863D01*
X2885786Y20991404D01*
X3011596Y21117214D01*
X3507139Y21858846D01*
X3575227Y22023225D01*
X3749238Y22898039D01*
X3749238Y22942950D01*
X3758000Y22987000D01*
X3758000Y25900135D01*
X5033882Y25900135D01*
X5137339Y25649748D01*
X5328741Y25458013D01*
X5578946Y25354118D01*
X5849865Y25353882D01*
X6100252Y25457339D01*
X6291987Y25648741D01*
X6322546Y25722335D01*
X9631282Y25722335D01*
X9734739Y25471948D01*
X9926141Y25280213D01*
X10176346Y25176318D01*
X10447265Y25176082D01*
X10697652Y25279539D01*
X10889387Y25470941D01*
X10993282Y25721146D01*
X10993518Y25992065D01*
X10890061Y26242452D01*
X10698659Y26434187D01*
X10448454Y26538082D01*
X10177535Y26538318D01*
X9927148Y26434861D01*
X9735413Y26243459D01*
X9631518Y25993254D01*
X9631282Y25722335D01*
X6322546Y25722335D01*
X6395882Y25898946D01*
X6396118Y26169865D01*
X6292661Y26420252D01*
X6101259Y26611987D01*
X5851054Y26715882D01*
X5580135Y26716118D01*
X5329748Y26612661D01*
X5138013Y26421259D01*
X5034118Y26171054D01*
X5033882Y25900135D01*
X3758000Y25900135D01*
X3758000Y29646635D01*
X5033882Y29646635D01*
X5137339Y29396248D01*
X5328741Y29204513D01*
X5578946Y29100618D01*
X5849865Y29100382D01*
X6100252Y29203839D01*
X6291987Y29395241D01*
X6395882Y29645446D01*
X6396118Y29916365D01*
X6292661Y30166752D01*
X6101259Y30358487D01*
X5851054Y30462382D01*
X5580135Y30462618D01*
X5329748Y30359161D01*
X5138013Y30167759D01*
X5034118Y29917554D01*
X5033882Y29646635D01*
X3758000Y29646635D01*
X3758000Y31369000D01*
X11811000Y31369000D01*
X11811000Y22570537D01*
X11811000Y22570537D01*
G37*
X11811000Y22570537D02*
X5039839Y20313483D01*
X4996129Y20288366D01*
X4965634Y20248221D01*
X4953000Y20193000D01*
X4953000Y14884400D01*
X4963006Y14834990D01*
X4991447Y14793365D01*
X5033841Y14766085D01*
X5080000Y14757400D01*
X19306000Y14757400D01*
X19306000Y12446000D01*
X19344517Y12252362D01*
X19454204Y12088204D01*
X19916396Y11626012D01*
X19826883Y11176000D01*
X19920587Y10704917D01*
X20187435Y10305552D01*
X20586800Y10038704D01*
X21057883Y9945000D01*
X21106117Y9945000D01*
X21577200Y10038704D01*
X21976565Y10305552D01*
X22243413Y10704917D01*
X22337117Y11176000D01*
X22243413Y11647083D01*
X21976565Y12046448D01*
X21577200Y12313296D01*
X21106117Y12407000D01*
X21057883Y12407000D01*
X20648102Y12325490D01*
X20318000Y12655592D01*
X20318000Y12758311D01*
X20586800Y12578704D01*
X21057883Y12485000D01*
X21106117Y12485000D01*
X21577200Y12578704D01*
X21976565Y12845552D01*
X22243413Y13244917D01*
X22337117Y13716000D01*
X22243413Y14187083D01*
X21976565Y14586448D01*
X21720718Y14757400D01*
X22404000Y14757400D01*
X22404000Y8712200D01*
X1472000Y8712200D01*
X1472000Y9364735D01*
X12171282Y9364735D01*
X12274739Y9114348D01*
X12466141Y8922613D01*
X12716346Y8818718D01*
X12987265Y8818482D01*
X13237652Y8921939D01*
X13429387Y9113341D01*
X13533282Y9363546D01*
X13533518Y9634465D01*
X13430061Y9884852D01*
X13238659Y10076587D01*
X12988454Y10180482D01*
X12717535Y10180718D01*
X12467148Y10077261D01*
X12275413Y9885859D01*
X12171518Y9635654D01*
X12171282Y9364735D01*
X1472000Y9364735D01*
X1472000Y10685535D01*
X9072482Y10685535D01*
X9175939Y10435148D01*
X9367341Y10243413D01*
X9617546Y10139518D01*
X9888465Y10139282D01*
X10138852Y10242739D01*
X10330587Y10434141D01*
X10434482Y10684346D01*
X10434718Y10955265D01*
X10331261Y11205652D01*
X10241934Y11295135D01*
X10799682Y11295135D01*
X10903139Y11044748D01*
X11094541Y10853013D01*
X11344746Y10749118D01*
X11615665Y10748882D01*
X11866052Y10852339D01*
X12057787Y11043741D01*
X12161682Y11293946D01*
X12161918Y11564865D01*
X12058461Y11815252D01*
X11867059Y12006987D01*
X11616854Y12110882D01*
X11345935Y12111118D01*
X11095548Y12007661D01*
X10903813Y11816259D01*
X10799918Y11566054D01*
X10799682Y11295135D01*
X10241934Y11295135D01*
X10139859Y11397387D01*
X9889654Y11501282D01*
X9618735Y11501518D01*
X9368348Y11398061D01*
X9176613Y11206659D01*
X9072718Y10956454D01*
X9072482Y10685535D01*
X1472000Y10685535D01*
X1472000Y13022335D01*
X7192882Y13022335D01*
X7296339Y12771948D01*
X7487741Y12580213D01*
X7737946Y12476318D01*
X8008865Y12476082D01*
X8259252Y12579539D01*
X8450987Y12770941D01*
X8554882Y13021146D01*
X8555118Y13292065D01*
X8451661Y13542452D01*
X8260259Y13734187D01*
X8010054Y13838082D01*
X7739135Y13838318D01*
X7488748Y13734861D01*
X7297013Y13543459D01*
X7193118Y13293254D01*
X7192882Y13022335D01*
X1472000Y13022335D01*
X1472000Y13581135D01*
X2366882Y13581135D01*
X2470339Y13330748D01*
X2661741Y13139013D01*
X2911946Y13035118D01*
X3182865Y13034882D01*
X3433252Y13138339D01*
X3624987Y13329741D01*
X3728882Y13579946D01*
X3729118Y13850865D01*
X3625661Y14101252D01*
X3434259Y14292987D01*
X3184054Y14396882D01*
X2913135Y14397118D01*
X2662748Y14293661D01*
X2471013Y14102259D01*
X2367118Y13852054D01*
X2366882Y13581135D01*
X1472000Y13581135D01*
X1472000Y20326770D01*
X1979775Y20427773D01*
X2144155Y20495861D01*
X2144157Y20495863D01*
X2885786Y20991404D01*
X3011596Y21117214D01*
X3507139Y21858846D01*
X3575227Y22023225D01*
X3749238Y22898039D01*
X3749238Y22942950D01*
X3758000Y22987000D01*
X3758000Y25900135D01*
X5033882Y25900135D01*
X5137339Y25649748D01*
X5328741Y25458013D01*
X5578946Y25354118D01*
X5849865Y25353882D01*
X6100252Y25457339D01*
X6291987Y25648741D01*
X6322546Y25722335D01*
X9631282Y25722335D01*
X9734739Y25471948D01*
X9926141Y25280213D01*
X10176346Y25176318D01*
X10447265Y25176082D01*
X10697652Y25279539D01*
X10889387Y25470941D01*
X10993282Y25721146D01*
X10993518Y25992065D01*
X10890061Y26242452D01*
X10698659Y26434187D01*
X10448454Y26538082D01*
X10177535Y26538318D01*
X9927148Y26434861D01*
X9735413Y26243459D01*
X9631518Y25993254D01*
X9631282Y25722335D01*
X6322546Y25722335D01*
X6395882Y25898946D01*
X6396118Y26169865D01*
X6292661Y26420252D01*
X6101259Y26611987D01*
X5851054Y26715882D01*
X5580135Y26716118D01*
X5329748Y26612661D01*
X5138013Y26421259D01*
X5034118Y26171054D01*
X5033882Y25900135D01*
X3758000Y25900135D01*
X3758000Y29646635D01*
X5033882Y29646635D01*
X5137339Y29396248D01*
X5328741Y29204513D01*
X5578946Y29100618D01*
X5849865Y29100382D01*
X6100252Y29203839D01*
X6291987Y29395241D01*
X6395882Y29645446D01*
X6396118Y29916365D01*
X6292661Y30166752D01*
X6101259Y30358487D01*
X5851054Y30462382D01*
X5580135Y30462618D01*
X5329748Y30359161D01*
X5138013Y30167759D01*
X5034118Y29917554D01*
X5033882Y29646635D01*
X3758000Y29646635D01*
X3758000Y31369000D01*
X11811000Y31369000D01*
X11811000Y22570537D01*
M02*
