G04 #@! TF.GenerationSoftware,KiCad,Pcbnew,5.1.5-52549c5~84~ubuntu18.04.1*
G04 #@! TF.CreationDate,2019-12-01T16:37:40+01:00*
G04 #@! TF.ProjectId,power_control_ipe_v1,706f7765-725f-4636-9f6e-74726f6c5f69,rev?*
G04 #@! TF.SameCoordinates,Original*
G04 #@! TF.FileFunction,Legend,Top*
G04 #@! TF.FilePolarity,Positive*
%FSLAX46Y46*%
G04 Gerber Fmt 4.6, Leading zero omitted, Abs format (unit mm)*
G04 Created by KiCad (PCBNEW 5.1.5-52549c5~84~ubuntu18.04.1) date 2019-12-01 16:37:40*
%MOMM*%
%LPD*%
G04 APERTURE LIST*
%ADD10C,0.300000*%
%ADD11C,0.175000*%
%ADD12C,0.150000*%
%ADD13C,0.100000*%
%ADD14C,0.250000*%
%ADD15C,0.075000*%
%ADD16C,0.120000*%
%ADD17C,0.152400*%
G04 APERTURE END LIST*
D10*
X237594485Y-160292171D02*
X237594485Y-158792171D01*
X238451628Y-160292171D02*
X237808771Y-159435028D01*
X238451628Y-158792171D02*
X237594485Y-159649314D01*
X239094485Y-160292171D02*
X239094485Y-158792171D01*
X239594485Y-158792171D02*
X240451628Y-158792171D01*
X240023057Y-160292171D02*
X240023057Y-158792171D01*
X240951628Y-159720742D02*
X242094485Y-159720742D01*
X242808771Y-160292171D02*
X242808771Y-158792171D01*
X243523057Y-160292171D02*
X243523057Y-158792171D01*
X244094485Y-158792171D01*
X244237342Y-158863600D01*
X244308771Y-158935028D01*
X244380200Y-159077885D01*
X244380200Y-159292171D01*
X244308771Y-159435028D01*
X244237342Y-159506457D01*
X244094485Y-159577885D01*
X243523057Y-159577885D01*
X245023057Y-159506457D02*
X245523057Y-159506457D01*
X245737342Y-160292171D02*
X245023057Y-160292171D01*
X245023057Y-158792171D01*
X245737342Y-158792171D01*
D11*
X236996866Y-157644266D02*
X236996866Y-156944266D01*
X237296866Y-157010933D02*
X237330200Y-156977600D01*
X237396866Y-156944266D01*
X237563533Y-156944266D01*
X237630200Y-156977600D01*
X237663533Y-157010933D01*
X237696866Y-157077600D01*
X237696866Y-157144266D01*
X237663533Y-157244266D01*
X237263533Y-157644266D01*
X237696866Y-157644266D01*
X238396866Y-157577600D02*
X238363533Y-157610933D01*
X238263533Y-157644266D01*
X238196866Y-157644266D01*
X238096866Y-157610933D01*
X238030200Y-157544266D01*
X237996866Y-157477600D01*
X237963533Y-157344266D01*
X237963533Y-157244266D01*
X237996866Y-157110933D01*
X238030200Y-157044266D01*
X238096866Y-156977600D01*
X238196866Y-156944266D01*
X238263533Y-156944266D01*
X238363533Y-156977600D01*
X238396866Y-157010933D01*
X239630200Y-157577600D02*
X239596866Y-157610933D01*
X239496866Y-157644266D01*
X239430200Y-157644266D01*
X239330200Y-157610933D01*
X239263533Y-157544266D01*
X239230200Y-157477600D01*
X239196866Y-157344266D01*
X239196866Y-157244266D01*
X239230200Y-157110933D01*
X239263533Y-157044266D01*
X239330200Y-156977600D01*
X239430200Y-156944266D01*
X239496866Y-156944266D01*
X239596866Y-156977600D01*
X239630200Y-157010933D01*
X240030200Y-157644266D02*
X239963533Y-157610933D01*
X239930200Y-157577600D01*
X239896866Y-157510933D01*
X239896866Y-157310933D01*
X239930200Y-157244266D01*
X239963533Y-157210933D01*
X240030200Y-157177600D01*
X240130200Y-157177600D01*
X240196866Y-157210933D01*
X240230200Y-157244266D01*
X240263533Y-157310933D01*
X240263533Y-157510933D01*
X240230200Y-157577600D01*
X240196866Y-157610933D01*
X240130200Y-157644266D01*
X240030200Y-157644266D01*
X240563533Y-157177600D02*
X240563533Y-157644266D01*
X240563533Y-157244266D02*
X240596866Y-157210933D01*
X240663533Y-157177600D01*
X240763533Y-157177600D01*
X240830200Y-157210933D01*
X240863533Y-157277600D01*
X240863533Y-157644266D01*
X241096866Y-157177600D02*
X241363533Y-157177600D01*
X241196866Y-156944266D02*
X241196866Y-157544266D01*
X241230200Y-157610933D01*
X241296866Y-157644266D01*
X241363533Y-157644266D01*
X241596866Y-157644266D02*
X241596866Y-157177600D01*
X241596866Y-157310933D02*
X241630200Y-157244266D01*
X241663533Y-157210933D01*
X241730200Y-157177600D01*
X241796866Y-157177600D01*
X242130200Y-157644266D02*
X242063533Y-157610933D01*
X242030200Y-157577600D01*
X241996866Y-157510933D01*
X241996866Y-157310933D01*
X242030200Y-157244266D01*
X242063533Y-157210933D01*
X242130200Y-157177600D01*
X242230200Y-157177600D01*
X242296866Y-157210933D01*
X242330200Y-157244266D01*
X242363533Y-157310933D01*
X242363533Y-157510933D01*
X242330200Y-157577600D01*
X242296866Y-157610933D01*
X242230200Y-157644266D01*
X242130200Y-157644266D01*
X242763533Y-157644266D02*
X242696866Y-157610933D01*
X242663533Y-157544266D01*
X242663533Y-156944266D01*
X243796866Y-157277600D02*
X243896866Y-157310933D01*
X243930200Y-157344266D01*
X243963533Y-157410933D01*
X243963533Y-157510933D01*
X243930200Y-157577600D01*
X243896866Y-157610933D01*
X243830200Y-157644266D01*
X243563533Y-157644266D01*
X243563533Y-156944266D01*
X243796866Y-156944266D01*
X243863533Y-156977600D01*
X243896866Y-157010933D01*
X243930200Y-157077600D01*
X243930200Y-157144266D01*
X243896866Y-157210933D01*
X243863533Y-157244266D01*
X243796866Y-157277600D01*
X243563533Y-157277600D01*
X244363533Y-157644266D02*
X244296866Y-157610933D01*
X244263533Y-157577600D01*
X244230200Y-157510933D01*
X244230200Y-157310933D01*
X244263533Y-157244266D01*
X244296866Y-157210933D01*
X244363533Y-157177600D01*
X244463533Y-157177600D01*
X244530200Y-157210933D01*
X244563533Y-157244266D01*
X244596866Y-157310933D01*
X244596866Y-157510933D01*
X244563533Y-157577600D01*
X244530200Y-157610933D01*
X244463533Y-157644266D01*
X244363533Y-157644266D01*
X245196866Y-157644266D02*
X245196866Y-157277600D01*
X245163533Y-157210933D01*
X245096866Y-157177600D01*
X244963533Y-157177600D01*
X244896866Y-157210933D01*
X245196866Y-157610933D02*
X245130200Y-157644266D01*
X244963533Y-157644266D01*
X244896866Y-157610933D01*
X244863533Y-157544266D01*
X244863533Y-157477600D01*
X244896866Y-157410933D01*
X244963533Y-157377600D01*
X245130200Y-157377600D01*
X245196866Y-157344266D01*
X245530200Y-157644266D02*
X245530200Y-157177600D01*
X245530200Y-157310933D02*
X245563533Y-157244266D01*
X245596866Y-157210933D01*
X245663533Y-157177600D01*
X245730200Y-157177600D01*
X246263533Y-157644266D02*
X246263533Y-156944266D01*
X246263533Y-157610933D02*
X246196866Y-157644266D01*
X246063533Y-157644266D01*
X245996866Y-157610933D01*
X245963533Y-157577600D01*
X245930200Y-157510933D01*
X245930200Y-157310933D01*
X245963533Y-157244266D01*
X245996866Y-157210933D01*
X246063533Y-157177600D01*
X246196866Y-157177600D01*
X246263533Y-157210933D01*
D12*
X190385723Y-153731980D02*
X189909533Y-153731980D01*
X189861914Y-154208171D01*
X189909533Y-154160552D01*
X190004771Y-154112933D01*
X190242866Y-154112933D01*
X190338104Y-154160552D01*
X190385723Y-154208171D01*
X190433342Y-154303409D01*
X190433342Y-154541504D01*
X190385723Y-154636742D01*
X190338104Y-154684361D01*
X190242866Y-154731980D01*
X190004771Y-154731980D01*
X189909533Y-154684361D01*
X189861914Y-154636742D01*
X190719057Y-153731980D02*
X191052390Y-154731980D01*
X191385723Y-153731980D01*
X188480866Y-142031980D02*
X187909438Y-142031980D01*
X188195152Y-142031980D02*
X188195152Y-141031980D01*
X188099914Y-141174838D01*
X188004676Y-141270076D01*
X187909438Y-141317695D01*
X189385628Y-141031980D02*
X188909438Y-141031980D01*
X188861819Y-141508171D01*
X188909438Y-141460552D01*
X189004676Y-141412933D01*
X189242771Y-141412933D01*
X189338009Y-141460552D01*
X189385628Y-141508171D01*
X189433247Y-141603409D01*
X189433247Y-141841504D01*
X189385628Y-141936742D01*
X189338009Y-141984361D01*
X189242771Y-142031980D01*
X189004676Y-142031980D01*
X188909438Y-141984361D01*
X188861819Y-141936742D01*
X189861819Y-141936742D02*
X189909438Y-141984361D01*
X189861819Y-142031980D01*
X189814200Y-141984361D01*
X189861819Y-141936742D01*
X189861819Y-142031980D01*
X190814200Y-141031980D02*
X190338009Y-141031980D01*
X190290390Y-141508171D01*
X190338009Y-141460552D01*
X190433247Y-141412933D01*
X190671342Y-141412933D01*
X190766580Y-141460552D01*
X190814200Y-141508171D01*
X190861819Y-141603409D01*
X190861819Y-141841504D01*
X190814200Y-141936742D01*
X190766580Y-141984361D01*
X190671342Y-142031980D01*
X190433247Y-142031980D01*
X190338009Y-141984361D01*
X190290390Y-141936742D01*
X191147533Y-141031980D02*
X191480866Y-142031980D01*
X191814200Y-141031980D01*
X188734866Y-129839980D02*
X188163438Y-129839980D01*
X188449152Y-129839980D02*
X188449152Y-128839980D01*
X188353914Y-128982838D01*
X188258676Y-129078076D01*
X188163438Y-129125695D01*
X189115819Y-128935219D02*
X189163438Y-128887600D01*
X189258676Y-128839980D01*
X189496771Y-128839980D01*
X189592009Y-128887600D01*
X189639628Y-128935219D01*
X189687247Y-129030457D01*
X189687247Y-129125695D01*
X189639628Y-129268552D01*
X189068200Y-129839980D01*
X189687247Y-129839980D01*
X190115819Y-129744742D02*
X190163438Y-129792361D01*
X190115819Y-129839980D01*
X190068200Y-129792361D01*
X190115819Y-129744742D01*
X190115819Y-129839980D01*
X191068200Y-128839980D02*
X190592009Y-128839980D01*
X190544390Y-129316171D01*
X190592009Y-129268552D01*
X190687247Y-129220933D01*
X190925342Y-129220933D01*
X191020580Y-129268552D01*
X191068200Y-129316171D01*
X191115819Y-129411409D01*
X191115819Y-129649504D01*
X191068200Y-129744742D01*
X191020580Y-129792361D01*
X190925342Y-129839980D01*
X190687247Y-129839980D01*
X190592009Y-129792361D01*
X190544390Y-129744742D01*
X191401533Y-128839980D02*
X191734866Y-129839980D01*
X192068200Y-128839980D01*
X189925438Y-116393980D02*
X189449247Y-116393980D01*
X189401628Y-116870171D01*
X189449247Y-116822552D01*
X189544485Y-116774933D01*
X189782580Y-116774933D01*
X189877819Y-116822552D01*
X189925438Y-116870171D01*
X189973057Y-116965409D01*
X189973057Y-117203504D01*
X189925438Y-117298742D01*
X189877819Y-117346361D01*
X189782580Y-117393980D01*
X189544485Y-117393980D01*
X189449247Y-117346361D01*
X189401628Y-117298742D01*
X190401628Y-117298742D02*
X190449247Y-117346361D01*
X190401628Y-117393980D01*
X190354009Y-117346361D01*
X190401628Y-117298742D01*
X190401628Y-117393980D01*
X191354009Y-116393980D02*
X190877819Y-116393980D01*
X190830200Y-116870171D01*
X190877819Y-116822552D01*
X190973057Y-116774933D01*
X191211152Y-116774933D01*
X191306390Y-116822552D01*
X191354009Y-116870171D01*
X191401628Y-116965409D01*
X191401628Y-117203504D01*
X191354009Y-117298742D01*
X191306390Y-117346361D01*
X191211152Y-117393980D01*
X190973057Y-117393980D01*
X190877819Y-117346361D01*
X190830200Y-117298742D01*
X191687342Y-116393980D02*
X192020676Y-117393980D01*
X192354009Y-116393980D01*
D11*
X161874200Y-160952933D02*
X161974200Y-160986266D01*
X162140866Y-160986266D01*
X162207533Y-160952933D01*
X162240866Y-160919600D01*
X162274200Y-160852933D01*
X162274200Y-160786266D01*
X162240866Y-160719600D01*
X162207533Y-160686266D01*
X162140866Y-160652933D01*
X162007533Y-160619600D01*
X161940866Y-160586266D01*
X161907533Y-160552933D01*
X161874200Y-160486266D01*
X161874200Y-160419600D01*
X161907533Y-160352933D01*
X161940866Y-160319600D01*
X162007533Y-160286266D01*
X162174200Y-160286266D01*
X162274200Y-160319600D01*
X162574200Y-160286266D02*
X162574200Y-160852933D01*
X162607533Y-160919600D01*
X162640866Y-160952933D01*
X162707533Y-160986266D01*
X162840866Y-160986266D01*
X162907533Y-160952933D01*
X162940866Y-160919600D01*
X162974200Y-160852933D01*
X162974200Y-160286266D01*
X163307533Y-160986266D02*
X163307533Y-160286266D01*
X163574200Y-160286266D01*
X163640866Y-160319600D01*
X163674200Y-160352933D01*
X163707533Y-160419600D01*
X163707533Y-160519600D01*
X163674200Y-160586266D01*
X163640866Y-160619600D01*
X163574200Y-160652933D01*
X163307533Y-160652933D01*
X164007533Y-160986266D02*
X164007533Y-160286266D01*
X164274200Y-160286266D01*
X164340866Y-160319600D01*
X164374200Y-160352933D01*
X164407533Y-160419600D01*
X164407533Y-160519600D01*
X164374200Y-160586266D01*
X164340866Y-160619600D01*
X164274200Y-160652933D01*
X164007533Y-160652933D01*
X165040866Y-160986266D02*
X164707533Y-160986266D01*
X164707533Y-160286266D01*
X165407533Y-160652933D02*
X165407533Y-160986266D01*
X165174200Y-160286266D02*
X165407533Y-160652933D01*
X165640866Y-160286266D01*
X166767533Y-160986266D02*
X166767533Y-160286266D01*
X167034200Y-160286266D01*
X167100866Y-160319600D01*
X167134200Y-160352933D01*
X167167533Y-160419600D01*
X167167533Y-160519600D01*
X167134200Y-160586266D01*
X167100866Y-160619600D01*
X167034200Y-160652933D01*
X166767533Y-160652933D01*
X167834200Y-160319600D02*
X167767533Y-160286266D01*
X167667533Y-160286266D01*
X167567533Y-160319600D01*
X167500866Y-160386266D01*
X167467533Y-160452933D01*
X167434200Y-160586266D01*
X167434200Y-160686266D01*
X167467533Y-160819600D01*
X167500866Y-160886266D01*
X167567533Y-160952933D01*
X167667533Y-160986266D01*
X167734200Y-160986266D01*
X167834200Y-160952933D01*
X167867533Y-160919600D01*
X167867533Y-160686266D01*
X167734200Y-160686266D01*
X168300866Y-160286266D02*
X168434200Y-160286266D01*
X168500866Y-160319600D01*
X168567533Y-160386266D01*
X168600866Y-160519600D01*
X168600866Y-160752933D01*
X168567533Y-160886266D01*
X168500866Y-160952933D01*
X168434200Y-160986266D01*
X168300866Y-160986266D01*
X168234200Y-160952933D01*
X168167533Y-160886266D01*
X168134200Y-160752933D01*
X168134200Y-160519600D01*
X168167533Y-160386266D01*
X168234200Y-160319600D01*
X168300866Y-160286266D01*
X169034200Y-160286266D02*
X169167533Y-160286266D01*
X169234200Y-160319600D01*
X169300866Y-160386266D01*
X169334200Y-160519600D01*
X169334200Y-160752933D01*
X169300866Y-160886266D01*
X169234200Y-160952933D01*
X169167533Y-160986266D01*
X169034200Y-160986266D01*
X168967533Y-160952933D01*
X168900866Y-160886266D01*
X168867533Y-160752933D01*
X168867533Y-160519600D01*
X168900866Y-160386266D01*
X168967533Y-160319600D01*
X169034200Y-160286266D01*
X169634200Y-160986266D02*
X169634200Y-160286266D01*
X169800866Y-160286266D01*
X169900866Y-160319600D01*
X169967533Y-160386266D01*
X170000866Y-160452933D01*
X170034200Y-160586266D01*
X170034200Y-160686266D01*
X170000866Y-160819600D01*
X169967533Y-160886266D01*
X169900866Y-160952933D01*
X169800866Y-160986266D01*
X169634200Y-160986266D01*
D13*
X228175152Y-104329600D02*
X228222771Y-104353409D01*
X228294200Y-104353409D01*
X228365628Y-104329600D01*
X228413247Y-104281980D01*
X228437057Y-104234361D01*
X228460866Y-104139123D01*
X228460866Y-104067695D01*
X228437057Y-103972457D01*
X228413247Y-103924838D01*
X228365628Y-103877219D01*
X228294200Y-103853409D01*
X228246580Y-103853409D01*
X228175152Y-103877219D01*
X228151342Y-103901028D01*
X228151342Y-104067695D01*
X228246580Y-104067695D01*
X227937057Y-103853409D02*
X227937057Y-104353409D01*
X227651342Y-103853409D01*
X227651342Y-104353409D01*
X227413247Y-103853409D02*
X227413247Y-104353409D01*
X227294200Y-104353409D01*
X227222771Y-104329600D01*
X227175152Y-104281980D01*
X227151342Y-104234361D01*
X227127533Y-104139123D01*
X227127533Y-104067695D01*
X227151342Y-103972457D01*
X227175152Y-103924838D01*
X227222771Y-103877219D01*
X227294200Y-103853409D01*
X227413247Y-103853409D01*
X226102295Y-104313409D02*
X225792771Y-104313409D01*
X225959438Y-104122933D01*
X225888009Y-104122933D01*
X225840390Y-104099123D01*
X225816580Y-104075314D01*
X225792771Y-104027695D01*
X225792771Y-103908647D01*
X225816580Y-103861028D01*
X225840390Y-103837219D01*
X225888009Y-103813409D01*
X226030866Y-103813409D01*
X226078485Y-103837219D01*
X226102295Y-103861028D01*
X225578485Y-103861028D02*
X225554676Y-103837219D01*
X225578485Y-103813409D01*
X225602295Y-103837219D01*
X225578485Y-103861028D01*
X225578485Y-103813409D01*
X225388009Y-104313409D02*
X225078485Y-104313409D01*
X225245152Y-104122933D01*
X225173723Y-104122933D01*
X225126104Y-104099123D01*
X225102295Y-104075314D01*
X225078485Y-104027695D01*
X225078485Y-103908647D01*
X225102295Y-103861028D01*
X225126104Y-103837219D01*
X225173723Y-103813409D01*
X225316580Y-103813409D01*
X225364200Y-103837219D01*
X225388009Y-103861028D01*
X224935628Y-104313409D02*
X224768961Y-103813409D01*
X224602295Y-104313409D01*
X223309438Y-103817219D02*
X223238009Y-103793409D01*
X223118961Y-103793409D01*
X223071342Y-103817219D01*
X223047533Y-103841028D01*
X223023723Y-103888647D01*
X223023723Y-103936266D01*
X223047533Y-103983885D01*
X223071342Y-104007695D01*
X223118961Y-104031504D01*
X223214200Y-104055314D01*
X223261819Y-104079123D01*
X223285628Y-104102933D01*
X223309438Y-104150552D01*
X223309438Y-104198171D01*
X223285628Y-104245790D01*
X223261819Y-104269600D01*
X223214200Y-104293409D01*
X223095152Y-104293409D01*
X223023723Y-104269600D01*
X222523723Y-103841028D02*
X222547533Y-103817219D01*
X222618961Y-103793409D01*
X222666580Y-103793409D01*
X222738009Y-103817219D01*
X222785628Y-103864838D01*
X222809438Y-103912457D01*
X222833247Y-104007695D01*
X222833247Y-104079123D01*
X222809438Y-104174361D01*
X222785628Y-104221980D01*
X222738009Y-104269600D01*
X222666580Y-104293409D01*
X222618961Y-104293409D01*
X222547533Y-104269600D01*
X222523723Y-104245790D01*
X222071342Y-103793409D02*
X222309438Y-103793409D01*
X222309438Y-104293409D01*
X220941342Y-103777219D02*
X220869914Y-103753409D01*
X220750866Y-103753409D01*
X220703247Y-103777219D01*
X220679438Y-103801028D01*
X220655628Y-103848647D01*
X220655628Y-103896266D01*
X220679438Y-103943885D01*
X220703247Y-103967695D01*
X220750866Y-103991504D01*
X220846104Y-104015314D01*
X220893723Y-104039123D01*
X220917533Y-104062933D01*
X220941342Y-104110552D01*
X220941342Y-104158171D01*
X220917533Y-104205790D01*
X220893723Y-104229600D01*
X220846104Y-104253409D01*
X220727057Y-104253409D01*
X220655628Y-104229600D01*
X220441342Y-103753409D02*
X220441342Y-104253409D01*
X220322295Y-104253409D01*
X220250866Y-104229600D01*
X220203247Y-104181980D01*
X220179438Y-104134361D01*
X220155628Y-104039123D01*
X220155628Y-103967695D01*
X220179438Y-103872457D01*
X220203247Y-103824838D01*
X220250866Y-103777219D01*
X220322295Y-103753409D01*
X220441342Y-103753409D01*
X219965152Y-103896266D02*
X219727057Y-103896266D01*
X220012771Y-103753409D02*
X219846104Y-104253409D01*
X219679438Y-103753409D01*
D12*
X178414200Y-152081980D02*
X178414200Y-152320076D01*
X178176104Y-152224838D02*
X178414200Y-152320076D01*
X178652295Y-152224838D01*
X178271342Y-152510552D02*
X178414200Y-152320076D01*
X178557057Y-152510552D01*
X178394200Y-139131980D02*
X178394200Y-139370076D01*
X178156104Y-139274838D02*
X178394200Y-139370076D01*
X178632295Y-139274838D01*
X178251342Y-139560552D02*
X178394200Y-139370076D01*
X178537057Y-139560552D01*
X178234200Y-126951980D02*
X178234200Y-127190076D01*
X177996104Y-127094838D02*
X178234200Y-127190076D01*
X178472295Y-127094838D01*
X178091342Y-127380552D02*
X178234200Y-127190076D01*
X178377057Y-127380552D01*
X178364200Y-114761980D02*
X178364200Y-115000076D01*
X178126104Y-114904838D02*
X178364200Y-115000076D01*
X178602295Y-114904838D01*
X178221342Y-115190552D02*
X178364200Y-115000076D01*
X178507057Y-115190552D01*
D14*
X169581342Y-105517219D02*
X169248009Y-104517219D01*
X168914676Y-105517219D01*
X168581342Y-104517219D02*
X168581342Y-105517219D01*
X168105152Y-104517219D02*
X168105152Y-105517219D01*
X167533723Y-104517219D01*
X167533723Y-105517219D01*
X166343247Y-105421980D02*
X166295628Y-105469600D01*
X166200390Y-105517219D01*
X165962295Y-105517219D01*
X165867057Y-105469600D01*
X165819438Y-105421980D01*
X165771819Y-105326742D01*
X165771819Y-105231504D01*
X165819438Y-105088647D01*
X166390866Y-104517219D01*
X165771819Y-104517219D01*
X164914676Y-105183885D02*
X164914676Y-104517219D01*
X165152771Y-105564838D02*
X165390866Y-104850552D01*
X164771819Y-104850552D01*
X164533723Y-105517219D02*
X164200390Y-104517219D01*
X163867057Y-105517219D01*
D15*
X253345152Y-156235790D02*
X253345152Y-156426266D01*
X253535628Y-156445314D01*
X253516580Y-156426266D01*
X253497533Y-156388171D01*
X253497533Y-156292933D01*
X253516580Y-156254838D01*
X253535628Y-156235790D01*
X253573723Y-156216742D01*
X253668961Y-156216742D01*
X253707057Y-156235790D01*
X253726104Y-156254838D01*
X253745152Y-156292933D01*
X253745152Y-156388171D01*
X253726104Y-156426266D01*
X253707057Y-156445314D01*
X253345152Y-156102457D02*
X253745152Y-155969123D01*
X253345152Y-155835790D01*
X253745152Y-151207219D02*
X253745152Y-151435790D01*
X253745152Y-151321504D02*
X253345152Y-151321504D01*
X253402295Y-151359600D01*
X253440390Y-151397695D01*
X253459438Y-151435790D01*
X253345152Y-150845314D02*
X253345152Y-151035790D01*
X253535628Y-151054838D01*
X253516580Y-151035790D01*
X253497533Y-150997695D01*
X253497533Y-150902457D01*
X253516580Y-150864361D01*
X253535628Y-150845314D01*
X253573723Y-150826266D01*
X253668961Y-150826266D01*
X253707057Y-150845314D01*
X253726104Y-150864361D01*
X253745152Y-150902457D01*
X253745152Y-150997695D01*
X253726104Y-151035790D01*
X253707057Y-151054838D01*
X253345152Y-150711980D02*
X253745152Y-150578647D01*
X253345152Y-150445314D01*
X253364200Y-158964361D02*
X253345152Y-159002457D01*
X253345152Y-159059600D01*
X253364200Y-159116742D01*
X253402295Y-159154838D01*
X253440390Y-159173885D01*
X253516580Y-159192933D01*
X253573723Y-159192933D01*
X253649914Y-159173885D01*
X253688009Y-159154838D01*
X253726104Y-159116742D01*
X253745152Y-159059600D01*
X253745152Y-159021504D01*
X253726104Y-158964361D01*
X253707057Y-158945314D01*
X253573723Y-158945314D01*
X253573723Y-159021504D01*
X253745152Y-158773885D02*
X253345152Y-158773885D01*
X253745152Y-158545314D01*
X253345152Y-158545314D01*
X253745152Y-158354838D02*
X253345152Y-158354838D01*
X253345152Y-158259600D01*
X253364200Y-158202457D01*
X253402295Y-158164361D01*
X253440390Y-158145314D01*
X253516580Y-158126266D01*
X253573723Y-158126266D01*
X253649914Y-158145314D01*
X253688009Y-158164361D01*
X253726104Y-158202457D01*
X253745152Y-158259600D01*
X253745152Y-158354838D01*
X253364200Y-153964361D02*
X253345152Y-154002457D01*
X253345152Y-154059600D01*
X253364200Y-154116742D01*
X253402295Y-154154838D01*
X253440390Y-154173885D01*
X253516580Y-154192933D01*
X253573723Y-154192933D01*
X253649914Y-154173885D01*
X253688009Y-154154838D01*
X253726104Y-154116742D01*
X253745152Y-154059600D01*
X253745152Y-154021504D01*
X253726104Y-153964361D01*
X253707057Y-153945314D01*
X253573723Y-153945314D01*
X253573723Y-154021504D01*
X253745152Y-153773885D02*
X253345152Y-153773885D01*
X253745152Y-153545314D01*
X253345152Y-153545314D01*
X253745152Y-153354838D02*
X253345152Y-153354838D01*
X253345152Y-153259600D01*
X253364200Y-153202457D01*
X253402295Y-153164361D01*
X253440390Y-153145314D01*
X253516580Y-153126266D01*
X253573723Y-153126266D01*
X253649914Y-153145314D01*
X253688009Y-153164361D01*
X253726104Y-153202457D01*
X253745152Y-153259600D01*
X253745152Y-153354838D01*
X253364200Y-148764361D02*
X253345152Y-148802457D01*
X253345152Y-148859600D01*
X253364200Y-148916742D01*
X253402295Y-148954838D01*
X253440390Y-148973885D01*
X253516580Y-148992933D01*
X253573723Y-148992933D01*
X253649914Y-148973885D01*
X253688009Y-148954838D01*
X253726104Y-148916742D01*
X253745152Y-148859600D01*
X253745152Y-148821504D01*
X253726104Y-148764361D01*
X253707057Y-148745314D01*
X253573723Y-148745314D01*
X253573723Y-148821504D01*
X253745152Y-148573885D02*
X253345152Y-148573885D01*
X253745152Y-148345314D01*
X253345152Y-148345314D01*
X253745152Y-148154838D02*
X253345152Y-148154838D01*
X253345152Y-148059600D01*
X253364200Y-148002457D01*
X253402295Y-147964361D01*
X253440390Y-147945314D01*
X253516580Y-147926266D01*
X253573723Y-147926266D01*
X253649914Y-147945314D01*
X253688009Y-147964361D01*
X253726104Y-148002457D01*
X253745152Y-148059600D01*
X253745152Y-148154838D01*
X253745152Y-146207219D02*
X253745152Y-146435790D01*
X253745152Y-146321504D02*
X253345152Y-146321504D01*
X253402295Y-146359600D01*
X253440390Y-146397695D01*
X253459438Y-146435790D01*
X253383247Y-146054838D02*
X253364200Y-146035790D01*
X253345152Y-145997695D01*
X253345152Y-145902457D01*
X253364200Y-145864361D01*
X253383247Y-145845314D01*
X253421342Y-145826266D01*
X253459438Y-145826266D01*
X253516580Y-145845314D01*
X253745152Y-146073885D01*
X253745152Y-145826266D01*
X253345152Y-145711980D02*
X253745152Y-145578647D01*
X253345152Y-145445314D01*
X253364200Y-143664361D02*
X253345152Y-143702457D01*
X253345152Y-143759600D01*
X253364200Y-143816742D01*
X253402295Y-143854838D01*
X253440390Y-143873885D01*
X253516580Y-143892933D01*
X253573723Y-143892933D01*
X253649914Y-143873885D01*
X253688009Y-143854838D01*
X253726104Y-143816742D01*
X253745152Y-143759600D01*
X253745152Y-143721504D01*
X253726104Y-143664361D01*
X253707057Y-143645314D01*
X253573723Y-143645314D01*
X253573723Y-143721504D01*
X253745152Y-143473885D02*
X253345152Y-143473885D01*
X253745152Y-143245314D01*
X253345152Y-143245314D01*
X253745152Y-143054838D02*
X253345152Y-143054838D01*
X253345152Y-142959600D01*
X253364200Y-142902457D01*
X253402295Y-142864361D01*
X253440390Y-142845314D01*
X253516580Y-142826266D01*
X253573723Y-142826266D01*
X253649914Y-142845314D01*
X253688009Y-142864361D01*
X253726104Y-142902457D01*
X253745152Y-142959600D01*
X253745152Y-143054838D01*
X253345152Y-141150076D02*
X253345152Y-140902457D01*
X253497533Y-141035790D01*
X253497533Y-140978647D01*
X253516580Y-140940552D01*
X253535628Y-140921504D01*
X253573723Y-140902457D01*
X253668961Y-140902457D01*
X253707057Y-140921504D01*
X253726104Y-140940552D01*
X253745152Y-140978647D01*
X253745152Y-141092933D01*
X253726104Y-141131028D01*
X253707057Y-141150076D01*
X253707057Y-140731028D02*
X253726104Y-140711980D01*
X253745152Y-140731028D01*
X253726104Y-140750076D01*
X253707057Y-140731028D01*
X253745152Y-140731028D01*
X253345152Y-140578647D02*
X253345152Y-140331028D01*
X253497533Y-140464361D01*
X253497533Y-140407219D01*
X253516580Y-140369123D01*
X253535628Y-140350076D01*
X253573723Y-140331028D01*
X253668961Y-140331028D01*
X253707057Y-140350076D01*
X253726104Y-140369123D01*
X253745152Y-140407219D01*
X253745152Y-140521504D01*
X253726104Y-140559600D01*
X253707057Y-140578647D01*
X253345152Y-140216742D02*
X253745152Y-140083409D01*
X253345152Y-139950076D01*
X253345152Y-132578647D02*
X253745152Y-132445314D01*
X253345152Y-132311980D01*
X253707057Y-131950076D02*
X253726104Y-131969123D01*
X253745152Y-132026266D01*
X253745152Y-132064361D01*
X253726104Y-132121504D01*
X253688009Y-132159600D01*
X253649914Y-132178647D01*
X253573723Y-132197695D01*
X253516580Y-132197695D01*
X253440390Y-132178647D01*
X253402295Y-132159600D01*
X253364200Y-132121504D01*
X253345152Y-132064361D01*
X253345152Y-132026266D01*
X253364200Y-131969123D01*
X253383247Y-131950076D01*
X253745152Y-131550076D02*
X253554676Y-131683409D01*
X253745152Y-131778647D02*
X253345152Y-131778647D01*
X253345152Y-131626266D01*
X253364200Y-131588171D01*
X253383247Y-131569123D01*
X253421342Y-131550076D01*
X253478485Y-131550076D01*
X253516580Y-131569123D01*
X253535628Y-131588171D01*
X253554676Y-131626266D01*
X253554676Y-131778647D01*
X253345152Y-131416742D02*
X253745152Y-131150076D01*
X253345152Y-131150076D02*
X253745152Y-131416742D01*
X253745152Y-130997695D02*
X253345152Y-130997695D01*
X253345152Y-129892933D02*
X253745152Y-129759600D01*
X253345152Y-129626266D01*
X253707057Y-129264361D02*
X253726104Y-129283409D01*
X253745152Y-129340552D01*
X253745152Y-129378647D01*
X253726104Y-129435790D01*
X253688009Y-129473885D01*
X253649914Y-129492933D01*
X253573723Y-129511980D01*
X253516580Y-129511980D01*
X253440390Y-129492933D01*
X253402295Y-129473885D01*
X253364200Y-129435790D01*
X253345152Y-129378647D01*
X253345152Y-129340552D01*
X253364200Y-129283409D01*
X253383247Y-129264361D01*
X253745152Y-128864361D02*
X253554676Y-128997695D01*
X253745152Y-129092933D02*
X253345152Y-129092933D01*
X253345152Y-128940552D01*
X253364200Y-128902457D01*
X253383247Y-128883409D01*
X253421342Y-128864361D01*
X253478485Y-128864361D01*
X253516580Y-128883409D01*
X253535628Y-128902457D01*
X253554676Y-128940552D01*
X253554676Y-129092933D01*
X253345152Y-128731028D02*
X253745152Y-128464361D01*
X253345152Y-128464361D02*
X253745152Y-128731028D01*
X253783247Y-128045314D02*
X253764200Y-128083409D01*
X253726104Y-128121504D01*
X253668961Y-128178647D01*
X253649914Y-128216742D01*
X253649914Y-128254838D01*
X253745152Y-128235790D02*
X253726104Y-128273885D01*
X253688009Y-128311980D01*
X253611819Y-128331028D01*
X253478485Y-128331028D01*
X253402295Y-128311980D01*
X253364200Y-128273885D01*
X253345152Y-128235790D01*
X253345152Y-128159600D01*
X253364200Y-128121504D01*
X253402295Y-128083409D01*
X253478485Y-128064361D01*
X253611819Y-128064361D01*
X253688009Y-128083409D01*
X253726104Y-128121504D01*
X253745152Y-128159600D01*
X253745152Y-128235790D01*
X253345152Y-127507219D02*
X253745152Y-127373885D01*
X253345152Y-127240552D01*
X253707057Y-126878647D02*
X253726104Y-126897695D01*
X253745152Y-126954838D01*
X253745152Y-126992933D01*
X253726104Y-127050076D01*
X253688009Y-127088171D01*
X253649914Y-127107219D01*
X253573723Y-127126266D01*
X253516580Y-127126266D01*
X253440390Y-127107219D01*
X253402295Y-127088171D01*
X253364200Y-127050076D01*
X253345152Y-126992933D01*
X253345152Y-126954838D01*
X253364200Y-126897695D01*
X253383247Y-126878647D01*
X253745152Y-126707219D02*
X253345152Y-126707219D01*
X253535628Y-126707219D02*
X253535628Y-126478647D01*
X253745152Y-126478647D02*
X253345152Y-126478647D01*
X253535628Y-126154838D02*
X253535628Y-126288171D01*
X253745152Y-126288171D02*
X253345152Y-126288171D01*
X253345152Y-126097695D01*
X253345152Y-126002457D02*
X253345152Y-125773885D01*
X253745152Y-125888171D02*
X253345152Y-125888171D01*
X253345152Y-125678647D02*
X253745152Y-125411980D01*
X253345152Y-125411980D02*
X253745152Y-125678647D01*
X253745152Y-125050076D02*
X253745152Y-125278647D01*
X253745152Y-125164361D02*
X253345152Y-125164361D01*
X253402295Y-125202457D01*
X253440390Y-125240552D01*
X253459438Y-125278647D01*
X253345152Y-124721504D02*
X253745152Y-124588171D01*
X253345152Y-124454838D01*
X253707057Y-124092933D02*
X253726104Y-124111980D01*
X253745152Y-124169123D01*
X253745152Y-124207219D01*
X253726104Y-124264361D01*
X253688009Y-124302457D01*
X253649914Y-124321504D01*
X253573723Y-124340552D01*
X253516580Y-124340552D01*
X253440390Y-124321504D01*
X253402295Y-124302457D01*
X253364200Y-124264361D01*
X253345152Y-124207219D01*
X253345152Y-124169123D01*
X253364200Y-124111980D01*
X253383247Y-124092933D01*
X253345152Y-123978647D02*
X253345152Y-123750076D01*
X253745152Y-123864361D02*
X253345152Y-123864361D01*
X253345152Y-123654838D02*
X253745152Y-123388171D01*
X253345152Y-123388171D02*
X253745152Y-123654838D01*
X253745152Y-123235790D02*
X253345152Y-123235790D01*
X253745152Y-122835790D02*
X253745152Y-123064361D01*
X253745152Y-122950076D02*
X253345152Y-122950076D01*
X253402295Y-122988171D01*
X253440390Y-123026266D01*
X253459438Y-123064361D01*
X253345152Y-122335790D02*
X253745152Y-122202457D01*
X253345152Y-122069123D01*
X253707057Y-121707219D02*
X253726104Y-121726266D01*
X253745152Y-121783409D01*
X253745152Y-121821504D01*
X253726104Y-121878647D01*
X253688009Y-121916742D01*
X253649914Y-121935790D01*
X253573723Y-121954838D01*
X253516580Y-121954838D01*
X253440390Y-121935790D01*
X253402295Y-121916742D01*
X253364200Y-121878647D01*
X253345152Y-121821504D01*
X253345152Y-121783409D01*
X253364200Y-121726266D01*
X253383247Y-121707219D01*
X253345152Y-121592933D02*
X253345152Y-121364361D01*
X253745152Y-121478647D02*
X253345152Y-121478647D01*
X253345152Y-121269123D02*
X253745152Y-121002457D01*
X253345152Y-121002457D02*
X253745152Y-121269123D01*
X253783247Y-120583409D02*
X253764200Y-120621504D01*
X253726104Y-120659600D01*
X253668961Y-120716742D01*
X253649914Y-120754838D01*
X253649914Y-120792933D01*
X253745152Y-120773885D02*
X253726104Y-120811980D01*
X253688009Y-120850076D01*
X253611819Y-120869123D01*
X253478485Y-120869123D01*
X253402295Y-120850076D01*
X253364200Y-120811980D01*
X253345152Y-120773885D01*
X253345152Y-120697695D01*
X253364200Y-120659600D01*
X253402295Y-120621504D01*
X253478485Y-120602457D01*
X253611819Y-120602457D01*
X253688009Y-120621504D01*
X253726104Y-120659600D01*
X253745152Y-120697695D01*
X253745152Y-120773885D01*
X253745152Y-120221504D02*
X253745152Y-120450076D01*
X253745152Y-120335790D02*
X253345152Y-120335790D01*
X253402295Y-120373885D01*
X253440390Y-120411980D01*
X253459438Y-120450076D01*
X253364200Y-119064361D02*
X253345152Y-119102457D01*
X253345152Y-119159600D01*
X253364200Y-119216742D01*
X253402295Y-119254838D01*
X253440390Y-119273885D01*
X253516580Y-119292933D01*
X253573723Y-119292933D01*
X253649914Y-119273885D01*
X253688009Y-119254838D01*
X253726104Y-119216742D01*
X253745152Y-119159600D01*
X253745152Y-119121504D01*
X253726104Y-119064361D01*
X253707057Y-119045314D01*
X253573723Y-119045314D01*
X253573723Y-119121504D01*
X253745152Y-118873885D02*
X253345152Y-118873885D01*
X253745152Y-118645314D01*
X253345152Y-118645314D01*
X253745152Y-118454838D02*
X253345152Y-118454838D01*
X253345152Y-118359600D01*
X253364200Y-118302457D01*
X253402295Y-118264361D01*
X253440390Y-118245314D01*
X253516580Y-118226266D01*
X253573723Y-118226266D01*
X253649914Y-118245314D01*
X253688009Y-118264361D01*
X253726104Y-118302457D01*
X253745152Y-118359600D01*
X253745152Y-118454838D01*
X253345152Y-117407219D02*
X253745152Y-117273885D01*
X253345152Y-117140552D01*
X253707057Y-116778647D02*
X253726104Y-116797695D01*
X253745152Y-116854838D01*
X253745152Y-116892933D01*
X253726104Y-116950076D01*
X253688009Y-116988171D01*
X253649914Y-117007219D01*
X253573723Y-117026266D01*
X253516580Y-117026266D01*
X253440390Y-117007219D01*
X253402295Y-116988171D01*
X253364200Y-116950076D01*
X253345152Y-116892933D01*
X253345152Y-116854838D01*
X253364200Y-116797695D01*
X253383247Y-116778647D01*
X253745152Y-116607219D02*
X253345152Y-116607219D01*
X253535628Y-116607219D02*
X253535628Y-116378647D01*
X253745152Y-116378647D02*
X253345152Y-116378647D01*
X253535628Y-116054838D02*
X253535628Y-116188171D01*
X253745152Y-116188171D02*
X253345152Y-116188171D01*
X253345152Y-115997695D01*
X253345152Y-115902457D02*
X253345152Y-115673885D01*
X253745152Y-115788171D02*
X253345152Y-115788171D01*
X253345152Y-115578647D02*
X253745152Y-115311980D01*
X253345152Y-115311980D02*
X253745152Y-115578647D01*
X253345152Y-115083409D02*
X253345152Y-115045314D01*
X253364200Y-115007219D01*
X253383247Y-114988171D01*
X253421342Y-114969123D01*
X253497533Y-114950076D01*
X253592771Y-114950076D01*
X253668961Y-114969123D01*
X253707057Y-114988171D01*
X253726104Y-115007219D01*
X253745152Y-115045314D01*
X253745152Y-115083409D01*
X253726104Y-115121504D01*
X253707057Y-115140552D01*
X253668961Y-115159600D01*
X253592771Y-115178647D01*
X253497533Y-115178647D01*
X253421342Y-115159600D01*
X253383247Y-115140552D01*
X253364200Y-115121504D01*
X253345152Y-115083409D01*
X253364200Y-108864361D02*
X253345152Y-108902457D01*
X253345152Y-108959600D01*
X253364200Y-109016742D01*
X253402295Y-109054838D01*
X253440390Y-109073885D01*
X253516580Y-109092933D01*
X253573723Y-109092933D01*
X253649914Y-109073885D01*
X253688009Y-109054838D01*
X253726104Y-109016742D01*
X253745152Y-108959600D01*
X253745152Y-108921504D01*
X253726104Y-108864361D01*
X253707057Y-108845314D01*
X253573723Y-108845314D01*
X253573723Y-108921504D01*
X253745152Y-108673885D02*
X253345152Y-108673885D01*
X253745152Y-108445314D01*
X253345152Y-108445314D01*
X253745152Y-108254838D02*
X253345152Y-108254838D01*
X253345152Y-108159600D01*
X253364200Y-108102457D01*
X253402295Y-108064361D01*
X253440390Y-108045314D01*
X253516580Y-108026266D01*
X253573723Y-108026266D01*
X253649914Y-108045314D01*
X253688009Y-108064361D01*
X253726104Y-108102457D01*
X253745152Y-108159600D01*
X253745152Y-108254838D01*
X253345152Y-112035790D02*
X253745152Y-111902457D01*
X253345152Y-111769123D01*
X253707057Y-111407219D02*
X253726104Y-111426266D01*
X253745152Y-111483409D01*
X253745152Y-111521504D01*
X253726104Y-111578647D01*
X253688009Y-111616742D01*
X253649914Y-111635790D01*
X253573723Y-111654838D01*
X253516580Y-111654838D01*
X253440390Y-111635790D01*
X253402295Y-111616742D01*
X253364200Y-111578647D01*
X253345152Y-111521504D01*
X253345152Y-111483409D01*
X253364200Y-111426266D01*
X253383247Y-111407219D01*
X253345152Y-111292933D02*
X253345152Y-111064361D01*
X253745152Y-111178647D02*
X253345152Y-111178647D01*
X253345152Y-110969123D02*
X253745152Y-110702457D01*
X253345152Y-110702457D02*
X253745152Y-110969123D01*
X253783247Y-110283409D02*
X253764200Y-110321504D01*
X253726104Y-110359600D01*
X253668961Y-110416742D01*
X253649914Y-110454838D01*
X253649914Y-110492933D01*
X253745152Y-110473885D02*
X253726104Y-110511980D01*
X253688009Y-110550076D01*
X253611819Y-110569123D01*
X253478485Y-110569123D01*
X253402295Y-110550076D01*
X253364200Y-110511980D01*
X253345152Y-110473885D01*
X253345152Y-110397695D01*
X253364200Y-110359600D01*
X253402295Y-110321504D01*
X253478485Y-110302457D01*
X253611819Y-110302457D01*
X253688009Y-110321504D01*
X253726104Y-110359600D01*
X253745152Y-110397695D01*
X253745152Y-110473885D01*
X253345152Y-110054838D02*
X253345152Y-110016742D01*
X253364200Y-109978647D01*
X253383247Y-109959600D01*
X253421342Y-109940552D01*
X253497533Y-109921504D01*
X253592771Y-109921504D01*
X253668961Y-109940552D01*
X253707057Y-109959600D01*
X253726104Y-109978647D01*
X253745152Y-110016742D01*
X253745152Y-110054838D01*
X253726104Y-110092933D01*
X253707057Y-110111980D01*
X253668961Y-110131028D01*
X253592771Y-110150076D01*
X253497533Y-110150076D01*
X253421342Y-110131028D01*
X253383247Y-110111980D01*
X253364200Y-110092933D01*
X253345152Y-110054838D01*
X253345152Y-114421504D02*
X253745152Y-114288171D01*
X253345152Y-114154838D01*
X253707057Y-113792933D02*
X253726104Y-113811980D01*
X253745152Y-113869123D01*
X253745152Y-113907219D01*
X253726104Y-113964361D01*
X253688009Y-114002457D01*
X253649914Y-114021504D01*
X253573723Y-114040552D01*
X253516580Y-114040552D01*
X253440390Y-114021504D01*
X253402295Y-114002457D01*
X253364200Y-113964361D01*
X253345152Y-113907219D01*
X253345152Y-113869123D01*
X253364200Y-113811980D01*
X253383247Y-113792933D01*
X253345152Y-113678647D02*
X253345152Y-113450076D01*
X253745152Y-113564361D02*
X253345152Y-113564361D01*
X253345152Y-113354838D02*
X253745152Y-113088171D01*
X253345152Y-113088171D02*
X253745152Y-113354838D01*
X253745152Y-112935790D02*
X253345152Y-112935790D01*
X253345152Y-112669123D02*
X253345152Y-112631028D01*
X253364200Y-112592933D01*
X253383247Y-112573885D01*
X253421342Y-112554838D01*
X253497533Y-112535790D01*
X253592771Y-112535790D01*
X253668961Y-112554838D01*
X253707057Y-112573885D01*
X253726104Y-112592933D01*
X253745152Y-112631028D01*
X253745152Y-112669123D01*
X253726104Y-112707219D01*
X253707057Y-112726266D01*
X253668961Y-112745314D01*
X253592771Y-112764361D01*
X253497533Y-112764361D01*
X253421342Y-112745314D01*
X253383247Y-112726266D01*
X253364200Y-112707219D01*
X253345152Y-112669123D01*
D16*
X235024200Y-158669600D02*
X235024200Y-159169600D01*
D13*
X191894200Y-149769600D02*
G75*
G03X191894200Y-149769600I-1370000J0D01*
G01*
X191169200Y-124744600D02*
G75*
G03X191169200Y-124744600I-1370000J0D01*
G01*
X191769200Y-112594600D02*
G75*
G03X191769200Y-112594600I-1370000J0D01*
G01*
X191844200Y-136994600D02*
G75*
G03X191844200Y-136994600I-1370000J0D01*
G01*
X186344200Y-159044600D02*
G75*
G03X186344200Y-159044600I-1370000J0D01*
G01*
X202794200Y-159069600D02*
G75*
G03X202794200Y-159069600I-1370000J0D01*
G01*
D16*
X253094200Y-160469600D02*
X253094200Y-159969600D01*
X252354200Y-160469600D02*
X253094200Y-160469600D01*
X246534200Y-139328600D02*
X252854200Y-139328600D01*
X246534200Y-160229600D02*
X252854200Y-160229600D01*
X252854200Y-160229600D02*
X252854200Y-139328600D01*
X246534200Y-160229600D02*
X246534200Y-139328600D01*
X246994200Y-160229600D02*
X246994200Y-139328600D01*
X252294200Y-160229600D02*
X252294200Y-139328600D01*
D17*
X173888000Y-149589600D02*
G75*
G03X173888000Y-149589600I-76200J0D01*
G01*
X160972100Y-150976440D02*
X160972100Y-154961700D01*
X171716300Y-148202760D02*
X171716300Y-144217500D01*
X171716300Y-154961700D02*
X171716300Y-150976440D01*
X160972100Y-154961700D02*
X171716300Y-154961700D01*
X160972100Y-144217500D02*
X160972100Y-148202760D01*
X171716300Y-144217500D02*
X160972100Y-144217500D01*
D16*
X253084200Y-133319600D02*
X253084200Y-132819600D01*
X252344200Y-133319600D02*
X253084200Y-133319600D01*
X246524200Y-107099600D02*
X252844200Y-107099600D01*
X246524200Y-133079600D02*
X252844200Y-133079600D01*
X252844200Y-133079600D02*
X252844200Y-107099600D01*
X246524200Y-133079600D02*
X246524200Y-107099600D01*
X246984200Y-133079600D02*
X246984200Y-107099600D01*
X252284200Y-133079600D02*
X252284200Y-107099600D01*
X229427222Y-151257201D02*
X229752780Y-151257201D01*
X229427222Y-150237201D02*
X229752780Y-150237201D01*
X229336221Y-155748000D02*
X229661779Y-155748000D01*
X229336221Y-154728000D02*
X229661779Y-154728000D01*
D17*
X244299100Y-137750500D02*
X244299100Y-133508700D01*
X239041300Y-133508700D02*
X239041300Y-137750500D01*
D16*
X229406121Y-149140000D02*
X229731679Y-149140000D01*
X229406121Y-148120000D02*
X229731679Y-148120000D01*
X229599479Y-152859600D02*
X229273921Y-152859600D01*
X229599479Y-153879600D02*
X229273921Y-153879600D01*
D13*
X233504200Y-127719600D02*
X233254200Y-127719600D01*
X233504200Y-127719600D02*
X233504200Y-127969600D01*
X231604200Y-127719600D02*
X231854200Y-127719600D01*
X231604200Y-127719600D02*
X231604200Y-127969600D01*
X231604200Y-128819600D02*
X231604200Y-128569600D01*
X231604200Y-128819600D02*
X231854200Y-128819600D01*
X233504200Y-128819600D02*
X233254200Y-128819600D01*
X233504200Y-128819600D02*
X233504200Y-128569600D01*
D17*
X218244601Y-133463141D02*
X218244601Y-134425801D01*
X216542801Y-133463141D02*
X216542801Y-134425801D01*
X214841001Y-133463141D02*
X214841001Y-134425801D01*
X213139201Y-133463141D02*
X213139201Y-134425801D01*
X211437401Y-133463141D02*
X211437401Y-134425801D01*
X217279401Y-133463141D02*
X217279401Y-134425801D01*
X215577601Y-133463141D02*
X215577601Y-134425801D01*
X213875801Y-133463141D02*
X213875801Y-134425801D01*
X212174001Y-133463141D02*
X212174001Y-134425801D01*
X210472201Y-133463141D02*
X210472201Y-134425801D01*
X178943000Y-115239800D02*
X178943000Y-114849340D01*
X179356060Y-115239800D02*
X178943000Y-115239800D01*
X188188600Y-112962341D02*
X188188600Y-113929860D01*
X178943000Y-111042860D02*
X178943000Y-110737341D01*
X178943000Y-113929860D02*
X178943000Y-112962341D01*
X206254254Y-115388564D02*
G75*
G03X206290800Y-115245500I36546J66864D01*
G01*
X210071400Y-114696100D02*
X206820200Y-114696100D01*
X206820200Y-117947300D02*
X210071400Y-117947300D01*
X178943000Y-139827000D02*
X178943000Y-139436540D01*
X179356060Y-139827000D02*
X178943000Y-139827000D01*
X188188600Y-137549541D02*
X188188600Y-138517060D01*
X178943000Y-135630060D02*
X178943000Y-135324541D01*
X178943000Y-138517060D02*
X178943000Y-137549541D01*
X178892200Y-127584200D02*
X178892200Y-127193740D01*
X179305260Y-127584200D02*
X178892200Y-127584200D01*
X188137800Y-125306741D02*
X188137800Y-126274260D01*
X178892200Y-123387260D02*
X178892200Y-123081741D01*
X178892200Y-126274260D02*
X178892200Y-125306741D01*
X178943000Y-152595200D02*
X178943000Y-152204740D01*
X179356060Y-152595200D02*
X178943000Y-152595200D01*
X188188600Y-150317741D02*
X188188600Y-151285260D01*
X178943000Y-148398260D02*
X178943000Y-148092741D01*
X178943000Y-151285260D02*
X178943000Y-150317741D01*
X218276701Y-152233741D02*
X218276701Y-153196401D01*
X216574901Y-152233741D02*
X216574901Y-153196401D01*
X214873101Y-152233741D02*
X214873101Y-153196401D01*
X213171301Y-152233741D02*
X213171301Y-153196401D01*
X211469501Y-152233741D02*
X211469501Y-153196401D01*
X217311501Y-152233741D02*
X217311501Y-153196401D01*
X215609701Y-152233741D02*
X215609701Y-153196401D01*
X213907901Y-152233741D02*
X213907901Y-153196401D01*
X212206101Y-152233741D02*
X212206101Y-153196401D01*
X210504301Y-152233741D02*
X210504301Y-153196401D01*
D16*
X197799479Y-136919600D02*
X197473921Y-136919600D01*
X197799479Y-137939600D02*
X197473921Y-137939600D01*
X197761679Y-127887000D02*
X197436121Y-127887000D01*
X197761679Y-128907000D02*
X197436121Y-128907000D01*
X197431421Y-132666200D02*
X197756979Y-132666200D01*
X197431421Y-131646200D02*
X197756979Y-131646200D01*
X197756979Y-133299600D02*
X197431421Y-133299600D01*
X197756979Y-134319600D02*
X197431421Y-134319600D01*
X229611421Y-118729600D02*
X229936979Y-118729600D01*
X229611421Y-117709600D02*
X229936979Y-117709600D01*
X229936979Y-115459600D02*
X229611421Y-115459600D01*
X229936979Y-116479600D02*
X229611421Y-116479600D01*
X233834200Y-115332379D02*
X233834200Y-115006821D01*
X232814200Y-115332379D02*
X232814200Y-115006821D01*
X235633479Y-128033000D02*
X235307921Y-128033000D01*
X235633479Y-129053000D02*
X235307921Y-129053000D01*
X235633479Y-129633200D02*
X235307921Y-129633200D01*
X235633479Y-130653200D02*
X235307921Y-130653200D01*
X222444821Y-117291200D02*
X222770379Y-117291200D01*
X222444821Y-116271200D02*
X222770379Y-116271200D01*
X212191421Y-117339600D02*
X212516979Y-117339600D01*
X212191421Y-116319600D02*
X212516979Y-116319600D01*
X163882778Y-156969600D02*
X163365622Y-156969600D01*
X163882778Y-158389600D02*
X163365622Y-158389600D01*
X168542778Y-156989600D02*
X168025622Y-156989600D01*
X168542778Y-158409600D02*
X168025622Y-158409600D01*
D13*
X229214200Y-104819600D02*
X228714200Y-104819600D01*
X229214200Y-104819600D02*
X229214200Y-105319600D01*
X229214200Y-111419600D02*
X228714200Y-111419600D01*
X229214200Y-111419600D02*
X229214200Y-110919600D01*
D16*
X222770379Y-117922200D02*
X222444821Y-117922200D01*
X222770379Y-118942200D02*
X222444821Y-118942200D01*
D17*
X236465298Y-127347198D02*
X236465298Y-127601198D01*
X236084298Y-127347198D02*
X236465298Y-127347198D01*
X236084298Y-127601198D02*
X236084298Y-127347198D01*
X236465298Y-127601198D02*
X236084298Y-127601198D01*
X230615302Y-119528002D02*
X230615302Y-119274002D01*
X230234302Y-119528002D02*
X230615302Y-119528002D01*
X230234302Y-119274002D02*
X230234302Y-119528002D01*
X230615302Y-119274002D02*
X230234302Y-119274002D01*
X236726801Y-125347048D02*
X236726801Y-121528156D01*
X229972799Y-121528152D02*
X229972799Y-125347044D01*
X244220500Y-125050500D02*
X244220500Y-120808700D01*
X238962700Y-120808700D02*
X238962700Y-125050500D01*
X244195100Y-112655300D02*
X244195100Y-108413500D01*
X238937300Y-108413500D02*
X238937300Y-112655300D01*
X216604754Y-115373064D02*
G75*
G03X216641300Y-115230000I36546J66864D01*
G01*
X220421900Y-114680600D02*
X217170700Y-114680600D01*
X217170700Y-117931800D02*
X220421900Y-117931800D01*
D16*
X207978600Y-135688264D02*
X207978600Y-134484136D01*
X206158600Y-135688264D02*
X206158600Y-134484136D01*
X207914600Y-154484264D02*
X207914600Y-153280136D01*
X206094600Y-154484264D02*
X206094600Y-153280136D01*
X220774200Y-139737536D02*
X220774200Y-140941664D01*
X222594200Y-139737536D02*
X222594200Y-140941664D01*
X225923200Y-154484264D02*
X225923200Y-153280136D01*
X224103200Y-154484264D02*
X224103200Y-153280136D01*
X222609000Y-135688264D02*
X222609000Y-134484136D01*
X220789000Y-135688264D02*
X220789000Y-134484136D01*
X223408600Y-154484264D02*
X223408600Y-153280136D01*
X221588600Y-154484264D02*
X221588600Y-153280136D01*
X215781236Y-114168200D02*
X216985364Y-114168200D01*
X215781236Y-112348200D02*
X216985364Y-112348200D01*
X205427736Y-114168200D02*
X206631864Y-114168200D01*
X205427736Y-112348200D02*
X206631864Y-112348200D01*
X221811364Y-112348200D02*
X220607236Y-112348200D01*
X221811364Y-114168200D02*
X220607236Y-114168200D01*
X211460864Y-112348200D02*
X210256736Y-112348200D01*
X211460864Y-114168200D02*
X210256736Y-114168200D01*
X229926979Y-113439600D02*
X229601421Y-113439600D01*
X229926979Y-114459600D02*
X229601421Y-114459600D01*
D13*
X171478000Y-122595800D02*
X170978000Y-122595800D01*
X171478000Y-122595800D02*
X171478000Y-122095800D01*
X162278000Y-122595800D02*
X162778000Y-122595800D01*
X162278000Y-122595800D02*
X162278000Y-122095800D01*
X165678000Y-116995800D02*
X168078000Y-116995800D01*
X162278000Y-107995800D02*
X162278000Y-108495800D01*
X162278000Y-107995800D02*
X162778000Y-107995800D01*
X171478000Y-107995800D02*
X170978000Y-107995800D01*
X171478000Y-107995800D02*
X171478000Y-108495800D01*
X162278000Y-115295800D02*
X162278000Y-114295800D01*
X171478000Y-115295800D02*
X171478000Y-114295800D01*
D16*
X171870000Y-124154800D02*
X172870000Y-124154800D01*
X169870000Y-124154800D02*
X169870000Y-126654800D01*
X169870000Y-124154800D02*
X169870000Y-126654800D01*
X171870000Y-126654800D02*
X171870000Y-124154800D01*
X169870000Y-126654800D02*
X171870000Y-126654800D01*
X169870000Y-124154800D02*
X169870000Y-126654800D01*
X172870000Y-140654800D02*
X172870000Y-143154800D01*
X172870000Y-143154800D02*
X159870000Y-143154800D01*
X159870000Y-143154800D02*
X159870000Y-140654800D01*
X172870000Y-124154800D02*
X172870000Y-126654800D01*
X159870000Y-124154800D02*
X169870000Y-124154800D01*
X159870000Y-126654800D02*
X159870000Y-124154800D01*
D12*
X435526400Y-268857580D02*
X435526400Y-269095676D01*
X435288304Y-269000438D02*
X435526400Y-269095676D01*
X435764495Y-269000438D01*
X435383542Y-269286152D02*
X435526400Y-269095676D01*
X435669257Y-269286152D01*
X435516400Y-268847580D02*
X435516400Y-269085676D01*
X435278304Y-268990438D02*
X435516400Y-269085676D01*
X435754495Y-268990438D01*
X435373542Y-269276152D02*
X435516400Y-269085676D01*
X435659257Y-269276152D01*
X192162295Y-149271980D02*
X192733723Y-149271980D01*
X192448009Y-150271980D02*
X192448009Y-149271980D01*
X193067057Y-150271980D02*
X193067057Y-149271980D01*
X193448009Y-149271980D01*
X193543247Y-149319600D01*
X193590866Y-149367219D01*
X193638485Y-149462457D01*
X193638485Y-149605314D01*
X193590866Y-149700552D01*
X193543247Y-149748171D01*
X193448009Y-149795790D01*
X193067057Y-149795790D01*
X194543247Y-149271980D02*
X194067057Y-149271980D01*
X194019438Y-149748171D01*
X194067057Y-149700552D01*
X194162295Y-149652933D01*
X194400390Y-149652933D01*
X194495628Y-149700552D01*
X194543247Y-149748171D01*
X194590866Y-149843409D01*
X194590866Y-150081504D01*
X194543247Y-150176742D01*
X194495628Y-150224361D01*
X194400390Y-150271980D01*
X194162295Y-150271980D01*
X194067057Y-150224361D01*
X194019438Y-150176742D01*
X191262295Y-124221980D02*
X191833723Y-124221980D01*
X191548009Y-125221980D02*
X191548009Y-124221980D01*
X192167057Y-125221980D02*
X192167057Y-124221980D01*
X192548009Y-124221980D01*
X192643247Y-124269600D01*
X192690866Y-124317219D01*
X192738485Y-124412457D01*
X192738485Y-124555314D01*
X192690866Y-124650552D01*
X192643247Y-124698171D01*
X192548009Y-124745790D01*
X192167057Y-124745790D01*
X193595628Y-124555314D02*
X193595628Y-125221980D01*
X193357533Y-124174361D02*
X193119438Y-124888647D01*
X193738485Y-124888647D01*
X189137295Y-109496980D02*
X189708723Y-109496980D01*
X189423009Y-110496980D02*
X189423009Y-109496980D01*
X190042057Y-110496980D02*
X190042057Y-109496980D01*
X190423009Y-109496980D01*
X190518247Y-109544600D01*
X190565866Y-109592219D01*
X190613485Y-109687457D01*
X190613485Y-109830314D01*
X190565866Y-109925552D01*
X190518247Y-109973171D01*
X190423009Y-110020790D01*
X190042057Y-110020790D01*
X190946819Y-109496980D02*
X191565866Y-109496980D01*
X191232533Y-109877933D01*
X191375390Y-109877933D01*
X191470628Y-109925552D01*
X191518247Y-109973171D01*
X191565866Y-110068409D01*
X191565866Y-110306504D01*
X191518247Y-110401742D01*
X191470628Y-110449361D01*
X191375390Y-110496980D01*
X191089676Y-110496980D01*
X190994438Y-110449361D01*
X190946819Y-110401742D01*
X191987295Y-136571980D02*
X192558723Y-136571980D01*
X192273009Y-137571980D02*
X192273009Y-136571980D01*
X192892057Y-137571980D02*
X192892057Y-136571980D01*
X193273009Y-136571980D01*
X193368247Y-136619600D01*
X193415866Y-136667219D01*
X193463485Y-136762457D01*
X193463485Y-136905314D01*
X193415866Y-137000552D01*
X193368247Y-137048171D01*
X193273009Y-137095790D01*
X192892057Y-137095790D01*
X193844438Y-136667219D02*
X193892057Y-136619600D01*
X193987295Y-136571980D01*
X194225390Y-136571980D01*
X194320628Y-136619600D01*
X194368247Y-136667219D01*
X194415866Y-136762457D01*
X194415866Y-136857695D01*
X194368247Y-137000552D01*
X193796819Y-137571980D01*
X194415866Y-137571980D01*
X180737295Y-158921980D02*
X181308723Y-158921980D01*
X181023009Y-159921980D02*
X181023009Y-158921980D01*
X181642057Y-159921980D02*
X181642057Y-158921980D01*
X182023009Y-158921980D01*
X182118247Y-158969600D01*
X182165866Y-159017219D01*
X182213485Y-159112457D01*
X182213485Y-159255314D01*
X182165866Y-159350552D01*
X182118247Y-159398171D01*
X182023009Y-159445790D01*
X181642057Y-159445790D01*
X182546819Y-158921980D02*
X183213485Y-158921980D01*
X182784914Y-159921980D01*
X200162295Y-155971980D02*
X200733723Y-155971980D01*
X200448009Y-156971980D02*
X200448009Y-155971980D01*
X201067057Y-156971980D02*
X201067057Y-155971980D01*
X201448009Y-155971980D01*
X201543247Y-156019600D01*
X201590866Y-156067219D01*
X201638485Y-156162457D01*
X201638485Y-156305314D01*
X201590866Y-156400552D01*
X201543247Y-156448171D01*
X201448009Y-156495790D01*
X201067057Y-156495790D01*
X202495628Y-155971980D02*
X202305152Y-155971980D01*
X202209914Y-156019600D01*
X202162295Y-156067219D01*
X202067057Y-156210076D01*
X202019438Y-156400552D01*
X202019438Y-156781504D01*
X202067057Y-156876742D01*
X202114676Y-156924361D01*
X202209914Y-156971980D01*
X202400390Y-156971980D01*
X202495628Y-156924361D01*
X202543247Y-156876742D01*
X202590866Y-156781504D01*
X202590866Y-156543409D01*
X202543247Y-156448171D01*
X202495628Y-156400552D01*
X202400390Y-156352933D01*
X202209914Y-156352933D01*
X202114676Y-156400552D01*
X202067057Y-156448171D01*
X202019438Y-156543409D01*
X244130580Y-149194933D02*
X244844866Y-149194933D01*
X244987723Y-149242552D01*
X245082961Y-149337790D01*
X245130580Y-149480647D01*
X245130580Y-149575885D01*
X244130580Y-148813980D02*
X244130580Y-148194933D01*
X244511533Y-148528266D01*
X244511533Y-148385409D01*
X244559152Y-148290171D01*
X244606771Y-148242552D01*
X244702009Y-148194933D01*
X244940104Y-148194933D01*
X245035342Y-148242552D01*
X245082961Y-148290171D01*
X245130580Y-148385409D01*
X245130580Y-148671123D01*
X245082961Y-148766361D01*
X245035342Y-148813980D01*
X165371342Y-156276742D02*
X165323723Y-156324361D01*
X165180866Y-156371980D01*
X165085628Y-156371980D01*
X164942771Y-156324361D01*
X164847533Y-156229123D01*
X164799914Y-156133885D01*
X164752295Y-155943409D01*
X164752295Y-155800552D01*
X164799914Y-155610076D01*
X164847533Y-155514838D01*
X164942771Y-155419600D01*
X165085628Y-155371980D01*
X165180866Y-155371980D01*
X165323723Y-155419600D01*
X165371342Y-155467219D01*
X166323723Y-156371980D02*
X165752295Y-156371980D01*
X166038009Y-156371980D02*
X166038009Y-155371980D01*
X165942771Y-155514838D01*
X165847533Y-155610076D01*
X165752295Y-155657695D01*
X166942771Y-155371980D02*
X167038009Y-155371980D01*
X167133247Y-155419600D01*
X167180866Y-155467219D01*
X167228485Y-155562457D01*
X167276104Y-155752933D01*
X167276104Y-155991028D01*
X167228485Y-156181504D01*
X167180866Y-156276742D01*
X167133247Y-156324361D01*
X167038009Y-156371980D01*
X166942771Y-156371980D01*
X166847533Y-156324361D01*
X166799914Y-156276742D01*
X166752295Y-156181504D01*
X166704676Y-155991028D01*
X166704676Y-155752933D01*
X166752295Y-155562457D01*
X166799914Y-155467219D01*
X166847533Y-155419600D01*
X166942771Y-155371980D01*
X172567200Y-151585180D02*
X172567200Y-151823276D01*
X172329104Y-151728038D02*
X172567200Y-151823276D01*
X172805295Y-151728038D01*
X172424342Y-152013752D02*
X172567200Y-151823276D01*
X172710057Y-152013752D01*
X172567200Y-151585180D02*
X172567200Y-151823276D01*
X172329104Y-151728038D02*
X172567200Y-151823276D01*
X172805295Y-151728038D01*
X172424342Y-152013752D02*
X172567200Y-151823276D01*
X172710057Y-152013752D01*
X233859342Y-112758457D02*
X233906961Y-112806076D01*
X233954580Y-112948933D01*
X233954580Y-113044171D01*
X233906961Y-113187028D01*
X233811723Y-113282266D01*
X233716485Y-113329885D01*
X233526009Y-113377504D01*
X233383152Y-113377504D01*
X233192676Y-113329885D01*
X233097438Y-113282266D01*
X233002200Y-113187028D01*
X232954580Y-113044171D01*
X232954580Y-112948933D01*
X233002200Y-112806076D01*
X233049819Y-112758457D01*
X232954580Y-111901314D02*
X232954580Y-112091790D01*
X233002200Y-112187028D01*
X233049819Y-112234647D01*
X233192676Y-112329885D01*
X233383152Y-112377504D01*
X233764104Y-112377504D01*
X233859342Y-112329885D01*
X233906961Y-112282266D01*
X233954580Y-112187028D01*
X233954580Y-111996552D01*
X233906961Y-111901314D01*
X233859342Y-111853695D01*
X233764104Y-111806076D01*
X233526009Y-111806076D01*
X233430771Y-111853695D01*
X233383152Y-111901314D01*
X233335533Y-111996552D01*
X233335533Y-112187028D01*
X233383152Y-112282266D01*
X233430771Y-112329885D01*
X233526009Y-112377504D01*
X232954580Y-111187028D02*
X232954580Y-111091790D01*
X233002200Y-110996552D01*
X233049819Y-110948933D01*
X233145057Y-110901314D01*
X233335533Y-110853695D01*
X233573628Y-110853695D01*
X233764104Y-110901314D01*
X233859342Y-110948933D01*
X233906961Y-110996552D01*
X233954580Y-111091790D01*
X233954580Y-111187028D01*
X233906961Y-111282266D01*
X233859342Y-111329885D01*
X233764104Y-111377504D01*
X233573628Y-111425123D01*
X233335533Y-111425123D01*
X233145057Y-111377504D01*
X233049819Y-111329885D01*
X233002200Y-111282266D01*
X232954580Y-111187028D01*
X245116580Y-120772933D02*
X245830866Y-120772933D01*
X245973723Y-120820552D01*
X246068961Y-120915790D01*
X246116580Y-121058647D01*
X246116580Y-121153885D01*
X246116580Y-119772933D02*
X246116580Y-120344361D01*
X246116580Y-120058647D02*
X245116580Y-120058647D01*
X245259438Y-120153885D01*
X245354676Y-120249123D01*
X245402295Y-120344361D01*
X159237295Y-155621980D02*
X159237295Y-154621980D01*
X159237295Y-155098171D02*
X159808723Y-155098171D01*
X159808723Y-155621980D02*
X159808723Y-154621980D01*
X160713485Y-154955314D02*
X160713485Y-155621980D01*
X160475390Y-154574361D02*
X160237295Y-155288647D01*
X160856342Y-155288647D01*
X159256295Y-110710980D02*
X159256295Y-109710980D01*
X159256295Y-110187171D02*
X159827723Y-110187171D01*
X159827723Y-110710980D02*
X159827723Y-109710980D01*
X160208676Y-109710980D02*
X160827723Y-109710980D01*
X160494390Y-110091933D01*
X160637247Y-110091933D01*
X160732485Y-110139552D01*
X160780104Y-110187171D01*
X160827723Y-110282409D01*
X160827723Y-110520504D01*
X160780104Y-110615742D01*
X160732485Y-110663361D01*
X160637247Y-110710980D01*
X160351533Y-110710980D01*
X160256295Y-110663361D01*
X160208676Y-110615742D01*
X235402295Y-110327980D02*
X235402295Y-109327980D01*
X235402295Y-109804171D02*
X235973723Y-109804171D01*
X235973723Y-110327980D02*
X235973723Y-109327980D01*
X236402295Y-109423219D02*
X236449914Y-109375600D01*
X236545152Y-109327980D01*
X236783247Y-109327980D01*
X236878485Y-109375600D01*
X236926104Y-109423219D01*
X236973723Y-109518457D01*
X236973723Y-109613695D01*
X236926104Y-109756552D01*
X236354676Y-110327980D01*
X236973723Y-110327980D01*
X231216295Y-159303980D02*
X231216295Y-158303980D01*
X231216295Y-158780171D02*
X231787723Y-158780171D01*
X231787723Y-159303980D02*
X231787723Y-158303980D01*
X232787723Y-159303980D02*
X232216295Y-159303980D01*
X232502009Y-159303980D02*
X232502009Y-158303980D01*
X232406771Y-158446838D01*
X232311533Y-158542076D01*
X232216295Y-158589695D01*
X240891342Y-143047980D02*
X240558009Y-142571790D01*
X240319914Y-143047980D02*
X240319914Y-142047980D01*
X240700866Y-142047980D01*
X240796104Y-142095600D01*
X240843723Y-142143219D01*
X240891342Y-142238457D01*
X240891342Y-142381314D01*
X240843723Y-142476552D01*
X240796104Y-142524171D01*
X240700866Y-142571790D01*
X240319914Y-142571790D01*
X241843723Y-143047980D02*
X241272295Y-143047980D01*
X241558009Y-143047980D02*
X241558009Y-142047980D01*
X241462771Y-142190838D01*
X241367533Y-142286076D01*
X241272295Y-142333695D01*
X242748485Y-142047980D02*
X242272295Y-142047980D01*
X242224676Y-142524171D01*
X242272295Y-142476552D01*
X242367533Y-142428933D01*
X242605628Y-142428933D01*
X242700866Y-142476552D01*
X242748485Y-142524171D01*
X242796104Y-142619409D01*
X242796104Y-142857504D01*
X242748485Y-142952742D01*
X242700866Y-143000361D01*
X242605628Y-143047980D01*
X242367533Y-143047980D01*
X242272295Y-143000361D01*
X242224676Y-142952742D01*
X237145533Y-140761980D02*
X236812200Y-140285790D01*
X236574104Y-140761980D02*
X236574104Y-139761980D01*
X236955057Y-139761980D01*
X237050295Y-139809600D01*
X237097914Y-139857219D01*
X237145533Y-139952457D01*
X237145533Y-140095314D01*
X237097914Y-140190552D01*
X237050295Y-140238171D01*
X236955057Y-140285790D01*
X236574104Y-140285790D01*
X237716961Y-140190552D02*
X237621723Y-140142933D01*
X237574104Y-140095314D01*
X237526485Y-140000076D01*
X237526485Y-139952457D01*
X237574104Y-139857219D01*
X237621723Y-139809600D01*
X237716961Y-139761980D01*
X237907438Y-139761980D01*
X238002676Y-139809600D01*
X238050295Y-139857219D01*
X238097914Y-139952457D01*
X238097914Y-140000076D01*
X238050295Y-140095314D01*
X238002676Y-140142933D01*
X237907438Y-140190552D01*
X237716961Y-140190552D01*
X237621723Y-140238171D01*
X237574104Y-140285790D01*
X237526485Y-140381028D01*
X237526485Y-140571504D01*
X237574104Y-140666742D01*
X237621723Y-140714361D01*
X237716961Y-140761980D01*
X237907438Y-140761980D01*
X238002676Y-140714361D01*
X238050295Y-140666742D01*
X238097914Y-140571504D01*
X238097914Y-140381028D01*
X238050295Y-140285790D01*
X238002676Y-140238171D01*
X237907438Y-140190552D01*
X243273342Y-140761980D02*
X242940009Y-140285790D01*
X242701914Y-140761980D02*
X242701914Y-139761980D01*
X243082866Y-139761980D01*
X243178104Y-139809600D01*
X243225723Y-139857219D01*
X243273342Y-139952457D01*
X243273342Y-140095314D01*
X243225723Y-140190552D01*
X243178104Y-140238171D01*
X243082866Y-140285790D01*
X242701914Y-140285790D01*
X244225723Y-140761980D02*
X243654295Y-140761980D01*
X243940009Y-140761980D02*
X243940009Y-139761980D01*
X243844771Y-139904838D01*
X243749533Y-140000076D01*
X243654295Y-140047695D01*
X245178104Y-140761980D02*
X244606676Y-140761980D01*
X244892390Y-140761980D02*
X244892390Y-139761980D01*
X244797152Y-139904838D01*
X244701914Y-140000076D01*
X244606676Y-140047695D01*
X228604866Y-143286171D02*
X228271533Y-143286171D01*
X228271533Y-143809980D02*
X228271533Y-142809980D01*
X228747723Y-142809980D01*
X229462009Y-143286171D02*
X229604866Y-143333790D01*
X229652485Y-143381409D01*
X229700104Y-143476647D01*
X229700104Y-143619504D01*
X229652485Y-143714742D01*
X229604866Y-143762361D01*
X229509628Y-143809980D01*
X229128676Y-143809980D01*
X229128676Y-142809980D01*
X229462009Y-142809980D01*
X229557247Y-142857600D01*
X229604866Y-142905219D01*
X229652485Y-143000457D01*
X229652485Y-143095695D01*
X229604866Y-143190933D01*
X229557247Y-143238552D01*
X229462009Y-143286171D01*
X229128676Y-143286171D01*
X230081057Y-142905219D02*
X230128676Y-142857600D01*
X230223914Y-142809980D01*
X230462009Y-142809980D01*
X230557247Y-142857600D01*
X230604866Y-142905219D01*
X230652485Y-143000457D01*
X230652485Y-143095695D01*
X230604866Y-143238552D01*
X230033438Y-143809980D01*
X230652485Y-143809980D01*
X225985342Y-150382266D02*
X226032961Y-150429885D01*
X226080580Y-150572742D01*
X226080580Y-150667980D01*
X226032961Y-150810838D01*
X225937723Y-150906076D01*
X225842485Y-150953695D01*
X225652009Y-151001314D01*
X225509152Y-151001314D01*
X225318676Y-150953695D01*
X225223438Y-150906076D01*
X225128200Y-150810838D01*
X225080580Y-150667980D01*
X225080580Y-150572742D01*
X225128200Y-150429885D01*
X225175819Y-150382266D01*
X225080580Y-150048933D02*
X225080580Y-149429885D01*
X225461533Y-149763219D01*
X225461533Y-149620361D01*
X225509152Y-149525123D01*
X225556771Y-149477504D01*
X225652009Y-149429885D01*
X225890104Y-149429885D01*
X225985342Y-149477504D01*
X226032961Y-149525123D01*
X226080580Y-149620361D01*
X226080580Y-149906076D01*
X226032961Y-150001314D01*
X225985342Y-150048933D01*
X233859342Y-150336266D02*
X233906961Y-150383885D01*
X233954580Y-150526742D01*
X233954580Y-150621980D01*
X233906961Y-150764838D01*
X233811723Y-150860076D01*
X233716485Y-150907695D01*
X233526009Y-150955314D01*
X233383152Y-150955314D01*
X233192676Y-150907695D01*
X233097438Y-150860076D01*
X233002200Y-150764838D01*
X232954580Y-150621980D01*
X232954580Y-150526742D01*
X233002200Y-150383885D01*
X233049819Y-150336266D01*
X232954580Y-150002933D02*
X232954580Y-149336266D01*
X233954580Y-149764838D01*
X233859342Y-152922266D02*
X233906961Y-152969885D01*
X233954580Y-153112742D01*
X233954580Y-153207980D01*
X233906961Y-153350838D01*
X233811723Y-153446076D01*
X233716485Y-153493695D01*
X233526009Y-153541314D01*
X233383152Y-153541314D01*
X233192676Y-153493695D01*
X233097438Y-153446076D01*
X233002200Y-153350838D01*
X232954580Y-153207980D01*
X232954580Y-153112742D01*
X233002200Y-152969885D01*
X233049819Y-152922266D01*
X233383152Y-152350838D02*
X233335533Y-152446076D01*
X233287914Y-152493695D01*
X233192676Y-152541314D01*
X233145057Y-152541314D01*
X233049819Y-152493695D01*
X233002200Y-152446076D01*
X232954580Y-152350838D01*
X232954580Y-152160361D01*
X233002200Y-152065123D01*
X233049819Y-152017504D01*
X233145057Y-151969885D01*
X233192676Y-151969885D01*
X233287914Y-152017504D01*
X233335533Y-152065123D01*
X233383152Y-152160361D01*
X233383152Y-152350838D01*
X233430771Y-152446076D01*
X233478390Y-152493695D01*
X233573628Y-152541314D01*
X233764104Y-152541314D01*
X233859342Y-152493695D01*
X233906961Y-152446076D01*
X233954580Y-152350838D01*
X233954580Y-152160361D01*
X233906961Y-152065123D01*
X233859342Y-152017504D01*
X233764104Y-151969885D01*
X233573628Y-151969885D01*
X233478390Y-152017504D01*
X233430771Y-152065123D01*
X233383152Y-152160361D01*
X225985342Y-148096266D02*
X226032961Y-148143885D01*
X226080580Y-148286742D01*
X226080580Y-148381980D01*
X226032961Y-148524838D01*
X225937723Y-148620076D01*
X225842485Y-148667695D01*
X225652009Y-148715314D01*
X225509152Y-148715314D01*
X225318676Y-148667695D01*
X225223438Y-148620076D01*
X225128200Y-148524838D01*
X225080580Y-148381980D01*
X225080580Y-148286742D01*
X225128200Y-148143885D01*
X225175819Y-148096266D01*
X225080580Y-147191504D02*
X225080580Y-147667695D01*
X225556771Y-147715314D01*
X225509152Y-147667695D01*
X225461533Y-147572457D01*
X225461533Y-147334361D01*
X225509152Y-147239123D01*
X225556771Y-147191504D01*
X225652009Y-147143885D01*
X225890104Y-147143885D01*
X225985342Y-147191504D01*
X226032961Y-147239123D01*
X226080580Y-147334361D01*
X226080580Y-147572457D01*
X226032961Y-147667695D01*
X225985342Y-147715314D01*
X233859342Y-148096266D02*
X233906961Y-148143885D01*
X233954580Y-148286742D01*
X233954580Y-148381980D01*
X233906961Y-148524838D01*
X233811723Y-148620076D01*
X233716485Y-148667695D01*
X233526009Y-148715314D01*
X233383152Y-148715314D01*
X233192676Y-148667695D01*
X233097438Y-148620076D01*
X233002200Y-148524838D01*
X232954580Y-148381980D01*
X232954580Y-148286742D01*
X233002200Y-148143885D01*
X233049819Y-148096266D01*
X233954580Y-147620076D02*
X233954580Y-147429600D01*
X233906961Y-147334361D01*
X233859342Y-147286742D01*
X233716485Y-147191504D01*
X233526009Y-147143885D01*
X233145057Y-147143885D01*
X233049819Y-147191504D01*
X233002200Y-147239123D01*
X232954580Y-147334361D01*
X232954580Y-147524838D01*
X233002200Y-147620076D01*
X233049819Y-147667695D01*
X233145057Y-147715314D01*
X233383152Y-147715314D01*
X233478390Y-147667695D01*
X233526009Y-147620076D01*
X233573628Y-147524838D01*
X233573628Y-147334361D01*
X233526009Y-147239123D01*
X233478390Y-147191504D01*
X233383152Y-147143885D01*
X228858866Y-145826171D02*
X228525533Y-145826171D01*
X228525533Y-146349980D02*
X228525533Y-145349980D01*
X229001723Y-145349980D01*
X229716009Y-145826171D02*
X229858866Y-145873790D01*
X229906485Y-145921409D01*
X229954104Y-146016647D01*
X229954104Y-146159504D01*
X229906485Y-146254742D01*
X229858866Y-146302361D01*
X229763628Y-146349980D01*
X229382676Y-146349980D01*
X229382676Y-145349980D01*
X229716009Y-145349980D01*
X229811247Y-145397600D01*
X229858866Y-145445219D01*
X229906485Y-145540457D01*
X229906485Y-145635695D01*
X229858866Y-145730933D01*
X229811247Y-145778552D01*
X229716009Y-145826171D01*
X229382676Y-145826171D01*
X230906485Y-146349980D02*
X230335057Y-146349980D01*
X230620771Y-146349980D02*
X230620771Y-145349980D01*
X230525533Y-145492838D01*
X230430295Y-145588076D01*
X230335057Y-145635695D01*
X233605342Y-156016266D02*
X233652961Y-156063885D01*
X233700580Y-156206742D01*
X233700580Y-156301980D01*
X233652961Y-156444838D01*
X233557723Y-156540076D01*
X233462485Y-156587695D01*
X233272009Y-156635314D01*
X233129152Y-156635314D01*
X232938676Y-156587695D01*
X232843438Y-156540076D01*
X232748200Y-156444838D01*
X232700580Y-156301980D01*
X232700580Y-156206742D01*
X232748200Y-156063885D01*
X232795819Y-156016266D01*
X232700580Y-155159123D02*
X232700580Y-155349600D01*
X232748200Y-155444838D01*
X232795819Y-155492457D01*
X232938676Y-155587695D01*
X233129152Y-155635314D01*
X233510104Y-155635314D01*
X233605342Y-155587695D01*
X233652961Y-155540076D01*
X233700580Y-155444838D01*
X233700580Y-155254361D01*
X233652961Y-155159123D01*
X233605342Y-155111504D01*
X233510104Y-155063885D01*
X233272009Y-155063885D01*
X233176771Y-155111504D01*
X233129152Y-155159123D01*
X233081533Y-155254361D01*
X233081533Y-155444838D01*
X233129152Y-155540076D01*
X233176771Y-155587695D01*
X233272009Y-155635314D01*
X244892580Y-136245504D02*
X245702104Y-136245504D01*
X245797342Y-136197885D01*
X245844961Y-136150266D01*
X245892580Y-136055028D01*
X245892580Y-135864552D01*
X245844961Y-135769314D01*
X245797342Y-135721695D01*
X245702104Y-135674076D01*
X244892580Y-135674076D01*
X244987819Y-135245504D02*
X244940200Y-135197885D01*
X244892580Y-135102647D01*
X244892580Y-134864552D01*
X244940200Y-134769314D01*
X244987819Y-134721695D01*
X245083057Y-134674076D01*
X245178295Y-134674076D01*
X245321152Y-134721695D01*
X245892580Y-135293123D01*
X245892580Y-134674076D01*
X244384580Y-132435600D02*
X244622676Y-132435600D01*
X244527438Y-132673695D02*
X244622676Y-132435600D01*
X244527438Y-132197504D01*
X244813152Y-132578457D02*
X244622676Y-132435600D01*
X244813152Y-132292742D01*
X244384580Y-132435600D02*
X244622676Y-132435600D01*
X244527438Y-132673695D02*
X244622676Y-132435600D01*
X244527438Y-132197504D01*
X244813152Y-132578457D02*
X244622676Y-132435600D01*
X244813152Y-132292742D01*
X244386580Y-132429600D02*
X244624676Y-132429600D01*
X244529438Y-132667695D02*
X244624676Y-132429600D01*
X244529438Y-132191504D01*
X244815152Y-132572457D02*
X244624676Y-132429600D01*
X244815152Y-132286742D01*
X228604866Y-142016171D02*
X228271533Y-142016171D01*
X228271533Y-142539980D02*
X228271533Y-141539980D01*
X228747723Y-141539980D01*
X229462009Y-142016171D02*
X229604866Y-142063790D01*
X229652485Y-142111409D01*
X229700104Y-142206647D01*
X229700104Y-142349504D01*
X229652485Y-142444742D01*
X229604866Y-142492361D01*
X229509628Y-142539980D01*
X229128676Y-142539980D01*
X229128676Y-141539980D01*
X229462009Y-141539980D01*
X229557247Y-141587600D01*
X229604866Y-141635219D01*
X229652485Y-141730457D01*
X229652485Y-141825695D01*
X229604866Y-141920933D01*
X229557247Y-141968552D01*
X229462009Y-142016171D01*
X229128676Y-142016171D01*
X230557247Y-141873314D02*
X230557247Y-142539980D01*
X230319152Y-141492361D02*
X230081057Y-142206647D01*
X230700104Y-142206647D01*
X227811342Y-158932457D02*
X227858961Y-158980076D01*
X227906580Y-159122933D01*
X227906580Y-159218171D01*
X227858961Y-159361028D01*
X227763723Y-159456266D01*
X227668485Y-159503885D01*
X227478009Y-159551504D01*
X227335152Y-159551504D01*
X227144676Y-159503885D01*
X227049438Y-159456266D01*
X226954200Y-159361028D01*
X226906580Y-159218171D01*
X226906580Y-159122933D01*
X226954200Y-158980076D01*
X227001819Y-158932457D01*
X227001819Y-158551504D02*
X226954200Y-158503885D01*
X226906580Y-158408647D01*
X226906580Y-158170552D01*
X226954200Y-158075314D01*
X227001819Y-158027695D01*
X227097057Y-157980076D01*
X227192295Y-157980076D01*
X227335152Y-158027695D01*
X227906580Y-158599123D01*
X227906580Y-157980076D01*
X227906580Y-157503885D02*
X227906580Y-157313409D01*
X227858961Y-157218171D01*
X227811342Y-157170552D01*
X227668485Y-157075314D01*
X227478009Y-157027695D01*
X227097057Y-157027695D01*
X227001819Y-157075314D01*
X226954200Y-157122933D01*
X226906580Y-157218171D01*
X226906580Y-157408647D01*
X226954200Y-157503885D01*
X227001819Y-157551504D01*
X227097057Y-157599123D01*
X227335152Y-157599123D01*
X227430390Y-157551504D01*
X227478009Y-157503885D01*
X227525628Y-157408647D01*
X227525628Y-157218171D01*
X227478009Y-157122933D01*
X227430390Y-157075314D01*
X227335152Y-157027695D01*
X228382676Y-144556171D02*
X228049342Y-144556171D01*
X228049342Y-145079980D02*
X228049342Y-144079980D01*
X228525533Y-144079980D01*
X229239819Y-144556171D02*
X229382676Y-144603790D01*
X229430295Y-144651409D01*
X229477914Y-144746647D01*
X229477914Y-144889504D01*
X229430295Y-144984742D01*
X229382676Y-145032361D01*
X229287438Y-145079980D01*
X228906485Y-145079980D01*
X228906485Y-144079980D01*
X229239819Y-144079980D01*
X229335057Y-144127600D01*
X229382676Y-144175219D01*
X229430295Y-144270457D01*
X229430295Y-144365695D01*
X229382676Y-144460933D01*
X229335057Y-144508552D01*
X229239819Y-144556171D01*
X228906485Y-144556171D01*
X230430295Y-145079980D02*
X229858866Y-145079980D01*
X230144580Y-145079980D02*
X230144580Y-144079980D01*
X230049342Y-144222838D01*
X229954104Y-144318076D01*
X229858866Y-144365695D01*
X230811247Y-144175219D02*
X230858866Y-144127600D01*
X230954104Y-144079980D01*
X231192200Y-144079980D01*
X231287438Y-144127600D01*
X231335057Y-144175219D01*
X231382676Y-144270457D01*
X231382676Y-144365695D01*
X231335057Y-144508552D01*
X230763628Y-145079980D01*
X231382676Y-145079980D01*
X226493342Y-118346457D02*
X226540961Y-118394076D01*
X226588580Y-118536933D01*
X226588580Y-118632171D01*
X226540961Y-118775028D01*
X226445723Y-118870266D01*
X226350485Y-118917885D01*
X226160009Y-118965504D01*
X226017152Y-118965504D01*
X225826676Y-118917885D01*
X225731438Y-118870266D01*
X225636200Y-118775028D01*
X225588580Y-118632171D01*
X225588580Y-118536933D01*
X225636200Y-118394076D01*
X225683819Y-118346457D01*
X225588580Y-117441695D02*
X225588580Y-117917885D01*
X226064771Y-117965504D01*
X226017152Y-117917885D01*
X225969533Y-117822647D01*
X225969533Y-117584552D01*
X226017152Y-117489314D01*
X226064771Y-117441695D01*
X226160009Y-117394076D01*
X226398104Y-117394076D01*
X226493342Y-117441695D01*
X226540961Y-117489314D01*
X226588580Y-117584552D01*
X226588580Y-117822647D01*
X226540961Y-117917885D01*
X226493342Y-117965504D01*
X226588580Y-116917885D02*
X226588580Y-116727409D01*
X226540961Y-116632171D01*
X226493342Y-116584552D01*
X226350485Y-116489314D01*
X226160009Y-116441695D01*
X225779057Y-116441695D01*
X225683819Y-116489314D01*
X225636200Y-116536933D01*
X225588580Y-116632171D01*
X225588580Y-116822647D01*
X225636200Y-116917885D01*
X225683819Y-116965504D01*
X225779057Y-117013123D01*
X226017152Y-117013123D01*
X226112390Y-116965504D01*
X226160009Y-116917885D01*
X226207628Y-116822647D01*
X226207628Y-116632171D01*
X226160009Y-116536933D01*
X226112390Y-116489314D01*
X226017152Y-116441695D01*
X226493342Y-115330266D02*
X226540961Y-115377885D01*
X226588580Y-115520742D01*
X226588580Y-115615980D01*
X226540961Y-115758838D01*
X226445723Y-115854076D01*
X226350485Y-115901695D01*
X226160009Y-115949314D01*
X226017152Y-115949314D01*
X225826676Y-115901695D01*
X225731438Y-115854076D01*
X225636200Y-115758838D01*
X225588580Y-115615980D01*
X225588580Y-115520742D01*
X225636200Y-115377885D01*
X225683819Y-115330266D01*
X225921914Y-114473123D02*
X226588580Y-114473123D01*
X225540961Y-114711219D02*
X226255247Y-114949314D01*
X226255247Y-114330266D01*
X231224295Y-129347980D02*
X231795723Y-129347980D01*
X231510009Y-130347980D02*
X231510009Y-129347980D01*
X232129057Y-130347980D02*
X232129057Y-129347980D01*
X232510009Y-129347980D01*
X232605247Y-129395600D01*
X232652866Y-129443219D01*
X232700485Y-129538457D01*
X232700485Y-129681314D01*
X232652866Y-129776552D01*
X232605247Y-129824171D01*
X232510009Y-129871790D01*
X232129057Y-129871790D01*
X233652866Y-130347980D02*
X233081438Y-130347980D01*
X233367152Y-130347980D02*
X233367152Y-129347980D01*
X233271914Y-129490838D01*
X233176676Y-129586076D01*
X233081438Y-129633695D01*
X213596496Y-119695980D02*
X213596496Y-120505504D01*
X213644115Y-120600742D01*
X213691734Y-120648361D01*
X213786972Y-120695980D01*
X213977448Y-120695980D01*
X214072686Y-120648361D01*
X214120305Y-120600742D01*
X214167924Y-120505504D01*
X214167924Y-119695980D01*
X214548877Y-119695980D02*
X215215543Y-119695980D01*
X214786972Y-120695980D01*
X209468901Y-135376781D02*
X209468901Y-135614877D01*
X209230805Y-135519639D02*
X209468901Y-135614877D01*
X209706996Y-135519639D01*
X209326043Y-135805353D02*
X209468901Y-135614877D01*
X209611758Y-135805353D01*
X209468901Y-135376781D02*
X209468901Y-135614877D01*
X209230805Y-135519639D02*
X209468901Y-135614877D01*
X209706996Y-135519639D01*
X209326043Y-135805353D02*
X209468901Y-135614877D01*
X209611758Y-135805353D01*
X199913542Y-127208657D02*
X199961161Y-127256276D01*
X200008780Y-127399133D01*
X200008780Y-127494371D01*
X199961161Y-127637228D01*
X199865923Y-127732466D01*
X199770685Y-127780085D01*
X199580209Y-127827704D01*
X199437352Y-127827704D01*
X199246876Y-127780085D01*
X199151638Y-127732466D01*
X199056400Y-127637228D01*
X199008780Y-127494371D01*
X199008780Y-127399133D01*
X199056400Y-127256276D01*
X199104019Y-127208657D01*
X199342114Y-126351514D02*
X200008780Y-126351514D01*
X198961161Y-126589609D02*
X199675447Y-126827704D01*
X199675447Y-126208657D01*
X199437352Y-125684847D02*
X199389733Y-125780085D01*
X199342114Y-125827704D01*
X199246876Y-125875323D01*
X199199257Y-125875323D01*
X199104019Y-125827704D01*
X199056400Y-125780085D01*
X199008780Y-125684847D01*
X199008780Y-125494371D01*
X199056400Y-125399133D01*
X199104019Y-125351514D01*
X199199257Y-125303895D01*
X199246876Y-125303895D01*
X199342114Y-125351514D01*
X199389733Y-125399133D01*
X199437352Y-125494371D01*
X199437352Y-125684847D01*
X199484971Y-125780085D01*
X199532590Y-125827704D01*
X199627828Y-125875323D01*
X199818304Y-125875323D01*
X199913542Y-125827704D01*
X199961161Y-125780085D01*
X200008780Y-125684847D01*
X200008780Y-125494371D01*
X199961161Y-125399133D01*
X199913542Y-125351514D01*
X199818304Y-125303895D01*
X199627828Y-125303895D01*
X199532590Y-125351514D01*
X199484971Y-125399133D01*
X199437352Y-125494371D01*
X196013342Y-139384066D02*
X196060961Y-139431685D01*
X196108580Y-139574542D01*
X196108580Y-139669780D01*
X196060961Y-139812638D01*
X195965723Y-139907876D01*
X195870485Y-139955495D01*
X195680009Y-140003114D01*
X195537152Y-140003114D01*
X195346676Y-139955495D01*
X195251438Y-139907876D01*
X195156200Y-139812638D01*
X195108580Y-139669780D01*
X195108580Y-139574542D01*
X195156200Y-139431685D01*
X195203819Y-139384066D01*
X196108580Y-138431685D02*
X196108580Y-139003114D01*
X196108580Y-138717400D02*
X195108580Y-138717400D01*
X195251438Y-138812638D01*
X195346676Y-138907876D01*
X195394295Y-139003114D01*
X175776580Y-112331504D02*
X176586104Y-112331504D01*
X176681342Y-112283885D01*
X176728961Y-112236266D01*
X176776580Y-112141028D01*
X176776580Y-111950552D01*
X176728961Y-111855314D01*
X176681342Y-111807695D01*
X176586104Y-111760076D01*
X175776580Y-111760076D01*
X176776580Y-111236266D02*
X176776580Y-111045790D01*
X176728961Y-110950552D01*
X176681342Y-110902933D01*
X176538485Y-110807695D01*
X176348009Y-110760076D01*
X175967057Y-110760076D01*
X175871819Y-110807695D01*
X175824200Y-110855314D01*
X175776580Y-110950552D01*
X175776580Y-111141028D01*
X175824200Y-111236266D01*
X175871819Y-111283885D01*
X175967057Y-111331504D01*
X176205152Y-111331504D01*
X176300390Y-111283885D01*
X176348009Y-111236266D01*
X176395628Y-111141028D01*
X176395628Y-110950552D01*
X176348009Y-110855314D01*
X176300390Y-110807695D01*
X176205152Y-110760076D01*
X207594295Y-118425980D02*
X207594295Y-119235504D01*
X207641914Y-119330742D01*
X207689533Y-119378361D01*
X207784771Y-119425980D01*
X207975247Y-119425980D01*
X208070485Y-119378361D01*
X208118104Y-119330742D01*
X208165723Y-119235504D01*
X208165723Y-118425980D01*
X208784771Y-118854552D02*
X208689533Y-118806933D01*
X208641914Y-118759314D01*
X208594295Y-118664076D01*
X208594295Y-118616457D01*
X208641914Y-118521219D01*
X208689533Y-118473600D01*
X208784771Y-118425980D01*
X208975247Y-118425980D01*
X209070485Y-118473600D01*
X209118104Y-118521219D01*
X209165723Y-118616457D01*
X209165723Y-118664076D01*
X209118104Y-118759314D01*
X209070485Y-118806933D01*
X208975247Y-118854552D01*
X208784771Y-118854552D01*
X208689533Y-118902171D01*
X208641914Y-118949790D01*
X208594295Y-119045028D01*
X208594295Y-119235504D01*
X208641914Y-119330742D01*
X208689533Y-119378361D01*
X208784771Y-119425980D01*
X208975247Y-119425980D01*
X209070485Y-119378361D01*
X209118104Y-119330742D01*
X209165723Y-119235504D01*
X209165723Y-119045028D01*
X209118104Y-118949790D01*
X209070485Y-118902171D01*
X208975247Y-118854552D01*
X205816200Y-114615980D02*
X205816200Y-114854076D01*
X205578104Y-114758838D02*
X205816200Y-114854076D01*
X206054295Y-114758838D01*
X205673342Y-115044552D02*
X205816200Y-114854076D01*
X205959057Y-115044552D01*
X205816200Y-114615980D02*
X205816200Y-114854076D01*
X205578104Y-114758838D02*
X205816200Y-114854076D01*
X206054295Y-114758838D01*
X205673342Y-115044552D02*
X205816200Y-114854076D01*
X205959057Y-115044552D01*
X174236104Y-136671980D02*
X174236104Y-137481504D01*
X174283723Y-137576742D01*
X174331342Y-137624361D01*
X174426580Y-137671980D01*
X174617057Y-137671980D01*
X174712295Y-137624361D01*
X174759914Y-137576742D01*
X174807533Y-137481504D01*
X174807533Y-136671980D01*
X175807533Y-137671980D02*
X175236104Y-137671980D01*
X175521819Y-137671980D02*
X175521819Y-136671980D01*
X175426580Y-136814838D01*
X175331342Y-136910076D01*
X175236104Y-136957695D01*
X176426580Y-136671980D02*
X176521819Y-136671980D01*
X176617057Y-136719600D01*
X176664676Y-136767219D01*
X176712295Y-136862457D01*
X176759914Y-137052933D01*
X176759914Y-137291028D01*
X176712295Y-137481504D01*
X176664676Y-137576742D01*
X176617057Y-137624361D01*
X176521819Y-137671980D01*
X176426580Y-137671980D01*
X176331342Y-137624361D01*
X176283723Y-137576742D01*
X176236104Y-137481504D01*
X176188485Y-137291028D01*
X176188485Y-137052933D01*
X176236104Y-136862457D01*
X176283723Y-136767219D01*
X176331342Y-136719600D01*
X176426580Y-136671980D01*
X176086104Y-123746980D02*
X176086104Y-124556504D01*
X176133723Y-124651742D01*
X176181342Y-124699361D01*
X176276580Y-124746980D01*
X176467057Y-124746980D01*
X176562295Y-124699361D01*
X176609914Y-124651742D01*
X176657533Y-124556504D01*
X176657533Y-123746980D01*
X177657533Y-124746980D02*
X177086104Y-124746980D01*
X177371819Y-124746980D02*
X177371819Y-123746980D01*
X177276580Y-123889838D01*
X177181342Y-123985076D01*
X177086104Y-124032695D01*
X178609914Y-124746980D02*
X178038485Y-124746980D01*
X178324200Y-124746980D02*
X178324200Y-123746980D01*
X178228961Y-123889838D01*
X178133723Y-123985076D01*
X178038485Y-124032695D01*
X174386104Y-149021980D02*
X174386104Y-149831504D01*
X174433723Y-149926742D01*
X174481342Y-149974361D01*
X174576580Y-150021980D01*
X174767057Y-150021980D01*
X174862295Y-149974361D01*
X174909914Y-149926742D01*
X174957533Y-149831504D01*
X174957533Y-149021980D01*
X175957533Y-150021980D02*
X175386104Y-150021980D01*
X175671819Y-150021980D02*
X175671819Y-149021980D01*
X175576580Y-149164838D01*
X175481342Y-149260076D01*
X175386104Y-149307695D01*
X176338485Y-149117219D02*
X176386104Y-149069600D01*
X176481342Y-149021980D01*
X176719438Y-149021980D01*
X176814676Y-149069600D01*
X176862295Y-149117219D01*
X176909914Y-149212457D01*
X176909914Y-149307695D01*
X176862295Y-149450552D01*
X176290866Y-150021980D01*
X176909914Y-150021980D01*
X174185342Y-140761980D02*
X173852009Y-140285790D01*
X173613914Y-140761980D02*
X173613914Y-139761980D01*
X173994866Y-139761980D01*
X174090104Y-139809600D01*
X174137723Y-139857219D01*
X174185342Y-139952457D01*
X174185342Y-140095314D01*
X174137723Y-140190552D01*
X174090104Y-140238171D01*
X173994866Y-140285790D01*
X173613914Y-140285790D01*
X174518676Y-139761980D02*
X175137723Y-139761980D01*
X174804390Y-140142933D01*
X174947247Y-140142933D01*
X175042485Y-140190552D01*
X175090104Y-140238171D01*
X175137723Y-140333409D01*
X175137723Y-140571504D01*
X175090104Y-140666742D01*
X175042485Y-140714361D01*
X174947247Y-140761980D01*
X174661533Y-140761980D01*
X174566295Y-140714361D01*
X174518676Y-140666742D01*
X175709152Y-140190552D02*
X175613914Y-140142933D01*
X175566295Y-140095314D01*
X175518676Y-140000076D01*
X175518676Y-139952457D01*
X175566295Y-139857219D01*
X175613914Y-139809600D01*
X175709152Y-139761980D01*
X175899628Y-139761980D01*
X175994866Y-139809600D01*
X176042485Y-139857219D01*
X176090104Y-139952457D01*
X176090104Y-140000076D01*
X176042485Y-140095314D01*
X175994866Y-140142933D01*
X175899628Y-140190552D01*
X175709152Y-140190552D01*
X175613914Y-140238171D01*
X175566295Y-140285790D01*
X175518676Y-140381028D01*
X175518676Y-140571504D01*
X175566295Y-140666742D01*
X175613914Y-140714361D01*
X175709152Y-140761980D01*
X175899628Y-140761980D01*
X175994866Y-140714361D01*
X176042485Y-140666742D01*
X176090104Y-140571504D01*
X176090104Y-140381028D01*
X176042485Y-140285790D01*
X175994866Y-140238171D01*
X175899628Y-140190552D01*
X173931342Y-132633980D02*
X173598009Y-132157790D01*
X173359914Y-132633980D02*
X173359914Y-131633980D01*
X173740866Y-131633980D01*
X173836104Y-131681600D01*
X173883723Y-131729219D01*
X173931342Y-131824457D01*
X173931342Y-131967314D01*
X173883723Y-132062552D01*
X173836104Y-132110171D01*
X173740866Y-132157790D01*
X173359914Y-132157790D01*
X174264676Y-131633980D02*
X174883723Y-131633980D01*
X174550390Y-132014933D01*
X174693247Y-132014933D01*
X174788485Y-132062552D01*
X174836104Y-132110171D01*
X174883723Y-132205409D01*
X174883723Y-132443504D01*
X174836104Y-132538742D01*
X174788485Y-132586361D01*
X174693247Y-132633980D01*
X174407533Y-132633980D01*
X174312295Y-132586361D01*
X174264676Y-132538742D01*
X175264676Y-131729219D02*
X175312295Y-131681600D01*
X175407533Y-131633980D01*
X175645628Y-131633980D01*
X175740866Y-131681600D01*
X175788485Y-131729219D01*
X175836104Y-131824457D01*
X175836104Y-131919695D01*
X175788485Y-132062552D01*
X175217057Y-132633980D01*
X175836104Y-132633980D01*
X174501342Y-134451980D02*
X174168009Y-133975790D01*
X173929914Y-134451980D02*
X173929914Y-133451980D01*
X174310866Y-133451980D01*
X174406104Y-133499600D01*
X174453723Y-133547219D01*
X174501342Y-133642457D01*
X174501342Y-133785314D01*
X174453723Y-133880552D01*
X174406104Y-133928171D01*
X174310866Y-133975790D01*
X173929914Y-133975790D01*
X174834676Y-133451980D02*
X175453723Y-133451980D01*
X175120390Y-133832933D01*
X175263247Y-133832933D01*
X175358485Y-133880552D01*
X175406104Y-133928171D01*
X175453723Y-134023409D01*
X175453723Y-134261504D01*
X175406104Y-134356742D01*
X175358485Y-134404361D01*
X175263247Y-134451980D01*
X174977533Y-134451980D01*
X174882295Y-134404361D01*
X174834676Y-134356742D01*
X176358485Y-133451980D02*
X175882295Y-133451980D01*
X175834676Y-133928171D01*
X175882295Y-133880552D01*
X175977533Y-133832933D01*
X176215628Y-133832933D01*
X176310866Y-133880552D01*
X176358485Y-133928171D01*
X176406104Y-134023409D01*
X176406104Y-134261504D01*
X176358485Y-134356742D01*
X176310866Y-134404361D01*
X176215628Y-134451980D01*
X175977533Y-134451980D01*
X175882295Y-134404361D01*
X175834676Y-134356742D01*
X174185342Y-139237980D02*
X173852009Y-138761790D01*
X173613914Y-139237980D02*
X173613914Y-138237980D01*
X173994866Y-138237980D01*
X174090104Y-138285600D01*
X174137723Y-138333219D01*
X174185342Y-138428457D01*
X174185342Y-138571314D01*
X174137723Y-138666552D01*
X174090104Y-138714171D01*
X173994866Y-138761790D01*
X173613914Y-138761790D01*
X175042485Y-138571314D02*
X175042485Y-139237980D01*
X174804390Y-138190361D02*
X174566295Y-138904647D01*
X175185342Y-138904647D01*
X175756771Y-138237980D02*
X175852009Y-138237980D01*
X175947247Y-138285600D01*
X175994866Y-138333219D01*
X176042485Y-138428457D01*
X176090104Y-138618933D01*
X176090104Y-138857028D01*
X176042485Y-139047504D01*
X175994866Y-139142742D01*
X175947247Y-139190361D01*
X175852009Y-139237980D01*
X175756771Y-139237980D01*
X175661533Y-139190361D01*
X175613914Y-139142742D01*
X175566295Y-139047504D01*
X175518676Y-138857028D01*
X175518676Y-138618933D01*
X175566295Y-138428457D01*
X175613914Y-138333219D01*
X175661533Y-138285600D01*
X175756771Y-138237980D01*
X213628596Y-138237980D02*
X213628596Y-139047504D01*
X213676215Y-139142742D01*
X213723834Y-139190361D01*
X213819072Y-139237980D01*
X214009548Y-139237980D01*
X214104786Y-139190361D01*
X214152405Y-139142742D01*
X214200024Y-139047504D01*
X214200024Y-138237980D01*
X215104786Y-138237980D02*
X214914310Y-138237980D01*
X214819072Y-138285600D01*
X214771453Y-138333219D01*
X214676215Y-138476076D01*
X214628596Y-138666552D01*
X214628596Y-139047504D01*
X214676215Y-139142742D01*
X214723834Y-139190361D01*
X214819072Y-139237980D01*
X215009548Y-139237980D01*
X215104786Y-139190361D01*
X215152405Y-139142742D01*
X215200024Y-139047504D01*
X215200024Y-138809409D01*
X215152405Y-138714171D01*
X215104786Y-138666552D01*
X215009548Y-138618933D01*
X214819072Y-138618933D01*
X214723834Y-138666552D01*
X214676215Y-138714171D01*
X214628596Y-138809409D01*
X209501001Y-154147381D02*
X209501001Y-154385477D01*
X209262905Y-154290239D02*
X209501001Y-154385477D01*
X209739096Y-154290239D01*
X209358143Y-154575953D02*
X209501001Y-154385477D01*
X209643858Y-154575953D01*
X209501001Y-154147381D02*
X209501001Y-154385477D01*
X209262905Y-154290239D02*
X209501001Y-154385477D01*
X209739096Y-154290239D01*
X209358143Y-154575953D02*
X209501001Y-154385477D01*
X209643858Y-154575953D01*
X196327176Y-141254171D02*
X195993842Y-141254171D01*
X195993842Y-141777980D02*
X195993842Y-140777980D01*
X196470033Y-140777980D01*
X197184319Y-141254171D02*
X197327176Y-141301790D01*
X197374795Y-141349409D01*
X197422414Y-141444647D01*
X197422414Y-141587504D01*
X197374795Y-141682742D01*
X197327176Y-141730361D01*
X197231938Y-141777980D01*
X196850985Y-141777980D01*
X196850985Y-140777980D01*
X197184319Y-140777980D01*
X197279557Y-140825600D01*
X197327176Y-140873219D01*
X197374795Y-140968457D01*
X197374795Y-141063695D01*
X197327176Y-141158933D01*
X197279557Y-141206552D01*
X197184319Y-141254171D01*
X196850985Y-141254171D01*
X198374795Y-141777980D02*
X197803366Y-141777980D01*
X198089080Y-141777980D02*
X198089080Y-140777980D01*
X197993842Y-140920838D01*
X197898604Y-141016076D01*
X197803366Y-141063695D01*
X198708128Y-140777980D02*
X199374795Y-140777980D01*
X198946223Y-141777980D01*
X202807723Y-128300171D02*
X203141057Y-128300171D01*
X203141057Y-128823980D02*
X203141057Y-127823980D01*
X202664866Y-127823980D01*
X201950580Y-128300171D02*
X201807723Y-128347790D01*
X201760104Y-128395409D01*
X201712485Y-128490647D01*
X201712485Y-128633504D01*
X201760104Y-128728742D01*
X201807723Y-128776361D01*
X201902961Y-128823980D01*
X202283914Y-128823980D01*
X202283914Y-127823980D01*
X201950580Y-127823980D01*
X201855342Y-127871600D01*
X201807723Y-127919219D01*
X201760104Y-128014457D01*
X201760104Y-128109695D01*
X201807723Y-128204933D01*
X201855342Y-128252552D01*
X201950580Y-128300171D01*
X202283914Y-128300171D01*
X200760104Y-128823980D02*
X201331533Y-128823980D01*
X201045819Y-128823980D02*
X201045819Y-127823980D01*
X201141057Y-127966838D01*
X201236295Y-128062076D01*
X201331533Y-128109695D01*
X199855342Y-127823980D02*
X200331533Y-127823980D01*
X200379152Y-128300171D01*
X200331533Y-128252552D01*
X200236295Y-128204933D01*
X199998200Y-128204933D01*
X199902961Y-128252552D01*
X199855342Y-128300171D01*
X199807723Y-128395409D01*
X199807723Y-128633504D01*
X199855342Y-128728742D01*
X199902961Y-128776361D01*
X199998200Y-128823980D01*
X200236295Y-128823980D01*
X200331533Y-128776361D01*
X200379152Y-128728742D01*
X199680676Y-132110171D02*
X199347342Y-132110171D01*
X199347342Y-132633980D02*
X199347342Y-131633980D01*
X199823533Y-131633980D01*
X200537819Y-132110171D02*
X200680676Y-132157790D01*
X200728295Y-132205409D01*
X200775914Y-132300647D01*
X200775914Y-132443504D01*
X200728295Y-132538742D01*
X200680676Y-132586361D01*
X200585438Y-132633980D01*
X200204485Y-132633980D01*
X200204485Y-131633980D01*
X200537819Y-131633980D01*
X200633057Y-131681600D01*
X200680676Y-131729219D01*
X200728295Y-131824457D01*
X200728295Y-131919695D01*
X200680676Y-132014933D01*
X200633057Y-132062552D01*
X200537819Y-132110171D01*
X200204485Y-132110171D01*
X201728295Y-132633980D02*
X201156866Y-132633980D01*
X201442580Y-132633980D02*
X201442580Y-131633980D01*
X201347342Y-131776838D01*
X201252104Y-131872076D01*
X201156866Y-131919695D01*
X202585438Y-131633980D02*
X202394961Y-131633980D01*
X202299723Y-131681600D01*
X202252104Y-131729219D01*
X202156866Y-131872076D01*
X202109247Y-132062552D01*
X202109247Y-132443504D01*
X202156866Y-132538742D01*
X202204485Y-132586361D01*
X202299723Y-132633980D01*
X202490200Y-132633980D01*
X202585438Y-132586361D01*
X202633057Y-132538742D01*
X202680676Y-132443504D01*
X202680676Y-132205409D01*
X202633057Y-132110171D01*
X202585438Y-132062552D01*
X202490200Y-132014933D01*
X202299723Y-132014933D01*
X202204485Y-132062552D01*
X202156866Y-132110171D01*
X202109247Y-132205409D01*
X193076676Y-133888171D02*
X192743342Y-133888171D01*
X192743342Y-134411980D02*
X192743342Y-133411980D01*
X193219533Y-133411980D01*
X193933819Y-133888171D02*
X194076676Y-133935790D01*
X194124295Y-133983409D01*
X194171914Y-134078647D01*
X194171914Y-134221504D01*
X194124295Y-134316742D01*
X194076676Y-134364361D01*
X193981438Y-134411980D01*
X193600485Y-134411980D01*
X193600485Y-133411980D01*
X193933819Y-133411980D01*
X194029057Y-133459600D01*
X194076676Y-133507219D01*
X194124295Y-133602457D01*
X194124295Y-133697695D01*
X194076676Y-133792933D01*
X194029057Y-133840552D01*
X193933819Y-133888171D01*
X193600485Y-133888171D01*
X195124295Y-134411980D02*
X194552866Y-134411980D01*
X194838580Y-134411980D02*
X194838580Y-133411980D01*
X194743342Y-133554838D01*
X194648104Y-133650076D01*
X194552866Y-133697695D01*
X195981438Y-133745314D02*
X195981438Y-134411980D01*
X195743342Y-133364361D02*
X195505247Y-134078647D01*
X196124295Y-134078647D01*
X228940866Y-112298171D02*
X228607533Y-112298171D01*
X228607533Y-112821980D02*
X228607533Y-111821980D01*
X229083723Y-111821980D01*
X229798009Y-112298171D02*
X229940866Y-112345790D01*
X229988485Y-112393409D01*
X230036104Y-112488647D01*
X230036104Y-112631504D01*
X229988485Y-112726742D01*
X229940866Y-112774361D01*
X229845628Y-112821980D01*
X229464676Y-112821980D01*
X229464676Y-111821980D01*
X229798009Y-111821980D01*
X229893247Y-111869600D01*
X229940866Y-111917219D01*
X229988485Y-112012457D01*
X229988485Y-112107695D01*
X229940866Y-112202933D01*
X229893247Y-112250552D01*
X229798009Y-112298171D01*
X229464676Y-112298171D01*
X230369438Y-111821980D02*
X231036104Y-111821980D01*
X230607533Y-112821980D01*
X228940866Y-111028171D02*
X228607533Y-111028171D01*
X228607533Y-111551980D02*
X228607533Y-110551980D01*
X229083723Y-110551980D01*
X229798009Y-111028171D02*
X229940866Y-111075790D01*
X229988485Y-111123409D01*
X230036104Y-111218647D01*
X230036104Y-111361504D01*
X229988485Y-111456742D01*
X229940866Y-111504361D01*
X229845628Y-111551980D01*
X229464676Y-111551980D01*
X229464676Y-110551980D01*
X229798009Y-110551980D01*
X229893247Y-110599600D01*
X229940866Y-110647219D01*
X229988485Y-110742457D01*
X229988485Y-110837695D01*
X229940866Y-110932933D01*
X229893247Y-110980552D01*
X229798009Y-111028171D01*
X229464676Y-111028171D01*
X230607533Y-110980552D02*
X230512295Y-110932933D01*
X230464676Y-110885314D01*
X230417057Y-110790076D01*
X230417057Y-110742457D01*
X230464676Y-110647219D01*
X230512295Y-110599600D01*
X230607533Y-110551980D01*
X230798009Y-110551980D01*
X230893247Y-110599600D01*
X230940866Y-110647219D01*
X230988485Y-110742457D01*
X230988485Y-110790076D01*
X230940866Y-110885314D01*
X230893247Y-110932933D01*
X230798009Y-110980552D01*
X230607533Y-110980552D01*
X230512295Y-111028171D01*
X230464676Y-111075790D01*
X230417057Y-111171028D01*
X230417057Y-111361504D01*
X230464676Y-111456742D01*
X230512295Y-111504361D01*
X230607533Y-111551980D01*
X230798009Y-111551980D01*
X230893247Y-111504361D01*
X230940866Y-111456742D01*
X230988485Y-111361504D01*
X230988485Y-111171028D01*
X230940866Y-111075790D01*
X230893247Y-111028171D01*
X230798009Y-110980552D01*
X227811342Y-160946266D02*
X227858961Y-160993885D01*
X227906580Y-161136742D01*
X227906580Y-161231980D01*
X227858961Y-161374838D01*
X227763723Y-161470076D01*
X227668485Y-161517695D01*
X227478009Y-161565314D01*
X227335152Y-161565314D01*
X227144676Y-161517695D01*
X227049438Y-161470076D01*
X226954200Y-161374838D01*
X226906580Y-161231980D01*
X226906580Y-161136742D01*
X226954200Y-160993885D01*
X227001819Y-160946266D01*
X227001819Y-160565314D02*
X226954200Y-160517695D01*
X226906580Y-160422457D01*
X226906580Y-160184361D01*
X226954200Y-160089123D01*
X227001819Y-160041504D01*
X227097057Y-159993885D01*
X227192295Y-159993885D01*
X227335152Y-160041504D01*
X227906580Y-160612933D01*
X227906580Y-159993885D01*
X236653342Y-115552457D02*
X236700961Y-115600076D01*
X236748580Y-115742933D01*
X236748580Y-115838171D01*
X236700961Y-115981028D01*
X236605723Y-116076266D01*
X236510485Y-116123885D01*
X236320009Y-116171504D01*
X236177152Y-116171504D01*
X235986676Y-116123885D01*
X235891438Y-116076266D01*
X235796200Y-115981028D01*
X235748580Y-115838171D01*
X235748580Y-115742933D01*
X235796200Y-115600076D01*
X235843819Y-115552457D01*
X236748580Y-114600076D02*
X236748580Y-115171504D01*
X236748580Y-114885790D02*
X235748580Y-114885790D01*
X235891438Y-114981028D01*
X235986676Y-115076266D01*
X236034295Y-115171504D01*
X235843819Y-114219123D02*
X235796200Y-114171504D01*
X235748580Y-114076266D01*
X235748580Y-113838171D01*
X235796200Y-113742933D01*
X235843819Y-113695314D01*
X235939057Y-113647695D01*
X236034295Y-113647695D01*
X236177152Y-113695314D01*
X236748580Y-114266742D01*
X236748580Y-113647695D01*
X235129342Y-115552457D02*
X235176961Y-115600076D01*
X235224580Y-115742933D01*
X235224580Y-115838171D01*
X235176961Y-115981028D01*
X235081723Y-116076266D01*
X234986485Y-116123885D01*
X234796009Y-116171504D01*
X234653152Y-116171504D01*
X234462676Y-116123885D01*
X234367438Y-116076266D01*
X234272200Y-115981028D01*
X234224580Y-115838171D01*
X234224580Y-115742933D01*
X234272200Y-115600076D01*
X234319819Y-115552457D01*
X235224580Y-114600076D02*
X235224580Y-115171504D01*
X235224580Y-114885790D02*
X234224580Y-114885790D01*
X234367438Y-114981028D01*
X234462676Y-115076266D01*
X234510295Y-115171504D01*
X234224580Y-114266742D02*
X234224580Y-113647695D01*
X234605533Y-113981028D01*
X234605533Y-113838171D01*
X234653152Y-113742933D01*
X234700771Y-113695314D01*
X234796009Y-113647695D01*
X235034104Y-113647695D01*
X235129342Y-113695314D01*
X235176961Y-113742933D01*
X235224580Y-113838171D01*
X235224580Y-114123885D01*
X235176961Y-114219123D01*
X235129342Y-114266742D01*
X233605342Y-118600457D02*
X233652961Y-118648076D01*
X233700580Y-118790933D01*
X233700580Y-118886171D01*
X233652961Y-119029028D01*
X233557723Y-119124266D01*
X233462485Y-119171885D01*
X233272009Y-119219504D01*
X233129152Y-119219504D01*
X232938676Y-119171885D01*
X232843438Y-119124266D01*
X232748200Y-119029028D01*
X232700580Y-118886171D01*
X232700580Y-118790933D01*
X232748200Y-118648076D01*
X232795819Y-118600457D01*
X233700580Y-117648076D02*
X233700580Y-118219504D01*
X233700580Y-117933790D02*
X232700580Y-117933790D01*
X232843438Y-118029028D01*
X232938676Y-118124266D01*
X232986295Y-118219504D01*
X233700580Y-116695695D02*
X233700580Y-117267123D01*
X233700580Y-116981409D02*
X232700580Y-116981409D01*
X232843438Y-117076647D01*
X232938676Y-117171885D01*
X232986295Y-117267123D01*
X237939342Y-128982742D02*
X237891723Y-129030361D01*
X237748866Y-129077980D01*
X237653628Y-129077980D01*
X237510771Y-129030361D01*
X237415533Y-128935123D01*
X237367914Y-128839885D01*
X237320295Y-128649409D01*
X237320295Y-128506552D01*
X237367914Y-128316076D01*
X237415533Y-128220838D01*
X237510771Y-128125600D01*
X237653628Y-128077980D01*
X237748866Y-128077980D01*
X237891723Y-128125600D01*
X237939342Y-128173219D01*
X238320295Y-128173219D02*
X238367914Y-128125600D01*
X238463152Y-128077980D01*
X238701247Y-128077980D01*
X238796485Y-128125600D01*
X238844104Y-128173219D01*
X238891723Y-128268457D01*
X238891723Y-128363695D01*
X238844104Y-128506552D01*
X238272676Y-129077980D01*
X238891723Y-129077980D01*
X239510771Y-128077980D02*
X239606009Y-128077980D01*
X239701247Y-128125600D01*
X239748866Y-128173219D01*
X239796485Y-128268457D01*
X239844104Y-128458933D01*
X239844104Y-128697028D01*
X239796485Y-128887504D01*
X239748866Y-128982742D01*
X239701247Y-129030361D01*
X239606009Y-129077980D01*
X239510771Y-129077980D01*
X239415533Y-129030361D01*
X239367914Y-128982742D01*
X239320295Y-128887504D01*
X239272676Y-128697028D01*
X239272676Y-128458933D01*
X239320295Y-128268457D01*
X239367914Y-128173219D01*
X239415533Y-128125600D01*
X239510771Y-128077980D01*
X237939342Y-130252742D02*
X237891723Y-130300361D01*
X237748866Y-130347980D01*
X237653628Y-130347980D01*
X237510771Y-130300361D01*
X237415533Y-130205123D01*
X237367914Y-130109885D01*
X237320295Y-129919409D01*
X237320295Y-129776552D01*
X237367914Y-129586076D01*
X237415533Y-129490838D01*
X237510771Y-129395600D01*
X237653628Y-129347980D01*
X237748866Y-129347980D01*
X237891723Y-129395600D01*
X237939342Y-129443219D01*
X238320295Y-129443219D02*
X238367914Y-129395600D01*
X238463152Y-129347980D01*
X238701247Y-129347980D01*
X238796485Y-129395600D01*
X238844104Y-129443219D01*
X238891723Y-129538457D01*
X238891723Y-129633695D01*
X238844104Y-129776552D01*
X238272676Y-130347980D01*
X238891723Y-130347980D01*
X239844104Y-130347980D02*
X239272676Y-130347980D01*
X239558390Y-130347980D02*
X239558390Y-129347980D01*
X239463152Y-129490838D01*
X239367914Y-129586076D01*
X239272676Y-129633695D01*
X200331342Y-136126457D02*
X200378961Y-136174076D01*
X200426580Y-136316933D01*
X200426580Y-136412171D01*
X200378961Y-136555028D01*
X200283723Y-136650266D01*
X200188485Y-136697885D01*
X199998009Y-136745504D01*
X199855152Y-136745504D01*
X199664676Y-136697885D01*
X199569438Y-136650266D01*
X199474200Y-136555028D01*
X199426580Y-136412171D01*
X199426580Y-136316933D01*
X199474200Y-136174076D01*
X199521819Y-136126457D01*
X199521819Y-135745504D02*
X199474200Y-135697885D01*
X199426580Y-135602647D01*
X199426580Y-135364552D01*
X199474200Y-135269314D01*
X199521819Y-135221695D01*
X199617057Y-135174076D01*
X199712295Y-135174076D01*
X199855152Y-135221695D01*
X200426580Y-135793123D01*
X200426580Y-135174076D01*
X199426580Y-134269314D02*
X199426580Y-134745504D01*
X199902771Y-134793123D01*
X199855152Y-134745504D01*
X199807533Y-134650266D01*
X199807533Y-134412171D01*
X199855152Y-134316933D01*
X199902771Y-134269314D01*
X199998009Y-134221695D01*
X200236104Y-134221695D01*
X200331342Y-134269314D01*
X200378961Y-134316933D01*
X200426580Y-134412171D01*
X200426580Y-134650266D01*
X200378961Y-134745504D01*
X200331342Y-134793123D01*
X202887342Y-111710742D02*
X202839723Y-111758361D01*
X202696866Y-111805980D01*
X202601628Y-111805980D01*
X202458771Y-111758361D01*
X202363533Y-111663123D01*
X202315914Y-111567885D01*
X202268295Y-111377409D01*
X202268295Y-111234552D01*
X202315914Y-111044076D01*
X202363533Y-110948838D01*
X202458771Y-110853600D01*
X202601628Y-110805980D01*
X202696866Y-110805980D01*
X202839723Y-110853600D01*
X202887342Y-110901219D01*
X203268295Y-110901219D02*
X203315914Y-110853600D01*
X203411152Y-110805980D01*
X203649247Y-110805980D01*
X203744485Y-110853600D01*
X203792104Y-110901219D01*
X203839723Y-110996457D01*
X203839723Y-111091695D01*
X203792104Y-111234552D01*
X203220676Y-111805980D01*
X203839723Y-111805980D01*
X204173057Y-110805980D02*
X204792104Y-110805980D01*
X204458771Y-111186933D01*
X204601628Y-111186933D01*
X204696866Y-111234552D01*
X204744485Y-111282171D01*
X204792104Y-111377409D01*
X204792104Y-111615504D01*
X204744485Y-111710742D01*
X204696866Y-111758361D01*
X204601628Y-111805980D01*
X204315914Y-111805980D01*
X204220676Y-111758361D01*
X204173057Y-111710742D01*
X213301342Y-111710742D02*
X213253723Y-111758361D01*
X213110866Y-111805980D01*
X213015628Y-111805980D01*
X212872771Y-111758361D01*
X212777533Y-111663123D01*
X212729914Y-111567885D01*
X212682295Y-111377409D01*
X212682295Y-111234552D01*
X212729914Y-111044076D01*
X212777533Y-110948838D01*
X212872771Y-110853600D01*
X213015628Y-110805980D01*
X213110866Y-110805980D01*
X213253723Y-110853600D01*
X213301342Y-110901219D01*
X213634676Y-110805980D02*
X214253723Y-110805980D01*
X213920390Y-111186933D01*
X214063247Y-111186933D01*
X214158485Y-111234552D01*
X214206104Y-111282171D01*
X214253723Y-111377409D01*
X214253723Y-111615504D01*
X214206104Y-111710742D01*
X214158485Y-111758361D01*
X214063247Y-111805980D01*
X213777533Y-111805980D01*
X213682295Y-111758361D01*
X213634676Y-111710742D01*
X214634676Y-110901219D02*
X214682295Y-110853600D01*
X214777533Y-110805980D01*
X215015628Y-110805980D01*
X215110866Y-110853600D01*
X215158485Y-110901219D01*
X215206104Y-110996457D01*
X215206104Y-111091695D01*
X215158485Y-111234552D01*
X214587057Y-111805980D01*
X215206104Y-111805980D01*
X221964742Y-115708342D02*
X221917123Y-115755961D01*
X221774266Y-115803580D01*
X221679028Y-115803580D01*
X221536171Y-115755961D01*
X221440933Y-115660723D01*
X221393314Y-115565485D01*
X221345695Y-115375009D01*
X221345695Y-115232152D01*
X221393314Y-115041676D01*
X221440933Y-114946438D01*
X221536171Y-114851200D01*
X221679028Y-114803580D01*
X221774266Y-114803580D01*
X221917123Y-114851200D01*
X221964742Y-114898819D01*
X222298076Y-114803580D02*
X222917123Y-114803580D01*
X222583790Y-115184533D01*
X222726647Y-115184533D01*
X222821885Y-115232152D01*
X222869504Y-115279771D01*
X222917123Y-115375009D01*
X222917123Y-115613104D01*
X222869504Y-115708342D01*
X222821885Y-115755961D01*
X222726647Y-115803580D01*
X222440933Y-115803580D01*
X222345695Y-115755961D01*
X222298076Y-115708342D01*
X223536171Y-114803580D02*
X223631409Y-114803580D01*
X223726647Y-114851200D01*
X223774266Y-114898819D01*
X223821885Y-114994057D01*
X223869504Y-115184533D01*
X223869504Y-115422628D01*
X223821885Y-115613104D01*
X223774266Y-115708342D01*
X223726647Y-115755961D01*
X223631409Y-115803580D01*
X223536171Y-115803580D01*
X223440933Y-115755961D01*
X223393314Y-115708342D01*
X223345695Y-115613104D01*
X223298076Y-115422628D01*
X223298076Y-115184533D01*
X223345695Y-114994057D01*
X223393314Y-114898819D01*
X223440933Y-114851200D01*
X223536171Y-114803580D01*
X211523342Y-115774742D02*
X211475723Y-115822361D01*
X211332866Y-115869980D01*
X211237628Y-115869980D01*
X211094771Y-115822361D01*
X210999533Y-115727123D01*
X210951914Y-115631885D01*
X210904295Y-115441409D01*
X210904295Y-115298552D01*
X210951914Y-115108076D01*
X210999533Y-115012838D01*
X211094771Y-114917600D01*
X211237628Y-114869980D01*
X211332866Y-114869980D01*
X211475723Y-114917600D01*
X211523342Y-114965219D01*
X211856676Y-114869980D02*
X212475723Y-114869980D01*
X212142390Y-115250933D01*
X212285247Y-115250933D01*
X212380485Y-115298552D01*
X212428104Y-115346171D01*
X212475723Y-115441409D01*
X212475723Y-115679504D01*
X212428104Y-115774742D01*
X212380485Y-115822361D01*
X212285247Y-115869980D01*
X211999533Y-115869980D01*
X211904295Y-115822361D01*
X211856676Y-115774742D01*
X212951914Y-115869980D02*
X213142390Y-115869980D01*
X213237628Y-115822361D01*
X213285247Y-115774742D01*
X213380485Y-115631885D01*
X213428104Y-115441409D01*
X213428104Y-115060457D01*
X213380485Y-114965219D01*
X213332866Y-114917600D01*
X213237628Y-114869980D01*
X213047152Y-114869980D01*
X212951914Y-114917600D01*
X212904295Y-114965219D01*
X212856676Y-115060457D01*
X212856676Y-115298552D01*
X212904295Y-115393790D01*
X212951914Y-115441409D01*
X213047152Y-115489028D01*
X213237628Y-115489028D01*
X213332866Y-115441409D01*
X213380485Y-115393790D01*
X213428104Y-115298552D01*
X195505342Y-136126457D02*
X195552961Y-136174076D01*
X195600580Y-136316933D01*
X195600580Y-136412171D01*
X195552961Y-136555028D01*
X195457723Y-136650266D01*
X195362485Y-136697885D01*
X195172009Y-136745504D01*
X195029152Y-136745504D01*
X194838676Y-136697885D01*
X194743438Y-136650266D01*
X194648200Y-136555028D01*
X194600580Y-136412171D01*
X194600580Y-136316933D01*
X194648200Y-136174076D01*
X194695819Y-136126457D01*
X194933914Y-135269314D02*
X195600580Y-135269314D01*
X194552961Y-135507409D02*
X195267247Y-135745504D01*
X195267247Y-135126457D01*
X194933914Y-134316933D02*
X195600580Y-134316933D01*
X194552961Y-134555028D02*
X195267247Y-134793123D01*
X195267247Y-134174076D01*
X195965722Y-130904357D02*
X196013341Y-130951976D01*
X196060960Y-131094833D01*
X196060960Y-131190071D01*
X196013341Y-131332928D01*
X195918103Y-131428166D01*
X195822865Y-131475785D01*
X195632389Y-131523404D01*
X195489532Y-131523404D01*
X195299056Y-131475785D01*
X195203818Y-131428166D01*
X195108580Y-131332928D01*
X195060960Y-131190071D01*
X195060960Y-131094833D01*
X195108580Y-130951976D01*
X195156199Y-130904357D01*
X195060960Y-129999595D02*
X195060960Y-130475785D01*
X195537151Y-130523404D01*
X195489532Y-130475785D01*
X195441913Y-130380547D01*
X195441913Y-130142452D01*
X195489532Y-130047214D01*
X195537151Y-129999595D01*
X195632389Y-129951976D01*
X195870484Y-129951976D01*
X195965722Y-129999595D01*
X196013341Y-130047214D01*
X196060960Y-130142452D01*
X196060960Y-130380547D01*
X196013341Y-130475785D01*
X195965722Y-130523404D01*
X195060960Y-129047214D02*
X195060960Y-129523404D01*
X195537151Y-129571023D01*
X195489532Y-129523404D01*
X195441913Y-129428166D01*
X195441913Y-129190071D01*
X195489532Y-129094833D01*
X195537151Y-129047214D01*
X195632389Y-128999595D01*
X195870484Y-128999595D01*
X195965722Y-129047214D01*
X196013341Y-129094833D01*
X196060960Y-129190071D01*
X196060960Y-129428166D01*
X196013341Y-129523404D01*
X195965722Y-129571023D01*
X163046104Y-159901980D02*
X163046104Y-158901980D01*
X163284200Y-158901980D01*
X163427057Y-158949600D01*
X163522295Y-159044838D01*
X163569914Y-159140076D01*
X163617533Y-159330552D01*
X163617533Y-159473409D01*
X163569914Y-159663885D01*
X163522295Y-159759123D01*
X163427057Y-159854361D01*
X163284200Y-159901980D01*
X163046104Y-159901980D01*
X163950866Y-158901980D02*
X164569914Y-158901980D01*
X164236580Y-159282933D01*
X164379438Y-159282933D01*
X164474676Y-159330552D01*
X164522295Y-159378171D01*
X164569914Y-159473409D01*
X164569914Y-159711504D01*
X164522295Y-159806742D01*
X164474676Y-159854361D01*
X164379438Y-159901980D01*
X164093723Y-159901980D01*
X163998485Y-159854361D01*
X163950866Y-159806742D01*
X167646104Y-159841980D02*
X167646104Y-158841980D01*
X167884200Y-158841980D01*
X168027057Y-158889600D01*
X168122295Y-158984838D01*
X168169914Y-159080076D01*
X168217533Y-159270552D01*
X168217533Y-159413409D01*
X168169914Y-159603885D01*
X168122295Y-159699123D01*
X168027057Y-159794361D01*
X167884200Y-159841980D01*
X167646104Y-159841980D01*
X168598485Y-158937219D02*
X168646104Y-158889600D01*
X168741342Y-158841980D01*
X168979438Y-158841980D01*
X169074676Y-158889600D01*
X169122295Y-158937219D01*
X169169914Y-159032457D01*
X169169914Y-159127695D01*
X169122295Y-159270552D01*
X168550866Y-159841980D01*
X169169914Y-159841980D01*
X217420866Y-107503980D02*
X217420866Y-108218266D01*
X217373247Y-108361123D01*
X217278009Y-108456361D01*
X217135152Y-108503980D01*
X217039914Y-108503980D01*
X218325628Y-107837314D02*
X218325628Y-108503980D01*
X218087533Y-107456361D02*
X217849438Y-108170647D01*
X218468485Y-108170647D01*
X237431342Y-118917980D02*
X237098009Y-118441790D01*
X236859914Y-118917980D02*
X236859914Y-117917980D01*
X237240866Y-117917980D01*
X237336104Y-117965600D01*
X237383723Y-118013219D01*
X237431342Y-118108457D01*
X237431342Y-118251314D01*
X237383723Y-118346552D01*
X237336104Y-118394171D01*
X237240866Y-118441790D01*
X236859914Y-118441790D01*
X238383723Y-118917980D02*
X237812295Y-118917980D01*
X238098009Y-118917980D02*
X238098009Y-117917980D01*
X238002771Y-118060838D01*
X237907533Y-118156076D01*
X237812295Y-118203695D01*
X238717057Y-117917980D02*
X239383723Y-117917980D01*
X238955152Y-118917980D01*
X238415533Y-106471980D02*
X238082200Y-105995790D01*
X237844104Y-106471980D02*
X237844104Y-105471980D01*
X238225057Y-105471980D01*
X238320295Y-105519600D01*
X238367914Y-105567219D01*
X238415533Y-105662457D01*
X238415533Y-105805314D01*
X238367914Y-105900552D01*
X238320295Y-105948171D01*
X238225057Y-105995790D01*
X237844104Y-105995790D01*
X239272676Y-105471980D02*
X239082200Y-105471980D01*
X238986961Y-105519600D01*
X238939342Y-105567219D01*
X238844104Y-105710076D01*
X238796485Y-105900552D01*
X238796485Y-106281504D01*
X238844104Y-106376742D01*
X238891723Y-106424361D01*
X238986961Y-106471980D01*
X239177438Y-106471980D01*
X239272676Y-106424361D01*
X239320295Y-106376742D01*
X239367914Y-106281504D01*
X239367914Y-106043409D01*
X239320295Y-105948171D01*
X239272676Y-105900552D01*
X239177438Y-105852933D01*
X238986961Y-105852933D01*
X238891723Y-105900552D01*
X238844104Y-105948171D01*
X238796485Y-106043409D01*
X244797342Y-119171980D02*
X244464009Y-118695790D01*
X244225914Y-119171980D02*
X244225914Y-118171980D01*
X244606866Y-118171980D01*
X244702104Y-118219600D01*
X244749723Y-118267219D01*
X244797342Y-118362457D01*
X244797342Y-118505314D01*
X244749723Y-118600552D01*
X244702104Y-118648171D01*
X244606866Y-118695790D01*
X244225914Y-118695790D01*
X245749723Y-119171980D02*
X245178295Y-119171980D01*
X245464009Y-119171980D02*
X245464009Y-118171980D01*
X245368771Y-118314838D01*
X245273533Y-118410076D01*
X245178295Y-118457695D01*
X246321152Y-118600552D02*
X246225914Y-118552933D01*
X246178295Y-118505314D01*
X246130676Y-118410076D01*
X246130676Y-118362457D01*
X246178295Y-118267219D01*
X246225914Y-118219600D01*
X246321152Y-118171980D01*
X246511628Y-118171980D01*
X246606866Y-118219600D01*
X246654485Y-118267219D01*
X246702104Y-118362457D01*
X246702104Y-118410076D01*
X246654485Y-118505314D01*
X246606866Y-118552933D01*
X246511628Y-118600552D01*
X246321152Y-118600552D01*
X246225914Y-118648171D01*
X246178295Y-118695790D01*
X246130676Y-118791028D01*
X246130676Y-118981504D01*
X246178295Y-119076742D01*
X246225914Y-119124361D01*
X246321152Y-119171980D01*
X246511628Y-119171980D01*
X246606866Y-119124361D01*
X246654485Y-119076742D01*
X246702104Y-118981504D01*
X246702104Y-118791028D01*
X246654485Y-118695790D01*
X246606866Y-118648171D01*
X246511628Y-118600552D01*
X244765533Y-106471980D02*
X244432200Y-105995790D01*
X244194104Y-106471980D02*
X244194104Y-105471980D01*
X244575057Y-105471980D01*
X244670295Y-105519600D01*
X244717914Y-105567219D01*
X244765533Y-105662457D01*
X244765533Y-105805314D01*
X244717914Y-105900552D01*
X244670295Y-105948171D01*
X244575057Y-105995790D01*
X244194104Y-105995790D01*
X245241723Y-106471980D02*
X245432200Y-106471980D01*
X245527438Y-106424361D01*
X245575057Y-106376742D01*
X245670295Y-106233885D01*
X245717914Y-106043409D01*
X245717914Y-105662457D01*
X245670295Y-105567219D01*
X245622676Y-105519600D01*
X245527438Y-105471980D01*
X245336961Y-105471980D01*
X245241723Y-105519600D01*
X245194104Y-105567219D01*
X245146485Y-105662457D01*
X245146485Y-105900552D01*
X245194104Y-105995790D01*
X245241723Y-106043409D01*
X245336961Y-106091028D01*
X245527438Y-106091028D01*
X245622676Y-106043409D01*
X245670295Y-105995790D01*
X245717914Y-105900552D01*
X244797342Y-117901980D02*
X244464009Y-117425790D01*
X244225914Y-117901980D02*
X244225914Y-116901980D01*
X244606866Y-116901980D01*
X244702104Y-116949600D01*
X244749723Y-116997219D01*
X244797342Y-117092457D01*
X244797342Y-117235314D01*
X244749723Y-117330552D01*
X244702104Y-117378171D01*
X244606866Y-117425790D01*
X244225914Y-117425790D01*
X245178295Y-116997219D02*
X245225914Y-116949600D01*
X245321152Y-116901980D01*
X245559247Y-116901980D01*
X245654485Y-116949600D01*
X245702104Y-116997219D01*
X245749723Y-117092457D01*
X245749723Y-117187695D01*
X245702104Y-117330552D01*
X245130676Y-117901980D01*
X245749723Y-117901980D01*
X246702104Y-117901980D02*
X246130676Y-117901980D01*
X246416390Y-117901980D02*
X246416390Y-116901980D01*
X246321152Y-117044838D01*
X246225914Y-117140076D01*
X246130676Y-117187695D01*
X244797342Y-105201980D02*
X244464009Y-104725790D01*
X244225914Y-105201980D02*
X244225914Y-104201980D01*
X244606866Y-104201980D01*
X244702104Y-104249600D01*
X244749723Y-104297219D01*
X244797342Y-104392457D01*
X244797342Y-104535314D01*
X244749723Y-104630552D01*
X244702104Y-104678171D01*
X244606866Y-104725790D01*
X244225914Y-104725790D01*
X245749723Y-105201980D02*
X245178295Y-105201980D01*
X245464009Y-105201980D02*
X245464009Y-104201980D01*
X245368771Y-104344838D01*
X245273533Y-104440076D01*
X245178295Y-104487695D01*
X246606866Y-104535314D02*
X246606866Y-105201980D01*
X246368771Y-104154361D02*
X246130676Y-104868647D01*
X246749723Y-104868647D01*
X243273342Y-129077980D02*
X242940009Y-128601790D01*
X242701914Y-129077980D02*
X242701914Y-128077980D01*
X243082866Y-128077980D01*
X243178104Y-128125600D01*
X243225723Y-128173219D01*
X243273342Y-128268457D01*
X243273342Y-128411314D01*
X243225723Y-128506552D01*
X243178104Y-128554171D01*
X243082866Y-128601790D01*
X242701914Y-128601790D01*
X243654295Y-128173219D02*
X243701914Y-128125600D01*
X243797152Y-128077980D01*
X244035247Y-128077980D01*
X244130485Y-128125600D01*
X244178104Y-128173219D01*
X244225723Y-128268457D01*
X244225723Y-128363695D01*
X244178104Y-128506552D01*
X243606676Y-129077980D01*
X244225723Y-129077980D01*
X244606676Y-128173219D02*
X244654295Y-128125600D01*
X244749533Y-128077980D01*
X244987628Y-128077980D01*
X245082866Y-128125600D01*
X245130485Y-128173219D01*
X245178104Y-128268457D01*
X245178104Y-128363695D01*
X245130485Y-128506552D01*
X244559057Y-129077980D01*
X245178104Y-129077980D01*
X243273342Y-116631980D02*
X242940009Y-116155790D01*
X242701914Y-116631980D02*
X242701914Y-115631980D01*
X243082866Y-115631980D01*
X243178104Y-115679600D01*
X243225723Y-115727219D01*
X243273342Y-115822457D01*
X243273342Y-115965314D01*
X243225723Y-116060552D01*
X243178104Y-116108171D01*
X243082866Y-116155790D01*
X242701914Y-116155790D01*
X244225723Y-116631980D02*
X243654295Y-116631980D01*
X243940009Y-116631980D02*
X243940009Y-115631980D01*
X243844771Y-115774838D01*
X243749533Y-115870076D01*
X243654295Y-115917695D01*
X245082866Y-115631980D02*
X244892390Y-115631980D01*
X244797152Y-115679600D01*
X244749533Y-115727219D01*
X244654295Y-115870076D01*
X244606676Y-116060552D01*
X244606676Y-116441504D01*
X244654295Y-116536742D01*
X244701914Y-116584361D01*
X244797152Y-116631980D01*
X244987628Y-116631980D01*
X245082866Y-116584361D01*
X245130485Y-116536742D01*
X245178104Y-116441504D01*
X245178104Y-116203409D01*
X245130485Y-116108171D01*
X245082866Y-116060552D01*
X244987628Y-116012933D01*
X244797152Y-116012933D01*
X244701914Y-116060552D01*
X244654295Y-116108171D01*
X244606676Y-116203409D01*
X238526580Y-125966457D02*
X238050390Y-126299790D01*
X238526580Y-126537885D02*
X237526580Y-126537885D01*
X237526580Y-126156933D01*
X237574200Y-126061695D01*
X237621819Y-126014076D01*
X237717057Y-125966457D01*
X237859914Y-125966457D01*
X237955152Y-126014076D01*
X238002771Y-126061695D01*
X238050390Y-126156933D01*
X238050390Y-126537885D01*
X238526580Y-125014076D02*
X238526580Y-125585504D01*
X238526580Y-125299790D02*
X237526580Y-125299790D01*
X237669438Y-125395028D01*
X237764676Y-125490266D01*
X237812295Y-125585504D01*
X238526580Y-124537885D02*
X238526580Y-124347409D01*
X238478961Y-124252171D01*
X238431342Y-124204552D01*
X238288485Y-124109314D01*
X238098009Y-124061695D01*
X237717057Y-124061695D01*
X237621819Y-124109314D01*
X237574200Y-124156933D01*
X237526580Y-124252171D01*
X237526580Y-124442647D01*
X237574200Y-124537885D01*
X237621819Y-124585504D01*
X237717057Y-124633123D01*
X237955152Y-124633123D01*
X238050390Y-124585504D01*
X238098009Y-124537885D01*
X238145628Y-124442647D01*
X238145628Y-124252171D01*
X238098009Y-124156933D01*
X238050390Y-124109314D01*
X237955152Y-124061695D01*
X238193342Y-117139980D02*
X237860009Y-116663790D01*
X237621914Y-117139980D02*
X237621914Y-116139980D01*
X238002866Y-116139980D01*
X238098104Y-116187600D01*
X238145723Y-116235219D01*
X238193342Y-116330457D01*
X238193342Y-116473314D01*
X238145723Y-116568552D01*
X238098104Y-116616171D01*
X238002866Y-116663790D01*
X237621914Y-116663790D01*
X239145723Y-117139980D02*
X238574295Y-117139980D01*
X238860009Y-117139980D02*
X238860009Y-116139980D01*
X238764771Y-116282838D01*
X238669533Y-116378076D01*
X238574295Y-116425695D01*
X239764771Y-116139980D02*
X239860009Y-116139980D01*
X239955247Y-116187600D01*
X240002866Y-116235219D01*
X240050485Y-116330457D01*
X240098104Y-116520933D01*
X240098104Y-116759028D01*
X240050485Y-116949504D01*
X240002866Y-117044742D01*
X239955247Y-117092361D01*
X239860009Y-117139980D01*
X239764771Y-117139980D01*
X239669533Y-117092361D01*
X239621914Y-117044742D01*
X239574295Y-116949504D01*
X239526676Y-116759028D01*
X239526676Y-116520933D01*
X239574295Y-116330457D01*
X239621914Y-116235219D01*
X239669533Y-116187600D01*
X239764771Y-116139980D01*
X243273342Y-127807980D02*
X242940009Y-127331790D01*
X242701914Y-127807980D02*
X242701914Y-126807980D01*
X243082866Y-126807980D01*
X243178104Y-126855600D01*
X243225723Y-126903219D01*
X243273342Y-126998457D01*
X243273342Y-127141314D01*
X243225723Y-127236552D01*
X243178104Y-127284171D01*
X243082866Y-127331790D01*
X242701914Y-127331790D01*
X243654295Y-126903219D02*
X243701914Y-126855600D01*
X243797152Y-126807980D01*
X244035247Y-126807980D01*
X244130485Y-126855600D01*
X244178104Y-126903219D01*
X244225723Y-126998457D01*
X244225723Y-127093695D01*
X244178104Y-127236552D01*
X243606676Y-127807980D01*
X244225723Y-127807980D01*
X244844771Y-126807980D02*
X244940009Y-126807980D01*
X245035247Y-126855600D01*
X245082866Y-126903219D01*
X245130485Y-126998457D01*
X245178104Y-127188933D01*
X245178104Y-127427028D01*
X245130485Y-127617504D01*
X245082866Y-127712742D01*
X245035247Y-127760361D01*
X244940009Y-127807980D01*
X244844771Y-127807980D01*
X244749533Y-127760361D01*
X244701914Y-127712742D01*
X244654295Y-127617504D01*
X244606676Y-127427028D01*
X244606676Y-127188933D01*
X244654295Y-126998457D01*
X244701914Y-126903219D01*
X244749533Y-126855600D01*
X244844771Y-126807980D01*
X243273342Y-115361980D02*
X242940009Y-114885790D01*
X242701914Y-115361980D02*
X242701914Y-114361980D01*
X243082866Y-114361980D01*
X243178104Y-114409600D01*
X243225723Y-114457219D01*
X243273342Y-114552457D01*
X243273342Y-114695314D01*
X243225723Y-114790552D01*
X243178104Y-114838171D01*
X243082866Y-114885790D01*
X242701914Y-114885790D01*
X244225723Y-115361980D02*
X243654295Y-115361980D01*
X243940009Y-115361980D02*
X243940009Y-114361980D01*
X243844771Y-114504838D01*
X243749533Y-114600076D01*
X243654295Y-114647695D01*
X244606676Y-114457219D02*
X244654295Y-114409600D01*
X244749533Y-114361980D01*
X244987628Y-114361980D01*
X245082866Y-114409600D01*
X245130485Y-114457219D01*
X245178104Y-114552457D01*
X245178104Y-114647695D01*
X245130485Y-114790552D01*
X244559057Y-115361980D01*
X245178104Y-115361980D01*
X238415533Y-131617980D02*
X238082200Y-131141790D01*
X237844104Y-131617980D02*
X237844104Y-130617980D01*
X238225057Y-130617980D01*
X238320295Y-130665600D01*
X238367914Y-130713219D01*
X238415533Y-130808457D01*
X238415533Y-130951314D01*
X238367914Y-131046552D01*
X238320295Y-131094171D01*
X238225057Y-131141790D01*
X237844104Y-131141790D01*
X239320295Y-130617980D02*
X238844104Y-130617980D01*
X238796485Y-131094171D01*
X238844104Y-131046552D01*
X238939342Y-130998933D01*
X239177438Y-130998933D01*
X239272676Y-131046552D01*
X239320295Y-131094171D01*
X239367914Y-131189409D01*
X239367914Y-131427504D01*
X239320295Y-131522742D01*
X239272676Y-131570361D01*
X239177438Y-131617980D01*
X238939342Y-131617980D01*
X238844104Y-131570361D01*
X238796485Y-131522742D01*
X244511533Y-131617980D02*
X244178200Y-131141790D01*
X243940104Y-131617980D02*
X243940104Y-130617980D01*
X244321057Y-130617980D01*
X244416295Y-130665600D01*
X244463914Y-130713219D01*
X244511533Y-130808457D01*
X244511533Y-130951314D01*
X244463914Y-131046552D01*
X244416295Y-131094171D01*
X244321057Y-131141790D01*
X243940104Y-131141790D01*
X244844866Y-130617980D02*
X245511533Y-130617980D01*
X245082961Y-131617980D01*
X244543342Y-130347980D02*
X244210009Y-129871790D01*
X243971914Y-130347980D02*
X243971914Y-129347980D01*
X244352866Y-129347980D01*
X244448104Y-129395600D01*
X244495723Y-129443219D01*
X244543342Y-129538457D01*
X244543342Y-129681314D01*
X244495723Y-129776552D01*
X244448104Y-129824171D01*
X244352866Y-129871790D01*
X243971914Y-129871790D01*
X245495723Y-130347980D02*
X244924295Y-130347980D01*
X245210009Y-130347980D02*
X245210009Y-129347980D01*
X245114771Y-129490838D01*
X245019533Y-129586076D01*
X244924295Y-129633695D01*
X245829057Y-129347980D02*
X246448104Y-129347980D01*
X246114771Y-129728933D01*
X246257628Y-129728933D01*
X246352866Y-129776552D01*
X246400485Y-129824171D01*
X246448104Y-129919409D01*
X246448104Y-130157504D01*
X246400485Y-130252742D01*
X246352866Y-130300361D01*
X246257628Y-130347980D01*
X245971914Y-130347980D01*
X245876676Y-130300361D01*
X245829057Y-130252742D01*
X219984580Y-158732457D02*
X219508390Y-159065790D01*
X219984580Y-159303885D02*
X218984580Y-159303885D01*
X218984580Y-158922933D01*
X219032200Y-158827695D01*
X219079819Y-158780076D01*
X219175057Y-158732457D01*
X219317914Y-158732457D01*
X219413152Y-158780076D01*
X219460771Y-158827695D01*
X219508390Y-158922933D01*
X219508390Y-159303885D01*
X219079819Y-158351504D02*
X219032200Y-158303885D01*
X218984580Y-158208647D01*
X218984580Y-157970552D01*
X219032200Y-157875314D01*
X219079819Y-157827695D01*
X219175057Y-157780076D01*
X219270295Y-157780076D01*
X219413152Y-157827695D01*
X219984580Y-158399123D01*
X219984580Y-157780076D01*
X218984580Y-157446742D02*
X218984580Y-156827695D01*
X219365533Y-157161028D01*
X219365533Y-157018171D01*
X219413152Y-156922933D01*
X219460771Y-156875314D01*
X219556009Y-156827695D01*
X219794104Y-156827695D01*
X219889342Y-156875314D01*
X219936961Y-156922933D01*
X219984580Y-157018171D01*
X219984580Y-157303885D01*
X219936961Y-157399123D01*
X219889342Y-157446742D01*
X221254580Y-158732457D02*
X220778390Y-159065790D01*
X221254580Y-159303885D02*
X220254580Y-159303885D01*
X220254580Y-158922933D01*
X220302200Y-158827695D01*
X220349819Y-158780076D01*
X220445057Y-158732457D01*
X220587914Y-158732457D01*
X220683152Y-158780076D01*
X220730771Y-158827695D01*
X220778390Y-158922933D01*
X220778390Y-159303885D01*
X220349819Y-158351504D02*
X220302200Y-158303885D01*
X220254580Y-158208647D01*
X220254580Y-157970552D01*
X220302200Y-157875314D01*
X220349819Y-157827695D01*
X220445057Y-157780076D01*
X220540295Y-157780076D01*
X220683152Y-157827695D01*
X221254580Y-158399123D01*
X221254580Y-157780076D01*
X220587914Y-156922933D02*
X221254580Y-156922933D01*
X220206961Y-157161028D02*
X220921247Y-157399123D01*
X220921247Y-156780076D01*
X219651342Y-160827980D02*
X219318009Y-160351790D01*
X219079914Y-160827980D02*
X219079914Y-159827980D01*
X219460866Y-159827980D01*
X219556104Y-159875600D01*
X219603723Y-159923219D01*
X219651342Y-160018457D01*
X219651342Y-160161314D01*
X219603723Y-160256552D01*
X219556104Y-160304171D01*
X219460866Y-160351790D01*
X219079914Y-160351790D01*
X220032295Y-159923219D02*
X220079914Y-159875600D01*
X220175152Y-159827980D01*
X220413247Y-159827980D01*
X220508485Y-159875600D01*
X220556104Y-159923219D01*
X220603723Y-160018457D01*
X220603723Y-160113695D01*
X220556104Y-160256552D01*
X219984676Y-160827980D01*
X220603723Y-160827980D01*
X221508485Y-159827980D02*
X221032295Y-159827980D01*
X220984676Y-160304171D01*
X221032295Y-160256552D01*
X221127533Y-160208933D01*
X221365628Y-160208933D01*
X221460866Y-160256552D01*
X221508485Y-160304171D01*
X221556104Y-160399409D01*
X221556104Y-160637504D01*
X221508485Y-160732742D01*
X221460866Y-160780361D01*
X221365628Y-160827980D01*
X221127533Y-160827980D01*
X221032295Y-160780361D01*
X220984676Y-160732742D01*
X221964742Y-120314580D02*
X221631409Y-119838390D01*
X221393314Y-120314580D02*
X221393314Y-119314580D01*
X221774266Y-119314580D01*
X221869504Y-119362200D01*
X221917123Y-119409819D01*
X221964742Y-119505057D01*
X221964742Y-119647914D01*
X221917123Y-119743152D01*
X221869504Y-119790771D01*
X221774266Y-119838390D01*
X221393314Y-119838390D01*
X222345695Y-119409819D02*
X222393314Y-119362200D01*
X222488552Y-119314580D01*
X222726647Y-119314580D01*
X222821885Y-119362200D01*
X222869504Y-119409819D01*
X222917123Y-119505057D01*
X222917123Y-119600295D01*
X222869504Y-119743152D01*
X222298076Y-120314580D01*
X222917123Y-120314580D01*
X223774266Y-119314580D02*
X223583790Y-119314580D01*
X223488552Y-119362200D01*
X223440933Y-119409819D01*
X223345695Y-119552676D01*
X223298076Y-119743152D01*
X223298076Y-120124104D01*
X223345695Y-120219342D01*
X223393314Y-120266961D01*
X223488552Y-120314580D01*
X223679028Y-120314580D01*
X223774266Y-120266961D01*
X223821885Y-120219342D01*
X223869504Y-120124104D01*
X223869504Y-119886009D01*
X223821885Y-119790771D01*
X223774266Y-119743152D01*
X223679028Y-119695533D01*
X223488552Y-119695533D01*
X223393314Y-119743152D01*
X223345695Y-119790771D01*
X223298076Y-119886009D01*
X211411342Y-119871980D02*
X211078009Y-119395790D01*
X210839914Y-119871980D02*
X210839914Y-118871980D01*
X211220866Y-118871980D01*
X211316104Y-118919600D01*
X211363723Y-118967219D01*
X211411342Y-119062457D01*
X211411342Y-119205314D01*
X211363723Y-119300552D01*
X211316104Y-119348171D01*
X211220866Y-119395790D01*
X210839914Y-119395790D01*
X211792295Y-118967219D02*
X211839914Y-118919600D01*
X211935152Y-118871980D01*
X212173247Y-118871980D01*
X212268485Y-118919600D01*
X212316104Y-118967219D01*
X212363723Y-119062457D01*
X212363723Y-119157695D01*
X212316104Y-119300552D01*
X211744676Y-119871980D01*
X212363723Y-119871980D01*
X212839914Y-119871980D02*
X213030390Y-119871980D01*
X213125628Y-119824361D01*
X213173247Y-119776742D01*
X213268485Y-119633885D01*
X213316104Y-119443409D01*
X213316104Y-119062457D01*
X213268485Y-118967219D01*
X213220866Y-118919600D01*
X213125628Y-118871980D01*
X212935152Y-118871980D01*
X212839914Y-118919600D01*
X212792295Y-118967219D01*
X212744676Y-119062457D01*
X212744676Y-119300552D01*
X212792295Y-119395790D01*
X212839914Y-119443409D01*
X212935152Y-119491028D01*
X213125628Y-119491028D01*
X213220866Y-119443409D01*
X213268485Y-119395790D01*
X213316104Y-119300552D01*
X174439342Y-128569980D02*
X174106009Y-128093790D01*
X173867914Y-128569980D02*
X173867914Y-127569980D01*
X174248866Y-127569980D01*
X174344104Y-127617600D01*
X174391723Y-127665219D01*
X174439342Y-127760457D01*
X174439342Y-127903314D01*
X174391723Y-127998552D01*
X174344104Y-128046171D01*
X174248866Y-128093790D01*
X173867914Y-128093790D01*
X175296485Y-127903314D02*
X175296485Y-128569980D01*
X175058390Y-127522361D02*
X174820295Y-128236647D01*
X175439342Y-128236647D01*
X176296485Y-127569980D02*
X175820295Y-127569980D01*
X175772676Y-128046171D01*
X175820295Y-127998552D01*
X175915533Y-127950933D01*
X176153628Y-127950933D01*
X176248866Y-127998552D01*
X176296485Y-128046171D01*
X176344104Y-128141409D01*
X176344104Y-128379504D01*
X176296485Y-128474742D01*
X176248866Y-128522361D01*
X176153628Y-128569980D01*
X175915533Y-128569980D01*
X175820295Y-128522361D01*
X175772676Y-128474742D01*
X173677342Y-120695980D02*
X173344009Y-120219790D01*
X173105914Y-120695980D02*
X173105914Y-119695980D01*
X173486866Y-119695980D01*
X173582104Y-119743600D01*
X173629723Y-119791219D01*
X173677342Y-119886457D01*
X173677342Y-120029314D01*
X173629723Y-120124552D01*
X173582104Y-120172171D01*
X173486866Y-120219790D01*
X173105914Y-120219790D01*
X174534485Y-120029314D02*
X174534485Y-120695980D01*
X174296390Y-119648361D02*
X174058295Y-120362647D01*
X174677342Y-120362647D01*
X175010676Y-119791219D02*
X175058295Y-119743600D01*
X175153533Y-119695980D01*
X175391628Y-119695980D01*
X175486866Y-119743600D01*
X175534485Y-119791219D01*
X175582104Y-119886457D01*
X175582104Y-119981695D01*
X175534485Y-120124552D01*
X174963057Y-120695980D01*
X175582104Y-120695980D01*
X174439342Y-126537980D02*
X174106009Y-126061790D01*
X173867914Y-126537980D02*
X173867914Y-125537980D01*
X174248866Y-125537980D01*
X174344104Y-125585600D01*
X174391723Y-125633219D01*
X174439342Y-125728457D01*
X174439342Y-125871314D01*
X174391723Y-125966552D01*
X174344104Y-126014171D01*
X174248866Y-126061790D01*
X173867914Y-126061790D01*
X175296485Y-125871314D02*
X175296485Y-126537980D01*
X175058390Y-125490361D02*
X174820295Y-126204647D01*
X175439342Y-126204647D01*
X175725057Y-125537980D02*
X176391723Y-125537980D01*
X175963152Y-126537980D01*
X173931342Y-116123980D02*
X173598009Y-115647790D01*
X173359914Y-116123980D02*
X173359914Y-115123980D01*
X173740866Y-115123980D01*
X173836104Y-115171600D01*
X173883723Y-115219219D01*
X173931342Y-115314457D01*
X173931342Y-115457314D01*
X173883723Y-115552552D01*
X173836104Y-115600171D01*
X173740866Y-115647790D01*
X173359914Y-115647790D01*
X174264676Y-115123980D02*
X174883723Y-115123980D01*
X174550390Y-115504933D01*
X174693247Y-115504933D01*
X174788485Y-115552552D01*
X174836104Y-115600171D01*
X174883723Y-115695409D01*
X174883723Y-115933504D01*
X174836104Y-116028742D01*
X174788485Y-116076361D01*
X174693247Y-116123980D01*
X174407533Y-116123980D01*
X174312295Y-116076361D01*
X174264676Y-116028742D01*
X175740866Y-115123980D02*
X175550390Y-115123980D01*
X175455152Y-115171600D01*
X175407533Y-115219219D01*
X175312295Y-115362076D01*
X175264676Y-115552552D01*
X175264676Y-115933504D01*
X175312295Y-116028742D01*
X175359914Y-116076361D01*
X175455152Y-116123980D01*
X175645628Y-116123980D01*
X175740866Y-116076361D01*
X175788485Y-116028742D01*
X175836104Y-115933504D01*
X175836104Y-115695409D01*
X175788485Y-115600171D01*
X175740866Y-115552552D01*
X175645628Y-115504933D01*
X175455152Y-115504933D01*
X175359914Y-115552552D01*
X175312295Y-115600171D01*
X175264676Y-115695409D01*
X174947342Y-153715980D02*
X174614009Y-153239790D01*
X174375914Y-153715980D02*
X174375914Y-152715980D01*
X174756866Y-152715980D01*
X174852104Y-152763600D01*
X174899723Y-152811219D01*
X174947342Y-152906457D01*
X174947342Y-153049314D01*
X174899723Y-153144552D01*
X174852104Y-153192171D01*
X174756866Y-153239790D01*
X174375914Y-153239790D01*
X175804485Y-153049314D02*
X175804485Y-153715980D01*
X175566390Y-152668361D02*
X175328295Y-153382647D01*
X175947342Y-153382647D01*
X176756866Y-152715980D02*
X176566390Y-152715980D01*
X176471152Y-152763600D01*
X176423533Y-152811219D01*
X176328295Y-152954076D01*
X176280676Y-153144552D01*
X176280676Y-153525504D01*
X176328295Y-153620742D01*
X176375914Y-153668361D01*
X176471152Y-153715980D01*
X176661628Y-153715980D01*
X176756866Y-153668361D01*
X176804485Y-153620742D01*
X176852104Y-153525504D01*
X176852104Y-153287409D01*
X176804485Y-153192171D01*
X176756866Y-153144552D01*
X176661628Y-153096933D01*
X176471152Y-153096933D01*
X176375914Y-153144552D01*
X176328295Y-153192171D01*
X176280676Y-153287409D01*
X176357142Y-107032380D02*
X176023809Y-106556190D01*
X175785714Y-107032380D02*
X175785714Y-106032380D01*
X176166666Y-106032380D01*
X176261904Y-106080000D01*
X176309523Y-106127619D01*
X176357142Y-106222857D01*
X176357142Y-106365714D01*
X176309523Y-106460952D01*
X176261904Y-106508571D01*
X176166666Y-106556190D01*
X175785714Y-106556190D01*
X176690476Y-106032380D02*
X177309523Y-106032380D01*
X176976190Y-106413333D01*
X177119047Y-106413333D01*
X177214285Y-106460952D01*
X177261904Y-106508571D01*
X177309523Y-106603809D01*
X177309523Y-106841904D01*
X177261904Y-106937142D01*
X177214285Y-106984761D01*
X177119047Y-107032380D01*
X176833333Y-107032380D01*
X176738095Y-106984761D01*
X176690476Y-106937142D01*
X177928571Y-106032380D02*
X178023809Y-106032380D01*
X178119047Y-106080000D01*
X178166666Y-106127619D01*
X178214285Y-106222857D01*
X178261904Y-106413333D01*
X178261904Y-106651428D01*
X178214285Y-106841904D01*
X178166666Y-106937142D01*
X178119047Y-106984761D01*
X178023809Y-107032380D01*
X177928571Y-107032380D01*
X177833333Y-106984761D01*
X177785714Y-106937142D01*
X177738095Y-106841904D01*
X177690476Y-106651428D01*
X177690476Y-106413333D01*
X177738095Y-106222857D01*
X177785714Y-106127619D01*
X177833333Y-106080000D01*
X177928571Y-106032380D01*
X175026580Y-109912457D02*
X174550390Y-110245790D01*
X175026580Y-110483885D02*
X174026580Y-110483885D01*
X174026580Y-110102933D01*
X174074200Y-110007695D01*
X174121819Y-109960076D01*
X174217057Y-109912457D01*
X174359914Y-109912457D01*
X174455152Y-109960076D01*
X174502771Y-110007695D01*
X174550390Y-110102933D01*
X174550390Y-110483885D01*
X174026580Y-109579123D02*
X174026580Y-108960076D01*
X174407533Y-109293409D01*
X174407533Y-109150552D01*
X174455152Y-109055314D01*
X174502771Y-109007695D01*
X174598009Y-108960076D01*
X174836104Y-108960076D01*
X174931342Y-109007695D01*
X174978961Y-109055314D01*
X175026580Y-109150552D01*
X175026580Y-109436266D01*
X174978961Y-109531504D01*
X174931342Y-109579123D01*
X174026580Y-108626742D02*
X174026580Y-108007695D01*
X174407533Y-108341028D01*
X174407533Y-108198171D01*
X174455152Y-108102933D01*
X174502771Y-108055314D01*
X174598009Y-108007695D01*
X174836104Y-108007695D01*
X174931342Y-108055314D01*
X174978961Y-108102933D01*
X175026580Y-108198171D01*
X175026580Y-108483885D01*
X174978961Y-108579123D01*
X174931342Y-108626742D01*
X173981342Y-114221980D02*
X173648009Y-113745790D01*
X173409914Y-114221980D02*
X173409914Y-113221980D01*
X173790866Y-113221980D01*
X173886104Y-113269600D01*
X173933723Y-113317219D01*
X173981342Y-113412457D01*
X173981342Y-113555314D01*
X173933723Y-113650552D01*
X173886104Y-113698171D01*
X173790866Y-113745790D01*
X173409914Y-113745790D01*
X174314676Y-113221980D02*
X174933723Y-113221980D01*
X174600390Y-113602933D01*
X174743247Y-113602933D01*
X174838485Y-113650552D01*
X174886104Y-113698171D01*
X174933723Y-113793409D01*
X174933723Y-114031504D01*
X174886104Y-114126742D01*
X174838485Y-114174361D01*
X174743247Y-114221980D01*
X174457533Y-114221980D01*
X174362295Y-114174361D01*
X174314676Y-114126742D01*
X175267057Y-113221980D02*
X175933723Y-113221980D01*
X175505152Y-114221980D01*
X173677342Y-145333980D02*
X173344009Y-144857790D01*
X173105914Y-145333980D02*
X173105914Y-144333980D01*
X173486866Y-144333980D01*
X173582104Y-144381600D01*
X173629723Y-144429219D01*
X173677342Y-144524457D01*
X173677342Y-144667314D01*
X173629723Y-144762552D01*
X173582104Y-144810171D01*
X173486866Y-144857790D01*
X173105914Y-144857790D01*
X174534485Y-144667314D02*
X174534485Y-145333980D01*
X174296390Y-144286361D02*
X174058295Y-145000647D01*
X174677342Y-145000647D01*
X175582104Y-145333980D02*
X175010676Y-145333980D01*
X175296390Y-145333980D02*
X175296390Y-144333980D01*
X175201152Y-144476838D01*
X175105914Y-144572076D01*
X175010676Y-144619695D01*
X175280580Y-147556457D02*
X174804390Y-147889790D01*
X175280580Y-148127885D02*
X174280580Y-148127885D01*
X174280580Y-147746933D01*
X174328200Y-147651695D01*
X174375819Y-147604076D01*
X174471057Y-147556457D01*
X174613914Y-147556457D01*
X174709152Y-147604076D01*
X174756771Y-147651695D01*
X174804390Y-147746933D01*
X174804390Y-148127885D01*
X174613914Y-146699314D02*
X175280580Y-146699314D01*
X174232961Y-146937409D02*
X174947247Y-147175504D01*
X174947247Y-146556457D01*
X174280580Y-146270742D02*
X174280580Y-145651695D01*
X174661533Y-145985028D01*
X174661533Y-145842171D01*
X174709152Y-145746933D01*
X174756771Y-145699314D01*
X174852009Y-145651695D01*
X175090104Y-145651695D01*
X175185342Y-145699314D01*
X175232961Y-145746933D01*
X175280580Y-145842171D01*
X175280580Y-146127885D01*
X175232961Y-146223123D01*
X175185342Y-146270742D01*
X174947342Y-151683980D02*
X174614009Y-151207790D01*
X174375914Y-151683980D02*
X174375914Y-150683980D01*
X174756866Y-150683980D01*
X174852104Y-150731600D01*
X174899723Y-150779219D01*
X174947342Y-150874457D01*
X174947342Y-151017314D01*
X174899723Y-151112552D01*
X174852104Y-151160171D01*
X174756866Y-151207790D01*
X174375914Y-151207790D01*
X175804485Y-151017314D02*
X175804485Y-151683980D01*
X175566390Y-150636361D02*
X175328295Y-151350647D01*
X175947342Y-151350647D01*
X176471152Y-151112552D02*
X176375914Y-151064933D01*
X176328295Y-151017314D01*
X176280676Y-150922076D01*
X176280676Y-150874457D01*
X176328295Y-150779219D01*
X176375914Y-150731600D01*
X176471152Y-150683980D01*
X176661628Y-150683980D01*
X176756866Y-150731600D01*
X176804485Y-150779219D01*
X176852104Y-150874457D01*
X176852104Y-150922076D01*
X176804485Y-151017314D01*
X176756866Y-151064933D01*
X176661628Y-151112552D01*
X176471152Y-151112552D01*
X176375914Y-151160171D01*
X176328295Y-151207790D01*
X176280676Y-151303028D01*
X176280676Y-151493504D01*
X176328295Y-151588742D01*
X176375914Y-151636361D01*
X176471152Y-151683980D01*
X176661628Y-151683980D01*
X176756866Y-151636361D01*
X176804485Y-151588742D01*
X176852104Y-151493504D01*
X176852104Y-151303028D01*
X176804485Y-151207790D01*
X176756866Y-151160171D01*
X176661628Y-151112552D01*
X237272580Y-123291504D02*
X238082104Y-123291504D01*
X238177342Y-123243885D01*
X238224961Y-123196266D01*
X238272580Y-123101028D01*
X238272580Y-122910552D01*
X238224961Y-122815314D01*
X238177342Y-122767695D01*
X238082104Y-122720076D01*
X237272580Y-122720076D01*
X238272580Y-121720076D02*
X238272580Y-122291504D01*
X238272580Y-122005790D02*
X237272580Y-122005790D01*
X237415438Y-122101028D01*
X237510676Y-122196266D01*
X237558295Y-122291504D01*
X237220980Y-120308601D02*
X237459076Y-120308601D01*
X237363838Y-120546696D02*
X237459076Y-120308601D01*
X237363838Y-120070505D01*
X237649552Y-120451458D02*
X237459076Y-120308601D01*
X237649552Y-120165743D01*
X237220980Y-120308601D02*
X237459076Y-120308601D01*
X237363838Y-120546696D02*
X237459076Y-120308601D01*
X237363838Y-120070505D01*
X237649552Y-120451458D02*
X237459076Y-120308601D01*
X237649552Y-120165743D01*
X237220980Y-120308601D02*
X237459076Y-120308601D01*
X237363838Y-120546696D02*
X237459076Y-120308601D01*
X237363838Y-120070505D01*
X237649552Y-120451458D02*
X237459076Y-120308601D01*
X237649552Y-120165743D01*
X244638580Y-123545504D02*
X245448104Y-123545504D01*
X245543342Y-123497885D01*
X245590961Y-123450266D01*
X245638580Y-123355028D01*
X245638580Y-123164552D01*
X245590961Y-123069314D01*
X245543342Y-123021695D01*
X245448104Y-122974076D01*
X244638580Y-122974076D01*
X244971914Y-122069314D02*
X245638580Y-122069314D01*
X244590961Y-122307409D02*
X245305247Y-122545504D01*
X245305247Y-121926457D01*
X244384580Y-119735600D02*
X244622676Y-119735600D01*
X244527438Y-119973695D02*
X244622676Y-119735600D01*
X244527438Y-119497504D01*
X244813152Y-119878457D02*
X244622676Y-119735600D01*
X244813152Y-119592742D01*
X244384580Y-119735600D02*
X244622676Y-119735600D01*
X244527438Y-119973695D02*
X244622676Y-119735600D01*
X244527438Y-119497504D01*
X244813152Y-119878457D02*
X244622676Y-119735600D01*
X244813152Y-119592742D01*
X244384580Y-119735600D02*
X244622676Y-119735600D01*
X244527438Y-119973695D02*
X244622676Y-119735600D01*
X244527438Y-119497504D01*
X244813152Y-119878457D02*
X244622676Y-119735600D01*
X244813152Y-119592742D01*
X244892580Y-111296304D02*
X245702104Y-111296304D01*
X245797342Y-111248685D01*
X245844961Y-111201066D01*
X245892580Y-111105828D01*
X245892580Y-110915352D01*
X245844961Y-110820114D01*
X245797342Y-110772495D01*
X245702104Y-110724876D01*
X244892580Y-110724876D01*
X244892580Y-110343923D02*
X244892580Y-109724876D01*
X245273533Y-110058209D01*
X245273533Y-109915352D01*
X245321152Y-109820114D01*
X245368771Y-109772495D01*
X245464009Y-109724876D01*
X245702104Y-109724876D01*
X245797342Y-109772495D01*
X245844961Y-109820114D01*
X245892580Y-109915352D01*
X245892580Y-110201066D01*
X245844961Y-110296304D01*
X245797342Y-110343923D01*
X244599980Y-107816600D02*
X244838076Y-107816600D01*
X244742838Y-108054695D02*
X244838076Y-107816600D01*
X244742838Y-107578504D01*
X245028552Y-107959457D02*
X244838076Y-107816600D01*
X245028552Y-107673742D01*
X244599980Y-107816600D02*
X244838076Y-107816600D01*
X244742838Y-108054695D02*
X244838076Y-107816600D01*
X244742838Y-107578504D01*
X245028552Y-107959457D02*
X244838076Y-107816600D01*
X245028552Y-107673742D01*
X244599980Y-107816600D02*
X244838076Y-107816600D01*
X244742838Y-108054695D02*
X244838076Y-107816600D01*
X244742838Y-107578504D01*
X245028552Y-107959457D02*
X244838076Y-107816600D01*
X245028552Y-107673742D01*
X218034395Y-118679980D02*
X218034395Y-119489504D01*
X218082014Y-119584742D01*
X218129633Y-119632361D01*
X218224871Y-119679980D01*
X218415347Y-119679980D01*
X218510585Y-119632361D01*
X218558204Y-119584742D01*
X218605823Y-119489504D01*
X218605823Y-118679980D01*
X219558204Y-118679980D02*
X219082014Y-118679980D01*
X219034395Y-119156171D01*
X219082014Y-119108552D01*
X219177252Y-119060933D01*
X219415347Y-119060933D01*
X219510585Y-119108552D01*
X219558204Y-119156171D01*
X219605823Y-119251409D01*
X219605823Y-119489504D01*
X219558204Y-119584742D01*
X219510585Y-119632361D01*
X219415347Y-119679980D01*
X219177252Y-119679980D01*
X219082014Y-119632361D01*
X219034395Y-119584742D01*
X216230200Y-114361980D02*
X216230200Y-114600076D01*
X215992104Y-114504838D02*
X216230200Y-114600076D01*
X216468295Y-114504838D01*
X216087342Y-114790552D02*
X216230200Y-114600076D01*
X216373057Y-114790552D01*
X216230200Y-114361980D02*
X216230200Y-114600076D01*
X215992104Y-114504838D02*
X216230200Y-114600076D01*
X216468295Y-114504838D01*
X216087342Y-114790552D02*
X216230200Y-114600076D01*
X216373057Y-114790552D01*
X200331342Y-130792457D02*
X200378961Y-130840076D01*
X200426580Y-130982933D01*
X200426580Y-131078171D01*
X200378961Y-131221028D01*
X200283723Y-131316266D01*
X200188485Y-131363885D01*
X199998009Y-131411504D01*
X199855152Y-131411504D01*
X199664676Y-131363885D01*
X199569438Y-131316266D01*
X199474200Y-131221028D01*
X199426580Y-131078171D01*
X199426580Y-130982933D01*
X199474200Y-130840076D01*
X199521819Y-130792457D01*
X199426580Y-130459123D02*
X199426580Y-129840076D01*
X199807533Y-130173409D01*
X199807533Y-130030552D01*
X199855152Y-129935314D01*
X199902771Y-129887695D01*
X199998009Y-129840076D01*
X200236104Y-129840076D01*
X200331342Y-129887695D01*
X200378961Y-129935314D01*
X200426580Y-130030552D01*
X200426580Y-130316266D01*
X200378961Y-130411504D01*
X200331342Y-130459123D01*
X199759914Y-128982933D02*
X200426580Y-128982933D01*
X199378961Y-129221028D02*
X200093247Y-129459123D01*
X200093247Y-128840076D01*
X205605742Y-135729057D02*
X205653361Y-135776676D01*
X205700980Y-135919533D01*
X205700980Y-136014771D01*
X205653361Y-136157628D01*
X205558123Y-136252866D01*
X205462885Y-136300485D01*
X205272409Y-136348104D01*
X205129552Y-136348104D01*
X204939076Y-136300485D01*
X204843838Y-136252866D01*
X204748600Y-136157628D01*
X204700980Y-136014771D01*
X204700980Y-135919533D01*
X204748600Y-135776676D01*
X204796219Y-135729057D01*
X204700980Y-135395723D02*
X204700980Y-134776676D01*
X205081933Y-135110009D01*
X205081933Y-134967152D01*
X205129552Y-134871914D01*
X205177171Y-134824295D01*
X205272409Y-134776676D01*
X205510504Y-134776676D01*
X205605742Y-134824295D01*
X205653361Y-134871914D01*
X205700980Y-134967152D01*
X205700980Y-135252866D01*
X205653361Y-135348104D01*
X205605742Y-135395723D01*
X204700980Y-133871914D02*
X204700980Y-134348104D01*
X205177171Y-134395723D01*
X205129552Y-134348104D01*
X205081933Y-134252866D01*
X205081933Y-134014771D01*
X205129552Y-133919533D01*
X205177171Y-133871914D01*
X205272409Y-133824295D01*
X205510504Y-133824295D01*
X205605742Y-133871914D01*
X205653361Y-133919533D01*
X205700980Y-134014771D01*
X205700980Y-134252866D01*
X205653361Y-134348104D01*
X205605742Y-134395723D01*
X205541742Y-154525057D02*
X205589361Y-154572676D01*
X205636980Y-154715533D01*
X205636980Y-154810771D01*
X205589361Y-154953628D01*
X205494123Y-155048866D01*
X205398885Y-155096485D01*
X205208409Y-155144104D01*
X205065552Y-155144104D01*
X204875076Y-155096485D01*
X204779838Y-155048866D01*
X204684600Y-154953628D01*
X204636980Y-154810771D01*
X204636980Y-154715533D01*
X204684600Y-154572676D01*
X204732219Y-154525057D01*
X204732219Y-154144104D02*
X204684600Y-154096485D01*
X204636980Y-154001247D01*
X204636980Y-153763152D01*
X204684600Y-153667914D01*
X204732219Y-153620295D01*
X204827457Y-153572676D01*
X204922695Y-153572676D01*
X205065552Y-153620295D01*
X205636980Y-154191723D01*
X205636980Y-153572676D01*
X204636980Y-152715533D02*
X204636980Y-152906009D01*
X204684600Y-153001247D01*
X204732219Y-153048866D01*
X204875076Y-153144104D01*
X205065552Y-153191723D01*
X205446504Y-153191723D01*
X205541742Y-153144104D01*
X205589361Y-153096485D01*
X205636980Y-153001247D01*
X205636980Y-152810771D01*
X205589361Y-152715533D01*
X205541742Y-152667914D01*
X205446504Y-152620295D01*
X205208409Y-152620295D01*
X205113171Y-152667914D01*
X205065552Y-152715533D01*
X205017933Y-152810771D01*
X205017933Y-153001247D01*
X205065552Y-153096485D01*
X205113171Y-153144104D01*
X205208409Y-153191723D01*
X223861342Y-140982457D02*
X223908961Y-141030076D01*
X223956580Y-141172933D01*
X223956580Y-141268171D01*
X223908961Y-141411028D01*
X223813723Y-141506266D01*
X223718485Y-141553885D01*
X223528009Y-141601504D01*
X223385152Y-141601504D01*
X223194676Y-141553885D01*
X223099438Y-141506266D01*
X223004200Y-141411028D01*
X222956580Y-141268171D01*
X222956580Y-141172933D01*
X223004200Y-141030076D01*
X223051819Y-140982457D01*
X222956580Y-140649123D02*
X222956580Y-140030076D01*
X223337533Y-140363409D01*
X223337533Y-140220552D01*
X223385152Y-140125314D01*
X223432771Y-140077695D01*
X223528009Y-140030076D01*
X223766104Y-140030076D01*
X223861342Y-140077695D01*
X223908961Y-140125314D01*
X223956580Y-140220552D01*
X223956580Y-140506266D01*
X223908961Y-140601504D01*
X223861342Y-140649123D01*
X222956580Y-139172933D02*
X222956580Y-139363409D01*
X223004200Y-139458647D01*
X223051819Y-139506266D01*
X223194676Y-139601504D01*
X223385152Y-139649123D01*
X223766104Y-139649123D01*
X223861342Y-139601504D01*
X223908961Y-139553885D01*
X223956580Y-139458647D01*
X223956580Y-139268171D01*
X223908961Y-139172933D01*
X223861342Y-139125314D01*
X223766104Y-139077695D01*
X223528009Y-139077695D01*
X223432771Y-139125314D01*
X223385152Y-139172933D01*
X223337533Y-139268171D01*
X223337533Y-139458647D01*
X223385152Y-139553885D01*
X223432771Y-139601504D01*
X223528009Y-139649123D01*
X225477342Y-158478457D02*
X225524961Y-158526076D01*
X225572580Y-158668933D01*
X225572580Y-158764171D01*
X225524961Y-158907028D01*
X225429723Y-159002266D01*
X225334485Y-159049885D01*
X225144009Y-159097504D01*
X225001152Y-159097504D01*
X224810676Y-159049885D01*
X224715438Y-159002266D01*
X224620200Y-158907028D01*
X224572580Y-158764171D01*
X224572580Y-158668933D01*
X224620200Y-158526076D01*
X224667819Y-158478457D01*
X224667819Y-158097504D02*
X224620200Y-158049885D01*
X224572580Y-157954647D01*
X224572580Y-157716552D01*
X224620200Y-157621314D01*
X224667819Y-157573695D01*
X224763057Y-157526076D01*
X224858295Y-157526076D01*
X225001152Y-157573695D01*
X225572580Y-158145123D01*
X225572580Y-157526076D01*
X224572580Y-157192742D02*
X224572580Y-156526076D01*
X225572580Y-156954647D01*
X223953342Y-135872457D02*
X224000961Y-135920076D01*
X224048580Y-136062933D01*
X224048580Y-136158171D01*
X224000961Y-136301028D01*
X223905723Y-136396266D01*
X223810485Y-136443885D01*
X223620009Y-136491504D01*
X223477152Y-136491504D01*
X223286676Y-136443885D01*
X223191438Y-136396266D01*
X223096200Y-136301028D01*
X223048580Y-136158171D01*
X223048580Y-136062933D01*
X223096200Y-135920076D01*
X223143819Y-135872457D01*
X223048580Y-135539123D02*
X223048580Y-134920076D01*
X223429533Y-135253409D01*
X223429533Y-135110552D01*
X223477152Y-135015314D01*
X223524771Y-134967695D01*
X223620009Y-134920076D01*
X223858104Y-134920076D01*
X223953342Y-134967695D01*
X224000961Y-135015314D01*
X224048580Y-135110552D01*
X224048580Y-135396266D01*
X224000961Y-135491504D01*
X223953342Y-135539123D01*
X223048580Y-134586742D02*
X223048580Y-133920076D01*
X224048580Y-134348647D01*
X222937342Y-158478457D02*
X222984961Y-158526076D01*
X223032580Y-158668933D01*
X223032580Y-158764171D01*
X222984961Y-158907028D01*
X222889723Y-159002266D01*
X222794485Y-159049885D01*
X222604009Y-159097504D01*
X222461152Y-159097504D01*
X222270676Y-159049885D01*
X222175438Y-159002266D01*
X222080200Y-158907028D01*
X222032580Y-158764171D01*
X222032580Y-158668933D01*
X222080200Y-158526076D01*
X222127819Y-158478457D01*
X222127819Y-158097504D02*
X222080200Y-158049885D01*
X222032580Y-157954647D01*
X222032580Y-157716552D01*
X222080200Y-157621314D01*
X222127819Y-157573695D01*
X222223057Y-157526076D01*
X222318295Y-157526076D01*
X222461152Y-157573695D01*
X223032580Y-158145123D01*
X223032580Y-157526076D01*
X222461152Y-156954647D02*
X222413533Y-157049885D01*
X222365914Y-157097504D01*
X222270676Y-157145123D01*
X222223057Y-157145123D01*
X222127819Y-157097504D01*
X222080200Y-157049885D01*
X222032580Y-156954647D01*
X222032580Y-156764171D01*
X222080200Y-156668933D01*
X222127819Y-156621314D01*
X222223057Y-156573695D01*
X222270676Y-156573695D01*
X222365914Y-156621314D01*
X222413533Y-156668933D01*
X222461152Y-156764171D01*
X222461152Y-156954647D01*
X222508771Y-157049885D01*
X222556390Y-157097504D01*
X222651628Y-157145123D01*
X222842104Y-157145123D01*
X222937342Y-157097504D01*
X222984961Y-157049885D01*
X223032580Y-156954647D01*
X223032580Y-156764171D01*
X222984961Y-156668933D01*
X222937342Y-156621314D01*
X222842104Y-156573695D01*
X222651628Y-156573695D01*
X222556390Y-156621314D01*
X222508771Y-156668933D01*
X222461152Y-156764171D01*
X226493342Y-113266457D02*
X226540961Y-113314076D01*
X226588580Y-113456933D01*
X226588580Y-113552171D01*
X226540961Y-113695028D01*
X226445723Y-113790266D01*
X226350485Y-113837885D01*
X226160009Y-113885504D01*
X226017152Y-113885504D01*
X225826676Y-113837885D01*
X225731438Y-113790266D01*
X225636200Y-113695028D01*
X225588580Y-113552171D01*
X225588580Y-113456933D01*
X225636200Y-113314076D01*
X225683819Y-113266457D01*
X225588580Y-112933123D02*
X225588580Y-112314076D01*
X225969533Y-112647409D01*
X225969533Y-112504552D01*
X226017152Y-112409314D01*
X226064771Y-112361695D01*
X226160009Y-112314076D01*
X226398104Y-112314076D01*
X226493342Y-112361695D01*
X226540961Y-112409314D01*
X226588580Y-112504552D01*
X226588580Y-112790266D01*
X226540961Y-112885504D01*
X226493342Y-112933123D01*
X226017152Y-111742647D02*
X225969533Y-111837885D01*
X225921914Y-111885504D01*
X225826676Y-111933123D01*
X225779057Y-111933123D01*
X225683819Y-111885504D01*
X225636200Y-111837885D01*
X225588580Y-111742647D01*
X225588580Y-111552171D01*
X225636200Y-111456933D01*
X225683819Y-111409314D01*
X225779057Y-111361695D01*
X225826676Y-111361695D01*
X225921914Y-111409314D01*
X225969533Y-111456933D01*
X226017152Y-111552171D01*
X226017152Y-111742647D01*
X226064771Y-111837885D01*
X226112390Y-111885504D01*
X226207628Y-111933123D01*
X226398104Y-111933123D01*
X226493342Y-111885504D01*
X226540961Y-111837885D01*
X226588580Y-111742647D01*
X226588580Y-111552171D01*
X226540961Y-111456933D01*
X226493342Y-111409314D01*
X226398104Y-111361695D01*
X226207628Y-111361695D01*
X226112390Y-111409314D01*
X226064771Y-111456933D01*
X226017152Y-111552171D01*
X214317342Y-115774742D02*
X214269723Y-115822361D01*
X214126866Y-115869980D01*
X214031628Y-115869980D01*
X213888771Y-115822361D01*
X213793533Y-115727123D01*
X213745914Y-115631885D01*
X213698295Y-115441409D01*
X213698295Y-115298552D01*
X213745914Y-115108076D01*
X213793533Y-115012838D01*
X213888771Y-114917600D01*
X214031628Y-114869980D01*
X214126866Y-114869980D01*
X214269723Y-114917600D01*
X214317342Y-114965219D01*
X214698295Y-114965219D02*
X214745914Y-114917600D01*
X214841152Y-114869980D01*
X215079247Y-114869980D01*
X215174485Y-114917600D01*
X215222104Y-114965219D01*
X215269723Y-115060457D01*
X215269723Y-115155695D01*
X215222104Y-115298552D01*
X214650676Y-115869980D01*
X215269723Y-115869980D01*
X216126866Y-115203314D02*
X216126866Y-115869980D01*
X215888771Y-114822361D02*
X215650676Y-115536647D01*
X216269723Y-115536647D01*
X201617342Y-113742742D02*
X201569723Y-113790361D01*
X201426866Y-113837980D01*
X201331628Y-113837980D01*
X201188771Y-113790361D01*
X201093533Y-113695123D01*
X201045914Y-113599885D01*
X200998295Y-113409409D01*
X200998295Y-113266552D01*
X201045914Y-113076076D01*
X201093533Y-112980838D01*
X201188771Y-112885600D01*
X201331628Y-112837980D01*
X201426866Y-112837980D01*
X201569723Y-112885600D01*
X201617342Y-112933219D01*
X201950676Y-112837980D02*
X202569723Y-112837980D01*
X202236390Y-113218933D01*
X202379247Y-113218933D01*
X202474485Y-113266552D01*
X202522104Y-113314171D01*
X202569723Y-113409409D01*
X202569723Y-113647504D01*
X202522104Y-113742742D01*
X202474485Y-113790361D01*
X202379247Y-113837980D01*
X202093533Y-113837980D01*
X201998295Y-113790361D01*
X201950676Y-113742742D01*
X202903057Y-112837980D02*
X203522104Y-112837980D01*
X203188771Y-113218933D01*
X203331628Y-113218933D01*
X203426866Y-113266552D01*
X203474485Y-113314171D01*
X203522104Y-113409409D01*
X203522104Y-113647504D01*
X203474485Y-113742742D01*
X203426866Y-113790361D01*
X203331628Y-113837980D01*
X203045914Y-113837980D01*
X202950676Y-113790361D01*
X202903057Y-113742742D01*
X220413342Y-111456742D02*
X220365723Y-111504361D01*
X220222866Y-111551980D01*
X220127628Y-111551980D01*
X219984771Y-111504361D01*
X219889533Y-111409123D01*
X219841914Y-111313885D01*
X219794295Y-111123409D01*
X219794295Y-110980552D01*
X219841914Y-110790076D01*
X219889533Y-110694838D01*
X219984771Y-110599600D01*
X220127628Y-110551980D01*
X220222866Y-110551980D01*
X220365723Y-110599600D01*
X220413342Y-110647219D01*
X220794295Y-110647219D02*
X220841914Y-110599600D01*
X220937152Y-110551980D01*
X221175247Y-110551980D01*
X221270485Y-110599600D01*
X221318104Y-110647219D01*
X221365723Y-110742457D01*
X221365723Y-110837695D01*
X221318104Y-110980552D01*
X220746676Y-111551980D01*
X221365723Y-111551980D01*
X221746676Y-110647219D02*
X221794295Y-110599600D01*
X221889533Y-110551980D01*
X222127628Y-110551980D01*
X222222866Y-110599600D01*
X222270485Y-110647219D01*
X222318104Y-110742457D01*
X222318104Y-110837695D01*
X222270485Y-110980552D01*
X221699057Y-111551980D01*
X222318104Y-111551980D01*
X210215942Y-111710742D02*
X210168323Y-111758361D01*
X210025466Y-111805980D01*
X209930228Y-111805980D01*
X209787371Y-111758361D01*
X209692133Y-111663123D01*
X209644514Y-111567885D01*
X209596895Y-111377409D01*
X209596895Y-111234552D01*
X209644514Y-111044076D01*
X209692133Y-110948838D01*
X209787371Y-110853600D01*
X209930228Y-110805980D01*
X210025466Y-110805980D01*
X210168323Y-110853600D01*
X210215942Y-110901219D01*
X210549276Y-110805980D02*
X211168323Y-110805980D01*
X210834990Y-111186933D01*
X210977847Y-111186933D01*
X211073085Y-111234552D01*
X211120704Y-111282171D01*
X211168323Y-111377409D01*
X211168323Y-111615504D01*
X211120704Y-111710742D01*
X211073085Y-111758361D01*
X210977847Y-111805980D01*
X210692133Y-111805980D01*
X210596895Y-111758361D01*
X210549276Y-111710742D01*
X212120704Y-111805980D02*
X211549276Y-111805980D01*
X211834990Y-111805980D02*
X211834990Y-110805980D01*
X211739752Y-110948838D01*
X211644514Y-111044076D01*
X211549276Y-111091695D01*
X173581342Y-109962457D02*
X173628961Y-110010076D01*
X173676580Y-110152933D01*
X173676580Y-110248171D01*
X173628961Y-110391028D01*
X173533723Y-110486266D01*
X173438485Y-110533885D01*
X173248009Y-110581504D01*
X173105152Y-110581504D01*
X172914676Y-110533885D01*
X172819438Y-110486266D01*
X172724200Y-110391028D01*
X172676580Y-110248171D01*
X172676580Y-110152933D01*
X172724200Y-110010076D01*
X172771819Y-109962457D01*
X173009914Y-109105314D02*
X173676580Y-109105314D01*
X172628961Y-109343409D02*
X173343247Y-109581504D01*
X173343247Y-108962457D01*
X173676580Y-108533885D02*
X173676580Y-108343409D01*
X173628961Y-108248171D01*
X173581342Y-108200552D01*
X173438485Y-108105314D01*
X173248009Y-108057695D01*
X172867057Y-108057695D01*
X172771819Y-108105314D01*
X172724200Y-108152933D01*
X172676580Y-108248171D01*
X172676580Y-108438647D01*
X172724200Y-108533885D01*
X172771819Y-108581504D01*
X172867057Y-108629123D01*
X173105152Y-108629123D01*
X173200390Y-108581504D01*
X173248009Y-108533885D01*
X173295628Y-108438647D01*
X173295628Y-108248171D01*
X173248009Y-108152933D01*
X173200390Y-108105314D01*
X173105152Y-108057695D01*
X173915342Y-147556457D02*
X173962961Y-147604076D01*
X174010580Y-147746933D01*
X174010580Y-147842171D01*
X173962961Y-147985028D01*
X173867723Y-148080266D01*
X173772485Y-148127885D01*
X173582009Y-148175504D01*
X173439152Y-148175504D01*
X173248676Y-148127885D01*
X173153438Y-148080266D01*
X173058200Y-147985028D01*
X173010580Y-147842171D01*
X173010580Y-147746933D01*
X173058200Y-147604076D01*
X173105819Y-147556457D01*
X173010580Y-146651695D02*
X173010580Y-147127885D01*
X173486771Y-147175504D01*
X173439152Y-147127885D01*
X173391533Y-147032647D01*
X173391533Y-146794552D01*
X173439152Y-146699314D01*
X173486771Y-146651695D01*
X173582009Y-146604076D01*
X173820104Y-146604076D01*
X173915342Y-146651695D01*
X173962961Y-146699314D01*
X174010580Y-146794552D01*
X174010580Y-147032647D01*
X173962961Y-147127885D01*
X173915342Y-147175504D01*
X173439152Y-146032647D02*
X173391533Y-146127885D01*
X173343914Y-146175504D01*
X173248676Y-146223123D01*
X173201057Y-146223123D01*
X173105819Y-146175504D01*
X173058200Y-146127885D01*
X173010580Y-146032647D01*
X173010580Y-145842171D01*
X173058200Y-145746933D01*
X173105819Y-145699314D01*
X173201057Y-145651695D01*
X173248676Y-145651695D01*
X173343914Y-145699314D01*
X173391533Y-145746933D01*
X173439152Y-145842171D01*
X173439152Y-146032647D01*
X173486771Y-146127885D01*
X173534390Y-146175504D01*
X173629628Y-146223123D01*
X173820104Y-146223123D01*
X173915342Y-146175504D01*
X173962961Y-146127885D01*
X174010580Y-146032647D01*
X174010580Y-145842171D01*
X173962961Y-145746933D01*
X173915342Y-145699314D01*
X173820104Y-145651695D01*
X173629628Y-145651695D01*
X173534390Y-145699314D01*
X173486771Y-145746933D01*
X173439152Y-145842171D01*
X195998742Y-127208657D02*
X196046361Y-127256276D01*
X196093980Y-127399133D01*
X196093980Y-127494371D01*
X196046361Y-127637228D01*
X195951123Y-127732466D01*
X195855885Y-127780085D01*
X195665409Y-127827704D01*
X195522552Y-127827704D01*
X195332076Y-127780085D01*
X195236838Y-127732466D01*
X195141600Y-127637228D01*
X195093980Y-127494371D01*
X195093980Y-127399133D01*
X195141600Y-127256276D01*
X195189219Y-127208657D01*
X195427314Y-126351514D02*
X196093980Y-126351514D01*
X195046361Y-126589609D02*
X195760647Y-126827704D01*
X195760647Y-126208657D01*
X195093980Y-125922942D02*
X195093980Y-125256276D01*
X196093980Y-125684847D01*
X200331342Y-139682457D02*
X200378961Y-139730076D01*
X200426580Y-139872933D01*
X200426580Y-139968171D01*
X200378961Y-140111028D01*
X200283723Y-140206266D01*
X200188485Y-140253885D01*
X199998009Y-140301504D01*
X199855152Y-140301504D01*
X199664676Y-140253885D01*
X199569438Y-140206266D01*
X199474200Y-140111028D01*
X199426580Y-139968171D01*
X199426580Y-139872933D01*
X199474200Y-139730076D01*
X199521819Y-139682457D01*
X199426580Y-138777695D02*
X199426580Y-139253885D01*
X199902771Y-139301504D01*
X199855152Y-139253885D01*
X199807533Y-139158647D01*
X199807533Y-138920552D01*
X199855152Y-138825314D01*
X199902771Y-138777695D01*
X199998009Y-138730076D01*
X200236104Y-138730076D01*
X200331342Y-138777695D01*
X200378961Y-138825314D01*
X200426580Y-138920552D01*
X200426580Y-139158647D01*
X200378961Y-139253885D01*
X200331342Y-139301504D01*
X199426580Y-138396742D02*
X199426580Y-137730076D01*
X200426580Y-138158647D01*
X228454676Y-109758171D02*
X228121342Y-109758171D01*
X228121342Y-110281980D02*
X228121342Y-109281980D01*
X228597533Y-109281980D01*
X229311819Y-109758171D02*
X229454676Y-109805790D01*
X229502295Y-109853409D01*
X229549914Y-109948647D01*
X229549914Y-110091504D01*
X229502295Y-110186742D01*
X229454676Y-110234361D01*
X229359438Y-110281980D01*
X228978485Y-110281980D01*
X228978485Y-109281980D01*
X229311819Y-109281980D01*
X229407057Y-109329600D01*
X229454676Y-109377219D01*
X229502295Y-109472457D01*
X229502295Y-109567695D01*
X229454676Y-109662933D01*
X229407057Y-109710552D01*
X229311819Y-109758171D01*
X228978485Y-109758171D01*
X230502295Y-110281980D02*
X229930866Y-110281980D01*
X230216580Y-110281980D02*
X230216580Y-109281980D01*
X230121342Y-109424838D01*
X230026104Y-109520076D01*
X229930866Y-109567695D01*
X230835628Y-109281980D02*
X231454676Y-109281980D01*
X231121342Y-109662933D01*
X231264200Y-109662933D01*
X231359438Y-109710552D01*
X231407057Y-109758171D01*
X231454676Y-109853409D01*
X231454676Y-110091504D01*
X231407057Y-110186742D01*
X231359438Y-110234361D01*
X231264200Y-110281980D01*
X230978485Y-110281980D01*
X230883247Y-110234361D01*
X230835628Y-110186742D01*
X221254580Y-131808457D02*
X220778390Y-132141790D01*
X221254580Y-132379885D02*
X220254580Y-132379885D01*
X220254580Y-131998933D01*
X220302200Y-131903695D01*
X220349819Y-131856076D01*
X220445057Y-131808457D01*
X220587914Y-131808457D01*
X220683152Y-131856076D01*
X220730771Y-131903695D01*
X220778390Y-131998933D01*
X220778390Y-132379885D01*
X220349819Y-131427504D02*
X220302200Y-131379885D01*
X220254580Y-131284647D01*
X220254580Y-131046552D01*
X220302200Y-130951314D01*
X220349819Y-130903695D01*
X220445057Y-130856076D01*
X220540295Y-130856076D01*
X220683152Y-130903695D01*
X221254580Y-131475123D01*
X221254580Y-130856076D01*
X220254580Y-130522742D02*
X220254580Y-129856076D01*
X221254580Y-130284647D01*
X218381342Y-139237980D02*
X218048009Y-138761790D01*
X217809914Y-139237980D02*
X217809914Y-138237980D01*
X218190866Y-138237980D01*
X218286104Y-138285600D01*
X218333723Y-138333219D01*
X218381342Y-138428457D01*
X218381342Y-138571314D01*
X218333723Y-138666552D01*
X218286104Y-138714171D01*
X218190866Y-138761790D01*
X217809914Y-138761790D01*
X218762295Y-138333219D02*
X218809914Y-138285600D01*
X218905152Y-138237980D01*
X219143247Y-138237980D01*
X219238485Y-138285600D01*
X219286104Y-138333219D01*
X219333723Y-138428457D01*
X219333723Y-138523695D01*
X219286104Y-138666552D01*
X218714676Y-139237980D01*
X219333723Y-139237980D01*
X219905152Y-138666552D02*
X219809914Y-138618933D01*
X219762295Y-138571314D01*
X219714676Y-138476076D01*
X219714676Y-138428457D01*
X219762295Y-138333219D01*
X219809914Y-138285600D01*
X219905152Y-138237980D01*
X220095628Y-138237980D01*
X220190866Y-138285600D01*
X220238485Y-138333219D01*
X220286104Y-138428457D01*
X220286104Y-138476076D01*
X220238485Y-138571314D01*
X220190866Y-138618933D01*
X220095628Y-138666552D01*
X219905152Y-138666552D01*
X219809914Y-138714171D01*
X219762295Y-138761790D01*
X219714676Y-138857028D01*
X219714676Y-139047504D01*
X219762295Y-139142742D01*
X219809914Y-139190361D01*
X219905152Y-139237980D01*
X220095628Y-139237980D01*
X220190866Y-139190361D01*
X220238485Y-139142742D01*
X220286104Y-139047504D01*
X220286104Y-138857028D01*
X220238485Y-138761790D01*
X220190866Y-138714171D01*
X220095628Y-138666552D01*
X174541342Y-122461980D02*
X174208009Y-121985790D01*
X173969914Y-122461980D02*
X173969914Y-121461980D01*
X174350866Y-121461980D01*
X174446104Y-121509600D01*
X174493723Y-121557219D01*
X174541342Y-121652457D01*
X174541342Y-121795314D01*
X174493723Y-121890552D01*
X174446104Y-121938171D01*
X174350866Y-121985790D01*
X173969914Y-121985790D01*
X175398485Y-121795314D02*
X175398485Y-122461980D01*
X175160390Y-121414361D02*
X174922295Y-122128647D01*
X175541342Y-122128647D01*
X176350866Y-121795314D02*
X176350866Y-122461980D01*
X176112771Y-121414361D02*
X175874676Y-122128647D01*
X176493723Y-122128647D01*
X166290866Y-106321980D02*
X166290866Y-107036266D01*
X166243247Y-107179123D01*
X166148009Y-107274361D01*
X166005152Y-107321980D01*
X165909914Y-107321980D01*
X166719438Y-106417219D02*
X166767057Y-106369600D01*
X166862295Y-106321980D01*
X167100390Y-106321980D01*
X167195628Y-106369600D01*
X167243247Y-106417219D01*
X167290866Y-106512457D01*
X167290866Y-106607695D01*
X167243247Y-106750552D01*
X166671819Y-107321980D01*
X167290866Y-107321980D01*
X158922380Y-133821466D02*
X158922380Y-134297657D01*
X157922380Y-134297657D01*
X158922380Y-132964323D02*
X158922380Y-133535752D01*
X158922380Y-133250038D02*
X157922380Y-133250038D01*
X158065238Y-133345276D01*
X158160476Y-133440514D01*
X158208095Y-133535752D01*
M02*
