G04 #@! TF.GenerationSoftware,KiCad,Pcbnew,5.1.5-52549c5~84~ubuntu18.04.1*
G04 #@! TF.CreationDate,2019-12-01T16:37:40+01:00*
G04 #@! TF.ProjectId,power_control_ipe_v1,706f7765-725f-4636-9f6e-74726f6c5f69,rev?*
G04 #@! TF.SameCoordinates,Original*
G04 #@! TF.FileFunction,Legend,Bot*
G04 #@! TF.FilePolarity,Positive*
%FSLAX46Y46*%
G04 Gerber Fmt 4.6, Leading zero omitted, Abs format (unit mm)*
G04 Created by KiCad (PCBNEW 5.1.5-52549c5~84~ubuntu18.04.1) date 2019-12-01 16:37:40*
%MOMM*%
%LPD*%
G04 APERTURE LIST*
%ADD10C,0.120000*%
%ADD11C,0.152400*%
%ADD12C,0.100000*%
%ADD13C,0.150000*%
G04 APERTURE END LIST*
D10*
X231000452Y-153939600D02*
X228227948Y-153939600D01*
X231000452Y-150519600D02*
X228227948Y-150519600D01*
D11*
X183579800Y-119229040D02*
X183579800Y-121525200D01*
X176518600Y-116760160D02*
X176518600Y-114464000D01*
X176518600Y-121525200D02*
X176518600Y-119229040D01*
X183579800Y-121525200D02*
X176518600Y-121525200D01*
X183579800Y-114464000D02*
X183579800Y-116760160D01*
X176518600Y-114464000D02*
X183579800Y-114464000D01*
X174524700Y-118375600D02*
X174524700Y-117613600D01*
X174905700Y-117994600D02*
X174143700Y-117994600D01*
X185752300Y-116322660D02*
X185752300Y-115626700D01*
X193296100Y-119477340D02*
X193296100Y-120173300D01*
X193296100Y-115626700D02*
X193296100Y-116322660D01*
X185752300Y-115626700D02*
X193296100Y-115626700D01*
X185752300Y-120173300D02*
X185752300Y-119477340D01*
X193296100Y-120173300D02*
X185752300Y-120173300D01*
X195086800Y-117519000D02*
X195086800Y-118281000D01*
X194705800Y-117900000D02*
X195467800Y-117900000D01*
X185919300Y-140842260D02*
X185919300Y-140146300D01*
X193463100Y-143996940D02*
X193463100Y-144692900D01*
X193463100Y-140146300D02*
X193463100Y-140842260D01*
X185919300Y-140146300D02*
X193463100Y-140146300D01*
X185919300Y-144692900D02*
X185919300Y-143996940D01*
X193463100Y-144692900D02*
X185919300Y-144692900D01*
X195253800Y-142038600D02*
X195253800Y-142800600D01*
X194872800Y-142419600D02*
X195634800Y-142419600D01*
X185919300Y-153638660D02*
X185919300Y-152942700D01*
X193463100Y-156793340D02*
X193463100Y-157489300D01*
X193463100Y-152942700D02*
X193463100Y-153638660D01*
X185919300Y-152942700D02*
X193463100Y-152942700D01*
X185919300Y-157489300D02*
X185919300Y-156793340D01*
X193463100Y-157489300D02*
X185919300Y-157489300D01*
X195253800Y-154835000D02*
X195253800Y-155597000D01*
X194872800Y-155216000D02*
X195634800Y-155216000D01*
X185919300Y-128654660D02*
X185919300Y-127958700D01*
X193463100Y-131809340D02*
X193463100Y-132505300D01*
X193463100Y-127958700D02*
X193463100Y-128654660D01*
X185919300Y-127958700D02*
X193463100Y-127958700D01*
X185919300Y-132505300D02*
X185919300Y-131809340D01*
X193463100Y-132505300D02*
X185919300Y-132505300D01*
X195253800Y-129851000D02*
X195253800Y-130613000D01*
X194872800Y-130232000D02*
X195634800Y-130232000D01*
X183591200Y-143679040D02*
X183591200Y-145975200D01*
X176530000Y-141210160D02*
X176530000Y-138914000D01*
X176530000Y-145975200D02*
X176530000Y-143679040D01*
X183591200Y-145975200D02*
X176530000Y-145975200D01*
X183591200Y-138914000D02*
X183591200Y-141210160D01*
X176530000Y-138914000D02*
X183591200Y-138914000D01*
X174536100Y-142825600D02*
X174536100Y-142063600D01*
X174917100Y-142444600D02*
X174155100Y-142444600D01*
X183750400Y-131485640D02*
X183750400Y-133781800D01*
X176689200Y-129016760D02*
X176689200Y-126720600D01*
X176689200Y-133781800D02*
X176689200Y-131485640D01*
X183750400Y-133781800D02*
X176689200Y-133781800D01*
X183750400Y-126720600D02*
X183750400Y-129016760D01*
X176689200Y-126720600D02*
X183750400Y-126720600D01*
X174695300Y-130632200D02*
X174695300Y-129870200D01*
X175076300Y-130251200D02*
X174314300Y-130251200D01*
X183591200Y-156496640D02*
X183591200Y-158792800D01*
X176530000Y-154027760D02*
X176530000Y-151731600D01*
X176530000Y-158792800D02*
X176530000Y-156496640D01*
X183591200Y-158792800D02*
X176530000Y-158792800D01*
X183591200Y-151731600D02*
X183591200Y-154027760D01*
X176530000Y-151731600D02*
X183591200Y-151731600D01*
X174536100Y-155643200D02*
X174536100Y-154881200D01*
X174917100Y-155262200D02*
X174155100Y-155262200D01*
D10*
X189626264Y-147444000D02*
X188422136Y-147444000D01*
X189626264Y-145624000D02*
X188422136Y-145624000D01*
X197920278Y-131779600D02*
X197403122Y-131779600D01*
X197920278Y-130359600D02*
X197403122Y-130359600D01*
X166248579Y-153172300D02*
X165923021Y-153172300D01*
X166248579Y-152152300D02*
X165923021Y-152152300D01*
X244084200Y-134676821D02*
X244084200Y-135002379D01*
X243064200Y-134676821D02*
X243064200Y-135002379D01*
X242974200Y-125812379D02*
X242974200Y-125486821D01*
X243994200Y-125812379D02*
X243994200Y-125486821D01*
X242954200Y-113402379D02*
X242954200Y-113076821D01*
X243974200Y-113402379D02*
X243974200Y-113076821D01*
X240391200Y-113427079D02*
X240391200Y-113101521D01*
X241411200Y-113427079D02*
X241411200Y-113101521D01*
X240389600Y-125822379D02*
X240389600Y-125496821D01*
X241409600Y-125822379D02*
X241409600Y-125496821D01*
X241504200Y-134706821D02*
X241504200Y-135032379D01*
X240484200Y-134706821D02*
X240484200Y-135032379D01*
D11*
X165248000Y-137466860D02*
X165248000Y-137198000D01*
X168352000Y-138733140D02*
X168352000Y-139002000D01*
X168352000Y-137198000D02*
X168352000Y-137466860D01*
X165248000Y-137198000D02*
X168352000Y-137198000D01*
X165248000Y-139002000D02*
X165248000Y-138733140D01*
X168352000Y-139002000D02*
X165248000Y-139002000D01*
D12*
X167700000Y-134225000D02*
X167400000Y-134225000D01*
X167700000Y-134600000D02*
X167700000Y-134225000D01*
X164400000Y-134225000D02*
X164400000Y-134675000D01*
X164700000Y-134225000D02*
X164400000Y-134225000D01*
X164625000Y-134225000D02*
X164750000Y-134225000D01*
X164400000Y-135875000D02*
X164750000Y-135875000D01*
X164400000Y-135400000D02*
X164400000Y-135875000D01*
X167375000Y-135875000D02*
X167375000Y-136650000D01*
X167425000Y-135875000D02*
X167375000Y-135875000D01*
X167700000Y-135500000D02*
X167425000Y-135875000D01*
X167700000Y-135225000D02*
X167700000Y-135500000D01*
D10*
X166062779Y-132710000D02*
X165737221Y-132710000D01*
X166062779Y-131690000D02*
X165737221Y-131690000D01*
X169510000Y-135149721D02*
X169510000Y-135475279D01*
X168490000Y-135149721D02*
X168490000Y-135475279D01*
X166223179Y-154848700D02*
X165897621Y-154848700D01*
X166223179Y-153828700D02*
X165897621Y-153828700D01*
X189726264Y-135079600D02*
X188522136Y-135079600D01*
X189726264Y-133259600D02*
X188522136Y-133259600D01*
X189702064Y-122710000D02*
X188497936Y-122710000D01*
X189702064Y-120890000D02*
X188497936Y-120890000D01*
X189755864Y-159936000D02*
X188551736Y-159936000D01*
X189755864Y-158116000D02*
X188551736Y-158116000D01*
X199210452Y-135779600D02*
X196437948Y-135779600D01*
X199210452Y-132359600D02*
X196437948Y-132359600D01*
D13*
X230447533Y-149508171D02*
X230780866Y-149508171D01*
X230780866Y-150031980D02*
X230780866Y-149031980D01*
X230304676Y-149031980D01*
X229590390Y-149508171D02*
X229447533Y-149555790D01*
X229399914Y-149603409D01*
X229352295Y-149698647D01*
X229352295Y-149841504D01*
X229399914Y-149936742D01*
X229447533Y-149984361D01*
X229542771Y-150031980D01*
X229923723Y-150031980D01*
X229923723Y-149031980D01*
X229590390Y-149031980D01*
X229495152Y-149079600D01*
X229447533Y-149127219D01*
X229399914Y-149222457D01*
X229399914Y-149317695D01*
X229447533Y-149412933D01*
X229495152Y-149460552D01*
X229590390Y-149508171D01*
X229923723Y-149508171D01*
X228447533Y-149031980D02*
X228923723Y-149031980D01*
X228971342Y-149508171D01*
X228923723Y-149460552D01*
X228828485Y-149412933D01*
X228590390Y-149412933D01*
X228495152Y-149460552D01*
X228447533Y-149508171D01*
X228399914Y-149603409D01*
X228399914Y-149841504D01*
X228447533Y-149936742D01*
X228495152Y-149984361D01*
X228590390Y-150031980D01*
X228828485Y-150031980D01*
X228923723Y-149984361D01*
X228971342Y-149936742D01*
X197790866Y-139111980D02*
X198124200Y-138635790D01*
X198362295Y-139111980D02*
X198362295Y-138111980D01*
X197981342Y-138111980D01*
X197886104Y-138159600D01*
X197838485Y-138207219D01*
X197790866Y-138302457D01*
X197790866Y-138445314D01*
X197838485Y-138540552D01*
X197886104Y-138588171D01*
X197981342Y-138635790D01*
X198362295Y-138635790D01*
X196838485Y-139111980D02*
X197409914Y-139111980D01*
X197124200Y-139111980D02*
X197124200Y-138111980D01*
X197219438Y-138254838D01*
X197314676Y-138350076D01*
X197409914Y-138397695D01*
X180492057Y-122851742D02*
X180539676Y-122899361D01*
X180682533Y-122946980D01*
X180777771Y-122946980D01*
X180920628Y-122899361D01*
X181015866Y-122804123D01*
X181063485Y-122708885D01*
X181111104Y-122518409D01*
X181111104Y-122375552D01*
X181063485Y-122185076D01*
X181015866Y-122089838D01*
X180920628Y-121994600D01*
X180777771Y-121946980D01*
X180682533Y-121946980D01*
X180539676Y-121994600D01*
X180492057Y-122042219D01*
X179634914Y-122280314D02*
X179634914Y-122946980D01*
X179873009Y-121899361D02*
X180111104Y-122613647D01*
X179492057Y-122613647D01*
X179158723Y-122042219D02*
X179111104Y-121994600D01*
X179015866Y-121946980D01*
X178777771Y-121946980D01*
X178682533Y-121994600D01*
X178634914Y-122042219D01*
X178587295Y-122137457D01*
X178587295Y-122232695D01*
X178634914Y-122375552D01*
X179206342Y-122946980D01*
X178587295Y-122946980D01*
X175124200Y-116101980D02*
X175124200Y-116340076D01*
X175362295Y-116244838D02*
X175124200Y-116340076D01*
X174886104Y-116244838D01*
X175267057Y-116530552D02*
X175124200Y-116340076D01*
X174981342Y-116530552D01*
X193597057Y-114636742D02*
X193644676Y-114684361D01*
X193787533Y-114731980D01*
X193882771Y-114731980D01*
X194025628Y-114684361D01*
X194120866Y-114589123D01*
X194168485Y-114493885D01*
X194216104Y-114303409D01*
X194216104Y-114160552D01*
X194168485Y-113970076D01*
X194120866Y-113874838D01*
X194025628Y-113779600D01*
X193882771Y-113731980D01*
X193787533Y-113731980D01*
X193644676Y-113779600D01*
X193597057Y-113827219D01*
X192739914Y-114065314D02*
X192739914Y-114731980D01*
X192978009Y-113684361D02*
X193216104Y-114398647D01*
X192597057Y-114398647D01*
X191739914Y-113731980D02*
X192216104Y-113731980D01*
X192263723Y-114208171D01*
X192216104Y-114160552D01*
X192120866Y-114112933D01*
X191882771Y-114112933D01*
X191787533Y-114160552D01*
X191739914Y-114208171D01*
X191692295Y-114303409D01*
X191692295Y-114541504D01*
X191739914Y-114636742D01*
X191787533Y-114684361D01*
X191882771Y-114731980D01*
X192120866Y-114731980D01*
X192216104Y-114684361D01*
X192263723Y-114636742D01*
X194794200Y-116481980D02*
X194794200Y-116720076D01*
X195032295Y-116624838D02*
X194794200Y-116720076D01*
X194556104Y-116624838D01*
X194937057Y-116910552D02*
X194794200Y-116720076D01*
X194651342Y-116910552D01*
X194794200Y-116461980D02*
X194794200Y-116700076D01*
X195032295Y-116604838D02*
X194794200Y-116700076D01*
X194556104Y-116604838D01*
X194937057Y-116890552D02*
X194794200Y-116700076D01*
X194651342Y-116890552D01*
X188887057Y-139756742D02*
X188934676Y-139804361D01*
X189077533Y-139851980D01*
X189172771Y-139851980D01*
X189315628Y-139804361D01*
X189410866Y-139709123D01*
X189458485Y-139613885D01*
X189506104Y-139423409D01*
X189506104Y-139280552D01*
X189458485Y-139090076D01*
X189410866Y-138994838D01*
X189315628Y-138899600D01*
X189172771Y-138851980D01*
X189077533Y-138851980D01*
X188934676Y-138899600D01*
X188887057Y-138947219D01*
X188029914Y-139185314D02*
X188029914Y-139851980D01*
X188268009Y-138804361D02*
X188506104Y-139518647D01*
X187887057Y-139518647D01*
X186982295Y-139851980D02*
X187553723Y-139851980D01*
X187268009Y-139851980D02*
X187268009Y-138851980D01*
X187363247Y-138994838D01*
X187458485Y-139090076D01*
X187553723Y-139137695D01*
X194774200Y-140871980D02*
X194774200Y-141110076D01*
X195012295Y-141014838D02*
X194774200Y-141110076D01*
X194536104Y-141014838D01*
X194917057Y-141300552D02*
X194774200Y-141110076D01*
X194631342Y-141300552D01*
X194774200Y-140851980D02*
X194774200Y-141090076D01*
X195012295Y-140994838D02*
X194774200Y-141090076D01*
X194536104Y-140994838D01*
X194917057Y-141280552D02*
X194774200Y-141090076D01*
X194631342Y-141280552D01*
X193487057Y-152026742D02*
X193534676Y-152074361D01*
X193677533Y-152121980D01*
X193772771Y-152121980D01*
X193915628Y-152074361D01*
X194010866Y-151979123D01*
X194058485Y-151883885D01*
X194106104Y-151693409D01*
X194106104Y-151550552D01*
X194058485Y-151360076D01*
X194010866Y-151264838D01*
X193915628Y-151169600D01*
X193772771Y-151121980D01*
X193677533Y-151121980D01*
X193534676Y-151169600D01*
X193487057Y-151217219D01*
X192582295Y-151121980D02*
X193058485Y-151121980D01*
X193106104Y-151598171D01*
X193058485Y-151550552D01*
X192963247Y-151502933D01*
X192725152Y-151502933D01*
X192629914Y-151550552D01*
X192582295Y-151598171D01*
X192534676Y-151693409D01*
X192534676Y-151931504D01*
X192582295Y-152026742D01*
X192629914Y-152074361D01*
X192725152Y-152121980D01*
X192963247Y-152121980D01*
X193058485Y-152074361D01*
X193106104Y-152026742D01*
X192201342Y-151121980D02*
X191582295Y-151121980D01*
X191915628Y-151502933D01*
X191772771Y-151502933D01*
X191677533Y-151550552D01*
X191629914Y-151598171D01*
X191582295Y-151693409D01*
X191582295Y-151931504D01*
X191629914Y-152026742D01*
X191677533Y-152074361D01*
X191772771Y-152121980D01*
X192058485Y-152121980D01*
X192153723Y-152074361D01*
X192201342Y-152026742D01*
X194754200Y-153991980D02*
X194754200Y-154230076D01*
X194992295Y-154134838D02*
X194754200Y-154230076D01*
X194516104Y-154134838D01*
X194897057Y-154420552D02*
X194754200Y-154230076D01*
X194611342Y-154420552D01*
X194754200Y-154001980D02*
X194754200Y-154240076D01*
X194992295Y-154144838D02*
X194754200Y-154240076D01*
X194516104Y-154144838D01*
X194897057Y-154430552D02*
X194754200Y-154240076D01*
X194611342Y-154430552D01*
X190257057Y-127256742D02*
X190304676Y-127304361D01*
X190447533Y-127351980D01*
X190542771Y-127351980D01*
X190685628Y-127304361D01*
X190780866Y-127209123D01*
X190828485Y-127113885D01*
X190876104Y-126923409D01*
X190876104Y-126780552D01*
X190828485Y-126590076D01*
X190780866Y-126494838D01*
X190685628Y-126399600D01*
X190542771Y-126351980D01*
X190447533Y-126351980D01*
X190304676Y-126399600D01*
X190257057Y-126447219D01*
X189352295Y-126351980D02*
X189828485Y-126351980D01*
X189876104Y-126828171D01*
X189828485Y-126780552D01*
X189733247Y-126732933D01*
X189495152Y-126732933D01*
X189399914Y-126780552D01*
X189352295Y-126828171D01*
X189304676Y-126923409D01*
X189304676Y-127161504D01*
X189352295Y-127256742D01*
X189399914Y-127304361D01*
X189495152Y-127351980D01*
X189733247Y-127351980D01*
X189828485Y-127304361D01*
X189876104Y-127256742D01*
X188923723Y-126447219D02*
X188876104Y-126399600D01*
X188780866Y-126351980D01*
X188542771Y-126351980D01*
X188447533Y-126399600D01*
X188399914Y-126447219D01*
X188352295Y-126542457D01*
X188352295Y-126637695D01*
X188399914Y-126780552D01*
X188971342Y-127351980D01*
X188352295Y-127351980D01*
X194594200Y-130621980D02*
X194594200Y-130860076D01*
X194832295Y-130764838D02*
X194594200Y-130860076D01*
X194356104Y-130764838D01*
X194737057Y-131050552D02*
X194594200Y-130860076D01*
X194451342Y-131050552D01*
X194604200Y-130601980D02*
X194604200Y-130840076D01*
X194842295Y-130744838D02*
X194604200Y-130840076D01*
X194366104Y-130744838D01*
X194747057Y-131030552D02*
X194604200Y-130840076D01*
X194461342Y-131030552D01*
X180603457Y-147301742D02*
X180651076Y-147349361D01*
X180793933Y-147396980D01*
X180889171Y-147396980D01*
X181032028Y-147349361D01*
X181127266Y-147254123D01*
X181174885Y-147158885D01*
X181222504Y-146968409D01*
X181222504Y-146825552D01*
X181174885Y-146635076D01*
X181127266Y-146539838D01*
X181032028Y-146444600D01*
X180889171Y-146396980D01*
X180793933Y-146396980D01*
X180651076Y-146444600D01*
X180603457Y-146492219D01*
X179746314Y-146730314D02*
X179746314Y-147396980D01*
X179984409Y-146349361D02*
X180222504Y-147063647D01*
X179603457Y-147063647D01*
X179032028Y-146396980D02*
X178936790Y-146396980D01*
X178841552Y-146444600D01*
X178793933Y-146492219D01*
X178746314Y-146587457D01*
X178698695Y-146777933D01*
X178698695Y-147016028D01*
X178746314Y-147206504D01*
X178793933Y-147301742D01*
X178841552Y-147349361D01*
X178936790Y-147396980D01*
X179032028Y-147396980D01*
X179127266Y-147349361D01*
X179174885Y-147301742D01*
X179222504Y-147206504D01*
X179270123Y-147016028D01*
X179270123Y-146777933D01*
X179222504Y-146587457D01*
X179174885Y-146492219D01*
X179127266Y-146444600D01*
X179032028Y-146396980D01*
X174624200Y-143191980D02*
X174624200Y-143430076D01*
X174862295Y-143334838D02*
X174624200Y-143430076D01*
X174386104Y-143334838D01*
X174767057Y-143620552D02*
X174624200Y-143430076D01*
X174481342Y-143620552D01*
X180957057Y-126216742D02*
X181004676Y-126264361D01*
X181147533Y-126311980D01*
X181242771Y-126311980D01*
X181385628Y-126264361D01*
X181480866Y-126169123D01*
X181528485Y-126073885D01*
X181576104Y-125883409D01*
X181576104Y-125740552D01*
X181528485Y-125550076D01*
X181480866Y-125454838D01*
X181385628Y-125359600D01*
X181242771Y-125311980D01*
X181147533Y-125311980D01*
X181004676Y-125359600D01*
X180957057Y-125407219D01*
X180052295Y-125311980D02*
X180528485Y-125311980D01*
X180576104Y-125788171D01*
X180528485Y-125740552D01*
X180433247Y-125692933D01*
X180195152Y-125692933D01*
X180099914Y-125740552D01*
X180052295Y-125788171D01*
X180004676Y-125883409D01*
X180004676Y-126121504D01*
X180052295Y-126216742D01*
X180099914Y-126264361D01*
X180195152Y-126311980D01*
X180433247Y-126311980D01*
X180528485Y-126264361D01*
X180576104Y-126216742D01*
X179385628Y-125311980D02*
X179290390Y-125311980D01*
X179195152Y-125359600D01*
X179147533Y-125407219D01*
X179099914Y-125502457D01*
X179052295Y-125692933D01*
X179052295Y-125931028D01*
X179099914Y-126121504D01*
X179147533Y-126216742D01*
X179195152Y-126264361D01*
X179290390Y-126311980D01*
X179385628Y-126311980D01*
X179480866Y-126264361D01*
X179528485Y-126216742D01*
X179576104Y-126121504D01*
X179623723Y-125931028D01*
X179623723Y-125692933D01*
X179576104Y-125502457D01*
X179528485Y-125407219D01*
X179480866Y-125359600D01*
X179385628Y-125311980D01*
X174654200Y-130941980D02*
X174654200Y-131180076D01*
X174892295Y-131084838D02*
X174654200Y-131180076D01*
X174416104Y-131084838D01*
X174797057Y-131370552D02*
X174654200Y-131180076D01*
X174511342Y-131370552D01*
X180637057Y-160066742D02*
X180684676Y-160114361D01*
X180827533Y-160161980D01*
X180922771Y-160161980D01*
X181065628Y-160114361D01*
X181160866Y-160019123D01*
X181208485Y-159923885D01*
X181256104Y-159733409D01*
X181256104Y-159590552D01*
X181208485Y-159400076D01*
X181160866Y-159304838D01*
X181065628Y-159209600D01*
X180922771Y-159161980D01*
X180827533Y-159161980D01*
X180684676Y-159209600D01*
X180637057Y-159257219D01*
X179732295Y-159161980D02*
X180208485Y-159161980D01*
X180256104Y-159638171D01*
X180208485Y-159590552D01*
X180113247Y-159542933D01*
X179875152Y-159542933D01*
X179779914Y-159590552D01*
X179732295Y-159638171D01*
X179684676Y-159733409D01*
X179684676Y-159971504D01*
X179732295Y-160066742D01*
X179779914Y-160114361D01*
X179875152Y-160161980D01*
X180113247Y-160161980D01*
X180208485Y-160114361D01*
X180256104Y-160066742D01*
X178732295Y-160161980D02*
X179303723Y-160161980D01*
X179018009Y-160161980D02*
X179018009Y-159161980D01*
X179113247Y-159304838D01*
X179208485Y-159400076D01*
X179303723Y-159447695D01*
X174534200Y-156241980D02*
X174534200Y-156480076D01*
X174772295Y-156384838D02*
X174534200Y-156480076D01*
X174296104Y-156384838D01*
X174677057Y-156670552D02*
X174534200Y-156480076D01*
X174391342Y-156670552D01*
X223070866Y-110821980D02*
X223404200Y-110345790D01*
X223642295Y-110821980D02*
X223642295Y-109821980D01*
X223261342Y-109821980D01*
X223166104Y-109869600D01*
X223118485Y-109917219D01*
X223070866Y-110012457D01*
X223070866Y-110155314D01*
X223118485Y-110250552D01*
X223166104Y-110298171D01*
X223261342Y-110345790D01*
X223642295Y-110345790D01*
X222213723Y-110155314D02*
X222213723Y-110821980D01*
X222451819Y-109774361D02*
X222689914Y-110488647D01*
X222070866Y-110488647D01*
X226160866Y-106331980D02*
X226494200Y-105855790D01*
X226732295Y-106331980D02*
X226732295Y-105331980D01*
X226351342Y-105331980D01*
X226256104Y-105379600D01*
X226208485Y-105427219D01*
X226160866Y-105522457D01*
X226160866Y-105665314D01*
X226208485Y-105760552D01*
X226256104Y-105808171D01*
X226351342Y-105855790D01*
X226732295Y-105855790D01*
X225827533Y-105331980D02*
X225208485Y-105331980D01*
X225541819Y-105712933D01*
X225398961Y-105712933D01*
X225303723Y-105760552D01*
X225256104Y-105808171D01*
X225208485Y-105903409D01*
X225208485Y-106141504D01*
X225256104Y-106236742D01*
X225303723Y-106284361D01*
X225398961Y-106331980D01*
X225684676Y-106331980D01*
X225779914Y-106284361D01*
X225827533Y-106236742D01*
X193177057Y-146986742D02*
X193224676Y-147034361D01*
X193367533Y-147081980D01*
X193462771Y-147081980D01*
X193605628Y-147034361D01*
X193700866Y-146939123D01*
X193748485Y-146843885D01*
X193796104Y-146653409D01*
X193796104Y-146510552D01*
X193748485Y-146320076D01*
X193700866Y-146224838D01*
X193605628Y-146129600D01*
X193462771Y-146081980D01*
X193367533Y-146081980D01*
X193224676Y-146129600D01*
X193177057Y-146177219D01*
X192319914Y-146415314D02*
X192319914Y-147081980D01*
X192558009Y-146034361D02*
X192796104Y-146748647D01*
X192177057Y-146748647D01*
X191891342Y-146081980D02*
X191272295Y-146081980D01*
X191605628Y-146462933D01*
X191462771Y-146462933D01*
X191367533Y-146510552D01*
X191319914Y-146558171D01*
X191272295Y-146653409D01*
X191272295Y-146891504D01*
X191319914Y-146986742D01*
X191367533Y-147034361D01*
X191462771Y-147081980D01*
X191748485Y-147081980D01*
X191843723Y-147034361D01*
X191891342Y-146986742D01*
X197828366Y-129871980D02*
X198161700Y-129395790D01*
X198399795Y-129871980D02*
X198399795Y-128871980D01*
X198018842Y-128871980D01*
X197923604Y-128919600D01*
X197875985Y-128967219D01*
X197828366Y-129062457D01*
X197828366Y-129205314D01*
X197875985Y-129300552D01*
X197923604Y-129348171D01*
X198018842Y-129395790D01*
X198399795Y-129395790D01*
X197447414Y-128967219D02*
X197399795Y-128919600D01*
X197304557Y-128871980D01*
X197066461Y-128871980D01*
X196971223Y-128919600D01*
X196923604Y-128967219D01*
X196875985Y-129062457D01*
X196875985Y-129157695D01*
X196923604Y-129300552D01*
X197495033Y-129871980D01*
X196875985Y-129871980D01*
X169637057Y-153191980D02*
X169970390Y-152715790D01*
X170208485Y-153191980D02*
X170208485Y-152191980D01*
X169827533Y-152191980D01*
X169732295Y-152239600D01*
X169684676Y-152287219D01*
X169637057Y-152382457D01*
X169637057Y-152525314D01*
X169684676Y-152620552D01*
X169732295Y-152668171D01*
X169827533Y-152715790D01*
X170208485Y-152715790D01*
X168779914Y-152525314D02*
X168779914Y-153191980D01*
X169018009Y-152144361D02*
X169256104Y-152858647D01*
X168637057Y-152858647D01*
X168208485Y-153191980D02*
X168018009Y-153191980D01*
X167922771Y-153144361D01*
X167875152Y-153096742D01*
X167779914Y-152953885D01*
X167732295Y-152763409D01*
X167732295Y-152382457D01*
X167779914Y-152287219D01*
X167827533Y-152239600D01*
X167922771Y-152191980D01*
X168113247Y-152191980D01*
X168208485Y-152239600D01*
X168256104Y-152287219D01*
X168303723Y-152382457D01*
X168303723Y-152620552D01*
X168256104Y-152715790D01*
X168208485Y-152763409D01*
X168113247Y-152811028D01*
X167922771Y-152811028D01*
X167827533Y-152763409D01*
X167779914Y-152715790D01*
X167732295Y-152620552D01*
X245062771Y-134006266D02*
X245062771Y-133672933D01*
X245586580Y-133672933D02*
X244586580Y-133672933D01*
X244586580Y-134149123D01*
X245062771Y-134863409D02*
X245110390Y-135006266D01*
X245158009Y-135053885D01*
X245253247Y-135101504D01*
X245396104Y-135101504D01*
X245491342Y-135053885D01*
X245538961Y-135006266D01*
X245586580Y-134911028D01*
X245586580Y-134530076D01*
X244586580Y-134530076D01*
X244586580Y-134863409D01*
X244634200Y-134958647D01*
X244681819Y-135006266D01*
X244777057Y-135053885D01*
X244872295Y-135053885D01*
X244967533Y-135006266D01*
X245015152Y-134958647D01*
X245062771Y-134863409D01*
X245062771Y-134530076D01*
X245586580Y-135577695D02*
X245586580Y-135768171D01*
X245538961Y-135863409D01*
X245491342Y-135911028D01*
X245348485Y-136006266D01*
X245158009Y-136053885D01*
X244777057Y-136053885D01*
X244681819Y-136006266D01*
X244634200Y-135958647D01*
X244586580Y-135863409D01*
X244586580Y-135672933D01*
X244634200Y-135577695D01*
X244681819Y-135530076D01*
X244777057Y-135482457D01*
X245015152Y-135482457D01*
X245110390Y-135530076D01*
X245158009Y-135577695D01*
X245205628Y-135672933D01*
X245205628Y-135863409D01*
X245158009Y-135958647D01*
X245110390Y-136006266D01*
X245015152Y-136053885D01*
X244842771Y-124340076D02*
X244842771Y-124006742D01*
X245366580Y-124006742D02*
X244366580Y-124006742D01*
X244366580Y-124482933D01*
X244842771Y-125197219D02*
X244890390Y-125340076D01*
X244938009Y-125387695D01*
X245033247Y-125435314D01*
X245176104Y-125435314D01*
X245271342Y-125387695D01*
X245318961Y-125340076D01*
X245366580Y-125244838D01*
X245366580Y-124863885D01*
X244366580Y-124863885D01*
X244366580Y-125197219D01*
X244414200Y-125292457D01*
X244461819Y-125340076D01*
X244557057Y-125387695D01*
X244652295Y-125387695D01*
X244747533Y-125340076D01*
X244795152Y-125292457D01*
X244842771Y-125197219D01*
X244842771Y-124863885D01*
X245366580Y-126387695D02*
X245366580Y-125816266D01*
X245366580Y-126101980D02*
X244366580Y-126101980D01*
X244509438Y-126006742D01*
X244604676Y-125911504D01*
X244652295Y-125816266D01*
X245366580Y-127340076D02*
X245366580Y-126768647D01*
X245366580Y-127054361D02*
X244366580Y-127054361D01*
X244509438Y-126959123D01*
X244604676Y-126863885D01*
X244652295Y-126768647D01*
X244822771Y-111930076D02*
X244822771Y-111596742D01*
X245346580Y-111596742D02*
X244346580Y-111596742D01*
X244346580Y-112072933D01*
X244822771Y-112787219D02*
X244870390Y-112930076D01*
X244918009Y-112977695D01*
X245013247Y-113025314D01*
X245156104Y-113025314D01*
X245251342Y-112977695D01*
X245298961Y-112930076D01*
X245346580Y-112834838D01*
X245346580Y-112453885D01*
X244346580Y-112453885D01*
X244346580Y-112787219D01*
X244394200Y-112882457D01*
X244441819Y-112930076D01*
X244537057Y-112977695D01*
X244632295Y-112977695D01*
X244727533Y-112930076D01*
X244775152Y-112882457D01*
X244822771Y-112787219D01*
X244822771Y-112453885D01*
X245346580Y-113977695D02*
X245346580Y-113406266D01*
X245346580Y-113691980D02*
X244346580Y-113691980D01*
X244489438Y-113596742D01*
X244584676Y-113501504D01*
X244632295Y-113406266D01*
X244346580Y-114596742D02*
X244346580Y-114691980D01*
X244394200Y-114787219D01*
X244441819Y-114834838D01*
X244537057Y-114882457D01*
X244727533Y-114930076D01*
X244965628Y-114930076D01*
X245156104Y-114882457D01*
X245251342Y-114834838D01*
X245298961Y-114787219D01*
X245346580Y-114691980D01*
X245346580Y-114596742D01*
X245298961Y-114501504D01*
X245251342Y-114453885D01*
X245156104Y-114406266D01*
X244965628Y-114358647D01*
X244727533Y-114358647D01*
X244537057Y-114406266D01*
X244441819Y-114453885D01*
X244394200Y-114501504D01*
X244346580Y-114596742D01*
X238731342Y-124736742D02*
X238778961Y-124689123D01*
X238826580Y-124546266D01*
X238826580Y-124451028D01*
X238778961Y-124308171D01*
X238683723Y-124212933D01*
X238588485Y-124165314D01*
X238398009Y-124117695D01*
X238255152Y-124117695D01*
X238064676Y-124165314D01*
X237969438Y-124212933D01*
X237874200Y-124308171D01*
X237826580Y-124451028D01*
X237826580Y-124546266D01*
X237874200Y-124689123D01*
X237921819Y-124736742D01*
X238826580Y-125689123D02*
X238826580Y-125117695D01*
X238826580Y-125403409D02*
X237826580Y-125403409D01*
X237969438Y-125308171D01*
X238064676Y-125212933D01*
X238112295Y-125117695D01*
X238255152Y-126260552D02*
X238207533Y-126165314D01*
X238159914Y-126117695D01*
X238064676Y-126070076D01*
X238017057Y-126070076D01*
X237921819Y-126117695D01*
X237874200Y-126165314D01*
X237826580Y-126260552D01*
X237826580Y-126451028D01*
X237874200Y-126546266D01*
X237921819Y-126593885D01*
X238017057Y-126641504D01*
X238064676Y-126641504D01*
X238159914Y-126593885D01*
X238207533Y-126546266D01*
X238255152Y-126451028D01*
X238255152Y-126260552D01*
X238302771Y-126165314D01*
X238350390Y-126117695D01*
X238445628Y-126070076D01*
X238636104Y-126070076D01*
X238731342Y-126117695D01*
X238778961Y-126165314D01*
X238826580Y-126260552D01*
X238826580Y-126451028D01*
X238778961Y-126546266D01*
X238731342Y-126593885D01*
X238636104Y-126641504D01*
X238445628Y-126641504D01*
X238350390Y-126593885D01*
X238302771Y-126546266D01*
X238255152Y-126451028D01*
X238741342Y-112926742D02*
X238788961Y-112879123D01*
X238836580Y-112736266D01*
X238836580Y-112641028D01*
X238788961Y-112498171D01*
X238693723Y-112402933D01*
X238598485Y-112355314D01*
X238408009Y-112307695D01*
X238265152Y-112307695D01*
X238074676Y-112355314D01*
X237979438Y-112402933D01*
X237884200Y-112498171D01*
X237836580Y-112641028D01*
X237836580Y-112736266D01*
X237884200Y-112879123D01*
X237931819Y-112926742D01*
X238836580Y-113879123D02*
X238836580Y-113307695D01*
X238836580Y-113593409D02*
X237836580Y-113593409D01*
X237979438Y-113498171D01*
X238074676Y-113402933D01*
X238122295Y-113307695D01*
X237836580Y-114736266D02*
X237836580Y-114545790D01*
X237884200Y-114450552D01*
X237931819Y-114402933D01*
X238074676Y-114307695D01*
X238265152Y-114260076D01*
X238646104Y-114260076D01*
X238741342Y-114307695D01*
X238788961Y-114355314D01*
X238836580Y-114450552D01*
X238836580Y-114641028D01*
X238788961Y-114736266D01*
X238741342Y-114783885D01*
X238646104Y-114831504D01*
X238408009Y-114831504D01*
X238312771Y-114783885D01*
X238265152Y-114736266D01*
X238217533Y-114641028D01*
X238217533Y-114450552D01*
X238265152Y-114355314D01*
X238312771Y-114307695D01*
X238408009Y-114260076D01*
X242688342Y-112621442D02*
X242735961Y-112573823D01*
X242783580Y-112430966D01*
X242783580Y-112335728D01*
X242735961Y-112192871D01*
X242640723Y-112097633D01*
X242545485Y-112050014D01*
X242355009Y-112002395D01*
X242212152Y-112002395D01*
X242021676Y-112050014D01*
X241926438Y-112097633D01*
X241831200Y-112192871D01*
X241783580Y-112335728D01*
X241783580Y-112430966D01*
X241831200Y-112573823D01*
X241878819Y-112621442D01*
X242783580Y-113573823D02*
X242783580Y-113002395D01*
X242783580Y-113288109D02*
X241783580Y-113288109D01*
X241926438Y-113192871D01*
X242021676Y-113097633D01*
X242069295Y-113002395D01*
X241783580Y-113907157D02*
X241783580Y-114573823D01*
X242783580Y-114145252D01*
X242686742Y-125016742D02*
X242734361Y-124969123D01*
X242781980Y-124826266D01*
X242781980Y-124731028D01*
X242734361Y-124588171D01*
X242639123Y-124492933D01*
X242543885Y-124445314D01*
X242353409Y-124397695D01*
X242210552Y-124397695D01*
X242020076Y-124445314D01*
X241924838Y-124492933D01*
X241829600Y-124588171D01*
X241781980Y-124731028D01*
X241781980Y-124826266D01*
X241829600Y-124969123D01*
X241877219Y-125016742D01*
X242781980Y-125969123D02*
X242781980Y-125397695D01*
X242781980Y-125683409D02*
X241781980Y-125683409D01*
X241924838Y-125588171D01*
X242020076Y-125492933D01*
X242067695Y-125397695D01*
X242781980Y-126445314D02*
X242781980Y-126635790D01*
X242734361Y-126731028D01*
X242686742Y-126778647D01*
X242543885Y-126873885D01*
X242353409Y-126921504D01*
X241972457Y-126921504D01*
X241877219Y-126873885D01*
X241829600Y-126826266D01*
X241781980Y-126731028D01*
X241781980Y-126540552D01*
X241829600Y-126445314D01*
X241877219Y-126397695D01*
X241972457Y-126350076D01*
X242210552Y-126350076D01*
X242305790Y-126397695D01*
X242353409Y-126445314D01*
X242401028Y-126540552D01*
X242401028Y-126731028D01*
X242353409Y-126826266D01*
X242305790Y-126873885D01*
X242210552Y-126921504D01*
X242661342Y-134246742D02*
X242708961Y-134199123D01*
X242756580Y-134056266D01*
X242756580Y-133961028D01*
X242708961Y-133818171D01*
X242613723Y-133722933D01*
X242518485Y-133675314D01*
X242328009Y-133627695D01*
X242185152Y-133627695D01*
X241994676Y-133675314D01*
X241899438Y-133722933D01*
X241804200Y-133818171D01*
X241756580Y-133961028D01*
X241756580Y-134056266D01*
X241804200Y-134199123D01*
X241851819Y-134246742D01*
X242756580Y-135199123D02*
X242756580Y-134627695D01*
X242756580Y-134913409D02*
X241756580Y-134913409D01*
X241899438Y-134818171D01*
X241994676Y-134722933D01*
X242042295Y-134627695D01*
X242089914Y-136056266D02*
X242756580Y-136056266D01*
X241708961Y-135818171D02*
X242423247Y-135580076D01*
X242423247Y-136199123D01*
X238941342Y-134356742D02*
X238988961Y-134309123D01*
X239036580Y-134166266D01*
X239036580Y-134071028D01*
X238988961Y-133928171D01*
X238893723Y-133832933D01*
X238798485Y-133785314D01*
X238608009Y-133737695D01*
X238465152Y-133737695D01*
X238274676Y-133785314D01*
X238179438Y-133832933D01*
X238084200Y-133928171D01*
X238036580Y-134071028D01*
X238036580Y-134166266D01*
X238084200Y-134309123D01*
X238131819Y-134356742D01*
X239036580Y-135309123D02*
X239036580Y-134737695D01*
X239036580Y-135023409D02*
X238036580Y-135023409D01*
X238179438Y-134928171D01*
X238274676Y-134832933D01*
X238322295Y-134737695D01*
X238036580Y-136213885D02*
X238036580Y-135737695D01*
X238512771Y-135690076D01*
X238465152Y-135737695D01*
X238417533Y-135832933D01*
X238417533Y-136071028D01*
X238465152Y-136166266D01*
X238512771Y-136213885D01*
X238608009Y-136261504D01*
X238846104Y-136261504D01*
X238941342Y-136213885D01*
X238988961Y-136166266D01*
X239036580Y-136071028D01*
X239036580Y-135832933D01*
X238988961Y-135737695D01*
X238941342Y-135690076D01*
X167538095Y-138552380D02*
X167538095Y-137552380D01*
X167300000Y-137552380D01*
X167157142Y-137600000D01*
X167061904Y-137695238D01*
X167014285Y-137790476D01*
X166966666Y-137980952D01*
X166966666Y-138123809D01*
X167014285Y-138314285D01*
X167061904Y-138409523D01*
X167157142Y-138504761D01*
X167300000Y-138552380D01*
X167538095Y-138552380D01*
X166014285Y-138552380D02*
X166585714Y-138552380D01*
X166300000Y-138552380D02*
X166300000Y-137552380D01*
X166395238Y-137695238D01*
X166490476Y-137790476D01*
X166585714Y-137838095D01*
X169461600Y-137552380D02*
X169461600Y-137790476D01*
X169699695Y-137695238D02*
X169461600Y-137790476D01*
X169223504Y-137695238D01*
X169604457Y-137980952D02*
X169461600Y-137790476D01*
X169318742Y-137980952D01*
X169461600Y-137552380D02*
X169461600Y-137790476D01*
X169699695Y-137695238D02*
X169461600Y-137790476D01*
X169223504Y-137695238D01*
X169604457Y-137980952D02*
X169461600Y-137790476D01*
X169318742Y-137980952D01*
X163941819Y-134954361D02*
X163894200Y-134859123D01*
X163798961Y-134763885D01*
X163656104Y-134621028D01*
X163608485Y-134525790D01*
X163608485Y-134430552D01*
X163846580Y-134478171D02*
X163798961Y-134382933D01*
X163703723Y-134287695D01*
X163513247Y-134240076D01*
X163179914Y-134240076D01*
X162989438Y-134287695D01*
X162894200Y-134382933D01*
X162846580Y-134478171D01*
X162846580Y-134668647D01*
X162894200Y-134763885D01*
X162989438Y-134859123D01*
X163179914Y-134906742D01*
X163513247Y-134906742D01*
X163703723Y-134859123D01*
X163798961Y-134763885D01*
X163846580Y-134668647D01*
X163846580Y-134478171D01*
X163846580Y-135859123D02*
X163846580Y-135287695D01*
X163846580Y-135573409D02*
X162846580Y-135573409D01*
X162989438Y-135478171D01*
X163084676Y-135382933D01*
X163132295Y-135287695D01*
X170622380Y-132057142D02*
X170146190Y-131723809D01*
X170622380Y-131485714D02*
X169622380Y-131485714D01*
X169622380Y-131866666D01*
X169670000Y-131961904D01*
X169717619Y-132009523D01*
X169812857Y-132057142D01*
X169955714Y-132057142D01*
X170050952Y-132009523D01*
X170098571Y-131961904D01*
X170146190Y-131866666D01*
X170146190Y-131485714D01*
X169622380Y-132390476D02*
X169622380Y-133009523D01*
X170003333Y-132676190D01*
X170003333Y-132819047D01*
X170050952Y-132914285D01*
X170098571Y-132961904D01*
X170193809Y-133009523D01*
X170431904Y-133009523D01*
X170527142Y-132961904D01*
X170574761Y-132914285D01*
X170622380Y-132819047D01*
X170622380Y-132533333D01*
X170574761Y-132438095D01*
X170527142Y-132390476D01*
X169955714Y-133866666D02*
X170622380Y-133866666D01*
X169574761Y-133628571D02*
X170289047Y-133390476D01*
X170289047Y-134009523D01*
X166542857Y-131222380D02*
X166876190Y-130746190D01*
X167114285Y-131222380D02*
X167114285Y-130222380D01*
X166733333Y-130222380D01*
X166638095Y-130270000D01*
X166590476Y-130317619D01*
X166542857Y-130412857D01*
X166542857Y-130555714D01*
X166590476Y-130650952D01*
X166638095Y-130698571D01*
X166733333Y-130746190D01*
X167114285Y-130746190D01*
X166209523Y-130222380D02*
X165590476Y-130222380D01*
X165923809Y-130603333D01*
X165780952Y-130603333D01*
X165685714Y-130650952D01*
X165638095Y-130698571D01*
X165590476Y-130793809D01*
X165590476Y-131031904D01*
X165638095Y-131127142D01*
X165685714Y-131174761D01*
X165780952Y-131222380D01*
X166066666Y-131222380D01*
X166161904Y-131174761D01*
X166209523Y-131127142D01*
X165114285Y-131222380D02*
X164923809Y-131222380D01*
X164828571Y-131174761D01*
X164780952Y-131127142D01*
X164685714Y-130984285D01*
X164638095Y-130793809D01*
X164638095Y-130412857D01*
X164685714Y-130317619D01*
X164733333Y-130270000D01*
X164828571Y-130222380D01*
X165019047Y-130222380D01*
X165114285Y-130270000D01*
X165161904Y-130317619D01*
X165209523Y-130412857D01*
X165209523Y-130650952D01*
X165161904Y-130746190D01*
X165114285Y-130793809D01*
X165019047Y-130841428D01*
X164828571Y-130841428D01*
X164733333Y-130793809D01*
X164685714Y-130746190D01*
X164638095Y-130650952D01*
X170966580Y-135116742D02*
X170490390Y-134783409D01*
X170966580Y-134545314D02*
X169966580Y-134545314D01*
X169966580Y-134926266D01*
X170014200Y-135021504D01*
X170061819Y-135069123D01*
X170157057Y-135116742D01*
X170299914Y-135116742D01*
X170395152Y-135069123D01*
X170442771Y-135021504D01*
X170490390Y-134926266D01*
X170490390Y-134545314D01*
X169966580Y-135450076D02*
X169966580Y-136069123D01*
X170347533Y-135735790D01*
X170347533Y-135878647D01*
X170395152Y-135973885D01*
X170442771Y-136021504D01*
X170538009Y-136069123D01*
X170776104Y-136069123D01*
X170871342Y-136021504D01*
X170918961Y-135973885D01*
X170966580Y-135878647D01*
X170966580Y-135592933D01*
X170918961Y-135497695D01*
X170871342Y-135450076D01*
X170966580Y-137021504D02*
X170966580Y-136450076D01*
X170966580Y-136735790D02*
X169966580Y-136735790D01*
X170109438Y-136640552D01*
X170204676Y-136545314D01*
X170252295Y-136450076D01*
X169637057Y-154901980D02*
X169970390Y-154425790D01*
X170208485Y-154901980D02*
X170208485Y-153901980D01*
X169827533Y-153901980D01*
X169732295Y-153949600D01*
X169684676Y-153997219D01*
X169637057Y-154092457D01*
X169637057Y-154235314D01*
X169684676Y-154330552D01*
X169732295Y-154378171D01*
X169827533Y-154425790D01*
X170208485Y-154425790D01*
X168732295Y-153901980D02*
X169208485Y-153901980D01*
X169256104Y-154378171D01*
X169208485Y-154330552D01*
X169113247Y-154282933D01*
X168875152Y-154282933D01*
X168779914Y-154330552D01*
X168732295Y-154378171D01*
X168684676Y-154473409D01*
X168684676Y-154711504D01*
X168732295Y-154806742D01*
X168779914Y-154854361D01*
X168875152Y-154901980D01*
X169113247Y-154901980D01*
X169208485Y-154854361D01*
X169256104Y-154806742D01*
X168065628Y-153901980D02*
X167970390Y-153901980D01*
X167875152Y-153949600D01*
X167827533Y-153997219D01*
X167779914Y-154092457D01*
X167732295Y-154282933D01*
X167732295Y-154521028D01*
X167779914Y-154711504D01*
X167827533Y-154806742D01*
X167875152Y-154854361D01*
X167970390Y-154901980D01*
X168065628Y-154901980D01*
X168160866Y-154854361D01*
X168208485Y-154806742D01*
X168256104Y-154711504D01*
X168303723Y-154521028D01*
X168303723Y-154282933D01*
X168256104Y-154092457D01*
X168208485Y-153997219D01*
X168160866Y-153949600D01*
X168065628Y-153901980D01*
X193217057Y-134526742D02*
X193264676Y-134574361D01*
X193407533Y-134621980D01*
X193502771Y-134621980D01*
X193645628Y-134574361D01*
X193740866Y-134479123D01*
X193788485Y-134383885D01*
X193836104Y-134193409D01*
X193836104Y-134050552D01*
X193788485Y-133860076D01*
X193740866Y-133764838D01*
X193645628Y-133669600D01*
X193502771Y-133621980D01*
X193407533Y-133621980D01*
X193264676Y-133669600D01*
X193217057Y-133717219D01*
X192312295Y-133621980D02*
X192788485Y-133621980D01*
X192836104Y-134098171D01*
X192788485Y-134050552D01*
X192693247Y-134002933D01*
X192455152Y-134002933D01*
X192359914Y-134050552D01*
X192312295Y-134098171D01*
X192264676Y-134193409D01*
X192264676Y-134431504D01*
X192312295Y-134526742D01*
X192359914Y-134574361D01*
X192455152Y-134621980D01*
X192693247Y-134621980D01*
X192788485Y-134574361D01*
X192836104Y-134526742D01*
X191407533Y-133955314D02*
X191407533Y-134621980D01*
X191645628Y-133574361D02*
X191883723Y-134288647D01*
X191264676Y-134288647D01*
X193257057Y-122236742D02*
X193304676Y-122284361D01*
X193447533Y-122331980D01*
X193542771Y-122331980D01*
X193685628Y-122284361D01*
X193780866Y-122189123D01*
X193828485Y-122093885D01*
X193876104Y-121903409D01*
X193876104Y-121760552D01*
X193828485Y-121570076D01*
X193780866Y-121474838D01*
X193685628Y-121379600D01*
X193542771Y-121331980D01*
X193447533Y-121331980D01*
X193304676Y-121379600D01*
X193257057Y-121427219D01*
X192399914Y-121665314D02*
X192399914Y-122331980D01*
X192638009Y-121284361D02*
X192876104Y-121998647D01*
X192257057Y-121998647D01*
X191447533Y-121331980D02*
X191638009Y-121331980D01*
X191733247Y-121379600D01*
X191780866Y-121427219D01*
X191876104Y-121570076D01*
X191923723Y-121760552D01*
X191923723Y-122141504D01*
X191876104Y-122236742D01*
X191828485Y-122284361D01*
X191733247Y-122331980D01*
X191542771Y-122331980D01*
X191447533Y-122284361D01*
X191399914Y-122236742D01*
X191352295Y-122141504D01*
X191352295Y-121903409D01*
X191399914Y-121808171D01*
X191447533Y-121760552D01*
X191542771Y-121712933D01*
X191733247Y-121712933D01*
X191828485Y-121760552D01*
X191876104Y-121808171D01*
X191923723Y-121903409D01*
X189857057Y-161106742D02*
X189904676Y-161154361D01*
X190047533Y-161201980D01*
X190142771Y-161201980D01*
X190285628Y-161154361D01*
X190380866Y-161059123D01*
X190428485Y-160963885D01*
X190476104Y-160773409D01*
X190476104Y-160630552D01*
X190428485Y-160440076D01*
X190380866Y-160344838D01*
X190285628Y-160249600D01*
X190142771Y-160201980D01*
X190047533Y-160201980D01*
X189904676Y-160249600D01*
X189857057Y-160297219D01*
X188952295Y-160201980D02*
X189428485Y-160201980D01*
X189476104Y-160678171D01*
X189428485Y-160630552D01*
X189333247Y-160582933D01*
X189095152Y-160582933D01*
X188999914Y-160630552D01*
X188952295Y-160678171D01*
X188904676Y-160773409D01*
X188904676Y-161011504D01*
X188952295Y-161106742D01*
X188999914Y-161154361D01*
X189095152Y-161201980D01*
X189333247Y-161201980D01*
X189428485Y-161154361D01*
X189476104Y-161106742D01*
X188047533Y-160201980D02*
X188238009Y-160201980D01*
X188333247Y-160249600D01*
X188380866Y-160297219D01*
X188476104Y-160440076D01*
X188523723Y-160630552D01*
X188523723Y-161011504D01*
X188476104Y-161106742D01*
X188428485Y-161154361D01*
X188333247Y-161201980D01*
X188142771Y-161201980D01*
X188047533Y-161154361D01*
X187999914Y-161106742D01*
X187952295Y-161011504D01*
X187952295Y-160773409D01*
X187999914Y-160678171D01*
X188047533Y-160630552D01*
X188142771Y-160582933D01*
X188333247Y-160582933D01*
X188428485Y-160630552D01*
X188476104Y-160678171D01*
X188523723Y-160773409D01*
X202977533Y-133938171D02*
X203310866Y-133938171D01*
X203310866Y-134461980D02*
X203310866Y-133461980D01*
X202834676Y-133461980D01*
X202120390Y-133938171D02*
X201977533Y-133985790D01*
X201929914Y-134033409D01*
X201882295Y-134128647D01*
X201882295Y-134271504D01*
X201929914Y-134366742D01*
X201977533Y-134414361D01*
X202072771Y-134461980D01*
X202453723Y-134461980D01*
X202453723Y-133461980D01*
X202120390Y-133461980D01*
X202025152Y-133509600D01*
X201977533Y-133557219D01*
X201929914Y-133652457D01*
X201929914Y-133747695D01*
X201977533Y-133842933D01*
X202025152Y-133890552D01*
X202120390Y-133938171D01*
X202453723Y-133938171D01*
X201025152Y-133461980D02*
X201215628Y-133461980D01*
X201310866Y-133509600D01*
X201358485Y-133557219D01*
X201453723Y-133700076D01*
X201501342Y-133890552D01*
X201501342Y-134271504D01*
X201453723Y-134366742D01*
X201406104Y-134414361D01*
X201310866Y-134461980D01*
X201120390Y-134461980D01*
X201025152Y-134414361D01*
X200977533Y-134366742D01*
X200929914Y-134271504D01*
X200929914Y-134033409D01*
X200977533Y-133938171D01*
X201025152Y-133890552D01*
X201120390Y-133842933D01*
X201310866Y-133842933D01*
X201406104Y-133890552D01*
X201453723Y-133938171D01*
X201501342Y-134033409D01*
M02*
