M48
; DRILL file {KiCad 5.1.5-52549c5~84~ubuntu18.04.1} date dom 01 dic 2019 15:17:34 CET
; FORMAT={2:4/ absolute / inch / suppress leading zeros}
; #@! TF.CreationDate,2019-12-01T15:17:34+01:00
; #@! TF.GenerationSoftware,Kicad,Pcbnew,5.1.5-52549c5~84~ubuntu18.04.1
; #@! TF.FileFunction,Plated,1,4,PTH
FMAT,2
INCH,TZ
T1C0.0118
T2C0.0394
T3C0.0402
T4C0.0433
%
G90
G05
T1
X62411Y-51642
X62411Y-52232
X62411Y-53020
X62411Y-53807
X62411Y-54594
X62411Y-55382
X62411Y-56169
X62411Y-56957
X62411Y-57744
X62411Y-58531
X62411Y-59319
X62411Y-60106
X62411Y-60894
X63002Y-51642
X63002Y-52232
X63592Y-51642
X63592Y-52232
X64183Y-51642
X64183Y-52232
X64197Y-53587
X64423Y-61205
X64521Y-60094
X66151Y-60098
X66628Y-61508
X67165Y-52963
X67923Y-53559
X68317Y-60606
X68317Y-60894
X68317Y-61189
X68510Y-56059
X68513Y-55492
X68513Y-55775
X68671Y-46130
X68671Y-46366
X68671Y-46602
X68699Y-50866
X68699Y-51102
X68699Y-51338
X68710Y-41012
X68710Y-60606
X68710Y-60894
X68710Y-61189
X68903Y-56079
X68907Y-46130
X68907Y-46366
X68907Y-46602
X68907Y-55775
X68915Y-55496
X68974Y-50866
X68974Y-51102
X68974Y-51338
X69104Y-60606
X69130Y-42841
X69161Y-57541
X69301Y-41012
X69309Y-55488
X69462Y-47586
X69482Y-52358
X69891Y-41012
X70157Y-48418
X70173Y-53232
X70177Y-43504
X70210Y-58232
X70411Y-50468
X70482Y-41012
X70797Y-43925
X70797Y-44279
X70856Y-44840
X70856Y-49594
X70856Y-54388
X70856Y-59427
X70990Y-43378
X70994Y-43098
X71073Y-41012
X71073Y-48811
X71073Y-49122
X71080Y-53657
X71080Y-53964
X71151Y-43925
X71151Y-44279
X71151Y-44594
X71230Y-57775
X71230Y-58134
X71269Y-47941
X71269Y-48228
X71277Y-52783
X71281Y-53090
X71348Y-43098
X71348Y-43421
X71387Y-58957
X71387Y-59240
X71391Y-58697
X71427Y-48811
X71427Y-49122
X71427Y-49437
X71435Y-53657
X71435Y-53964
X71435Y-54279
X71506Y-43925
X71506Y-44279
X71506Y-44594
X71584Y-57775
X71584Y-58134
X71620Y-48236
X71624Y-47941
X71632Y-52783
X71636Y-53090
X71663Y-41012
X71702Y-43098
X71702Y-43425
X71738Y-58697
X71742Y-58957
X71742Y-59240
X71781Y-48811
X71781Y-49122
X71781Y-49437
X71789Y-53657
X71789Y-53964
X71789Y-54279
X71860Y-43925
X71860Y-44279
X71860Y-44594
X71939Y-57775
X71939Y-58134
X71939Y-59547
X71939Y-59901
X71939Y-60256
X71939Y-60571
X71978Y-47941
X71978Y-48236
X71978Y-49712
X71978Y-50067
X71978Y-50421
X71978Y-50736
X71986Y-52783
X71986Y-54555
X71986Y-54909
X71986Y-55264
X71986Y-55579
X71990Y-53090
X72053Y-43425
X72057Y-43098
X72057Y-44870
X72057Y-45224
X72057Y-45579
X72057Y-45933
X72124Y-59232
X72136Y-58693
X72136Y-58957
X72175Y-48799
X72175Y-49122
X72175Y-49437
X72183Y-53642
X72183Y-53964
X72183Y-54279
X72254Y-41012
X72254Y-43921
X72254Y-44279
X72254Y-44594
X72293Y-57775
X72293Y-58130
X72332Y-47941
X72332Y-48232
X72340Y-52783
X72344Y-53090
X72411Y-43098
X72411Y-43413
X72450Y-60571
X72490Y-45933
X72490Y-50736
X72498Y-55579
X72647Y-57775
X72647Y-58130
X72687Y-47941
X72687Y-48232
X72695Y-52783
X72699Y-53090
X72765Y-43098
X72765Y-43413
X72844Y-63453
X72884Y-45929
X72884Y-46248
X72884Y-46563
X72884Y-60571
X72884Y-60925
X72884Y-61240
X72915Y-50744
X72923Y-51090
X72923Y-51405
X72931Y-55575
X72931Y-55933
X72931Y-56248
X73041Y-41012
X73041Y-57775
X73041Y-58130
X73080Y-47941
X73080Y-48232
X73088Y-52783
X73092Y-53090
X73159Y-43098
X73159Y-43413
X73238Y-48956
X73258Y-44096
X73258Y-53776
X73258Y-58802
X73395Y-57775
X73395Y-58130
X73435Y-47941
X73435Y-48232
X73443Y-52783
X73447Y-53090
X73513Y-43098
X73513Y-43413
X73632Y-63453
X73828Y-41012
X74419Y-63453
X74616Y-41012
X74761Y-50181
X74813Y-54949
X74891Y-60027
X75053Y-50185
X75088Y-45342
X75128Y-54949
X75187Y-60027
X75206Y-63453
X75348Y-50181
X75403Y-41012
X75403Y-45342
X75443Y-54949
X75502Y-60027
X75624Y-50185
X75718Y-45342
X75758Y-54949
X75797Y-63453
X75817Y-60027
X75994Y-41012
X75994Y-41602
X75994Y-42193
X75994Y-42783
X75994Y-43374
X76033Y-45342
X76112Y-60027
X76584Y-41012
X76584Y-63453
X76793Y-51090
X76821Y-53610
X77025Y-51090
X77096Y-49319
X77136Y-53610
X77175Y-41012
X77175Y-41602
X77175Y-42193
X77175Y-42783
X77175Y-43374
X77175Y-43964
X77175Y-44555
X77175Y-45146
X77175Y-45736
X77175Y-46327
X77175Y-46917
X77175Y-47508
X77175Y-48098
X77175Y-48689
X77254Y-51090
X77332Y-49319
X77332Y-55224
X77372Y-55972
X77372Y-56760
X77372Y-57547
X77372Y-58334
X77372Y-59122
X77372Y-59712
X77372Y-60500
X77372Y-61090
X77372Y-61681
X77372Y-62271
X77372Y-62862
X77372Y-63453
X77557Y-49319
X77608Y-55224
X78021Y-49319
X78041Y-55303
X78139Y-49102
X78258Y-49319
X78258Y-53669
X78317Y-55303
X78356Y-41012
X78356Y-41602
X78356Y-42193
X78356Y-42783
X78356Y-43374
X78356Y-43964
X78356Y-44555
X78356Y-45146
X78356Y-45736
X78356Y-46327
X78356Y-46917
X78356Y-47508
X78356Y-48098
X78435Y-53492
X78553Y-51169
X78553Y-51484
X78553Y-56957
X78553Y-57547
X78553Y-58138
X78553Y-58728
X78553Y-59319
X78553Y-59909
X78553Y-60500
X78553Y-61090
X78553Y-61681
X78553Y-62271
X78553Y-62862
X78553Y-63453
X78592Y-54752
X78592Y-55027
X78592Y-55303
X78651Y-53669
X78828Y-51169
X78828Y-51484
X78947Y-41012
X79340Y-61681
X79340Y-63453
X79537Y-41012
X79978Y-46567
X80128Y-41012
X80128Y-62271
X80128Y-62862
X80128Y-63453
X80718Y-41012
X80718Y-48295
X80718Y-49083
X80718Y-49870
X80718Y-50657
X80718Y-51445
X80915Y-62862
X80915Y-63453
X80918Y-54988
X80918Y-55657
X80918Y-56445
X80918Y-57232
X80918Y-58020
X80918Y-58807
X80918Y-59516
X80950Y-45799
X81269Y-46779
X81269Y-47035
X81309Y-41012
X81506Y-42980
X81506Y-49083
X81506Y-49870
X81506Y-50657
X81506Y-51445
X81506Y-52232
X81584Y-44023
X81584Y-46779
X81584Y-47035
X81604Y-43413
X81694Y-55685
X81702Y-63453
X81706Y-54988
X81706Y-56445
X81706Y-57232
X81706Y-58020
X81706Y-58807
X81706Y-59516
X81880Y-46779
X81880Y-47035
X81899Y-41012
X81929Y-45795
X81929Y-46366
X81929Y-46081
X81939Y-43413
X81939Y-43728
X81939Y-44023
X81939Y-45146
X81939Y-45460
X82057Y-44397
X82057Y-44791
X82096Y-42980
X82214Y-43413
X82214Y-43728
X82214Y-44023
X82230Y-46075
X82233Y-45796
X82234Y-45146
X82234Y-45460
X82234Y-46362
X82234Y-46779
X82234Y-47035
X82490Y-41012
X82490Y-48295
X82490Y-49870
X82490Y-50657
X82490Y-51445
X82490Y-55657
X82490Y-56445
X82490Y-57232
X82490Y-58020
X82490Y-58807
X82490Y-63453
X82549Y-43394
X82549Y-43728
X82549Y-44023
X82549Y-46779
X82549Y-47035
X82687Y-42980
X82844Y-43394
X82844Y-43728
X82844Y-44023
X82844Y-44378
X82844Y-44791
X82903Y-47035
X82947Y-46563
X83065Y-54338
X83065Y-61720
X83080Y-41012
X83199Y-47035
X83277Y-42980
X83277Y-43374
X83277Y-43768
X83277Y-63453
X83474Y-48295
X83474Y-49083
X83474Y-49870
X83474Y-50657
X83474Y-51445
X83474Y-55657
X83474Y-56445
X83474Y-57232
X83474Y-58020
X83474Y-58807
X83671Y-41012
X83671Y-42980
X83671Y-43374
X83671Y-43768
X84065Y-54791
X84065Y-62468
X84065Y-63453
X84261Y-41012
X84458Y-47311
X84458Y-48295
X84458Y-49083
X84458Y-49870
X84458Y-50657
X84458Y-51445
X84458Y-54397
X84458Y-55657
X84458Y-56445
X84458Y-57232
X84458Y-58020
X84458Y-58807
X84458Y-61878
X84852Y-41012
X84852Y-54791
X84852Y-62468
X84852Y-63453
X85010Y-46838
X85199Y-45791
X85324Y-46838
X85443Y-41012
X85443Y-48295
X85443Y-49083
X85443Y-49870
X85443Y-50657
X85443Y-51445
X85443Y-55657
X85443Y-56445
X85443Y-57232
X85443Y-58020
X85443Y-58807
X85620Y-46838
X85639Y-41799
X85639Y-42390
X85639Y-42980
X85639Y-62468
X85639Y-63453
X85649Y-44073
X85669Y-43462
X85974Y-46838
X85984Y-45785
X85984Y-46090
X85994Y-45500
X86004Y-43462
X86004Y-43777
X86004Y-44073
X86004Y-45195
X86033Y-41012
X86033Y-41799
X86033Y-42390
X86033Y-42980
X86122Y-44447
X86122Y-44840
X86230Y-48295
X86230Y-49083
X86230Y-49870
X86230Y-50657
X86230Y-51445
X86230Y-55657
X86230Y-56445
X86230Y-57232
X86230Y-58020
X86230Y-58807
X86279Y-43462
X86279Y-43777
X86279Y-44073
X86289Y-45490
X86289Y-46838
X86294Y-45790
X86299Y-45195
X86299Y-46090
X86427Y-62468
X86427Y-63453
X86614Y-43777
X86614Y-44073
X86624Y-41012
X86643Y-46838
X86714Y-46579
X86909Y-43777
X86909Y-44073
X86909Y-44427
X86909Y-44840
X86939Y-46838
X87017Y-47311
X87017Y-49083
X87017Y-49870
X87017Y-50657
X87017Y-51445
X87017Y-57232
X87017Y-58020
X87017Y-58807
X87214Y-41012
X87214Y-62468
X87214Y-63453
X87273Y-53216
X87608Y-47311
X87805Y-41012
X88002Y-54712
X88002Y-62468
X88002Y-63453
X88199Y-47311
X88199Y-61878
X88258Y-42043
X88395Y-41012
X88474Y-55106
X88474Y-55657
X88474Y-56209
X88553Y-56996
X88734Y-58370
X88742Y-58811
X88754Y-57972
X88789Y-57547
X88789Y-61878
X88789Y-62468
X88789Y-63453
X88868Y-47016
X88868Y-47350
X88986Y-41012
X89167Y-57968
X89234Y-44850
X89380Y-48295
X89380Y-48886
X89380Y-49476
X89380Y-50067
X89380Y-50657
X89380Y-51248
X89380Y-51838
X89380Y-52429
X89380Y-53020
X89380Y-53610
X89380Y-54201
X89576Y-41012
X89576Y-54791
X89576Y-55382
X89576Y-55972
X89576Y-56563
X89576Y-63453
X89970Y-62862
X90821Y-48913
X90954Y-52626
X90954Y-53413
X90954Y-55185
X90954Y-55775
X90954Y-56366
X90954Y-56957
X90954Y-62665
X90954Y-63453
X91080Y-46086
X91151Y-41012
X91151Y-41799
X91151Y-42783
X91151Y-43571
X91403Y-48913
X91588Y-51063
X91742Y-53413
X91742Y-55185
X91742Y-55775
X91742Y-56366
X91742Y-56957
X91742Y-57547
X91832Y-44527
X91876Y-51311
X91880Y-51059
X91891Y-46083
X91939Y-43571
X91998Y-46681
X91998Y-49260
X92254Y-47880
X92254Y-49260
X92529Y-43571
X92529Y-52035
X92529Y-55775
X92529Y-56366
X92529Y-56957
X92529Y-57547
X92726Y-48925
X92923Y-54004
X93120Y-42783
X93120Y-43571
X93120Y-56957
X93120Y-57547
X93317Y-52035
X93317Y-52626
X93317Y-54791
X93387Y-49169
X93474Y-50598
X93474Y-51248
X93502Y-49858
X93513Y-63453
X93710Y-41209
X93907Y-56957
X93907Y-57547
X93966Y-51996
X93966Y-52271
X93986Y-46110
X93986Y-46366
X94045Y-50882
X94104Y-62075
X94104Y-62862
X94301Y-41209
X94301Y-63453
X94427Y-48256
X94695Y-56957
X94750Y-48256
X94891Y-41209
X94891Y-62075
X94891Y-62862
X94891Y-63453
X95100Y-48256
X95285Y-58531
X95679Y-62075
X95679Y-62862
X95679Y-63453
X95758Y-45795
X95852Y-43831
X95852Y-45319
X95864Y-48689
X95876Y-57941
X95895Y-53807
X96073Y-60894
X96112Y-45795
X96112Y-46169
X96230Y-41209
X96454Y-42102
X96462Y-42425
X96466Y-57350
X96466Y-62075
X96466Y-62862
X96466Y-63453
X96470Y-42716
X96939Y-41212
X97372Y-50598
X97376Y-51220
X97647Y-54791
X97647Y-60894
X97647Y-62665
X97647Y-63453
X97844Y-41209
X97844Y-53020
X98435Y-53020
X98632Y-54791
X98632Y-63453
X98828Y-41209
X99025Y-53020
X99616Y-41209
X99616Y-41996
X99616Y-42783
X99616Y-43571
X99616Y-44358
X99616Y-45146
X99616Y-45933
X99616Y-46720
X99616Y-47508
X99616Y-48295
X99616Y-49083
X99616Y-49870
X99616Y-50657
X99616Y-51445
X99616Y-52232
X99616Y-53020
X99616Y-54988
X99616Y-55775
X99616Y-56563
X99616Y-57350
X99616Y-58138
X99616Y-58925
X99616Y-59712
X99616Y-60500
X99616Y-61287
X99616Y-62075
X99616Y-62862
X99616Y-63453
T3
X86730Y-42567
X87730Y-42567
X88730Y-42567
X89730Y-42567
X72824Y-62616
X74724Y-49112
X74990Y-53935
X74960Y-44329
X75010Y-58964
X79301Y-62626
T4
X98305Y-55468
X98305Y-56468
X98305Y-57468
X98305Y-58468
X98305Y-59468
X98305Y-60468
X98305Y-61468
X98305Y-62468
X98301Y-42779
X98301Y-43779
X98301Y-44779
X98301Y-45779
X98301Y-46779
X98301Y-47779
X98301Y-48779
X98301Y-49779
X98301Y-50779
X98301Y-51779
T2
G00X63850Y-46278
M15
G01X63850Y-47262
M16
G05
G00X65208Y-45589
M15
G01X66192Y-45589
M16
G05
G00X65208Y-47951
M15
G01X66192Y-47951
M16
G05
T0
M30
