%TF.GenerationSoftware,KiCad,Pcbnew,5.1.5-52549c5~84~ubuntu18.04.1*%
%TF.CreationDate,2020-03-31T00:49:26-03:00*%
%TF.ProjectId,Superconducting_resonator,53757065-7263-46f6-9e64-756374696e67,rev?*%
%TF.SameCoordinates,Original*%
%TF.FileFunction,Legend,Top*%
%TF.FilePolarity,Positive*%
%FSLAX46Y46*%
G04 Gerber Fmt 4.6, Leading zero omitted, Abs format (unit mm)*
G04 Created by KiCad (PCBNEW 5.1.5-52549c5~84~ubuntu18.04.1) date 2020-03-31 00:49:26*
%MOMM*%
%LPD*%
G04 APERTURE LIST*
%ADD10C,0.125000*%
G04 APERTURE END LIST*
D10*
X140630952Y-52202380D02*
X140702380Y-52226190D01*
X140821428Y-52226190D01*
X140869047Y-52202380D01*
X140892857Y-52178571D01*
X140916666Y-52130952D01*
X140916666Y-52083333D01*
X140892857Y-52035714D01*
X140869047Y-52011904D01*
X140821428Y-51988095D01*
X140726190Y-51964285D01*
X140678571Y-51940476D01*
X140654761Y-51916666D01*
X140630952Y-51869047D01*
X140630952Y-51821428D01*
X140654761Y-51773809D01*
X140678571Y-51750000D01*
X140726190Y-51726190D01*
X140845238Y-51726190D01*
X140916666Y-51750000D01*
X141130952Y-51726190D02*
X141130952Y-52130952D01*
X141154761Y-52178571D01*
X141178571Y-52202380D01*
X141226190Y-52226190D01*
X141321428Y-52226190D01*
X141369047Y-52202380D01*
X141392857Y-52178571D01*
X141416666Y-52130952D01*
X141416666Y-51726190D01*
X141654761Y-52226190D02*
X141654761Y-51726190D01*
X141845238Y-51726190D01*
X141892857Y-51750000D01*
X141916666Y-51773809D01*
X141940476Y-51821428D01*
X141940476Y-51892857D01*
X141916666Y-51940476D01*
X141892857Y-51964285D01*
X141845238Y-51988095D01*
X141654761Y-51988095D01*
X142154761Y-51964285D02*
X142321428Y-51964285D01*
X142392857Y-52226190D02*
X142154761Y-52226190D01*
X142154761Y-51726190D01*
X142392857Y-51726190D01*
X142892857Y-52226190D02*
X142726190Y-51988095D01*
X142607142Y-52226190D02*
X142607142Y-51726190D01*
X142797619Y-51726190D01*
X142845238Y-51750000D01*
X142869047Y-51773809D01*
X142892857Y-51821428D01*
X142892857Y-51892857D01*
X142869047Y-51940476D01*
X142845238Y-51964285D01*
X142797619Y-51988095D01*
X142607142Y-51988095D01*
X143773809Y-52226190D02*
X143607142Y-51988095D01*
X143488095Y-52226190D02*
X143488095Y-51726190D01*
X143678571Y-51726190D01*
X143726190Y-51750000D01*
X143750000Y-51773809D01*
X143773809Y-51821428D01*
X143773809Y-51892857D01*
X143750000Y-51940476D01*
X143726190Y-51964285D01*
X143678571Y-51988095D01*
X143488095Y-51988095D01*
X143988095Y-51964285D02*
X144154761Y-51964285D01*
X144226190Y-52226190D02*
X143988095Y-52226190D01*
X143988095Y-51726190D01*
X144226190Y-51726190D01*
X144416666Y-52202380D02*
X144488095Y-52226190D01*
X144607142Y-52226190D01*
X144654761Y-52202380D01*
X144678571Y-52178571D01*
X144702380Y-52130952D01*
X144702380Y-52083333D01*
X144678571Y-52035714D01*
X144654761Y-52011904D01*
X144607142Y-51988095D01*
X144511904Y-51964285D01*
X144464285Y-51940476D01*
X144440476Y-51916666D01*
X144416666Y-51869047D01*
X144416666Y-51821428D01*
X144440476Y-51773809D01*
X144464285Y-51750000D01*
X144511904Y-51726190D01*
X144630952Y-51726190D01*
X144702380Y-51750000D01*
X145297619Y-52035714D02*
X145678571Y-52035714D01*
X146297619Y-52226190D02*
X146297619Y-51726190D01*
X146464285Y-51726190D02*
X146750000Y-51726190D01*
X146607142Y-52226190D02*
X146607142Y-51726190D01*
X146916666Y-51964285D02*
X147083333Y-51964285D01*
X147154761Y-52226190D02*
X146916666Y-52226190D01*
X146916666Y-51726190D01*
X147154761Y-51726190D01*
X147369047Y-52226190D02*
X147369047Y-51726190D01*
X147488095Y-51726190D01*
X147559523Y-51750000D01*
X147607142Y-51797619D01*
X147630952Y-51845238D01*
X147654761Y-51940476D01*
X147654761Y-52011904D01*
X147630952Y-52107142D01*
X147607142Y-52154761D01*
X147559523Y-52202380D01*
X147488095Y-52226190D01*
X147369047Y-52226190D01*
X147845238Y-52083333D02*
X148083333Y-52083333D01*
X147797619Y-52226190D02*
X147964285Y-51726190D01*
X148130952Y-52226190D01*
X148607142Y-51726190D02*
X148773809Y-52226190D01*
X148940476Y-51726190D01*
X149369047Y-52226190D02*
X149083333Y-52226190D01*
X149226190Y-52226190D02*
X149226190Y-51726190D01*
X149178571Y-51797619D01*
X149130952Y-51845238D01*
X149083333Y-51869047D01*
M02*
