  0
SECTION
  2
HEADER
  9
$ANGBASE
  50
0.0
  9
$ANGDIR
  70
1
  9
$MEASUREMENT
  70
1
  0
ENDSEC
  0
SECTION
  2
TABLES
  0
TABLE
  2
LTYPE
  70
4
  0
LTYPE
  5
40F
  2
CONTINUOUS
  70
0
  3
Solid line
  72
65
  73
0
  40
0.0
  0
LTYPE
  5
410
  2
DASHDOT
 70
0
  3
Dash Dot ____ _ ____ _
 72
65
 73
4
 40
2.0
 49
1.25
 49
-0.25
 49
0.25
 49
-0.25
  0
LTYPE
  5
411
  2
DASHED
 70
0
  3
Dashed __ __ __ __ __
 72
65
 73
2
 40
0.75
 49
0.5
 49
-0.25
  0
LTYPE
  5
43B
  2
DOTTED
 70
0
  3
Dotted .  .  .  .
 72
65
 73
2
 40
0.2
 49
0.0
 49
-0.2
  0
ENDTAB
  0
TABLE
  2
STYLE
  70
4
  0
STYLE
  2
KICAD
  70
0
  40
0
  41
1
  42
1
  50
0
  71
0
  3
isocp.shx
  0
STYLE
  2
KICADB
  70
0
  40
0
  41
1
  42
1
  50
0
  71
0
  3
isocp.shx
  0
STYLE
  2
KICADI
  70
0
  40
0
  41
1
  42
1
  50
15
  71
0
  3
isocp.shx
  0
STYLE
  2
KICADBI
  70
0
  40
0
  41
1
  42
1
  50
15
  71
0
  3
isocp.shx
  0
ENDTAB
  0
TABLE
  2
LAYER
  70
1
  0
LAYER
  2
BLACK
  70
0
  62
7
  6
CONTINUOUS
  0
ENDTAB
  0
ENDSEC
  0
SECTION
  2
ENTITIES
0
LINE
8
BLACK
6
CONTINUOUS
10
140.846
20
-51.6637
11
140.85
21
-51.6641
0
LINE
8
BLACK
6
CONTINUOUS
10
140.85
20
-51.6641
11
140.853
21
-51.6642
0
LINE
8
BLACK
6
CONTINUOUS
10
140.853
20
-51.6642
11
140.856
21
-51.6648
0
LINE
8
BLACK
6
CONTINUOUS
10
140.856
20
-51.6648
11
140.858
21
-51.6651
0
LINE
8
BLACK
6
CONTINUOUS
10
140.858
20
-51.6651
11
140.862
21
-51.6661
0
LINE
8
BLACK
6
CONTINUOUS
10
140.862
20
-51.6661
11
140.865
21
-51.6669
0
LINE
8
BLACK
6
CONTINUOUS
10
140.865
20
-51.6669
11
140.936
21
-51.6907
0
LINE
8
BLACK
6
CONTINUOUS
10
140.936
20
-51.6907
11
140.937
21
-51.691
0
LINE
8
BLACK
6
CONTINUOUS
10
140.937
20
-51.691
11
140.948
21
-51.6961
0
LINE
8
BLACK
6
CONTINUOUS
10
140.948
20
-51.6961
11
140.958
21
-51.7033
0
LINE
8
BLACK
6
CONTINUOUS
10
140.958
20
-51.7033
11
140.966
21
-51.7122
0
LINE
8
BLACK
6
CONTINUOUS
10
140.966
20
-51.7122
11
140.973
21
-51.7226
0
LINE
8
BLACK
6
CONTINUOUS
10
140.973
20
-51.7226
11
140.977
21
-51.7341
0
LINE
8
BLACK
6
CONTINUOUS
10
140.977
20
-51.7341
11
140.979
21
-51.7461
0
LINE
8
BLACK
6
CONTINUOUS
10
140.979
20
-51.7461
11
140.979
21
-51.7583
0
LINE
8
BLACK
6
CONTINUOUS
10
140.979
20
-51.7583
11
140.976
21
-51.7702
0
LINE
8
BLACK
6
CONTINUOUS
10
140.976
20
-51.7702
11
140.971
21
-51.7813
0
LINE
8
BLACK
6
CONTINUOUS
10
140.971
20
-51.7813
11
140.964
21
-51.7912
0
LINE
8
BLACK
6
CONTINUOUS
10
140.964
20
-51.7912
11
140.955
21
-51.7995
0
LINE
8
BLACK
6
CONTINUOUS
10
140.955
20
-51.7995
11
140.944
21
-51.806
0
LINE
8
BLACK
6
CONTINUOUS
10
140.944
20
-51.806
11
140.933
21
-51.8103
0
LINE
8
BLACK
6
CONTINUOUS
10
140.933
20
-51.8103
11
140.921
21
-51.8123
0
LINE
8
BLACK
6
CONTINUOUS
10
140.921
20
-51.8123
11
140.909
21
-51.812
0
LINE
8
BLACK
6
CONTINUOUS
10
140.909
20
-51.812
11
140.897
21
-51.8093
0
LINE
8
BLACK
6
CONTINUOUS
10
140.897
20
-51.8093
11
140.835
21
-51.7887
0
LINE
8
BLACK
6
CONTINUOUS
10
140.835
20
-51.7887
11
140.741
21
-51.7887
0
LINE
8
BLACK
6
CONTINUOUS
10
140.741
20
-51.7887
11
140.716
21
-51.8014
0
LINE
8
BLACK
6
CONTINUOUS
10
140.716
20
-51.8014
11
140.706
21
-51.8108
0
LINE
8
BLACK
6
CONTINUOUS
10
140.706
20
-51.8108
11
140.693
21
-51.8362
0
LINE
8
BLACK
6
CONTINUOUS
10
140.693
20
-51.8362
11
140.693
21
-51.8543
0
LINE
8
BLACK
6
CONTINUOUS
10
140.693
20
-51.8543
11
140.706
21
-51.8796
0
LINE
8
BLACK
6
CONTINUOUS
10
140.706
20
-51.8796
11
140.716
21
-51.8891
0
LINE
8
BLACK
6
CONTINUOUS
10
140.716
20
-51.8891
11
140.748
21
-51.9053
0
LINE
8
BLACK
6
CONTINUOUS
10
140.748
20
-51.9053
11
140.837
21
-51.9275
0
LINE
8
BLACK
6
CONTINUOUS
10
140.837
20
-51.9275
11
140.837
21
-51.9277
0
LINE
8
BLACK
6
CONTINUOUS
10
140.837
20
-51.9277
11
140.838
21
-51.9278
0
LINE
8
BLACK
6
CONTINUOUS
10
140.838
20
-51.9278
11
140.838
21
-51.9278
0
LINE
8
BLACK
6
CONTINUOUS
10
140.838
20
-51.9278
11
140.843
21
-51.9299
0
LINE
8
BLACK
6
CONTINUOUS
10
140.843
20
-51.9299
11
140.849
21
-51.9319
0
LINE
8
BLACK
6
CONTINUOUS
10
140.849
20
-51.9319
11
140.849
21
-51.9321
0
LINE
8
BLACK
6
CONTINUOUS
10
140.849
20
-51.9321
11
140.849
21
-51.9322
0
LINE
8
BLACK
6
CONTINUOUS
10
140.849
20
-51.9322
11
140.897
21
-51.956
0
LINE
8
BLACK
6
CONTINUOUS
10
140.897
20
-51.956
11
140.898
21
-51.9564
0
LINE
8
BLACK
6
CONTINUOUS
10
140.898
20
-51.9564
11
140.901
21
-51.9583
0
LINE
8
BLACK
6
CONTINUOUS
10
140.901
20
-51.9583
11
140.904
21
-51.96
0
LINE
8
BLACK
6
CONTINUOUS
10
140.904
20
-51.96
11
140.906
21
-51.9616
0
LINE
8
BLACK
6
CONTINUOUS
10
140.906
20
-51.9616
11
140.908
21
-51.963
0
LINE
8
BLACK
6
CONTINUOUS
10
140.908
20
-51.963
11
140.911
21
-51.9655
0
LINE
8
BLACK
6
CONTINUOUS
10
140.911
20
-51.9655
11
140.913
21
-51.9677
0
LINE
8
BLACK
6
CONTINUOUS
10
140.913
20
-51.9677
11
140.937
21
-51.9915
0
LINE
8
BLACK
6
CONTINUOUS
10
140.937
20
-51.9915
11
140.938
21
-51.9921
0
LINE
8
BLACK
6
CONTINUOUS
10
140.938
20
-51.9921
11
140.94
21
-51.9949
0
LINE
8
BLACK
6
CONTINUOUS
10
140.94
20
-51.9949
11
140.942
21
-51.9974
0
LINE
8
BLACK
6
CONTINUOUS
10
140.942
20
-51.9974
11
140.944
21
-51.9996
0
LINE
8
BLACK
6
CONTINUOUS
10
140.944
20
-51.9996
11
140.945
21
-52.0017
0
LINE
8
BLACK
6
CONTINUOUS
10
140.945
20
-52.0017
11
140.947
21
-52.0048
0
LINE
8
BLACK
6
CONTINUOUS
10
140.947
20
-52.0048
11
140.949
21
-52.0078
0
LINE
8
BLACK
6
CONTINUOUS
10
140.949
20
-52.0078
11
140.973
21
-52.0554
0
LINE
8
BLACK
6
CONTINUOUS
10
140.973
20
-52.0554
11
140.973
21
-52.0562
0
LINE
8
BLACK
6
CONTINUOUS
10
140.973
20
-52.0562
11
140.974
21
-52.0579
0
LINE
8
BLACK
6
CONTINUOUS
10
140.974
20
-52.0579
11
140.974
21
-52.0595
0
LINE
8
BLACK
6
CONTINUOUS
10
140.974
20
-52.0595
11
140.976
21
-52.0636
0
LINE
8
BLACK
6
CONTINUOUS
10
140.976
20
-52.0636
11
140.977
21
-52.0676
0
LINE
8
BLACK
6
CONTINUOUS
10
140.977
20
-52.0676
11
140.977
21
-52.0694
0
LINE
8
BLACK
6
CONTINUOUS
10
140.977
20
-52.0694
11
140.978
21
-52.0712
0
LINE
8
BLACK
6
CONTINUOUS
10
140.978
20
-52.0712
11
140.978
21
-52.0755
0
LINE
8
BLACK
6
CONTINUOUS
10
140.978
20
-52.0755
11
140.979
21
-52.0797
0
LINE
8
BLACK
6
CONTINUOUS
10
140.979
20
-52.0797
11
140.979
21
-52.0815
0
LINE
8
BLACK
6
CONTINUOUS
10
140.979
20
-52.0815
11
140.979
21
-52.0833
0
LINE
8
BLACK
6
CONTINUOUS
10
140.979
20
-52.0833
11
140.979
21
-52.131
0
LINE
8
BLACK
6
CONTINUOUS
10
140.979
20
-52.131
11
140.979
21
-52.1318
0
LINE
8
BLACK
6
CONTINUOUS
10
140.979
20
-52.1318
11
140.979
21
-52.1337
0
LINE
8
BLACK
6
CONTINUOUS
10
140.979
20
-52.1337
11
140.979
21
-52.1355
0
LINE
8
BLACK
6
CONTINUOUS
10
140.979
20
-52.1355
11
140.978
21
-52.1397
0
LINE
8
BLACK
6
CONTINUOUS
10
140.978
20
-52.1397
11
140.978
21
-52.1439
0
LINE
8
BLACK
6
CONTINUOUS
10
140.978
20
-52.1439
11
140.977
21
-52.1457
0
LINE
8
BLACK
6
CONTINUOUS
10
140.977
20
-52.1457
11
140.977
21
-52.1475
0
LINE
8
BLACK
6
CONTINUOUS
10
140.977
20
-52.1475
11
140.975
21
-52.1515
0
LINE
8
BLACK
6
CONTINUOUS
10
140.975
20
-52.1515
11
140.974
21
-52.1556
0
LINE
8
BLACK
6
CONTINUOUS
10
140.974
20
-52.1556
11
140.973
21
-52.1572
0
LINE
8
BLACK
6
CONTINUOUS
10
140.973
20
-52.1572
11
140.973
21
-52.1589
0
LINE
8
BLACK
6
CONTINUOUS
10
140.973
20
-52.1589
11
140.949
21
-52.2065
0
LINE
8
BLACK
6
CONTINUOUS
10
140.949
20
-52.2065
11
140.948
21
-52.2073
0
LINE
8
BLACK
6
CONTINUOUS
10
140.948
20
-52.2073
11
140.946
21
-52.2102
0
LINE
8
BLACK
6
CONTINUOUS
10
140.946
20
-52.2102
11
140.945
21
-52.2133
0
LINE
8
BLACK
6
CONTINUOUS
10
140.945
20
-52.2133
11
140.943
21
-52.2154
0
LINE
8
BLACK
6
CONTINUOUS
10
140.943
20
-52.2154
11
140.942
21
-52.2175
0
LINE
8
BLACK
6
CONTINUOUS
10
140.942
20
-52.2175
11
140.939
21
-52.2201
0
LINE
8
BLACK
6
CONTINUOUS
10
140.939
20
-52.2201
11
140.937
21
-52.2228
0
LINE
8
BLACK
6
CONTINUOUS
10
140.937
20
-52.2228
11
140.913
21
-52.2466
0
LINE
8
BLACK
6
CONTINUOUS
10
140.913
20
-52.2466
11
140.913
21
-52.2472
0
LINE
8
BLACK
6
CONTINUOUS
10
140.913
20
-52.2472
11
140.91
21
-52.2494
0
LINE
8
BLACK
6
CONTINUOUS
10
140.91
20
-52.2494
11
140.907
21
-52.2518
0
LINE
8
BLACK
6
CONTINUOUS
10
140.907
20
-52.2518
11
140.905
21
-52.2532
0
LINE
8
BLACK
6
CONTINUOUS
10
140.905
20
-52.2532
11
140.903
21
-52.2548
0
LINE
8
BLACK
6
CONTINUOUS
10
140.903
20
-52.2548
11
140.9
21
-52.2564
0
LINE
8
BLACK
6
CONTINUOUS
10
140.9
20
-52.2564
11
140.897
21
-52.2583
0
LINE
8
BLACK
6
CONTINUOUS
10
140.897
20
-52.2583
11
140.849
21
-52.2821
0
LINE
8
BLACK
6
CONTINUOUS
10
140.849
20
-52.2821
11
140.849
21
-52.2825
0
LINE
8
BLACK
6
CONTINUOUS
10
140.849
20
-52.2825
11
140.847
21
-52.2831
0
LINE
8
BLACK
6
CONTINUOUS
10
140.847
20
-52.2831
11
140.845
21
-52.284
0
LINE
8
BLACK
6
CONTINUOUS
10
140.845
20
-52.284
11
140.841
21
-52.2852
0
LINE
8
BLACK
6
CONTINUOUS
10
140.841
20
-52.2852
11
140.837
21
-52.2867
0
LINE
8
BLACK
6
CONTINUOUS
10
140.837
20
-52.2867
11
140.835
21
-52.287
0
LINE
8
BLACK
6
CONTINUOUS
10
140.835
20
-52.287
11
140.834
21
-52.2875
0
LINE
8
BLACK
6
CONTINUOUS
10
140.834
20
-52.2875
11
140.829
21
-52.2879
0
LINE
8
BLACK
6
CONTINUOUS
10
140.829
20
-52.2879
11
140.825
21
-52.2886
0
LINE
8
BLACK
6
CONTINUOUS
10
140.825
20
-52.2886
11
140.823
21
-52.2885
0
LINE
8
BLACK
6
CONTINUOUS
10
140.823
20
-52.2885
11
140.821
21
-52.2887
0
LINE
8
BLACK
6
CONTINUOUS
10
140.821
20
-52.2887
11
140.702
21
-52.2887
0
LINE
8
BLACK
6
CONTINUOUS
10
140.702
20
-52.2887
11
140.702
21
-52.2887
0
LINE
8
BLACK
6
CONTINUOUS
10
140.702
20
-52.2887
11
140.698
21
-52.2883
0
LINE
8
BLACK
6
CONTINUOUS
10
140.698
20
-52.2883
11
140.695
21
-52.2882
0
LINE
8
BLACK
6
CONTINUOUS
10
140.695
20
-52.2882
11
140.692
21
-52.2876
0
LINE
8
BLACK
6
CONTINUOUS
10
140.692
20
-52.2876
11
140.689
21
-52.2873
0
LINE
8
BLACK
6
CONTINUOUS
10
140.689
20
-52.2873
11
140.686
21
-52.2863
0
LINE
8
BLACK
6
CONTINUOUS
10
140.686
20
-52.2863
11
140.683
21
-52.2855
0
LINE
8
BLACK
6
CONTINUOUS
10
140.683
20
-52.2855
11
140.611
21
-52.2617
0
LINE
8
BLACK
6
CONTINUOUS
10
140.611
20
-52.2617
11
140.61
21
-52.2614
0
LINE
8
BLACK
6
CONTINUOUS
10
140.61
20
-52.2614
11
140.599
21
-52.2563
0
LINE
8
BLACK
6
CONTINUOUS
10
140.599
20
-52.2563
11
140.589
21
-52.2491
0
LINE
8
BLACK
6
CONTINUOUS
10
140.589
20
-52.2491
11
140.581
21
-52.2401
0
LINE
8
BLACK
6
CONTINUOUS
10
140.581
20
-52.2401
11
140.575
21
-52.2297
0
LINE
8
BLACK
6
CONTINUOUS
10
140.575
20
-52.2297
11
140.571
21
-52.2183
0
LINE
8
BLACK
6
CONTINUOUS
10
140.571
20
-52.2183
11
140.569
21
-52.2063
0
LINE
8
BLACK
6
CONTINUOUS
10
140.569
20
-52.2063
11
140.569
21
-52.1941
0
LINE
8
BLACK
6
CONTINUOUS
10
140.569
20
-52.1941
11
140.572
21
-52.1822
0
LINE
8
BLACK
6
CONTINUOUS
10
140.572
20
-52.1822
11
140.577
21
-52.1711
0
LINE
8
BLACK
6
CONTINUOUS
10
140.577
20
-52.1711
11
140.584
21
-52.1612
0
LINE
8
BLACK
6
CONTINUOUS
10
140.584
20
-52.1612
11
140.593
21
-52.1528
0
LINE
8
BLACK
6
CONTINUOUS
10
140.593
20
-52.1528
11
140.603
21
-52.1464
0
LINE
8
BLACK
6
CONTINUOUS
10
140.603
20
-52.1464
11
140.615
21
-52.1421
0
LINE
8
BLACK
6
CONTINUOUS
10
140.615
20
-52.1421
11
140.627
21
-52.14
0
LINE
8
BLACK
6
CONTINUOUS
10
140.627
20
-52.14
11
140.639
21
-52.1404
0
LINE
8
BLACK
6
CONTINUOUS
10
140.639
20
-52.1404
11
140.651
21
-52.1431
0
LINE
8
BLACK
6
CONTINUOUS
10
140.651
20
-52.1431
11
140.713
21
-52.1637
0
LINE
8
BLACK
6
CONTINUOUS
10
140.713
20
-52.1637
11
140.807
21
-52.1637
0
LINE
8
BLACK
6
CONTINUOUS
10
140.807
20
-52.1637
11
140.832
21
-52.151
0
LINE
8
BLACK
6
CONTINUOUS
10
140.832
20
-52.151
11
140.841
21
-52.1415
0
LINE
8
BLACK
6
CONTINUOUS
10
140.841
20
-52.1415
11
140.854
21
-52.1162
0
LINE
8
BLACK
6
CONTINUOUS
10
140.854
20
-52.1162
11
140.854
21
-52.0981
0
LINE
8
BLACK
6
CONTINUOUS
10
140.854
20
-52.0981
11
140.841
21
-52.0727
0
LINE
8
BLACK
6
CONTINUOUS
10
140.841
20
-52.0727
11
140.832
21
-52.0633
0
LINE
8
BLACK
6
CONTINUOUS
10
140.832
20
-52.0633
11
140.8
21
-52.0471
0
LINE
8
BLACK
6
CONTINUOUS
10
140.8
20
-52.0471
11
140.711
21
-52.0249
0
LINE
8
BLACK
6
CONTINUOUS
10
140.711
20
-52.0249
11
140.71
21
-52.0247
0
LINE
8
BLACK
6
CONTINUOUS
10
140.71
20
-52.0247
11
140.71
21
-52.0246
0
LINE
8
BLACK
6
CONTINUOUS
10
140.71
20
-52.0246
11
140.71
21
-52.0246
0
LINE
8
BLACK
6
CONTINUOUS
10
140.71
20
-52.0246
11
140.704
21
-52.0225
0
LINE
8
BLACK
6
CONTINUOUS
10
140.704
20
-52.0225
11
140.699
21
-52.0204
0
LINE
8
BLACK
6
CONTINUOUS
10
140.699
20
-52.0204
11
140.699
21
-52.0203
0
LINE
8
BLACK
6
CONTINUOUS
10
140.699
20
-52.0203
11
140.698
21
-52.0202
0
LINE
8
BLACK
6
CONTINUOUS
10
140.698
20
-52.0202
11
140.651
21
-51.9964
0
LINE
8
BLACK
6
CONTINUOUS
10
140.651
20
-51.9964
11
140.65
21
-51.996
0
LINE
8
BLACK
6
CONTINUOUS
10
140.65
20
-51.996
11
140.647
21
-51.9941
0
LINE
8
BLACK
6
CONTINUOUS
10
140.647
20
-51.9941
11
140.644
21
-51.9924
0
LINE
8
BLACK
6
CONTINUOUS
10
140.644
20
-51.9924
11
140.642
21
-51.9908
0
LINE
8
BLACK
6
CONTINUOUS
10
140.642
20
-51.9908
11
140.64
21
-51.9893
0
LINE
8
BLACK
6
CONTINUOUS
10
140.64
20
-51.9893
11
140.637
21
-51.9869
0
LINE
8
BLACK
6
CONTINUOUS
10
140.637
20
-51.9869
11
140.634
21
-51.9847
0
LINE
8
BLACK
6
CONTINUOUS
10
140.634
20
-51.9847
11
140.611
21
-51.9609
0
LINE
8
BLACK
6
CONTINUOUS
10
140.611
20
-51.9609
11
140.61
21
-51.9602
0
LINE
8
BLACK
6
CONTINUOUS
10
140.61
20
-51.9602
11
140.608
21
-51.9575
0
LINE
8
BLACK
6
CONTINUOUS
10
140.608
20
-51.9575
11
140.605
21
-51.9549
0
LINE
8
BLACK
6
CONTINUOUS
10
140.605
20
-51.9549
11
140.604
21
-51.9527
0
LINE
8
BLACK
6
CONTINUOUS
10
140.604
20
-51.9527
11
140.602
21
-51.9507
0
LINE
8
BLACK
6
CONTINUOUS
10
140.602
20
-51.9507
11
140.601
21
-51.9476
0
LINE
8
BLACK
6
CONTINUOUS
10
140.601
20
-51.9476
11
140.599
21
-51.9446
0
LINE
8
BLACK
6
CONTINUOUS
10
140.599
20
-51.9446
11
140.575
21
-51.897
0
LINE
8
BLACK
6
CONTINUOUS
10
140.575
20
-51.897
11
140.575
21
-51.8962
0
LINE
8
BLACK
6
CONTINUOUS
10
140.575
20
-51.8962
11
140.574
21
-51.8945
0
LINE
8
BLACK
6
CONTINUOUS
10
140.574
20
-51.8945
11
140.573
21
-51.8929
0
LINE
8
BLACK
6
CONTINUOUS
10
140.573
20
-51.8929
11
140.572
21
-51.8888
0
LINE
8
BLACK
6
CONTINUOUS
10
140.572
20
-51.8888
11
140.57
21
-51.8848
0
LINE
8
BLACK
6
CONTINUOUS
10
140.57
20
-51.8848
11
140.57
21
-51.883
0
LINE
8
BLACK
6
CONTINUOUS
10
140.57
20
-51.883
11
140.57
21
-51.8812
0
LINE
8
BLACK
6
CONTINUOUS
10
140.57
20
-51.8812
11
140.569
21
-51.8769
0
LINE
8
BLACK
6
CONTINUOUS
10
140.569
20
-51.8769
11
140.569
21
-51.8727
0
LINE
8
BLACK
6
CONTINUOUS
10
140.569
20
-51.8727
11
140.569
21
-51.8709
0
LINE
8
BLACK
6
CONTINUOUS
10
140.569
20
-51.8709
11
140.568
21
-51.869
0
LINE
8
BLACK
6
CONTINUOUS
10
140.568
20
-51.869
11
140.568
21
-51.8214
0
LINE
8
BLACK
6
CONTINUOUS
10
140.568
20
-51.8214
11
140.568
21
-51.8206
0
LINE
8
BLACK
6
CONTINUOUS
10
140.568
20
-51.8206
11
140.569
21
-51.8187
0
LINE
8
BLACK
6
CONTINUOUS
10
140.569
20
-51.8187
11
140.569
21
-51.8169
0
LINE
8
BLACK
6
CONTINUOUS
10
140.569
20
-51.8169
11
140.569
21
-51.8127
0
LINE
8
BLACK
6
CONTINUOUS
10
140.569
20
-51.8127
11
140.57
21
-51.8084
0
LINE
8
BLACK
6
CONTINUOUS
10
140.57
20
-51.8084
11
140.57
21
-51.8067
0
LINE
8
BLACK
6
CONTINUOUS
10
140.57
20
-51.8067
11
140.571
21
-51.8049
0
LINE
8
BLACK
6
CONTINUOUS
10
140.571
20
-51.8049
11
140.572
21
-51.8009
0
LINE
8
BLACK
6
CONTINUOUS
10
140.572
20
-51.8009
11
140.574
21
-51.7968
0
LINE
8
BLACK
6
CONTINUOUS
10
140.574
20
-51.7968
11
140.574
21
-51.7952
0
LINE
8
BLACK
6
CONTINUOUS
10
140.574
20
-51.7952
11
140.575
21
-51.7935
0
LINE
8
BLACK
6
CONTINUOUS
10
140.575
20
-51.7935
11
140.599
21
-51.7459
0
LINE
8
BLACK
6
CONTINUOUS
10
140.599
20
-51.7459
11
140.599
21
-51.7451
0
LINE
8
BLACK
6
CONTINUOUS
10
140.599
20
-51.7451
11
140.601
21
-51.7421
0
LINE
8
BLACK
6
CONTINUOUS
10
140.601
20
-51.7421
11
140.603
21
-51.739
0
LINE
8
BLACK
6
CONTINUOUS
10
140.603
20
-51.739
11
140.604
21
-51.737
0
LINE
8
BLACK
6
CONTINUOUS
10
140.604
20
-51.737
11
140.606
21
-51.7348
0
LINE
8
BLACK
6
CONTINUOUS
10
140.606
20
-51.7348
11
140.608
21
-51.7323
0
LINE
8
BLACK
6
CONTINUOUS
10
140.608
20
-51.7323
11
140.611
21
-51.7296
0
LINE
8
BLACK
6
CONTINUOUS
10
140.611
20
-51.7296
11
140.634
21
-51.7058
0
LINE
8
BLACK
6
CONTINUOUS
10
140.634
20
-51.7058
11
140.635
21
-51.7052
0
LINE
8
BLACK
6
CONTINUOUS
10
140.635
20
-51.7052
11
140.638
21
-51.703
0
LINE
8
BLACK
6
CONTINUOUS
10
140.638
20
-51.703
11
140.64
21
-51.7006
0
LINE
8
BLACK
6
CONTINUOUS
10
140.64
20
-51.7006
11
140.643
21
-51.6992
0
LINE
8
BLACK
6
CONTINUOUS
10
140.643
20
-51.6992
11
140.645
21
-51.6976
0
LINE
8
BLACK
6
CONTINUOUS
10
140.645
20
-51.6976
11
140.648
21
-51.696
0
LINE
8
BLACK
6
CONTINUOUS
10
140.648
20
-51.696
11
140.651
21
-51.6941
0
LINE
8
BLACK
6
CONTINUOUS
10
140.651
20
-51.6941
11
140.698
21
-51.6703
0
LINE
8
BLACK
6
CONTINUOUS
10
140.698
20
-51.6703
11
140.699
21
-51.6699
0
LINE
8
BLACK
6
CONTINUOUS
10
140.699
20
-51.6699
11
140.701
21
-51.6693
0
LINE
8
BLACK
6
CONTINUOUS
10
140.701
20
-51.6693
11
140.702
21
-51.6684
0
LINE
8
BLACK
6
CONTINUOUS
10
140.702
20
-51.6684
11
140.706
21
-51.6672
0
LINE
8
BLACK
6
CONTINUOUS
10
140.706
20
-51.6672
11
140.71
21
-51.6657
0
LINE
8
BLACK
6
CONTINUOUS
10
140.71
20
-51.6657
11
140.712
21
-51.6654
0
LINE
8
BLACK
6
CONTINUOUS
10
140.712
20
-51.6654
11
140.714
21
-51.6649
0
LINE
8
BLACK
6
CONTINUOUS
10
140.714
20
-51.6649
11
140.718
21
-51.6645
0
LINE
8
BLACK
6
CONTINUOUS
10
140.718
20
-51.6645
11
140.723
21
-51.6638
0
LINE
8
BLACK
6
CONTINUOUS
10
140.723
20
-51.6638
11
140.724
21
-51.6639
0
LINE
8
BLACK
6
CONTINUOUS
10
140.724
20
-51.6639
11
140.726
21
-51.6637
0
LINE
8
BLACK
6
CONTINUOUS
10
140.726
20
-51.6637
11
140.845
21
-51.6637
0
LINE
8
BLACK
6
CONTINUOUS
10
140.845
20
-51.6637
11
140.846
21
-51.6637
0
LINE
8
BLACK
6
CONTINUOUS
10
141.429
20
-51.665
11
141.441
21
-51.6686
0
LINE
8
BLACK
6
CONTINUOUS
10
141.441
20
-51.6686
11
141.452
21
-51.6744
0
LINE
8
BLACK
6
CONTINUOUS
10
141.452
20
-51.6744
11
141.461
21
-51.6822
0
LINE
8
BLACK
6
CONTINUOUS
10
141.461
20
-51.6822
11
141.469
21
-51.6916
0
LINE
8
BLACK
6
CONTINUOUS
10
141.469
20
-51.6916
11
141.474
21
-51.7024
0
LINE
8
BLACK
6
CONTINUOUS
10
141.474
20
-51.7024
11
141.478
21
-51.7141
0
LINE
8
BLACK
6
CONTINUOUS
10
141.478
20
-51.7141
11
141.479
21
-51.7262
0
LINE
8
BLACK
6
CONTINUOUS
10
141.479
20
-51.7262
11
141.479
21
-52.131
0
LINE
8
BLACK
6
CONTINUOUS
10
141.479
20
-52.131
11
141.479
21
-52.1318
0
LINE
8
BLACK
6
CONTINUOUS
10
141.479
20
-52.1318
11
141.479
21
-52.1337
0
LINE
8
BLACK
6
CONTINUOUS
10
141.479
20
-52.1337
11
141.479
21
-52.1355
0
LINE
8
BLACK
6
CONTINUOUS
10
141.479
20
-52.1355
11
141.478
21
-52.1397
0
LINE
8
BLACK
6
CONTINUOUS
10
141.478
20
-52.1397
11
141.478
21
-52.1439
0
LINE
8
BLACK
6
CONTINUOUS
10
141.478
20
-52.1439
11
141.477
21
-52.1457
0
LINE
8
BLACK
6
CONTINUOUS
10
141.477
20
-52.1457
11
141.477
21
-52.1475
0
LINE
8
BLACK
6
CONTINUOUS
10
141.477
20
-52.1475
11
141.475
21
-52.1515
0
LINE
8
BLACK
6
CONTINUOUS
10
141.475
20
-52.1515
11
141.474
21
-52.1556
0
LINE
8
BLACK
6
CONTINUOUS
10
141.474
20
-52.1556
11
141.473
21
-52.1572
0
LINE
8
BLACK
6
CONTINUOUS
10
141.473
20
-52.1572
11
141.473
21
-52.1589
0
LINE
8
BLACK
6
CONTINUOUS
10
141.473
20
-52.1589
11
141.449
21
-52.2065
0
LINE
8
BLACK
6
CONTINUOUS
10
141.449
20
-52.2065
11
141.448
21
-52.2073
0
LINE
8
BLACK
6
CONTINUOUS
10
141.448
20
-52.2073
11
141.446
21
-52.2102
0
LINE
8
BLACK
6
CONTINUOUS
10
141.446
20
-52.2102
11
141.445
21
-52.2133
0
LINE
8
BLACK
6
CONTINUOUS
10
141.445
20
-52.2133
11
141.443
21
-52.2154
0
LINE
8
BLACK
6
CONTINUOUS
10
141.443
20
-52.2154
11
141.442
21
-52.2175
0
LINE
8
BLACK
6
CONTINUOUS
10
141.442
20
-52.2175
11
141.439
21
-52.2201
0
LINE
8
BLACK
6
CONTINUOUS
10
141.439
20
-52.2201
11
141.437
21
-52.2228
0
LINE
8
BLACK
6
CONTINUOUS
10
141.437
20
-52.2228
11
141.413
21
-52.2466
0
LINE
8
BLACK
6
CONTINUOUS
10
141.413
20
-52.2466
11
141.413
21
-52.2472
0
LINE
8
BLACK
6
CONTINUOUS
10
141.413
20
-52.2472
11
141.41
21
-52.2494
0
LINE
8
BLACK
6
CONTINUOUS
10
141.41
20
-52.2494
11
141.407
21
-52.2518
0
LINE
8
BLACK
6
CONTINUOUS
10
141.407
20
-52.2518
11
141.405
21
-52.2532
0
LINE
8
BLACK
6
CONTINUOUS
10
141.405
20
-52.2532
11
141.403
21
-52.2548
0
LINE
8
BLACK
6
CONTINUOUS
10
141.403
20
-52.2548
11
141.4
21
-52.2564
0
LINE
8
BLACK
6
CONTINUOUS
10
141.4
20
-52.2564
11
141.397
21
-52.2583
0
LINE
8
BLACK
6
CONTINUOUS
10
141.397
20
-52.2583
11
141.349
21
-52.2821
0
LINE
8
BLACK
6
CONTINUOUS
10
141.349
20
-52.2821
11
141.349
21
-52.2825
0
LINE
8
BLACK
6
CONTINUOUS
10
141.349
20
-52.2825
11
141.347
21
-52.2831
0
LINE
8
BLACK
6
CONTINUOUS
10
141.347
20
-52.2831
11
141.345
21
-52.284
0
LINE
8
BLACK
6
CONTINUOUS
10
141.345
20
-52.284
11
141.341
21
-52.2852
0
LINE
8
BLACK
6
CONTINUOUS
10
141.341
20
-52.2852
11
141.337
21
-52.2867
0
LINE
8
BLACK
6
CONTINUOUS
10
141.337
20
-52.2867
11
141.335
21
-52.287
0
LINE
8
BLACK
6
CONTINUOUS
10
141.335
20
-52.287
11
141.334
21
-52.2875
0
LINE
8
BLACK
6
CONTINUOUS
10
141.334
20
-52.2875
11
141.329
21
-52.2879
0
LINE
8
BLACK
6
CONTINUOUS
10
141.329
20
-52.2879
11
141.325
21
-52.2886
0
LINE
8
BLACK
6
CONTINUOUS
10
141.325
20
-52.2886
11
141.323
21
-52.2885
0
LINE
8
BLACK
6
CONTINUOUS
10
141.323
20
-52.2885
11
141.321
21
-52.2887
0
LINE
8
BLACK
6
CONTINUOUS
10
141.321
20
-52.2887
11
141.226
21
-52.2887
0
LINE
8
BLACK
6
CONTINUOUS
10
141.226
20
-52.2887
11
141.225
21
-52.2887
0
LINE
8
BLACK
6
CONTINUOUS
10
141.225
20
-52.2887
11
141.223
21
-52.2885
0
LINE
8
BLACK
6
CONTINUOUS
10
141.223
20
-52.2885
11
141.222
21
-52.2885
0
LINE
8
BLACK
6
CONTINUOUS
10
141.222
20
-52.2885
11
141.217
21
-52.2878
0
LINE
8
BLACK
6
CONTINUOUS
10
141.217
20
-52.2878
11
141.213
21
-52.2873
0
LINE
8
BLACK
6
CONTINUOUS
10
141.213
20
-52.2873
11
141.211
21
-52.2868
0
LINE
8
BLACK
6
CONTINUOUS
10
141.211
20
-52.2868
11
141.21
21
-52.2865
0
LINE
8
BLACK
6
CONTINUOUS
10
141.21
20
-52.2865
11
141.206
21
-52.2849
0
LINE
8
BLACK
6
CONTINUOUS
10
141.206
20
-52.2849
11
141.202
21
-52.2836
0
LINE
8
BLACK
6
CONTINUOUS
10
141.202
20
-52.2836
11
141.2
21
-52.2828
0
LINE
8
BLACK
6
CONTINUOUS
10
141.2
20
-52.2828
11
141.198
21
-52.2821
0
LINE
8
BLACK
6
CONTINUOUS
10
141.198
20
-52.2821
11
141.151
21
-52.2583
0
LINE
8
BLACK
6
CONTINUOUS
10
141.151
20
-52.2583
11
141.15
21
-52.2579
0
LINE
8
BLACK
6
CONTINUOUS
10
141.15
20
-52.2579
11
141.147
21
-52.256
0
LINE
8
BLACK
6
CONTINUOUS
10
141.147
20
-52.256
11
141.144
21
-52.2543
0
LINE
8
BLACK
6
CONTINUOUS
10
141.144
20
-52.2543
11
141.142
21
-52.2527
0
LINE
8
BLACK
6
CONTINUOUS
10
141.142
20
-52.2527
11
141.14
21
-52.2512
0
LINE
8
BLACK
6
CONTINUOUS
10
141.14
20
-52.2512
11
141.137
21
-52.2488
0
LINE
8
BLACK
6
CONTINUOUS
10
141.137
20
-52.2488
11
141.134
21
-52.2466
0
LINE
8
BLACK
6
CONTINUOUS
10
141.134
20
-52.2466
11
141.111
21
-52.2228
0
LINE
8
BLACK
6
CONTINUOUS
10
141.111
20
-52.2228
11
141.11
21
-52.2221
0
LINE
8
BLACK
6
CONTINUOUS
10
141.11
20
-52.2221
11
141.108
21
-52.2194
0
LINE
8
BLACK
6
CONTINUOUS
10
141.108
20
-52.2194
11
141.105
21
-52.2168
0
LINE
8
BLACK
6
CONTINUOUS
10
141.105
20
-52.2168
11
141.104
21
-52.2146
0
LINE
8
BLACK
6
CONTINUOUS
10
141.104
20
-52.2146
11
141.102
21
-52.2126
0
LINE
8
BLACK
6
CONTINUOUS
10
141.102
20
-52.2126
11
141.101
21
-52.2095
0
LINE
8
BLACK
6
CONTINUOUS
10
141.101
20
-52.2095
11
141.099
21
-52.2065
0
LINE
8
BLACK
6
CONTINUOUS
10
141.099
20
-52.2065
11
141.075
21
-52.1589
0
LINE
8
BLACK
6
CONTINUOUS
10
141.075
20
-52.1589
11
141.075
21
-52.1581
0
LINE
8
BLACK
6
CONTINUOUS
10
141.075
20
-52.1581
11
141.074
21
-52.1564
0
LINE
8
BLACK
6
CONTINUOUS
10
141.074
20
-52.1564
11
141.073
21
-52.1548
0
LINE
8
BLACK
6
CONTINUOUS
10
141.073
20
-52.1548
11
141.072
21
-52.1507
0
LINE
8
BLACK
6
CONTINUOUS
10
141.072
20
-52.1507
11
141.07
21
-52.1467
0
LINE
8
BLACK
6
CONTINUOUS
10
141.07
20
-52.1467
11
141.07
21
-52.1449
0
LINE
8
BLACK
6
CONTINUOUS
10
141.07
20
-52.1449
11
141.07
21
-52.1431
0
LINE
8
BLACK
6
CONTINUOUS
10
141.07
20
-52.1431
11
141.069
21
-52.1388
0
LINE
8
BLACK
6
CONTINUOUS
10
141.069
20
-52.1388
11
141.069
21
-52.1346
0
LINE
8
BLACK
6
CONTINUOUS
10
141.069
20
-52.1346
11
141.069
21
-52.1328
0
LINE
8
BLACK
6
CONTINUOUS
10
141.069
20
-52.1328
11
141.068
21
-52.131
0
LINE
8
BLACK
6
CONTINUOUS
10
141.068
20
-52.131
11
141.068
21
-51.7262
0
LINE
8
BLACK
6
CONTINUOUS
10
141.068
20
-51.7262
11
141.068
21
-51.7253
0
LINE
8
BLACK
6
CONTINUOUS
10
141.068
20
-51.7253
11
141.07
21
-51.7132
0
LINE
8
BLACK
6
CONTINUOUS
10
141.07
20
-51.7132
11
141.074
21
-51.7016
0
LINE
8
BLACK
6
CONTINUOUS
10
141.074
20
-51.7016
11
141.079
21
-51.6909
0
LINE
8
BLACK
6
CONTINUOUS
10
141.079
20
-51.6909
11
141.087
21
-51.6815
0
LINE
8
BLACK
6
CONTINUOUS
10
141.087
20
-51.6815
11
141.097
21
-51.6739
0
LINE
8
BLACK
6
CONTINUOUS
10
141.097
20
-51.6739
11
141.108
21
-51.6682
0
LINE
8
BLACK
6
CONTINUOUS
10
141.108
20
-51.6682
11
141.119
21
-51.6648
0
LINE
8
BLACK
6
CONTINUOUS
10
141.119
20
-51.6648
11
141.131
21
-51.6637
0
LINE
8
BLACK
6
CONTINUOUS
10
141.131
20
-51.6637
11
141.144
21
-51.665
0
LINE
8
BLACK
6
CONTINUOUS
10
141.144
20
-51.665
11
141.155
21
-51.6686
0
LINE
8
BLACK
6
CONTINUOUS
10
141.155
20
-51.6686
11
141.166
21
-51.6744
0
LINE
8
BLACK
6
CONTINUOUS
10
141.166
20
-51.6744
11
141.175
21
-51.6822
0
LINE
8
BLACK
6
CONTINUOUS
10
141.175
20
-51.6822
11
141.183
21
-51.6916
0
LINE
8
BLACK
6
CONTINUOUS
10
141.183
20
-51.6916
11
141.189
21
-51.7024
0
LINE
8
BLACK
6
CONTINUOUS
10
141.189
20
-51.7024
11
141.192
21
-51.7141
0
LINE
8
BLACK
6
CONTINUOUS
10
141.192
20
-51.7141
11
141.193
21
-51.7262
0
LINE
8
BLACK
6
CONTINUOUS
10
141.193
20
-51.7262
11
141.193
21
-52.1162
0
LINE
8
BLACK
6
CONTINUOUS
10
141.193
20
-52.1162
11
141.206
21
-52.1415
0
LINE
8
BLACK
6
CONTINUOUS
10
141.206
20
-52.1415
11
141.216
21
-52.151
0
LINE
8
BLACK
6
CONTINUOUS
10
141.216
20
-52.151
11
141.241
21
-52.1637
0
LINE
8
BLACK
6
CONTINUOUS
10
141.241
20
-52.1637
11
141.307
21
-52.1637
0
LINE
8
BLACK
6
CONTINUOUS
10
141.307
20
-52.1637
11
141.332
21
-52.151
0
LINE
8
BLACK
6
CONTINUOUS
10
141.332
20
-52.151
11
141.341
21
-52.1415
0
LINE
8
BLACK
6
CONTINUOUS
10
141.341
20
-52.1415
11
141.354
21
-52.1162
0
LINE
8
BLACK
6
CONTINUOUS
10
141.354
20
-52.1162
11
141.354
21
-51.7262
0
LINE
8
BLACK
6
CONTINUOUS
10
141.354
20
-51.7262
11
141.354
21
-51.7253
0
LINE
8
BLACK
6
CONTINUOUS
10
141.354
20
-51.7253
11
141.356
21
-51.7132
0
LINE
8
BLACK
6
CONTINUOUS
10
141.356
20
-51.7132
11
141.359
21
-51.7016
0
LINE
8
BLACK
6
CONTINUOUS
10
141.359
20
-51.7016
11
141.365
21
-51.6909
0
LINE
8
BLACK
6
CONTINUOUS
10
141.365
20
-51.6909
11
141.373
21
-51.6815
0
LINE
8
BLACK
6
CONTINUOUS
10
141.373
20
-51.6815
11
141.382
21
-51.6739
0
LINE
8
BLACK
6
CONTINUOUS
10
141.382
20
-51.6739
11
141.393
21
-51.6682
0
LINE
8
BLACK
6
CONTINUOUS
10
141.393
20
-51.6682
11
141.405
21
-51.6648
0
LINE
8
BLACK
6
CONTINUOUS
10
141.405
20
-51.6648
11
141.417
21
-51.6637
0
LINE
8
BLACK
6
CONTINUOUS
10
141.417
20
-51.6637
11
141.429
21
-51.665
0
LINE
8
BLACK
6
CONTINUOUS
10
147.489
20
-51.6637
11
147.492
21
-51.6641
0
LINE
8
BLACK
6
CONTINUOUS
10
147.492
20
-51.6641
11
147.496
21
-51.6642
0
LINE
8
BLACK
6
CONTINUOUS
10
147.496
20
-51.6642
11
147.499
21
-51.6648
0
LINE
8
BLACK
6
CONTINUOUS
10
147.499
20
-51.6648
11
147.501
21
-51.6651
0
LINE
8
BLACK
6
CONTINUOUS
10
147.501
20
-51.6651
11
147.504
21
-51.6661
0
LINE
8
BLACK
6
CONTINUOUS
10
147.504
20
-51.6661
11
147.508
21
-51.6669
0
LINE
8
BLACK
6
CONTINUOUS
10
147.508
20
-51.6669
11
147.579
21
-51.6907
0
LINE
8
BLACK
6
CONTINUOUS
10
147.579
20
-51.6907
11
147.58
21
-51.691
0
LINE
8
BLACK
6
CONTINUOUS
10
147.58
20
-51.691
11
147.582
21
-51.6918
0
LINE
8
BLACK
6
CONTINUOUS
10
147.582
20
-51.6918
11
147.584
21
-51.6923
0
LINE
8
BLACK
6
CONTINUOUS
10
147.584
20
-51.6923
11
147.587
21
-51.6943
0
LINE
8
BLACK
6
CONTINUOUS
10
147.587
20
-51.6943
11
147.591
21
-51.6961
0
LINE
8
BLACK
6
CONTINUOUS
10
147.591
20
-51.6961
11
147.593
21
-51.6972
0
LINE
8
BLACK
6
CONTINUOUS
10
147.593
20
-51.6972
11
147.594
21
-51.6981
0
LINE
8
BLACK
6
CONTINUOUS
10
147.594
20
-51.6981
11
147.598
21
-51.7008
0
LINE
8
BLACK
6
CONTINUOUS
10
147.598
20
-51.7008
11
147.601
21
-51.7033
0
LINE
8
BLACK
6
CONTINUOUS
10
147.601
20
-51.7033
11
147.602
21
-51.7046
0
LINE
8
BLACK
6
CONTINUOUS
10
147.602
20
-51.7046
11
147.604
21
-51.7058
0
LINE
8
BLACK
6
CONTINUOUS
10
147.604
20
-51.7058
11
147.651
21
-51.7534
0
LINE
8
BLACK
6
CONTINUOUS
10
147.651
20
-51.7534
11
147.652
21
-51.754
0
LINE
8
BLACK
6
CONTINUOUS
10
147.652
20
-51.754
11
147.654
21
-51.7568
0
LINE
8
BLACK
6
CONTINUOUS
10
147.654
20
-51.7568
11
147.657
21
-51.7593
0
LINE
8
BLACK
6
CONTINUOUS
10
147.657
20
-51.7593
11
147.658
21
-51.7615
0
LINE
8
BLACK
6
CONTINUOUS
10
147.658
20
-51.7615
11
147.66
21
-51.7636
0
LINE
8
BLACK
6
CONTINUOUS
10
147.66
20
-51.7636
11
147.661
21
-51.7667
0
LINE
8
BLACK
6
CONTINUOUS
10
147.661
20
-51.7667
11
147.663
21
-51.7697
0
LINE
8
BLACK
6
CONTINUOUS
10
147.663
20
-51.7697
11
147.687
21
-51.8173
0
LINE
8
BLACK
6
CONTINUOUS
10
147.687
20
-51.8173
11
147.687
21
-51.8181
0
LINE
8
BLACK
6
CONTINUOUS
10
147.687
20
-51.8181
11
147.687
21
-51.8183
0
LINE
8
BLACK
6
CONTINUOUS
10
147.687
20
-51.8183
11
147.687
21
-51.8186
0
LINE
8
BLACK
6
CONTINUOUS
10
147.687
20
-51.8186
11
147.689
21
-51.8241
0
LINE
8
BLACK
6
CONTINUOUS
10
147.689
20
-51.8241
11
147.691
21
-51.8295
0
LINE
8
BLACK
6
CONTINUOUS
10
147.691
20
-51.8295
11
147.691
21
-51.8298
0
LINE
8
BLACK
6
CONTINUOUS
10
147.691
20
-51.8298
11
147.692
21
-51.8301
0
LINE
8
BLACK
6
CONTINUOUS
10
147.692
20
-51.8301
11
147.715
21
-51.9253
0
LINE
8
BLACK
6
CONTINUOUS
10
147.715
20
-51.9253
11
147.716
21
-51.9262
0
LINE
8
BLACK
6
CONTINUOUS
10
147.716
20
-51.9262
11
147.716
21
-51.9273
0
LINE
8
BLACK
6
CONTINUOUS
10
147.716
20
-51.9273
11
147.716
21
-51.9283
0
LINE
8
BLACK
6
CONTINUOUS
10
147.716
20
-51.9283
11
147.717
21
-51.9333
0
LINE
8
BLACK
6
CONTINUOUS
10
147.717
20
-51.9333
11
147.717
21
-51.9383
0
LINE
8
BLACK
6
CONTINUOUS
10
147.717
20
-51.9383
11
147.717
21
-51.9394
0
LINE
8
BLACK
6
CONTINUOUS
10
147.717
20
-51.9394
11
147.717
21
-51.9405
0
LINE
8
BLACK
6
CONTINUOUS
10
147.717
20
-51.9405
11
147.717
21
-52.0119
0
LINE
8
BLACK
6
CONTINUOUS
10
147.717
20
-52.0119
11
147.717
21
-52.0128
0
LINE
8
BLACK
6
CONTINUOUS
10
147.717
20
-52.0128
11
147.717
21
-52.0139
0
LINE
8
BLACK
6
CONTINUOUS
10
147.717
20
-52.0139
11
147.717
21
-52.015
0
LINE
8
BLACK
6
CONTINUOUS
10
147.717
20
-52.015
11
147.716
21
-52.0199
0
LINE
8
BLACK
6
CONTINUOUS
10
147.716
20
-52.0199
11
147.716
21
-52.0249
0
LINE
8
BLACK
6
CONTINUOUS
10
147.716
20
-52.0249
11
147.716
21
-52.026
0
LINE
8
BLACK
6
CONTINUOUS
10
147.716
20
-52.026
11
147.715
21
-52.0271
0
LINE
8
BLACK
6
CONTINUOUS
10
147.715
20
-52.0271
11
147.692
21
-52.1223
0
LINE
8
BLACK
6
CONTINUOUS
10
147.692
20
-52.1223
11
147.691
21
-52.1231
0
LINE
8
BLACK
6
CONTINUOUS
10
147.691
20
-52.1231
11
147.691
21
-52.1234
0
LINE
8
BLACK
6
CONTINUOUS
10
147.691
20
-52.1234
11
147.691
21
-52.1237
0
LINE
8
BLACK
6
CONTINUOUS
10
147.691
20
-52.1237
11
147.689
21
-52.1292
0
LINE
8
BLACK
6
CONTINUOUS
10
147.689
20
-52.1292
11
147.687
21
-52.1346
0
LINE
8
BLACK
6
CONTINUOUS
10
147.687
20
-52.1346
11
147.687
21
-52.1348
0
LINE
8
BLACK
6
CONTINUOUS
10
147.687
20
-52.1348
11
147.687
21
-52.1351
0
LINE
8
BLACK
6
CONTINUOUS
10
147.687
20
-52.1351
11
147.663
21
-52.1827
0
LINE
8
BLACK
6
CONTINUOUS
10
147.663
20
-52.1827
11
147.663
21
-52.1835
0
LINE
8
BLACK
6
CONTINUOUS
10
147.663
20
-52.1835
11
147.661
21
-52.1864
0
LINE
8
BLACK
6
CONTINUOUS
10
147.661
20
-52.1864
11
147.659
21
-52.1895
0
LINE
8
BLACK
6
CONTINUOUS
10
147.659
20
-52.1895
11
147.657
21
-52.1915
0
LINE
8
BLACK
6
CONTINUOUS
10
147.657
20
-52.1915
11
147.656
21
-52.1937
0
LINE
8
BLACK
6
CONTINUOUS
10
147.656
20
-52.1937
11
147.654
21
-52.1962
0
LINE
8
BLACK
6
CONTINUOUS
10
147.654
20
-52.1962
11
147.651
21
-52.199
0
LINE
8
BLACK
6
CONTINUOUS
10
147.651
20
-52.199
11
147.604
21
-52.2466
0
LINE
8
BLACK
6
CONTINUOUS
10
147.604
20
-52.2466
11
147.603
21
-52.2472
0
LINE
8
BLACK
6
CONTINUOUS
10
147.603
20
-52.2472
11
147.602
21
-52.2483
0
LINE
8
BLACK
6
CONTINUOUS
10
147.602
20
-52.2483
11
147.6
21
-52.2497
0
LINE
8
BLACK
6
CONTINUOUS
10
147.6
20
-52.2497
11
147.597
21
-52.2521
0
LINE
8
BLACK
6
CONTINUOUS
10
147.597
20
-52.2521
11
147.594
21
-52.2548
0
LINE
8
BLACK
6
CONTINUOUS
10
147.594
20
-52.2548
11
147.592
21
-52.2556
0
LINE
8
BLACK
6
CONTINUOUS
10
147.592
20
-52.2556
11
147.59
21
-52.2567
0
LINE
8
BLACK
6
CONTINUOUS
10
147.59
20
-52.2567
11
147.587
21
-52.2584
0
LINE
8
BLACK
6
CONTINUOUS
10
147.587
20
-52.2584
11
147.583
21
-52.2604
0
LINE
8
BLACK
6
CONTINUOUS
10
147.583
20
-52.2604
11
147.581
21
-52.2609
0
LINE
8
BLACK
6
CONTINUOUS
10
147.581
20
-52.2609
11
147.579
21
-52.2617
0
LINE
8
BLACK
6
CONTINUOUS
10
147.579
20
-52.2617
11
147.508
21
-52.2855
0
LINE
8
BLACK
6
CONTINUOUS
10
147.508
20
-52.2855
11
147.507
21
-52.2858
0
LINE
8
BLACK
6
CONTINUOUS
10
147.507
20
-52.2858
11
147.504
21
-52.2865
0
LINE
8
BLACK
6
CONTINUOUS
10
147.504
20
-52.2865
11
147.5
21
-52.2875
0
LINE
8
BLACK
6
CONTINUOUS
10
147.5
20
-52.2875
11
147.498
21
-52.2878
0
LINE
8
BLACK
6
CONTINUOUS
10
147.498
20
-52.2878
11
147.495
21
-52.2883
0
LINE
8
BLACK
6
CONTINUOUS
10
147.495
20
-52.2883
11
147.492
21
-52.2883
0
LINE
8
BLACK
6
CONTINUOUS
10
147.492
20
-52.2883
11
147.488
21
-52.2887
0
LINE
8
BLACK
6
CONTINUOUS
10
147.488
20
-52.2887
11
147.369
21
-52.2887
0
LINE
8
BLACK
6
CONTINUOUS
10
147.369
20
-52.2887
11
147.369
21
-52.2887
0
LINE
8
BLACK
6
CONTINUOUS
10
147.369
20
-52.2887
11
147.369
21
-52.2887
0
LINE
8
BLACK
6
CONTINUOUS
10
147.369
20
-52.2887
11
147.369
21
-52.2887
0
LINE
8
BLACK
6
CONTINUOUS
10
147.369
20
-52.2887
11
147.368
21
-52.2887
0
LINE
8
BLACK
6
CONTINUOUS
10
147.368
20
-52.2887
11
147.362
21
-52.288
0
LINE
8
BLACK
6
CONTINUOUS
10
147.362
20
-52.288
11
147.356
21
-52.2874
0
LINE
8
BLACK
6
CONTINUOUS
10
147.356
20
-52.2874
11
147.356
21
-52.2873
0
LINE
8
BLACK
6
CONTINUOUS
10
147.356
20
-52.2873
11
147.356
21
-52.2873
0
LINE
8
BLACK
6
CONTINUOUS
10
147.356
20
-52.2873
11
147.35
21
-52.2855
0
LINE
8
BLACK
6
CONTINUOUS
10
147.35
20
-52.2855
11
147.345
21
-52.2838
0
LINE
8
BLACK
6
CONTINUOUS
10
147.345
20
-52.2838
11
147.345
21
-52.2837
0
LINE
8
BLACK
6
CONTINUOUS
10
147.345
20
-52.2837
11
147.344
21
-52.2836
0
LINE
8
BLACK
6
CONTINUOUS
10
147.344
20
-52.2836
11
147.339
21
-52.2808
0
LINE
8
BLACK
6
CONTINUOUS
10
147.339
20
-52.2808
11
147.334
21
-52.278
0
LINE
8
BLACK
6
CONTINUOUS
10
147.334
20
-52.278
11
147.334
21
-52.2779
0
LINE
8
BLACK
6
CONTINUOUS
10
147.334
20
-52.2779
11
147.334
21
-52.2778
0
LINE
8
BLACK
6
CONTINUOUS
10
147.334
20
-52.2778
11
147.329
21
-52.274
0
LINE
8
BLACK
6
CONTINUOUS
10
147.329
20
-52.274
11
147.325
21
-52.2702
0
LINE
8
BLACK
6
CONTINUOUS
10
147.325
20
-52.2702
11
147.325
21
-52.2701
0
LINE
8
BLACK
6
CONTINUOUS
10
147.325
20
-52.2701
11
147.324
21
-52.2699
0
LINE
8
BLACK
6
CONTINUOUS
10
147.324
20
-52.2699
11
147.321
21
-52.2653
0
LINE
8
BLACK
6
CONTINUOUS
10
147.321
20
-52.2653
11
147.317
21
-52.2608
0
LINE
8
BLACK
6
CONTINUOUS
10
147.317
20
-52.2608
11
147.317
21
-52.2606
0
LINE
8
BLACK
6
CONTINUOUS
10
147.317
20
-52.2606
11
147.317
21
-52.2604
0
LINE
8
BLACK
6
CONTINUOUS
10
147.317
20
-52.2604
11
147.314
21
-52.2552
0
LINE
8
BLACK
6
CONTINUOUS
10
147.314
20
-52.2552
11
147.311
21
-52.25
0
LINE
8
BLACK
6
CONTINUOUS
10
147.311
20
-52.25
11
147.311
21
-52.2498
0
LINE
8
BLACK
6
CONTINUOUS
10
147.311
20
-52.2498
11
147.311
21
-52.2496
0
LINE
8
BLACK
6
CONTINUOUS
10
147.311
20
-52.2496
11
147.309
21
-52.244
0
LINE
8
BLACK
6
CONTINUOUS
10
147.309
20
-52.244
11
147.308
21
-52.2383
0
LINE
8
BLACK
6
CONTINUOUS
10
147.308
20
-52.2383
11
147.308
21
-52.2381
0
LINE
8
BLACK
6
CONTINUOUS
10
147.308
20
-52.2381
11
147.308
21
-52.2379
0
LINE
8
BLACK
6
CONTINUOUS
10
147.308
20
-52.2379
11
147.307
21
-52.2321
0
LINE
8
BLACK
6
CONTINUOUS
10
147.307
20
-52.2321
11
147.307
21
-52.2262
0
LINE
8
BLACK
6
CONTINUOUS
10
147.307
20
-52.2262
11
147.307
21
-51.7262
0
LINE
8
BLACK
6
CONTINUOUS
10
147.307
20
-51.7262
11
147.307
21
-51.7258
0
LINE
8
BLACK
6
CONTINUOUS
10
147.307
20
-51.7258
11
147.307
21
-51.7258
0
LINE
8
BLACK
6
CONTINUOUS
10
147.307
20
-51.7258
11
147.307
21
-51.7257
0
LINE
8
BLACK
6
CONTINUOUS
10
147.307
20
-51.7257
11
147.307
21
-51.7253
0
LINE
8
BLACK
6
CONTINUOUS
10
147.307
20
-51.7253
11
147.307
21
-51.7194
0
LINE
8
BLACK
6
CONTINUOUS
10
147.307
20
-51.7194
11
147.308
21
-51.7136
0
LINE
8
BLACK
6
CONTINUOUS
10
147.308
20
-51.7136
11
147.308
21
-51.7134
0
LINE
8
BLACK
6
CONTINUOUS
10
147.308
20
-51.7134
11
147.308
21
-51.7132
0
LINE
8
BLACK
6
CONTINUOUS
10
147.308
20
-51.7132
11
147.31
21
-51.7076
0
LINE
8
BLACK
6
CONTINUOUS
10
147.31
20
-51.7076
11
147.311
21
-51.702
0
LINE
8
BLACK
6
CONTINUOUS
10
147.311
20
-51.702
11
147.312
21
-51.7018
0
LINE
8
BLACK
6
CONTINUOUS
10
147.312
20
-51.7018
11
147.312
21
-51.7016
0
LINE
8
BLACK
6
CONTINUOUS
10
147.312
20
-51.7016
11
147.314
21
-51.6964
0
LINE
8
BLACK
6
CONTINUOUS
10
147.314
20
-51.6964
11
147.317
21
-51.6912
0
LINE
8
BLACK
6
CONTINUOUS
10
147.317
20
-51.6912
11
147.317
21
-51.6911
0
LINE
8
BLACK
6
CONTINUOUS
10
147.317
20
-51.6911
11
147.317
21
-51.6909
0
LINE
8
BLACK
6
CONTINUOUS
10
147.317
20
-51.6909
11
147.321
21
-51.6864
0
LINE
8
BLACK
6
CONTINUOUS
10
147.321
20
-51.6864
11
147.325
21
-51.6818
0
LINE
8
BLACK
6
CONTINUOUS
10
147.325
20
-51.6818
11
147.325
21
-51.6817
0
LINE
8
BLACK
6
CONTINUOUS
10
147.325
20
-51.6817
11
147.325
21
-51.6815
0
LINE
8
BLACK
6
CONTINUOUS
10
147.325
20
-51.6815
11
147.33
21
-51.6778
0
LINE
8
BLACK
6
CONTINUOUS
10
147.33
20
-51.6778
11
147.334
21
-51.6741
0
LINE
8
BLACK
6
CONTINUOUS
10
147.334
20
-51.6741
11
147.335
21
-51.674
0
LINE
8
BLACK
6
CONTINUOUS
10
147.335
20
-51.674
11
147.335
21
-51.6739
0
LINE
8
BLACK
6
CONTINUOUS
10
147.335
20
-51.6739
11
147.34
21
-51.6712
0
LINE
8
BLACK
6
CONTINUOUS
10
147.34
20
-51.6712
11
147.345
21
-51.6684
0
LINE
8
BLACK
6
CONTINUOUS
10
147.345
20
-51.6684
11
147.345
21
-51.6683
0
LINE
8
BLACK
6
CONTINUOUS
10
147.345
20
-51.6683
11
147.346
21
-51.6682
0
LINE
8
BLACK
6
CONTINUOUS
10
147.346
20
-51.6682
11
147.351
21
-51.6666
0
LINE
8
BLACK
6
CONTINUOUS
10
147.351
20
-51.6666
11
147.357
21
-51.6649
0
LINE
8
BLACK
6
CONTINUOUS
10
147.357
20
-51.6649
11
147.357
21
-51.6649
0
LINE
8
BLACK
6
CONTINUOUS
10
147.357
20
-51.6649
11
147.357
21
-51.6648
0
LINE
8
BLACK
6
CONTINUOUS
10
147.357
20
-51.6648
11
147.363
21
-51.6643
0
LINE
8
BLACK
6
CONTINUOUS
10
147.363
20
-51.6643
11
147.369
21
-51.6637
0
LINE
8
BLACK
6
CONTINUOUS
10
147.369
20
-51.6637
11
147.488
21
-51.6637
0
LINE
8
BLACK
6
CONTINUOUS
10
147.488
20
-51.6637
11
147.489
21
-51.6637
0
LINE
8
BLACK
6
CONTINUOUS
10
147.432
20
-51.7887
11
147.432
21
-52.1637
0
LINE
8
BLACK
6
CONTINUOUS
10
147.432
20
-52.1637
11
147.478
21
-52.1637
0
LINE
8
BLACK
6
CONTINUOUS
10
147.478
20
-52.1637
11
147.526
21
-52.1478
0
LINE
8
BLACK
6
CONTINUOUS
10
147.526
20
-52.1478
11
147.556
21
-52.1177
0
LINE
8
BLACK
6
CONTINUOUS
10
147.556
20
-52.1177
11
147.572
21
-52.0853
0
LINE
8
BLACK
6
CONTINUOUS
10
147.572
20
-52.0853
11
147.592
21
-52.0042
0
LINE
8
BLACK
6
CONTINUOUS
10
147.592
20
-52.0042
11
147.592
21
-51.9482
0
LINE
8
BLACK
6
CONTINUOUS
10
147.592
20
-51.9482
11
147.572
21
-51.867
0
LINE
8
BLACK
6
CONTINUOUS
10
147.572
20
-51.867
11
147.556
21
-51.8346
0
LINE
8
BLACK
6
CONTINUOUS
10
147.556
20
-51.8346
11
147.526
21
-51.8046
0
LINE
8
BLACK
6
CONTINUOUS
10
147.526
20
-51.8046
11
147.478
21
-51.7887
0
LINE
8
BLACK
6
CONTINUOUS
10
147.478
20
-51.7887
11
147.432
21
-51.7887
0
LINE
8
BLACK
6
CONTINUOUS
10
149.233
20
-51.6644
11
149.239
21
-51.665
0
LINE
8
BLACK
6
CONTINUOUS
10
149.239
20
-51.665
11
149.239
21
-51.665
0
LINE
8
BLACK
6
CONTINUOUS
10
149.239
20
-51.665
11
149.239
21
-51.665
0
LINE
8
BLACK
6
CONTINUOUS
10
149.239
20
-51.665
11
149.245
21
-51.6668
0
LINE
8
BLACK
6
CONTINUOUS
10
149.245
20
-51.6668
11
149.25
21
-51.6686
0
LINE
8
BLACK
6
CONTINUOUS
10
149.25
20
-51.6686
11
149.25
21
-51.6686
0
LINE
8
BLACK
6
CONTINUOUS
10
149.25
20
-51.6686
11
149.25
21
-51.6686
0
LINE
8
BLACK
6
CONTINUOUS
10
149.25
20
-51.6686
11
149.256
21
-51.6714
0
LINE
8
BLACK
6
CONTINUOUS
10
149.256
20
-51.6714
11
149.261
21
-51.6744
0
LINE
8
BLACK
6
CONTINUOUS
10
149.261
20
-51.6744
11
149.261
21
-51.6744
0
LINE
8
BLACK
6
CONTINUOUS
10
149.261
20
-51.6744
11
149.261
21
-51.6744
0
LINE
8
BLACK
6
CONTINUOUS
10
149.261
20
-51.6744
11
149.266
21
-51.678
0
LINE
8
BLACK
6
CONTINUOUS
10
149.266
20
-51.678
11
149.271
21
-51.6822
0
LINE
8
BLACK
6
CONTINUOUS
10
149.271
20
-51.6822
11
149.271
21
-51.6822
0
LINE
8
BLACK
6
CONTINUOUS
10
149.271
20
-51.6822
11
149.271
21
-51.6822
0
LINE
8
BLACK
6
CONTINUOUS
10
149.271
20
-51.6822
11
149.274
21
-51.6868
0
LINE
8
BLACK
6
CONTINUOUS
10
149.274
20
-51.6868
11
149.278
21
-51.6916
0
LINE
8
BLACK
6
CONTINUOUS
10
149.278
20
-51.6916
11
149.278
21
-51.6916
0
LINE
8
BLACK
6
CONTINUOUS
10
149.278
20
-51.6916
11
149.278
21
-51.6917
0
LINE
8
BLACK
6
CONTINUOUS
10
149.278
20
-51.6917
11
149.281
21
-51.6971
0
LINE
8
BLACK
6
CONTINUOUS
10
149.281
20
-51.6971
11
149.284
21
-51.7024
0
LINE
8
BLACK
6
CONTINUOUS
10
149.284
20
-51.7024
11
149.284
21
-51.7024
0
LINE
8
BLACK
6
CONTINUOUS
10
149.284
20
-51.7024
11
149.284
21
-51.7025
0
LINE
8
BLACK
6
CONTINUOUS
10
149.284
20
-51.7025
11
149.286
21
-51.7085
0
LINE
8
BLACK
6
CONTINUOUS
10
149.286
20
-51.7085
11
149.287
21
-51.7141
0
LINE
8
BLACK
6
CONTINUOUS
10
149.287
20
-51.7141
11
149.288
21
-51.7141
0
LINE
8
BLACK
6
CONTINUOUS
10
149.288
20
-51.7141
11
149.288
21
-51.7141
0
LINE
8
BLACK
6
CONTINUOUS
10
149.288
20
-51.7141
11
149.288
21
-51.7202
0
LINE
8
BLACK
6
CONTINUOUS
10
149.288
20
-51.7202
11
149.289
21
-51.7262
0
LINE
8
BLACK
6
CONTINUOUS
10
149.289
20
-51.7262
11
149.289
21
-52.1637
0
LINE
8
BLACK
6
CONTINUOUS
10
149.289
20
-52.1637
11
149.369
21
-52.1637
0
LINE
8
BLACK
6
CONTINUOUS
10
149.369
20
-52.1637
11
149.37
21
-52.1637
0
LINE
8
BLACK
6
CONTINUOUS
10
149.37
20
-52.1637
11
149.382
21
-52.1651
0
LINE
8
BLACK
6
CONTINUOUS
10
149.382
20
-52.1651
11
149.394
21
-52.1687
0
LINE
8
BLACK
6
CONTINUOUS
10
149.394
20
-52.1687
11
149.404
21
-52.1746
0
LINE
8
BLACK
6
CONTINUOUS
10
149.404
20
-52.1746
11
149.414
21
-52.1825
0
LINE
8
BLACK
6
CONTINUOUS
10
149.414
20
-52.1825
11
149.421
21
-52.192
0
LINE
8
BLACK
6
CONTINUOUS
10
149.421
20
-52.192
11
149.427
21
-52.2028
0
LINE
8
BLACK
6
CONTINUOUS
10
149.427
20
-52.2028
11
149.43
21
-52.2145
0
LINE
8
BLACK
6
CONTINUOUS
10
149.43
20
-52.2145
11
149.432
21
-52.2266
0
LINE
8
BLACK
6
CONTINUOUS
10
149.432
20
-52.2266
11
149.43
21
-52.2388
0
LINE
8
BLACK
6
CONTINUOUS
10
149.43
20
-52.2388
11
149.427
21
-52.2504
0
LINE
8
BLACK
6
CONTINUOUS
10
149.427
20
-52.2504
11
149.421
21
-52.2611
0
LINE
8
BLACK
6
CONTINUOUS
10
149.421
20
-52.2611
11
149.413
21
-52.2705
0
LINE
8
BLACK
6
CONTINUOUS
10
149.413
20
-52.2705
11
149.404
21
-52.2782
0
LINE
8
BLACK
6
CONTINUOUS
10
149.404
20
-52.2782
11
149.393
21
-52.284
0
LINE
8
BLACK
6
CONTINUOUS
10
149.393
20
-52.284
11
149.381
21
-52.2875
0
LINE
8
BLACK
6
CONTINUOUS
10
149.381
20
-52.2875
11
149.369
21
-52.2887
0
LINE
8
BLACK
6
CONTINUOUS
10
149.369
20
-52.2887
11
149.083
21
-52.2887
0
LINE
8
BLACK
6
CONTINUOUS
10
149.083
20
-52.2887
11
149.082
21
-52.2887
0
LINE
8
BLACK
6
CONTINUOUS
10
149.082
20
-52.2887
11
149.07
21
-52.2873
0
LINE
8
BLACK
6
CONTINUOUS
10
149.07
20
-52.2873
11
149.059
21
-52.2836
0
LINE
8
BLACK
6
CONTINUOUS
10
149.059
20
-52.2836
11
149.048
21
-52.2778
0
LINE
8
BLACK
6
CONTINUOUS
10
149.048
20
-52.2778
11
149.039
21
-52.2699
0
LINE
8
BLACK
6
CONTINUOUS
10
149.039
20
-52.2699
11
149.031
21
-52.2604
0
LINE
8
BLACK
6
CONTINUOUS
10
149.031
20
-52.2604
11
149.025
21
-52.2496
0
LINE
8
BLACK
6
CONTINUOUS
10
149.025
20
-52.2496
11
149.022
21
-52.2379
0
LINE
8
BLACK
6
CONTINUOUS
10
149.022
20
-52.2379
11
149.021
21
-52.2258
0
LINE
8
BLACK
6
CONTINUOUS
10
149.021
20
-52.2258
11
149.022
21
-52.2136
0
LINE
8
BLACK
6
CONTINUOUS
10
149.022
20
-52.2136
11
149.026
21
-52.202
0
LINE
8
BLACK
6
CONTINUOUS
10
149.026
20
-52.202
11
149.032
21
-52.1912
0
LINE
8
BLACK
6
CONTINUOUS
10
149.032
20
-52.1912
11
149.039
21
-52.1818
0
LINE
8
BLACK
6
CONTINUOUS
10
149.039
20
-52.1818
11
149.049
21
-52.1741
0
LINE
8
BLACK
6
CONTINUOUS
10
149.049
20
-52.1741
11
149.06
21
-52.1684
0
LINE
8
BLACK
6
CONTINUOUS
10
149.06
20
-52.1684
11
149.071
21
-52.1649
0
LINE
8
BLACK
6
CONTINUOUS
10
149.071
20
-52.1649
11
149.083
21
-52.1637
0
LINE
8
BLACK
6
CONTINUOUS
10
149.083
20
-52.1637
11
149.164
21
-52.1637
0
LINE
8
BLACK
6
CONTINUOUS
10
149.164
20
-52.1637
11
149.164
21
-51.8983
0
LINE
8
BLACK
6
CONTINUOUS
10
149.164
20
-51.8983
11
149.162
21
-51.8993
0
LINE
8
BLACK
6
CONTINUOUS
10
149.162
20
-51.8993
11
149.159
21
-51.9011
0
LINE
8
BLACK
6
CONTINUOUS
10
149.159
20
-51.9011
11
149.111
21
-51.9249
0
LINE
8
BLACK
6
CONTINUOUS
10
149.111
20
-51.9249
11
149.111
21
-51.9253
0
LINE
8
BLACK
6
CONTINUOUS
10
149.111
20
-51.9253
11
149.099
21
-51.9295
0
LINE
8
BLACK
6
CONTINUOUS
10
149.099
20
-51.9295
11
149.087
21
-51.9314
0
LINE
8
BLACK
6
CONTINUOUS
10
149.087
20
-51.9314
11
149.075
21
-51.931
0
LINE
8
BLACK
6
CONTINUOUS
10
149.075
20
-51.931
11
149.063
21
-51.9281
0
LINE
8
BLACK
6
CONTINUOUS
10
149.063
20
-51.9281
11
149.052
21
-51.923
0
LINE
8
BLACK
6
CONTINUOUS
10
149.052
20
-51.923
11
149.042
21
-51.9159
0
LINE
8
BLACK
6
CONTINUOUS
10
149.042
20
-51.9159
11
149.034
21
-51.907
0
LINE
8
BLACK
6
CONTINUOUS
10
149.034
20
-51.907
11
149.027
21
-51.8966
0
LINE
8
BLACK
6
CONTINUOUS
10
149.027
20
-51.8966
11
149.023
21
-51.8852
0
LINE
8
BLACK
6
CONTINUOUS
10
149.023
20
-51.8852
11
149.021
21
-51.8731
0
LINE
8
BLACK
6
CONTINUOUS
10
149.021
20
-51.8731
11
149.021
21
-51.861
0
LINE
8
BLACK
6
CONTINUOUS
10
149.021
20
-51.861
11
149.024
21
-51.8491
0
LINE
8
BLACK
6
CONTINUOUS
10
149.024
20
-51.8491
11
149.029
21
-51.838
0
LINE
8
BLACK
6
CONTINUOUS
10
149.029
20
-51.838
11
149.036
21
-51.828
0
LINE
8
BLACK
6
CONTINUOUS
10
149.036
20
-51.828
11
149.045
21
-51.8196
0
LINE
8
BLACK
6
CONTINUOUS
10
149.045
20
-51.8196
11
149.055
21
-51.8131
0
LINE
8
BLACK
6
CONTINUOUS
10
149.055
20
-51.8131
11
149.094
21
-51.7939
0
LINE
8
BLACK
6
CONTINUOUS
10
149.094
20
-51.7939
11
149.13
21
-51.7578
0
LINE
8
BLACK
6
CONTINUOUS
10
149.13
20
-51.7578
11
149.174
21
-51.6915
0
LINE
8
BLACK
6
CONTINUOUS
10
149.174
20
-51.6915
11
149.175
21
-51.6909
0
LINE
8
BLACK
6
CONTINUOUS
10
149.175
20
-51.6909
11
149.175
21
-51.6909
0
LINE
8
BLACK
6
CONTINUOUS
10
149.175
20
-51.6909
11
149.175
21
-51.6909
0
LINE
8
BLACK
6
CONTINUOUS
10
149.175
20
-51.6909
11
149.175
21
-51.6908
0
LINE
8
BLACK
6
CONTINUOUS
10
149.175
20
-51.6908
11
149.179
21
-51.6862
0
LINE
8
BLACK
6
CONTINUOUS
10
149.179
20
-51.6862
11
149.182
21
-51.6815
0
LINE
8
BLACK
6
CONTINUOUS
10
149.182
20
-51.6815
11
149.183
21
-51.6815
0
LINE
8
BLACK
6
CONTINUOUS
10
149.183
20
-51.6815
11
149.183
21
-51.6815
0
LINE
8
BLACK
6
CONTINUOUS
10
149.183
20
-51.6815
11
149.187
21
-51.6778
0
LINE
8
BLACK
6
CONTINUOUS
10
149.187
20
-51.6778
11
149.192
21
-51.6739
0
LINE
8
BLACK
6
CONTINUOUS
10
149.192
20
-51.6739
11
149.192
21
-51.6739
0
LINE
8
BLACK
6
CONTINUOUS
10
149.192
20
-51.6739
11
149.192
21
-51.6738
0
LINE
8
BLACK
6
CONTINUOUS
10
149.192
20
-51.6738
11
149.197
21
-51.6711
0
LINE
8
BLACK
6
CONTINUOUS
10
149.197
20
-51.6711
11
149.203
21
-51.6682
0
LINE
8
BLACK
6
CONTINUOUS
10
149.203
20
-51.6682
11
149.203
21
-51.6682
0
LINE
8
BLACK
6
CONTINUOUS
10
149.203
20
-51.6682
11
149.203
21
-51.6682
0
LINE
8
BLACK
6
CONTINUOUS
10
149.203
20
-51.6682
11
149.209
21
-51.6664
0
LINE
8
BLACK
6
CONTINUOUS
10
149.209
20
-51.6664
11
149.214
21
-51.6648
0
LINE
8
BLACK
6
CONTINUOUS
10
149.214
20
-51.6648
11
149.215
21
-51.6648
0
LINE
8
BLACK
6
CONTINUOUS
10
149.215
20
-51.6648
11
149.215
21
-51.6648
0
LINE
8
BLACK
6
CONTINUOUS
10
149.215
20
-51.6648
11
149.221
21
-51.6642
0
LINE
8
BLACK
6
CONTINUOUS
10
149.221
20
-51.6642
11
149.227
21
-51.6637
0
LINE
8
BLACK
6
CONTINUOUS
10
149.227
20
-51.6637
11
149.227
21
-51.6637
0
LINE
8
BLACK
6
CONTINUOUS
10
149.227
20
-51.6637
11
149.227
21
-51.6637
0
LINE
8
BLACK
6
CONTINUOUS
10
149.227
20
-51.6637
11
149.233
21
-51.6644
0
LINE
8
BLACK
6
CONTINUOUS
10
142.394
20
-51.6637
11
142.406
21
-51.6651
0
LINE
8
BLACK
6
CONTINUOUS
10
142.406
20
-51.6651
11
142.417
21
-51.6687
0
LINE
8
BLACK
6
CONTINUOUS
10
142.417
20
-51.6687
11
142.428
21
-51.6746
0
LINE
8
BLACK
6
CONTINUOUS
10
142.428
20
-51.6746
11
142.438
21
-51.6825
0
LINE
8
BLACK
6
CONTINUOUS
10
142.438
20
-51.6825
11
142.445
21
-51.692
0
LINE
8
BLACK
6
CONTINUOUS
10
142.445
20
-51.692
11
142.451
21
-51.7028
0
LINE
8
BLACK
6
CONTINUOUS
10
142.451
20
-51.7028
11
142.454
21
-51.7145
0
LINE
8
BLACK
6
CONTINUOUS
10
142.454
20
-51.7145
11
142.455
21
-51.7266
0
LINE
8
BLACK
6
CONTINUOUS
10
142.455
20
-51.7266
11
142.454
21
-51.7388
0
LINE
8
BLACK
6
CONTINUOUS
10
142.454
20
-51.7388
11
142.45
21
-51.7504
0
LINE
8
BLACK
6
CONTINUOUS
10
142.45
20
-51.7504
11
142.445
21
-51.7611
0
LINE
8
BLACK
6
CONTINUOUS
10
142.445
20
-51.7611
11
142.437
21
-51.7705
0
LINE
8
BLACK
6
CONTINUOUS
10
142.437
20
-51.7705
11
142.427
21
-51.7782
0
LINE
8
BLACK
6
CONTINUOUS
10
142.427
20
-51.7782
11
142.417
21
-51.784
0
LINE
8
BLACK
6
CONTINUOUS
10
142.417
20
-51.784
11
142.405
21
-51.7875
0
LINE
8
BLACK
6
CONTINUOUS
10
142.405
20
-51.7875
11
142.393
21
-51.7887
0
LINE
8
BLACK
6
CONTINUOUS
10
142.393
20
-51.7887
11
142.217
21
-51.7887
0
LINE
8
BLACK
6
CONTINUOUS
10
142.217
20
-51.7887
11
142.217
21
-51.9018
0
LINE
8
BLACK
6
CONTINUOUS
10
142.217
20
-51.9018
11
142.321
21
-51.9018
0
LINE
8
BLACK
6
CONTINUOUS
10
142.321
20
-51.9018
11
142.322
21
-51.9018
0
LINE
8
BLACK
6
CONTINUOUS
10
142.322
20
-51.9018
11
142.334
21
-51.9032
0
LINE
8
BLACK
6
CONTINUOUS
10
142.334
20
-51.9032
11
142.346
21
-51.9068
0
LINE
8
BLACK
6
CONTINUOUS
10
142.346
20
-51.9068
11
142.357
21
-51.9127
0
LINE
8
BLACK
6
CONTINUOUS
10
142.357
20
-51.9127
11
142.366
21
-51.9206
0
LINE
8
BLACK
6
CONTINUOUS
10
142.366
20
-51.9206
11
142.374
21
-51.9301
0
LINE
8
BLACK
6
CONTINUOUS
10
142.374
20
-51.9301
11
142.379
21
-51.9409
0
LINE
8
BLACK
6
CONTINUOUS
10
142.379
20
-51.9409
11
142.383
21
-51.9526
0
LINE
8
BLACK
6
CONTINUOUS
10
142.383
20
-51.9526
11
142.384
21
-51.9647
0
LINE
8
BLACK
6
CONTINUOUS
10
142.384
20
-51.9647
11
142.383
21
-51.9769
0
LINE
8
BLACK
6
CONTINUOUS
10
142.383
20
-51.9769
11
142.379
21
-51.9885
0
LINE
8
BLACK
6
CONTINUOUS
10
142.379
20
-51.9885
11
142.373
21
-51.9992
0
LINE
8
BLACK
6
CONTINUOUS
10
142.373
20
-51.9992
11
142.365
21
-52.0086
0
LINE
8
BLACK
6
CONTINUOUS
10
142.365
20
-52.0086
11
142.356
21
-52.0163
0
LINE
8
BLACK
6
CONTINUOUS
10
142.356
20
-52.0163
11
142.345
21
-52.0221
0
LINE
8
BLACK
6
CONTINUOUS
10
142.345
20
-52.0221
11
142.334
21
-52.0256
0
LINE
8
BLACK
6
CONTINUOUS
10
142.334
20
-52.0256
11
142.321
21
-52.0268
0
LINE
8
BLACK
6
CONTINUOUS
10
142.321
20
-52.0268
11
142.217
21
-52.0268
0
LINE
8
BLACK
6
CONTINUOUS
10
142.217
20
-52.0268
11
142.217
21
-52.1637
0
LINE
8
BLACK
6
CONTINUOUS
10
142.217
20
-52.1637
11
142.393
21
-52.1637
0
LINE
8
BLACK
6
CONTINUOUS
10
142.393
20
-52.1637
11
142.394
21
-52.1637
0
LINE
8
BLACK
6
CONTINUOUS
10
142.394
20
-52.1637
11
142.406
21
-52.1651
0
LINE
8
BLACK
6
CONTINUOUS
10
142.406
20
-52.1651
11
142.417
21
-52.1687
0
LINE
8
BLACK
6
CONTINUOUS
10
142.417
20
-52.1687
11
142.428
21
-52.1746
0
LINE
8
BLACK
6
CONTINUOUS
10
142.428
20
-52.1746
11
142.438
21
-52.1825
0
LINE
8
BLACK
6
CONTINUOUS
10
142.438
20
-52.1825
11
142.445
21
-52.192
0
LINE
8
BLACK
6
CONTINUOUS
10
142.445
20
-52.192
11
142.451
21
-52.2028
0
LINE
8
BLACK
6
CONTINUOUS
10
142.451
20
-52.2028
11
142.454
21
-52.2145
0
LINE
8
BLACK
6
CONTINUOUS
10
142.454
20
-52.2145
11
142.455
21
-52.2266
0
LINE
8
BLACK
6
CONTINUOUS
10
142.455
20
-52.2266
11
142.454
21
-52.2388
0
LINE
8
BLACK
6
CONTINUOUS
10
142.454
20
-52.2388
11
142.45
21
-52.2504
0
LINE
8
BLACK
6
CONTINUOUS
10
142.45
20
-52.2504
11
142.445
21
-52.2611
0
LINE
8
BLACK
6
CONTINUOUS
10
142.445
20
-52.2611
11
142.437
21
-52.2705
0
LINE
8
BLACK
6
CONTINUOUS
10
142.437
20
-52.2705
11
142.427
21
-52.2782
0
LINE
8
BLACK
6
CONTINUOUS
10
142.427
20
-52.2782
11
142.417
21
-52.284
0
LINE
8
BLACK
6
CONTINUOUS
10
142.417
20
-52.284
11
142.405
21
-52.2875
0
LINE
8
BLACK
6
CONTINUOUS
10
142.405
20
-52.2875
11
142.393
21
-52.2887
0
LINE
8
BLACK
6
CONTINUOUS
10
142.393
20
-52.2887
11
142.155
21
-52.2887
0
LINE
8
BLACK
6
CONTINUOUS
10
142.155
20
-52.2887
11
142.154
21
-52.2887
0
LINE
8
BLACK
6
CONTINUOUS
10
142.154
20
-52.2887
11
142.154
21
-52.2887
0
LINE
8
BLACK
6
CONTINUOUS
10
142.154
20
-52.2887
11
142.154
21
-52.2887
0
LINE
8
BLACK
6
CONTINUOUS
10
142.154
20
-52.2887
11
142.154
21
-52.2887
0
LINE
8
BLACK
6
CONTINUOUS
10
142.154
20
-52.2887
11
142.148
21
-52.288
0
LINE
8
BLACK
6
CONTINUOUS
10
142.148
20
-52.288
11
142.142
21
-52.2874
0
LINE
8
BLACK
6
CONTINUOUS
10
142.142
20
-52.2874
11
142.142
21
-52.2873
0
LINE
8
BLACK
6
CONTINUOUS
10
142.142
20
-52.2873
11
142.142
21
-52.2873
0
LINE
8
BLACK
6
CONTINUOUS
10
142.142
20
-52.2873
11
142.136
21
-52.2855
0
LINE
8
BLACK
6
CONTINUOUS
10
142.136
20
-52.2855
11
142.131
21
-52.2838
0
LINE
8
BLACK
6
CONTINUOUS
10
142.131
20
-52.2838
11
142.13
21
-52.2837
0
LINE
8
BLACK
6
CONTINUOUS
10
142.13
20
-52.2837
11
142.13
21
-52.2836
0
LINE
8
BLACK
6
CONTINUOUS
10
142.13
20
-52.2836
11
142.125
21
-52.2808
0
LINE
8
BLACK
6
CONTINUOUS
10
142.125
20
-52.2808
11
142.12
21
-52.278
0
LINE
8
BLACK
6
CONTINUOUS
10
142.12
20
-52.278
11
142.12
21
-52.2779
0
LINE
8
BLACK
6
CONTINUOUS
10
142.12
20
-52.2779
11
142.119
21
-52.2778
0
LINE
8
BLACK
6
CONTINUOUS
10
142.119
20
-52.2778
11
142.115
21
-52.274
0
LINE
8
BLACK
6
CONTINUOUS
10
142.115
20
-52.274
11
142.11
21
-52.2702
0
LINE
8
BLACK
6
CONTINUOUS
10
142.11
20
-52.2702
11
142.11
21
-52.2701
0
LINE
8
BLACK
6
CONTINUOUS
10
142.11
20
-52.2701
11
142.11
21
-52.2699
0
LINE
8
BLACK
6
CONTINUOUS
10
142.11
20
-52.2699
11
142.106
21
-52.2653
0
LINE
8
BLACK
6
CONTINUOUS
10
142.106
20
-52.2653
11
142.103
21
-52.2608
0
LINE
8
BLACK
6
CONTINUOUS
10
142.103
20
-52.2608
11
142.103
21
-52.2606
0
LINE
8
BLACK
6
CONTINUOUS
10
142.103
20
-52.2606
11
142.102
21
-52.2604
0
LINE
8
BLACK
6
CONTINUOUS
10
142.102
20
-52.2604
11
142.1
21
-52.2552
0
LINE
8
BLACK
6
CONTINUOUS
10
142.1
20
-52.2552
11
142.097
21
-52.25
0
LINE
8
BLACK
6
CONTINUOUS
10
142.097
20
-52.25
11
142.097
21
-52.2498
0
LINE
8
BLACK
6
CONTINUOUS
10
142.097
20
-52.2498
11
142.097
21
-52.2496
0
LINE
8
BLACK
6
CONTINUOUS
10
142.097
20
-52.2496
11
142.095
21
-52.244
0
LINE
8
BLACK
6
CONTINUOUS
10
142.095
20
-52.244
11
142.093
21
-52.2383
0
LINE
8
BLACK
6
CONTINUOUS
10
142.093
20
-52.2383
11
142.093
21
-52.2381
0
LINE
8
BLACK
6
CONTINUOUS
10
142.093
20
-52.2381
11
142.093
21
-52.2379
0
LINE
8
BLACK
6
CONTINUOUS
10
142.093
20
-52.2379
11
142.093
21
-52.2321
0
LINE
8
BLACK
6
CONTINUOUS
10
142.093
20
-52.2321
11
142.092
21
-52.2262
0
LINE
8
BLACK
6
CONTINUOUS
10
142.092
20
-52.2262
11
142.092
21
-51.7262
0
LINE
8
BLACK
6
CONTINUOUS
10
142.092
20
-51.7262
11
142.092
21
-51.7258
0
LINE
8
BLACK
6
CONTINUOUS
10
142.092
20
-51.7258
11
142.092
21
-51.7258
0
LINE
8
BLACK
6
CONTINUOUS
10
142.092
20
-51.7258
11
142.092
21
-51.7257
0
LINE
8
BLACK
6
CONTINUOUS
10
142.092
20
-51.7257
11
142.092
21
-51.7253
0
LINE
8
BLACK
6
CONTINUOUS
10
142.092
20
-51.7253
11
142.093
21
-51.7194
0
LINE
8
BLACK
6
CONTINUOUS
10
142.093
20
-51.7194
11
142.094
21
-51.7136
0
LINE
8
BLACK
6
CONTINUOUS
10
142.094
20
-51.7136
11
142.094
21
-51.7134
0
LINE
8
BLACK
6
CONTINUOUS
10
142.094
20
-51.7134
11
142.094
21
-51.7132
0
LINE
8
BLACK
6
CONTINUOUS
10
142.094
20
-51.7132
11
142.095
21
-51.7076
0
LINE
8
BLACK
6
CONTINUOUS
10
142.095
20
-51.7076
11
142.097
21
-51.702
0
LINE
8
BLACK
6
CONTINUOUS
10
142.097
20
-51.702
11
142.097
21
-51.7018
0
LINE
8
BLACK
6
CONTINUOUS
10
142.097
20
-51.7018
11
142.097
21
-51.7016
0
LINE
8
BLACK
6
CONTINUOUS
10
142.097
20
-51.7016
11
142.1
21
-51.6964
0
LINE
8
BLACK
6
CONTINUOUS
10
142.1
20
-51.6964
11
142.103
21
-51.6912
0
LINE
8
BLACK
6
CONTINUOUS
10
142.103
20
-51.6912
11
142.103
21
-51.6911
0
LINE
8
BLACK
6
CONTINUOUS
10
142.103
20
-51.6911
11
142.103
21
-51.6909
0
LINE
8
BLACK
6
CONTINUOUS
10
142.103
20
-51.6909
11
142.107
21
-51.6864
0
LINE
8
BLACK
6
CONTINUOUS
10
142.107
20
-51.6864
11
142.111
21
-51.6818
0
LINE
8
BLACK
6
CONTINUOUS
10
142.111
20
-51.6818
11
142.111
21
-51.6817
0
LINE
8
BLACK
6
CONTINUOUS
10
142.111
20
-51.6817
11
142.111
21
-51.6815
0
LINE
8
BLACK
6
CONTINUOUS
10
142.111
20
-51.6815
11
142.116
21
-51.6778
0
LINE
8
BLACK
6
CONTINUOUS
10
142.116
20
-51.6778
11
142.12
21
-51.6741
0
LINE
8
BLACK
6
CONTINUOUS
10
142.12
20
-51.6741
11
142.12
21
-51.674
0
LINE
8
BLACK
6
CONTINUOUS
10
142.12
20
-51.674
11
142.121
21
-51.6739
0
LINE
8
BLACK
6
CONTINUOUS
10
142.121
20
-51.6739
11
142.126
21
-51.6712
0
LINE
8
BLACK
6
CONTINUOUS
10
142.126
20
-51.6712
11
142.131
21
-51.6684
0
LINE
8
BLACK
6
CONTINUOUS
10
142.131
20
-51.6684
11
142.131
21
-51.6683
0
LINE
8
BLACK
6
CONTINUOUS
10
142.131
20
-51.6683
11
142.131
21
-51.6682
0
LINE
8
BLACK
6
CONTINUOUS
10
142.131
20
-51.6682
11
142.137
21
-51.6666
0
LINE
8
BLACK
6
CONTINUOUS
10
142.137
20
-51.6666
11
142.143
21
-51.6649
0
LINE
8
BLACK
6
CONTINUOUS
10
142.143
20
-51.6649
11
142.143
21
-51.6649
0
LINE
8
BLACK
6
CONTINUOUS
10
142.143
20
-51.6649
11
142.143
21
-51.6648
0
LINE
8
BLACK
6
CONTINUOUS
10
142.143
20
-51.6648
11
142.149
21
-51.6643
0
LINE
8
BLACK
6
CONTINUOUS
10
142.149
20
-51.6643
11
142.155
21
-51.6637
0
LINE
8
BLACK
6
CONTINUOUS
10
142.155
20
-51.6637
11
142.393
21
-51.6637
0
LINE
8
BLACK
6
CONTINUOUS
10
142.393
20
-51.6637
11
142.394
21
-51.6637
0
LINE
8
BLACK
6
CONTINUOUS
10
147.156
20
-51.6637
11
147.168
21
-51.6651
0
LINE
8
BLACK
6
CONTINUOUS
10
147.168
20
-51.6651
11
147.179
21
-51.6687
0
LINE
8
BLACK
6
CONTINUOUS
10
147.179
20
-51.6687
11
147.19
21
-51.6746
0
LINE
8
BLACK
6
CONTINUOUS
10
147.19
20
-51.6746
11
147.199
21
-51.6825
0
LINE
8
BLACK
6
CONTINUOUS
10
147.199
20
-51.6825
11
147.207
21
-51.692
0
LINE
8
BLACK
6
CONTINUOUS
10
147.207
20
-51.692
11
147.213
21
-51.7028
0
LINE
8
BLACK
6
CONTINUOUS
10
147.213
20
-51.7028
11
147.216
21
-51.7145
0
LINE
8
BLACK
6
CONTINUOUS
10
147.216
20
-51.7145
11
147.217
21
-51.7266
0
LINE
8
BLACK
6
CONTINUOUS
10
147.217
20
-51.7266
11
147.216
21
-51.7388
0
LINE
8
BLACK
6
CONTINUOUS
10
147.216
20
-51.7388
11
147.212
21
-51.7504
0
LINE
8
BLACK
6
CONTINUOUS
10
147.212
20
-51.7504
11
147.207
21
-51.7611
0
LINE
8
BLACK
6
CONTINUOUS
10
147.207
20
-51.7611
11
147.199
21
-51.7705
0
LINE
8
BLACK
6
CONTINUOUS
10
147.199
20
-51.7705
11
147.189
21
-51.7782
0
LINE
8
BLACK
6
CONTINUOUS
10
147.189
20
-51.7782
11
147.179
21
-51.784
0
LINE
8
BLACK
6
CONTINUOUS
10
147.179
20
-51.784
11
147.167
21
-51.7875
0
LINE
8
BLACK
6
CONTINUOUS
10
147.167
20
-51.7875
11
147.155
21
-51.7887
0
LINE
8
BLACK
6
CONTINUOUS
10
147.155
20
-51.7887
11
146.979
21
-51.7887
0
LINE
8
BLACK
6
CONTINUOUS
10
146.979
20
-51.7887
11
146.979
21
-51.9018
0
LINE
8
BLACK
6
CONTINUOUS
10
146.979
20
-51.9018
11
147.083
21
-51.9018
0
LINE
8
BLACK
6
CONTINUOUS
10
147.083
20
-51.9018
11
147.084
21
-51.9018
0
LINE
8
BLACK
6
CONTINUOUS
10
147.084
20
-51.9018
11
147.096
21
-51.9032
0
LINE
8
BLACK
6
CONTINUOUS
10
147.096
20
-51.9032
11
147.108
21
-51.9068
0
LINE
8
BLACK
6
CONTINUOUS
10
147.108
20
-51.9068
11
147.119
21
-51.9127
0
LINE
8
BLACK
6
CONTINUOUS
10
147.119
20
-51.9127
11
147.128
21
-51.9206
0
LINE
8
BLACK
6
CONTINUOUS
10
147.128
20
-51.9206
11
147.136
21
-51.9301
0
LINE
8
BLACK
6
CONTINUOUS
10
147.136
20
-51.9301
11
147.141
21
-51.9409
0
LINE
8
BLACK
6
CONTINUOUS
10
147.141
20
-51.9409
11
147.145
21
-51.9526
0
LINE
8
BLACK
6
CONTINUOUS
10
147.145
20
-51.9526
11
147.146
21
-51.9647
0
LINE
8
BLACK
6
CONTINUOUS
10
147.146
20
-51.9647
11
147.145
21
-51.9769
0
LINE
8
BLACK
6
CONTINUOUS
10
147.145
20
-51.9769
11
147.141
21
-51.9885
0
LINE
8
BLACK
6
CONTINUOUS
10
147.141
20
-51.9885
11
147.135
21
-51.9992
0
LINE
8
BLACK
6
CONTINUOUS
10
147.135
20
-51.9992
11
147.127
21
-52.0086
0
LINE
8
BLACK
6
CONTINUOUS
10
147.127
20
-52.0086
11
147.118
21
-52.0163
0
LINE
8
BLACK
6
CONTINUOUS
10
147.118
20
-52.0163
11
147.107
21
-52.0221
0
LINE
8
BLACK
6
CONTINUOUS
10
147.107
20
-52.0221
11
147.095
21
-52.0256
0
LINE
8
BLACK
6
CONTINUOUS
10
147.095
20
-52.0256
11
147.083
21
-52.0268
0
LINE
8
BLACK
6
CONTINUOUS
10
147.083
20
-52.0268
11
146.979
21
-52.0268
0
LINE
8
BLACK
6
CONTINUOUS
10
146.979
20
-52.0268
11
146.979
21
-52.1637
0
LINE
8
BLACK
6
CONTINUOUS
10
146.979
20
-52.1637
11
147.155
21
-52.1637
0
LINE
8
BLACK
6
CONTINUOUS
10
147.155
20
-52.1637
11
147.156
21
-52.1637
0
LINE
8
BLACK
6
CONTINUOUS
10
147.156
20
-52.1637
11
147.168
21
-52.1651
0
LINE
8
BLACK
6
CONTINUOUS
10
147.168
20
-52.1651
11
147.179
21
-52.1687
0
LINE
8
BLACK
6
CONTINUOUS
10
147.179
20
-52.1687
11
147.19
21
-52.1746
0
LINE
8
BLACK
6
CONTINUOUS
10
147.19
20
-52.1746
11
147.199
21
-52.1825
0
LINE
8
BLACK
6
CONTINUOUS
10
147.199
20
-52.1825
11
147.207
21
-52.192
0
LINE
8
BLACK
6
CONTINUOUS
10
147.207
20
-52.192
11
147.213
21
-52.2028
0
LINE
8
BLACK
6
CONTINUOUS
10
147.213
20
-52.2028
11
147.216
21
-52.2145
0
LINE
8
BLACK
6
CONTINUOUS
10
147.216
20
-52.2145
11
147.217
21
-52.2266
0
LINE
8
BLACK
6
CONTINUOUS
10
147.217
20
-52.2266
11
147.216
21
-52.2388
0
LINE
8
BLACK
6
CONTINUOUS
10
147.216
20
-52.2388
11
147.212
21
-52.2504
0
LINE
8
BLACK
6
CONTINUOUS
10
147.212
20
-52.2504
11
147.207
21
-52.2611
0
LINE
8
BLACK
6
CONTINUOUS
10
147.207
20
-52.2611
11
147.199
21
-52.2705
0
LINE
8
BLACK
6
CONTINUOUS
10
147.199
20
-52.2705
11
147.189
21
-52.2782
0
LINE
8
BLACK
6
CONTINUOUS
10
147.189
20
-52.2782
11
147.179
21
-52.284
0
LINE
8
BLACK
6
CONTINUOUS
10
147.179
20
-52.284
11
147.167
21
-52.2875
0
LINE
8
BLACK
6
CONTINUOUS
10
147.167
20
-52.2875
11
147.155
21
-52.2887
0
LINE
8
BLACK
6
CONTINUOUS
10
147.155
20
-52.2887
11
146.917
21
-52.2887
0
LINE
8
BLACK
6
CONTINUOUS
10
146.917
20
-52.2887
11
146.916
21
-52.2887
0
LINE
8
BLACK
6
CONTINUOUS
10
146.916
20
-52.2887
11
146.916
21
-52.2887
0
LINE
8
BLACK
6
CONTINUOUS
10
146.916
20
-52.2887
11
146.916
21
-52.2887
0
LINE
8
BLACK
6
CONTINUOUS
10
146.916
20
-52.2887
11
146.916
21
-52.2887
0
LINE
8
BLACK
6
CONTINUOUS
10
146.916
20
-52.2887
11
146.91
21
-52.288
0
LINE
8
BLACK
6
CONTINUOUS
10
146.91
20
-52.288
11
146.904
21
-52.2874
0
LINE
8
BLACK
6
CONTINUOUS
10
146.904
20
-52.2874
11
146.904
21
-52.2873
0
LINE
8
BLACK
6
CONTINUOUS
10
146.904
20
-52.2873
11
146.904
21
-52.2873
0
LINE
8
BLACK
6
CONTINUOUS
10
146.904
20
-52.2873
11
146.898
21
-52.2855
0
LINE
8
BLACK
6
CONTINUOUS
10
146.898
20
-52.2855
11
146.892
21
-52.2838
0
LINE
8
BLACK
6
CONTINUOUS
10
146.892
20
-52.2838
11
146.892
21
-52.2837
0
LINE
8
BLACK
6
CONTINUOUS
10
146.892
20
-52.2837
11
146.892
21
-52.2836
0
LINE
8
BLACK
6
CONTINUOUS
10
146.892
20
-52.2836
11
146.887
21
-52.2808
0
LINE
8
BLACK
6
CONTINUOUS
10
146.887
20
-52.2808
11
146.882
21
-52.278
0
LINE
8
BLACK
6
CONTINUOUS
10
146.882
20
-52.278
11
146.882
21
-52.2779
0
LINE
8
BLACK
6
CONTINUOUS
10
146.882
20
-52.2779
11
146.881
21
-52.2778
0
LINE
8
BLACK
6
CONTINUOUS
10
146.881
20
-52.2778
11
146.877
21
-52.274
0
LINE
8
BLACK
6
CONTINUOUS
10
146.877
20
-52.274
11
146.872
21
-52.2702
0
LINE
8
BLACK
6
CONTINUOUS
10
146.872
20
-52.2702
11
146.872
21
-52.2701
0
LINE
8
BLACK
6
CONTINUOUS
10
146.872
20
-52.2701
11
146.872
21
-52.2699
0
LINE
8
BLACK
6
CONTINUOUS
10
146.872
20
-52.2699
11
146.868
21
-52.2653
0
LINE
8
BLACK
6
CONTINUOUS
10
146.868
20
-52.2653
11
146.865
21
-52.2608
0
LINE
8
BLACK
6
CONTINUOUS
10
146.865
20
-52.2608
11
146.865
21
-52.2606
0
LINE
8
BLACK
6
CONTINUOUS
10
146.865
20
-52.2606
11
146.864
21
-52.2604
0
LINE
8
BLACK
6
CONTINUOUS
10
146.864
20
-52.2604
11
146.862
21
-52.2552
0
LINE
8
BLACK
6
CONTINUOUS
10
146.862
20
-52.2552
11
146.859
21
-52.25
0
LINE
8
BLACK
6
CONTINUOUS
10
146.859
20
-52.25
11
146.859
21
-52.2498
0
LINE
8
BLACK
6
CONTINUOUS
10
146.859
20
-52.2498
11
146.859
21
-52.2496
0
LINE
8
BLACK
6
CONTINUOUS
10
146.859
20
-52.2496
11
146.857
21
-52.244
0
LINE
8
BLACK
6
CONTINUOUS
10
146.857
20
-52.244
11
146.855
21
-52.2383
0
LINE
8
BLACK
6
CONTINUOUS
10
146.855
20
-52.2383
11
146.855
21
-52.2381
0
LINE
8
BLACK
6
CONTINUOUS
10
146.855
20
-52.2381
11
146.855
21
-52.2379
0
LINE
8
BLACK
6
CONTINUOUS
10
146.855
20
-52.2379
11
146.855
21
-52.2321
0
LINE
8
BLACK
6
CONTINUOUS
10
146.855
20
-52.2321
11
146.854
21
-52.2262
0
LINE
8
BLACK
6
CONTINUOUS
10
146.854
20
-52.2262
11
146.854
21
-51.7262
0
LINE
8
BLACK
6
CONTINUOUS
10
146.854
20
-51.7262
11
146.854
21
-51.7258
0
LINE
8
BLACK
6
CONTINUOUS
10
146.854
20
-51.7258
11
146.854
21
-51.7258
0
LINE
8
BLACK
6
CONTINUOUS
10
146.854
20
-51.7258
11
146.854
21
-51.7257
0
LINE
8
BLACK
6
CONTINUOUS
10
146.854
20
-51.7257
11
146.854
21
-51.7253
0
LINE
8
BLACK
6
CONTINUOUS
10
146.854
20
-51.7253
11
146.855
21
-51.7194
0
LINE
8
BLACK
6
CONTINUOUS
10
146.855
20
-51.7194
11
146.855
21
-51.7136
0
LINE
8
BLACK
6
CONTINUOUS
10
146.855
20
-51.7136
11
146.856
21
-51.7134
0
LINE
8
BLACK
6
CONTINUOUS
10
146.856
20
-51.7134
11
146.856
21
-51.7132
0
LINE
8
BLACK
6
CONTINUOUS
10
146.856
20
-51.7132
11
146.857
21
-51.7076
0
LINE
8
BLACK
6
CONTINUOUS
10
146.857
20
-51.7076
11
146.859
21
-51.702
0
LINE
8
BLACK
6
CONTINUOUS
10
146.859
20
-51.702
11
146.859
21
-51.7018
0
LINE
8
BLACK
6
CONTINUOUS
10
146.859
20
-51.7018
11
146.859
21
-51.7016
0
LINE
8
BLACK
6
CONTINUOUS
10
146.859
20
-51.7016
11
146.862
21
-51.6964
0
LINE
8
BLACK
6
CONTINUOUS
10
146.862
20
-51.6964
11
146.865
21
-51.6912
0
LINE
8
BLACK
6
CONTINUOUS
10
146.865
20
-51.6912
11
146.865
21
-51.6911
0
LINE
8
BLACK
6
CONTINUOUS
10
146.865
20
-51.6911
11
146.865
21
-51.6909
0
LINE
8
BLACK
6
CONTINUOUS
10
146.865
20
-51.6909
11
146.869
21
-51.6864
0
LINE
8
BLACK
6
CONTINUOUS
10
146.869
20
-51.6864
11
146.873
21
-51.6818
0
LINE
8
BLACK
6
CONTINUOUS
10
146.873
20
-51.6818
11
146.873
21
-51.6817
0
LINE
8
BLACK
6
CONTINUOUS
10
146.873
20
-51.6817
11
146.873
21
-51.6815
0
LINE
8
BLACK
6
CONTINUOUS
10
146.873
20
-51.6815
11
146.878
21
-51.6778
0
LINE
8
BLACK
6
CONTINUOUS
10
146.878
20
-51.6778
11
146.882
21
-51.6741
0
LINE
8
BLACK
6
CONTINUOUS
10
146.882
20
-51.6741
11
146.882
21
-51.674
0
LINE
8
BLACK
6
CONTINUOUS
10
146.882
20
-51.674
11
146.882
21
-51.6739
0
LINE
8
BLACK
6
CONTINUOUS
10
146.882
20
-51.6739
11
146.888
21
-51.6712
0
LINE
8
BLACK
6
CONTINUOUS
10
146.888
20
-51.6712
11
146.893
21
-51.6684
0
LINE
8
BLACK
6
CONTINUOUS
10
146.893
20
-51.6684
11
146.893
21
-51.6683
0
LINE
8
BLACK
6
CONTINUOUS
10
146.893
20
-51.6683
11
146.893
21
-51.6682
0
LINE
8
BLACK
6
CONTINUOUS
10
146.893
20
-51.6682
11
146.899
21
-51.6666
0
LINE
8
BLACK
6
CONTINUOUS
10
146.899
20
-51.6666
11
146.905
21
-51.6649
0
LINE
8
BLACK
6
CONTINUOUS
10
146.905
20
-51.6649
11
146.905
21
-51.6649
0
LINE
8
BLACK
6
CONTINUOUS
10
146.905
20
-51.6649
11
146.905
21
-51.6648
0
LINE
8
BLACK
6
CONTINUOUS
10
146.905
20
-51.6648
11
146.911
21
-51.6643
0
LINE
8
BLACK
6
CONTINUOUS
10
146.911
20
-51.6643
11
146.917
21
-51.6637
0
LINE
8
BLACK
6
CONTINUOUS
10
146.917
20
-51.6637
11
147.155
21
-51.6637
0
LINE
8
BLACK
6
CONTINUOUS
10
147.155
20
-51.6637
11
147.156
21
-51.6637
0
LINE
8
BLACK
6
CONTINUOUS
10
144.227
20
-51.6637
11
144.239
21
-51.6651
0
LINE
8
BLACK
6
CONTINUOUS
10
144.239
20
-51.6651
11
144.251
21
-51.6687
0
LINE
8
BLACK
6
CONTINUOUS
10
144.251
20
-51.6687
11
144.261
21
-51.6746
0
LINE
8
BLACK
6
CONTINUOUS
10
144.261
20
-51.6746
11
144.271
21
-51.6825
0
LINE
8
BLACK
6
CONTINUOUS
10
144.271
20
-51.6825
11
144.278
21
-51.692
0
LINE
8
BLACK
6
CONTINUOUS
10
144.278
20
-51.692
11
144.284
21
-51.7028
0
LINE
8
BLACK
6
CONTINUOUS
10
144.284
20
-51.7028
11
144.288
21
-51.7145
0
LINE
8
BLACK
6
CONTINUOUS
10
144.288
20
-51.7145
11
144.289
21
-51.7266
0
LINE
8
BLACK
6
CONTINUOUS
10
144.289
20
-51.7266
11
144.287
21
-51.7388
0
LINE
8
BLACK
6
CONTINUOUS
10
144.287
20
-51.7388
11
144.284
21
-51.7504
0
LINE
8
BLACK
6
CONTINUOUS
10
144.284
20
-51.7504
11
144.278
21
-51.7611
0
LINE
8
BLACK
6
CONTINUOUS
10
144.278
20
-51.7611
11
144.27
21
-51.7705
0
LINE
8
BLACK
6
CONTINUOUS
10
144.27
20
-51.7705
11
144.261
21
-51.7782
0
LINE
8
BLACK
6
CONTINUOUS
10
144.261
20
-51.7782
11
144.25
21
-51.784
0
LINE
8
BLACK
6
CONTINUOUS
10
144.25
20
-51.784
11
144.238
21
-51.7875
0
LINE
8
BLACK
6
CONTINUOUS
10
144.238
20
-51.7875
11
144.226
21
-51.7887
0
LINE
8
BLACK
6
CONTINUOUS
10
144.226
20
-51.7887
11
144.051
21
-51.7887
0
LINE
8
BLACK
6
CONTINUOUS
10
144.051
20
-51.7887
11
144.051
21
-51.9018
0
LINE
8
BLACK
6
CONTINUOUS
10
144.051
20
-51.9018
11
144.155
21
-51.9018
0
LINE
8
BLACK
6
CONTINUOUS
10
144.155
20
-51.9018
11
144.156
21
-51.9018
0
LINE
8
BLACK
6
CONTINUOUS
10
144.156
20
-51.9018
11
144.168
21
-51.9032
0
LINE
8
BLACK
6
CONTINUOUS
10
144.168
20
-51.9032
11
144.179
21
-51.9068
0
LINE
8
BLACK
6
CONTINUOUS
10
144.179
20
-51.9068
11
144.19
21
-51.9127
0
LINE
8
BLACK
6
CONTINUOUS
10
144.19
20
-51.9127
11
144.199
21
-51.9206
0
LINE
8
BLACK
6
CONTINUOUS
10
144.199
20
-51.9206
11
144.207
21
-51.9301
0
LINE
8
BLACK
6
CONTINUOUS
10
144.207
20
-51.9301
11
144.213
21
-51.9409
0
LINE
8
BLACK
6
CONTINUOUS
10
144.213
20
-51.9409
11
144.216
21
-51.9526
0
LINE
8
BLACK
6
CONTINUOUS
10
144.216
20
-51.9526
11
144.217
21
-51.9647
0
LINE
8
BLACK
6
CONTINUOUS
10
144.217
20
-51.9647
11
144.216
21
-51.9769
0
LINE
8
BLACK
6
CONTINUOUS
10
144.216
20
-51.9769
11
144.212
21
-51.9885
0
LINE
8
BLACK
6
CONTINUOUS
10
144.212
20
-51.9885
11
144.207
21
-51.9992
0
LINE
8
BLACK
6
CONTINUOUS
10
144.207
20
-51.9992
11
144.199
21
-52.0086
0
LINE
8
BLACK
6
CONTINUOUS
10
144.199
20
-52.0086
11
144.189
21
-52.0163
0
LINE
8
BLACK
6
CONTINUOUS
10
144.189
20
-52.0163
11
144.179
21
-52.0221
0
LINE
8
BLACK
6
CONTINUOUS
10
144.179
20
-52.0221
11
144.167
21
-52.0256
0
LINE
8
BLACK
6
CONTINUOUS
10
144.167
20
-52.0256
11
144.155
21
-52.0268
0
LINE
8
BLACK
6
CONTINUOUS
10
144.155
20
-52.0268
11
144.051
21
-52.0268
0
LINE
8
BLACK
6
CONTINUOUS
10
144.051
20
-52.0268
11
144.051
21
-52.1637
0
LINE
8
BLACK
6
CONTINUOUS
10
144.051
20
-52.1637
11
144.226
21
-52.1637
0
LINE
8
BLACK
6
CONTINUOUS
10
144.226
20
-52.1637
11
144.227
21
-52.1637
0
LINE
8
BLACK
6
CONTINUOUS
10
144.227
20
-52.1637
11
144.239
21
-52.1651
0
LINE
8
BLACK
6
CONTINUOUS
10
144.239
20
-52.1651
11
144.251
21
-52.1687
0
LINE
8
BLACK
6
CONTINUOUS
10
144.251
20
-52.1687
11
144.261
21
-52.1746
0
LINE
8
BLACK
6
CONTINUOUS
10
144.261
20
-52.1746
11
144.271
21
-52.1825
0
LINE
8
BLACK
6
CONTINUOUS
10
144.271
20
-52.1825
11
144.278
21
-52.192
0
LINE
8
BLACK
6
CONTINUOUS
10
144.278
20
-52.192
11
144.284
21
-52.2028
0
LINE
8
BLACK
6
CONTINUOUS
10
144.284
20
-52.2028
11
144.288
21
-52.2145
0
LINE
8
BLACK
6
CONTINUOUS
10
144.288
20
-52.2145
11
144.289
21
-52.2266
0
LINE
8
BLACK
6
CONTINUOUS
10
144.289
20
-52.2266
11
144.287
21
-52.2388
0
LINE
8
BLACK
6
CONTINUOUS
10
144.287
20
-52.2388
11
144.284
21
-52.2504
0
LINE
8
BLACK
6
CONTINUOUS
10
144.284
20
-52.2504
11
144.278
21
-52.2611
0
LINE
8
BLACK
6
CONTINUOUS
10
144.278
20
-52.2611
11
144.27
21
-52.2705
0
LINE
8
BLACK
6
CONTINUOUS
10
144.27
20
-52.2705
11
144.261
21
-52.2782
0
LINE
8
BLACK
6
CONTINUOUS
10
144.261
20
-52.2782
11
144.25
21
-52.284
0
LINE
8
BLACK
6
CONTINUOUS
10
144.25
20
-52.284
11
144.238
21
-52.2875
0
LINE
8
BLACK
6
CONTINUOUS
10
144.238
20
-52.2875
11
144.226
21
-52.2887
0
LINE
8
BLACK
6
CONTINUOUS
10
144.226
20
-52.2887
11
143.988
21
-52.2887
0
LINE
8
BLACK
6
CONTINUOUS
10
143.988
20
-52.2887
11
143.988
21
-52.2887
0
LINE
8
BLACK
6
CONTINUOUS
10
143.988
20
-52.2887
11
143.988
21
-52.2887
0
LINE
8
BLACK
6
CONTINUOUS
10
143.988
20
-52.2887
11
143.988
21
-52.2887
0
LINE
8
BLACK
6
CONTINUOUS
10
143.988
20
-52.2887
11
143.987
21
-52.2887
0
LINE
8
BLACK
6
CONTINUOUS
10
143.987
20
-52.2887
11
143.981
21
-52.288
0
LINE
8
BLACK
6
CONTINUOUS
10
143.981
20
-52.288
11
143.976
21
-52.2874
0
LINE
8
BLACK
6
CONTINUOUS
10
143.976
20
-52.2874
11
143.975
21
-52.2873
0
LINE
8
BLACK
6
CONTINUOUS
10
143.975
20
-52.2873
11
143.975
21
-52.2873
0
LINE
8
BLACK
6
CONTINUOUS
10
143.975
20
-52.2873
11
143.969
21
-52.2855
0
LINE
8
BLACK
6
CONTINUOUS
10
143.969
20
-52.2855
11
143.964
21
-52.2838
0
LINE
8
BLACK
6
CONTINUOUS
10
143.964
20
-52.2838
11
143.964
21
-52.2837
0
LINE
8
BLACK
6
CONTINUOUS
10
143.964
20
-52.2837
11
143.963
21
-52.2836
0
LINE
8
BLACK
6
CONTINUOUS
10
143.963
20
-52.2836
11
143.958
21
-52.2808
0
LINE
8
BLACK
6
CONTINUOUS
10
143.958
20
-52.2808
11
143.953
21
-52.278
0
LINE
8
BLACK
6
CONTINUOUS
10
143.953
20
-52.278
11
143.953
21
-52.2779
0
LINE
8
BLACK
6
CONTINUOUS
10
143.953
20
-52.2779
11
143.953
21
-52.2778
0
LINE
8
BLACK
6
CONTINUOUS
10
143.953
20
-52.2778
11
143.948
21
-52.274
0
LINE
8
BLACK
6
CONTINUOUS
10
143.948
20
-52.274
11
143.944
21
-52.2702
0
LINE
8
BLACK
6
CONTINUOUS
10
143.944
20
-52.2702
11
143.944
21
-52.2701
0
LINE
8
BLACK
6
CONTINUOUS
10
143.944
20
-52.2701
11
143.943
21
-52.2699
0
LINE
8
BLACK
6
CONTINUOUS
10
143.943
20
-52.2699
11
143.94
21
-52.2653
0
LINE
8
BLACK
6
CONTINUOUS
10
143.94
20
-52.2653
11
143.936
21
-52.2608
0
LINE
8
BLACK
6
CONTINUOUS
10
143.936
20
-52.2608
11
143.936
21
-52.2606
0
LINE
8
BLACK
6
CONTINUOUS
10
143.936
20
-52.2606
11
143.936
21
-52.2604
0
LINE
8
BLACK
6
CONTINUOUS
10
143.936
20
-52.2604
11
143.933
21
-52.2552
0
LINE
8
BLACK
6
CONTINUOUS
10
143.933
20
-52.2552
11
143.93
21
-52.25
0
LINE
8
BLACK
6
CONTINUOUS
10
143.93
20
-52.25
11
143.93
21
-52.2498
0
LINE
8
BLACK
6
CONTINUOUS
10
143.93
20
-52.2498
11
143.93
21
-52.2496
0
LINE
8
BLACK
6
CONTINUOUS
10
143.93
20
-52.2496
11
143.928
21
-52.244
0
LINE
8
BLACK
6
CONTINUOUS
10
143.928
20
-52.244
11
143.927
21
-52.2383
0
LINE
8
BLACK
6
CONTINUOUS
10
143.927
20
-52.2383
11
143.927
21
-52.2381
0
LINE
8
BLACK
6
CONTINUOUS
10
143.927
20
-52.2381
11
143.927
21
-52.2379
0
LINE
8
BLACK
6
CONTINUOUS
10
143.927
20
-52.2379
11
143.926
21
-52.2321
0
LINE
8
BLACK
6
CONTINUOUS
10
143.926
20
-52.2321
11
143.926
21
-52.2262
0
LINE
8
BLACK
6
CONTINUOUS
10
143.926
20
-52.2262
11
143.926
21
-51.7262
0
LINE
8
BLACK
6
CONTINUOUS
10
143.926
20
-51.7262
11
143.926
21
-51.7258
0
LINE
8
BLACK
6
CONTINUOUS
10
143.926
20
-51.7258
11
143.926
21
-51.7258
0
LINE
8
BLACK
6
CONTINUOUS
10
143.926
20
-51.7258
11
143.926
21
-51.7257
0
LINE
8
BLACK
6
CONTINUOUS
10
143.926
20
-51.7257
11
143.926
21
-51.7253
0
LINE
8
BLACK
6
CONTINUOUS
10
143.926
20
-51.7253
11
143.926
21
-51.7194
0
LINE
8
BLACK
6
CONTINUOUS
10
143.926
20
-51.7194
11
143.927
21
-51.7136
0
LINE
8
BLACK
6
CONTINUOUS
10
143.927
20
-51.7136
11
143.927
21
-51.7134
0
LINE
8
BLACK
6
CONTINUOUS
10
143.927
20
-51.7134
11
143.927
21
-51.7132
0
LINE
8
BLACK
6
CONTINUOUS
10
143.927
20
-51.7132
11
143.929
21
-51.7076
0
LINE
8
BLACK
6
CONTINUOUS
10
143.929
20
-51.7076
11
143.93
21
-51.702
0
LINE
8
BLACK
6
CONTINUOUS
10
143.93
20
-51.702
11
143.931
21
-51.7018
0
LINE
8
BLACK
6
CONTINUOUS
10
143.931
20
-51.7018
11
143.931
21
-51.7016
0
LINE
8
BLACK
6
CONTINUOUS
10
143.931
20
-51.7016
11
143.933
21
-51.6964
0
LINE
8
BLACK
6
CONTINUOUS
10
143.933
20
-51.6964
11
143.936
21
-51.6912
0
LINE
8
BLACK
6
CONTINUOUS
10
143.936
20
-51.6912
11
143.936
21
-51.6911
0
LINE
8
BLACK
6
CONTINUOUS
10
143.936
20
-51.6911
11
143.937
21
-51.6909
0
LINE
8
BLACK
6
CONTINUOUS
10
143.937
20
-51.6909
11
143.94
21
-51.6864
0
LINE
8
BLACK
6
CONTINUOUS
10
143.94
20
-51.6864
11
143.944
21
-51.6818
0
LINE
8
BLACK
6
CONTINUOUS
10
143.944
20
-51.6818
11
143.944
21
-51.6817
0
LINE
8
BLACK
6
CONTINUOUS
10
143.944
20
-51.6817
11
143.944
21
-51.6815
0
LINE
8
BLACK
6
CONTINUOUS
10
143.944
20
-51.6815
11
143.949
21
-51.6778
0
LINE
8
BLACK
6
CONTINUOUS
10
143.949
20
-51.6778
11
143.954
21
-51.6741
0
LINE
8
BLACK
6
CONTINUOUS
10
143.954
20
-51.6741
11
143.954
21
-51.674
0
LINE
8
BLACK
6
CONTINUOUS
10
143.954
20
-51.674
11
143.954
21
-51.6739
0
LINE
8
BLACK
6
CONTINUOUS
10
143.954
20
-51.6739
11
143.959
21
-51.6712
0
LINE
8
BLACK
6
CONTINUOUS
10
143.959
20
-51.6712
11
143.964
21
-51.6684
0
LINE
8
BLACK
6
CONTINUOUS
10
143.964
20
-51.6684
11
143.964
21
-51.6683
0
LINE
8
BLACK
6
CONTINUOUS
10
143.964
20
-51.6683
11
143.965
21
-51.6682
0
LINE
8
BLACK
6
CONTINUOUS
10
143.965
20
-51.6682
11
143.97
21
-51.6666
0
LINE
8
BLACK
6
CONTINUOUS
10
143.97
20
-51.6666
11
143.976
21
-51.6649
0
LINE
8
BLACK
6
CONTINUOUS
10
143.976
20
-51.6649
11
143.976
21
-51.6649
0
LINE
8
BLACK
6
CONTINUOUS
10
143.976
20
-51.6649
11
143.976
21
-51.6648
0
LINE
8
BLACK
6
CONTINUOUS
10
143.976
20
-51.6648
11
143.982
21
-51.6643
0
LINE
8
BLACK
6
CONTINUOUS
10
143.982
20
-51.6643
11
143.988
21
-51.6637
0
LINE
8
BLACK
6
CONTINUOUS
10
143.988
20
-51.6637
11
144.226
21
-51.6637
0
LINE
8
BLACK
6
CONTINUOUS
10
144.226
20
-51.6637
11
144.227
21
-51.6637
0
LINE
8
BLACK
6
CONTINUOUS
10
144.632
20
-51.6637
11
144.635
21
-51.6641
0
LINE
8
BLACK
6
CONTINUOUS
10
144.635
20
-51.6641
11
144.639
21
-51.6642
0
LINE
8
BLACK
6
CONTINUOUS
10
144.639
20
-51.6642
11
144.641
21
-51.6648
0
LINE
8
BLACK
6
CONTINUOUS
10
144.641
20
-51.6648
11
144.644
21
-51.6651
0
LINE
8
BLACK
6
CONTINUOUS
10
144.644
20
-51.6651
11
144.647
21
-51.6661
0
LINE
8
BLACK
6
CONTINUOUS
10
144.647
20
-51.6661
11
144.651
21
-51.6669
0
LINE
8
BLACK
6
CONTINUOUS
10
144.651
20
-51.6669
11
144.722
21
-51.6907
0
LINE
8
BLACK
6
CONTINUOUS
10
144.722
20
-51.6907
11
144.723
21
-51.691
0
LINE
8
BLACK
6
CONTINUOUS
10
144.723
20
-51.691
11
144.734
21
-51.6961
0
LINE
8
BLACK
6
CONTINUOUS
10
144.734
20
-51.6961
11
144.744
21
-51.7033
0
LINE
8
BLACK
6
CONTINUOUS
10
144.744
20
-51.7033
11
144.752
21
-51.7122
0
LINE
8
BLACK
6
CONTINUOUS
10
144.752
20
-51.7122
11
144.759
21
-51.7226
0
LINE
8
BLACK
6
CONTINUOUS
10
144.759
20
-51.7226
11
144.763
21
-51.7341
0
LINE
8
BLACK
6
CONTINUOUS
10
144.763
20
-51.7341
11
144.765
21
-51.7461
0
LINE
8
BLACK
6
CONTINUOUS
10
144.765
20
-51.7461
11
144.764
21
-51.7583
0
LINE
8
BLACK
6
CONTINUOUS
10
144.764
20
-51.7583
11
144.762
21
-51.7702
0
LINE
8
BLACK
6
CONTINUOUS
10
144.762
20
-51.7702
11
144.756
21
-51.7813
0
LINE
8
BLACK
6
CONTINUOUS
10
144.756
20
-51.7813
11
144.749
21
-51.7912
0
LINE
8
BLACK
6
CONTINUOUS
10
144.749
20
-51.7912
11
144.74
21
-51.7995
0
LINE
8
BLACK
6
CONTINUOUS
10
144.74
20
-51.7995
11
144.73
21
-51.806
0
LINE
8
BLACK
6
CONTINUOUS
10
144.73
20
-51.806
11
144.719
21
-51.8103
0
LINE
8
BLACK
6
CONTINUOUS
10
144.719
20
-51.8103
11
144.707
21
-51.8123
0
LINE
8
BLACK
6
CONTINUOUS
10
144.707
20
-51.8123
11
144.695
21
-51.812
0
LINE
8
BLACK
6
CONTINUOUS
10
144.695
20
-51.812
11
144.683
21
-51.8093
0
LINE
8
BLACK
6
CONTINUOUS
10
144.683
20
-51.8093
11
144.621
21
-51.7887
0
LINE
8
BLACK
6
CONTINUOUS
10
144.621
20
-51.7887
11
144.527
21
-51.7887
0
LINE
8
BLACK
6
CONTINUOUS
10
144.527
20
-51.7887
11
144.501
21
-51.8014
0
LINE
8
BLACK
6
CONTINUOUS
10
144.501
20
-51.8014
11
144.492
21
-51.8108
0
LINE
8
BLACK
6
CONTINUOUS
10
144.492
20
-51.8108
11
144.479
21
-51.8362
0
LINE
8
BLACK
6
CONTINUOUS
10
144.479
20
-51.8362
11
144.479
21
-51.8543
0
LINE
8
BLACK
6
CONTINUOUS
10
144.479
20
-51.8543
11
144.492
21
-51.8796
0
LINE
8
BLACK
6
CONTINUOUS
10
144.492
20
-51.8796
11
144.501
21
-51.8891
0
LINE
8
BLACK
6
CONTINUOUS
10
144.501
20
-51.8891
11
144.534
21
-51.9053
0
LINE
8
BLACK
6
CONTINUOUS
10
144.534
20
-51.9053
11
144.622
21
-51.9275
0
LINE
8
BLACK
6
CONTINUOUS
10
144.622
20
-51.9275
11
144.623
21
-51.9277
0
LINE
8
BLACK
6
CONTINUOUS
10
144.623
20
-51.9277
11
144.623
21
-51.9278
0
LINE
8
BLACK
6
CONTINUOUS
10
144.623
20
-51.9278
11
144.624
21
-51.9278
0
LINE
8
BLACK
6
CONTINUOUS
10
144.624
20
-51.9278
11
144.629
21
-51.9299
0
LINE
8
BLACK
6
CONTINUOUS
10
144.629
20
-51.9299
11
144.635
21
-51.9319
0
LINE
8
BLACK
6
CONTINUOUS
10
144.635
20
-51.9319
11
144.635
21
-51.9321
0
LINE
8
BLACK
6
CONTINUOUS
10
144.635
20
-51.9321
11
144.635
21
-51.9322
0
LINE
8
BLACK
6
CONTINUOUS
10
144.635
20
-51.9322
11
144.683
21
-51.956
0
LINE
8
BLACK
6
CONTINUOUS
10
144.683
20
-51.956
11
144.683
21
-51.9564
0
LINE
8
BLACK
6
CONTINUOUS
10
144.683
20
-51.9564
11
144.686
21
-51.9583
0
LINE
8
BLACK
6
CONTINUOUS
10
144.686
20
-51.9583
11
144.69
21
-51.96
0
LINE
8
BLACK
6
CONTINUOUS
10
144.69
20
-51.96
11
144.692
21
-51.9616
0
LINE
8
BLACK
6
CONTINUOUS
10
144.692
20
-51.9616
11
144.694
21
-51.963
0
LINE
8
BLACK
6
CONTINUOUS
10
144.694
20
-51.963
11
144.696
21
-51.9655
0
LINE
8
BLACK
6
CONTINUOUS
10
144.696
20
-51.9655
11
144.699
21
-51.9677
0
LINE
8
BLACK
6
CONTINUOUS
10
144.699
20
-51.9677
11
144.723
21
-51.9915
0
LINE
8
BLACK
6
CONTINUOUS
10
144.723
20
-51.9915
11
144.723
21
-51.9921
0
LINE
8
BLACK
6
CONTINUOUS
10
144.723
20
-51.9921
11
144.726
21
-51.9949
0
LINE
8
BLACK
6
CONTINUOUS
10
144.726
20
-51.9949
11
144.728
21
-51.9974
0
LINE
8
BLACK
6
CONTINUOUS
10
144.728
20
-51.9974
11
144.729
21
-51.9996
0
LINE
8
BLACK
6
CONTINUOUS
10
144.729
20
-51.9996
11
144.731
21
-52.0017
0
LINE
8
BLACK
6
CONTINUOUS
10
144.731
20
-52.0017
11
144.733
21
-52.0048
0
LINE
8
BLACK
6
CONTINUOUS
10
144.733
20
-52.0048
11
144.734
21
-52.0078
0
LINE
8
BLACK
6
CONTINUOUS
10
144.734
20
-52.0078
11
144.758
21
-52.0554
0
LINE
8
BLACK
6
CONTINUOUS
10
144.758
20
-52.0554
11
144.759
21
-52.0562
0
LINE
8
BLACK
6
CONTINUOUS
10
144.759
20
-52.0562
11
144.759
21
-52.0579
0
LINE
8
BLACK
6
CONTINUOUS
10
144.759
20
-52.0579
11
144.76
21
-52.0595
0
LINE
8
BLACK
6
CONTINUOUS
10
144.76
20
-52.0595
11
144.761
21
-52.0636
0
LINE
8
BLACK
6
CONTINUOUS
10
144.761
20
-52.0636
11
144.763
21
-52.0676
0
LINE
8
BLACK
6
CONTINUOUS
10
144.763
20
-52.0676
11
144.763
21
-52.0694
0
LINE
8
BLACK
6
CONTINUOUS
10
144.763
20
-52.0694
11
144.764
21
-52.0712
0
LINE
8
BLACK
6
CONTINUOUS
10
144.764
20
-52.0712
11
144.764
21
-52.0755
0
LINE
8
BLACK
6
CONTINUOUS
10
144.764
20
-52.0755
11
144.765
21
-52.0797
0
LINE
8
BLACK
6
CONTINUOUS
10
144.765
20
-52.0797
11
144.765
21
-52.0815
0
LINE
8
BLACK
6
CONTINUOUS
10
144.765
20
-52.0815
11
144.765
21
-52.0833
0
LINE
8
BLACK
6
CONTINUOUS
10
144.765
20
-52.0833
11
144.765
21
-52.131
0
LINE
8
BLACK
6
CONTINUOUS
10
144.765
20
-52.131
11
144.765
21
-52.1318
0
LINE
8
BLACK
6
CONTINUOUS
10
144.765
20
-52.1318
11
144.765
21
-52.1337
0
LINE
8
BLACK
6
CONTINUOUS
10
144.765
20
-52.1337
11
144.765
21
-52.1355
0
LINE
8
BLACK
6
CONTINUOUS
10
144.765
20
-52.1355
11
144.764
21
-52.1397
0
LINE
8
BLACK
6
CONTINUOUS
10
144.764
20
-52.1397
11
144.764
21
-52.1439
0
LINE
8
BLACK
6
CONTINUOUS
10
144.764
20
-52.1439
11
144.763
21
-52.1457
0
LINE
8
BLACK
6
CONTINUOUS
10
144.763
20
-52.1457
11
144.763
21
-52.1475
0
LINE
8
BLACK
6
CONTINUOUS
10
144.763
20
-52.1475
11
144.761
21
-52.1515
0
LINE
8
BLACK
6
CONTINUOUS
10
144.761
20
-52.1515
11
144.76
21
-52.1556
0
LINE
8
BLACK
6
CONTINUOUS
10
144.76
20
-52.1556
11
144.759
21
-52.1572
0
LINE
8
BLACK
6
CONTINUOUS
10
144.759
20
-52.1572
11
144.758
21
-52.1589
0
LINE
8
BLACK
6
CONTINUOUS
10
144.758
20
-52.1589
11
144.734
21
-52.2065
0
LINE
8
BLACK
6
CONTINUOUS
10
144.734
20
-52.2065
11
144.734
21
-52.2073
0
LINE
8
BLACK
6
CONTINUOUS
10
144.734
20
-52.2073
11
144.732
21
-52.2102
0
LINE
8
BLACK
6
CONTINUOUS
10
144.732
20
-52.2102
11
144.731
21
-52.2133
0
LINE
8
BLACK
6
CONTINUOUS
10
144.731
20
-52.2133
11
144.729
21
-52.2154
0
LINE
8
BLACK
6
CONTINUOUS
10
144.729
20
-52.2154
11
144.727
21
-52.2175
0
LINE
8
BLACK
6
CONTINUOUS
10
144.727
20
-52.2175
11
144.725
21
-52.2201
0
LINE
8
BLACK
6
CONTINUOUS
10
144.725
20
-52.2201
11
144.723
21
-52.2228
0
LINE
8
BLACK
6
CONTINUOUS
10
144.723
20
-52.2228
11
144.699
21
-52.2466
0
LINE
8
BLACK
6
CONTINUOUS
10
144.699
20
-52.2466
11
144.698
21
-52.2472
0
LINE
8
BLACK
6
CONTINUOUS
10
144.698
20
-52.2472
11
144.696
21
-52.2494
0
LINE
8
BLACK
6
CONTINUOUS
10
144.696
20
-52.2494
11
144.693
21
-52.2518
0
LINE
8
BLACK
6
CONTINUOUS
10
144.693
20
-52.2518
11
144.691
21
-52.2532
0
LINE
8
BLACK
6
CONTINUOUS
10
144.691
20
-52.2532
11
144.689
21
-52.2548
0
LINE
8
BLACK
6
CONTINUOUS
10
144.689
20
-52.2548
11
144.686
21
-52.2564
0
LINE
8
BLACK
6
CONTINUOUS
10
144.686
20
-52.2564
11
144.683
21
-52.2583
0
LINE
8
BLACK
6
CONTINUOUS
10
144.683
20
-52.2583
11
144.635
21
-52.2821
0
LINE
8
BLACK
6
CONTINUOUS
10
144.635
20
-52.2821
11
144.634
21
-52.2825
0
LINE
8
BLACK
6
CONTINUOUS
10
144.634
20
-52.2825
11
144.633
21
-52.2831
0
LINE
8
BLACK
6
CONTINUOUS
10
144.633
20
-52.2831
11
144.631
21
-52.284
0
LINE
8
BLACK
6
CONTINUOUS
10
144.631
20
-52.284
11
144.627
21
-52.2852
0
LINE
8
BLACK
6
CONTINUOUS
10
144.627
20
-52.2852
11
144.623
21
-52.2867
0
LINE
8
BLACK
6
CONTINUOUS
10
144.623
20
-52.2867
11
144.621
21
-52.287
0
LINE
8
BLACK
6
CONTINUOUS
10
144.621
20
-52.287
11
144.619
21
-52.2875
0
LINE
8
BLACK
6
CONTINUOUS
10
144.619
20
-52.2875
11
144.615
21
-52.2879
0
LINE
8
BLACK
6
CONTINUOUS
10
144.615
20
-52.2879
11
144.611
21
-52.2886
0
LINE
8
BLACK
6
CONTINUOUS
10
144.611
20
-52.2886
11
144.609
21
-52.2885
0
LINE
8
BLACK
6
CONTINUOUS
10
144.609
20
-52.2885
11
144.607
21
-52.2887
0
LINE
8
BLACK
6
CONTINUOUS
10
144.607
20
-52.2887
11
144.488
21
-52.2887
0
LINE
8
BLACK
6
CONTINUOUS
10
144.488
20
-52.2887
11
144.487
21
-52.2887
0
LINE
8
BLACK
6
CONTINUOUS
10
144.487
20
-52.2887
11
144.484
21
-52.2883
0
LINE
8
BLACK
6
CONTINUOUS
10
144.484
20
-52.2883
11
144.48
21
-52.2882
0
LINE
8
BLACK
6
CONTINUOUS
10
144.48
20
-52.2882
11
144.478
21
-52.2876
0
LINE
8
BLACK
6
CONTINUOUS
10
144.478
20
-52.2876
11
144.475
21
-52.2873
0
LINE
8
BLACK
6
CONTINUOUS
10
144.475
20
-52.2873
11
144.472
21
-52.2863
0
LINE
8
BLACK
6
CONTINUOUS
10
144.472
20
-52.2863
11
144.468
21
-52.2855
0
LINE
8
BLACK
6
CONTINUOUS
10
144.468
20
-52.2855
11
144.397
21
-52.2617
0
LINE
8
BLACK
6
CONTINUOUS
10
144.397
20
-52.2617
11
144.396
21
-52.2614
0
LINE
8
BLACK
6
CONTINUOUS
10
144.396
20
-52.2614
11
144.385
21
-52.2563
0
LINE
8
BLACK
6
CONTINUOUS
10
144.385
20
-52.2563
11
144.375
21
-52.2491
0
LINE
8
BLACK
6
CONTINUOUS
10
144.375
20
-52.2491
11
144.367
21
-52.2401
0
LINE
8
BLACK
6
CONTINUOUS
10
144.367
20
-52.2401
11
144.36
21
-52.2297
0
LINE
8
BLACK
6
CONTINUOUS
10
144.36
20
-52.2297
11
144.356
21
-52.2183
0
LINE
8
BLACK
6
CONTINUOUS
10
144.356
20
-52.2183
11
144.354
21
-52.2063
0
LINE
8
BLACK
6
CONTINUOUS
10
144.354
20
-52.2063
11
144.355
21
-52.1941
0
LINE
8
BLACK
6
CONTINUOUS
10
144.355
20
-52.1941
11
144.358
21
-52.1822
0
LINE
8
BLACK
6
CONTINUOUS
10
144.358
20
-52.1822
11
144.363
21
-52.1711
0
LINE
8
BLACK
6
CONTINUOUS
10
144.363
20
-52.1711
11
144.37
21
-52.1612
0
LINE
8
BLACK
6
CONTINUOUS
10
144.37
20
-52.1612
11
144.379
21
-52.1528
0
LINE
8
BLACK
6
CONTINUOUS
10
144.379
20
-52.1528
11
144.389
21
-52.1464
0
LINE
8
BLACK
6
CONTINUOUS
10
144.389
20
-52.1464
11
144.4
21
-52.1421
0
LINE
8
BLACK
6
CONTINUOUS
10
144.4
20
-52.1421
11
144.412
21
-52.14
0
LINE
8
BLACK
6
CONTINUOUS
10
144.412
20
-52.14
11
144.425
21
-52.1404
0
LINE
8
BLACK
6
CONTINUOUS
10
144.425
20
-52.1404
11
144.436
21
-52.1431
0
LINE
8
BLACK
6
CONTINUOUS
10
144.436
20
-52.1431
11
144.498
21
-52.1637
0
LINE
8
BLACK
6
CONTINUOUS
10
144.498
20
-52.1637
11
144.592
21
-52.1637
0
LINE
8
BLACK
6
CONTINUOUS
10
144.592
20
-52.1637
11
144.618
21
-52.151
0
LINE
8
BLACK
6
CONTINUOUS
10
144.618
20
-52.151
11
144.627
21
-52.1415
0
LINE
8
BLACK
6
CONTINUOUS
10
144.627
20
-52.1415
11
144.64
21
-52.1162
0
LINE
8
BLACK
6
CONTINUOUS
10
144.64
20
-52.1162
11
144.64
21
-52.0981
0
LINE
8
BLACK
6
CONTINUOUS
10
144.64
20
-52.0981
11
144.627
21
-52.0727
0
LINE
8
BLACK
6
CONTINUOUS
10
144.627
20
-52.0727
11
144.618
21
-52.0633
0
LINE
8
BLACK
6
CONTINUOUS
10
144.618
20
-52.0633
11
144.585
21
-52.0471
0
LINE
8
BLACK
6
CONTINUOUS
10
144.585
20
-52.0471
11
144.497
21
-52.0249
0
LINE
8
BLACK
6
CONTINUOUS
10
144.497
20
-52.0249
11
144.496
21
-52.0247
0
LINE
8
BLACK
6
CONTINUOUS
10
144.496
20
-52.0247
11
144.496
21
-52.0246
0
LINE
8
BLACK
6
CONTINUOUS
10
144.496
20
-52.0246
11
144.495
21
-52.0246
0
LINE
8
BLACK
6
CONTINUOUS
10
144.495
20
-52.0246
11
144.49
21
-52.0225
0
LINE
8
BLACK
6
CONTINUOUS
10
144.49
20
-52.0225
11
144.484
21
-52.0204
0
LINE
8
BLACK
6
CONTINUOUS
10
144.484
20
-52.0204
11
144.484
21
-52.0203
0
LINE
8
BLACK
6
CONTINUOUS
10
144.484
20
-52.0203
11
144.484
21
-52.0202
0
LINE
8
BLACK
6
CONTINUOUS
10
144.484
20
-52.0202
11
144.436
21
-51.9964
0
LINE
8
BLACK
6
CONTINUOUS
10
144.436
20
-51.9964
11
144.436
21
-51.996
0
LINE
8
BLACK
6
CONTINUOUS
10
144.436
20
-51.996
11
144.433
21
-51.9941
0
LINE
8
BLACK
6
CONTINUOUS
10
144.433
20
-51.9941
11
144.43
21
-51.9924
0
LINE
8
BLACK
6
CONTINUOUS
10
144.43
20
-51.9924
11
144.428
21
-51.9908
0
LINE
8
BLACK
6
CONTINUOUS
10
144.428
20
-51.9908
11
144.425
21
-51.9893
0
LINE
8
BLACK
6
CONTINUOUS
10
144.425
20
-51.9893
11
144.423
21
-51.9869
0
LINE
8
BLACK
6
CONTINUOUS
10
144.423
20
-51.9869
11
144.42
21
-51.9847
0
LINE
8
BLACK
6
CONTINUOUS
10
144.42
20
-51.9847
11
144.396
21
-51.9609
0
LINE
8
BLACK
6
CONTINUOUS
10
144.396
20
-51.9609
11
144.396
21
-51.9602
0
LINE
8
BLACK
6
CONTINUOUS
10
144.396
20
-51.9602
11
144.393
21
-51.9575
0
LINE
8
BLACK
6
CONTINUOUS
10
144.393
20
-51.9575
11
144.391
21
-51.9549
0
LINE
8
BLACK
6
CONTINUOUS
10
144.391
20
-51.9549
11
144.39
21
-51.9527
0
LINE
8
BLACK
6
CONTINUOUS
10
144.39
20
-51.9527
11
144.388
21
-51.9507
0
LINE
8
BLACK
6
CONTINUOUS
10
144.388
20
-51.9507
11
144.386
21
-51.9476
0
LINE
8
BLACK
6
CONTINUOUS
10
144.386
20
-51.9476
11
144.385
21
-51.9446
0
LINE
8
BLACK
6
CONTINUOUS
10
144.385
20
-51.9446
11
144.361
21
-51.897
0
LINE
8
BLACK
6
CONTINUOUS
10
144.361
20
-51.897
11
144.36
21
-51.8962
0
LINE
8
BLACK
6
CONTINUOUS
10
144.36
20
-51.8962
11
144.36
21
-51.8945
0
LINE
8
BLACK
6
CONTINUOUS
10
144.36
20
-51.8945
11
144.359
21
-51.8929
0
LINE
8
BLACK
6
CONTINUOUS
10
144.359
20
-51.8929
11
144.358
21
-51.8888
0
LINE
8
BLACK
6
CONTINUOUS
10
144.358
20
-51.8888
11
144.356
21
-51.8848
0
LINE
8
BLACK
6
CONTINUOUS
10
144.356
20
-51.8848
11
144.356
21
-51.883
0
LINE
8
BLACK
6
CONTINUOUS
10
144.356
20
-51.883
11
144.355
21
-51.8812
0
LINE
8
BLACK
6
CONTINUOUS
10
144.355
20
-51.8812
11
144.355
21
-51.8769
0
LINE
8
BLACK
6
CONTINUOUS
10
144.355
20
-51.8769
11
144.354
21
-51.8727
0
LINE
8
BLACK
6
CONTINUOUS
10
144.354
20
-51.8727
11
144.354
21
-51.8709
0
LINE
8
BLACK
6
CONTINUOUS
10
144.354
20
-51.8709
11
144.354
21
-51.869
0
LINE
8
BLACK
6
CONTINUOUS
10
144.354
20
-51.869
11
144.354
21
-51.8214
0
LINE
8
BLACK
6
CONTINUOUS
10
144.354
20
-51.8214
11
144.354
21
-51.8206
0
LINE
8
BLACK
6
CONTINUOUS
10
144.354
20
-51.8206
11
144.354
21
-51.8187
0
LINE
8
BLACK
6
CONTINUOUS
10
144.354
20
-51.8187
11
144.354
21
-51.8169
0
LINE
8
BLACK
6
CONTINUOUS
10
144.354
20
-51.8169
11
144.355
21
-51.8127
0
LINE
8
BLACK
6
CONTINUOUS
10
144.355
20
-51.8127
11
144.356
21
-51.8084
0
LINE
8
BLACK
6
CONTINUOUS
10
144.356
20
-51.8084
11
144.356
21
-51.8067
0
LINE
8
BLACK
6
CONTINUOUS
10
144.356
20
-51.8067
11
144.356
21
-51.8049
0
LINE
8
BLACK
6
CONTINUOUS
10
144.356
20
-51.8049
11
144.358
21
-51.8009
0
LINE
8
BLACK
6
CONTINUOUS
10
144.358
20
-51.8009
11
144.359
21
-51.7968
0
LINE
8
BLACK
6
CONTINUOUS
10
144.359
20
-51.7968
11
144.36
21
-51.7952
0
LINE
8
BLACK
6
CONTINUOUS
10
144.36
20
-51.7952
11
144.361
21
-51.7935
0
LINE
8
BLACK
6
CONTINUOUS
10
144.361
20
-51.7935
11
144.385
21
-51.7459
0
LINE
8
BLACK
6
CONTINUOUS
10
144.385
20
-51.7459
11
144.385
21
-51.7451
0
LINE
8
BLACK
6
CONTINUOUS
10
144.385
20
-51.7451
11
144.387
21
-51.7421
0
LINE
8
BLACK
6
CONTINUOUS
10
144.387
20
-51.7421
11
144.389
21
-51.739
0
LINE
8
BLACK
6
CONTINUOUS
10
144.389
20
-51.739
11
144.39
21
-51.737
0
LINE
8
BLACK
6
CONTINUOUS
10
144.39
20
-51.737
11
144.392
21
-51.7348
0
LINE
8
BLACK
6
CONTINUOUS
10
144.392
20
-51.7348
11
144.394
21
-51.7323
0
LINE
8
BLACK
6
CONTINUOUS
10
144.394
20
-51.7323
11
144.396
21
-51.7296
0
LINE
8
BLACK
6
CONTINUOUS
10
144.396
20
-51.7296
11
144.42
21
-51.7058
0
LINE
8
BLACK
6
CONTINUOUS
10
144.42
20
-51.7058
11
144.421
21
-51.7052
0
LINE
8
BLACK
6
CONTINUOUS
10
144.421
20
-51.7052
11
144.423
21
-51.703
0
LINE
8
BLACK
6
CONTINUOUS
10
144.423
20
-51.703
11
144.426
21
-51.7006
0
LINE
8
BLACK
6
CONTINUOUS
10
144.426
20
-51.7006
11
144.428
21
-51.6992
0
LINE
8
BLACK
6
CONTINUOUS
10
144.428
20
-51.6992
11
144.43
21
-51.6976
0
LINE
8
BLACK
6
CONTINUOUS
10
144.43
20
-51.6976
11
144.433
21
-51.696
0
LINE
8
BLACK
6
CONTINUOUS
10
144.433
20
-51.696
11
144.436
21
-51.6941
0
LINE
8
BLACK
6
CONTINUOUS
10
144.436
20
-51.6941
11
144.484
21
-51.6703
0
LINE
8
BLACK
6
CONTINUOUS
10
144.484
20
-51.6703
11
144.485
21
-51.6699
0
LINE
8
BLACK
6
CONTINUOUS
10
144.485
20
-51.6699
11
144.486
21
-51.6693
0
LINE
8
BLACK
6
CONTINUOUS
10
144.486
20
-51.6693
11
144.488
21
-51.6684
0
LINE
8
BLACK
6
CONTINUOUS
10
144.488
20
-51.6684
11
144.492
21
-51.6672
0
LINE
8
BLACK
6
CONTINUOUS
10
144.492
20
-51.6672
11
144.496
21
-51.6657
0
LINE
8
BLACK
6
CONTINUOUS
10
144.496
20
-51.6657
11
144.498
21
-51.6654
0
LINE
8
BLACK
6
CONTINUOUS
10
144.498
20
-51.6654
11
144.5
21
-51.6649
0
LINE
8
BLACK
6
CONTINUOUS
10
144.5
20
-51.6649
11
144.504
21
-51.6645
0
LINE
8
BLACK
6
CONTINUOUS
10
144.504
20
-51.6645
11
144.508
21
-51.6638
0
LINE
8
BLACK
6
CONTINUOUS
10
144.508
20
-51.6638
11
144.51
21
-51.6639
0
LINE
8
BLACK
6
CONTINUOUS
10
144.51
20
-51.6639
11
144.512
21
-51.6637
0
LINE
8
BLACK
6
CONTINUOUS
10
144.512
20
-51.6637
11
144.631
21
-51.6637
0
LINE
8
BLACK
6
CONTINUOUS
10
144.631
20
-51.6637
11
144.632
21
-51.6637
0
LINE
8
BLACK
6
CONTINUOUS
10
143.679
20
-51.6637
11
143.681
21
-51.6639
0
LINE
8
BLACK
6
CONTINUOUS
10
143.681
20
-51.6639
11
143.683
21
-51.6639
0
LINE
8
BLACK
6
CONTINUOUS
10
143.683
20
-51.6639
11
143.687
21
-51.6646
0
LINE
8
BLACK
6
CONTINUOUS
10
143.687
20
-51.6646
11
143.692
21
-51.6651
0
LINE
8
BLACK
6
CONTINUOUS
10
143.692
20
-51.6651
11
143.693
21
-51.6656
0
LINE
8
BLACK
6
CONTINUOUS
10
143.693
20
-51.6656
11
143.695
21
-51.6659
0
LINE
8
BLACK
6
CONTINUOUS
10
143.695
20
-51.6659
11
143.699
21
-51.6675
0
LINE
8
BLACK
6
CONTINUOUS
10
143.699
20
-51.6675
11
143.703
21
-51.6687
0
LINE
8
BLACK
6
CONTINUOUS
10
143.703
20
-51.6687
11
143.705
21
-51.6696
0
LINE
8
BLACK
6
CONTINUOUS
10
143.705
20
-51.6696
11
143.707
21
-51.6703
0
LINE
8
BLACK
6
CONTINUOUS
10
143.707
20
-51.6703
11
143.754
21
-51.6941
0
LINE
8
BLACK
6
CONTINUOUS
10
143.754
20
-51.6941
11
143.755
21
-51.6945
0
LINE
8
BLACK
6
CONTINUOUS
10
143.755
20
-51.6945
11
143.758
21
-51.6964
0
LINE
8
BLACK
6
CONTINUOUS
10
143.758
20
-51.6964
11
143.761
21
-51.6981
0
LINE
8
BLACK
6
CONTINUOUS
10
143.761
20
-51.6981
11
143.763
21
-51.6997
0
LINE
8
BLACK
6
CONTINUOUS
10
143.763
20
-51.6997
11
143.765
21
-51.7011
0
LINE
8
BLACK
6
CONTINUOUS
10
143.765
20
-51.7011
11
143.768
21
-51.7036
0
LINE
8
BLACK
6
CONTINUOUS
10
143.768
20
-51.7036
11
143.77
21
-51.7058
0
LINE
8
BLACK
6
CONTINUOUS
10
143.77
20
-51.7058
11
143.794
21
-51.7296
0
LINE
8
BLACK
6
CONTINUOUS
10
143.794
20
-51.7296
11
143.795
21
-51.7302
0
LINE
8
BLACK
6
CONTINUOUS
10
143.795
20
-51.7302
11
143.797
21
-51.733
0
LINE
8
BLACK
6
CONTINUOUS
10
143.797
20
-51.733
11
143.799
21
-51.7355
0
LINE
8
BLACK
6
CONTINUOUS
10
143.799
20
-51.7355
11
143.801
21
-51.7377
0
LINE
8
BLACK
6
CONTINUOUS
10
143.801
20
-51.7377
11
143.802
21
-51.7398
0
LINE
8
BLACK
6
CONTINUOUS
10
143.802
20
-51.7398
11
143.804
21
-51.7429
0
LINE
8
BLACK
6
CONTINUOUS
10
143.804
20
-51.7429
11
143.806
21
-51.7459
0
LINE
8
BLACK
6
CONTINUOUS
10
143.806
20
-51.7459
11
143.83
21
-51.7935
0
LINE
8
BLACK
6
CONTINUOUS
10
143.83
20
-51.7935
11
143.83
21
-51.7943
0
LINE
8
BLACK
6
CONTINUOUS
10
143.83
20
-51.7943
11
143.831
21
-51.796
0
LINE
8
BLACK
6
CONTINUOUS
10
143.831
20
-51.796
11
143.832
21
-51.7976
0
LINE
8
BLACK
6
CONTINUOUS
10
143.832
20
-51.7976
11
143.833
21
-51.8017
0
LINE
8
BLACK
6
CONTINUOUS
10
143.833
20
-51.8017
11
143.834
21
-51.8057
0
LINE
8
BLACK
6
CONTINUOUS
10
143.834
20
-51.8057
11
143.835
21
-51.8075
0
LINE
8
BLACK
6
CONTINUOUS
10
143.835
20
-51.8075
11
143.835
21
-51.8093
0
LINE
8
BLACK
6
CONTINUOUS
10
143.835
20
-51.8093
11
143.836
21
-51.8135
0
LINE
8
BLACK
6
CONTINUOUS
10
143.836
20
-51.8135
11
143.836
21
-51.8178
0
LINE
8
BLACK
6
CONTINUOUS
10
143.836
20
-51.8178
11
143.836
21
-51.8196
0
LINE
8
BLACK
6
CONTINUOUS
10
143.836
20
-51.8196
11
143.836
21
-51.8214
0
LINE
8
BLACK
6
CONTINUOUS
10
143.836
20
-51.8214
11
143.836
21
-51.8929
0
LINE
8
BLACK
6
CONTINUOUS
10
143.836
20
-51.8929
11
143.836
21
-51.8937
0
LINE
8
BLACK
6
CONTINUOUS
10
143.836
20
-51.8937
11
143.836
21
-51.8956
0
LINE
8
BLACK
6
CONTINUOUS
10
143.836
20
-51.8956
11
143.836
21
-51.8974
0
LINE
8
BLACK
6
CONTINUOUS
10
143.836
20
-51.8974
11
143.835
21
-51.9016
0
LINE
8
BLACK
6
CONTINUOUS
10
143.835
20
-51.9016
11
143.835
21
-51.9059
0
LINE
8
BLACK
6
CONTINUOUS
10
143.835
20
-51.9059
11
143.834
21
-51.9076
0
LINE
8
BLACK
6
CONTINUOUS
10
143.834
20
-51.9076
11
143.834
21
-51.9094
0
LINE
8
BLACK
6
CONTINUOUS
10
143.834
20
-51.9094
11
143.833
21
-51.9134
0
LINE
8
BLACK
6
CONTINUOUS
10
143.833
20
-51.9134
11
143.831
21
-51.9175
0
LINE
8
BLACK
6
CONTINUOUS
10
143.831
20
-51.9175
11
143.83
21
-51.9191
0
LINE
8
BLACK
6
CONTINUOUS
10
143.83
20
-51.9191
11
143.83
21
-51.9208
0
LINE
8
BLACK
6
CONTINUOUS
10
143.83
20
-51.9208
11
143.806
21
-51.9684
0
LINE
8
BLACK
6
CONTINUOUS
10
143.806
20
-51.9684
11
143.806
21
-51.9692
0
LINE
8
BLACK
6
CONTINUOUS
10
143.806
20
-51.9692
11
143.804
21
-51.9722
0
LINE
8
BLACK
6
CONTINUOUS
10
143.804
20
-51.9722
11
143.802
21
-51.9752
0
LINE
8
BLACK
6
CONTINUOUS
10
143.802
20
-51.9752
11
143.8
21
-51.9773
0
LINE
8
BLACK
6
CONTINUOUS
10
143.8
20
-51.9773
11
143.799
21
-51.9794
0
LINE
8
BLACK
6
CONTINUOUS
10
143.799
20
-51.9794
11
143.796
21
-51.982
0
LINE
8
BLACK
6
CONTINUOUS
10
143.796
20
-51.982
11
143.794
21
-51.9847
0
LINE
8
BLACK
6
CONTINUOUS
10
143.794
20
-51.9847
11
143.77
21
-52.0085
0
LINE
8
BLACK
6
CONTINUOUS
10
143.77
20
-52.0085
11
143.77
21
-52.0091
0
LINE
8
BLACK
6
CONTINUOUS
10
143.77
20
-52.0091
11
143.767
21
-52.0113
0
LINE
8
BLACK
6
CONTINUOUS
10
143.767
20
-52.0113
11
143.764
21
-52.0137
0
LINE
8
BLACK
6
CONTINUOUS
10
143.764
20
-52.0137
11
143.762
21
-52.0151
0
LINE
8
BLACK
6
CONTINUOUS
10
143.762
20
-52.0151
11
143.76
21
-52.0167
0
LINE
8
BLACK
6
CONTINUOUS
10
143.76
20
-52.0167
11
143.757
21
-52.0183
0
LINE
8
BLACK
6
CONTINUOUS
10
143.757
20
-52.0183
11
143.754
21
-52.0202
0
LINE
8
BLACK
6
CONTINUOUS
10
143.754
20
-52.0202
11
143.718
21
-52.0381
0
LINE
8
BLACK
6
CONTINUOUS
10
143.718
20
-52.0381
11
143.825
21
-52.1903
0
LINE
8
BLACK
6
CONTINUOUS
10
143.825
20
-52.1903
11
143.826
21
-52.1911
0
LINE
8
BLACK
6
CONTINUOUS
10
143.826
20
-52.1911
11
143.831
21
-52.2018
0
LINE
8
BLACK
6
CONTINUOUS
10
143.831
20
-52.2018
11
143.835
21
-52.2134
0
LINE
8
BLACK
6
CONTINUOUS
10
143.835
20
-52.2134
11
143.836
21
-52.2255
0
LINE
8
BLACK
6
CONTINUOUS
10
143.836
20
-52.2255
11
143.835
21
-52.2377
0
LINE
8
BLACK
6
CONTINUOUS
10
143.835
20
-52.2377
11
143.832
21
-52.2494
0
LINE
8
BLACK
6
CONTINUOUS
10
143.832
20
-52.2494
11
143.826
21
-52.2602
0
LINE
8
BLACK
6
CONTINUOUS
10
143.826
20
-52.2602
11
143.819
21
-52.2698
0
LINE
8
BLACK
6
CONTINUOUS
10
143.819
20
-52.2698
11
143.809
21
-52.2776
0
LINE
8
BLACK
6
CONTINUOUS
10
143.809
20
-52.2776
11
143.799
21
-52.2836
0
LINE
8
BLACK
6
CONTINUOUS
10
143.799
20
-52.2836
11
143.787
21
-52.2873
0
LINE
8
BLACK
6
CONTINUOUS
10
143.787
20
-52.2873
11
143.775
21
-52.2887
0
LINE
8
BLACK
6
CONTINUOUS
10
143.775
20
-52.2887
11
143.763
21
-52.2877
0
LINE
8
BLACK
6
CONTINUOUS
10
143.763
20
-52.2877
11
143.751
21
-52.2844
0
LINE
8
BLACK
6
CONTINUOUS
10
143.751
20
-52.2844
11
143.74
21
-52.2788
0
LINE
8
BLACK
6
CONTINUOUS
10
143.74
20
-52.2788
11
143.731
21
-52.2713
0
LINE
8
BLACK
6
CONTINUOUS
10
143.731
20
-52.2713
11
143.723
21
-52.262
0
LINE
8
BLACK
6
CONTINUOUS
10
143.723
20
-52.262
11
143.575
21
-52.0506
0
LINE
8
BLACK
6
CONTINUOUS
10
143.575
20
-52.0506
11
143.551
21
-52.0506
0
LINE
8
BLACK
6
CONTINUOUS
10
143.551
20
-52.0506
11
143.551
21
-52.2262
0
LINE
8
BLACK
6
CONTINUOUS
10
143.551
20
-52.2262
11
143.551
21
-52.2271
0
LINE
8
BLACK
6
CONTINUOUS
10
143.551
20
-52.2271
11
143.549
21
-52.2392
0
LINE
8
BLACK
6
CONTINUOUS
10
143.549
20
-52.2392
11
143.546
21
-52.2508
0
LINE
8
BLACK
6
CONTINUOUS
10
143.546
20
-52.2508
11
143.54
21
-52.2615
0
LINE
8
BLACK
6
CONTINUOUS
10
143.54
20
-52.2615
11
143.532
21
-52.2708
0
LINE
8
BLACK
6
CONTINUOUS
10
143.532
20
-52.2708
11
143.522
21
-52.2785
0
LINE
8
BLACK
6
CONTINUOUS
10
143.522
20
-52.2785
11
143.512
21
-52.2841
0
LINE
8
BLACK
6
CONTINUOUS
10
143.512
20
-52.2841
11
143.5
21
-52.2876
0
LINE
8
BLACK
6
CONTINUOUS
10
143.5
20
-52.2876
11
143.488
21
-52.2887
0
LINE
8
BLACK
6
CONTINUOUS
10
143.488
20
-52.2887
11
143.476
21
-52.2874
0
LINE
8
BLACK
6
CONTINUOUS
10
143.476
20
-52.2874
11
143.464
21
-52.2838
0
LINE
8
BLACK
6
CONTINUOUS
10
143.464
20
-52.2838
11
143.453
21
-52.278
0
LINE
8
BLACK
6
CONTINUOUS
10
143.453
20
-52.278
11
143.444
21
-52.2702
0
LINE
8
BLACK
6
CONTINUOUS
10
143.444
20
-52.2702
11
143.436
21
-52.2608
0
LINE
8
BLACK
6
CONTINUOUS
10
143.436
20
-52.2608
11
143.43
21
-52.25
0
LINE
8
BLACK
6
CONTINUOUS
10
143.43
20
-52.25
11
143.427
21
-52.2383
0
LINE
8
BLACK
6
CONTINUOUS
10
143.427
20
-52.2383
11
143.426
21
-52.2262
0
LINE
8
BLACK
6
CONTINUOUS
10
143.426
20
-52.2262
11
143.426
21
-51.7262
0
LINE
8
BLACK
6
CONTINUOUS
10
143.426
20
-51.7262
11
143.426
21
-51.7258
0
LINE
8
BLACK
6
CONTINUOUS
10
143.426
20
-51.7258
11
143.426
21
-51.7258
0
LINE
8
BLACK
6
CONTINUOUS
10
143.426
20
-51.7258
11
143.426
21
-51.7257
0
LINE
8
BLACK
6
CONTINUOUS
10
143.426
20
-51.7257
11
143.426
21
-51.7253
0
LINE
8
BLACK
6
CONTINUOUS
10
143.426
20
-51.7253
11
143.426
21
-51.7194
0
LINE
8
BLACK
6
CONTINUOUS
10
143.426
20
-51.7194
11
143.427
21
-51.7136
0
LINE
8
BLACK
6
CONTINUOUS
10
143.427
20
-51.7136
11
143.427
21
-51.7134
0
LINE
8
BLACK
6
CONTINUOUS
10
143.427
20
-51.7134
11
143.427
21
-51.7132
0
LINE
8
BLACK
6
CONTINUOUS
10
143.427
20
-51.7132
11
143.429
21
-51.7076
0
LINE
8
BLACK
6
CONTINUOUS
10
143.429
20
-51.7076
11
143.43
21
-51.702
0
LINE
8
BLACK
6
CONTINUOUS
10
143.43
20
-51.702
11
143.431
21
-51.7018
0
LINE
8
BLACK
6
CONTINUOUS
10
143.431
20
-51.7018
11
143.431
21
-51.7016
0
LINE
8
BLACK
6
CONTINUOUS
10
143.431
20
-51.7016
11
143.433
21
-51.6964
0
LINE
8
BLACK
6
CONTINUOUS
10
143.433
20
-51.6964
11
143.436
21
-51.6912
0
LINE
8
BLACK
6
CONTINUOUS
10
143.436
20
-51.6912
11
143.436
21
-51.6911
0
LINE
8
BLACK
6
CONTINUOUS
10
143.436
20
-51.6911
11
143.437
21
-51.6909
0
LINE
8
BLACK
6
CONTINUOUS
10
143.437
20
-51.6909
11
143.44
21
-51.6864
0
LINE
8
BLACK
6
CONTINUOUS
10
143.44
20
-51.6864
11
143.444
21
-51.6818
0
LINE
8
BLACK
6
CONTINUOUS
10
143.444
20
-51.6818
11
143.444
21
-51.6817
0
LINE
8
BLACK
6
CONTINUOUS
10
143.444
20
-51.6817
11
143.444
21
-51.6815
0
LINE
8
BLACK
6
CONTINUOUS
10
143.444
20
-51.6815
11
143.449
21
-51.6778
0
LINE
8
BLACK
6
CONTINUOUS
10
143.449
20
-51.6778
11
143.454
21
-51.6741
0
LINE
8
BLACK
6
CONTINUOUS
10
143.454
20
-51.6741
11
143.454
21
-51.674
0
LINE
8
BLACK
6
CONTINUOUS
10
143.454
20
-51.674
11
143.454
21
-51.6739
0
LINE
8
BLACK
6
CONTINUOUS
10
143.454
20
-51.6739
11
143.459
21
-51.6712
0
LINE
8
BLACK
6
CONTINUOUS
10
143.459
20
-51.6712
11
143.464
21
-51.6684
0
LINE
8
BLACK
6
CONTINUOUS
10
143.464
20
-51.6684
11
143.464
21
-51.6683
0
LINE
8
BLACK
6
CONTINUOUS
10
143.464
20
-51.6683
11
143.465
21
-51.6682
0
LINE
8
BLACK
6
CONTINUOUS
10
143.465
20
-51.6682
11
143.47
21
-51.6666
0
LINE
8
BLACK
6
CONTINUOUS
10
143.47
20
-51.6666
11
143.476
21
-51.6649
0
LINE
8
BLACK
6
CONTINUOUS
10
143.476
20
-51.6649
11
143.476
21
-51.6649
0
LINE
8
BLACK
6
CONTINUOUS
10
143.476
20
-51.6649
11
143.476
21
-51.6648
0
LINE
8
BLACK
6
CONTINUOUS
10
143.476
20
-51.6648
11
143.482
21
-51.6643
0
LINE
8
BLACK
6
CONTINUOUS
10
143.482
20
-51.6643
11
143.488
21
-51.6637
0
LINE
8
BLACK
6
CONTINUOUS
10
143.488
20
-51.6637
11
143.679
21
-51.6637
0
LINE
8
BLACK
6
CONTINUOUS
10
143.679
20
-51.6637
11
143.679
21
-51.6637
0
LINE
8
BLACK
6
CONTINUOUS
10
143.551
20
-51.7887
11
143.551
21
-51.9256
0
LINE
8
BLACK
6
CONTINUOUS
10
143.551
20
-51.9256
11
143.664
21
-51.9256
0
LINE
8
BLACK
6
CONTINUOUS
10
143.664
20
-51.9256
11
143.689
21
-51.9129
0
LINE
8
BLACK
6
CONTINUOUS
10
143.689
20
-51.9129
11
143.699
21
-51.9035
0
LINE
8
BLACK
6
CONTINUOUS
10
143.699
20
-51.9035
11
143.711
21
-51.8781
0
LINE
8
BLACK
6
CONTINUOUS
10
143.711
20
-51.8781
11
143.711
21
-51.8362
0
LINE
8
BLACK
6
CONTINUOUS
10
143.711
20
-51.8362
11
143.699
21
-51.8108
0
LINE
8
BLACK
6
CONTINUOUS
10
143.699
20
-51.8108
11
143.689
21
-51.8014
0
LINE
8
BLACK
6
CONTINUOUS
10
143.689
20
-51.8014
11
143.664
21
-51.7887
0
LINE
8
BLACK
6
CONTINUOUS
10
143.664
20
-51.7887
11
143.551
21
-51.7887
0
LINE
8
BLACK
6
CONTINUOUS
10
142.798
20
-51.6637
11
142.8
21
-51.6639
0
LINE
8
BLACK
6
CONTINUOUS
10
142.8
20
-51.6639
11
142.802
21
-51.6639
0
LINE
8
BLACK
6
CONTINUOUS
10
142.802
20
-51.6639
11
142.806
21
-51.6646
0
LINE
8
BLACK
6
CONTINUOUS
10
142.806
20
-51.6646
11
142.811
21
-51.6651
0
LINE
8
BLACK
6
CONTINUOUS
10
142.811
20
-51.6651
11
142.812
21
-51.6656
0
LINE
8
BLACK
6
CONTINUOUS
10
142.812
20
-51.6656
11
142.814
21
-51.6659
0
LINE
8
BLACK
6
CONTINUOUS
10
142.814
20
-51.6659
11
142.818
21
-51.6675
0
LINE
8
BLACK
6
CONTINUOUS
10
142.818
20
-51.6675
11
142.822
21
-51.6687
0
LINE
8
BLACK
6
CONTINUOUS
10
142.822
20
-51.6687
11
142.824
21
-51.6696
0
LINE
8
BLACK
6
CONTINUOUS
10
142.824
20
-51.6696
11
142.826
21
-51.6703
0
LINE
8
BLACK
6
CONTINUOUS
10
142.826
20
-51.6703
11
142.873
21
-51.6941
0
LINE
8
BLACK
6
CONTINUOUS
10
142.873
20
-51.6941
11
142.874
21
-51.6945
0
LINE
8
BLACK
6
CONTINUOUS
10
142.874
20
-51.6945
11
142.877
21
-51.6964
0
LINE
8
BLACK
6
CONTINUOUS
10
142.877
20
-51.6964
11
142.88
21
-51.6981
0
LINE
8
BLACK
6
CONTINUOUS
10
142.88
20
-51.6981
11
142.882
21
-51.6997
0
LINE
8
BLACK
6
CONTINUOUS
10
142.882
20
-51.6997
11
142.884
21
-51.7011
0
LINE
8
BLACK
6
CONTINUOUS
10
142.884
20
-51.7011
11
142.887
21
-51.7036
0
LINE
8
BLACK
6
CONTINUOUS
10
142.887
20
-51.7036
11
142.889
21
-51.7058
0
LINE
8
BLACK
6
CONTINUOUS
10
142.889
20
-51.7058
11
142.913
21
-51.7296
0
LINE
8
BLACK
6
CONTINUOUS
10
142.913
20
-51.7296
11
142.914
21
-51.7302
0
LINE
8
BLACK
6
CONTINUOUS
10
142.914
20
-51.7302
11
142.916
21
-51.733
0
LINE
8
BLACK
6
CONTINUOUS
10
142.916
20
-51.733
11
142.918
21
-51.7355
0
LINE
8
BLACK
6
CONTINUOUS
10
142.918
20
-51.7355
11
142.92
21
-51.7377
0
LINE
8
BLACK
6
CONTINUOUS
10
142.92
20
-51.7377
11
142.921
21
-51.7398
0
LINE
8
BLACK
6
CONTINUOUS
10
142.921
20
-51.7398
11
142.923
21
-51.7429
0
LINE
8
BLACK
6
CONTINUOUS
10
142.923
20
-51.7429
11
142.925
21
-51.7459
0
LINE
8
BLACK
6
CONTINUOUS
10
142.925
20
-51.7459
11
142.949
21
-51.7935
0
LINE
8
BLACK
6
CONTINUOUS
10
142.949
20
-51.7935
11
142.949
21
-51.7943
0
LINE
8
BLACK
6
CONTINUOUS
10
142.949
20
-51.7943
11
142.95
21
-51.796
0
LINE
8
BLACK
6
CONTINUOUS
10
142.95
20
-51.796
11
142.951
21
-51.7976
0
LINE
8
BLACK
6
CONTINUOUS
10
142.951
20
-51.7976
11
142.952
21
-51.8017
0
LINE
8
BLACK
6
CONTINUOUS
10
142.952
20
-51.8017
11
142.953
21
-51.8057
0
LINE
8
BLACK
6
CONTINUOUS
10
142.953
20
-51.8057
11
142.954
21
-51.8075
0
LINE
8
BLACK
6
CONTINUOUS
10
142.954
20
-51.8075
11
142.954
21
-51.8093
0
LINE
8
BLACK
6
CONTINUOUS
10
142.954
20
-51.8093
11
142.955
21
-51.8135
0
LINE
8
BLACK
6
CONTINUOUS
10
142.955
20
-51.8135
11
142.955
21
-51.8178
0
LINE
8
BLACK
6
CONTINUOUS
10
142.955
20
-51.8178
11
142.955
21
-51.8196
0
LINE
8
BLACK
6
CONTINUOUS
10
142.955
20
-51.8196
11
142.955
21
-51.8214
0
LINE
8
BLACK
6
CONTINUOUS
10
142.955
20
-51.8214
11
142.955
21
-51.8929
0
LINE
8
BLACK
6
CONTINUOUS
10
142.955
20
-51.8929
11
142.955
21
-51.8937
0
LINE
8
BLACK
6
CONTINUOUS
10
142.955
20
-51.8937
11
142.955
21
-51.8956
0
LINE
8
BLACK
6
CONTINUOUS
10
142.955
20
-51.8956
11
142.955
21
-51.8974
0
LINE
8
BLACK
6
CONTINUOUS
10
142.955
20
-51.8974
11
142.954
21
-51.9016
0
LINE
8
BLACK
6
CONTINUOUS
10
142.954
20
-51.9016
11
142.954
21
-51.9059
0
LINE
8
BLACK
6
CONTINUOUS
10
142.954
20
-51.9059
11
142.953
21
-51.9076
0
LINE
8
BLACK
6
CONTINUOUS
10
142.953
20
-51.9076
11
142.953
21
-51.9094
0
LINE
8
BLACK
6
CONTINUOUS
10
142.953
20
-51.9094
11
142.952
21
-51.9134
0
LINE
8
BLACK
6
CONTINUOUS
10
142.952
20
-51.9134
11
142.95
21
-51.9175
0
LINE
8
BLACK
6
CONTINUOUS
10
142.95
20
-51.9175
11
142.949
21
-51.9191
0
LINE
8
BLACK
6
CONTINUOUS
10
142.949
20
-51.9191
11
142.949
21
-51.9208
0
LINE
8
BLACK
6
CONTINUOUS
10
142.949
20
-51.9208
11
142.925
21
-51.9684
0
LINE
8
BLACK
6
CONTINUOUS
10
142.925
20
-51.9684
11
142.925
21
-51.9692
0
LINE
8
BLACK
6
CONTINUOUS
10
142.925
20
-51.9692
11
142.923
21
-51.9721
0
LINE
8
BLACK
6
CONTINUOUS
10
142.923
20
-51.9721
11
142.921
21
-51.9752
0
LINE
8
BLACK
6
CONTINUOUS
10
142.921
20
-51.9752
11
142.919
21
-51.9773
0
LINE
8
BLACK
6
CONTINUOUS
10
142.919
20
-51.9773
11
142.918
21
-51.9794
0
LINE
8
BLACK
6
CONTINUOUS
10
142.918
20
-51.9794
11
142.915
21
-51.982
0
LINE
8
BLACK
6
CONTINUOUS
10
142.915
20
-51.982
11
142.913
21
-51.9847
0
LINE
8
BLACK
6
CONTINUOUS
10
142.913
20
-51.9847
11
142.889
21
-52.0085
0
LINE
8
BLACK
6
CONTINUOUS
10
142.889
20
-52.0085
11
142.889
21
-52.0091
0
LINE
8
BLACK
6
CONTINUOUS
10
142.889
20
-52.0091
11
142.886
21
-52.0113
0
LINE
8
BLACK
6
CONTINUOUS
10
142.886
20
-52.0113
11
142.884
21
-52.0137
0
LINE
8
BLACK
6
CONTINUOUS
10
142.884
20
-52.0137
11
142.881
21
-52.0151
0
LINE
8
BLACK
6
CONTINUOUS
10
142.881
20
-52.0151
11
142.879
21
-52.0167
0
LINE
8
BLACK
6
CONTINUOUS
10
142.879
20
-52.0167
11
142.876
21
-52.0183
0
LINE
8
BLACK
6
CONTINUOUS
10
142.876
20
-52.0183
11
142.873
21
-52.0202
0
LINE
8
BLACK
6
CONTINUOUS
10
142.873
20
-52.0202
11
142.837
21
-52.0381
0
LINE
8
BLACK
6
CONTINUOUS
10
142.837
20
-52.0381
11
142.944
21
-52.1903
0
LINE
8
BLACK
6
CONTINUOUS
10
142.944
20
-52.1903
11
142.945
21
-52.1911
0
LINE
8
BLACK
6
CONTINUOUS
10
142.945
20
-52.1911
11
142.95
21
-52.2018
0
LINE
8
BLACK
6
CONTINUOUS
10
142.95
20
-52.2018
11
142.954
21
-52.2134
0
LINE
8
BLACK
6
CONTINUOUS
10
142.954
20
-52.2134
11
142.955
21
-52.2255
0
LINE
8
BLACK
6
CONTINUOUS
10
142.955
20
-52.2255
11
142.954
21
-52.2377
0
LINE
8
BLACK
6
CONTINUOUS
10
142.954
20
-52.2377
11
142.951
21
-52.2494
0
LINE
8
BLACK
6
CONTINUOUS
10
142.951
20
-52.2494
11
142.945
21
-52.2602
0
LINE
8
BLACK
6
CONTINUOUS
10
142.945
20
-52.2602
11
142.938
21
-52.2698
0
LINE
8
BLACK
6
CONTINUOUS
10
142.938
20
-52.2698
11
142.928
21
-52.2776
0
LINE
8
BLACK
6
CONTINUOUS
10
142.928
20
-52.2776
11
142.918
21
-52.2836
0
LINE
8
BLACK
6
CONTINUOUS
10
142.918
20
-52.2836
11
142.906
21
-52.2873
0
LINE
8
BLACK
6
CONTINUOUS
10
142.906
20
-52.2873
11
142.894
21
-52.2887
0
LINE
8
BLACK
6
CONTINUOUS
10
142.894
20
-52.2887
11
142.882
21
-52.2877
0
LINE
8
BLACK
6
CONTINUOUS
10
142.882
20
-52.2877
11
142.87
21
-52.2844
0
LINE
8
BLACK
6
CONTINUOUS
10
142.87
20
-52.2844
11
142.859
21
-52.2788
0
LINE
8
BLACK
6
CONTINUOUS
10
142.859
20
-52.2788
11
142.85
21
-52.2713
0
LINE
8
BLACK
6
CONTINUOUS
10
142.85
20
-52.2713
11
142.842
21
-52.262
0
LINE
8
BLACK
6
CONTINUOUS
10
142.842
20
-52.262
11
142.694
21
-52.0506
0
LINE
8
BLACK
6
CONTINUOUS
10
142.694
20
-52.0506
11
142.67
21
-52.0506
0
LINE
8
BLACK
6
CONTINUOUS
10
142.67
20
-52.0506
11
142.67
21
-52.2262
0
LINE
8
BLACK
6
CONTINUOUS
10
142.67
20
-52.2262
11
142.67
21
-52.2271
0
LINE
8
BLACK
6
CONTINUOUS
10
142.67
20
-52.2271
11
142.668
21
-52.2392
0
LINE
8
BLACK
6
CONTINUOUS
10
142.668
20
-52.2392
11
142.665
21
-52.2508
0
LINE
8
BLACK
6
CONTINUOUS
10
142.665
20
-52.2508
11
142.659
21
-52.2615
0
LINE
8
BLACK
6
CONTINUOUS
10
142.659
20
-52.2615
11
142.651
21
-52.2708
0
LINE
8
BLACK
6
CONTINUOUS
10
142.651
20
-52.2708
11
142.641
21
-52.2785
0
LINE
8
BLACK
6
CONTINUOUS
10
142.641
20
-52.2785
11
142.631
21
-52.2841
0
LINE
8
BLACK
6
CONTINUOUS
10
142.631
20
-52.2841
11
142.619
21
-52.2876
0
LINE
8
BLACK
6
CONTINUOUS
10
142.619
20
-52.2876
11
142.607
21
-52.2887
0
LINE
8
BLACK
6
CONTINUOUS
10
142.607
20
-52.2887
11
142.595
21
-52.2874
0
LINE
8
BLACK
6
CONTINUOUS
10
142.595
20
-52.2874
11
142.583
21
-52.2838
0
LINE
8
BLACK
6
CONTINUOUS
10
142.583
20
-52.2838
11
142.572
21
-52.278
0
LINE
8
BLACK
6
CONTINUOUS
10
142.572
20
-52.278
11
142.563
21
-52.2702
0
LINE
8
BLACK
6
CONTINUOUS
10
142.563
20
-52.2702
11
142.555
21
-52.2608
0
LINE
8
BLACK
6
CONTINUOUS
10
142.555
20
-52.2608
11
142.549
21
-52.25
0
LINE
8
BLACK
6
CONTINUOUS
10
142.549
20
-52.25
11
142.546
21
-52.2383
0
LINE
8
BLACK
6
CONTINUOUS
10
142.546
20
-52.2383
11
142.545
21
-52.2262
0
LINE
8
BLACK
6
CONTINUOUS
10
142.545
20
-52.2262
11
142.545
21
-51.7262
0
LINE
8
BLACK
6
CONTINUOUS
10
142.545
20
-51.7262
11
142.545
21
-51.7258
0
LINE
8
BLACK
6
CONTINUOUS
10
142.545
20
-51.7258
11
142.545
21
-51.7258
0
LINE
8
BLACK
6
CONTINUOUS
10
142.545
20
-51.7258
11
142.545
21
-51.7257
0
LINE
8
BLACK
6
CONTINUOUS
10
142.545
20
-51.7257
11
142.545
21
-51.7253
0
LINE
8
BLACK
6
CONTINUOUS
10
142.545
20
-51.7253
11
142.545
21
-51.7194
0
LINE
8
BLACK
6
CONTINUOUS
10
142.545
20
-51.7194
11
142.546
21
-51.7136
0
LINE
8
BLACK
6
CONTINUOUS
10
142.546
20
-51.7136
11
142.546
21
-51.7134
0
LINE
8
BLACK
6
CONTINUOUS
10
142.546
20
-51.7134
11
142.546
21
-51.7132
0
LINE
8
BLACK
6
CONTINUOUS
10
142.546
20
-51.7132
11
142.548
21
-51.7076
0
LINE
8
BLACK
6
CONTINUOUS
10
142.548
20
-51.7076
11
142.55
21
-51.702
0
LINE
8
BLACK
6
CONTINUOUS
10
142.55
20
-51.702
11
142.55
21
-51.7018
0
LINE
8
BLACK
6
CONTINUOUS
10
142.55
20
-51.7018
11
142.55
21
-51.7016
0
LINE
8
BLACK
6
CONTINUOUS
10
142.55
20
-51.7016
11
142.553
21
-51.6964
0
LINE
8
BLACK
6
CONTINUOUS
10
142.553
20
-51.6964
11
142.555
21
-51.6912
0
LINE
8
BLACK
6
CONTINUOUS
10
142.555
20
-51.6912
11
142.555
21
-51.6911
0
LINE
8
BLACK
6
CONTINUOUS
10
142.555
20
-51.6911
11
142.556
21
-51.6909
0
LINE
8
BLACK
6
CONTINUOUS
10
142.556
20
-51.6909
11
142.559
21
-51.6864
0
LINE
8
BLACK
6
CONTINUOUS
10
142.559
20
-51.6864
11
142.563
21
-51.6818
0
LINE
8
BLACK
6
CONTINUOUS
10
142.563
20
-51.6818
11
142.563
21
-51.6817
0
LINE
8
BLACK
6
CONTINUOUS
10
142.563
20
-51.6817
11
142.563
21
-51.6815
0
LINE
8
BLACK
6
CONTINUOUS
10
142.563
20
-51.6815
11
142.568
21
-51.6778
0
LINE
8
BLACK
6
CONTINUOUS
10
142.568
20
-51.6778
11
142.573
21
-51.6741
0
LINE
8
BLACK
6
CONTINUOUS
10
142.573
20
-51.6741
11
142.573
21
-51.674
0
LINE
8
BLACK
6
CONTINUOUS
10
142.573
20
-51.674
11
142.573
21
-51.6739
0
LINE
8
BLACK
6
CONTINUOUS
10
142.573
20
-51.6739
11
142.578
21
-51.6712
0
LINE
8
BLACK
6
CONTINUOUS
10
142.578
20
-51.6712
11
142.583
21
-51.6684
0
LINE
8
BLACK
6
CONTINUOUS
10
142.583
20
-51.6684
11
142.584
21
-51.6683
0
LINE
8
BLACK
6
CONTINUOUS
10
142.584
20
-51.6683
11
142.584
21
-51.6682
0
LINE
8
BLACK
6
CONTINUOUS
10
142.584
20
-51.6682
11
142.589
21
-51.6666
0
LINE
8
BLACK
6
CONTINUOUS
10
142.589
20
-51.6666
11
142.595
21
-51.6649
0
LINE
8
BLACK
6
CONTINUOUS
10
142.595
20
-51.6649
11
142.595
21
-51.6649
0
LINE
8
BLACK
6
CONTINUOUS
10
142.595
20
-51.6649
11
142.595
21
-51.6648
0
LINE
8
BLACK
6
CONTINUOUS
10
142.595
20
-51.6648
11
142.601
21
-51.6643
0
LINE
8
BLACK
6
CONTINUOUS
10
142.601
20
-51.6643
11
142.607
21
-51.6637
0
LINE
8
BLACK
6
CONTINUOUS
10
142.607
20
-51.6637
11
142.798
21
-51.6637
0
LINE
8
BLACK
6
CONTINUOUS
10
142.798
20
-51.6637
11
142.798
21
-51.6637
0
LINE
8
BLACK
6
CONTINUOUS
10
142.67
20
-51.7887
11
142.67
21
-51.9256
0
LINE
8
BLACK
6
CONTINUOUS
10
142.67
20
-51.9256
11
142.783
21
-51.9256
0
LINE
8
BLACK
6
CONTINUOUS
10
142.783
20
-51.9256
11
142.808
21
-51.9129
0
LINE
8
BLACK
6
CONTINUOUS
10
142.808
20
-51.9129
11
142.818
21
-51.9035
0
LINE
8
BLACK
6
CONTINUOUS
10
142.818
20
-51.9035
11
142.83
21
-51.8781
0
LINE
8
BLACK
6
CONTINUOUS
10
142.83
20
-51.8781
11
142.83
21
-51.8362
0
LINE
8
BLACK
6
CONTINUOUS
10
142.83
20
-51.8362
11
142.818
21
-51.8108
0
LINE
8
BLACK
6
CONTINUOUS
10
142.818
20
-51.8108
11
142.808
21
-51.8014
0
LINE
8
BLACK
6
CONTINUOUS
10
142.808
20
-51.8014
11
142.783
21
-51.7887
0
LINE
8
BLACK
6
CONTINUOUS
10
142.783
20
-51.7887
11
142.67
21
-51.7887
0
LINE
8
BLACK
6
CONTINUOUS
10
146.751
20
-51.6637
11
146.763
21
-51.6651
0
LINE
8
BLACK
6
CONTINUOUS
10
146.763
20
-51.6651
11
146.775
21
-51.6687
0
LINE
8
BLACK
6
CONTINUOUS
10
146.775
20
-51.6687
11
146.785
21
-51.6746
0
LINE
8
BLACK
6
CONTINUOUS
10
146.785
20
-51.6746
11
146.795
21
-51.6825
0
LINE
8
BLACK
6
CONTINUOUS
10
146.795
20
-51.6825
11
146.802
21
-51.692
0
LINE
8
BLACK
6
CONTINUOUS
10
146.802
20
-51.692
11
146.808
21
-51.7028
0
LINE
8
BLACK
6
CONTINUOUS
10
146.808
20
-51.7028
11
146.811
21
-51.7145
0
LINE
8
BLACK
6
CONTINUOUS
10
146.811
20
-51.7145
11
146.812
21
-51.7266
0
LINE
8
BLACK
6
CONTINUOUS
10
146.812
20
-51.7266
11
146.811
21
-51.7388
0
LINE
8
BLACK
6
CONTINUOUS
10
146.811
20
-51.7388
11
146.808
21
-51.7504
0
LINE
8
BLACK
6
CONTINUOUS
10
146.808
20
-51.7504
11
146.802
21
-51.7611
0
LINE
8
BLACK
6
CONTINUOUS
10
146.802
20
-51.7611
11
146.794
21
-51.7705
0
LINE
8
BLACK
6
CONTINUOUS
10
146.794
20
-51.7705
11
146.785
21
-51.7782
0
LINE
8
BLACK
6
CONTINUOUS
10
146.785
20
-51.7782
11
146.774
21
-51.784
0
LINE
8
BLACK
6
CONTINUOUS
10
146.774
20
-51.784
11
146.762
21
-51.7875
0
LINE
8
BLACK
6
CONTINUOUS
10
146.762
20
-51.7875
11
146.75
21
-51.7887
0
LINE
8
BLACK
6
CONTINUOUS
10
146.75
20
-51.7887
11
146.67
21
-51.7887
0
LINE
8
BLACK
6
CONTINUOUS
10
146.67
20
-51.7887
11
146.67
21
-52.2262
0
LINE
8
BLACK
6
CONTINUOUS
10
146.67
20
-52.2262
11
146.67
21
-52.2271
0
LINE
8
BLACK
6
CONTINUOUS
10
146.67
20
-52.2271
11
146.668
21
-52.2392
0
LINE
8
BLACK
6
CONTINUOUS
10
146.668
20
-52.2392
11
146.665
21
-52.2508
0
LINE
8
BLACK
6
CONTINUOUS
10
146.665
20
-52.2508
11
146.659
21
-52.2615
0
LINE
8
BLACK
6
CONTINUOUS
10
146.659
20
-52.2615
11
146.651
21
-52.2708
0
LINE
8
BLACK
6
CONTINUOUS
10
146.651
20
-52.2708
11
146.641
21
-52.2785
0
LINE
8
BLACK
6
CONTINUOUS
10
146.641
20
-52.2785
11
146.631
21
-52.2841
0
LINE
8
BLACK
6
CONTINUOUS
10
146.631
20
-52.2841
11
146.619
21
-52.2876
0
LINE
8
BLACK
6
CONTINUOUS
10
146.619
20
-52.2876
11
146.607
21
-52.2887
0
LINE
8
BLACK
6
CONTINUOUS
10
146.607
20
-52.2887
11
146.595
21
-52.2874
0
LINE
8
BLACK
6
CONTINUOUS
10
146.595
20
-52.2874
11
146.583
21
-52.2838
0
LINE
8
BLACK
6
CONTINUOUS
10
146.583
20
-52.2838
11
146.572
21
-52.278
0
LINE
8
BLACK
6
CONTINUOUS
10
146.572
20
-52.278
11
146.563
21
-52.2702
0
LINE
8
BLACK
6
CONTINUOUS
10
146.563
20
-52.2702
11
146.555
21
-52.2608
0
LINE
8
BLACK
6
CONTINUOUS
10
146.555
20
-52.2608
11
146.549
21
-52.25
0
LINE
8
BLACK
6
CONTINUOUS
10
146.549
20
-52.25
11
146.546
21
-52.2383
0
LINE
8
BLACK
6
CONTINUOUS
10
146.546
20
-52.2383
11
146.545
21
-52.2262
0
LINE
8
BLACK
6
CONTINUOUS
10
146.545
20
-52.2262
11
146.545
21
-51.7887
0
LINE
8
BLACK
6
CONTINUOUS
10
146.545
20
-51.7887
11
146.464
21
-51.7887
0
LINE
8
BLACK
6
CONTINUOUS
10
146.464
20
-51.7887
11
146.463
21
-51.7887
0
LINE
8
BLACK
6
CONTINUOUS
10
146.463
20
-51.7887
11
146.451
21
-51.7873
0
LINE
8
BLACK
6
CONTINUOUS
10
146.451
20
-51.7873
11
146.44
21
-51.7836
0
LINE
8
BLACK
6
CONTINUOUS
10
146.44
20
-51.7836
11
146.429
21
-51.7778
0
LINE
8
BLACK
6
CONTINUOUS
10
146.429
20
-51.7778
11
146.42
21
-51.7699
0
LINE
8
BLACK
6
CONTINUOUS
10
146.42
20
-51.7699
11
146.412
21
-51.7604
0
LINE
8
BLACK
6
CONTINUOUS
10
146.412
20
-51.7604
11
146.406
21
-51.7496
0
LINE
8
BLACK
6
CONTINUOUS
10
146.406
20
-51.7496
11
146.403
21
-51.7379
0
LINE
8
BLACK
6
CONTINUOUS
10
146.403
20
-51.7379
11
146.402
21
-51.7258
0
LINE
8
BLACK
6
CONTINUOUS
10
146.402
20
-51.7258
11
146.403
21
-51.7136
0
LINE
8
BLACK
6
CONTINUOUS
10
146.403
20
-51.7136
11
146.407
21
-51.702
0
LINE
8
BLACK
6
CONTINUOUS
10
146.407
20
-51.702
11
146.412
21
-51.6912
0
LINE
8
BLACK
6
CONTINUOUS
10
146.412
20
-51.6912
11
146.42
21
-51.6818
0
LINE
8
BLACK
6
CONTINUOUS
10
146.42
20
-51.6818
11
146.43
21
-51.6741
0
LINE
8
BLACK
6
CONTINUOUS
10
146.43
20
-51.6741
11
146.44
21
-51.6684
0
LINE
8
BLACK
6
CONTINUOUS
10
146.44
20
-51.6684
11
146.452
21
-51.6649
0
LINE
8
BLACK
6
CONTINUOUS
10
146.452
20
-51.6649
11
146.464
21
-51.6637
0
LINE
8
BLACK
6
CONTINUOUS
10
146.464
20
-51.6637
11
146.75
21
-51.6637
0
LINE
8
BLACK
6
CONTINUOUS
10
146.75
20
-51.6637
11
146.751
21
-51.6637
0
LINE
8
BLACK
6
CONTINUOUS
10
146.31
20
-51.665
11
146.322
21
-51.6686
0
LINE
8
BLACK
6
CONTINUOUS
10
146.322
20
-51.6686
11
146.333
21
-51.6744
0
LINE
8
BLACK
6
CONTINUOUS
10
146.333
20
-51.6744
11
146.342
21
-51.6822
0
LINE
8
BLACK
6
CONTINUOUS
10
146.342
20
-51.6822
11
146.35
21
-51.6916
0
LINE
8
BLACK
6
CONTINUOUS
10
146.35
20
-51.6916
11
146.355
21
-51.7024
0
LINE
8
BLACK
6
CONTINUOUS
10
146.355
20
-51.7024
11
146.359
21
-51.7141
0
LINE
8
BLACK
6
CONTINUOUS
10
146.359
20
-51.7141
11
146.36
21
-51.7262
0
LINE
8
BLACK
6
CONTINUOUS
10
146.36
20
-51.7262
11
146.36
21
-52.2262
0
LINE
8
BLACK
6
CONTINUOUS
10
146.36
20
-52.2262
11
146.36
21
-52.2271
0
LINE
8
BLACK
6
CONTINUOUS
10
146.36
20
-52.2271
11
146.359
21
-52.2392
0
LINE
8
BLACK
6
CONTINUOUS
10
146.359
20
-52.2392
11
146.355
21
-52.2508
0
LINE
8
BLACK
6
CONTINUOUS
10
146.355
20
-52.2508
11
146.349
21
-52.2615
0
LINE
8
BLACK
6
CONTINUOUS
10
146.349
20
-52.2615
11
146.341
21
-52.2708
0
LINE
8
BLACK
6
CONTINUOUS
10
146.341
20
-52.2708
11
146.332
21
-52.2785
0
LINE
8
BLACK
6
CONTINUOUS
10
146.332
20
-52.2785
11
146.321
21
-52.2841
0
LINE
8
BLACK
6
CONTINUOUS
10
146.321
20
-52.2841
11
146.309
21
-52.2876
0
LINE
8
BLACK
6
CONTINUOUS
10
146.309
20
-52.2876
11
146.297
21
-52.2887
0
LINE
8
BLACK
6
CONTINUOUS
10
146.297
20
-52.2887
11
146.285
21
-52.2874
0
LINE
8
BLACK
6
CONTINUOUS
10
146.285
20
-52.2874
11
146.273
21
-52.2838
0
LINE
8
BLACK
6
CONTINUOUS
10
146.273
20
-52.2838
11
146.263
21
-52.278
0
LINE
8
BLACK
6
CONTINUOUS
10
146.263
20
-52.278
11
146.253
21
-52.2702
0
LINE
8
BLACK
6
CONTINUOUS
10
146.253
20
-52.2702
11
146.246
21
-52.2608
0
LINE
8
BLACK
6
CONTINUOUS
10
146.246
20
-52.2608
11
146.24
21
-52.25
0
LINE
8
BLACK
6
CONTINUOUS
10
146.24
20
-52.25
11
146.236
21
-52.2383
0
LINE
8
BLACK
6
CONTINUOUS
10
146.236
20
-52.2383
11
146.235
21
-52.2262
0
LINE
8
BLACK
6
CONTINUOUS
10
146.235
20
-52.2262
11
146.235
21
-51.7262
0
LINE
8
BLACK
6
CONTINUOUS
10
146.235
20
-51.7262
11
146.235
21
-51.7253
0
LINE
8
BLACK
6
CONTINUOUS
10
146.235
20
-51.7253
11
146.236
21
-51.7132
0
LINE
8
BLACK
6
CONTINUOUS
10
146.236
20
-51.7132
11
146.24
21
-51.7016
0
LINE
8
BLACK
6
CONTINUOUS
10
146.24
20
-51.7016
11
146.246
21
-51.6909
0
LINE
8
BLACK
6
CONTINUOUS
10
146.246
20
-51.6909
11
146.254
21
-51.6815
0
LINE
8
BLACK
6
CONTINUOUS
10
146.254
20
-51.6815
11
146.263
21
-51.6739
0
LINE
8
BLACK
6
CONTINUOUS
10
146.263
20
-51.6739
11
146.274
21
-51.6682
0
LINE
8
BLACK
6
CONTINUOUS
10
146.274
20
-51.6682
11
146.286
21
-51.6648
0
LINE
8
BLACK
6
CONTINUOUS
10
146.286
20
-51.6648
11
146.298
21
-51.6637
0
LINE
8
BLACK
6
CONTINUOUS
10
146.298
20
-51.6637
11
146.31
21
-51.665
0
LINE
8
BLACK
6
CONTINUOUS
10
141.846
20
-51.6637
11
141.848
21
-51.6639
0
LINE
8
BLACK
6
CONTINUOUS
10
141.848
20
-51.6639
11
141.85
21
-51.6639
0
LINE
8
BLACK
6
CONTINUOUS
10
141.85
20
-51.6639
11
141.854
21
-51.6646
0
LINE
8
BLACK
6
CONTINUOUS
10
141.854
20
-51.6646
11
141.858
21
-51.6651
0
LINE
8
BLACK
6
CONTINUOUS
10
141.858
20
-51.6651
11
141.86
21
-51.6656
0
LINE
8
BLACK
6
CONTINUOUS
10
141.86
20
-51.6656
11
141.862
21
-51.6659
0
LINE
8
BLACK
6
CONTINUOUS
10
141.862
20
-51.6659
11
141.866
21
-51.6675
0
LINE
8
BLACK
6
CONTINUOUS
10
141.866
20
-51.6675
11
141.87
21
-51.6687
0
LINE
8
BLACK
6
CONTINUOUS
10
141.87
20
-51.6687
11
141.871
21
-51.6696
0
LINE
8
BLACK
6
CONTINUOUS
10
141.871
20
-51.6696
11
141.873
21
-51.6703
0
LINE
8
BLACK
6
CONTINUOUS
10
141.873
20
-51.6703
11
141.921
21
-51.6941
0
LINE
8
BLACK
6
CONTINUOUS
10
141.921
20
-51.6941
11
141.922
21
-51.6945
0
LINE
8
BLACK
6
CONTINUOUS
10
141.922
20
-51.6945
11
141.925
21
-51.6964
0
LINE
8
BLACK
6
CONTINUOUS
10
141.925
20
-51.6964
11
141.928
21
-51.6981
0
LINE
8
BLACK
6
CONTINUOUS
10
141.928
20
-51.6981
11
141.93
21
-51.6997
0
LINE
8
BLACK
6
CONTINUOUS
10
141.93
20
-51.6997
11
141.932
21
-51.7011
0
LINE
8
BLACK
6
CONTINUOUS
10
141.932
20
-51.7011
11
141.934
21
-51.7036
0
LINE
8
BLACK
6
CONTINUOUS
10
141.934
20
-51.7036
11
141.937
21
-51.7058
0
LINE
8
BLACK
6
CONTINUOUS
10
141.937
20
-51.7058
11
141.961
21
-51.7296
0
LINE
8
BLACK
6
CONTINUOUS
10
141.961
20
-51.7296
11
141.961
21
-51.7302
0
LINE
8
BLACK
6
CONTINUOUS
10
141.961
20
-51.7302
11
141.964
21
-51.733
0
LINE
8
BLACK
6
CONTINUOUS
10
141.964
20
-51.733
11
141.966
21
-51.7355
0
LINE
8
BLACK
6
CONTINUOUS
10
141.966
20
-51.7355
11
141.967
21
-51.7377
0
LINE
8
BLACK
6
CONTINUOUS
10
141.967
20
-51.7377
11
141.969
21
-51.7398
0
LINE
8
BLACK
6
CONTINUOUS
10
141.969
20
-51.7398
11
141.971
21
-51.7429
0
LINE
8
BLACK
6
CONTINUOUS
10
141.971
20
-51.7429
11
141.973
21
-51.7459
0
LINE
8
BLACK
6
CONTINUOUS
10
141.973
20
-51.7459
11
141.996
21
-51.7935
0
LINE
8
BLACK
6
CONTINUOUS
10
141.996
20
-51.7935
11
141.997
21
-51.7943
0
LINE
8
BLACK
6
CONTINUOUS
10
141.997
20
-51.7943
11
141.997
21
-51.796
0
LINE
8
BLACK
6
CONTINUOUS
10
141.997
20
-51.796
11
141.998
21
-51.7976
0
LINE
8
BLACK
6
CONTINUOUS
10
141.998
20
-51.7976
11
141.999
21
-51.8017
0
LINE
8
BLACK
6
CONTINUOUS
10
141.999
20
-51.8017
11
142.001
21
-51.8057
0
LINE
8
BLACK
6
CONTINUOUS
10
142.001
20
-51.8057
11
142.001
21
-51.8075
0
LINE
8
BLACK
6
CONTINUOUS
10
142.001
20
-51.8075
11
142.002
21
-51.8093
0
LINE
8
BLACK
6
CONTINUOUS
10
142.002
20
-51.8093
11
142.002
21
-51.8135
0
LINE
8
BLACK
6
CONTINUOUS
10
142.002
20
-51.8135
11
142.003
21
-51.8178
0
LINE
8
BLACK
6
CONTINUOUS
10
142.003
20
-51.8178
11
142.003
21
-51.8196
0
LINE
8
BLACK
6
CONTINUOUS
10
142.003
20
-51.8196
11
142.003
21
-51.8214
0
LINE
8
BLACK
6
CONTINUOUS
10
142.003
20
-51.8214
11
142.003
21
-51.8929
0
LINE
8
BLACK
6
CONTINUOUS
10
142.003
20
-51.8929
11
142.003
21
-51.8937
0
LINE
8
BLACK
6
CONTINUOUS
10
142.003
20
-51.8937
11
142.003
21
-51.8956
0
LINE
8
BLACK
6
CONTINUOUS
10
142.003
20
-51.8956
11
142.003
21
-51.8974
0
LINE
8
BLACK
6
CONTINUOUS
10
142.003
20
-51.8974
11
142.002
21
-51.9016
0
LINE
8
BLACK
6
CONTINUOUS
10
142.002
20
-51.9016
11
142.002
21
-51.9059
0
LINE
8
BLACK
6
CONTINUOUS
10
142.002
20
-51.9059
11
142.001
21
-51.9076
0
LINE
8
BLACK
6
CONTINUOUS
10
142.001
20
-51.9076
11
142.001
21
-51.9094
0
LINE
8
BLACK
6
CONTINUOUS
10
142.001
20
-51.9094
11
141.999
21
-51.9134
0
LINE
8
BLACK
6
CONTINUOUS
10
141.999
20
-51.9134
11
141.998
21
-51.9175
0
LINE
8
BLACK
6
CONTINUOUS
10
141.998
20
-51.9175
11
141.997
21
-51.9191
0
LINE
8
BLACK
6
CONTINUOUS
10
141.997
20
-51.9191
11
141.996
21
-51.9208
0
LINE
8
BLACK
6
CONTINUOUS
10
141.996
20
-51.9208
11
141.973
21
-51.9684
0
LINE
8
BLACK
6
CONTINUOUS
10
141.973
20
-51.9684
11
141.972
21
-51.9692
0
LINE
8
BLACK
6
CONTINUOUS
10
141.972
20
-51.9692
11
141.97
21
-51.9721
0
LINE
8
BLACK
6
CONTINUOUS
10
141.97
20
-51.9721
11
141.969
21
-51.9752
0
LINE
8
BLACK
6
CONTINUOUS
10
141.969
20
-51.9752
11
141.967
21
-51.9773
0
LINE
8
BLACK
6
CONTINUOUS
10
141.967
20
-51.9773
11
141.966
21
-51.9794
0
LINE
8
BLACK
6
CONTINUOUS
10
141.966
20
-51.9794
11
141.963
21
-51.982
0
LINE
8
BLACK
6
CONTINUOUS
10
141.963
20
-51.982
11
141.961
21
-51.9847
0
LINE
8
BLACK
6
CONTINUOUS
10
141.961
20
-51.9847
11
141.937
21
-52.0085
0
LINE
8
BLACK
6
CONTINUOUS
10
141.937
20
-52.0085
11
141.936
21
-52.0091
0
LINE
8
BLACK
6
CONTINUOUS
10
141.936
20
-52.0091
11
141.934
21
-52.0113
0
LINE
8
BLACK
6
CONTINUOUS
10
141.934
20
-52.0113
11
141.931
21
-52.0137
0
LINE
8
BLACK
6
CONTINUOUS
10
141.931
20
-52.0137
11
141.929
21
-52.0151
0
LINE
8
BLACK
6
CONTINUOUS
10
141.929
20
-52.0151
11
141.927
21
-52.0167
0
LINE
8
BLACK
6
CONTINUOUS
10
141.927
20
-52.0167
11
141.924
21
-52.0183
0
LINE
8
BLACK
6
CONTINUOUS
10
141.924
20
-52.0183
11
141.921
21
-52.0202
0
LINE
8
BLACK
6
CONTINUOUS
10
141.921
20
-52.0202
11
141.873
21
-52.044
0
LINE
8
BLACK
6
CONTINUOUS
10
141.873
20
-52.044
11
141.872
21
-52.0444
0
LINE
8
BLACK
6
CONTINUOUS
10
141.872
20
-52.0444
11
141.871
21
-52.045
0
LINE
8
BLACK
6
CONTINUOUS
10
141.871
20
-52.045
11
141.869
21
-52.0459
0
LINE
8
BLACK
6
CONTINUOUS
10
141.869
20
-52.0459
11
141.865
21
-52.0471
0
LINE
8
BLACK
6
CONTINUOUS
10
141.865
20
-52.0471
11
141.861
21
-52.0486
0
LINE
8
BLACK
6
CONTINUOUS
10
141.861
20
-52.0486
11
141.859
21
-52.0489
0
LINE
8
BLACK
6
CONTINUOUS
10
141.859
20
-52.0489
11
141.857
21
-52.0494
0
LINE
8
BLACK
6
CONTINUOUS
10
141.857
20
-52.0494
11
141.853
21
-52.0498
0
LINE
8
BLACK
6
CONTINUOUS
10
141.853
20
-52.0498
11
141.849
21
-52.0505
0
LINE
8
BLACK
6
CONTINUOUS
10
141.849
20
-52.0505
11
141.847
21
-52.0504
0
LINE
8
BLACK
6
CONTINUOUS
10
141.847
20
-52.0504
11
141.845
21
-52.0506
0
LINE
8
BLACK
6
CONTINUOUS
10
141.845
20
-52.0506
11
141.717
21
-52.0506
0
LINE
8
BLACK
6
CONTINUOUS
10
141.717
20
-52.0506
11
141.717
21
-52.2262
0
LINE
8
BLACK
6
CONTINUOUS
10
141.717
20
-52.2262
11
141.717
21
-52.2271
0
LINE
8
BLACK
6
CONTINUOUS
10
141.717
20
-52.2271
11
141.716
21
-52.2392
0
LINE
8
BLACK
6
CONTINUOUS
10
141.716
20
-52.2392
11
141.712
21
-52.2508
0
LINE
8
BLACK
6
CONTINUOUS
10
141.712
20
-52.2508
11
141.706
21
-52.2615
0
LINE
8
BLACK
6
CONTINUOUS
10
141.706
20
-52.2615
11
141.698
21
-52.2708
0
LINE
8
BLACK
6
CONTINUOUS
10
141.698
20
-52.2708
11
141.689
21
-52.2785
0
LINE
8
BLACK
6
CONTINUOUS
10
141.689
20
-52.2785
11
141.678
21
-52.2841
0
LINE
8
BLACK
6
CONTINUOUS
10
141.678
20
-52.2841
11
141.666
21
-52.2876
0
LINE
8
BLACK
6
CONTINUOUS
10
141.666
20
-52.2876
11
141.654
21
-52.2887
0
LINE
8
BLACK
6
CONTINUOUS
10
141.654
20
-52.2887
11
141.642
21
-52.2874
0
LINE
8
BLACK
6
CONTINUOUS
10
141.642
20
-52.2874
11
141.631
21
-52.2838
0
LINE
8
BLACK
6
CONTINUOUS
10
141.631
20
-52.2838
11
141.62
21
-52.278
0
LINE
8
BLACK
6
CONTINUOUS
10
141.62
20
-52.278
11
141.61
21
-52.2702
0
LINE
8
BLACK
6
CONTINUOUS
10
141.61
20
-52.2702
11
141.603
21
-52.2608
0
LINE
8
BLACK
6
CONTINUOUS
10
141.603
20
-52.2608
11
141.597
21
-52.25
0
LINE
8
BLACK
6
CONTINUOUS
10
141.597
20
-52.25
11
141.593
21
-52.2383
0
LINE
8
BLACK
6
CONTINUOUS
10
141.593
20
-52.2383
11
141.592
21
-52.2262
0
LINE
8
BLACK
6
CONTINUOUS
10
141.592
20
-52.2262
11
141.592
21
-51.7262
0
LINE
8
BLACK
6
CONTINUOUS
10
141.592
20
-51.7262
11
141.592
21
-51.7258
0
LINE
8
BLACK
6
CONTINUOUS
10
141.592
20
-51.7258
11
141.592
21
-51.7258
0
LINE
8
BLACK
6
CONTINUOUS
10
141.592
20
-51.7258
11
141.592
21
-51.7257
0
LINE
8
BLACK
6
CONTINUOUS
10
141.592
20
-51.7257
11
141.592
21
-51.7253
0
LINE
8
BLACK
6
CONTINUOUS
10
141.592
20
-51.7253
11
141.593
21
-51.7194
0
LINE
8
BLACK
6
CONTINUOUS
10
141.593
20
-51.7194
11
141.594
21
-51.7136
0
LINE
8
BLACK
6
CONTINUOUS
10
141.594
20
-51.7136
11
141.594
21
-51.7134
0
LINE
8
BLACK
6
CONTINUOUS
10
141.594
20
-51.7134
11
141.594
21
-51.7132
0
LINE
8
BLACK
6
CONTINUOUS
10
141.594
20
-51.7132
11
141.595
21
-51.7076
0
LINE
8
BLACK
6
CONTINUOUS
10
141.595
20
-51.7076
11
141.597
21
-51.702
0
LINE
8
BLACK
6
CONTINUOUS
10
141.597
20
-51.702
11
141.597
21
-51.7018
0
LINE
8
BLACK
6
CONTINUOUS
10
141.597
20
-51.7018
11
141.597
21
-51.7016
0
LINE
8
BLACK
6
CONTINUOUS
10
141.597
20
-51.7016
11
141.6
21
-51.6964
0
LINE
8
BLACK
6
CONTINUOUS
10
141.6
20
-51.6964
11
141.603
21
-51.6912
0
LINE
8
BLACK
6
CONTINUOUS
10
141.603
20
-51.6912
11
141.603
21
-51.6911
0
LINE
8
BLACK
6
CONTINUOUS
10
141.603
20
-51.6911
11
141.603
21
-51.6909
0
LINE
8
BLACK
6
CONTINUOUS
10
141.603
20
-51.6909
11
141.607
21
-51.6864
0
LINE
8
BLACK
6
CONTINUOUS
10
141.607
20
-51.6864
11
141.611
21
-51.6818
0
LINE
8
BLACK
6
CONTINUOUS
10
141.611
20
-51.6818
11
141.611
21
-51.6817
0
LINE
8
BLACK
6
CONTINUOUS
10
141.611
20
-51.6817
11
141.611
21
-51.6815
0
LINE
8
BLACK
6
CONTINUOUS
10
141.611
20
-51.6815
11
141.616
21
-51.6778
0
LINE
8
BLACK
6
CONTINUOUS
10
141.616
20
-51.6778
11
141.62
21
-51.6741
0
LINE
8
BLACK
6
CONTINUOUS
10
141.62
20
-51.6741
11
141.62
21
-51.674
0
LINE
8
BLACK
6
CONTINUOUS
10
141.62
20
-51.674
11
141.621
21
-51.6739
0
LINE
8
BLACK
6
CONTINUOUS
10
141.621
20
-51.6739
11
141.626
21
-51.6712
0
LINE
8
BLACK
6
CONTINUOUS
10
141.626
20
-51.6712
11
141.631
21
-51.6684
0
LINE
8
BLACK
6
CONTINUOUS
10
141.631
20
-51.6684
11
141.631
21
-51.6683
0
LINE
8
BLACK
6
CONTINUOUS
10
141.631
20
-51.6683
11
141.631
21
-51.6682
0
LINE
8
BLACK
6
CONTINUOUS
10
141.631
20
-51.6682
11
141.637
21
-51.6666
0
LINE
8
BLACK
6
CONTINUOUS
10
141.637
20
-51.6666
11
141.643
21
-51.6649
0
LINE
8
BLACK
6
CONTINUOUS
10
141.643
20
-51.6649
11
141.643
21
-51.6649
0
LINE
8
BLACK
6
CONTINUOUS
10
141.643
20
-51.6649
11
141.643
21
-51.6648
0
LINE
8
BLACK
6
CONTINUOUS
10
141.643
20
-51.6648
11
141.649
21
-51.6643
0
LINE
8
BLACK
6
CONTINUOUS
10
141.649
20
-51.6643
11
141.655
21
-51.6637
0
LINE
8
BLACK
6
CONTINUOUS
10
141.655
20
-51.6637
11
141.845
21
-51.6637
0
LINE
8
BLACK
6
CONTINUOUS
10
141.845
20
-51.6637
11
141.846
21
-51.6637
0
LINE
8
BLACK
6
CONTINUOUS
10
141.717
20
-51.7887
11
141.717
21
-51.9256
0
LINE
8
BLACK
6
CONTINUOUS
10
141.717
20
-51.9256
11
141.83
21
-51.9256
0
LINE
8
BLACK
6
CONTINUOUS
10
141.83
20
-51.9256
11
141.856
21
-51.9129
0
LINE
8
BLACK
6
CONTINUOUS
10
141.856
20
-51.9129
11
141.865
21
-51.9035
0
LINE
8
BLACK
6
CONTINUOUS
10
141.865
20
-51.9035
11
141.878
21
-51.8781
0
LINE
8
BLACK
6
CONTINUOUS
10
141.878
20
-51.8781
11
141.878
21
-51.8362
0
LINE
8
BLACK
6
CONTINUOUS
10
141.878
20
-51.8362
11
141.865
21
-51.8108
0
LINE
8
BLACK
6
CONTINUOUS
10
141.865
20
-51.8108
11
141.856
21
-51.8014
0
LINE
8
BLACK
6
CONTINUOUS
10
141.856
20
-51.8014
11
141.83
21
-51.7887
0
LINE
8
BLACK
6
CONTINUOUS
10
141.83
20
-51.7887
11
141.717
21
-51.7887
0
LINE
8
BLACK
6
CONTINUOUS
10
147.965
20
-51.664
11
147.969
21
-51.6639
0
LINE
8
BLACK
6
CONTINUOUS
10
147.969
20
-51.6639
11
147.971
21
-51.6642
0
LINE
8
BLACK
6
CONTINUOUS
10
147.971
20
-51.6642
11
147.973
21
-51.6642
0
LINE
8
BLACK
6
CONTINUOUS
10
147.973
20
-51.6642
11
147.977
21
-51.6652
0
LINE
8
BLACK
6
CONTINUOUS
10
147.977
20
-51.6652
11
147.981
21
-51.666
0
LINE
8
BLACK
6
CONTINUOUS
10
147.981
20
-51.666
11
147.983
21
-51.6666
0
LINE
8
BLACK
6
CONTINUOUS
10
147.983
20
-51.6666
11
147.984
21
-51.667
0
LINE
8
BLACK
6
CONTINUOUS
10
147.984
20
-51.667
11
147.988
21
-51.6688
0
LINE
8
BLACK
6
CONTINUOUS
10
147.988
20
-51.6688
11
147.992
21
-51.6704
0
LINE
8
BLACK
6
CONTINUOUS
10
147.992
20
-51.6704
11
147.994
21
-51.6713
0
LINE
8
BLACK
6
CONTINUOUS
10
147.994
20
-51.6713
11
147.996
21
-51.6721
0
LINE
8
BLACK
6
CONTINUOUS
10
147.996
20
-51.6721
11
147.999
21
-51.6746
0
LINE
8
BLACK
6
CONTINUOUS
10
147.999
20
-51.6746
11
148.003
21
-51.6769
0
LINE
8
BLACK
6
CONTINUOUS
10
148.003
20
-51.6769
11
148.004
21
-51.6782
0
LINE
8
BLACK
6
CONTINUOUS
10
148.004
20
-51.6782
11
148.005
21
-51.6792
0
LINE
8
BLACK
6
CONTINUOUS
10
148.005
20
-51.6792
11
148.008
21
-51.6823
0
LINE
8
BLACK
6
CONTINUOUS
10
148.008
20
-51.6823
11
148.012
21
-51.6853
0
LINE
8
BLACK
6
CONTINUOUS
10
148.012
20
-51.6853
11
148.013
21
-51.6868
0
LINE
8
BLACK
6
CONTINUOUS
10
148.013
20
-51.6868
11
148.014
21
-51.6881
0
LINE
8
BLACK
6
CONTINUOUS
10
148.014
20
-51.6881
11
148.016
21
-51.6918
0
LINE
8
BLACK
6
CONTINUOUS
10
148.016
20
-51.6918
11
148.019
21
-51.6953
0
LINE
8
BLACK
6
CONTINUOUS
10
148.019
20
-51.6953
11
148.019
21
-51.6969
0
LINE
8
BLACK
6
CONTINUOUS
10
148.019
20
-51.6969
11
148.02
21
-51.6984
0
LINE
8
BLACK
6
CONTINUOUS
10
148.02
20
-51.6984
11
148.022
21
-51.7025
0
LINE
8
BLACK
6
CONTINUOUS
10
148.022
20
-51.7025
11
148.024
21
-51.7064
0
LINE
8
BLACK
6
CONTINUOUS
10
148.024
20
-51.7064
11
148.19
21
-52.2064
0
LINE
8
BLACK
6
CONTINUOUS
10
148.19
20
-52.2064
11
148.191
21
-52.2073
0
LINE
8
BLACK
6
CONTINUOUS
10
148.191
20
-52.2073
11
148.193
21
-52.2192
0
LINE
8
BLACK
6
CONTINUOUS
10
148.193
20
-52.2192
11
148.193
21
-52.2314
0
LINE
8
BLACK
6
CONTINUOUS
10
148.193
20
-52.2314
11
148.191
21
-52.2434
0
LINE
8
BLACK
6
CONTINUOUS
10
148.191
20
-52.2434
11
148.187
21
-52.2547
0
LINE
8
BLACK
6
CONTINUOUS
10
148.187
20
-52.2547
11
148.18
21
-52.265
0
LINE
8
BLACK
6
CONTINUOUS
10
148.18
20
-52.265
11
148.171
21
-52.2738
0
LINE
8
BLACK
6
CONTINUOUS
10
148.171
20
-52.2738
11
148.161
21
-52.2807
0
LINE
8
BLACK
6
CONTINUOUS
10
148.161
20
-52.2807
11
148.15
21
-52.2856
0
LINE
8
BLACK
6
CONTINUOUS
10
148.15
20
-52.2856
11
148.138
21
-52.2882
0
LINE
8
BLACK
6
CONTINUOUS
10
148.138
20
-52.2882
11
148.126
21
-52.2885
0
LINE
8
BLACK
6
CONTINUOUS
10
148.126
20
-52.2885
11
148.114
21
-52.2864
0
LINE
8
BLACK
6
CONTINUOUS
10
148.114
20
-52.2864
11
148.103
21
-52.282
0
LINE
8
BLACK
6
CONTINUOUS
10
148.103
20
-52.282
11
148.093
21
-52.2755
0
LINE
8
BLACK
6
CONTINUOUS
10
148.093
20
-52.2755
11
148.084
21
-52.2671
0
LINE
8
BLACK
6
CONTINUOUS
10
148.084
20
-52.2671
11
148.077
21
-52.2571
0
LINE
8
BLACK
6
CONTINUOUS
10
148.077
20
-52.2571
11
148.072
21
-52.246
0
LINE
8
BLACK
6
CONTINUOUS
10
148.072
20
-52.246
11
148.038
21
-52.1458
0
LINE
8
BLACK
6
CONTINUOUS
10
148.038
20
-52.1458
11
147.89
21
-52.1458
0
LINE
8
BLACK
6
CONTINUOUS
10
147.89
20
-52.1458
11
147.857
21
-52.246
0
LINE
8
BLACK
6
CONTINUOUS
10
147.857
20
-52.246
11
147.857
21
-52.2468
0
LINE
8
BLACK
6
CONTINUOUS
10
147.857
20
-52.2468
11
147.852
21
-52.2578
0
LINE
8
BLACK
6
CONTINUOUS
10
147.852
20
-52.2578
11
147.844
21
-52.2677
0
LINE
8
BLACK
6
CONTINUOUS
10
147.844
20
-52.2677
11
147.835
21
-52.276
0
LINE
8
BLACK
6
CONTINUOUS
10
147.835
20
-52.276
11
147.825
21
-52.2824
0
LINE
8
BLACK
6
CONTINUOUS
10
147.825
20
-52.2824
11
147.814
21
-52.2866
0
LINE
8
BLACK
6
CONTINUOUS
10
147.814
20
-52.2866
11
147.802
21
-52.2886
0
LINE
8
BLACK
6
CONTINUOUS
10
147.802
20
-52.2886
11
147.789
21
-52.2881
0
LINE
8
BLACK
6
CONTINUOUS
10
147.789
20
-52.2881
11
147.777
21
-52.2853
0
LINE
8
BLACK
6
CONTINUOUS
10
147.777
20
-52.2853
11
147.766
21
-52.2803
0
LINE
8
BLACK
6
CONTINUOUS
10
147.766
20
-52.2803
11
147.756
21
-52.2732
0
LINE
8
BLACK
6
CONTINUOUS
10
147.756
20
-52.2732
11
147.748
21
-52.2643
0
LINE
8
BLACK
6
CONTINUOUS
10
147.748
20
-52.2643
11
147.742
21
-52.2539
0
LINE
8
BLACK
6
CONTINUOUS
10
147.742
20
-52.2539
11
147.737
21
-52.2425
0
LINE
8
BLACK
6
CONTINUOUS
10
147.737
20
-52.2425
11
147.735
21
-52.2305
0
LINE
8
BLACK
6
CONTINUOUS
10
147.735
20
-52.2305
11
147.736
21
-52.2183
0
LINE
8
BLACK
6
CONTINUOUS
10
147.736
20
-52.2183
11
147.738
21
-52.2064
0
LINE
8
BLACK
6
CONTINUOUS
10
147.738
20
-52.2064
11
147.905
21
-51.7064
0
LINE
8
BLACK
6
CONTINUOUS
10
147.905
20
-51.7064
11
147.905
21
-51.7056
0
LINE
8
BLACK
6
CONTINUOUS
10
147.905
20
-51.7056
11
147.907
21
-51.7017
0
LINE
8
BLACK
6
CONTINUOUS
10
147.907
20
-51.7017
11
147.909
21
-51.6977
0
LINE
8
BLACK
6
CONTINUOUS
10
147.909
20
-51.6977
11
147.91
21
-51.6961
0
LINE
8
BLACK
6
CONTINUOUS
10
147.91
20
-51.6961
11
147.91
21
-51.6945
0
LINE
8
BLACK
6
CONTINUOUS
10
147.91
20
-51.6945
11
147.913
21
-51.691
0
LINE
8
BLACK
6
CONTINUOUS
10
147.913
20
-51.691
11
147.915
21
-51.6874
0
LINE
8
BLACK
6
CONTINUOUS
10
147.915
20
-51.6874
11
147.917
21
-51.6861
0
LINE
8
BLACK
6
CONTINUOUS
10
147.917
20
-51.6861
11
147.918
21
-51.6847
0
LINE
8
BLACK
6
CONTINUOUS
10
147.918
20
-51.6847
11
147.921
21
-51.6817
0
LINE
8
BLACK
6
CONTINUOUS
10
147.921
20
-51.6817
11
147.924
21
-51.6786
0
LINE
8
BLACK
6
CONTINUOUS
10
147.924
20
-51.6786
11
147.925
21
-51.6776
0
LINE
8
BLACK
6
CONTINUOUS
10
147.925
20
-51.6776
11
147.927
21
-51.6764
0
LINE
8
BLACK
6
CONTINUOUS
10
147.927
20
-51.6764
11
147.93
21
-51.6741
0
LINE
8
BLACK
6
CONTINUOUS
10
147.93
20
-51.6741
11
147.934
21
-51.6717
0
LINE
8
BLACK
6
CONTINUOUS
10
147.934
20
-51.6717
11
147.935
21
-51.6709
0
LINE
8
BLACK
6
CONTINUOUS
10
147.935
20
-51.6709
11
147.937
21
-51.67
0
LINE
8
BLACK
6
CONTINUOUS
10
147.937
20
-51.67
11
147.941
21
-51.6685
0
LINE
8
BLACK
6
CONTINUOUS
10
147.941
20
-51.6685
11
147.945
21
-51.6668
0
LINE
8
BLACK
6
CONTINUOUS
10
147.945
20
-51.6668
11
147.947
21
-51.6664
0
LINE
8
BLACK
6
CONTINUOUS
10
147.947
20
-51.6664
11
147.948
21
-51.6658
0
LINE
8
BLACK
6
CONTINUOUS
10
147.948
20
-51.6658
11
147.953
21
-51.6651
0
LINE
8
BLACK
6
CONTINUOUS
10
147.953
20
-51.6651
11
147.957
21
-51.6641
0
LINE
8
BLACK
6
CONTINUOUS
10
147.957
20
-51.6641
11
147.959
21
-51.6641
0
LINE
8
BLACK
6
CONTINUOUS
10
147.959
20
-51.6641
11
147.96
21
-51.6638
0
LINE
8
BLACK
6
CONTINUOUS
10
147.96
20
-51.6638
11
147.965
21
-51.664
0
LINE
8
BLACK
6
CONTINUOUS
10
147.932
20
-52.0208
11
147.997
21
-52.0208
0
LINE
8
BLACK
6
CONTINUOUS
10
147.997
20
-52.0208
11
147.964
21
-51.9238
0
LINE
8
BLACK
6
CONTINUOUS
10
147.964
20
-51.9238
11
147.932
21
-52.0208
0
LINE
8
BLACK
6
CONTINUOUS
10
148.949
20
-51.6642
11
148.961
21
-51.667
0
LINE
8
BLACK
6
CONTINUOUS
10
148.961
20
-51.667
11
148.972
21
-51.6721
0
LINE
8
BLACK
6
CONTINUOUS
10
148.972
20
-51.6721
11
148.982
21
-51.6792
0
LINE
8
BLACK
6
CONTINUOUS
10
148.982
20
-51.6792
11
148.99
21
-51.6881
0
LINE
8
BLACK
6
CONTINUOUS
10
148.99
20
-51.6881
11
148.996
21
-51.6984
0
LINE
8
BLACK
6
CONTINUOUS
10
148.996
20
-51.6984
11
149.001
21
-51.7098
0
LINE
8
BLACK
6
CONTINUOUS
10
149.001
20
-51.7098
11
149.003
21
-51.7219
0
LINE
8
BLACK
6
CONTINUOUS
10
149.003
20
-51.7219
11
149.002
21
-51.7341
0
LINE
8
BLACK
6
CONTINUOUS
10
149.002
20
-51.7341
11
149
21
-51.746
0
LINE
8
BLACK
6
CONTINUOUS
10
149
20
-51.746
11
148.833
21
-52.246
0
LINE
8
BLACK
6
CONTINUOUS
10
148.833
20
-52.246
11
148.833
21
-52.2468
0
LINE
8
BLACK
6
CONTINUOUS
10
148.833
20
-52.2468
11
148.831
21
-52.2507
0
LINE
8
BLACK
6
CONTINUOUS
10
148.831
20
-52.2507
11
148.829
21
-52.2547
0
LINE
8
BLACK
6
CONTINUOUS
10
148.829
20
-52.2547
11
148.828
21
-52.2562
0
LINE
8
BLACK
6
CONTINUOUS
10
148.828
20
-52.2562
11
148.828
21
-52.2578
0
LINE
8
BLACK
6
CONTINUOUS
10
148.828
20
-52.2578
11
148.825
21
-52.2613
0
LINE
8
BLACK
6
CONTINUOUS
10
148.825
20
-52.2613
11
148.823
21
-52.265
0
LINE
8
BLACK
6
CONTINUOUS
10
148.823
20
-52.265
11
148.822
21
-52.2663
0
LINE
8
BLACK
6
CONTINUOUS
10
148.822
20
-52.2663
11
148.821
21
-52.2677
0
LINE
8
BLACK
6
CONTINUOUS
10
148.821
20
-52.2677
11
148.817
21
-52.2706
0
LINE
8
BLACK
6
CONTINUOUS
10
148.817
20
-52.2706
11
148.814
21
-52.2738
0
LINE
8
BLACK
6
CONTINUOUS
10
148.814
20
-52.2738
11
148.813
21
-52.2748
0
LINE
8
BLACK
6
CONTINUOUS
10
148.813
20
-52.2748
11
148.812
21
-52.276
0
LINE
8
BLACK
6
CONTINUOUS
10
148.812
20
-52.276
11
148.808
21
-52.2783
0
LINE
8
BLACK
6
CONTINUOUS
10
148.808
20
-52.2783
11
148.804
21
-52.2807
0
LINE
8
BLACK
6
CONTINUOUS
10
148.804
20
-52.2807
11
148.803
21
-52.2814
0
LINE
8
BLACK
6
CONTINUOUS
10
148.803
20
-52.2814
11
148.801
21
-52.2824
0
LINE
8
BLACK
6
CONTINUOUS
10
148.801
20
-52.2824
11
148.797
21
-52.2839
0
LINE
8
BLACK
6
CONTINUOUS
10
148.797
20
-52.2839
11
148.793
21
-52.2856
0
LINE
8
BLACK
6
CONTINUOUS
10
148.793
20
-52.2856
11
148.791
21
-52.286
0
LINE
8
BLACK
6
CONTINUOUS
10
148.791
20
-52.286
11
148.79
21
-52.2866
0
LINE
8
BLACK
6
CONTINUOUS
10
148.79
20
-52.2866
11
148.785
21
-52.2873
0
LINE
8
BLACK
6
CONTINUOUS
10
148.785
20
-52.2873
11
148.781
21
-52.2882
0
LINE
8
BLACK
6
CONTINUOUS
10
148.781
20
-52.2882
11
148.779
21
-52.2883
0
LINE
8
BLACK
6
CONTINUOUS
10
148.779
20
-52.2883
11
148.778
21
-52.2886
0
LINE
8
BLACK
6
CONTINUOUS
10
148.778
20
-52.2886
11
148.773
21
-52.2884
0
LINE
8
BLACK
6
CONTINUOUS
10
148.773
20
-52.2884
11
148.769
21
-52.2885
0
LINE
8
BLACK
6
CONTINUOUS
10
148.769
20
-52.2885
11
148.767
21
-52.2882
0
LINE
8
BLACK
6
CONTINUOUS
10
148.767
20
-52.2882
11
148.766
21
-52.2881
0
LINE
8
BLACK
6
CONTINUOUS
10
148.766
20
-52.2881
11
148.761
21
-52.2871
0
LINE
8
BLACK
6
CONTINUOUS
10
148.761
20
-52.2871
11
148.757
21
-52.2864
0
LINE
8
BLACK
6
CONTINUOUS
10
148.757
20
-52.2864
11
148.755
21
-52.2858
0
LINE
8
BLACK
6
CONTINUOUS
10
148.755
20
-52.2858
11
148.754
21
-52.2853
0
LINE
8
BLACK
6
CONTINUOUS
10
148.754
20
-52.2853
11
148.75
21
-52.2836
0
LINE
8
BLACK
6
CONTINUOUS
10
148.75
20
-52.2836
11
148.746
21
-52.282
0
LINE
8
BLACK
6
CONTINUOUS
10
148.746
20
-52.282
11
148.744
21
-52.281
0
LINE
8
BLACK
6
CONTINUOUS
10
148.744
20
-52.281
11
148.743
21
-52.2803
0
LINE
8
BLACK
6
CONTINUOUS
10
148.743
20
-52.2803
11
148.739
21
-52.2778
0
LINE
8
BLACK
6
CONTINUOUS
10
148.739
20
-52.2778
11
148.735
21
-52.2755
0
LINE
8
BLACK
6
CONTINUOUS
10
148.735
20
-52.2755
11
148.734
21
-52.2742
0
LINE
8
BLACK
6
CONTINUOUS
10
148.734
20
-52.2742
11
148.733
21
-52.2732
0
LINE
8
BLACK
6
CONTINUOUS
10
148.733
20
-52.2732
11
148.73
21
-52.27
0
LINE
8
BLACK
6
CONTINUOUS
10
148.73
20
-52.27
11
148.727
21
-52.2671
0
LINE
8
BLACK
6
CONTINUOUS
10
148.727
20
-52.2671
11
148.725
21
-52.2656
0
LINE
8
BLACK
6
CONTINUOUS
10
148.725
20
-52.2656
11
148.724
21
-52.2643
0
LINE
8
BLACK
6
CONTINUOUS
10
148.724
20
-52.2643
11
148.722
21
-52.2606
0
LINE
8
BLACK
6
CONTINUOUS
10
148.722
20
-52.2606
11
148.719
21
-52.2571
0
LINE
8
BLACK
6
CONTINUOUS
10
148.719
20
-52.2571
11
148.719
21
-52.2555
0
LINE
8
BLACK
6
CONTINUOUS
10
148.719
20
-52.2555
11
148.718
21
-52.2539
0
LINE
8
BLACK
6
CONTINUOUS
10
148.718
20
-52.2539
11
148.716
21
-52.2499
0
LINE
8
BLACK
6
CONTINUOUS
10
148.716
20
-52.2499
11
148.715
21
-52.246
0
LINE
8
BLACK
6
CONTINUOUS
10
148.715
20
-52.246
11
148.548
21
-51.746
0
LINE
8
BLACK
6
CONTINUOUS
10
148.548
20
-51.746
11
148.548
21
-51.7451
0
LINE
8
BLACK
6
CONTINUOUS
10
148.548
20
-51.7451
11
148.545
21
-51.7332
0
LINE
8
BLACK
6
CONTINUOUS
10
148.545
20
-51.7332
11
148.545
21
-51.721
0
LINE
8
BLACK
6
CONTINUOUS
10
148.545
20
-51.721
11
148.547
21
-51.709
0
LINE
8
BLACK
6
CONTINUOUS
10
148.547
20
-51.709
11
148.552
21
-51.6977
0
LINE
8
BLACK
6
CONTINUOUS
10
148.552
20
-51.6977
11
148.558
21
-51.6874
0
LINE
8
BLACK
6
CONTINUOUS
10
148.558
20
-51.6874
11
148.567
21
-51.6786
0
LINE
8
BLACK
6
CONTINUOUS
10
148.567
20
-51.6786
11
148.577
21
-51.6717
0
LINE
8
BLACK
6
CONTINUOUS
10
148.577
20
-51.6717
11
148.588
21
-51.6668
0
LINE
8
BLACK
6
CONTINUOUS
10
148.588
20
-51.6668
11
148.6
21
-51.6641
0
LINE
8
BLACK
6
CONTINUOUS
10
148.6
20
-51.6641
11
148.612
21
-51.6639
0
LINE
8
BLACK
6
CONTINUOUS
10
148.612
20
-51.6639
11
148.624
21
-51.666
0
LINE
8
BLACK
6
CONTINUOUS
10
148.624
20
-51.666
11
148.635
21
-51.6704
0
LINE
8
BLACK
6
CONTINUOUS
10
148.635
20
-51.6704
11
148.646
21
-51.6769
0
LINE
8
BLACK
6
CONTINUOUS
10
148.646
20
-51.6769
11
148.654
21
-51.6853
0
LINE
8
BLACK
6
CONTINUOUS
10
148.654
20
-51.6853
11
148.661
21
-51.6953
0
LINE
8
BLACK
6
CONTINUOUS
10
148.661
20
-51.6953
11
148.666
21
-51.7064
0
LINE
8
BLACK
6
CONTINUOUS
10
148.666
20
-51.7064
11
148.774
21
-52.0285
0
LINE
8
BLACK
6
CONTINUOUS
10
148.774
20
-52.0285
11
148.881
21
-51.7064
0
LINE
8
BLACK
6
CONTINUOUS
10
148.881
20
-51.7064
11
148.881
21
-51.7056
0
LINE
8
BLACK
6
CONTINUOUS
10
148.881
20
-51.7056
11
148.887
21
-51.6945
0
LINE
8
BLACK
6
CONTINUOUS
10
148.887
20
-51.6945
11
148.894
21
-51.6847
0
LINE
8
BLACK
6
CONTINUOUS
10
148.894
20
-51.6847
11
148.903
21
-51.6764
0
LINE
8
BLACK
6
CONTINUOUS
10
148.903
20
-51.6764
11
148.913
21
-51.67
0
LINE
8
BLACK
6
CONTINUOUS
10
148.913
20
-51.67
11
148.925
21
-51.6658
0
LINE
8
BLACK
6
CONTINUOUS
10
148.925
20
-51.6658
11
148.937
21
-51.6638
0
LINE
8
BLACK
6
CONTINUOUS
10
148.937
20
-51.6638
11
148.949
21
-51.6642
0
LINE
8
BLACK
6
CONTINUOUS
10
145.679
20
-51.9732
11
145.692
21
-51.9746
0
LINE
8
BLACK
6
CONTINUOUS
10
145.692
20
-51.9746
11
145.703
21
-51.9783
0
LINE
8
BLACK
6
CONTINUOUS
10
145.703
20
-51.9783
11
145.714
21
-51.9841
0
LINE
8
BLACK
6
CONTINUOUS
10
145.714
20
-51.9841
11
145.723
21
-51.992
0
LINE
8
BLACK
6
CONTINUOUS
10
145.723
20
-51.992
11
145.731
21
-52.0015
0
LINE
8
BLACK
6
CONTINUOUS
10
145.731
20
-52.0015
11
145.737
21
-52.0123
0
LINE
8
BLACK
6
CONTINUOUS
10
145.737
20
-52.0123
11
145.74
21
-52.024
0
LINE
8
BLACK
6
CONTINUOUS
10
145.74
20
-52.024
11
145.741
21
-52.0361
0
LINE
8
BLACK
6
CONTINUOUS
10
145.741
20
-52.0361
11
145.74
21
-52.0483
0
LINE
8
BLACK
6
CONTINUOUS
10
145.74
20
-52.0483
11
145.736
21
-52.0599
0
LINE
8
BLACK
6
CONTINUOUS
10
145.736
20
-52.0599
11
145.73
21
-52.0707
0
LINE
8
BLACK
6
CONTINUOUS
10
145.73
20
-52.0707
11
145.723
21
-52.0801
0
LINE
8
BLACK
6
CONTINUOUS
10
145.723
20
-52.0801
11
145.713
21
-52.0878
0
LINE
8
BLACK
6
CONTINUOUS
10
145.713
20
-52.0878
11
145.702
21
-52.0935
0
LINE
8
BLACK
6
CONTINUOUS
10
145.702
20
-52.0935
11
145.691
21
-52.097
0
LINE
8
BLACK
6
CONTINUOUS
10
145.691
20
-52.097
11
145.679
21
-52.0982
0
LINE
8
BLACK
6
CONTINUOUS
10
145.679
20
-52.0982
11
145.298
21
-52.0982
0
LINE
8
BLACK
6
CONTINUOUS
10
145.298
20
-52.0982
11
145.297
21
-52.0982
0
LINE
8
BLACK
6
CONTINUOUS
10
145.297
20
-52.0982
11
145.285
21
-52.0968
0
LINE
8
BLACK
6
CONTINUOUS
10
145.285
20
-52.0968
11
145.273
21
-52.0932
0
LINE
8
BLACK
6
CONTINUOUS
10
145.273
20
-52.0932
11
145.262
21
-52.0873
0
LINE
8
BLACK
6
CONTINUOUS
10
145.262
20
-52.0873
11
145.253
21
-52.0794
0
LINE
8
BLACK
6
CONTINUOUS
10
145.253
20
-52.0794
11
145.245
21
-52.0699
0
LINE
8
BLACK
6
CONTINUOUS
10
145.245
20
-52.0699
11
145.24
21
-52.0591
0
LINE
8
BLACK
6
CONTINUOUS
10
145.24
20
-52.0591
11
145.236
21
-52.0474
0
LINE
8
BLACK
6
CONTINUOUS
10
145.236
20
-52.0474
11
145.235
21
-52.0353
0
LINE
8
BLACK
6
CONTINUOUS
10
145.235
20
-52.0353
11
145.236
21
-52.0231
0
LINE
8
BLACK
6
CONTINUOUS
10
145.236
20
-52.0231
11
145.24
21
-52.0115
0
LINE
8
BLACK
6
CONTINUOUS
10
145.24
20
-52.0115
11
145.246
21
-52.0008
0
LINE
8
BLACK
6
CONTINUOUS
10
145.246
20
-52.0008
11
145.254
21
-51.9914
0
LINE
8
BLACK
6
CONTINUOUS
10
145.254
20
-51.9914
11
145.263
21
-51.9837
0
LINE
8
BLACK
6
CONTINUOUS
10
145.263
20
-51.9837
11
145.274
21
-51.9779
0
LINE
8
BLACK
6
CONTINUOUS
10
145.274
20
-51.9779
11
145.285
21
-51.9744
0
LINE
8
BLACK
6
CONTINUOUS
10
145.285
20
-51.9744
11
145.298
21
-51.9732
0
LINE
8
BLACK
6
CONTINUOUS
10
145.298
20
-51.9732
11
145.679
21
-51.9732
0
LINE
8
BLACK
6
CONTINUOUS
10
145.679
20
-51.9732
11
145.679
21
-51.9732
  0
ENDSEC
  0
EOF
