  0
SECTION
  2
HEADER
  9
$ANGBASE
  50
0.0
  9
$ANGDIR
  70
1
  9
$MEASUREMENT
  70
1
  0
ENDSEC
  0
SECTION
  2
TABLES
  0
TABLE
  2
LTYPE
  70
4
  0
LTYPE
  5
40F
  2
CONTINUOUS
  70
0
  3
Solid line
  72
65
  73
0
  40
0.0
  0
LTYPE
  5
410
  2
DASHDOT
 70
0
  3
Dash Dot ____ _ ____ _
 72
65
 73
4
 40
2.0
 49
1.25
 49
-0.25
 49
0.25
 49
-0.25
  0
LTYPE
  5
411
  2
DASHED
 70
0
  3
Dashed __ __ __ __ __
 72
65
 73
2
 40
0.75
 49
0.5
 49
-0.25
  0
LTYPE
  5
43B
  2
DOTTED
 70
0
  3
Dotted .  .  .  .
 72
65
 73
2
 40
0.2
 49
0.0
 49
-0.2
  0
ENDTAB
  0
TABLE
  2
STYLE
  70
4
  0
STYLE
  2
KICAD
  70
0
  40
0
  41
1
  42
1
  50
0
  71
0
  3
isocp.shx
  0
STYLE
  2
KICADB
  70
0
  40
0
  41
1
  42
1
  50
0
  71
0
  3
isocp.shx
  0
STYLE
  2
KICADI
  70
0
  40
0
  41
1
  42
1
  50
15
  71
0
  3
isocp.shx
  0
STYLE
  2
KICADBI
  70
0
  40
0
  41
1
  42
1
  50
15
  71
0
  3
isocp.shx
  0
ENDTAB
  0
TABLE
  2
LAYER
  70
1
  0
LAYER
  2
BLACK
  70
0
  62
7
  6
CONTINUOUS
  0
ENDTAB
  0
ENDSEC
  0
SECTION
  2
ENTITIES
0
LINE
8
BLACK
6
CONTINUOUS
10
150
20
-59.9874
11
150
21
-59.9875
0
LINE
8
BLACK
6
CONTINUOUS
10
150
20
-59.9875
11
150
21
-59.9886
0
LINE
8
BLACK
6
CONTINUOUS
10
150
20
-59.9886
11
150
21
-59.9899
0
LINE
8
BLACK
6
CONTINUOUS
10
150
20
-59.9899
11
150
21
-59.9899
0
LINE
8
BLACK
6
CONTINUOUS
10
150
20
-59.9899
11
150
21
-59.9899
0
LINE
8
BLACK
6
CONTINUOUS
10
150
20
-59.9899
11
149.999
21
-59.991
0
LINE
8
BLACK
6
CONTINUOUS
10
149.999
20
-59.991
11
149.999
21
-59.9922
0
LINE
8
BLACK
6
CONTINUOUS
10
149.999
20
-59.9922
11
149.999
21
-59.9923
0
LINE
8
BLACK
6
CONTINUOUS
10
149.999
20
-59.9923
11
149.999
21
-59.9923
0
LINE
8
BLACK
6
CONTINUOUS
10
149.999
20
-59.9923
11
149.998
21
-59.9933
0
LINE
8
BLACK
6
CONTINUOUS
10
149.998
20
-59.9933
11
149.998
21
-59.9944
0
LINE
8
BLACK
6
CONTINUOUS
10
149.998
20
-59.9944
11
149.998
21
-59.9944
0
LINE
8
BLACK
6
CONTINUOUS
10
149.998
20
-59.9944
11
149.998
21
-59.9945
0
LINE
8
BLACK
6
CONTINUOUS
10
149.998
20
-59.9945
11
149.997
21
-59.9954
0
LINE
8
BLACK
6
CONTINUOUS
10
149.997
20
-59.9954
11
149.996
21
-59.9963
0
LINE
8
BLACK
6
CONTINUOUS
10
149.996
20
-59.9963
11
149.996
21
-59.9963
0
LINE
8
BLACK
6
CONTINUOUS
10
149.996
20
-59.9963
11
149.996
21
-59.9964
0
LINE
8
BLACK
6
CONTINUOUS
10
149.996
20
-59.9964
11
149.995
21
-59.9971
0
LINE
8
BLACK
6
CONTINUOUS
10
149.995
20
-59.9971
11
149.994
21
-59.9979
0
LINE
8
BLACK
6
CONTINUOUS
10
149.994
20
-59.9979
11
149.994
21
-59.9979
0
LINE
8
BLACK
6
CONTINUOUS
10
149.994
20
-59.9979
11
149.994
21
-59.9979
0
LINE
8
BLACK
6
CONTINUOUS
10
149.994
20
-59.9979
11
149.993
21
-59.9985
0
LINE
8
BLACK
6
CONTINUOUS
10
149.993
20
-59.9985
11
149.992
21
-59.999
0
LINE
8
BLACK
6
CONTINUOUS
10
149.992
20
-59.999
11
149.992
21
-59.9991
0
LINE
8
BLACK
6
CONTINUOUS
10
149.992
20
-59.9991
11
149.992
21
-59.9991
0
LINE
8
BLACK
6
CONTINUOUS
10
149.992
20
-59.9991
11
149.991
21
-59.9994
0
LINE
8
BLACK
6
CONTINUOUS
10
149.991
20
-59.9994
11
149.99
21
-59.9998
0
LINE
8
BLACK
6
CONTINUOUS
10
149.99
20
-59.9998
11
149.99
21
-59.9998
0
LINE
8
BLACK
6
CONTINUOUS
10
149.99
20
-59.9998
11
149.99
21
-59.9998
0
LINE
8
BLACK
6
CONTINUOUS
10
149.99
20
-59.9998
11
149.988
21
-59.9999
0
LINE
8
BLACK
6
CONTINUOUS
10
149.988
20
-59.9999
11
149.987
21
-60
0
LINE
8
BLACK
6
CONTINUOUS
10
149.987
20
-60
11
140.013
21
-60
0
LINE
8
BLACK
6
CONTINUOUS
10
140.013
20
-60
11
140.013
21
-60
0
LINE
8
BLACK
6
CONTINUOUS
10
140.013
20
-60
11
140.013
21
-60
0
LINE
8
BLACK
6
CONTINUOUS
10
140.013
20
-60
11
140.011
21
-59.9999
0
LINE
8
BLACK
6
CONTINUOUS
10
140.011
20
-59.9999
11
140.01
21
-59.9997
0
LINE
8
BLACK
6
CONTINUOUS
10
140.01
20
-59.9997
11
140.01
21
-59.9997
0
LINE
8
BLACK
6
CONTINUOUS
10
140.01
20
-59.9997
11
140.01
21
-59.9997
0
LINE
8
BLACK
6
CONTINUOUS
10
140.01
20
-59.9997
11
140.009
21
-59.9994
0
LINE
8
BLACK
6
CONTINUOUS
10
140.009
20
-59.9994
11
140.008
21
-59.999
0
LINE
8
BLACK
6
CONTINUOUS
10
140.008
20
-59.999
11
140.008
21
-59.999
0
LINE
8
BLACK
6
CONTINUOUS
10
140.008
20
-59.999
11
140.008
21
-59.999
0
LINE
8
BLACK
6
CONTINUOUS
10
140.008
20
-59.999
11
140.007
21
-59.9984
0
LINE
8
BLACK
6
CONTINUOUS
10
140.007
20
-59.9984
11
140.006
21
-59.9978
0
LINE
8
BLACK
6
CONTINUOUS
10
140.006
20
-59.9978
11
140.006
21
-59.9978
0
LINE
8
BLACK
6
CONTINUOUS
10
140.006
20
-59.9978
11
140.006
21
-59.9978
0
LINE
8
BLACK
6
CONTINUOUS
10
140.006
20
-59.9978
11
140.005
21
-59.997
0
LINE
8
BLACK
6
CONTINUOUS
10
140.005
20
-59.997
11
140.004
21
-59.9962
0
LINE
8
BLACK
6
CONTINUOUS
10
140.004
20
-59.9962
11
140.004
21
-59.9962
0
LINE
8
BLACK
6
CONTINUOUS
10
140.004
20
-59.9962
11
140.004
21
-59.9962
0
LINE
8
BLACK
6
CONTINUOUS
10
140.004
20
-59.9962
11
140.003
21
-59.9952
0
LINE
8
BLACK
6
CONTINUOUS
10
140.003
20
-59.9952
11
140.002
21
-59.9943
0
LINE
8
BLACK
6
CONTINUOUS
10
140.002
20
-59.9943
11
140.002
21
-59.9943
0
LINE
8
BLACK
6
CONTINUOUS
10
140.002
20
-59.9943
11
140.002
21
-59.9943
0
LINE
8
BLACK
6
CONTINUOUS
10
140.002
20
-59.9943
11
140.002
21
-59.9932
0
LINE
8
BLACK
6
CONTINUOUS
10
140.002
20
-59.9932
11
140.001
21
-59.9921
0
LINE
8
BLACK
6
CONTINUOUS
10
140.001
20
-59.9921
11
140.001
21
-59.9921
0
LINE
8
BLACK
6
CONTINUOUS
10
140.001
20
-59.9921
11
140.001
21
-59.9921
0
LINE
8
BLACK
6
CONTINUOUS
10
140.001
20
-59.9921
11
140.001
21
-59.9909
0
LINE
8
BLACK
6
CONTINUOUS
10
140.001
20
-59.9909
11
140
21
-59.9898
0
LINE
8
BLACK
6
CONTINUOUS
10
140
20
-59.9898
11
140
21
-59.9897
0
LINE
8
BLACK
6
CONTINUOUS
10
140
20
-59.9897
11
140
21
-59.9897
0
LINE
8
BLACK
6
CONTINUOUS
10
140
20
-59.9897
11
140
21
-59.9885
0
LINE
8
BLACK
6
CONTINUOUS
10
140
20
-59.9885
11
140
21
-59.9873
0
LINE
8
BLACK
6
CONTINUOUS
10
140
20
-59.9873
11
140
21
-50.0126
0
LINE
8
BLACK
6
CONTINUOUS
10
140
20
-50.0126
11
140
21
-50.0126
0
LINE
8
BLACK
6
CONTINUOUS
10
140
20
-50.0126
11
140
21
-50.0125
0
LINE
8
BLACK
6
CONTINUOUS
10
140
20
-50.0125
11
140
21
-50.0114
0
LINE
8
BLACK
6
CONTINUOUS
10
140
20
-50.0114
11
140
21
-50.0101
0
LINE
8
BLACK
6
CONTINUOUS
10
140
20
-50.0101
11
140
21
-50.0101
0
LINE
8
BLACK
6
CONTINUOUS
10
140
20
-50.0101
11
140
21
-50.0101
0
LINE
8
BLACK
6
CONTINUOUS
10
140
20
-50.0101
11
140.001
21
-50.009
0
LINE
8
BLACK
6
CONTINUOUS
10
140.001
20
-50.009
11
140.001
21
-50.0078
0
LINE
8
BLACK
6
CONTINUOUS
10
140.001
20
-50.0078
11
140.001
21
-50.0077
0
LINE
8
BLACK
6
CONTINUOUS
10
140.001
20
-50.0077
11
140.001
21
-50.0077
0
LINE
8
BLACK
6
CONTINUOUS
10
140.001
20
-50.0077
11
140.002
21
-50.0067
0
LINE
8
BLACK
6
CONTINUOUS
10
140.002
20
-50.0067
11
140.002
21
-50.0056
0
LINE
8
BLACK
6
CONTINUOUS
10
140.002
20
-50.0056
11
140.002
21
-50.0056
0
LINE
8
BLACK
6
CONTINUOUS
10
140.002
20
-50.0056
11
140.002
21
-50.0055
0
LINE
8
BLACK
6
CONTINUOUS
10
140.002
20
-50.0055
11
140.003
21
-50.0046
0
LINE
8
BLACK
6
CONTINUOUS
10
140.003
20
-50.0046
11
140.004
21
-50.0037
0
LINE
8
BLACK
6
CONTINUOUS
10
140.004
20
-50.0037
11
140.004
21
-50.0037
0
LINE
8
BLACK
6
CONTINUOUS
10
140.004
20
-50.0037
11
140.004
21
-50.0036
0
LINE
8
BLACK
6
CONTINUOUS
10
140.004
20
-50.0036
11
140.005
21
-50.0029
0
LINE
8
BLACK
6
CONTINUOUS
10
140.005
20
-50.0029
11
140.006
21
-50.0021
0
LINE
8
BLACK
6
CONTINUOUS
10
140.006
20
-50.0021
11
140.006
21
-50.0021
0
LINE
8
BLACK
6
CONTINUOUS
10
140.006
20
-50.0021
11
140.006
21
-50.0021
0
LINE
8
BLACK
6
CONTINUOUS
10
140.006
20
-50.0021
11
140.007
21
-50.0015
0
LINE
8
BLACK
6
CONTINUOUS
10
140.007
20
-50.0015
11
140.008
21
-50.001
0
LINE
8
BLACK
6
CONTINUOUS
10
140.008
20
-50.001
11
140.008
21
-50.0009
0
LINE
8
BLACK
6
CONTINUOUS
10
140.008
20
-50.0009
11
140.008
21
-50.0009
0
LINE
8
BLACK
6
CONTINUOUS
10
140.008
20
-50.0009
11
140.009
21
-50.0006
0
LINE
8
BLACK
6
CONTINUOUS
10
140.009
20
-50.0006
11
140.01
21
-50.0002
0
LINE
8
BLACK
6
CONTINUOUS
10
140.01
20
-50.0002
11
140.01
21
-50.0002
0
LINE
8
BLACK
6
CONTINUOUS
10
140.01
20
-50.0002
11
140.01
21
-50.0002
0
LINE
8
BLACK
6
CONTINUOUS
10
140.01
20
-50.0002
11
140.012
21
-50.0001
0
LINE
8
BLACK
6
CONTINUOUS
10
140.012
20
-50.0001
11
140.013
21
-50
0
LINE
8
BLACK
6
CONTINUOUS
10
140.013
20
-50
11
149.987
21
-50
0
LINE
8
BLACK
6
CONTINUOUS
10
149.987
20
-50
11
149.987
21
-50
0
LINE
8
BLACK
6
CONTINUOUS
10
149.987
20
-50
11
149.987
21
-50
0
LINE
8
BLACK
6
CONTINUOUS
10
149.987
20
-50
11
149.989
21
-50.0001
0
LINE
8
BLACK
6
CONTINUOUS
10
149.989
20
-50.0001
11
149.99
21
-50.0003
0
LINE
8
BLACK
6
CONTINUOUS
10
149.99
20
-50.0003
11
149.99
21
-50.0003
0
LINE
8
BLACK
6
CONTINUOUS
10
149.99
20
-50.0003
11
149.99
21
-50.0003
0
LINE
8
BLACK
6
CONTINUOUS
10
149.99
20
-50.0003
11
149.991
21
-50.0006
0
LINE
8
BLACK
6
CONTINUOUS
10
149.991
20
-50.0006
11
149.992
21
-50.001
0
LINE
8
BLACK
6
CONTINUOUS
10
149.992
20
-50.001
11
149.992
21
-50.001
0
LINE
8
BLACK
6
CONTINUOUS
10
149.992
20
-50.001
11
149.992
21
-50.001
0
LINE
8
BLACK
6
CONTINUOUS
10
149.992
20
-50.001
11
149.993
21
-50.0016
0
LINE
8
BLACK
6
CONTINUOUS
10
149.993
20
-50.0016
11
149.994
21
-50.0022
0
LINE
8
BLACK
6
CONTINUOUS
10
149.994
20
-50.0022
11
149.994
21
-50.0022
0
LINE
8
BLACK
6
CONTINUOUS
10
149.994
20
-50.0022
11
149.994
21
-50.0022
0
LINE
8
BLACK
6
CONTINUOUS
10
149.994
20
-50.0022
11
149.995
21
-50.003
0
LINE
8
BLACK
6
CONTINUOUS
10
149.995
20
-50.003
11
149.996
21
-50.0038
0
LINE
8
BLACK
6
CONTINUOUS
10
149.996
20
-50.0038
11
149.996
21
-50.0038
0
LINE
8
BLACK
6
CONTINUOUS
10
149.996
20
-50.0038
11
149.996
21
-50.0038
0
LINE
8
BLACK
6
CONTINUOUS
10
149.996
20
-50.0038
11
149.997
21
-50.0047
0
LINE
8
BLACK
6
CONTINUOUS
10
149.997
20
-50.0047
11
149.998
21
-50.0057
0
LINE
8
BLACK
6
CONTINUOUS
10
149.998
20
-50.0057
11
149.998
21
-50.0057
0
LINE
8
BLACK
6
CONTINUOUS
10
149.998
20
-50.0057
11
149.998
21
-50.0057
0
LINE
8
BLACK
6
CONTINUOUS
10
149.998
20
-50.0057
11
149.998
21
-50.0068
0
LINE
8
BLACK
6
CONTINUOUS
10
149.998
20
-50.0068
11
149.999
21
-50.0079
0
LINE
8
BLACK
6
CONTINUOUS
10
149.999
20
-50.0079
11
149.999
21
-50.0079
0
LINE
8
BLACK
6
CONTINUOUS
10
149.999
20
-50.0079
11
149.999
21
-50.0079
0
LINE
8
BLACK
6
CONTINUOUS
10
149.999
20
-50.0079
11
149.999
21
-50.0091
0
LINE
8
BLACK
6
CONTINUOUS
10
149.999
20
-50.0091
11
150
21
-50.0102
0
LINE
8
BLACK
6
CONTINUOUS
10
150
20
-50.0102
11
150
21
-50.0103
0
LINE
8
BLACK
6
CONTINUOUS
10
150
20
-50.0103
11
150
21
-50.0103
0
LINE
8
BLACK
6
CONTINUOUS
10
150
20
-50.0103
11
150
21
-50.0115
0
LINE
8
BLACK
6
CONTINUOUS
10
150
20
-50.0115
11
150
21
-50.0127
0
LINE
8
BLACK
6
CONTINUOUS
10
150
20
-50.0127
11
150
21
-59.9874
0
LINE
8
BLACK
6
CONTINUOUS
10
150
20
-59.9874
11
150
21
-59.9874
  0
ENDSEC
  0
EOF
