<?xml version="1.0" standalone="no"?>
 <!DOCTYPE svg PUBLIC "-//W3C//DTD SVG 1.1//EN" 
 "http://www.w3.org/Graphics/SVG/1.1/DTD/svg11.dtd"> 
<svg xmlns="http://www.w3.org/2000/svg" version="1.1" 
    width="29.7002cm" height="21.0007cm" viewBox="0 0 116930 82680 ">
<title>SVG Picture created as hmcdaughter_dac-F.Cu.svg date 2019/04/03 14:01:24 </title>
  <desc>Picture generated by PCBNEW </desc>
<g style="fill:#000000; fill-opacity:1;stroke:#000000; stroke-opacity:1;
stroke-linecap:round; stroke-linejoin:round; "
 transform="translate(0 0) scale(1 1)">
</g>
<g style="fill:#C2C200; fill-opacity:0.0; 
stroke:#C2C200; stroke-width:-0.000393701; stroke-opacity:1; 
stroke-linecap:round; stroke-linejoin:round;">
</g>
<g style="fill:#C2C200; fill-opacity:0.0; 
stroke:#C2C200; stroke-width:59.0551; stroke-opacity:1; 
stroke-linecap:round; stroke-linejoin:round;">
<circle cx="60400" cy="45600" r="656.168" /> 
<path d="M59415 45600
L61384 45600
" />
<path d="M60400 44615
L60400 46584
" />
<path d="M60796 45450
L69403 45450
" />
<path d="M69400 45450
L69400 37450
" />
<path d="M60800 45450
L60800 37450
" />
<path d="M61746 33000
L68453 33000
" />
<path d="M60800 37450 A900 900 0.0 0 0 61700 36550 " />
<path d="M68500 36550 A900 900 0.0 0 0 69400 37450 " />
<path d="M68500 36550
L68500 33050
" />
<path d="M61700 36550
L61700 33050
" />
<path d="M61750 33000 A50 50 0.0 0 0 61700 33050 " />
<path d="M68500 33050 A50 50 0.0 0 0 68450 33000 " />
<circle cx="0" cy="0" r="262.467" /> 
<path d="M-393 0
L393 0
" />
<path d="M0 -393
L0 393
" />
</g>
<g style="fill:#840000; fill-opacity:0.0; 
stroke:#840000; stroke-width:59.0551; stroke-opacity:1; 
stroke-linecap:round; stroke-linejoin:round;">
</g>
<g style="fill:#840000; fill-opacity:1.0; 
stroke:#840000; stroke-width:0; stroke-opacity:1; 
stroke-linecap:round; stroke-linejoin:round;">
<circle cx="66160" cy="40080" r="295.276" /> 
</g>
<g style="fill:#840000; fill-opacity:1.0; 
stroke:#840000; stroke-width:39.3701; stroke-opacity:1; 
stroke-linecap:round; stroke-linejoin:round;">
</g>
<g style="fill:#840000; fill-opacity:1.0; 
stroke:#840000; stroke-width:0; stroke-opacity:1; 
stroke-linecap:round; stroke-linejoin:round;">
<circle cx="67105" cy="44325" r="590.551" /> 
</g>
<g style="fill:#840000; fill-opacity:1.0; 
stroke:#840000; stroke-width:39.3701; stroke-opacity:1; 
stroke-linecap:round; stroke-linejoin:round;">
</g>
<g style="fill:#840000; fill-opacity:1.0; 
stroke:#840000; stroke-width:0; stroke-opacity:1; 
stroke-linecap:round; stroke-linejoin:round;">
<polyline style="fill-rule:evenodd;"
points="63683,33728
63683,33473
64100,33473
64100,33728
63683,33728
" /> 
<polyline style="fill-rule:evenodd;"
points="63683,34102
63683,33847
64100,33847
64100,34102
63683,34102
" /> 
<polyline style="fill-rule:evenodd;"
points="63683,34476
63683,34221
64100,34221
64100,34476
63683,34476
" /> 
<polyline style="fill-rule:evenodd;"
points="64549,34476
64549,34221
64966,34221
64966,34476
64549,34476
" /> 
<polyline style="fill-rule:evenodd;"
points="64549,33728
64549,33473
64966,33473
64966,33728
64549,33728
" /> 
<polyline style="fill-rule:evenodd;"
points="64549,34102
64549,33847
64966,33847
64966,34102
64549,34102
" /> 
<polyline style="fill-rule:evenodd;"
points="63437,33382
63437,34367
63043,34367
63043,33382
63437,33382
" /> 
<polyline style="fill-rule:evenodd;"
points="62256,33382
62256,34367
61862,34367
61862,33382
62256,33382
" /> 
<polyline style="fill-rule:evenodd;"
points="63218,41425
62981,41425
62981,41268
63218,41268
63218,41425
" /> 
<polyline style="fill-rule:evenodd;"
points="63218,41071
62981,41071
62981,40914
63218,40914
63218,41071
" /> 
<polyline style="fill-rule:evenodd;"
points="63961,38080
63468,38080
63468,37686
63961,37686
63961,38080
" /> 
<polyline style="fill-rule:evenodd;"
points="63961,37293
63468,37293
63468,36899
63961,36899
63961,37293
" /> 
<polyline style="fill-rule:evenodd;"
points="64452,38989
64275,38989
64275,38575
64452,38575
64452,38989
" /> 
<polyline style="fill-rule:evenodd;"
points="64708,38989
64531,38989
64531,38575
64708,38575
64708,38989
" /> 
<polyline style="fill-rule:evenodd;"
points="64964,38989
64787,38989
64787,38575
64964,38575
64964,38989
" /> 
<polyline style="fill-rule:evenodd;"
points="65220,38989
65043,38989
65043,38575
65220,38575
65220,38989
" /> 
<polyline style="fill-rule:evenodd;"
points="65476,38989
65299,38989
65299,38575
65476,38575
65476,38989
" /> 
<polyline style="fill-rule:evenodd;"
points="65732,38989
65555,38989
65555,38575
65732,38575
65732,38989
" /> 
<polyline style="fill-rule:evenodd;"
points="65988,38989
65811,38989
65811,38575
65988,38575
65988,38989
" /> 
<polyline style="fill-rule:evenodd;"
points="66244,38989
66067,38989
66067,38575
66244,38575
66244,38989
" /> 
<polyline style="fill-rule:evenodd;"
points="66244,36804
66067,36804
66067,36390
66244,36390
66244,36804
" /> 
<polyline style="fill-rule:evenodd;"
points="65988,36804
65811,36804
65811,36390
65988,36390
65988,36804
" /> 
<polyline style="fill-rule:evenodd;"
points="65732,36804
65555,36804
65555,36390
65732,36390
65732,36804
" /> 
<polyline style="fill-rule:evenodd;"
points="65476,36804
65299,36804
65299,36390
65476,36390
65476,36804
" /> 
<polyline style="fill-rule:evenodd;"
points="65220,36804
65043,36804
65043,36390
65220,36390
65220,36804
" /> 
<polyline style="fill-rule:evenodd;"
points="64964,36804
64787,36804
64787,36390
64964,36390
64964,36804
" /> 
<polyline style="fill-rule:evenodd;"
points="64708,36804
64531,36804
64531,36390
64708,36390
64708,36804
" /> 
<polyline style="fill-rule:evenodd;"
points="64452,36804
64275,36804
64275,36390
64452,36390
64452,36804
" /> 
<polyline style="fill-rule:evenodd;"
points="65964,37690
65612,37690
65612,37111
65964,37111
65964,37690
" /> 
<polyline style="fill-rule:evenodd;"
points="65612,37690
65260,37690
65260,37111
65612,37111
65612,37690
" /> 
<polyline style="fill-rule:evenodd;"
points="65260,37690
64907,37690
64907,37111
65260,37111
65260,37690
" /> 
<polyline style="fill-rule:evenodd;"
points="64907,37690
64555,37690
64555,37111
64907,37111
64907,37690
" /> 
<polyline style="fill-rule:evenodd;"
points="65964,38268
65612,38268
65612,37690
65964,37690
65964,38268
" /> 
<polyline style="fill-rule:evenodd;"
points="65612,38268
65260,38268
65260,37690
65612,37690
65612,38268
" /> 
<polyline style="fill-rule:evenodd;"
points="65260,38268
64907,38268
64907,37690
65260,37690
65260,38268
" /> 
<polyline style="fill-rule:evenodd;"
points="64907,38268
64555,38268
64555,37690
64907,37690
64907,38268
" /> 
<polyline style="fill-rule:evenodd;"
points="63822,39526
64177,39526
64177,39723
63822,39723
63822,39526
" /> 
<polyline style="fill-rule:evenodd;"
points="63822,40116
64177,40116
64177,40313
63822,40313
63822,40116
" /> 
<polyline style="fill-rule:evenodd;"
points="64322,35122
64322,34827
64637,34827
64637,35122
64322,35122
" /> 
<polyline style="fill-rule:evenodd;"
points="64912,35122
64912,34827
65227,34827
65227,35122
64912,35122
" /> 
<polyline style="fill-rule:evenodd;"
points="65482,33362
66467,33362
66467,33756
65482,33756
65482,33362
" /> 
<polyline style="fill-rule:evenodd;"
points="65482,34543
66467,34543
66467,34937
65482,34937
65482,34543
" /> 
<polyline style="fill-rule:evenodd;"
points="66728,34059
67221,34059
67221,34453
66728,34453
66728,34059
" /> 
<polyline style="fill-rule:evenodd;"
points="66728,34846
67221,34846
67221,35240
66728,35240
66728,34846
" /> 
<polyline style="fill-rule:evenodd;"
points="63437,34857
63437,35842
63043,35842
63043,34857
63437,34857
" /> 
<polyline style="fill-rule:evenodd;"
points="62256,34857
62256,35842
61862,35842
61862,34857
62256,34857
" /> 
<polyline style="fill-rule:evenodd;"
points="63212,37942
62917,37942
62917,37627
63212,37627
63212,37942
" /> 
<polyline style="fill-rule:evenodd;"
points="63212,37352
62917,37352
62917,37037
63212,37037
63212,37352
" /> 
<polyline style="fill-rule:evenodd;"
points="66218,41075
65981,41075
65981,40918
66218,40918
66218,41075
" /> 
<polyline style="fill-rule:evenodd;"
points="66218,40721
65981,40721
65981,40564
66218,40564
66218,40721
" /> 
<polyline style="fill-rule:evenodd;"
points="63218,40725
62981,40725
62981,40568
63218,40568
63218,40725
" /> 
<polyline style="fill-rule:evenodd;"
points="63218,40371
62981,40371
62981,40214
63218,40214
63218,40371
" /> 
<polyline style="fill-rule:evenodd;"
points="66218,41775
65981,41775
65981,41618
66218,41618
66218,41775
" /> 
<polyline style="fill-rule:evenodd;"
points="66218,41421
65981,41421
65981,41264
66218,41264
66218,41421
" /> 
<polyline style="fill-rule:evenodd;"
points="66756,33777
66756,33422
66953,33422
66953,33777
66756,33777
" /> 
<polyline style="fill-rule:evenodd;"
points="67346,33777
67346,33422
67543,33422
67543,33777
67346,33777
" /> 
<polyline style="fill-rule:evenodd;"
points="64052,35618
63697,35618
63697,35421
64052,35421
64052,35618
" /> 
<polyline style="fill-rule:evenodd;"
points="64052,35028
63697,35028
63697,34831
64052,34831
64052,35028
" /> 
<polyline style="fill-rule:evenodd;"
points="63017,38983
62662,38983
62662,38786
63017,38786
63017,38983
" /> 
<polyline style="fill-rule:evenodd;"
points="63017,38393
62662,38393
62662,38196
63017,38196
63017,38393
" /> 
<polyline style="fill-rule:evenodd;"
points="65640,39823
65640,40316
65246,40316
65246,39823
65640,39823
" /> 
<polyline style="fill-rule:evenodd;"
points="64853,39823
64853,40316
64459,40316
64459,39823
64853,39823
" /> 
<polyline style="fill-rule:evenodd;"
points="65751,41515
65751,41692
65180,41692
65180,41515
65751,41515
" /> 
<polyline style="fill-rule:evenodd;"
points="65751,41259
65751,41436
65180,41436
65180,41259
65751,41259
" /> 
<polyline style="fill-rule:evenodd;"
points="65751,41003
65751,41180
65180,41180
65180,41003
65751,41003
" /> 
<polyline style="fill-rule:evenodd;"
points="65751,40747
65751,40924
65180,40924
65180,40747
65751,40747
" /> 
<polyline style="fill-rule:evenodd;"
points="64019,40747
64019,40924
63448,40924
63448,40747
64019,40747
" /> 
<polyline style="fill-rule:evenodd;"
points="64019,41003
64019,41180
63448,41180
63448,41003
64019,41003
" /> 
<polyline style="fill-rule:evenodd;"
points="64019,41259
64019,41436
63448,41436
63448,41259
64019,41259
" /> 
<polyline style="fill-rule:evenodd;"
points="64019,41515
64019,41692
63448,41692
63448,41515
64019,41515
" /> 
<circle cx="67600" cy="38200" r="295.276" /> 
</g>
<g style="fill:#840000; fill-opacity:1.0; 
stroke:#840000; stroke-width:39.3701; stroke-opacity:1; 
stroke-linecap:round; stroke-linejoin:round;">
</g>
<g style="fill:#840000; fill-opacity:1.0; 
stroke:#840000; stroke-width:0; stroke-opacity:1; 
stroke-linecap:round; stroke-linejoin:round;">
<circle cx="67600" cy="39200" r="295.276" /> 
</g>
<g style="fill:#840000; fill-opacity:1.0; 
stroke:#840000; stroke-width:39.3701; stroke-opacity:1; 
stroke-linecap:round; stroke-linejoin:round;">
</g>
<g style="fill:#840000; fill-opacity:1.0; 
stroke:#840000; stroke-width:0; stroke-opacity:1; 
stroke-linecap:round; stroke-linejoin:round;">
<circle cx="67600" cy="41200" r="295.276" /> 
</g>
<g style="fill:#840000; fill-opacity:1.0; 
stroke:#840000; stroke-width:39.3701; stroke-opacity:1; 
stroke-linecap:round; stroke-linejoin:round;">
</g>
<g style="fill:#840000; fill-opacity:1.0; 
stroke:#840000; stroke-width:0; stroke-opacity:1; 
stroke-linecap:round; stroke-linejoin:round;">
<circle cx="67600" cy="40200" r="295.276" /> 
</g>
<g style="fill:#840000; fill-opacity:1.0; 
stroke:#840000; stroke-width:39.3701; stroke-opacity:1; 
stroke-linecap:round; stroke-linejoin:round;">
</g>
<g style="fill:#840000; fill-opacity:1.0; 
stroke:#840000; stroke-width:0; stroke-opacity:1; 
stroke-linecap:round; stroke-linejoin:round;">
<circle cx="63250" cy="36360" r="295.276" /> 
</g>
<g style="fill:#840000; fill-opacity:1.0; 
stroke:#840000; stroke-width:39.3701; stroke-opacity:1; 
stroke-linecap:round; stroke-linejoin:round;">
</g>
<g style="fill:#840000; fill-opacity:1.0; 
stroke:#840000; stroke-width:0; stroke-opacity:1; 
stroke-linecap:round; stroke-linejoin:round;">
<circle cx="63590" cy="38615" r="295.276" /> 
</g>
<g style="fill:#840000; fill-opacity:1.0; 
stroke:#840000; stroke-width:39.3701; stroke-opacity:1; 
stroke-linecap:round; stroke-linejoin:round;">
</g>
<g style="fill:#840000; fill-opacity:1.0; 
stroke:#840000; stroke-width:0; stroke-opacity:1; 
stroke-linecap:round; stroke-linejoin:round;">
<circle cx="63100" cy="39700" r="295.276" /> 
</g>
<g style="fill:#840000; fill-opacity:1.0; 
stroke:#840000; stroke-width:39.3701; stroke-opacity:1; 
stroke-linecap:round; stroke-linejoin:round;">
</g>
<g style="fill:#840000; fill-opacity:1.0; 
stroke:#840000; stroke-width:0; stroke-opacity:1; 
stroke-linecap:round; stroke-linejoin:round;">
<circle cx="61480" cy="43025" r="590.551" /> 
</g>
<g style="fill:#840000; fill-opacity:1.0; 
stroke:#840000; stroke-width:39.3701; stroke-opacity:1; 
stroke-linecap:round; stroke-linejoin:round;">
</g>
<g style="fill:#840000; fill-opacity:1.0; 
stroke:#840000; stroke-width:0; stroke-opacity:1; 
stroke-linecap:round; stroke-linejoin:round;">
<circle cx="68720" cy="43025" r="590.551" /> 
</g>
<g style="fill:#840000; fill-opacity:1.0; 
stroke:#840000; stroke-width:39.3701; stroke-opacity:1; 
stroke-linecap:round; stroke-linejoin:round;">
</g>
<g style="fill:#840000; fill-opacity:1.0; 
stroke:#840000; stroke-width:0; stroke-opacity:1; 
stroke-linecap:round; stroke-linejoin:round;">
<circle cx="63100" cy="44325" r="590.551" /> 
</g>
<g style="fill:#840000; fill-opacity:1.0; 
stroke:#840000; stroke-width:39.3701; stroke-opacity:1; 
stroke-linecap:round; stroke-linejoin:round;">
</g>
<g style="fill:#840000; fill-opacity:1.0; 
stroke:#840000; stroke-width:0; stroke-opacity:1; 
stroke-linecap:round; stroke-linejoin:round;">
<circle cx="65100" cy="44325" r="590.551" /> 
</g>
<g style="fill:#840000; fill-opacity:1.0; 
stroke:#840000; stroke-width:39.3701; stroke-opacity:1; 
stroke-linecap:round; stroke-linejoin:round;">
</g>
<g style="fill:#840000; fill-opacity:1.0; 
stroke:#840000; stroke-width:0; stroke-opacity:1; 
stroke-linecap:round; stroke-linejoin:round;">
<polyline style="fill-rule:evenodd;"
points="68446,35490
67953,35490
67953,35096
68446,35096
68446,35490
" /> 
<polyline style="fill-rule:evenodd;"
points="68446,34703
67953,34703
67953,34309
68446,34309
68446,34703
" /> 
<polyline style="fill-rule:evenodd;"
points="68022,36106
68377,36106
68377,36303
68022,36303
68022,36106
" /> 
<polyline style="fill-rule:evenodd;"
points="68022,36696
68377,36696
68377,36893
68022,36893
68022,36696
" /> 
<circle cx="67400" cy="35700" r="295.276" /> 
</g>
<g style="fill:#840000; fill-opacity:1.0; 
stroke:#840000; stroke-width:39.3701; stroke-opacity:1; 
stroke-linecap:round; stroke-linejoin:round;">
</g>
<g style="fill:#840000; fill-opacity:1.0; 
stroke:#840000; stroke-width:0; stroke-opacity:1; 
stroke-linecap:round; stroke-linejoin:round;">
<polyline style="fill-rule:evenodd;"
points="61007,40552
61992,40552
61992,40946
61007,40946
61007,40552
" /> 
<polyline style="fill-rule:evenodd;"
points="61007,41733
61992,41733
61992,42127
61007,42127
61007,41733
" /> 
<polyline style="fill-rule:evenodd;"
points="66432,42932
66432,41947
66826,41947
66826,42932
66432,42932
" /> 
<polyline style="fill-rule:evenodd;"
points="67613,42932
67613,41947
68007,41947
68007,42932
67613,42932
" /> 
<polyline style="fill-rule:evenodd;"
points="62746,42110
62253,42110
62253,41716
62746,41716
62746,42110
" /> 
<polyline style="fill-rule:evenodd;"
points="62746,41323
62253,41323
62253,40929
62746,40929
62746,41323
" /> 
<polyline style="fill-rule:evenodd;"
points="65750,42113
65750,42606
65356,42606
65356,42113
65750,42113
" /> 
<polyline style="fill-rule:evenodd;"
points="64963,42113
64963,42606
64569,42606
64569,42113
64963,42113
" /> 
<polyline style="fill-rule:evenodd;"
points="61363,38530
61836,38530
61836,39003
61363,39003
61363,38530
" /> 
<polyline style="fill-rule:evenodd;"
points="61363,39396
61836,39396
61836,39869
61363,39869
61363,39396
" /> 
<polyline style="fill-rule:evenodd;"
points="61718,38305
61481,38305
61481,38148
61718,38148
61718,38305
" /> 
<polyline style="fill-rule:evenodd;"
points="61718,37951
61481,37951
61481,37794
61718,37794
61718,37951
" /> 
<polyline style="fill-rule:evenodd;"
points="62981,41604
63218,41604
63218,41761
62981,41761
62981,41604
" /> 
<polyline style="fill-rule:evenodd;"
points="62981,41958
63218,41958
63218,42115
62981,42115
62981,41958
" /> 
<polyline style="fill-rule:evenodd;"
points="65981,41964
66218,41964
66218,42121
65981,42121
65981,41964
" /> 
<polyline style="fill-rule:evenodd;"
points="65981,42318
66218,42318
66218,42475
65981,42475
65981,42318
" /> 
<polyline style="fill-rule:evenodd;"
points="64761,35664
64998,35664
64998,35821
64761,35821
64761,35664
" /> 
<polyline style="fill-rule:evenodd;"
points="64761,36018
64998,36018
64998,36175
64761,36175
64761,36018
" /> 
<polyline style="fill-rule:evenodd;"
points="64578,36175
64341,36175
64341,36018
64578,36018
64578,36175
" /> 
<polyline style="fill-rule:evenodd;"
points="64578,35821
64341,35821
64341,35664
64578,35664
64578,35821
" /> 
<polyline style="fill-rule:evenodd;"
points="66001,35524
66238,35524
66238,35681
66001,35681
66001,35524
" /> 
<polyline style="fill-rule:evenodd;"
points="66001,35878
66238,35878
66238,36035
66001,36035
66001,35878
" /> 
<polyline style="fill-rule:evenodd;"
points="65818,36035
65581,36035
65581,35878
65818,35878
65818,36035
" /> 
<polyline style="fill-rule:evenodd;"
points="65818,35681
65581,35681
65581,35524
65818,35524
65818,35681
" /> 
<polyline style="fill-rule:evenodd;"
points="66444,36578
66444,36341
66601,36341
66601,36578
66444,36578
" /> 
<polyline style="fill-rule:evenodd;"
points="66798,36578
66798,36341
66955,36341
66955,36578
66798,36578
" /> 
<polyline style="fill-rule:evenodd;"
points="66444,37148
66444,36911
66601,36911
66601,37148
66444,37148
" /> 
<polyline style="fill-rule:evenodd;"
points="66798,37148
66798,36911
66955,36911
66955,37148
66798,37148
" /> 
<polyline style="fill-rule:evenodd;"
points="68365,38534
68365,37865
69034,37865
69034,38534
68365,38534
" /> 
</g>
<g style="fill:#840000; fill-opacity:1.0; 
stroke:#840000; stroke-width:669.291; stroke-opacity:1; 
stroke-linecap:round; stroke-linejoin:round;">
</g>
<g style="fill:#840000; fill-opacity:0.0; 
stroke:#840000; stroke-width:669.291; stroke-opacity:1; 
stroke-linecap:round; stroke-linejoin:round;">
<path d="M68700 39200
L68700 39200
" />
<path d="M68700 40200
L68700 40200
" />
<path d="M68700 41200
L68700 41200
" />
</g>
<g style="fill:#C2C2C2; fill-opacity:0.0; 
stroke:#C2C2C2; stroke-width:669.291; stroke-opacity:1; 
stroke-linecap:round; stroke-linejoin:round;">
</g>
<g style="fill:#C2C2C2; fill-opacity:1.0; 
stroke:#C2C2C2; stroke-width:0; stroke-opacity:1; 
stroke-linecap:round; stroke-linejoin:round;">
<circle cx="63720" cy="36740" r="118.11" /> 
</g>
<g style="fill:#C2C2C2; fill-opacity:1.0; 
stroke:#C2C2C2; stroke-width:39.3701; stroke-opacity:1; 
stroke-linecap:round; stroke-linejoin:round;">
</g>
<g style="fill:#C2C2C2; fill-opacity:1.0; 
stroke:#C2C2C2; stroke-width:0; stroke-opacity:1; 
stroke-linecap:round; stroke-linejoin:round;">
<circle cx="64460" cy="35420" r="118.11" /> 
</g>
<g style="fill:#C2C2C2; fill-opacity:1.0; 
stroke:#C2C2C2; stroke-width:39.3701; stroke-opacity:1; 
stroke-linecap:round; stroke-linejoin:round;">
</g>
<g style="fill:#C2C2C2; fill-opacity:1.0; 
stroke:#C2C2C2; stroke-width:0; stroke-opacity:1; 
stroke-linecap:round; stroke-linejoin:round;">
<circle cx="67500" cy="35040" r="118.11" /> 
</g>
<g style="fill:#C2C2C2; fill-opacity:1.0; 
stroke:#C2C2C2; stroke-width:39.3701; stroke-opacity:1; 
stroke-linecap:round; stroke-linejoin:round;">
</g>
<g style="fill:#C2C2C2; fill-opacity:1.0; 
stroke:#C2C2C2; stroke-width:0; stroke-opacity:1; 
stroke-linecap:round; stroke-linejoin:round;">
<circle cx="65360" cy="35600" r="118.11" /> 
</g>
<g style="fill:#C2C2C2; fill-opacity:1.0; 
stroke:#C2C2C2; stroke-width:39.3701; stroke-opacity:1; 
stroke-linecap:round; stroke-linejoin:round;">
</g>
<g style="fill:#C2C2C2; fill-opacity:1.0; 
stroke:#C2C2C2; stroke-width:0; stroke-opacity:1; 
stroke-linecap:round; stroke-linejoin:round;">
<circle cx="61600" cy="40200" r="118.11" /> 
</g>
<g style="fill:#C2C2C2; fill-opacity:1.0; 
stroke:#C2C2C2; stroke-width:39.3701; stroke-opacity:1; 
stroke-linecap:round; stroke-linejoin:round;">
</g>
<g style="fill:#C2C2C2; fill-opacity:1.0; 
stroke:#C2C2C2; stroke-width:0; stroke-opacity:1; 
stroke-linecap:round; stroke-linejoin:round;">
<circle cx="64920" cy="41100" r="118.11" /> 
</g>
<g style="fill:#C2C2C2; fill-opacity:1.0; 
stroke:#C2C2C2; stroke-width:39.3701; stroke-opacity:1; 
stroke-linecap:round; stroke-linejoin:round;">
</g>
<g style="fill:#C2C2C2; fill-opacity:1.0; 
stroke:#C2C2C2; stroke-width:0; stroke-opacity:1; 
stroke-linecap:round; stroke-linejoin:round;">
<circle cx="65436.2" cy="37979.4" r="118.11" /> 
</g>
<g style="fill:#C2C2C2; fill-opacity:1.0; 
stroke:#C2C2C2; stroke-width:39.3701; stroke-opacity:1; 
stroke-linecap:round; stroke-linejoin:round;">
</g>
<g style="fill:#C2C2C2; fill-opacity:1.0; 
stroke:#C2C2C2; stroke-width:0; stroke-opacity:1; 
stroke-linecap:round; stroke-linejoin:round;">
<circle cx="68200" cy="34000" r="118.11" /> 
</g>
<g style="fill:#C2C2C2; fill-opacity:1.0; 
stroke:#C2C2C2; stroke-width:39.3701; stroke-opacity:1; 
stroke-linecap:round; stroke-linejoin:round;">
</g>
<g style="fill:#C2C2C2; fill-opacity:1.0; 
stroke:#C2C2C2; stroke-width:0; stroke-opacity:1; 
stroke-linecap:round; stroke-linejoin:round;">
<circle cx="63500" cy="40420" r="118.11" /> 
</g>
<g style="fill:#C2C2C2; fill-opacity:1.0; 
stroke:#C2C2C2; stroke-width:39.3701; stroke-opacity:1; 
stroke-linecap:round; stroke-linejoin:round;">
</g>
<g style="fill:#C2C2C2; fill-opacity:1.0; 
stroke:#C2C2C2; stroke-width:0; stroke-opacity:1; 
stroke-linecap:round; stroke-linejoin:round;">
<circle cx="65975" cy="34150" r="118.11" /> 
</g>
<g style="fill:#C2C2C2; fill-opacity:1.0; 
stroke:#C2C2C2; stroke-width:39.3701; stroke-opacity:1; 
stroke-linecap:round; stroke-linejoin:round;">
</g>
<g style="fill:#C2C2C2; fill-opacity:1.0; 
stroke:#C2C2C2; stroke-width:0; stroke-opacity:1; 
stroke-linecap:round; stroke-linejoin:round;">
<circle cx="62650" cy="35350" r="118.11" /> 
</g>
<g style="fill:#C2C2C2; fill-opacity:1.0; 
stroke:#C2C2C2; stroke-width:39.3701; stroke-opacity:1; 
stroke-linecap:round; stroke-linejoin:round;">
</g>
<g style="fill:#C2C2C2; fill-opacity:1.0; 
stroke:#C2C2C2; stroke-width:0; stroke-opacity:1; 
stroke-linecap:round; stroke-linejoin:round;">
<circle cx="62650" cy="33875" r="118.11" /> 
</g>
<g style="fill:#C2C2C2; fill-opacity:1.0; 
stroke:#C2C2C2; stroke-width:39.3701; stroke-opacity:1; 
stroke-linecap:round; stroke-linejoin:round;">
</g>
<g style="fill:#C2C2C2; fill-opacity:1.0; 
stroke:#C2C2C2; stroke-width:0; stroke-opacity:1; 
stroke-linecap:round; stroke-linejoin:round;">
<circle cx="65788.5" cy="37400.6" r="118.11" /> 
</g>
<g style="fill:#C2C2C2; fill-opacity:1.0; 
stroke:#C2C2C2; stroke-width:39.3701; stroke-opacity:1; 
stroke-linecap:round; stroke-linejoin:round;">
</g>
<g style="fill:#C2C2C2; fill-opacity:1.0; 
stroke:#C2C2C2; stroke-width:0; stroke-opacity:1; 
stroke-linecap:round; stroke-linejoin:round;">
<circle cx="65436.2" cy="37400.6" r="118.11" /> 
</g>
<g style="fill:#C2C2C2; fill-opacity:1.0; 
stroke:#C2C2C2; stroke-width:39.3701; stroke-opacity:1; 
stroke-linecap:round; stroke-linejoin:round;">
</g>
<g style="fill:#C2C2C2; fill-opacity:1.0; 
stroke:#C2C2C2; stroke-width:0; stroke-opacity:1; 
stroke-linecap:round; stroke-linejoin:round;">
<circle cx="65083.8" cy="37400.6" r="118.11" /> 
</g>
<g style="fill:#C2C2C2; fill-opacity:1.0; 
stroke:#C2C2C2; stroke-width:39.3701; stroke-opacity:1; 
stroke-linecap:round; stroke-linejoin:round;">
</g>
<g style="fill:#C2C2C2; fill-opacity:1.0; 
stroke:#C2C2C2; stroke-width:0; stroke-opacity:1; 
stroke-linecap:round; stroke-linejoin:round;">
<circle cx="65083.8" cy="37979.4" r="118.11" /> 
</g>
<g style="fill:#C2C2C2; fill-opacity:1.0; 
stroke:#C2C2C2; stroke-width:39.3701; stroke-opacity:1; 
stroke-linecap:round; stroke-linejoin:round;">
</g>
<g style="fill:#C2C2C2; fill-opacity:1.0; 
stroke:#C2C2C2; stroke-width:0; stroke-opacity:1; 
stroke-linecap:round; stroke-linejoin:round;">
<circle cx="64731.5" cy="37979.4" r="118.11" /> 
</g>
<g style="fill:#C2C2C2; fill-opacity:1.0; 
stroke:#C2C2C2; stroke-width:39.3701; stroke-opacity:1; 
stroke-linecap:round; stroke-linejoin:round;">
</g>
<g style="fill:#C2C2C2; fill-opacity:1.0; 
stroke:#C2C2C2; stroke-width:0; stroke-opacity:1; 
stroke-linecap:round; stroke-linejoin:round;">
<circle cx="64731.5" cy="37400.6" r="118.11" /> 
</g>
<g style="fill:#C2C2C2; fill-opacity:1.0; 
stroke:#C2C2C2; stroke-width:39.3701; stroke-opacity:1; 
stroke-linecap:round; stroke-linejoin:round;">
</g>
<g style="fill:#C2C2C2; fill-opacity:1.0; 
stroke:#C2C2C2; stroke-width:0; stroke-opacity:1; 
stroke-linecap:round; stroke-linejoin:round;">
<circle cx="65360" cy="39360" r="118.11" /> 
</g>
<g style="fill:#C2C2C2; fill-opacity:1.0; 
stroke:#C2C2C2; stroke-width:39.3701; stroke-opacity:1; 
stroke-linecap:round; stroke-linejoin:round;">
</g>
<g style="fill:#C2C2C2; fill-opacity:1.0; 
stroke:#C2C2C2; stroke-width:0; stroke-opacity:1; 
stroke-linecap:round; stroke-linejoin:round;">
<circle cx="65788.5" cy="37979.4" r="118.11" /> 
</g>
<g style="fill:#C2C2C2; fill-opacity:1.0; 
stroke:#C2C2C2; stroke-width:39.3701; stroke-opacity:1; 
stroke-linecap:round; stroke-linejoin:round;">
</g>
<g style="fill:#C2C2C2; fill-opacity:1.0; 
stroke:#C2C2C2; stroke-width:0; stroke-opacity:1; 
stroke-linecap:round; stroke-linejoin:round;">
<circle cx="66880" cy="36700" r="118.11" /> 
</g>
<g style="fill:#C2C2C2; fill-opacity:1.0; 
stroke:#C2C2C2; stroke-width:39.3701; stroke-opacity:1; 
stroke-linecap:round; stroke-linejoin:round;">
</g>
<g style="fill:#C2C2C2; fill-opacity:1.0; 
stroke:#C2C2C2; stroke-width:0; stroke-opacity:1; 
stroke-linecap:round; stroke-linejoin:round;">
<circle cx="67900" cy="35670" r="118.11" /> 
</g>
<g style="fill:#C2C2C2; fill-opacity:1.0; 
stroke:#C2C2C2; stroke-width:39.3701; stroke-opacity:1; 
stroke-linecap:round; stroke-linejoin:round;">
</g>
<g style="fill:#C2C2C2; fill-opacity:1.0; 
stroke:#C2C2C2; stroke-width:0; stroke-opacity:1; 
stroke-linecap:round; stroke-linejoin:round;">
<circle cx="62840" cy="39180" r="118.11" /> 
</g>
<g style="fill:#C2C2C2; fill-opacity:1.0; 
stroke:#C2C2C2; stroke-width:39.3701; stroke-opacity:1; 
stroke-linecap:round; stroke-linejoin:round;">
</g>
<g style="fill:#C2C2C2; fill-opacity:1.0; 
stroke:#C2C2C2; stroke-width:0; stroke-opacity:1; 
stroke-linecap:round; stroke-linejoin:round;">
<circle cx="67900" cy="35950" r="118.11" /> 
</g>
<g style="fill:#C2C2C2; fill-opacity:1.0; 
stroke:#C2C2C2; stroke-width:39.3701; stroke-opacity:1; 
stroke-linecap:round; stroke-linejoin:round;">
</g>
<g style="fill:#C2C2C2; fill-opacity:1.0; 
stroke:#C2C2C2; stroke-width:0; stroke-opacity:1; 
stroke-linecap:round; stroke-linejoin:round;">
<circle cx="68200" cy="35960" r="118.11" /> 
</g>
<g style="fill:#C2C2C2; fill-opacity:1.0; 
stroke:#C2C2C2; stroke-width:39.3701; stroke-opacity:1; 
stroke-linecap:round; stroke-linejoin:round;">
</g>
<g style="fill:#C2C2C2; fill-opacity:1.0; 
stroke:#C2C2C2; stroke-width:0; stroke-opacity:1; 
stroke-linecap:round; stroke-linejoin:round;">
<circle cx="68200" cy="35670" r="118.11" /> 
</g>
<g style="fill:#C2C2C2; fill-opacity:1.0; 
stroke:#C2C2C2; stroke-width:39.3701; stroke-opacity:1; 
stroke-linecap:round; stroke-linejoin:round;">
</g>
<g style="fill:#C2C2C2; fill-opacity:1.0; 
stroke:#C2C2C2; stroke-width:0; stroke-opacity:1; 
stroke-linecap:round; stroke-linejoin:round;">
<circle cx="64540" cy="39480" r="118.11" /> 
</g>
<g style="fill:#C2C2C2; fill-opacity:1.0; 
stroke:#C2C2C2; stroke-width:39.3701; stroke-opacity:1; 
stroke-linecap:round; stroke-linejoin:round;">
</g>
<g style="fill:#C2C2C2; fill-opacity:1.0; 
stroke:#C2C2C2; stroke-width:0; stroke-opacity:1; 
stroke-linecap:round; stroke-linejoin:round;">
<circle cx="67450" cy="34070" r="118.11" /> 
</g>
<g style="fill:#C2C2C2; fill-opacity:1.0; 
stroke:#C2C2C2; stroke-width:39.3701; stroke-opacity:1; 
stroke-linecap:round; stroke-linejoin:round;">
</g>
<g style="fill:#C2C2C2; fill-opacity:1.0; 
stroke:#C2C2C2; stroke-width:0; stroke-opacity:1; 
stroke-linecap:round; stroke-linejoin:round;">
<circle cx="65440" cy="40530" r="118.11" /> 
</g>
<g style="fill:#C2C2C2; fill-opacity:1.0; 
stroke:#C2C2C2; stroke-width:39.3701; stroke-opacity:1; 
stroke-linecap:round; stroke-linejoin:round;">
</g>
<g style="fill:#C2C2C2; fill-opacity:1.0; 
stroke:#C2C2C2; stroke-width:0; stroke-opacity:1; 
stroke-linecap:round; stroke-linejoin:round;">
<circle cx="62660" cy="36360" r="118.11" /> 
</g>
<g style="fill:#C2C2C2; fill-opacity:1.0; 
stroke:#C2C2C2; stroke-width:39.3701; stroke-opacity:1; 
stroke-linecap:round; stroke-linejoin:round;">
</g>
<g style="fill:#C2C2C2; fill-opacity:1.0; 
stroke:#C2C2C2; stroke-width:0; stroke-opacity:1; 
stroke-linecap:round; stroke-linejoin:round;">
<circle cx="65460" cy="41860" r="118.11" /> 
</g>
<g style="fill:#C2C2C2; fill-opacity:1.0; 
stroke:#C2C2C2; stroke-width:39.3701; stroke-opacity:1; 
stroke-linecap:round; stroke-linejoin:round;">
</g>
<g style="fill:#C2C2C2; fill-opacity:1.0; 
stroke:#C2C2C2; stroke-width:0; stroke-opacity:1; 
stroke-linecap:round; stroke-linejoin:round;">
<circle cx="64240" cy="41340" r="118.11" /> 
</g>
<g style="fill:#C2C2C2; fill-opacity:1.0; 
stroke:#C2C2C2; stroke-width:39.3701; stroke-opacity:1; 
stroke-linecap:round; stroke-linejoin:round;">
</g>
<g style="fill:#C2C2C2; fill-opacity:1.0; 
stroke:#C2C2C2; stroke-width:0; stroke-opacity:1; 
stroke-linecap:round; stroke-linejoin:round;">
<circle cx="67860" cy="37440" r="118.11" /> 
</g>
<g style="fill:#C2C2C2; fill-opacity:1.0; 
stroke:#C2C2C2; stroke-width:39.3701; stroke-opacity:1; 
stroke-linecap:round; stroke-linejoin:round;">
</g>
<g style="fill:#C2C2C2; fill-opacity:1.0; 
stroke:#C2C2C2; stroke-width:0; stroke-opacity:1; 
stroke-linecap:round; stroke-linejoin:round;">
<circle cx="66460" cy="36060" r="118.11" /> 
</g>
<g style="fill:#C2C2C2; fill-opacity:1.0; 
stroke:#C2C2C2; stroke-width:39.3701; stroke-opacity:1; 
stroke-linecap:round; stroke-linejoin:round;">
</g>
<g style="fill:#C2C2C2; fill-opacity:1.0; 
stroke:#C2C2C2; stroke-width:0; stroke-opacity:1; 
stroke-linecap:round; stroke-linejoin:round;">
<circle cx="65330" cy="36060" r="118.11" /> 
</g>
<g style="fill:#C2C2C2; fill-opacity:1.0; 
stroke:#C2C2C2; stroke-width:39.3701; stroke-opacity:1; 
stroke-linecap:round; stroke-linejoin:round;">
</g>
<g style="fill:#840000; fill-opacity:1.0; 
stroke:#840000; stroke-width:39.3701; stroke-opacity:1; 
stroke-linecap:round; stroke-linejoin:round;">
</g>
<g style="fill:#840000; fill-opacity:1.0; 
stroke:#840000; stroke-width:196.85; stroke-opacity:1; 
stroke-linecap:round; stroke-linejoin:round;">
</g>
<g style="fill:#840000; fill-opacity:0.0; 
stroke:#840000; stroke-width:196.85; stroke-opacity:1; 
stroke-linecap:round; stroke-linejoin:round;">
<path d="M63891 34349
L64109 34349
" />
<path d="M64109 34349
L64479 34719
" />
<path d="M64479 34719
L64479 34975
" />
</g>
<g style="fill:#840000; fill-opacity:0.0; 
stroke:#840000; stroke-width:78.7402; stroke-opacity:1; 
stroke-linecap:round; stroke-linejoin:round;">
<path d="M63715 37096
L63715 36745
" />
<path d="M63715 36745
L63720 36740
" />
</g>
<g style="fill:#840000; fill-opacity:0.0; 
stroke:#840000; stroke-width:98.4252; stroke-opacity:1; 
stroke-linecap:round; stroke-linejoin:round;">
<path d="M64460 35742
L64460 35420
" />
<path d="M66975 35043
L67496 35043
" />
<path d="M67496 35043
L67500 35040
" />
<path d="M65700 35602
L65362 35602
" />
<path d="M65362 35602
L65360 35600
" />
<path d="M61600 39633
L61600 40200
" />
<path d="M65466 41092
L65458 41100
" />
<path d="M65458 41100
L64920 41100
" />
</g>
<g style="fill:#840000; fill-opacity:0.0; 
stroke:#840000; stroke-width:196.85; stroke-opacity:1; 
stroke-linecap:round; stroke-linejoin:round;">
<path d="M68200 34506
L68200 34000
" />
</g>
<g style="fill:#840000; fill-opacity:0.0; 
stroke:#840000; stroke-width:98.4252; stroke-opacity:1; 
stroke-linecap:round; stroke-linejoin:round;">
<path d="M63733 40836
L63733 40653
" />
<path d="M63733 40653
L63500 40420
" />
</g>
<g style="fill:#840000; fill-opacity:0.0; 
stroke:#840000; stroke-width:196.85; stroke-opacity:1; 
stroke-linecap:round; stroke-linejoin:round;">
<path d="M65975 34740
L65975 34150
" />
<path d="M62059 35350
L62650 35350
" />
<path d="M62059 33875
L62650 33875
" />
</g>
<g style="fill:#840000; fill-opacity:0.0; 
stroke:#840000; stroke-width:98.4252; stroke-opacity:1; 
stroke-linecap:round; stroke-linejoin:round;">
<path d="M65132 38782
L65132 39132
" />
<path d="M67600 39200
L68700 39200
" />
<path d="M65132 39132
L65360 39360
" />
</g>
<g style="fill:#840000; fill-opacity:0.0; 
stroke:#840000; stroke-width:196.85; stroke-opacity:1; 
stroke-linecap:round; stroke-linejoin:round;">
<path d="M66975 34256
L66975 34075
" />
<path d="M66975 34075
L66854 33954
" />
<path d="M66854 33954
L66854 33600
" />
<path d="M66854 33600
L66015 33600
" />
<path d="M66015 33600
L65975 33559
" />
<path d="M65975 33559
L65984 33550
" />
<path d="M65100 33600
L65140 33559
" />
<path d="M64759 33600
L65100 33600
" />
<path d="M65140 33559
L65975 33559
" />
<path d="M64758 33600
L64759 33600
" />
<path d="M63891 33600
L64758 33600
" />
</g>
<g style="fill:#840000; fill-opacity:0.0; 
stroke:#840000; stroke-width:98.4252; stroke-opacity:1; 
stroke-linecap:round; stroke-linejoin:round;">
<path d="M66120 35602
L66120 35500
" />
<path d="M64880 35560
L64880 35742
" />
<path d="M65090 35350
L64880 35560
" />
<path d="M65970 35350
L65090 35350
" />
<path d="M66120 35500
L65970 35350
" />
<path d="M66877 36460
L66877 36697
" />
<path d="M66877 36697
L66880 36700
" />
<path d="M66120 35622
L67322 35622
" />
<path d="M67322 35622
L67400 35700
" />
<path d="M67400 35700
L67900 35700
" />
<path d="M67900 35700
L67900 35670
" />
<path d="M62840 39150
L62550 39150
" />
<path d="M61600 37750
L61600 37872
" />
<path d="M61750 37600
L61600 37750
" />
<path d="M62050 37600
L61750 37600
" />
<path d="M62250 37800
L62050 37600
" />
<path d="M62250 38850
L62250 37800
" />
<path d="M62550 39150
L62250 38850
" />
<path d="M67900 35670
L67900 35950
" />
<path d="M67910 35960
L67900 35950
" />
<path d="M67910 35960
L68200 35960
" />
<path d="M68200 36204
L68200 35960
" />
<path d="M68200 35960
L68200 35670
" />
<path d="M67900 35670
L68200 35670
" />
<path d="M68200 35670
L68200 35293
" />
<path d="M64000 39624
L64395 39624
" />
<path d="M64395 39624
L64540 39480
" />
<path d="M62840 38885
L62840 39150
" />
<path d="M62840 39150
L62840 39180
" />
</g>
<g style="fill:#840000; fill-opacity:0.0; 
stroke:#840000; stroke-width:196.85; stroke-opacity:1; 
stroke-linecap:round; stroke-linejoin:round;">
<path d="M67445 33600
L67445 34065
" />
<path d="M67445 34065
L67450 34070
" />
</g>
<g style="fill:#840000; fill-opacity:0.0; 
stroke:#840000; stroke-width:98.4252; stroke-opacity:1; 
stroke-linecap:round; stroke-linejoin:round;">
<path d="M64364 36597
L64364 37583
" />
<path d="M64364 37583
L64063 37883
" />
<path d="M63715 37883
L64063 37883
" />
<path d="M64203 38023
L64203 38283
" />
<path d="M64340 38420
L64203 38283
" />
<path d="M65300 38420
L64340 38420
" />
<path d="M65387 38507
L65300 38420
" />
<path d="M65387 38782
L65387 38507
" />
<path d="M64063 37883
L64203 38023
" />
<path d="M63065 37785
L63245 37785
" />
<path d="M63343 37883
L63715 37883
" />
<path d="M63245 37785
L63343 37883
" />
<path d="M62840 38294
L62840 38140
" />
<path d="M63065 37995
L63065 37785
" />
<path d="M63000 38060
L63065 37995
" />
<path d="M62920 38060
L63000 38060
" />
<path d="M62840 38140
L62920 38060
" />
<path d="M64620 36597
L64620 36860
" />
<path d="M64720 36960
L64620 36860
" />
<path d="M65643 36836
L65643 36597
" />
<path d="M65643 36836
L65520 36960
" />
<path d="M65520 36960
L64720 36960
" />
<path d="M64620 36597
L64620 36597
" />
<path d="M64364 36597
L64620 36597
" />
</g>
<g style="fill:#840000; fill-opacity:0.0; 
stroke:#840000; stroke-width:196.85; stroke-opacity:1; 
stroke-linecap:round; stroke-linejoin:round;">
<path d="M64758 34349
L64758 34548
" />
<path d="M65070 34760
L65070 34975
" />
<path d="M64960 34650
L65070 34760
" />
<path d="M64860 34650
L64960 34650
" />
<path d="M64758 34548
L64860 34650
" />
</g>
<g style="fill:#840000; fill-opacity:0.0; 
stroke:#840000; stroke-width:98.4252; stroke-opacity:1; 
stroke-linecap:round; stroke-linejoin:round;">
<path d="M64758 34349
L64750 34357
" />
</g>
<g style="fill:#840000; fill-opacity:0.0; 
stroke:#840000; stroke-width:196.85; stroke-opacity:1; 
stroke-linecap:round; stroke-linejoin:round;">
<path d="M63891 33975
L63340 33975
" />
<path d="M63340 33975
L63240 33875
" />
<path d="M63260 33894
L63260 34500
" />
<path d="M63875 34705
L63875 34929
" />
<path d="M63830 34660
L63420 34660
" />
<path d="M63875 34705
L63830 34660
" />
<path d="M63260 34500
L63420 34660
" />
<path d="M63260 33894
L63240 33875
" />
<path d="M63875 35520
L63410 35520
" />
<path d="M63410 35520
L63240 35350
" />
</g>
<g style="fill:#840000; fill-opacity:0.0; 
stroke:#840000; stroke-width:98.4252; stroke-opacity:1; 
stroke-linecap:round; stroke-linejoin:round;">
<path d="M65466 40836
L65466 40736
" />
</g>
<g style="fill:#840000; fill-opacity:0.0; 
stroke:#840000; stroke-width:196.85; stroke-opacity:1; 
stroke-linecap:round; stroke-linejoin:round;">
<path d="M65443 40526
L65440 40530
" />
<path d="M65443 40526
L65443 40070
" />
</g>
<g style="fill:#840000; fill-opacity:0.0; 
stroke:#840000; stroke-width:98.4252; stroke-opacity:1; 
stroke-linecap:round; stroke-linejoin:round;">
<path d="M65440 40710
L65440 40530
" />
<path d="M65466 40736
L65440 40710
" />
</g>
<g style="fill:#840000; fill-opacity:0.0; 
stroke:#840000; stroke-width:196.85; stroke-opacity:1; 
stroke-linecap:round; stroke-linejoin:round;">
<path d="M63250 36360
L62660 36360
" />
<path d="M63250 36360
L63240 36360
" />
<path d="M63250 36360
L63250 35359
" />
<path d="M63250 35359
L63240 35350
" />
</g>
<g style="fill:#840000; fill-opacity:0.0; 
stroke:#840000; stroke-width:98.4252; stroke-opacity:1; 
stroke-linecap:round; stroke-linejoin:round;">
<path d="M65466 40092
L65443 40070
" />
<path d="M63250 35359
L63240 35350
" />
<path d="M63240 35350
L63225 35365
" />
<path d="M63875 35520
L63870 35525
" />
<path d="M65460 41860
L65460 41610
" />
<path d="M65460 41610
L65466 41603
" />
<path d="M66100 42042
L66100 41697
" />
<path d="M66100 41697
L66145 41697
" />
<path d="M65466 41603
L65823 41603
" />
<path d="M65917 41697
L66100 41697
" />
<path d="M65823 41603
L65917 41697
" />
<path d="M64420 41600
L64656 41363
" />
<path d="M63737 41600
L64420 41600
" />
<path d="M64656 41363
L64656 40070
" />
<path d="M63733 41603
L63737 41600
" />
<path d="M64656 40070
L64390 40070
" />
<path d="M64390 40070
L64244 40215
" />
<path d="M64244 40215
L64000 40215
" />
<path d="M64240 41340
L63741 41340
" />
<path d="M63741 41340
L63733 41347
" />
<path d="M63100 41682
L63100 41347
" />
<path d="M63100 41347
L63733 41347
" />
<path d="M63733 41347
L63733 41347
" />
<path d="M63590 38615
L63975 38615
" />
<path d="M64142 38782
L64364 38782
" />
<path d="M63975 38615
L64142 38782
" />
<path d="M63765 38615
L63590 38615
" />
<path d="M63100 40292
L63100 39700
" />
<path d="M63100 39700
L63600 39200
" />
<path d="M64876 39083
L64876 38782
" />
<path d="M64760 39200
L64876 39083
" />
<path d="M63600 39200
L64760 39200
" />
<path d="M66100 40642
L66100 40140
" />
<path d="M66100 40140
L66160 40080
" />
<path d="M65899 38782
L65899 39419
" />
<path d="M66160 39680
L66160 40080
" />
<path d="M65899 39419
L66160 39680
" />
<path d="M67600 40200
L66920 39520
" />
<path d="M66920 39520
L66920 39120
" />
<path d="M66920 39120
L66582 38782
" />
<path d="M66582 38782
L66155 38782
" />
<path d="M67600 40200
L68700 40200
" />
<path d="M67860 37440
L67600 37180
" />
<path d="M67600 37180
L67600 36720
" />
<path d="M67600 36720
L66940 36060
" />
<path d="M66940 36060
L66460 36060
" />
<path d="M65132 36597
L65132 36257
" />
<path d="M65132 36257
L65330 36060
" />
<path d="M67340 41200
L67600 41200
" />
<path d="M67600 41200
L67360 41200
" />
<path d="M67600 41200
L67600 40950
" />
<path d="M67600 41200
L67460 41200
" />
<path d="M67600 41200
L68700 41200
" />
</g>
<g style="fill:#840000; fill-opacity:0.0; 
stroke:#840000; stroke-width:196.85; stroke-opacity:1; 
stroke-linecap:round; stroke-linejoin:round;">
<path d="M68700 38200
L68700 37600
" />
<path d="M68200 37100
L68200 36795
" />
<path d="M68700 37600
L68200 37100
" />
</g>
<g style="fill:#840000; fill-opacity:0.0; 
stroke:#840000; stroke-width:98.4252; stroke-opacity:1; 
stroke-linecap:round; stroke-linejoin:round;">
<path d="M67600 38200
L68700 38200
" />
<path d="M63100 40992
L62947 40992
" />
<path d="M62813 41126
L62500 41126
" />
<path d="M62947 40992
L62813 41126
" />
<path d="M61500 40749
L62369 40749
" />
<path d="M62369 40749
L62500 40880
" />
<path d="M62500 40880
L62500 41126
" />
<path d="M63100 40992
L63232 40992
" />
<path d="M63332 41092
L63733 41092
" />
<path d="M63232 40992
L63332 41092
" />
<path d="M63100 40647
L63100 40992
" />
<path d="M66100 41342
L66282 41342
" />
<path d="M66629 41689
L66629 42440
" />
<path d="M66282 41342
L66629 41689
" />
<path d="M64766 42360
L64766 41713
" />
<path d="M65132 41347
L65466 41347
" />
<path d="M64766 41713
L65132 41347
" />
<path d="M66100 40997
L66100 41342
" />
<path d="M65466 41347
L66094 41347
" />
<path d="M62500 41913
L62773 41913
" />
<path d="M62897 42037
L63100 42037
" />
<path d="M62773 41913
L62897 42037
" />
<path d="M65553 42360
L65880 42360
" />
<path d="M65917 42397
L66100 42397
" />
<path d="M65880 42360
L65917 42397
" />
<path d="M61600 38227
L61600 38766
" />
<path d="M64880 36097
L64460 36097
" />
<path d="M64876 36597
L64876 36101
" />
<path d="M64876 36101
L64880 36097
" />
<path d="M65700 35957
L66120 35957
" />
<path d="M65700 35957
L65700 36080
" />
<path d="M65700 36080
L65560 36220
" />
<path d="M65560 36220
L65500 36220
" />
<path d="M65500 36220
L65387 36332
" />
<path d="M65387 36332
L65387 36597
" />
<path d="M66522 37030
L66522 36460
" />
<path d="M65899 36597
L65899 36300
" />
<path d="M65899 36300
L65980 36220
" />
<path d="M65980 36220
L66280 36220
" />
<path d="M66280 36220
L66380 36320
" />
<path d="M66380 36320
L66380 36420
" />
<path d="M66380 36420
L66420 36460
" />
<path d="M66420 36460
L66522 36460
" />
</g>
<g style="fill:#840000; fill-opacity:1.0; 
stroke:#840000; stroke-width:100; stroke-opacity:1; 
stroke-linecap:round; stroke-linejoin:round;">
<polyline style="fill-rule:evenodd;"
points="67400,36802
67400,37180
67415,37256
67459,37320
67591,37453
67591,37493
67632,37591
67707,37667
67806,37708
67913,37708
68011,37667
68087,37592
68128,37493
68128,37386
68122,37374
68451,37702
68451,37712
68365,37712
68309,37722
68258,37755
68224,37805
68212,37865
68212,38000
67999,38000
67977,37948
67852,37822
67688,37754
67511,37754
67348,37822
67222,37947
67154,38111
67154,38288
67222,38451
67347,38577
67511,38645
67688,38645
67851,38577
67977,38452
67999,38399
68212,38399
68212,38534
68222,38590
68255,38641
68305,38675
68365,38687
69034,38687
69090,38677
69141,38644
69175,38594
69187,38534
69187,37865
69177,37809
69144,37758
69094,37724
69034,37712
68948,37712
68948,37600
68931,37514
68955,37530
69020,37557
69220,37597
69220,42459
69217,42456
69190,42483
69122,42386
68847,42280
68552,42288
68317,42386
68249,42483
68720,42954
68725,42948
68796,43019
68790,43025
68796,43030
68725,43101
68720,43095
68249,43566
68317,43663
68592,43769
68887,43761
69122,43663
69190,43566
69217,43593
69220,43590
69220,45270
60979,45270
60979,44471
62359,44471
62471,44743
62679,44952
62952,45065
63246,45065
63518,44953
63727,44745
63840,44472
63840,44471
64359,44471
64471,44743
64679,44952
64952,45065
65246,45065
65518,44953
65727,44745
65840,44472
65840,44471
66364,44471
66476,44743
66684,44952
66957,45065
67251,45065
67523,44953
67732,44745
67845,44472
67845,44178
67733,43906
67525,43697
67252,43584
66958,43584
66686,43696
66477,43904
66364,44177
66364,44471
65840,44471
65840,44178
65728,43906
65520,43697
65247,43584
64953,43584
64681,43696
64472,43904
64359,44177
64359,44471
63840,44471
63840,44178
63728,43906
63520,43697
63247,43584
62953,43584
62681,43696
62472,43904
62359,44177
62359,44471
60979,44471
60979,43590
60982,43593
61009,43566
61077,43663
61352,43769
61647,43761
61882,43663
61950,43566
61480,43095
61474,43101
61403,43030
61409,43025
61550,43025
62021,43495
62118,43427
62224,43152
62216,42857
62118,42622
62021,42554
61550,43025
61409,43025
61403,43019
61474,42948
61480,42954
61950,42483
61882,42386
61607,42280
61312,42288
61077,42386
61009,42483
60982,42456
60979,42459
60979,42277
61412,42277
61450,42239
61450,41980
61442,41980
61442,41880
61450,41880
61450,41621
61412,41583
60979,41583
60979,41093
61007,41099
61992,41099
62047,41088
62098,41055
62100,41052
62100,41323
62111,41378
62144,41429
62194,41464
62253,41476
62746,41476
62801,41465
62832,41445
62839,41481
62861,41515
62841,41544
62831,41593
62805,41575
62746,41563
62253,41563
62198,41574
62147,41607
62119,41648
62077,41606
62021,41583
61587,41583
61550,41621
61550,41880
61557,41880
61557,41980
61550,41980
61550,42239
61587,42277
62021,42277
62077,42254
62119,42212
62127,42191
62144,42217
62194,42251
62253,42263
62746,42263
62801,42253
62843,42225
62890,42235
62922,42256
62981,42268
63218,42268
63273,42258
63324,42225
63358,42175
63371,42115
63371,41958
63360,41902
63332,41859
63358,41821
63360,41813
63388,41833
63448,41845
64019,41845
64074,41834
64125,41802
64127,41799
64420,41799
64496,41784
64560,41740
64567,41734
64567,41961
64513,41971
64462,42004
64428,42054
64416,42113
64416,42606
64426,42661
64459,42712
64509,42746
64569,42759
64963,42759
65018,42748
65069,42715
65104,42665
65116,42606
65116,42113
65105,42058
65072,42007
65022,41973
64965,41961
64965,41796
65034,41727
65038,41748
65071,41799
65121,41833
65180,41845
65191,41845
65191,41913
65232,42011
65240,42019
65215,42054
65203,42113
65203,42606
65214,42661
65247,42712
65297,42746
65356,42759
65750,42759
65806,42748
65857,42715
65891,42665
65903,42606
65903,42603
65922,42616
65981,42628
66218,42628
66273,42618
66279,42614
66279,42932
66290,42987
66322,43038
66373,43073
66432,43085
66826,43085
66881,43074
66932,43041
66967,42991
66979,42932
66979,42527
67463,42527
67463,42961
67486,43017
67528,43059
67583,43082
67723,43082
67760,43044
67760,42490
67860,42490
67860,43044
67898,43082
67980,43082
67983,43192
68081,43427
68178,43495
68649,43025
68178,42554
68157,42569
68157,42527
68119,42490
67860,42490
67760,42490
67501,42490
67463,42527
66979,42527
66979,41947
66973,41918
67463,41918
67463,42352
67501,42390
67760,42390
67760,41835
67860,41835
67860,42390
68119,42390
68157,42352
68157,41918
68134,41862
68092,41820
68037,41797
67898,41797
67860,41835
67760,41835
67723,41797
67583,41797
67528,41820
67486,41862
67463,41918
66973,41918
66968,41892
66935,41841
66885,41806
66828,41795
66828,41689
66813,41613
66770,41548
66423,41201
66420,41200
67140,41200
67154,41269
67154,41288
67222,41451
67347,41577
67511,41645
67688,41645
67851,41577
67977,41452
67999,41399
68251,41399
68347,41542
68505,41647
68690,41684
68709,41684
68894,41647
69052,41542
69157,41385
69194,41200
69157,41014
69052,40857
68894,40752
68709,40715
68690,40715
68505,40752
68347,40857
68251,41000
67999,41000
67977,40948
67852,40822
67688,40754
67619,40754
67600,40750
67580,40754
67511,40754
67348,40822
67222,40947
67154,41111
67154,41129
67140,41200
66420,41200
66359,41158
66344,41155
66358,41135
66371,41075
66371,40918
66360,40862
66332,40819
66358,40781
66371,40721
66371,40564
66360,40508
66345,40485
66411,40457
66537,40332
66605,40168
66605,39991
66537,39828
66412,39702
66359,39680
66359,39680
66344,39603
66300,39539
66098,39337
66098,39142
66244,39142
66299,39131
66350,39098
66385,39048
66397,38989
66397,38981
66500,38981
66720,39202
66720,39520
66735,39596
66779,39660
67176,40058
67154,40111
67154,40288
67222,40451
67347,40577
67511,40645
67688,40645
67851,40577
67977,40452
67999,40399
68251,40399
68347,40542
68505,40647
68690,40684
68709,40684
68894,40647
69052,40542
69157,40385
69194,40200
69157,40014
69052,39857
68894,39752
68709,39715
68690,39715
68505,39752
68347,39857
68251,40000
67999,40000
67977,39948
67852,39822
67688,39754
67511,39754
67458,39776
67209,39527
67342,39527
67375,39594
67543,39650
67719,39637
67824,39594
67857,39527
67600,39270
67342,39527
67209,39527
67119,39437
67119,39143
67149,39143
67162,39319
67205,39424
67272,39457
67529,39200
67670,39200
67927,39457
67994,39424
68027,39324
68231,39324
68280,39442
68405,39584
68575,39668
68650,39644
68650,39250
68750,39250
68750,39644
68824,39668
68994,39584
69119,39442
69168,39324
69144,39250
68750,39250
68650,39250
68255,39250
68231,39324
68027,39324
68050,39256
68037,39080
68035,39075
68231,39075
68255,39150
68650,39150
68650,38755
68750,38755
68750,39150
69144,39150
69168,39075
69119,38957
68994,38815
68824,38731
68750,38755
68650,38755
68575,38731
68405,38815
68280,38957
68231,39075
68035,39075
67994,38975
67927,38942
67670,39200
67529,39200
67272,38942
67205,38975
67149,39143
67119,39143
67119,39120
67104,39043
67060,38979
66953,38872
67342,38872
67600,39129
67857,38872
67824,38805
67656,38749
67480,38762
67375,38805
67342,38872
66953,38872
66723,38641
66658,38598
66582,38583
66397,38583
66397,38575
66386,38520
66353,38469
66303,38434
66244,38422
66067,38422
66026,38430
65988,38422
65811,38422
65770,38430
65732,38422
65566,38422
65555,38407
65582,38418
65701,38418
65738,38381
65738,38029
65838,38029
65838,38381
65876,38418
65994,38418
66049,38395
66091,38353
66114,38298
66114,38066
66077,38029
65838,38029
65738,38029
65499,38029
65462,38066
65462,38298
65463,38302
65440,38279
65376,38235
65300,38220
65057,38220
65057,38066
65020,38029
64781,38029
64781,38037
64681,38037
64681,38029
64442,38029
64405,38066
64405,38203
64402,38201
64402,38023
64387,37947
64345,37883
64405,37823
64405,37891
64442,37929
64681,37929
64681,37488
64757,37488
64757,37719
64780,37774
64781,37775
64781,37929
65020,37929
65057,37891
65057,37488
65033,37464
65033,37450
65133,37450
65133,37802
65171,37840
65289,37840
65344,37817
65387,37774
65410,37719
65410,37488
65462,37488
65462,37891
65499,37929
65738,37929
65738,37450
65838,37450
65838,37929
66077,37929
66114,37891
66114,37488
66077,37450
65838,37450
65738,37450
65499,37450
65462,37488
65410,37488
65372,37450
65133,37450
65033,37450
64781,37450
64781,37464
64757,37488
64681,37488
64681,37450
64673,37450
64673,37350
64681,37350
64681,37342
64781,37342
64781,37350
65033,37350
65033,37342
65133,37342
65133,37350
65372,37350
65410,37313
65410,37159
65462,37159
65462,37313
65499,37350
65738,37350
65738,37342
65838,37342
65838,37350
66077,37350
66114,37313
66114,37081
66091,37026
66049,36984
65994,36961
65876,36961
65838,36998
65838,36961
65795,36961
65799,36954
65811,36957
65988,36957
66026,36949
66037,36954
66073,36954
66111,36916
66111,36889
66129,36863
66141,36804
66141,36539
66199,36539
66199,36547
66213,36547
66213,36647
66199,36647
66199,36916
66237,36954
66274,36954
66291,36947
66291,37148
66301,37203
66334,37254
66384,37288
66444,37301
66601,37301
66657,37290
66700,37262
66713,37275
66768,37298
66800,37298
66837,37260
66837,37080
66916,37080
66916,37260
66954,37298
66985,37298
67040,37275
67083,37233
67105,37177
67105,37117
67068,37080
66916,37080
66837,37080
66819,37080
66819,36980
66837,36980
66837,36972
66916,36972
66916,36980
67068,36980
67105,36942
67105,36882
67097,36861
67107,36852
67148,36753
67148,36646
67108,36551
67108,36510
67400,36802
" /> 
<polyline style="fill-rule:evenodd;"
points="65146,38989
65156,39044
65176,39075
65176,39101
65213,39139
65250,39139
65261,39134
65299,39142
65476,39142
65517,39134
65555,39142
65700,39142
65700,39419
65715,39495
65758,39560
65904,39706
65792,39817
65783,39768
65750,39717
65700,39683
65640,39670
65246,39670
65191,39681
65140,39714
65105,39764
65093,39823
65093,40316
65104,40371
65137,40422
65181,40453
65171,40476
65171,40583
65176,40595
65125,40605
65074,40637
65039,40688
65027,40747
65027,40924
65035,40963
65030,40973
65030,41010
65068,41047
65095,41047
65121,41065
65180,41077
65524,41077
65524,41106
65180,41106
65125,41116
65094,41136
65068,41136
65030,41173
65030,41180
64991,41207
64855,41342
64855,40468
64908,40458
64959,40425
64994,40375
65006,40316
65006,39823
64995,39768
64962,39717
64912,39683
64853,39670
64728,39670
64767,39632
64808,39533
64808,39426
64793,39392
64836,39384
64900,39340
65017,39224
65060,39160
65067,39121
65087,39101
65087,39074
65105,39048
65117,38989
65117,38724
65146,38724
65146,38989
" /> 
<polyline style="fill-rule:evenodd;"
points="63716,39416
63681,39466
63669,39526
63669,39723
63680,39778
63713,39829
63763,39864
63822,39876
64177,39876
64232,39865
64283,39832
64289,39823
64306,39823
64306,39890
64249,39929
64208,39970
64177,39963
63822,39963
63767,39974
63716,40007
63681,40057
63669,40116
63669,40313
63680,40369
63713,40420
63763,40454
63822,40466
64177,40466
64232,40456
64283,40423
64296,40404
64320,40399
64330,40392
64349,40422
64399,40456
64457,40468
64457,41177
64392,41112
64293,41071
64186,41071
64172,41077
64172,41003
64164,40964
64169,40954
64169,40917
64131,40880
64104,40880
64078,40862
64019,40850
63675,40850
63675,40791
63683,40791
63683,40635
63783,40635
63783,40791
64131,40791
64169,40754
64169,40717
64146,40662
64104,40620
64049,40597
63821,40597
63783,40635
63683,40635
63646,40597
63418,40597
63371,40617
63371,40568
63360,40512
63332,40469
63358,40431
63371,40371
63371,40214
63360,40158
63327,40107
63309,40095
63351,40077
63477,39952
63545,39788
63545,39611
63523,39558
63682,39399
63743,39399
63716,39416
" /> 
<polyline style="fill-rule:evenodd;"
points="68320,34159
68287,34159
68250,34196
68250,34456
68257,34456
68257,34556
68250,34556
68250,34815
68287,34853
68320,34853
68320,34943
67953,34943
67898,34954
67847,34987
67813,35037
67800,35096
67800,35420
67765,35435
67652,35322
67488,35254
67371,35254
67371,35131
67333,35093
67025,35093
67025,35353
67062,35390
67079,35390
67046,35423
66351,35423
66347,35417
66297,35383
66273,35378
66260,35359
66110,35209
66046,35165
65970,35150
65374,35150
65378,35131
66578,35131
66578,35270
66601,35325
66643,35367
66699,35390
66887,35390
66925,35353
66925,35093
66616,35093
66578,35131
65378,35131
65380,35122
65380,35047
65397,35064
65453,35087
65887,35087
65925,35049
65925,34790
66025,34790
66025,35049
66062,35087
66496,35087
66552,35064
66594,35022
66609,34986
66616,34993
66925,34993
66925,34734
67025,34734
67025,34993
67333,34993
67371,34956
67371,34817
67348,34761
67306,34719
67250,34696
67062,34696
67025,34734
66925,34734
66887,34696
66699,34696
66643,34719
66601,34761
66586,34797
66579,34790
66025,34790
65925,34790
65917,34790
65917,34690
65925,34690
65925,34431
65887,34393
65453,34393
65397,34416
65355,34458
65332,34513
65332,34653
65370,34690
65332,34690
65332,34717
65306,34699
65302,34680
65299,34665
65245,34584
65135,34474
65119,34463
65119,34221
65109,34165
65105,34159
65116,34132
65116,34062
65079,34025
64808,34025
64808,34032
64708,34032
64708,34025
64436,34025
64399,34062
64399,34132
64410,34159
64408,34161
64396,34221
64396,34285
64284,34173
64244,34146
64253,34102
64253,33849
64399,33849
64399,33887
64436,33925
64708,33925
64708,33917
64808,33917
64808,33925
65079,33925
65116,33887
65116,33845
65195,33829
65227,33807
65339,33807
65340,33811
65373,33862
65423,33897
65482,33909
66467,33909
66522,33898
66573,33865
66585,33848
66606,33848
66606,33954
66609,33969
66588,33999
66575,34059
66575,34440
66552,34416
66496,34393
66062,34393
66025,34431
66025,34690
66579,34690
66617,34653
66617,34556
66619,34559
66669,34594
66728,34606
67221,34606
67276,34595
67279,34593
67803,34593
67803,34732
67826,34788
67868,34830
67924,34853
68112,34853
68150,34815
68150,34556
67841,34556
67803,34593
67279,34593
67327,34562
67361,34512
67374,34453
67374,34328
67396,34338
67503,34338
67601,34297
67619,34279
67803,34279
67803,34418
67841,34456
68150,34456
68150,34196
68112,34159
67924,34159
67868,34182
67826,34224
67803,34279
67619,34279
67677,34222
67718,34123
67718,34016
67693,33957
67693,33791
67696,33777
67696,33422
67686,33367
67653,33316
67603,33281
67543,33269
67346,33269
67291,33280
67240,33313
67205,33363
67193,33422
67193,33777
67196,33792
67196,33906
67155,33906
67150,33899
67103,33851
67103,33791
67106,33777
67106,33422
67095,33367
67062,33316
67012,33281
66953,33269
66756,33269
66700,33280
66649,33313
66623,33351
66617,33351
66609,33307
66576,33255
66526,33221
66467,33209
65482,33209
65427,33220
65376,33252
65341,33303
65340,33311
65140,33311
65058,33327
65045,33329
65034,33337
65026,33332
64966,33320
64549,33320
64493,33330
64459,33352
64189,33352
64160,33332
64100,33320
63683,33320
63627,33330
63585,33357
63579,33327
63547,33276
63496,33241
63437,33229
63043,33229
62988,33240
62937,33273
62902,33323
62890,33382
62890,34367
62901,34422
62934,34473
62984,34508
63014,34514
63028,34586
63030,34595
63084,34675
63113,34704
63043,34704
62988,34715
62937,34748
62902,34798
62890,34857
62890,35842
62901,35897
62934,35948
62984,35983
62995,35985
62872,36107
62871,36111
62760,36111
62713,36091
62606,36091
62508,36132
62432,36207
62391,36306
62391,36413
62432,36511
62507,36587
62606,36628
62713,36628
62760,36608
62870,36608
62872,36611
62997,36737
63161,36805
63338,36805
63359,36796
63341,36814
63318,36869
63318,36931
63297,36910
63242,36887
63152,36887
63115,36924
63115,37144
63122,37144
63122,37244
63115,37244
63115,37252
63015,37252
63015,37244
62804,37244
62767,37282
62767,37382
62790,37437
62832,37479
62855,37489
62810,37518
62776,37568
62764,37627
62764,37933
62699,37999
62669,38043
62662,38043
62607,38053
62556,38086
62521,38136
62509,38196
62509,38393
62520,38448
62553,38499
62603,38534
62662,38546
63017,38546
63072,38535
63123,38502
63158,38452
63170,38393
63170,38196
63166,38175
63205,38135
63213,38123
63235,38091
63268,38085
63288,38071
63315,38077
63315,38080
63326,38136
63359,38187
63397,38212
63338,38237
63212,38362
63144,38526
63144,38703
63150,38716
63126,38680
63076,38645
63017,38633
62662,38633
62607,38644
62556,38677
62521,38727
62509,38786
62509,38828
62449,38767
62449,37800
62434,37723
62390,37659
62190,37459
62126,37415
62050,37400
61750,37400
61673,37415
61609,37459
61459,37609
61431,37650
61426,37651
61375,37684
61341,37734
61328,37794
61328,37951
61339,38007
61367,38050
61341,38088
61328,38148
61328,38305
61339,38361
61351,38380
61308,38388
61257,38421
61222,38471
61210,38530
61210,39003
61221,39058
61254,39109
61304,39144
61363,39156
61836,39156
61891,39145
61942,39112
61977,39062
61989,39003
61989,38530
61978,38475
61945,38424
61895,38389
61848,38380
61858,38365
61871,38305
61871,38148
61860,38092
61832,38049
61858,38011
61871,37951
61871,37799
61967,37799
62050,37882
62050,38850
62065,38926
62109,38990
62409,39290
62473,39334
62550,39349
62630,39349
62687,39407
62741,39429
62722,39447
62654,39611
62654,39788
62722,39951
62847,40077
62890,40094
62875,40104
62841,40154
62828,40214
62828,40371
62839,40427
62867,40470
62841,40508
62828,40568
62828,40725
62839,40781
62861,40815
62852,40820
62805,40788
62746,40776
62665,40776
62640,40739
62510,40608
62445,40565
62369,40550
62144,40550
62134,40497
62101,40445
62051,40411
61992,40399
61007,40399
60979,40404
60979,39720
61213,39720
61213,39899
61236,39954
61278,39996
61333,40019
61512,40019
61550,39981
61550,39683
61650,39683
61650,39981
61687,40019
61866,40019
61921,39996
61963,39954
61986,39899
61986,39720
61948,39683
61650,39683
61550,39683
61251,39683
61213,39720
60979,39720
60979,39367
61213,39367
61213,39545
61251,39583
61550,39583
61550,39284
61650,39284
61650,39583
61948,39583
61986,39545
61986,39367
61963,39311
61921,39269
61866,39246
61687,39246
61650,39284
61550,39284
61512,39246
61333,39246
61278,39269
61236,39311
61213,39367
60979,39367
60979,37597
61179,37557
61244,37530
61244,37530
61536,37335
61585,37286
61771,37007
62767,37007
62767,37107
62804,37144
63015,37144
63015,36924
62977,36887
62887,36887
62832,36910
62790,36952
62767,37007
61771,37007
61780,36994
61807,36929
61876,36585
61876,36567
61879,36550
61879,35992
61971,35992
62009,35954
62009,35400
62109,35400
62109,35954
62146,35992
62286,35992
62341,35969
62383,35927
62406,35871
62406,35437
62368,35400
62109,35400
62009,35400
62001,35400
62001,35300
62009,35300
62009,34745
62109,34745
62109,35300
62368,35300
62406,35262
62406,34828
62383,34772
62341,34730
62286,34707
62146,34707
62109,34745
62009,34745
61971,34707
61879,34707
61879,34517
61971,34517
62009,34479
62009,33925
62109,33925
62109,34479
62146,34517
62286,34517
62341,34494
62383,34452
62406,34396
62406,33962
62368,33925
62109,33925
62009,33925
62001,33925
62001,33825
62009,33825
62009,33270
62109,33270
62109,33825
62368,33825
62406,33787
62406,33353
62383,33297
62341,33255
62286,33232
62146,33232
62109,33270
62009,33270
61971,33232
61879,33232
61879,33179
68320,33179
68320,34159
" /> 
<polyline style="fill-rule:evenodd;"
points="64169,35122
64179,35178
64212,35229
64262,35263
64322,35275
64637,35275
64692,35265
64743,35232
64775,35186
64803,35229
64853,35263
64887,35270
64739,35419
64695,35483
64685,35534
64670,35544
64663,35536
64607,35514
64547,35514
64510,35551
64510,35703
64517,35703
64517,35782
64510,35782
64510,35800
64410,35800
64410,35782
64229,35782
64191,35819
64191,35851
64214,35906
64227,35919
64201,35958
64188,36018
64188,36175
64199,36231
64213,36252
64169,36281
64134,36331
64122,36390
64122,36804
64133,36859
64165,36909
64165,37500
64076,37589
64070,37580
64020,37545
63961,37533
63468,37533
63413,37544
63362,37577
63357,37584
63355,37572
63322,37521
63274,37488
63297,37479
63339,37437
63357,37394
63383,37420
63439,37443
63627,37443
63665,37405
63665,37146
63765,37146
63765,37405
63802,37443
63990,37443
64046,37420
64088,37378
64111,37322
64111,37183
64073,37146
63765,37146
63665,37146
63657,37146
63657,37046
63665,37046
63665,36786
63765,36786
63765,37046
64073,37046
64111,37008
64111,36869
64088,36814
64046,36772
63990,36749
63802,36749
63765,36786
63665,36786
63627,36749
63473,36749
63501,36737
63627,36612
63695,36448
63695,36271
63627,36108
63502,35982
63498,35981
63544,35951
63578,35901
63590,35842
63590,35768
63683,35768
63697,35771
64052,35771
64107,35761
64158,35728
64193,35678
64194,35668
64229,35703
64410,35703
64410,35551
64372,35514
64312,35514
64256,35536
64214,35579
64205,35602
64205,35421
64194,35366
64161,35315
64111,35280
64052,35268
63697,35268
63682,35271
63590,35271
63590,35136
63638,35169
63697,35181
64052,35181
64107,35170
64158,35137
64169,35122
64169,35122
" /> 
<polyline style="fill-rule:evenodd;"
points="65469,35563
65650,35563
65650,35549
65750,35549
65750,35563
65757,35563
65757,35642
65750,35642
65750,35660
65650,35660
65650,35642
65469,35642
65431,35679
65431,35711
65454,35766
65467,35779
65442,35816
65383,35791
65276,35791
65178,35832
65141,35869
65151,35821
65151,35664
65140,35608
65129,35591
65172,35549
65455,35549
65469,35563
" /> 
</g>
<g style="fill:#FFFFFF; fill-opacity:1.0; 
stroke:#FFFFFF; stroke-width:100; stroke-opacity:1; 
stroke-linecap:round; stroke-linejoin:round;">
</g>
<g style="fill:#FFFFFF; fill-opacity:1.0; 
stroke:#FFFFFF; stroke-width:0; stroke-opacity:1; 
stroke-linecap:round; stroke-linejoin:round;">
<circle cx="63720" cy="36740" r="59.0551" /> 
</g>
<g style="fill:#FFFFFF; fill-opacity:1.0; 
stroke:#FFFFFF; stroke-width:39.3701; stroke-opacity:1; 
stroke-linecap:round; stroke-linejoin:round;">
</g>
<g style="fill:#FFFFFF; fill-opacity:1.0; 
stroke:#FFFFFF; stroke-width:0; stroke-opacity:1; 
stroke-linecap:round; stroke-linejoin:round;">
<circle cx="64460" cy="35420" r="78.7402" /> 
</g>
<g style="fill:#FFFFFF; fill-opacity:1.0; 
stroke:#FFFFFF; stroke-width:39.3701; stroke-opacity:1; 
stroke-linecap:round; stroke-linejoin:round;">
</g>
<g style="fill:#FFFFFF; fill-opacity:1.0; 
stroke:#FFFFFF; stroke-width:0; stroke-opacity:1; 
stroke-linecap:round; stroke-linejoin:round;">
<circle cx="67500" cy="35040" r="78.7402" /> 
</g>
<g style="fill:#FFFFFF; fill-opacity:1.0; 
stroke:#FFFFFF; stroke-width:39.3701; stroke-opacity:1; 
stroke-linecap:round; stroke-linejoin:round;">
</g>
<g style="fill:#FFFFFF; fill-opacity:1.0; 
stroke:#FFFFFF; stroke-width:0; stroke-opacity:1; 
stroke-linecap:round; stroke-linejoin:round;">
<circle cx="65360" cy="35600" r="78.7402" /> 
</g>
<g style="fill:#FFFFFF; fill-opacity:1.0; 
stroke:#FFFFFF; stroke-width:39.3701; stroke-opacity:1; 
stroke-linecap:round; stroke-linejoin:round;">
</g>
<g style="fill:#FFFFFF; fill-opacity:1.0; 
stroke:#FFFFFF; stroke-width:0; stroke-opacity:1; 
stroke-linecap:round; stroke-linejoin:round;">
<circle cx="61600" cy="40200" r="78.7402" /> 
</g>
<g style="fill:#FFFFFF; fill-opacity:1.0; 
stroke:#FFFFFF; stroke-width:39.3701; stroke-opacity:1; 
stroke-linecap:round; stroke-linejoin:round;">
</g>
<g style="fill:#FFFFFF; fill-opacity:1.0; 
stroke:#FFFFFF; stroke-width:0; stroke-opacity:1; 
stroke-linecap:round; stroke-linejoin:round;">
<circle cx="64920" cy="41100" r="78.7402" /> 
</g>
<g style="fill:#FFFFFF; fill-opacity:1.0; 
stroke:#FFFFFF; stroke-width:39.3701; stroke-opacity:1; 
stroke-linecap:round; stroke-linejoin:round;">
</g>
<g style="fill:#FFFFFF; fill-opacity:1.0; 
stroke:#FFFFFF; stroke-width:0; stroke-opacity:1; 
stroke-linecap:round; stroke-linejoin:round;">
<circle cx="65436.2" cy="37979.4" r="78.7402" /> 
</g>
<g style="fill:#FFFFFF; fill-opacity:1.0; 
stroke:#FFFFFF; stroke-width:39.3701; stroke-opacity:1; 
stroke-linecap:round; stroke-linejoin:round;">
</g>
<g style="fill:#FFFFFF; fill-opacity:1.0; 
stroke:#FFFFFF; stroke-width:0; stroke-opacity:1; 
stroke-linecap:round; stroke-linejoin:round;">
<circle cx="68200" cy="34000" r="78.7402" /> 
</g>
<g style="fill:#FFFFFF; fill-opacity:1.0; 
stroke:#FFFFFF; stroke-width:39.3701; stroke-opacity:1; 
stroke-linecap:round; stroke-linejoin:round;">
</g>
<g style="fill:#FFFFFF; fill-opacity:1.0; 
stroke:#FFFFFF; stroke-width:0; stroke-opacity:1; 
stroke-linecap:round; stroke-linejoin:round;">
<circle cx="63500" cy="40420" r="78.7402" /> 
</g>
<g style="fill:#FFFFFF; fill-opacity:1.0; 
stroke:#FFFFFF; stroke-width:39.3701; stroke-opacity:1; 
stroke-linecap:round; stroke-linejoin:round;">
</g>
<g style="fill:#FFFFFF; fill-opacity:1.0; 
stroke:#FFFFFF; stroke-width:0; stroke-opacity:1; 
stroke-linecap:round; stroke-linejoin:round;">
<circle cx="65975" cy="34150" r="78.7402" /> 
</g>
<g style="fill:#FFFFFF; fill-opacity:1.0; 
stroke:#FFFFFF; stroke-width:39.3701; stroke-opacity:1; 
stroke-linecap:round; stroke-linejoin:round;">
</g>
<g style="fill:#FFFFFF; fill-opacity:1.0; 
stroke:#FFFFFF; stroke-width:0; stroke-opacity:1; 
stroke-linecap:round; stroke-linejoin:round;">
<circle cx="62650" cy="35350" r="78.7402" /> 
</g>
<g style="fill:#FFFFFF; fill-opacity:1.0; 
stroke:#FFFFFF; stroke-width:39.3701; stroke-opacity:1; 
stroke-linecap:round; stroke-linejoin:round;">
</g>
<g style="fill:#FFFFFF; fill-opacity:1.0; 
stroke:#FFFFFF; stroke-width:0; stroke-opacity:1; 
stroke-linecap:round; stroke-linejoin:round;">
<circle cx="62650" cy="33875" r="78.7402" /> 
</g>
<g style="fill:#FFFFFF; fill-opacity:1.0; 
stroke:#FFFFFF; stroke-width:39.3701; stroke-opacity:1; 
stroke-linecap:round; stroke-linejoin:round;">
</g>
<g style="fill:#FFFFFF; fill-opacity:1.0; 
stroke:#FFFFFF; stroke-width:0; stroke-opacity:1; 
stroke-linecap:round; stroke-linejoin:round;">
<circle cx="65788.5" cy="37400.6" r="78.7402" /> 
</g>
<g style="fill:#FFFFFF; fill-opacity:1.0; 
stroke:#FFFFFF; stroke-width:39.3701; stroke-opacity:1; 
stroke-linecap:round; stroke-linejoin:round;">
</g>
<g style="fill:#FFFFFF; fill-opacity:1.0; 
stroke:#FFFFFF; stroke-width:0; stroke-opacity:1; 
stroke-linecap:round; stroke-linejoin:round;">
<circle cx="65436.2" cy="37400.6" r="78.7402" /> 
</g>
<g style="fill:#FFFFFF; fill-opacity:1.0; 
stroke:#FFFFFF; stroke-width:39.3701; stroke-opacity:1; 
stroke-linecap:round; stroke-linejoin:round;">
</g>
<g style="fill:#FFFFFF; fill-opacity:1.0; 
stroke:#FFFFFF; stroke-width:0; stroke-opacity:1; 
stroke-linecap:round; stroke-linejoin:round;">
<circle cx="65083.8" cy="37400.6" r="78.7402" /> 
</g>
<g style="fill:#FFFFFF; fill-opacity:1.0; 
stroke:#FFFFFF; stroke-width:39.3701; stroke-opacity:1; 
stroke-linecap:round; stroke-linejoin:round;">
</g>
<g style="fill:#FFFFFF; fill-opacity:1.0; 
stroke:#FFFFFF; stroke-width:0; stroke-opacity:1; 
stroke-linecap:round; stroke-linejoin:round;">
<circle cx="65083.8" cy="37979.4" r="78.7402" /> 
</g>
<g style="fill:#FFFFFF; fill-opacity:1.0; 
stroke:#FFFFFF; stroke-width:39.3701; stroke-opacity:1; 
stroke-linecap:round; stroke-linejoin:round;">
</g>
<g style="fill:#FFFFFF; fill-opacity:1.0; 
stroke:#FFFFFF; stroke-width:0; stroke-opacity:1; 
stroke-linecap:round; stroke-linejoin:round;">
<circle cx="64731.5" cy="37979.4" r="78.7402" /> 
</g>
<g style="fill:#FFFFFF; fill-opacity:1.0; 
stroke:#FFFFFF; stroke-width:39.3701; stroke-opacity:1; 
stroke-linecap:round; stroke-linejoin:round;">
</g>
<g style="fill:#FFFFFF; fill-opacity:1.0; 
stroke:#FFFFFF; stroke-width:0; stroke-opacity:1; 
stroke-linecap:round; stroke-linejoin:round;">
<circle cx="64731.5" cy="37400.6" r="78.7402" /> 
</g>
<g style="fill:#FFFFFF; fill-opacity:1.0; 
stroke:#FFFFFF; stroke-width:39.3701; stroke-opacity:1; 
stroke-linecap:round; stroke-linejoin:round;">
</g>
<g style="fill:#FFFFFF; fill-opacity:1.0; 
stroke:#FFFFFF; stroke-width:0; stroke-opacity:1; 
stroke-linecap:round; stroke-linejoin:round;">
<circle cx="65360" cy="39360" r="78.7402" /> 
</g>
<g style="fill:#FFFFFF; fill-opacity:1.0; 
stroke:#FFFFFF; stroke-width:39.3701; stroke-opacity:1; 
stroke-linecap:round; stroke-linejoin:round;">
</g>
<g style="fill:#FFFFFF; fill-opacity:1.0; 
stroke:#FFFFFF; stroke-width:0; stroke-opacity:1; 
stroke-linecap:round; stroke-linejoin:round;">
<circle cx="65788.5" cy="37979.4" r="78.7402" /> 
</g>
<g style="fill:#FFFFFF; fill-opacity:1.0; 
stroke:#FFFFFF; stroke-width:39.3701; stroke-opacity:1; 
stroke-linecap:round; stroke-linejoin:round;">
</g>
<g style="fill:#FFFFFF; fill-opacity:1.0; 
stroke:#FFFFFF; stroke-width:0; stroke-opacity:1; 
stroke-linecap:round; stroke-linejoin:round;">
<circle cx="66880" cy="36700" r="78.7402" /> 
</g>
<g style="fill:#FFFFFF; fill-opacity:1.0; 
stroke:#FFFFFF; stroke-width:39.3701; stroke-opacity:1; 
stroke-linecap:round; stroke-linejoin:round;">
</g>
<g style="fill:#FFFFFF; fill-opacity:1.0; 
stroke:#FFFFFF; stroke-width:0; stroke-opacity:1; 
stroke-linecap:round; stroke-linejoin:round;">
<circle cx="67900" cy="35670" r="78.7402" /> 
</g>
<g style="fill:#FFFFFF; fill-opacity:1.0; 
stroke:#FFFFFF; stroke-width:39.3701; stroke-opacity:1; 
stroke-linecap:round; stroke-linejoin:round;">
</g>
<g style="fill:#FFFFFF; fill-opacity:1.0; 
stroke:#FFFFFF; stroke-width:0; stroke-opacity:1; 
stroke-linecap:round; stroke-linejoin:round;">
<circle cx="62840" cy="39180" r="78.7402" /> 
</g>
<g style="fill:#FFFFFF; fill-opacity:1.0; 
stroke:#FFFFFF; stroke-width:39.3701; stroke-opacity:1; 
stroke-linecap:round; stroke-linejoin:round;">
</g>
<g style="fill:#FFFFFF; fill-opacity:1.0; 
stroke:#FFFFFF; stroke-width:0; stroke-opacity:1; 
stroke-linecap:round; stroke-linejoin:round;">
<circle cx="67900" cy="35950" r="78.7402" /> 
</g>
<g style="fill:#FFFFFF; fill-opacity:1.0; 
stroke:#FFFFFF; stroke-width:39.3701; stroke-opacity:1; 
stroke-linecap:round; stroke-linejoin:round;">
</g>
<g style="fill:#FFFFFF; fill-opacity:1.0; 
stroke:#FFFFFF; stroke-width:0; stroke-opacity:1; 
stroke-linecap:round; stroke-linejoin:round;">
<circle cx="68200" cy="35960" r="78.7402" /> 
</g>
<g style="fill:#FFFFFF; fill-opacity:1.0; 
stroke:#FFFFFF; stroke-width:39.3701; stroke-opacity:1; 
stroke-linecap:round; stroke-linejoin:round;">
</g>
<g style="fill:#FFFFFF; fill-opacity:1.0; 
stroke:#FFFFFF; stroke-width:0; stroke-opacity:1; 
stroke-linecap:round; stroke-linejoin:round;">
<circle cx="68200" cy="35670" r="78.7402" /> 
</g>
<g style="fill:#FFFFFF; fill-opacity:1.0; 
stroke:#FFFFFF; stroke-width:39.3701; stroke-opacity:1; 
stroke-linecap:round; stroke-linejoin:round;">
</g>
<g style="fill:#FFFFFF; fill-opacity:1.0; 
stroke:#FFFFFF; stroke-width:0; stroke-opacity:1; 
stroke-linecap:round; stroke-linejoin:round;">
<circle cx="64540" cy="39480" r="78.7402" /> 
</g>
<g style="fill:#FFFFFF; fill-opacity:1.0; 
stroke:#FFFFFF; stroke-width:39.3701; stroke-opacity:1; 
stroke-linecap:round; stroke-linejoin:round;">
</g>
<g style="fill:#FFFFFF; fill-opacity:1.0; 
stroke:#FFFFFF; stroke-width:0; stroke-opacity:1; 
stroke-linecap:round; stroke-linejoin:round;">
<circle cx="67450" cy="34070" r="78.7402" /> 
</g>
<g style="fill:#FFFFFF; fill-opacity:1.0; 
stroke:#FFFFFF; stroke-width:39.3701; stroke-opacity:1; 
stroke-linecap:round; stroke-linejoin:round;">
</g>
<g style="fill:#FFFFFF; fill-opacity:1.0; 
stroke:#FFFFFF; stroke-width:0; stroke-opacity:1; 
stroke-linecap:round; stroke-linejoin:round;">
<circle cx="65440" cy="40530" r="78.7402" /> 
</g>
<g style="fill:#FFFFFF; fill-opacity:1.0; 
stroke:#FFFFFF; stroke-width:39.3701; stroke-opacity:1; 
stroke-linecap:round; stroke-linejoin:round;">
</g>
<g style="fill:#FFFFFF; fill-opacity:1.0; 
stroke:#FFFFFF; stroke-width:0; stroke-opacity:1; 
stroke-linecap:round; stroke-linejoin:round;">
<circle cx="62660" cy="36360" r="78.7402" /> 
</g>
<g style="fill:#FFFFFF; fill-opacity:1.0; 
stroke:#FFFFFF; stroke-width:39.3701; stroke-opacity:1; 
stroke-linecap:round; stroke-linejoin:round;">
</g>
<g style="fill:#FFFFFF; fill-opacity:1.0; 
stroke:#FFFFFF; stroke-width:0; stroke-opacity:1; 
stroke-linecap:round; stroke-linejoin:round;">
<circle cx="65460" cy="41860" r="78.7402" /> 
</g>
<g style="fill:#FFFFFF; fill-opacity:1.0; 
stroke:#FFFFFF; stroke-width:39.3701; stroke-opacity:1; 
stroke-linecap:round; stroke-linejoin:round;">
</g>
<g style="fill:#FFFFFF; fill-opacity:1.0; 
stroke:#FFFFFF; stroke-width:0; stroke-opacity:1; 
stroke-linecap:round; stroke-linejoin:round;">
<circle cx="64240" cy="41340" r="78.7402" /> 
</g>
<g style="fill:#FFFFFF; fill-opacity:1.0; 
stroke:#FFFFFF; stroke-width:39.3701; stroke-opacity:1; 
stroke-linecap:round; stroke-linejoin:round;">
</g>
<g style="fill:#FFFFFF; fill-opacity:1.0; 
stroke:#FFFFFF; stroke-width:0; stroke-opacity:1; 
stroke-linecap:round; stroke-linejoin:round;">
<circle cx="67860" cy="37440" r="78.7402" /> 
</g>
<g style="fill:#FFFFFF; fill-opacity:1.0; 
stroke:#FFFFFF; stroke-width:39.3701; stroke-opacity:1; 
stroke-linecap:round; stroke-linejoin:round;">
</g>
<g style="fill:#FFFFFF; fill-opacity:1.0; 
stroke:#FFFFFF; stroke-width:0; stroke-opacity:1; 
stroke-linecap:round; stroke-linejoin:round;">
<circle cx="66460" cy="36060" r="78.7402" /> 
</g>
<g style="fill:#FFFFFF; fill-opacity:1.0; 
stroke:#FFFFFF; stroke-width:39.3701; stroke-opacity:1; 
stroke-linecap:round; stroke-linejoin:round;">
</g>
<g style="fill:#FFFFFF; fill-opacity:1.0; 
stroke:#FFFFFF; stroke-width:0; stroke-opacity:1; 
stroke-linecap:round; stroke-linejoin:round;">
<circle cx="65330" cy="36060" r="78.7402" /> 
</g>
<g style="fill:#FFFFFF; fill-opacity:1.0; 
stroke:#FFFFFF; stroke-width:39.3701; stroke-opacity:1; 
stroke-linecap:round; stroke-linejoin:round;">
</g>
<g style="fill:#FFFFFF; fill-opacity:1.0; 
stroke:#FFFFFF; stroke-width:0; stroke-opacity:1; 
stroke-linecap:round; stroke-linejoin:round;">
<circle cx="67105" cy="44325" r="295.276" /> 
</g>
<g style="fill:#FFFFFF; fill-opacity:1.0; 
stroke:#FFFFFF; stroke-width:39.3701; stroke-opacity:1; 
stroke-linecap:round; stroke-linejoin:round;">
</g>
<g style="fill:#FFFFFF; fill-opacity:1.0; 
stroke:#FFFFFF; stroke-width:0; stroke-opacity:1; 
stroke-linecap:round; stroke-linejoin:round;">
<circle cx="61480" cy="43025" r="295.276" /> 
</g>
<g style="fill:#FFFFFF; fill-opacity:1.0; 
stroke:#FFFFFF; stroke-width:39.3701; stroke-opacity:1; 
stroke-linecap:round; stroke-linejoin:round;">
</g>
<g style="fill:#FFFFFF; fill-opacity:1.0; 
stroke:#FFFFFF; stroke-width:0; stroke-opacity:1; 
stroke-linecap:round; stroke-linejoin:round;">
<circle cx="68720" cy="43025" r="295.276" /> 
</g>
<g style="fill:#FFFFFF; fill-opacity:1.0; 
stroke:#FFFFFF; stroke-width:39.3701; stroke-opacity:1; 
stroke-linecap:round; stroke-linejoin:round;">
</g>
<g style="fill:#FFFFFF; fill-opacity:1.0; 
stroke:#FFFFFF; stroke-width:0; stroke-opacity:1; 
stroke-linecap:round; stroke-linejoin:round;">
<circle cx="63100" cy="44325" r="295.276" /> 
</g>
<g style="fill:#FFFFFF; fill-opacity:1.0; 
stroke:#FFFFFF; stroke-width:39.3701; stroke-opacity:1; 
stroke-linecap:round; stroke-linejoin:round;">
</g>
<g style="fill:#FFFFFF; fill-opacity:1.0; 
stroke:#FFFFFF; stroke-width:0; stroke-opacity:1; 
stroke-linecap:round; stroke-linejoin:round;">
<circle cx="65100" cy="44325" r="295.276" /> 
</g>
<g style="fill:#FFFFFF; fill-opacity:1.0; 
stroke:#FFFFFF; stroke-width:39.3701; stroke-opacity:1; 
stroke-linecap:round; stroke-linejoin:round;">
</g>
<g style="fill:#FFFFFF; fill-opacity:1.0; 
stroke:#FFFFFF; stroke-width:0; stroke-opacity:1; 
stroke-linecap:round; stroke-linejoin:round;">
<circle cx="68700" cy="38200" r="196.85" /> 
</g>
<g style="fill:#FFFFFF; fill-opacity:1.0; 
stroke:#FFFFFF; stroke-width:39.3701; stroke-opacity:1; 
stroke-linecap:round; stroke-linejoin:round;">
</g>
<g style="fill:#FFFFFF; fill-opacity:1.0; 
stroke:#FFFFFF; stroke-width:0; stroke-opacity:1; 
stroke-linecap:round; stroke-linejoin:round;">
<circle cx="68700" cy="39200" r="196.85" /> 
</g>
<g style="fill:#FFFFFF; fill-opacity:1.0; 
stroke:#FFFFFF; stroke-width:39.3701; stroke-opacity:1; 
stroke-linecap:round; stroke-linejoin:round;">
</g>
<g style="fill:#FFFFFF; fill-opacity:1.0; 
stroke:#FFFFFF; stroke-width:0; stroke-opacity:1; 
stroke-linecap:round; stroke-linejoin:round;">
<circle cx="68700" cy="40200" r="196.85" /> 
</g>
<g style="fill:#FFFFFF; fill-opacity:1.0; 
stroke:#FFFFFF; stroke-width:39.3701; stroke-opacity:1; 
stroke-linecap:round; stroke-linejoin:round;">
</g>
<g style="fill:#FFFFFF; fill-opacity:1.0; 
stroke:#FFFFFF; stroke-width:0; stroke-opacity:1; 
stroke-linecap:round; stroke-linejoin:round;">
<circle cx="68700" cy="41200" r="196.85" /> 
</g>
<g style="fill:#FFFFFF; fill-opacity:1.0; 
stroke:#FFFFFF; stroke-width:39.3701; stroke-opacity:1; 
stroke-linecap:round; stroke-linejoin:round;">
</g>
<g style="fill:#000000; fill-opacity:1.0; 
stroke:#000000; stroke-width:39.3701; stroke-opacity:1; 
stroke-linecap:round; stroke-linejoin:round;">
</g> 
</svg>
