G04 #@! TF.GenerationSoftware,KiCad,Pcbnew,5.1.5-52549c5~84~ubuntu18.04.1*
G04 #@! TF.CreationDate,2019-12-02T09:37:23+01:00*
G04 #@! TF.ProjectId,power_control_ipe_v1,706f7765-725f-4636-9f6e-74726f6c5f69,rev?*
G04 #@! TF.SameCoordinates,Original*
G04 #@! TF.FileFunction,Copper,L3,Inr*
G04 #@! TF.FilePolarity,Positive*
%FSLAX46Y46*%
G04 Gerber Fmt 4.6, Leading zero omitted, Abs format (unit mm)*
G04 Created by KiCad (PCBNEW 5.1.5-52549c5~84~ubuntu18.04.1) date 2019-12-02 09:37:23*
%MOMM*%
%LPD*%
G04 APERTURE LIST*
%ADD10C,2.020000*%
%ADD11C,2.200000*%
%ADD12R,2.200000X2.200000*%
%ADD13R,4.500000X2.000000*%
%ADD14R,2.000000X4.500000*%
%ADD15C,0.500000*%
%ADD16C,0.508000*%
%ADD17C,0.250000*%
G04 APERTURE END LIST*
D10*
X190524200Y-149769600D03*
X189799200Y-124744600D03*
X190399200Y-112594600D03*
X190474200Y-136994600D03*
X184974200Y-159044600D03*
X201424200Y-159069600D03*
D11*
X249694200Y-140889600D03*
X249694200Y-143429600D03*
X249694200Y-145969600D03*
X249694200Y-148509600D03*
X249694200Y-151049600D03*
X249694200Y-153589600D03*
X249694200Y-156129600D03*
D12*
X249694200Y-158669600D03*
D11*
X249684200Y-108659600D03*
X249684200Y-111199600D03*
X249684200Y-113739600D03*
X249684200Y-116279600D03*
X249684200Y-118819600D03*
X249684200Y-121359600D03*
X249684200Y-123899600D03*
X249684200Y-126439600D03*
X249684200Y-128979600D03*
D12*
X249684200Y-131519600D03*
D10*
X220294200Y-108119600D03*
X222834200Y-108119600D03*
X225374200Y-108119600D03*
X227914200Y-108119600D03*
D13*
X166878000Y-115795800D03*
X166878000Y-121795800D03*
D14*
X162178000Y-118795800D03*
D15*
X170599200Y-134525000D03*
X175024200Y-117169600D03*
X175024200Y-117769600D03*
X175024200Y-118369600D03*
X174424200Y-117169600D03*
X174424200Y-117769600D03*
X174424200Y-118369600D03*
X174494200Y-129199600D03*
X175194200Y-129199600D03*
X174494200Y-129799600D03*
X175194200Y-129799600D03*
X174494200Y-130399600D03*
X175194200Y-130399600D03*
X168024200Y-152649600D03*
X173524200Y-153939600D03*
X174524200Y-153939600D03*
X174524200Y-154669600D03*
X173524200Y-154669600D03*
X173524200Y-155419600D03*
X174524200Y-155419600D03*
X175524200Y-153939600D03*
X175024200Y-141669600D03*
X175014200Y-142439600D03*
X174014200Y-142389600D03*
X174024200Y-141669600D03*
X174024200Y-140949600D03*
X175044200Y-140959600D03*
X176044200Y-140939600D03*
X181024200Y-122499600D03*
X184124200Y-128869600D03*
X182824200Y-128069600D03*
X182824200Y-122519600D03*
X180524200Y-123979600D03*
X181924200Y-121769600D03*
X185224200Y-130569600D03*
X185624200Y-122509600D03*
X186524200Y-122509600D03*
X181024200Y-121769600D03*
X186524200Y-121769600D03*
X181424200Y-124769600D03*
X185624200Y-121769600D03*
X184624200Y-122509600D03*
X182824200Y-126269600D03*
X181424200Y-123979600D03*
X183324200Y-124769600D03*
X180524200Y-124769600D03*
X183324200Y-123949600D03*
X182324200Y-125569600D03*
X182824200Y-121769600D03*
X184624200Y-121769600D03*
X182324200Y-123979600D03*
X183724200Y-122509600D03*
X185224200Y-129769600D03*
X181914200Y-122519600D03*
X183724200Y-121769600D03*
X182324200Y-124769600D03*
X181424200Y-125569600D03*
X183324200Y-125569600D03*
X182824200Y-128869600D03*
X185204200Y-128889600D03*
X183754200Y-134849600D03*
X181954200Y-134849600D03*
X181054200Y-134849600D03*
X182344200Y-137869600D03*
X185244200Y-142869600D03*
X186554200Y-134849600D03*
X181944200Y-134069600D03*
X185244200Y-142069600D03*
X182844200Y-134069600D03*
X183744200Y-134069600D03*
X182844200Y-140369600D03*
X182844200Y-141169600D03*
X186544200Y-134069600D03*
X182854200Y-134849600D03*
X183344200Y-137869600D03*
X184654200Y-134849600D03*
X182844200Y-138569600D03*
X181444200Y-137869600D03*
X184144200Y-141169600D03*
X185244200Y-141159600D03*
X181044200Y-134069600D03*
X183344200Y-137069600D03*
X185644200Y-134069600D03*
X185654200Y-134849600D03*
X184644200Y-134069600D03*
X183624200Y-147649600D03*
X181824200Y-147659600D03*
X180924200Y-147659600D03*
X182224200Y-150469600D03*
X185124200Y-155549600D03*
X186424200Y-147649600D03*
X181824200Y-146749600D03*
X185124200Y-154749600D03*
X183224200Y-149079600D03*
X182724200Y-146749600D03*
X183624200Y-146749600D03*
X182724200Y-153049600D03*
X182724200Y-153849600D03*
X186424200Y-146749600D03*
X182724200Y-147659600D03*
X183194200Y-150449600D03*
X184524200Y-147649600D03*
X182724200Y-151249600D03*
X181324200Y-150469600D03*
X184024200Y-153849600D03*
X185124200Y-153849600D03*
X180924200Y-146749600D03*
X183224200Y-149749600D03*
X185524200Y-146749600D03*
X185524200Y-147649600D03*
X184524200Y-146749600D03*
X181334200Y-149089600D03*
X182224200Y-149749600D03*
X181324200Y-149749600D03*
X182214200Y-149089600D03*
X181444200Y-136289600D03*
X180544200Y-136289600D03*
X182344200Y-137069600D03*
X180544200Y-137069600D03*
X181444200Y-137069600D03*
X182344200Y-136289600D03*
X180724200Y-111569600D03*
X181624200Y-111569600D03*
X182524200Y-111569600D03*
X180724200Y-112469600D03*
X181624200Y-112469600D03*
X182524200Y-112469600D03*
X163060000Y-136110000D03*
X195644200Y-129769600D03*
X196224200Y-129769600D03*
X196424200Y-125269600D03*
X195124200Y-136169600D03*
X195924200Y-136169600D03*
X195824200Y-125269600D03*
X197124200Y-140269600D03*
X196424200Y-140269600D03*
X180324200Y-109469600D03*
X181224200Y-109469600D03*
X182124200Y-109469600D03*
X183024200Y-109469600D03*
X183924200Y-109469600D03*
X184824200Y-109469600D03*
X185824200Y-109469600D03*
X186724200Y-109469600D03*
X183524200Y-112469600D03*
X183524200Y-113269600D03*
X182524200Y-113269600D03*
X181624200Y-113269600D03*
X180724200Y-113269600D03*
X180314200Y-110179600D03*
X181224200Y-110289600D03*
X182124200Y-110299600D03*
X183014200Y-110299600D03*
X183524200Y-111559600D03*
X183924200Y-110269600D03*
X184824200Y-110269600D03*
X185824200Y-110269600D03*
X186724200Y-110269600D03*
X183024200Y-113969600D03*
X183024200Y-115769600D03*
X183024200Y-116669600D03*
X184124200Y-116669600D03*
X185124200Y-116659600D03*
X185124200Y-117469600D03*
X185124200Y-118269600D03*
X183344200Y-136249600D03*
X179824200Y-112469600D03*
X179824200Y-111569600D03*
X195054200Y-129769600D03*
X196994200Y-125269600D03*
X158524200Y-154669600D03*
X158524200Y-152669600D03*
X158524200Y-150669600D03*
X158524200Y-148669600D03*
X158524200Y-146669600D03*
X158524200Y-144669600D03*
X158524200Y-142669600D03*
X158524200Y-140669600D03*
X158524200Y-138669600D03*
X158524200Y-136669600D03*
X158524200Y-134669600D03*
X158524200Y-131169600D03*
X158524200Y-132669600D03*
X160024200Y-131169600D03*
X161524200Y-131169600D03*
X161524200Y-132669600D03*
X160024200Y-132669600D03*
X163024200Y-131169600D03*
X163024200Y-132669600D03*
X174524200Y-104169600D03*
X176024200Y-104169600D03*
X177524200Y-104169600D03*
X179024200Y-104169600D03*
X180524200Y-104169600D03*
X182024200Y-104169600D03*
X183524200Y-104169600D03*
X185524200Y-104169600D03*
X187524200Y-104169600D03*
X189524200Y-104169600D03*
X191524200Y-104169600D03*
X193024200Y-104169600D03*
X194524200Y-104169600D03*
X196024200Y-104169600D03*
X196024200Y-105669600D03*
X196024200Y-107169600D03*
X196024200Y-108669600D03*
X196024200Y-110169600D03*
X196024200Y-111669600D03*
X193024200Y-105669600D03*
X193024200Y-107169600D03*
X193024200Y-108669600D03*
X193024200Y-110169600D03*
X196024200Y-113169600D03*
X196024200Y-114669600D03*
X196024200Y-116169600D03*
X196024200Y-117669600D03*
X196024200Y-119169600D03*
X196024200Y-120669600D03*
X196024200Y-122169600D03*
X196024200Y-123669600D03*
X196524200Y-161169600D03*
X194524200Y-161169600D03*
X192524200Y-161169600D03*
X191024200Y-161169600D03*
X189024200Y-161169600D03*
X187024200Y-161169600D03*
X185024200Y-161169600D03*
X196524200Y-159669600D03*
X196524200Y-158169600D03*
X196524200Y-156669600D03*
X196524200Y-155169600D03*
X196524200Y-153669600D03*
X196524200Y-151669600D03*
X196524200Y-150169600D03*
X196524200Y-148169600D03*
X196524200Y-146169600D03*
X196524200Y-144169600D03*
X196524200Y-142169600D03*
X219024200Y-147369600D03*
X217024200Y-147369600D03*
X221024200Y-145369600D03*
X217024200Y-141369600D03*
X209524200Y-145369600D03*
X217024200Y-149369600D03*
X219024200Y-141369600D03*
X207532200Y-149369600D03*
X205532200Y-141369600D03*
X214524200Y-145369600D03*
X207532200Y-143369600D03*
X221024200Y-149369600D03*
X219024200Y-149369600D03*
X207532200Y-145369600D03*
X209524200Y-141369600D03*
X212024200Y-149369600D03*
X205532200Y-143369600D03*
X212024200Y-143369600D03*
X214524200Y-141369600D03*
X214524200Y-149369600D03*
X214524200Y-147369600D03*
X214524200Y-143369600D03*
X219024200Y-143369600D03*
X212024200Y-141369600D03*
X219024200Y-145369600D03*
X209524200Y-147369600D03*
X209524200Y-149369600D03*
X221024200Y-147369600D03*
X205532200Y-147369600D03*
X212024200Y-147369600D03*
X217024200Y-143369600D03*
X205532200Y-149369600D03*
X207532200Y-147369600D03*
X220074200Y-118969600D03*
X217474200Y-118969600D03*
X216724200Y-118969600D03*
X220824200Y-118969600D03*
X219174200Y-118969600D03*
X215924200Y-118969600D03*
X218374200Y-118969600D03*
X209524200Y-143369600D03*
X220749200Y-113894600D03*
X219149200Y-111194600D03*
X217599200Y-110394600D03*
X218449200Y-111194600D03*
X218749200Y-113894600D03*
X219999200Y-111194600D03*
X219149200Y-111944600D03*
X219199200Y-114794600D03*
X218449200Y-114794600D03*
X219999200Y-111944600D03*
X217549200Y-111944600D03*
X220749200Y-112844600D03*
X218449200Y-110394600D03*
X218449200Y-111944600D03*
X220749200Y-111194600D03*
X218749200Y-112894600D03*
X219149200Y-110394600D03*
X220749200Y-111944600D03*
X208099200Y-116319600D03*
X219199200Y-117069600D03*
X218399200Y-117069600D03*
X218399200Y-116294600D03*
X218424200Y-115569600D03*
X219174200Y-115544600D03*
X205532200Y-145369600D03*
X212024200Y-145369600D03*
X217024200Y-145369600D03*
X219024200Y-122669600D03*
X217024200Y-122669600D03*
X214524200Y-122669600D03*
X212024200Y-122669600D03*
X209524200Y-122669600D03*
X212024200Y-124669600D03*
X214524200Y-124669600D03*
X217024200Y-124669600D03*
X219024200Y-124669600D03*
X219024200Y-126669600D03*
X217024200Y-126669600D03*
X214524200Y-126669600D03*
X212024200Y-126669600D03*
X209524200Y-126669600D03*
X219024200Y-128669600D03*
X217024200Y-128669600D03*
X214524200Y-128669600D03*
X212024200Y-128669600D03*
X209524200Y-128669600D03*
X219024200Y-130669600D03*
X217024200Y-130669600D03*
X214524200Y-130669600D03*
X212024200Y-130669600D03*
X209524200Y-130669600D03*
X240664200Y-122569600D03*
X208864200Y-117029600D03*
X208874200Y-115469600D03*
X208124200Y-115469600D03*
X198224200Y-140469600D03*
X198924200Y-140469600D03*
X199624200Y-140469600D03*
X199624200Y-139769600D03*
X199624200Y-139069600D03*
X199224200Y-135869600D03*
X199774200Y-136319600D03*
X199524200Y-130769600D03*
X199524200Y-129969600D03*
X200224200Y-129969600D03*
X200224200Y-130769600D03*
X208124200Y-114669600D03*
X208424200Y-113769600D03*
X208874200Y-114669600D03*
X210424200Y-113769600D03*
X208424200Y-112769600D03*
X210424200Y-112719600D03*
X207224200Y-111819600D03*
X208124200Y-111819600D03*
X208824200Y-111819600D03*
X209674200Y-111819600D03*
X210424200Y-111819600D03*
X208874200Y-117759600D03*
X208099200Y-117769600D03*
X208874200Y-118819600D03*
X207974200Y-118819600D03*
X209674200Y-118819600D03*
X207224200Y-118819600D03*
X206424200Y-118819600D03*
X206424200Y-119469600D03*
X207224200Y-119469600D03*
X207974200Y-119469600D03*
X208874200Y-119469600D03*
X209674200Y-119469600D03*
X210574200Y-119469600D03*
X211324200Y-119469600D03*
X208124200Y-111069600D03*
X208124200Y-110269600D03*
X209674200Y-111069600D03*
X208824200Y-111069600D03*
X210424200Y-111069600D03*
X207274200Y-110269600D03*
X208824200Y-110269600D03*
X209674200Y-110219600D03*
X210424200Y-110219600D03*
X198174200Y-125269600D03*
X198774200Y-125269600D03*
X198474200Y-124719600D03*
X198774200Y-136319600D03*
X238674200Y-132069600D03*
X238674200Y-132769600D03*
X238724200Y-117769600D03*
X238724200Y-117119600D03*
X243224200Y-116319600D03*
X244124200Y-117269600D03*
X244124200Y-116319600D03*
X246224200Y-104679600D03*
X244424200Y-104669600D03*
X232634200Y-129699600D03*
X233374200Y-129689600D03*
X233364200Y-130329600D03*
X241554200Y-122569600D03*
X239844200Y-122569600D03*
X244994200Y-106939600D03*
X245014200Y-107759600D03*
X245034200Y-108499600D03*
X231024200Y-135669600D03*
X233024200Y-135669600D03*
X231024200Y-133669600D03*
X236024200Y-137169600D03*
X237024200Y-139169600D03*
X235024200Y-132169600D03*
X237024200Y-132169600D03*
X237024200Y-133669600D03*
X248524200Y-134669600D03*
X250024200Y-134669600D03*
X251524200Y-134669600D03*
X253024200Y-134669600D03*
X253024200Y-132669600D03*
X253024200Y-130669600D03*
X253024200Y-128669600D03*
X253024200Y-126669600D03*
X253024200Y-124669600D03*
X253024200Y-122669600D03*
X253024200Y-120669600D03*
X253024200Y-118669600D03*
X253024200Y-116669600D03*
X253024200Y-114669600D03*
X253024200Y-112669600D03*
X253024200Y-110669600D03*
X253024200Y-108669600D03*
X253024200Y-106669600D03*
X253024200Y-104669600D03*
X251024200Y-104669600D03*
X248524200Y-104669600D03*
X233524200Y-110669600D03*
X231524200Y-110669600D03*
X231524200Y-108669600D03*
X207024200Y-132669600D03*
X207024200Y-130669600D03*
X207024200Y-128669600D03*
X207024200Y-126669600D03*
X207024200Y-124669600D03*
X205024200Y-124669600D03*
X205024200Y-126669600D03*
X205024200Y-128669600D03*
X205024200Y-130669600D03*
X221024200Y-130669600D03*
X221024200Y-128669600D03*
X221024200Y-126669600D03*
X205024200Y-122669600D03*
X214524200Y-120169600D03*
X208872100Y-116321700D03*
X231344200Y-117059600D03*
X233404200Y-117049600D03*
X230684200Y-124239600D03*
X232164200Y-124239600D03*
X235524200Y-124269600D03*
X237204200Y-124889600D03*
X237494200Y-126639600D03*
X238874200Y-129239600D03*
X225434200Y-147249600D03*
X225404200Y-149379600D03*
X226484200Y-147239600D03*
X225384200Y-148259600D03*
X208100050Y-117045450D03*
X219187600Y-116306200D03*
X221024200Y-120169600D03*
X222524200Y-120169600D03*
X224024200Y-120169600D03*
X199024200Y-110169600D03*
X199024200Y-108669600D03*
X199024200Y-107169600D03*
X199024200Y-105669600D03*
X199024200Y-104169600D03*
X200524200Y-104169600D03*
X202024200Y-104169600D03*
X203524200Y-104169600D03*
X205024200Y-104169600D03*
X206524200Y-104169600D03*
X208024200Y-104169600D03*
X209524200Y-104169600D03*
X211024200Y-104169600D03*
X212524200Y-104169600D03*
X214024200Y-104169600D03*
X215524200Y-104169600D03*
X217024200Y-104169600D03*
X218524200Y-104169600D03*
X220024200Y-104169600D03*
X221524200Y-104169600D03*
X223024200Y-104169600D03*
X224524200Y-104169600D03*
X226024200Y-104169600D03*
X227524200Y-104169600D03*
X199524200Y-161169600D03*
X201524200Y-161169600D03*
X203524200Y-161169600D03*
X205524200Y-161169600D03*
X207524200Y-161169600D03*
X209524200Y-161169600D03*
X211524200Y-161169600D03*
X213524200Y-161169600D03*
X215524200Y-161169600D03*
X217524200Y-161169600D03*
X219524200Y-161169600D03*
X221524200Y-161169600D03*
X223524200Y-161169600D03*
X225524200Y-161169600D03*
X227524200Y-161169600D03*
X228524200Y-159669600D03*
X227024200Y-122669600D03*
X227024200Y-124169600D03*
X227024200Y-125669600D03*
X227024200Y-127169600D03*
X227024200Y-128669600D03*
X227024200Y-130169600D03*
X227024200Y-131669600D03*
X227024200Y-133169600D03*
X227024200Y-134669600D03*
X227024200Y-136169600D03*
X227024200Y-137669600D03*
X227524200Y-139169600D03*
X227524200Y-140669600D03*
X227524200Y-142169600D03*
X227524200Y-143669600D03*
X199024200Y-111669600D03*
X199024200Y-113169600D03*
X199024200Y-114669600D03*
X199024200Y-116169600D03*
X199024200Y-117669600D03*
X199024200Y-119169600D03*
X199024200Y-120669600D03*
X199024200Y-122169600D03*
X199524200Y-159669600D03*
X199524200Y-158169600D03*
X199524200Y-156669600D03*
X199524200Y-155169600D03*
X199524200Y-153669600D03*
X199524200Y-152169600D03*
X199524200Y-150669600D03*
X199524200Y-149169600D03*
X199524200Y-147669600D03*
X199524200Y-146169600D03*
X199524200Y-144669600D03*
X201524200Y-156669600D03*
X203524200Y-159669600D03*
X203524200Y-158169600D03*
X205524200Y-159669600D03*
X213524200Y-158669600D03*
X215524200Y-158669600D03*
X214524200Y-157169600D03*
X217524200Y-158669600D03*
X219524200Y-158669600D03*
X221524200Y-158669600D03*
X223524200Y-158669600D03*
X225524200Y-158669600D03*
X225524200Y-157169600D03*
X224024200Y-157169600D03*
X207532200Y-151169600D03*
X205532200Y-151169600D03*
X205532200Y-139669600D03*
X207532200Y-139669600D03*
X213524200Y-139169600D03*
X215524200Y-139169600D03*
X214524200Y-138169600D03*
X221024200Y-124669600D03*
X241024200Y-104669600D03*
X239524200Y-104669600D03*
X238024200Y-104669600D03*
X235024200Y-110669600D03*
X236524200Y-110669600D03*
X236524200Y-108669600D03*
X231524200Y-104169600D03*
X231524200Y-106169600D03*
X211524200Y-110169600D03*
X212524200Y-110169600D03*
X211524200Y-111169600D03*
X212524200Y-111169600D03*
X212524200Y-109169600D03*
X211524200Y-109169600D03*
X210024200Y-109169600D03*
X208524200Y-109169600D03*
X207024200Y-109169600D03*
X217524200Y-109169600D03*
X217524200Y-107669600D03*
X217524200Y-106169600D03*
X218524200Y-106169600D03*
X218524200Y-107669600D03*
X218524200Y-109169600D03*
X225524200Y-146169600D03*
X224924200Y-144769600D03*
X224724200Y-142769600D03*
X224724200Y-141369600D03*
X224724200Y-139969600D03*
X223524200Y-138969600D03*
X224174200Y-106789600D03*
X207502200Y-141439600D03*
X231024200Y-140169600D03*
X233024200Y-140169600D03*
X231024200Y-141669600D03*
X233024200Y-141669600D03*
X231024200Y-143169600D03*
X233024200Y-143169600D03*
X235024200Y-143169600D03*
X235024200Y-141669600D03*
X248024200Y-154669600D03*
X248024200Y-159169600D03*
X244024200Y-154669600D03*
X231024200Y-144669600D03*
X233024200Y-144669600D03*
X235024200Y-144669600D03*
X231024200Y-161169600D03*
X231024200Y-159169600D03*
X241024200Y-159669600D03*
X243024200Y-159669600D03*
X245024200Y-159669600D03*
X245024200Y-157669600D03*
X243024200Y-157669600D03*
X241024200Y-157669600D03*
X239024200Y-157669600D03*
X253024200Y-159669600D03*
X253024200Y-157669600D03*
X253024200Y-155669600D03*
X253024200Y-153669600D03*
X253024200Y-151669600D03*
X253024200Y-149669600D03*
X253024200Y-147669600D03*
X253024200Y-145669600D03*
X253024200Y-143669600D03*
X253024200Y-141669600D03*
X253024200Y-139669600D03*
X250524200Y-139169600D03*
X248024200Y-139169600D03*
X235024200Y-146169600D03*
X233024200Y-146169600D03*
X236524200Y-146169600D03*
X238524200Y-146169600D03*
X238524200Y-144669600D03*
X236524200Y-144669600D03*
X240524200Y-144669600D03*
X242024200Y-148669600D03*
X243524200Y-147169600D03*
X245024200Y-145669600D03*
X239524200Y-161169600D03*
X241024200Y-161169600D03*
X243024200Y-161169600D03*
X245024200Y-161169600D03*
X237524200Y-161169600D03*
X239024200Y-159669600D03*
X248024200Y-161169600D03*
X250524200Y-161169600D03*
X253024200Y-161169600D03*
X221674200Y-135169600D03*
X226654200Y-113919600D03*
X237424200Y-128519600D03*
X247324200Y-128519600D03*
X237424200Y-130169600D03*
X247334200Y-130099600D03*
X210684200Y-118269600D03*
X203144200Y-118279600D03*
X220254200Y-118309600D03*
X205614200Y-116329600D03*
X216404200Y-116309600D03*
X210984200Y-156769600D03*
X210984200Y-138019600D03*
X163884200Y-152639600D03*
X163634200Y-155459600D03*
X233254200Y-113099600D03*
X243464200Y-115109600D03*
X233674200Y-118569600D03*
X233674200Y-125119600D03*
X179974200Y-113894600D03*
X179974200Y-125969600D03*
X179974200Y-150944600D03*
X178844200Y-128189600D03*
X179974200Y-138144600D03*
X189894200Y-127459600D03*
X190634200Y-127469600D03*
X191384200Y-127459600D03*
X192084200Y-127469600D03*
X176434200Y-120869600D03*
X186025000Y-124347000D03*
X193324200Y-152469600D03*
X192574200Y-152469600D03*
X191774200Y-152469600D03*
X190974200Y-152469600D03*
X190224200Y-152469600D03*
X175668800Y-146155000D03*
X186075800Y-149358000D03*
X169234200Y-156229600D03*
X178250000Y-110500000D03*
X178200000Y-122981400D03*
X178333200Y-147910000D03*
X178240000Y-135210000D03*
X172524200Y-136039600D03*
X225724200Y-120269600D03*
X225724200Y-119419600D03*
X234324200Y-125119600D03*
X234324200Y-121614600D03*
X243574200Y-136669600D03*
X243464200Y-111329600D03*
X243494200Y-123669600D03*
X191624200Y-139569600D03*
X192424200Y-139569600D03*
X190824200Y-139569600D03*
X190024200Y-139569600D03*
X176484200Y-132989600D03*
X186075800Y-136589800D03*
X193124200Y-115169600D03*
X192324200Y-115169600D03*
X191524200Y-115169600D03*
X190724200Y-115169600D03*
X175589600Y-108815000D03*
X186075800Y-112002600D03*
D16*
X221674200Y-135169600D02*
X221674200Y-118899600D01*
X221674200Y-118899600D02*
X226654200Y-113919600D01*
D17*
X247324200Y-128519600D02*
X247324200Y-128519600D01*
D16*
X237424200Y-128519600D02*
X247324200Y-128519600D01*
D17*
X247334200Y-130099600D02*
X247334200Y-130099600D01*
D16*
X237494200Y-130099600D02*
X237424200Y-130169600D01*
X247334200Y-130099600D02*
X237494200Y-130099600D01*
D17*
X205634200Y-116309600D02*
X205614200Y-116329600D01*
X210984200Y-125979600D02*
X210984200Y-138019600D01*
X205614200Y-120609600D02*
X210984200Y-125979600D01*
X210984200Y-138019600D02*
X210984200Y-156769600D01*
X216404200Y-116309600D02*
X212144200Y-120569600D01*
X212144200Y-120569600D02*
X209854200Y-120569600D01*
X205614200Y-116329600D02*
X205624200Y-120569600D01*
X209854200Y-120569600D02*
X205624200Y-120569600D01*
X205624200Y-120569600D02*
X205614200Y-120609600D01*
D16*
X241454200Y-113099600D02*
X243464200Y-115109600D01*
X233254200Y-113099600D02*
X241454200Y-113099600D01*
D17*
X223224200Y-108119600D02*
X222834200Y-108119600D01*
D16*
X223385078Y-108119600D02*
X222834200Y-108119600D01*
X233424201Y-118158723D02*
X223385078Y-108119600D01*
X233424201Y-118319601D02*
X233424201Y-118158723D01*
X233674200Y-118569600D02*
X233424201Y-118319601D01*
X227824200Y-114745154D02*
X227824200Y-113869600D01*
X233674200Y-120595154D02*
X227824200Y-114745154D01*
X227824200Y-113869600D02*
X223418201Y-109463601D01*
X221638201Y-109463601D02*
X221304199Y-109129599D01*
X221304199Y-109129599D02*
X220294200Y-108119600D01*
X233674200Y-125119600D02*
X233674200Y-120595154D01*
X223418201Y-109463601D02*
X221638201Y-109463601D01*
D17*
X179974200Y-125969600D02*
X179974200Y-113894600D01*
X179974200Y-125969600D02*
X179974200Y-138144600D01*
X179974200Y-138144600D02*
X179974200Y-150944600D01*
X179974200Y-125969600D02*
X179974200Y-127059600D01*
X179974200Y-127059600D02*
X178844200Y-128189600D01*
X178250000Y-122931400D02*
X178200000Y-122981400D01*
X178250000Y-110500000D02*
X178250000Y-122931400D01*
X178200000Y-135170000D02*
X178240000Y-135210000D01*
X178200000Y-122981400D02*
X178200000Y-135170000D01*
X178240000Y-147816800D02*
X178333200Y-147910000D01*
X178240000Y-135210000D02*
X178240000Y-147816800D01*
X178240000Y-135210000D02*
X177424200Y-136025800D01*
X177424200Y-136025800D02*
X172538000Y-136025800D01*
X172538000Y-136025800D02*
X172524200Y-136039600D01*
X234324200Y-125119600D02*
X234324200Y-121614600D01*
M02*
