G04 #@! TF.GenerationSoftware,KiCad,Pcbnew,5.1.5-52549c5~84~ubuntu18.04.1*
G04 #@! TF.CreationDate,2019-12-02T09:37:23+01:00*
G04 #@! TF.ProjectId,power_control_ipe_v1,706f7765-725f-4636-9f6e-74726f6c5f69,rev?*
G04 #@! TF.SameCoordinates,Original*
G04 #@! TF.FileFunction,Copper,L2,Inr*
G04 #@! TF.FilePolarity,Positive*
%FSLAX46Y46*%
G04 Gerber Fmt 4.6, Leading zero omitted, Abs format (unit mm)*
G04 Created by KiCad (PCBNEW 5.1.5-52549c5~84~ubuntu18.04.1) date 2019-12-02 09:37:23*
%MOMM*%
%LPD*%
G04 APERTURE LIST*
%ADD10C,2.020000*%
%ADD11C,2.200000*%
%ADD12R,2.200000X2.200000*%
%ADD13R,4.500000X2.000000*%
%ADD14R,2.000000X4.500000*%
%ADD15C,0.500000*%
%ADD16C,0.254000*%
G04 APERTURE END LIST*
D10*
X190524200Y-149769600D03*
X189799200Y-124744600D03*
X190399200Y-112594600D03*
X190474200Y-136994600D03*
X184974200Y-159044600D03*
X201424200Y-159069600D03*
D11*
X249694200Y-140889600D03*
X249694200Y-143429600D03*
X249694200Y-145969600D03*
X249694200Y-148509600D03*
X249694200Y-151049600D03*
X249694200Y-153589600D03*
X249694200Y-156129600D03*
D12*
X249694200Y-158669600D03*
D11*
X249684200Y-108659600D03*
X249684200Y-111199600D03*
X249684200Y-113739600D03*
X249684200Y-116279600D03*
X249684200Y-118819600D03*
X249684200Y-121359600D03*
X249684200Y-123899600D03*
X249684200Y-126439600D03*
X249684200Y-128979600D03*
D12*
X249684200Y-131519600D03*
D10*
X220294200Y-108119600D03*
X222834200Y-108119600D03*
X225374200Y-108119600D03*
X227914200Y-108119600D03*
D13*
X166878000Y-115795800D03*
X166878000Y-121795800D03*
D14*
X162178000Y-118795800D03*
D15*
X170599200Y-134525000D03*
X175024200Y-117169600D03*
X175024200Y-117769600D03*
X175024200Y-118369600D03*
X174424200Y-117169600D03*
X174424200Y-117769600D03*
X174424200Y-118369600D03*
X174494200Y-129199600D03*
X175194200Y-129199600D03*
X174494200Y-129799600D03*
X175194200Y-129799600D03*
X174494200Y-130399600D03*
X175194200Y-130399600D03*
X168024200Y-152649600D03*
X173524200Y-153939600D03*
X174524200Y-153939600D03*
X174524200Y-154669600D03*
X173524200Y-154669600D03*
X173524200Y-155419600D03*
X174524200Y-155419600D03*
X175524200Y-153939600D03*
X175024200Y-141669600D03*
X175014200Y-142439600D03*
X174014200Y-142389600D03*
X174024200Y-141669600D03*
X174024200Y-140949600D03*
X175044200Y-140959600D03*
X176044200Y-140939600D03*
X181024200Y-122499600D03*
X184124200Y-128869600D03*
X182824200Y-128069600D03*
X182824200Y-122519600D03*
X180524200Y-123979600D03*
X181924200Y-121769600D03*
X185224200Y-130569600D03*
X185624200Y-122509600D03*
X186524200Y-122509600D03*
X181024200Y-121769600D03*
X186524200Y-121769600D03*
X181424200Y-124769600D03*
X185624200Y-121769600D03*
X184624200Y-122509600D03*
X182824200Y-126269600D03*
X181424200Y-123979600D03*
X183324200Y-124769600D03*
X180524200Y-124769600D03*
X183324200Y-123949600D03*
X182324200Y-125569600D03*
X182824200Y-121769600D03*
X184624200Y-121769600D03*
X182324200Y-123979600D03*
X183724200Y-122509600D03*
X185224200Y-129769600D03*
X181914200Y-122519600D03*
X183724200Y-121769600D03*
X182324200Y-124769600D03*
X181424200Y-125569600D03*
X183324200Y-125569600D03*
X182824200Y-128869600D03*
X185204200Y-128889600D03*
X183754200Y-134849600D03*
X181954200Y-134849600D03*
X181054200Y-134849600D03*
X182344200Y-137869600D03*
X185244200Y-142869600D03*
X186554200Y-134849600D03*
X181944200Y-134069600D03*
X185244200Y-142069600D03*
X182844200Y-134069600D03*
X183744200Y-134069600D03*
X182844200Y-140369600D03*
X182844200Y-141169600D03*
X186544200Y-134069600D03*
X182854200Y-134849600D03*
X183344200Y-137869600D03*
X184654200Y-134849600D03*
X182844200Y-138569600D03*
X181444200Y-137869600D03*
X184144200Y-141169600D03*
X185244200Y-141159600D03*
X181044200Y-134069600D03*
X183344200Y-137069600D03*
X185644200Y-134069600D03*
X185654200Y-134849600D03*
X184644200Y-134069600D03*
X183624200Y-147649600D03*
X181824200Y-147659600D03*
X180924200Y-147659600D03*
X182224200Y-150469600D03*
X185124200Y-155549600D03*
X186424200Y-147649600D03*
X181824200Y-146749600D03*
X185124200Y-154749600D03*
X183224200Y-149079600D03*
X182724200Y-146749600D03*
X183624200Y-146749600D03*
X182724200Y-153049600D03*
X182724200Y-153849600D03*
X186424200Y-146749600D03*
X182724200Y-147659600D03*
X183194200Y-150449600D03*
X184524200Y-147649600D03*
X182724200Y-151249600D03*
X181324200Y-150469600D03*
X184024200Y-153849600D03*
X185124200Y-153849600D03*
X180924200Y-146749600D03*
X183224200Y-149749600D03*
X185524200Y-146749600D03*
X185524200Y-147649600D03*
X184524200Y-146749600D03*
X181334200Y-149089600D03*
X182224200Y-149749600D03*
X181324200Y-149749600D03*
X182214200Y-149089600D03*
X181444200Y-136289600D03*
X180544200Y-136289600D03*
X182344200Y-137069600D03*
X180544200Y-137069600D03*
X181444200Y-137069600D03*
X182344200Y-136289600D03*
X180724200Y-111569600D03*
X181624200Y-111569600D03*
X182524200Y-111569600D03*
X180724200Y-112469600D03*
X181624200Y-112469600D03*
X182524200Y-112469600D03*
X163060000Y-136110000D03*
X195644200Y-129769600D03*
X196224200Y-129769600D03*
X196424200Y-125269600D03*
X195124200Y-136169600D03*
X195924200Y-136169600D03*
X195824200Y-125269600D03*
X197124200Y-140269600D03*
X196424200Y-140269600D03*
X180324200Y-109469600D03*
X181224200Y-109469600D03*
X182124200Y-109469600D03*
X183024200Y-109469600D03*
X183924200Y-109469600D03*
X184824200Y-109469600D03*
X185824200Y-109469600D03*
X186724200Y-109469600D03*
X183524200Y-112469600D03*
X183524200Y-113269600D03*
X182524200Y-113269600D03*
X181624200Y-113269600D03*
X180724200Y-113269600D03*
X180314200Y-110179600D03*
X181224200Y-110289600D03*
X182124200Y-110299600D03*
X183014200Y-110299600D03*
X183524200Y-111559600D03*
X183924200Y-110269600D03*
X184824200Y-110269600D03*
X185824200Y-110269600D03*
X186724200Y-110269600D03*
X183024200Y-113969600D03*
X183024200Y-115769600D03*
X183024200Y-116669600D03*
X184124200Y-116669600D03*
X185124200Y-116659600D03*
X185124200Y-117469600D03*
X185124200Y-118269600D03*
X183344200Y-136249600D03*
X179824200Y-112469600D03*
X179824200Y-111569600D03*
X195054200Y-129769600D03*
X196994200Y-125269600D03*
X158524200Y-154669600D03*
X158524200Y-152669600D03*
X158524200Y-150669600D03*
X158524200Y-148669600D03*
X158524200Y-146669600D03*
X158524200Y-144669600D03*
X158524200Y-142669600D03*
X158524200Y-140669600D03*
X158524200Y-138669600D03*
X158524200Y-136669600D03*
X158524200Y-134669600D03*
X158524200Y-131169600D03*
X158524200Y-132669600D03*
X160024200Y-131169600D03*
X161524200Y-131169600D03*
X161524200Y-132669600D03*
X160024200Y-132669600D03*
X163024200Y-131169600D03*
X163024200Y-132669600D03*
X174524200Y-104169600D03*
X176024200Y-104169600D03*
X177524200Y-104169600D03*
X179024200Y-104169600D03*
X180524200Y-104169600D03*
X182024200Y-104169600D03*
X183524200Y-104169600D03*
X185524200Y-104169600D03*
X187524200Y-104169600D03*
X189524200Y-104169600D03*
X191524200Y-104169600D03*
X193024200Y-104169600D03*
X194524200Y-104169600D03*
X196024200Y-104169600D03*
X196024200Y-105669600D03*
X196024200Y-107169600D03*
X196024200Y-108669600D03*
X196024200Y-110169600D03*
X196024200Y-111669600D03*
X193024200Y-105669600D03*
X193024200Y-107169600D03*
X193024200Y-108669600D03*
X193024200Y-110169600D03*
X196024200Y-113169600D03*
X196024200Y-114669600D03*
X196024200Y-116169600D03*
X196024200Y-117669600D03*
X196024200Y-119169600D03*
X196024200Y-120669600D03*
X196024200Y-122169600D03*
X196024200Y-123669600D03*
X196524200Y-161169600D03*
X194524200Y-161169600D03*
X192524200Y-161169600D03*
X191024200Y-161169600D03*
X189024200Y-161169600D03*
X187024200Y-161169600D03*
X185024200Y-161169600D03*
X196524200Y-159669600D03*
X196524200Y-158169600D03*
X196524200Y-156669600D03*
X196524200Y-155169600D03*
X196524200Y-153669600D03*
X196524200Y-151669600D03*
X196524200Y-150169600D03*
X196524200Y-148169600D03*
X196524200Y-146169600D03*
X196524200Y-144169600D03*
X196524200Y-142169600D03*
X219024200Y-147369600D03*
X217024200Y-147369600D03*
X221024200Y-145369600D03*
X217024200Y-141369600D03*
X209524200Y-145369600D03*
X217024200Y-149369600D03*
X219024200Y-141369600D03*
X207532200Y-149369600D03*
X205532200Y-141369600D03*
X214524200Y-145369600D03*
X207532200Y-143369600D03*
X221024200Y-149369600D03*
X219024200Y-149369600D03*
X207532200Y-145369600D03*
X209524200Y-141369600D03*
X212024200Y-149369600D03*
X205532200Y-143369600D03*
X212024200Y-143369600D03*
X214524200Y-141369600D03*
X214524200Y-149369600D03*
X214524200Y-147369600D03*
X214524200Y-143369600D03*
X219024200Y-143369600D03*
X212024200Y-141369600D03*
X219024200Y-145369600D03*
X209524200Y-147369600D03*
X209524200Y-149369600D03*
X221024200Y-147369600D03*
X205532200Y-147369600D03*
X212024200Y-147369600D03*
X217024200Y-143369600D03*
X205532200Y-149369600D03*
X207532200Y-147369600D03*
X220074200Y-118969600D03*
X217474200Y-118969600D03*
X216724200Y-118969600D03*
X220824200Y-118969600D03*
X219174200Y-118969600D03*
X215924200Y-118969600D03*
X218374200Y-118969600D03*
X209524200Y-143369600D03*
X220749200Y-113894600D03*
X219149200Y-111194600D03*
X217599200Y-110394600D03*
X218449200Y-111194600D03*
X218749200Y-113894600D03*
X219999200Y-111194600D03*
X219149200Y-111944600D03*
X219199200Y-114794600D03*
X218449200Y-114794600D03*
X219999200Y-111944600D03*
X217549200Y-111944600D03*
X220749200Y-112844600D03*
X218449200Y-110394600D03*
X218449200Y-111944600D03*
X220749200Y-111194600D03*
X218749200Y-112894600D03*
X219149200Y-110394600D03*
X220749200Y-111944600D03*
X208099200Y-116319600D03*
X219199200Y-117069600D03*
X218399200Y-117069600D03*
X218399200Y-116294600D03*
X218424200Y-115569600D03*
X219174200Y-115544600D03*
X205532200Y-145369600D03*
X212024200Y-145369600D03*
X217024200Y-145369600D03*
X219024200Y-122669600D03*
X217024200Y-122669600D03*
X214524200Y-122669600D03*
X212024200Y-122669600D03*
X209524200Y-122669600D03*
X212024200Y-124669600D03*
X214524200Y-124669600D03*
X217024200Y-124669600D03*
X219024200Y-124669600D03*
X219024200Y-126669600D03*
X217024200Y-126669600D03*
X214524200Y-126669600D03*
X212024200Y-126669600D03*
X209524200Y-126669600D03*
X219024200Y-128669600D03*
X217024200Y-128669600D03*
X214524200Y-128669600D03*
X212024200Y-128669600D03*
X209524200Y-128669600D03*
X219024200Y-130669600D03*
X217024200Y-130669600D03*
X214524200Y-130669600D03*
X212024200Y-130669600D03*
X209524200Y-130669600D03*
X240664200Y-122569600D03*
X208864200Y-117029600D03*
X208874200Y-115469600D03*
X208124200Y-115469600D03*
X198224200Y-140469600D03*
X198924200Y-140469600D03*
X199624200Y-140469600D03*
X199624200Y-139769600D03*
X199624200Y-139069600D03*
X199224200Y-135869600D03*
X199774200Y-136319600D03*
X199524200Y-130769600D03*
X199524200Y-129969600D03*
X200224200Y-129969600D03*
X200224200Y-130769600D03*
X208124200Y-114669600D03*
X208424200Y-113769600D03*
X208874200Y-114669600D03*
X210424200Y-113769600D03*
X208424200Y-112769600D03*
X210424200Y-112719600D03*
X207224200Y-111819600D03*
X208124200Y-111819600D03*
X208824200Y-111819600D03*
X209674200Y-111819600D03*
X210424200Y-111819600D03*
X208874200Y-117759600D03*
X208099200Y-117769600D03*
X208874200Y-118819600D03*
X207974200Y-118819600D03*
X209674200Y-118819600D03*
X207224200Y-118819600D03*
X206424200Y-118819600D03*
X206424200Y-119469600D03*
X207224200Y-119469600D03*
X207974200Y-119469600D03*
X208874200Y-119469600D03*
X209674200Y-119469600D03*
X210574200Y-119469600D03*
X211324200Y-119469600D03*
X208124200Y-111069600D03*
X208124200Y-110269600D03*
X209674200Y-111069600D03*
X208824200Y-111069600D03*
X210424200Y-111069600D03*
X207274200Y-110269600D03*
X208824200Y-110269600D03*
X209674200Y-110219600D03*
X210424200Y-110219600D03*
X198174200Y-125269600D03*
X198774200Y-125269600D03*
X198474200Y-124719600D03*
X198774200Y-136319600D03*
X238674200Y-132069600D03*
X238674200Y-132769600D03*
X238724200Y-117769600D03*
X238724200Y-117119600D03*
X243224200Y-116319600D03*
X244124200Y-117269600D03*
X244124200Y-116319600D03*
X246224200Y-104679600D03*
X244424200Y-104669600D03*
X232634200Y-129699600D03*
X233374200Y-129689600D03*
X233364200Y-130329600D03*
X241554200Y-122569600D03*
X239844200Y-122569600D03*
X244994200Y-106939600D03*
X245014200Y-107759600D03*
X245034200Y-108499600D03*
X231024200Y-135669600D03*
X233024200Y-135669600D03*
X231024200Y-133669600D03*
X236024200Y-137169600D03*
X237024200Y-139169600D03*
X235024200Y-132169600D03*
X237024200Y-132169600D03*
X237024200Y-133669600D03*
X248524200Y-134669600D03*
X250024200Y-134669600D03*
X251524200Y-134669600D03*
X253024200Y-134669600D03*
X253024200Y-132669600D03*
X253024200Y-130669600D03*
X253024200Y-128669600D03*
X253024200Y-126669600D03*
X253024200Y-124669600D03*
X253024200Y-122669600D03*
X253024200Y-120669600D03*
X253024200Y-118669600D03*
X253024200Y-116669600D03*
X253024200Y-114669600D03*
X253024200Y-112669600D03*
X253024200Y-110669600D03*
X253024200Y-108669600D03*
X253024200Y-106669600D03*
X253024200Y-104669600D03*
X251024200Y-104669600D03*
X248524200Y-104669600D03*
X233524200Y-110669600D03*
X231524200Y-110669600D03*
X231524200Y-108669600D03*
X207024200Y-132669600D03*
X207024200Y-130669600D03*
X207024200Y-128669600D03*
X207024200Y-126669600D03*
X207024200Y-124669600D03*
X205024200Y-124669600D03*
X205024200Y-126669600D03*
X205024200Y-128669600D03*
X205024200Y-130669600D03*
X221024200Y-130669600D03*
X221024200Y-128669600D03*
X221024200Y-126669600D03*
X205024200Y-122669600D03*
X214524200Y-120169600D03*
X208872100Y-116321700D03*
X231344200Y-117059600D03*
X233404200Y-117049600D03*
X230684200Y-124239600D03*
X232164200Y-124239600D03*
X235524200Y-124269600D03*
X237204200Y-124889600D03*
X237494200Y-126639600D03*
X238874200Y-129239600D03*
X225434200Y-147249600D03*
X225404200Y-149379600D03*
X226484200Y-147239600D03*
X225384200Y-148259600D03*
X208100050Y-117045450D03*
X219187600Y-116306200D03*
X221024200Y-120169600D03*
X222524200Y-120169600D03*
X224024200Y-120169600D03*
X199024200Y-110169600D03*
X199024200Y-108669600D03*
X199024200Y-107169600D03*
X199024200Y-105669600D03*
X199024200Y-104169600D03*
X200524200Y-104169600D03*
X202024200Y-104169600D03*
X203524200Y-104169600D03*
X205024200Y-104169600D03*
X206524200Y-104169600D03*
X208024200Y-104169600D03*
X209524200Y-104169600D03*
X211024200Y-104169600D03*
X212524200Y-104169600D03*
X214024200Y-104169600D03*
X215524200Y-104169600D03*
X217024200Y-104169600D03*
X218524200Y-104169600D03*
X220024200Y-104169600D03*
X221524200Y-104169600D03*
X223024200Y-104169600D03*
X224524200Y-104169600D03*
X226024200Y-104169600D03*
X227524200Y-104169600D03*
X199524200Y-161169600D03*
X201524200Y-161169600D03*
X203524200Y-161169600D03*
X205524200Y-161169600D03*
X207524200Y-161169600D03*
X209524200Y-161169600D03*
X211524200Y-161169600D03*
X213524200Y-161169600D03*
X215524200Y-161169600D03*
X217524200Y-161169600D03*
X219524200Y-161169600D03*
X221524200Y-161169600D03*
X223524200Y-161169600D03*
X225524200Y-161169600D03*
X227524200Y-161169600D03*
X228524200Y-159669600D03*
X227024200Y-122669600D03*
X227024200Y-124169600D03*
X227024200Y-125669600D03*
X227024200Y-127169600D03*
X227024200Y-128669600D03*
X227024200Y-130169600D03*
X227024200Y-131669600D03*
X227024200Y-133169600D03*
X227024200Y-134669600D03*
X227024200Y-136169600D03*
X227024200Y-137669600D03*
X227524200Y-139169600D03*
X227524200Y-140669600D03*
X227524200Y-142169600D03*
X227524200Y-143669600D03*
X199024200Y-111669600D03*
X199024200Y-113169600D03*
X199024200Y-114669600D03*
X199024200Y-116169600D03*
X199024200Y-117669600D03*
X199024200Y-119169600D03*
X199024200Y-120669600D03*
X199024200Y-122169600D03*
X199524200Y-159669600D03*
X199524200Y-158169600D03*
X199524200Y-156669600D03*
X199524200Y-155169600D03*
X199524200Y-153669600D03*
X199524200Y-152169600D03*
X199524200Y-150669600D03*
X199524200Y-149169600D03*
X199524200Y-147669600D03*
X199524200Y-146169600D03*
X199524200Y-144669600D03*
X201524200Y-156669600D03*
X203524200Y-159669600D03*
X203524200Y-158169600D03*
X205524200Y-159669600D03*
X213524200Y-158669600D03*
X215524200Y-158669600D03*
X214524200Y-157169600D03*
X217524200Y-158669600D03*
X219524200Y-158669600D03*
X221524200Y-158669600D03*
X223524200Y-158669600D03*
X225524200Y-158669600D03*
X225524200Y-157169600D03*
X224024200Y-157169600D03*
X207532200Y-151169600D03*
X205532200Y-151169600D03*
X205532200Y-139669600D03*
X207532200Y-139669600D03*
X213524200Y-139169600D03*
X215524200Y-139169600D03*
X214524200Y-138169600D03*
X221024200Y-124669600D03*
X241024200Y-104669600D03*
X239524200Y-104669600D03*
X238024200Y-104669600D03*
X235024200Y-110669600D03*
X236524200Y-110669600D03*
X236524200Y-108669600D03*
X231524200Y-104169600D03*
X231524200Y-106169600D03*
X211524200Y-110169600D03*
X212524200Y-110169600D03*
X211524200Y-111169600D03*
X212524200Y-111169600D03*
X212524200Y-109169600D03*
X211524200Y-109169600D03*
X210024200Y-109169600D03*
X208524200Y-109169600D03*
X207024200Y-109169600D03*
X217524200Y-109169600D03*
X217524200Y-107669600D03*
X217524200Y-106169600D03*
X218524200Y-106169600D03*
X218524200Y-107669600D03*
X218524200Y-109169600D03*
X225524200Y-146169600D03*
X224924200Y-144769600D03*
X224724200Y-142769600D03*
X224724200Y-141369600D03*
X224724200Y-139969600D03*
X223524200Y-138969600D03*
X224174200Y-106789600D03*
X207502200Y-141439600D03*
X231024200Y-140169600D03*
X233024200Y-140169600D03*
X231024200Y-141669600D03*
X233024200Y-141669600D03*
X231024200Y-143169600D03*
X233024200Y-143169600D03*
X235024200Y-143169600D03*
X235024200Y-141669600D03*
X248024200Y-154669600D03*
X248024200Y-159169600D03*
X244024200Y-154669600D03*
X231024200Y-144669600D03*
X233024200Y-144669600D03*
X235024200Y-144669600D03*
X231024200Y-161169600D03*
X231024200Y-159169600D03*
X241024200Y-159669600D03*
X243024200Y-159669600D03*
X245024200Y-159669600D03*
X245024200Y-157669600D03*
X243024200Y-157669600D03*
X241024200Y-157669600D03*
X239024200Y-157669600D03*
X253024200Y-159669600D03*
X253024200Y-157669600D03*
X253024200Y-155669600D03*
X253024200Y-153669600D03*
X253024200Y-151669600D03*
X253024200Y-149669600D03*
X253024200Y-147669600D03*
X253024200Y-145669600D03*
X253024200Y-143669600D03*
X253024200Y-141669600D03*
X253024200Y-139669600D03*
X250524200Y-139169600D03*
X248024200Y-139169600D03*
X235024200Y-146169600D03*
X233024200Y-146169600D03*
X236524200Y-146169600D03*
X238524200Y-146169600D03*
X238524200Y-144669600D03*
X236524200Y-144669600D03*
X240524200Y-144669600D03*
X242024200Y-148669600D03*
X243524200Y-147169600D03*
X245024200Y-145669600D03*
X239524200Y-161169600D03*
X241024200Y-161169600D03*
X243024200Y-161169600D03*
X245024200Y-161169600D03*
X237524200Y-161169600D03*
X239024200Y-159669600D03*
X248024200Y-161169600D03*
X250524200Y-161169600D03*
X253024200Y-161169600D03*
X221674200Y-135169600D03*
X226654200Y-113919600D03*
X237424200Y-128519600D03*
X247324200Y-128519600D03*
X237424200Y-130169600D03*
X247334200Y-130099600D03*
X210684200Y-118269600D03*
X203144200Y-118279600D03*
X220254200Y-118309600D03*
X205614200Y-116329600D03*
X216404200Y-116309600D03*
X210984200Y-156769600D03*
X210984200Y-138019600D03*
X163884200Y-152639600D03*
X163634200Y-155459600D03*
X233254200Y-113099600D03*
X243464200Y-115109600D03*
X233674200Y-118569600D03*
X233674200Y-125119600D03*
X179974200Y-113894600D03*
X179974200Y-125969600D03*
X179974200Y-150944600D03*
X178844200Y-128189600D03*
X179974200Y-138144600D03*
X189894200Y-127459600D03*
X190634200Y-127469600D03*
X191384200Y-127459600D03*
X192084200Y-127469600D03*
X176434200Y-120869600D03*
X186025000Y-124347000D03*
X193324200Y-152469600D03*
X192574200Y-152469600D03*
X191774200Y-152469600D03*
X190974200Y-152469600D03*
X190224200Y-152469600D03*
X175668800Y-146155000D03*
X186075800Y-149358000D03*
X169234200Y-156229600D03*
X178250000Y-110500000D03*
X178200000Y-122981400D03*
X178333200Y-147910000D03*
X178240000Y-135210000D03*
X172524200Y-136039600D03*
X225724200Y-120269600D03*
X225724200Y-119419600D03*
X234324200Y-125119600D03*
X234324200Y-121614600D03*
X243574200Y-136669600D03*
X243464200Y-111329600D03*
X243494200Y-123669600D03*
X191624200Y-139569600D03*
X192424200Y-139569600D03*
X190824200Y-139569600D03*
X190024200Y-139569600D03*
X176484200Y-132989600D03*
X186075800Y-136589800D03*
X193124200Y-115169600D03*
X192324200Y-115169600D03*
X191524200Y-115169600D03*
X190724200Y-115169600D03*
X175589600Y-108815000D03*
X186075800Y-112002600D03*
D16*
G36*
X197397200Y-161538600D02*
G01*
X157455200Y-161538600D01*
X157455200Y-158508960D01*
X158368200Y-158508960D01*
X158368200Y-158830240D01*
X158430878Y-159145345D01*
X158553826Y-159442168D01*
X158732319Y-159709302D01*
X158959498Y-159936481D01*
X159226632Y-160114974D01*
X159523455Y-160237922D01*
X159838560Y-160300600D01*
X160159840Y-160300600D01*
X160474945Y-160237922D01*
X160771768Y-160114974D01*
X161038902Y-159936481D01*
X161266081Y-159709302D01*
X161444574Y-159442168D01*
X161567522Y-159145345D01*
X161630200Y-158830240D01*
X161630200Y-158508960D01*
X161567522Y-158193855D01*
X161444574Y-157897032D01*
X161266081Y-157629898D01*
X161038902Y-157402719D01*
X160771768Y-157224226D01*
X160474945Y-157101278D01*
X160159840Y-157038600D01*
X159838560Y-157038600D01*
X159523455Y-157101278D01*
X159226632Y-157224226D01*
X158959498Y-157402719D01*
X158732319Y-157629898D01*
X158553826Y-157897032D01*
X158430878Y-158193855D01*
X158368200Y-158508960D01*
X157455200Y-158508960D01*
X157455200Y-156167452D01*
X168603200Y-156167452D01*
X168603200Y-156291748D01*
X168627449Y-156413656D01*
X168675015Y-156528491D01*
X168744070Y-156631839D01*
X168831961Y-156719730D01*
X168935309Y-156788785D01*
X169050144Y-156836351D01*
X169172052Y-156860600D01*
X169296348Y-156860600D01*
X169418256Y-156836351D01*
X169533091Y-156788785D01*
X169636439Y-156719730D01*
X169724330Y-156631839D01*
X169793385Y-156528491D01*
X169840951Y-156413656D01*
X169865200Y-156291748D01*
X169865200Y-156167452D01*
X169840951Y-156045544D01*
X169793385Y-155930709D01*
X169724330Y-155827361D01*
X169636439Y-155739470D01*
X169533091Y-155670415D01*
X169418256Y-155622849D01*
X169296348Y-155598600D01*
X169172052Y-155598600D01*
X169050144Y-155622849D01*
X168935309Y-155670415D01*
X168831961Y-155739470D01*
X168744070Y-155827361D01*
X168675015Y-155930709D01*
X168627449Y-156045544D01*
X168603200Y-156167452D01*
X157455200Y-156167452D01*
X157455200Y-155397452D01*
X163003200Y-155397452D01*
X163003200Y-155521748D01*
X163027449Y-155643656D01*
X163075015Y-155758491D01*
X163144070Y-155861839D01*
X163231961Y-155949730D01*
X163335309Y-156018785D01*
X163450144Y-156066351D01*
X163572052Y-156090600D01*
X163696348Y-156090600D01*
X163818256Y-156066351D01*
X163933091Y-156018785D01*
X164036439Y-155949730D01*
X164124330Y-155861839D01*
X164193385Y-155758491D01*
X164240951Y-155643656D01*
X164265200Y-155521748D01*
X164265200Y-155397452D01*
X164240951Y-155275544D01*
X164193385Y-155160709D01*
X164124330Y-155057361D01*
X164036439Y-154969470D01*
X163933091Y-154900415D01*
X163818256Y-154852849D01*
X163696348Y-154828600D01*
X163572052Y-154828600D01*
X163450144Y-154852849D01*
X163335309Y-154900415D01*
X163231961Y-154969470D01*
X163144070Y-155057361D01*
X163075015Y-155160709D01*
X163027449Y-155275544D01*
X163003200Y-155397452D01*
X157455200Y-155397452D01*
X157455200Y-153877452D01*
X172893200Y-153877452D01*
X172893200Y-154001748D01*
X172917449Y-154123656D01*
X172965015Y-154238491D01*
X173009188Y-154304600D01*
X172965015Y-154370709D01*
X172917449Y-154485544D01*
X172893200Y-154607452D01*
X172893200Y-154731748D01*
X172917449Y-154853656D01*
X172965015Y-154968491D01*
X173015869Y-155044600D01*
X172965015Y-155120709D01*
X172917449Y-155235544D01*
X172893200Y-155357452D01*
X172893200Y-155481748D01*
X172917449Y-155603656D01*
X172965015Y-155718491D01*
X173034070Y-155821839D01*
X173121961Y-155909730D01*
X173225309Y-155978785D01*
X173340144Y-156026351D01*
X173462052Y-156050600D01*
X173586348Y-156050600D01*
X173708256Y-156026351D01*
X173823091Y-155978785D01*
X173926439Y-155909730D01*
X174014330Y-155821839D01*
X174024200Y-155807068D01*
X174034070Y-155821839D01*
X174121961Y-155909730D01*
X174225309Y-155978785D01*
X174340144Y-156026351D01*
X174462052Y-156050600D01*
X174586348Y-156050600D01*
X174708256Y-156026351D01*
X174823091Y-155978785D01*
X174926439Y-155909730D01*
X175014330Y-155821839D01*
X175083385Y-155718491D01*
X175130951Y-155603656D01*
X175155200Y-155481748D01*
X175155200Y-155357452D01*
X175130951Y-155235544D01*
X175083385Y-155120709D01*
X175032531Y-155044600D01*
X175083385Y-154968491D01*
X175130951Y-154853656D01*
X175155200Y-154731748D01*
X175155200Y-154607452D01*
X175130951Y-154485544D01*
X175097842Y-154405611D01*
X175121961Y-154429730D01*
X175225309Y-154498785D01*
X175340144Y-154546351D01*
X175462052Y-154570600D01*
X175586348Y-154570600D01*
X175708256Y-154546351D01*
X175823091Y-154498785D01*
X175926439Y-154429730D01*
X176014330Y-154341839D01*
X176083385Y-154238491D01*
X176130951Y-154123656D01*
X176155200Y-154001748D01*
X176155200Y-153877452D01*
X176130951Y-153755544D01*
X176083385Y-153640709D01*
X176014330Y-153537361D01*
X175926439Y-153449470D01*
X175823091Y-153380415D01*
X175708256Y-153332849D01*
X175586348Y-153308600D01*
X175462052Y-153308600D01*
X175340144Y-153332849D01*
X175225309Y-153380415D01*
X175121961Y-153449470D01*
X175034070Y-153537361D01*
X175024200Y-153552132D01*
X175014330Y-153537361D01*
X174926439Y-153449470D01*
X174823091Y-153380415D01*
X174708256Y-153332849D01*
X174586348Y-153308600D01*
X174462052Y-153308600D01*
X174340144Y-153332849D01*
X174225309Y-153380415D01*
X174121961Y-153449470D01*
X174034070Y-153537361D01*
X174024200Y-153552132D01*
X174014330Y-153537361D01*
X173926439Y-153449470D01*
X173823091Y-153380415D01*
X173708256Y-153332849D01*
X173586348Y-153308600D01*
X173462052Y-153308600D01*
X173340144Y-153332849D01*
X173225309Y-153380415D01*
X173121961Y-153449470D01*
X173034070Y-153537361D01*
X172965015Y-153640709D01*
X172917449Y-153755544D01*
X172893200Y-153877452D01*
X157455200Y-153877452D01*
X157455200Y-152577452D01*
X163253200Y-152577452D01*
X163253200Y-152701748D01*
X163277449Y-152823656D01*
X163325015Y-152938491D01*
X163394070Y-153041839D01*
X163481961Y-153129730D01*
X163585309Y-153198785D01*
X163700144Y-153246351D01*
X163822052Y-153270600D01*
X163946348Y-153270600D01*
X164068256Y-153246351D01*
X164183091Y-153198785D01*
X164286439Y-153129730D01*
X164374330Y-153041839D01*
X164443385Y-152938491D01*
X164490951Y-152823656D01*
X164515200Y-152701748D01*
X164515200Y-152587452D01*
X167393200Y-152587452D01*
X167393200Y-152711748D01*
X167417449Y-152833656D01*
X167465015Y-152948491D01*
X167534070Y-153051839D01*
X167621961Y-153139730D01*
X167725309Y-153208785D01*
X167840144Y-153256351D01*
X167962052Y-153280600D01*
X168086348Y-153280600D01*
X168208256Y-153256351D01*
X168323091Y-153208785D01*
X168426439Y-153139730D01*
X168514330Y-153051839D01*
X168583385Y-152948491D01*
X168630951Y-152833656D01*
X168655200Y-152711748D01*
X168655200Y-152587452D01*
X168630951Y-152465544D01*
X168606889Y-152407452D01*
X189593200Y-152407452D01*
X189593200Y-152531748D01*
X189617449Y-152653656D01*
X189665015Y-152768491D01*
X189734070Y-152871839D01*
X189821961Y-152959730D01*
X189925309Y-153028785D01*
X190040144Y-153076351D01*
X190162052Y-153100600D01*
X190286348Y-153100600D01*
X190408256Y-153076351D01*
X190523091Y-153028785D01*
X190599200Y-152977931D01*
X190675309Y-153028785D01*
X190790144Y-153076351D01*
X190912052Y-153100600D01*
X191036348Y-153100600D01*
X191158256Y-153076351D01*
X191273091Y-153028785D01*
X191374200Y-152961226D01*
X191475309Y-153028785D01*
X191590144Y-153076351D01*
X191712052Y-153100600D01*
X191836348Y-153100600D01*
X191958256Y-153076351D01*
X192073091Y-153028785D01*
X192174200Y-152961226D01*
X192275309Y-153028785D01*
X192390144Y-153076351D01*
X192512052Y-153100600D01*
X192636348Y-153100600D01*
X192758256Y-153076351D01*
X192873091Y-153028785D01*
X192949200Y-152977931D01*
X193025309Y-153028785D01*
X193140144Y-153076351D01*
X193262052Y-153100600D01*
X193386348Y-153100600D01*
X193508256Y-153076351D01*
X193623091Y-153028785D01*
X193726439Y-152959730D01*
X193814330Y-152871839D01*
X193883385Y-152768491D01*
X193930951Y-152653656D01*
X193955200Y-152531748D01*
X193955200Y-152407452D01*
X193930951Y-152285544D01*
X193883385Y-152170709D01*
X193814330Y-152067361D01*
X193726439Y-151979470D01*
X193623091Y-151910415D01*
X193508256Y-151862849D01*
X193386348Y-151838600D01*
X193262052Y-151838600D01*
X193140144Y-151862849D01*
X193025309Y-151910415D01*
X192949200Y-151961269D01*
X192873091Y-151910415D01*
X192758256Y-151862849D01*
X192636348Y-151838600D01*
X192512052Y-151838600D01*
X192390144Y-151862849D01*
X192275309Y-151910415D01*
X192174200Y-151977974D01*
X192073091Y-151910415D01*
X191958256Y-151862849D01*
X191836348Y-151838600D01*
X191712052Y-151838600D01*
X191590144Y-151862849D01*
X191475309Y-151910415D01*
X191374200Y-151977974D01*
X191273091Y-151910415D01*
X191158256Y-151862849D01*
X191036348Y-151838600D01*
X190912052Y-151838600D01*
X190790144Y-151862849D01*
X190675309Y-151910415D01*
X190599200Y-151961269D01*
X190523091Y-151910415D01*
X190408256Y-151862849D01*
X190286348Y-151838600D01*
X190162052Y-151838600D01*
X190040144Y-151862849D01*
X189925309Y-151910415D01*
X189821961Y-151979470D01*
X189734070Y-152067361D01*
X189665015Y-152170709D01*
X189617449Y-152285544D01*
X189593200Y-152407452D01*
X168606889Y-152407452D01*
X168583385Y-152350709D01*
X168514330Y-152247361D01*
X168426439Y-152159470D01*
X168323091Y-152090415D01*
X168208256Y-152042849D01*
X168086348Y-152018600D01*
X167962052Y-152018600D01*
X167840144Y-152042849D01*
X167725309Y-152090415D01*
X167621961Y-152159470D01*
X167534070Y-152247361D01*
X167465015Y-152350709D01*
X167417449Y-152465544D01*
X167393200Y-152587452D01*
X164515200Y-152587452D01*
X164515200Y-152577452D01*
X164490951Y-152455544D01*
X164443385Y-152340709D01*
X164374330Y-152237361D01*
X164286439Y-152149470D01*
X164183091Y-152080415D01*
X164068256Y-152032849D01*
X163946348Y-152008600D01*
X163822052Y-152008600D01*
X163700144Y-152032849D01*
X163585309Y-152080415D01*
X163481961Y-152149470D01*
X163394070Y-152237361D01*
X163325015Y-152340709D01*
X163277449Y-152455544D01*
X163253200Y-152577452D01*
X157455200Y-152577452D01*
X157455200Y-150882452D01*
X179343200Y-150882452D01*
X179343200Y-151006748D01*
X179367449Y-151128656D01*
X179415015Y-151243491D01*
X179484070Y-151346839D01*
X179571961Y-151434730D01*
X179675309Y-151503785D01*
X179790144Y-151551351D01*
X179912052Y-151575600D01*
X180036348Y-151575600D01*
X180158256Y-151551351D01*
X180273091Y-151503785D01*
X180376439Y-151434730D01*
X180464330Y-151346839D01*
X180533385Y-151243491D01*
X180580951Y-151128656D01*
X180605200Y-151006748D01*
X180605200Y-150882452D01*
X180580951Y-150760544D01*
X180533385Y-150645709D01*
X180464330Y-150542361D01*
X180376439Y-150454470D01*
X180273091Y-150385415D01*
X180158256Y-150337849D01*
X180036348Y-150313600D01*
X179912052Y-150313600D01*
X179790144Y-150337849D01*
X179675309Y-150385415D01*
X179571961Y-150454470D01*
X179484070Y-150542361D01*
X179415015Y-150645709D01*
X179367449Y-150760544D01*
X179343200Y-150882452D01*
X157455200Y-150882452D01*
X157455200Y-149295852D01*
X185444800Y-149295852D01*
X185444800Y-149420148D01*
X185469049Y-149542056D01*
X185516615Y-149656891D01*
X185585670Y-149760239D01*
X185673561Y-149848130D01*
X185776909Y-149917185D01*
X185891744Y-149964751D01*
X186013652Y-149989000D01*
X186137948Y-149989000D01*
X186259856Y-149964751D01*
X186374691Y-149917185D01*
X186478039Y-149848130D01*
X186565930Y-149760239D01*
X186634985Y-149656891D01*
X186645047Y-149632599D01*
X189133200Y-149632599D01*
X189133200Y-149906601D01*
X189186656Y-150175340D01*
X189291512Y-150428485D01*
X189443740Y-150656311D01*
X189637489Y-150850060D01*
X189865315Y-151002288D01*
X190118460Y-151107144D01*
X190387199Y-151160600D01*
X190661201Y-151160600D01*
X190929940Y-151107144D01*
X191183085Y-151002288D01*
X191410911Y-150850060D01*
X191604660Y-150656311D01*
X191756888Y-150428485D01*
X191861744Y-150175340D01*
X191915200Y-149906601D01*
X191915200Y-149632599D01*
X191861744Y-149363860D01*
X191756888Y-149110715D01*
X191604660Y-148882889D01*
X191410911Y-148689140D01*
X191183085Y-148536912D01*
X190929940Y-148432056D01*
X190661201Y-148378600D01*
X190387199Y-148378600D01*
X190118460Y-148432056D01*
X189865315Y-148536912D01*
X189637489Y-148689140D01*
X189443740Y-148882889D01*
X189291512Y-149110715D01*
X189186656Y-149363860D01*
X189133200Y-149632599D01*
X186645047Y-149632599D01*
X186682551Y-149542056D01*
X186706800Y-149420148D01*
X186706800Y-149295852D01*
X186682551Y-149173944D01*
X186634985Y-149059109D01*
X186565930Y-148955761D01*
X186478039Y-148867870D01*
X186374691Y-148798815D01*
X186259856Y-148751249D01*
X186137948Y-148727000D01*
X186013652Y-148727000D01*
X185891744Y-148751249D01*
X185776909Y-148798815D01*
X185673561Y-148867870D01*
X185585670Y-148955761D01*
X185516615Y-149059109D01*
X185469049Y-149173944D01*
X185444800Y-149295852D01*
X157455200Y-149295852D01*
X157455200Y-147847852D01*
X177702200Y-147847852D01*
X177702200Y-147972148D01*
X177726449Y-148094056D01*
X177774015Y-148208891D01*
X177843070Y-148312239D01*
X177930961Y-148400130D01*
X178034309Y-148469185D01*
X178149144Y-148516751D01*
X178271052Y-148541000D01*
X178395348Y-148541000D01*
X178517256Y-148516751D01*
X178632091Y-148469185D01*
X178735439Y-148400130D01*
X178823330Y-148312239D01*
X178892385Y-148208891D01*
X178939951Y-148094056D01*
X178964200Y-147972148D01*
X178964200Y-147847852D01*
X178939951Y-147725944D01*
X178892385Y-147611109D01*
X178823330Y-147507761D01*
X178735439Y-147419870D01*
X178632091Y-147350815D01*
X178517256Y-147303249D01*
X178395348Y-147279000D01*
X178271052Y-147279000D01*
X178149144Y-147303249D01*
X178034309Y-147350815D01*
X177930961Y-147419870D01*
X177843070Y-147507761D01*
X177774015Y-147611109D01*
X177726449Y-147725944D01*
X177702200Y-147847852D01*
X157455200Y-147847852D01*
X157455200Y-146092852D01*
X175037800Y-146092852D01*
X175037800Y-146217148D01*
X175062049Y-146339056D01*
X175109615Y-146453891D01*
X175178670Y-146557239D01*
X175266561Y-146645130D01*
X175369909Y-146714185D01*
X175484744Y-146761751D01*
X175606652Y-146786000D01*
X175730948Y-146786000D01*
X175852856Y-146761751D01*
X175967691Y-146714185D01*
X176071039Y-146645130D01*
X176158930Y-146557239D01*
X176227985Y-146453891D01*
X176275551Y-146339056D01*
X176299800Y-146217148D01*
X176299800Y-146092852D01*
X176275551Y-145970944D01*
X176227985Y-145856109D01*
X176158930Y-145752761D01*
X176071039Y-145664870D01*
X175967691Y-145595815D01*
X175852856Y-145548249D01*
X175730948Y-145524000D01*
X175606652Y-145524000D01*
X175484744Y-145548249D01*
X175369909Y-145595815D01*
X175266561Y-145664870D01*
X175178670Y-145752761D01*
X175109615Y-145856109D01*
X175062049Y-145970944D01*
X175037800Y-146092852D01*
X157455200Y-146092852D01*
X157455200Y-142327452D01*
X173383200Y-142327452D01*
X173383200Y-142451748D01*
X173407449Y-142573656D01*
X173455015Y-142688491D01*
X173524070Y-142791839D01*
X173611961Y-142879730D01*
X173715309Y-142948785D01*
X173830144Y-142996351D01*
X173952052Y-143020600D01*
X174076348Y-143020600D01*
X174198256Y-142996351D01*
X174313091Y-142948785D01*
X174416439Y-142879730D01*
X174496136Y-142800033D01*
X174524070Y-142841839D01*
X174611961Y-142929730D01*
X174715309Y-142998785D01*
X174830144Y-143046351D01*
X174952052Y-143070600D01*
X175076348Y-143070600D01*
X175198256Y-143046351D01*
X175313091Y-142998785D01*
X175416439Y-142929730D01*
X175504330Y-142841839D01*
X175573385Y-142738491D01*
X175620951Y-142623656D01*
X175645200Y-142501748D01*
X175645200Y-142377452D01*
X175620951Y-142255544D01*
X175573385Y-142140709D01*
X175520849Y-142062083D01*
X175583385Y-141968491D01*
X175630951Y-141853656D01*
X175655200Y-141731748D01*
X175655200Y-141607452D01*
X175630951Y-141485544D01*
X175583700Y-141371469D01*
X175641961Y-141429730D01*
X175745309Y-141498785D01*
X175860144Y-141546351D01*
X175982052Y-141570600D01*
X176106348Y-141570600D01*
X176228256Y-141546351D01*
X176343091Y-141498785D01*
X176446439Y-141429730D01*
X176534330Y-141341839D01*
X176603385Y-141238491D01*
X176650951Y-141123656D01*
X176675200Y-141001748D01*
X176675200Y-140877452D01*
X176650951Y-140755544D01*
X176603385Y-140640709D01*
X176534330Y-140537361D01*
X176446439Y-140449470D01*
X176343091Y-140380415D01*
X176228256Y-140332849D01*
X176106348Y-140308600D01*
X175982052Y-140308600D01*
X175860144Y-140332849D01*
X175745309Y-140380415D01*
X175641961Y-140449470D01*
X175554070Y-140537361D01*
X175537518Y-140562132D01*
X175534330Y-140557361D01*
X175446439Y-140469470D01*
X175343091Y-140400415D01*
X175228256Y-140352849D01*
X175106348Y-140328600D01*
X174982052Y-140328600D01*
X174860144Y-140352849D01*
X174745309Y-140400415D01*
X174641961Y-140469470D01*
X174554070Y-140557361D01*
X174537541Y-140582099D01*
X174514330Y-140547361D01*
X174426439Y-140459470D01*
X174323091Y-140390415D01*
X174208256Y-140342849D01*
X174086348Y-140318600D01*
X173962052Y-140318600D01*
X173840144Y-140342849D01*
X173725309Y-140390415D01*
X173621961Y-140459470D01*
X173534070Y-140547361D01*
X173465015Y-140650709D01*
X173417449Y-140765544D01*
X173393200Y-140887452D01*
X173393200Y-141011748D01*
X173417449Y-141133656D01*
X173465015Y-141248491D01*
X173505847Y-141309600D01*
X173465015Y-141370709D01*
X173417449Y-141485544D01*
X173393200Y-141607452D01*
X173393200Y-141731748D01*
X173417449Y-141853656D01*
X173465015Y-141968491D01*
X173500847Y-142022117D01*
X173455015Y-142090709D01*
X173407449Y-142205544D01*
X173383200Y-142327452D01*
X157455200Y-142327452D01*
X157455200Y-139507452D01*
X189393200Y-139507452D01*
X189393200Y-139631748D01*
X189417449Y-139753656D01*
X189465015Y-139868491D01*
X189534070Y-139971839D01*
X189621961Y-140059730D01*
X189725309Y-140128785D01*
X189840144Y-140176351D01*
X189962052Y-140200600D01*
X190086348Y-140200600D01*
X190208256Y-140176351D01*
X190323091Y-140128785D01*
X190424200Y-140061226D01*
X190525309Y-140128785D01*
X190640144Y-140176351D01*
X190762052Y-140200600D01*
X190886348Y-140200600D01*
X191008256Y-140176351D01*
X191123091Y-140128785D01*
X191224200Y-140061226D01*
X191325309Y-140128785D01*
X191440144Y-140176351D01*
X191562052Y-140200600D01*
X191686348Y-140200600D01*
X191808256Y-140176351D01*
X191923091Y-140128785D01*
X192024200Y-140061226D01*
X192125309Y-140128785D01*
X192240144Y-140176351D01*
X192362052Y-140200600D01*
X192486348Y-140200600D01*
X192608256Y-140176351D01*
X192723091Y-140128785D01*
X192826439Y-140059730D01*
X192914330Y-139971839D01*
X192983385Y-139868491D01*
X193030951Y-139753656D01*
X193055200Y-139631748D01*
X193055200Y-139507452D01*
X193030951Y-139385544D01*
X192983385Y-139270709D01*
X192914330Y-139167361D01*
X192826439Y-139079470D01*
X192723091Y-139010415D01*
X192608256Y-138962849D01*
X192486348Y-138938600D01*
X192362052Y-138938600D01*
X192240144Y-138962849D01*
X192125309Y-139010415D01*
X192024200Y-139077974D01*
X191923091Y-139010415D01*
X191808256Y-138962849D01*
X191686348Y-138938600D01*
X191562052Y-138938600D01*
X191440144Y-138962849D01*
X191325309Y-139010415D01*
X191224200Y-139077974D01*
X191123091Y-139010415D01*
X191008256Y-138962849D01*
X190886348Y-138938600D01*
X190762052Y-138938600D01*
X190640144Y-138962849D01*
X190525309Y-139010415D01*
X190424200Y-139077974D01*
X190323091Y-139010415D01*
X190208256Y-138962849D01*
X190086348Y-138938600D01*
X189962052Y-138938600D01*
X189840144Y-138962849D01*
X189725309Y-139010415D01*
X189621961Y-139079470D01*
X189534070Y-139167361D01*
X189465015Y-139270709D01*
X189417449Y-139385544D01*
X189393200Y-139507452D01*
X157455200Y-139507452D01*
X157455200Y-138082452D01*
X179343200Y-138082452D01*
X179343200Y-138206748D01*
X179367449Y-138328656D01*
X179415015Y-138443491D01*
X179484070Y-138546839D01*
X179571961Y-138634730D01*
X179675309Y-138703785D01*
X179790144Y-138751351D01*
X179912052Y-138775600D01*
X180036348Y-138775600D01*
X180158256Y-138751351D01*
X180273091Y-138703785D01*
X180376439Y-138634730D01*
X180464330Y-138546839D01*
X180533385Y-138443491D01*
X180580951Y-138328656D01*
X180605200Y-138206748D01*
X180605200Y-138082452D01*
X180580951Y-137960544D01*
X180533385Y-137845709D01*
X180464330Y-137742361D01*
X180376439Y-137654470D01*
X180273091Y-137585415D01*
X180158256Y-137537849D01*
X180036348Y-137513600D01*
X179912052Y-137513600D01*
X179790144Y-137537849D01*
X179675309Y-137585415D01*
X179571961Y-137654470D01*
X179484070Y-137742361D01*
X179415015Y-137845709D01*
X179367449Y-137960544D01*
X179343200Y-138082452D01*
X157455200Y-138082452D01*
X157455200Y-135977452D01*
X171893200Y-135977452D01*
X171893200Y-136101748D01*
X171917449Y-136223656D01*
X171965015Y-136338491D01*
X172034070Y-136441839D01*
X172121961Y-136529730D01*
X172225309Y-136598785D01*
X172340144Y-136646351D01*
X172462052Y-136670600D01*
X172586348Y-136670600D01*
X172708256Y-136646351D01*
X172823091Y-136598785D01*
X172926439Y-136529730D01*
X172928517Y-136527652D01*
X185444800Y-136527652D01*
X185444800Y-136651948D01*
X185469049Y-136773856D01*
X185516615Y-136888691D01*
X185585670Y-136992039D01*
X185673561Y-137079930D01*
X185776909Y-137148985D01*
X185891744Y-137196551D01*
X186013652Y-137220800D01*
X186137948Y-137220800D01*
X186259856Y-137196551D01*
X186374691Y-137148985D01*
X186478039Y-137079930D01*
X186565930Y-136992039D01*
X186634985Y-136888691D01*
X186647863Y-136857599D01*
X189083200Y-136857599D01*
X189083200Y-137131601D01*
X189136656Y-137400340D01*
X189241512Y-137653485D01*
X189393740Y-137881311D01*
X189587489Y-138075060D01*
X189815315Y-138227288D01*
X190068460Y-138332144D01*
X190337199Y-138385600D01*
X190611201Y-138385600D01*
X190879940Y-138332144D01*
X191133085Y-138227288D01*
X191360911Y-138075060D01*
X191554660Y-137881311D01*
X191706888Y-137653485D01*
X191811744Y-137400340D01*
X191865200Y-137131601D01*
X191865200Y-136857599D01*
X191811744Y-136588860D01*
X191706888Y-136335715D01*
X191554660Y-136107889D01*
X191360911Y-135914140D01*
X191133085Y-135761912D01*
X190879940Y-135657056D01*
X190611201Y-135603600D01*
X190337199Y-135603600D01*
X190068460Y-135657056D01*
X189815315Y-135761912D01*
X189587489Y-135914140D01*
X189393740Y-136107889D01*
X189241512Y-136335715D01*
X189136656Y-136588860D01*
X189083200Y-136857599D01*
X186647863Y-136857599D01*
X186682551Y-136773856D01*
X186706800Y-136651948D01*
X186706800Y-136527652D01*
X186682551Y-136405744D01*
X186634985Y-136290909D01*
X186565930Y-136187561D01*
X186478039Y-136099670D01*
X186374691Y-136030615D01*
X186259856Y-135983049D01*
X186137948Y-135958800D01*
X186013652Y-135958800D01*
X185891744Y-135983049D01*
X185776909Y-136030615D01*
X185673561Y-136099670D01*
X185585670Y-136187561D01*
X185516615Y-136290909D01*
X185469049Y-136405744D01*
X185444800Y-136527652D01*
X172928517Y-136527652D01*
X173014330Y-136441839D01*
X173083385Y-136338491D01*
X173130951Y-136223656D01*
X173155200Y-136101748D01*
X173155200Y-135977452D01*
X173130951Y-135855544D01*
X173083385Y-135740709D01*
X173014330Y-135637361D01*
X172926439Y-135549470D01*
X172823091Y-135480415D01*
X172708256Y-135432849D01*
X172586348Y-135408600D01*
X172462052Y-135408600D01*
X172340144Y-135432849D01*
X172225309Y-135480415D01*
X172121961Y-135549470D01*
X172034070Y-135637361D01*
X171965015Y-135740709D01*
X171917449Y-135855544D01*
X171893200Y-135977452D01*
X157455200Y-135977452D01*
X157455200Y-134462852D01*
X169968200Y-134462852D01*
X169968200Y-134587148D01*
X169992449Y-134709056D01*
X170040015Y-134823891D01*
X170109070Y-134927239D01*
X170196961Y-135015130D01*
X170300309Y-135084185D01*
X170415144Y-135131751D01*
X170537052Y-135156000D01*
X170661348Y-135156000D01*
X170702310Y-135147852D01*
X177609000Y-135147852D01*
X177609000Y-135272148D01*
X177633249Y-135394056D01*
X177680815Y-135508891D01*
X177749870Y-135612239D01*
X177837761Y-135700130D01*
X177941109Y-135769185D01*
X178055944Y-135816751D01*
X178177852Y-135841000D01*
X178302148Y-135841000D01*
X178424056Y-135816751D01*
X178538891Y-135769185D01*
X178642239Y-135700130D01*
X178730130Y-135612239D01*
X178799185Y-135508891D01*
X178846751Y-135394056D01*
X178871000Y-135272148D01*
X178871000Y-135147852D01*
X178846751Y-135025944D01*
X178799185Y-134911109D01*
X178730130Y-134807761D01*
X178642239Y-134719870D01*
X178538891Y-134650815D01*
X178424056Y-134603249D01*
X178302148Y-134579000D01*
X178177852Y-134579000D01*
X178055944Y-134603249D01*
X177941109Y-134650815D01*
X177837761Y-134719870D01*
X177749870Y-134807761D01*
X177680815Y-134911109D01*
X177633249Y-135025944D01*
X177609000Y-135147852D01*
X170702310Y-135147852D01*
X170783256Y-135131751D01*
X170898091Y-135084185D01*
X171001439Y-135015130D01*
X171089330Y-134927239D01*
X171158385Y-134823891D01*
X171205951Y-134709056D01*
X171230200Y-134587148D01*
X171230200Y-134462852D01*
X171205951Y-134340944D01*
X171158385Y-134226109D01*
X171089330Y-134122761D01*
X171001439Y-134034870D01*
X170898091Y-133965815D01*
X170783256Y-133918249D01*
X170661348Y-133894000D01*
X170537052Y-133894000D01*
X170415144Y-133918249D01*
X170300309Y-133965815D01*
X170196961Y-134034870D01*
X170109070Y-134122761D01*
X170040015Y-134226109D01*
X169992449Y-134340944D01*
X169968200Y-134462852D01*
X157455200Y-134462852D01*
X157455200Y-132927452D01*
X175853200Y-132927452D01*
X175853200Y-133051748D01*
X175877449Y-133173656D01*
X175925015Y-133288491D01*
X175994070Y-133391839D01*
X176081961Y-133479730D01*
X176185309Y-133548785D01*
X176300144Y-133596351D01*
X176422052Y-133620600D01*
X176546348Y-133620600D01*
X176668256Y-133596351D01*
X176783091Y-133548785D01*
X176886439Y-133479730D01*
X176974330Y-133391839D01*
X177043385Y-133288491D01*
X177090951Y-133173656D01*
X177115200Y-133051748D01*
X177115200Y-132927452D01*
X177090951Y-132805544D01*
X177043385Y-132690709D01*
X176974330Y-132587361D01*
X176886439Y-132499470D01*
X176783091Y-132430415D01*
X176668256Y-132382849D01*
X176546348Y-132358600D01*
X176422052Y-132358600D01*
X176300144Y-132382849D01*
X176185309Y-132430415D01*
X176081961Y-132499470D01*
X175994070Y-132587361D01*
X175925015Y-132690709D01*
X175877449Y-132805544D01*
X175853200Y-132927452D01*
X157455200Y-132927452D01*
X157455200Y-129137452D01*
X173863200Y-129137452D01*
X173863200Y-129261748D01*
X173887449Y-129383656D01*
X173935015Y-129498491D01*
X173935756Y-129499600D01*
X173935015Y-129500709D01*
X173887449Y-129615544D01*
X173863200Y-129737452D01*
X173863200Y-129861748D01*
X173887449Y-129983656D01*
X173935015Y-130098491D01*
X173935756Y-130099600D01*
X173935015Y-130100709D01*
X173887449Y-130215544D01*
X173863200Y-130337452D01*
X173863200Y-130461748D01*
X173887449Y-130583656D01*
X173935015Y-130698491D01*
X174004070Y-130801839D01*
X174091961Y-130889730D01*
X174195309Y-130958785D01*
X174310144Y-131006351D01*
X174432052Y-131030600D01*
X174556348Y-131030600D01*
X174678256Y-131006351D01*
X174793091Y-130958785D01*
X174844200Y-130924635D01*
X174895309Y-130958785D01*
X175010144Y-131006351D01*
X175132052Y-131030600D01*
X175256348Y-131030600D01*
X175378256Y-131006351D01*
X175493091Y-130958785D01*
X175596439Y-130889730D01*
X175684330Y-130801839D01*
X175753385Y-130698491D01*
X175800951Y-130583656D01*
X175825200Y-130461748D01*
X175825200Y-130337452D01*
X175800951Y-130215544D01*
X175753385Y-130100709D01*
X175752644Y-130099600D01*
X175753385Y-130098491D01*
X175800951Y-129983656D01*
X175825200Y-129861748D01*
X175825200Y-129737452D01*
X175800951Y-129615544D01*
X175753385Y-129500709D01*
X175752644Y-129499600D01*
X175753385Y-129498491D01*
X175800951Y-129383656D01*
X175825200Y-129261748D01*
X175825200Y-129137452D01*
X175800951Y-129015544D01*
X175753385Y-128900709D01*
X175684330Y-128797361D01*
X175596439Y-128709470D01*
X175493091Y-128640415D01*
X175378256Y-128592849D01*
X175256348Y-128568600D01*
X175132052Y-128568600D01*
X175010144Y-128592849D01*
X174895309Y-128640415D01*
X174844200Y-128674565D01*
X174793091Y-128640415D01*
X174678256Y-128592849D01*
X174556348Y-128568600D01*
X174432052Y-128568600D01*
X174310144Y-128592849D01*
X174195309Y-128640415D01*
X174091961Y-128709470D01*
X174004070Y-128797361D01*
X173935015Y-128900709D01*
X173887449Y-129015544D01*
X173863200Y-129137452D01*
X157455200Y-129137452D01*
X157455200Y-128127452D01*
X178213200Y-128127452D01*
X178213200Y-128251748D01*
X178237449Y-128373656D01*
X178285015Y-128488491D01*
X178354070Y-128591839D01*
X178441961Y-128679730D01*
X178545309Y-128748785D01*
X178660144Y-128796351D01*
X178782052Y-128820600D01*
X178906348Y-128820600D01*
X179028256Y-128796351D01*
X179143091Y-128748785D01*
X179246439Y-128679730D01*
X179334330Y-128591839D01*
X179403385Y-128488491D01*
X179450951Y-128373656D01*
X179475200Y-128251748D01*
X179475200Y-128127452D01*
X179450951Y-128005544D01*
X179403385Y-127890709D01*
X179334330Y-127787361D01*
X179246439Y-127699470D01*
X179143091Y-127630415D01*
X179028256Y-127582849D01*
X178906348Y-127558600D01*
X178782052Y-127558600D01*
X178660144Y-127582849D01*
X178545309Y-127630415D01*
X178441961Y-127699470D01*
X178354070Y-127787361D01*
X178285015Y-127890709D01*
X178237449Y-128005544D01*
X178213200Y-128127452D01*
X157455200Y-128127452D01*
X157455200Y-127397452D01*
X189263200Y-127397452D01*
X189263200Y-127521748D01*
X189287449Y-127643656D01*
X189335015Y-127758491D01*
X189404070Y-127861839D01*
X189491961Y-127949730D01*
X189595309Y-128018785D01*
X189710144Y-128066351D01*
X189832052Y-128090600D01*
X189956348Y-128090600D01*
X190078256Y-128066351D01*
X190193091Y-128018785D01*
X190256717Y-127976271D01*
X190335309Y-128028785D01*
X190450144Y-128076351D01*
X190572052Y-128100600D01*
X190696348Y-128100600D01*
X190818256Y-128076351D01*
X190933091Y-128028785D01*
X191016683Y-127972931D01*
X191085309Y-128018785D01*
X191200144Y-128066351D01*
X191322052Y-128090600D01*
X191446348Y-128090600D01*
X191568256Y-128066351D01*
X191683091Y-128018785D01*
X191726717Y-127989635D01*
X191785309Y-128028785D01*
X191900144Y-128076351D01*
X192022052Y-128100600D01*
X192146348Y-128100600D01*
X192268256Y-128076351D01*
X192383091Y-128028785D01*
X192486439Y-127959730D01*
X192574330Y-127871839D01*
X192643385Y-127768491D01*
X192690951Y-127653656D01*
X192715200Y-127531748D01*
X192715200Y-127407452D01*
X192690951Y-127285544D01*
X192643385Y-127170709D01*
X192574330Y-127067361D01*
X192486439Y-126979470D01*
X192383091Y-126910415D01*
X192268256Y-126862849D01*
X192146348Y-126838600D01*
X192022052Y-126838600D01*
X191900144Y-126862849D01*
X191785309Y-126910415D01*
X191741683Y-126939565D01*
X191683091Y-126900415D01*
X191568256Y-126852849D01*
X191446348Y-126828600D01*
X191322052Y-126828600D01*
X191200144Y-126852849D01*
X191085309Y-126900415D01*
X191001717Y-126956269D01*
X190933091Y-126910415D01*
X190818256Y-126862849D01*
X190696348Y-126838600D01*
X190572052Y-126838600D01*
X190450144Y-126862849D01*
X190335309Y-126910415D01*
X190271683Y-126952929D01*
X190193091Y-126900415D01*
X190078256Y-126852849D01*
X189956348Y-126828600D01*
X189832052Y-126828600D01*
X189710144Y-126852849D01*
X189595309Y-126900415D01*
X189491961Y-126969470D01*
X189404070Y-127057361D01*
X189335015Y-127160709D01*
X189287449Y-127275544D01*
X189263200Y-127397452D01*
X157455200Y-127397452D01*
X157455200Y-125907452D01*
X179343200Y-125907452D01*
X179343200Y-126031748D01*
X179367449Y-126153656D01*
X179415015Y-126268491D01*
X179484070Y-126371839D01*
X179571961Y-126459730D01*
X179675309Y-126528785D01*
X179790144Y-126576351D01*
X179912052Y-126600600D01*
X180036348Y-126600600D01*
X180158256Y-126576351D01*
X180273091Y-126528785D01*
X180376439Y-126459730D01*
X180464330Y-126371839D01*
X180533385Y-126268491D01*
X180580951Y-126153656D01*
X180605200Y-126031748D01*
X180605200Y-125907452D01*
X180580951Y-125785544D01*
X180533385Y-125670709D01*
X180464330Y-125567361D01*
X180376439Y-125479470D01*
X180273091Y-125410415D01*
X180158256Y-125362849D01*
X180036348Y-125338600D01*
X179912052Y-125338600D01*
X179790144Y-125362849D01*
X179675309Y-125410415D01*
X179571961Y-125479470D01*
X179484070Y-125567361D01*
X179415015Y-125670709D01*
X179367449Y-125785544D01*
X179343200Y-125907452D01*
X157455200Y-125907452D01*
X157455200Y-124284852D01*
X185394000Y-124284852D01*
X185394000Y-124409148D01*
X185418249Y-124531056D01*
X185465815Y-124645891D01*
X185534870Y-124749239D01*
X185622761Y-124837130D01*
X185726109Y-124906185D01*
X185840944Y-124953751D01*
X185962852Y-124978000D01*
X186087148Y-124978000D01*
X186209056Y-124953751D01*
X186323891Y-124906185D01*
X186427239Y-124837130D01*
X186515130Y-124749239D01*
X186584185Y-124645891D01*
X186600045Y-124607599D01*
X188408200Y-124607599D01*
X188408200Y-124881601D01*
X188461656Y-125150340D01*
X188566512Y-125403485D01*
X188718740Y-125631311D01*
X188912489Y-125825060D01*
X189140315Y-125977288D01*
X189393460Y-126082144D01*
X189662199Y-126135600D01*
X189936201Y-126135600D01*
X190204940Y-126082144D01*
X190458085Y-125977288D01*
X190685911Y-125825060D01*
X190879660Y-125631311D01*
X191031888Y-125403485D01*
X191136744Y-125150340D01*
X191190200Y-124881601D01*
X191190200Y-124607599D01*
X191136744Y-124338860D01*
X191031888Y-124085715D01*
X190879660Y-123857889D01*
X190685911Y-123664140D01*
X190458085Y-123511912D01*
X190204940Y-123407056D01*
X189936201Y-123353600D01*
X189662199Y-123353600D01*
X189393460Y-123407056D01*
X189140315Y-123511912D01*
X188912489Y-123664140D01*
X188718740Y-123857889D01*
X188566512Y-124085715D01*
X188461656Y-124338860D01*
X188408200Y-124607599D01*
X186600045Y-124607599D01*
X186631751Y-124531056D01*
X186656000Y-124409148D01*
X186656000Y-124284852D01*
X186631751Y-124162944D01*
X186584185Y-124048109D01*
X186515130Y-123944761D01*
X186427239Y-123856870D01*
X186323891Y-123787815D01*
X186209056Y-123740249D01*
X186087148Y-123716000D01*
X185962852Y-123716000D01*
X185840944Y-123740249D01*
X185726109Y-123787815D01*
X185622761Y-123856870D01*
X185534870Y-123944761D01*
X185465815Y-124048109D01*
X185418249Y-124162944D01*
X185394000Y-124284852D01*
X157455200Y-124284852D01*
X157455200Y-116545800D01*
X160795157Y-116545800D01*
X160795157Y-121045800D01*
X160802513Y-121120489D01*
X160824299Y-121192308D01*
X160859678Y-121258496D01*
X160907289Y-121316511D01*
X160965304Y-121364122D01*
X161031492Y-121399501D01*
X161103311Y-121421287D01*
X161178000Y-121428643D01*
X163178000Y-121428643D01*
X163252689Y-121421287D01*
X163324508Y-121399501D01*
X163390696Y-121364122D01*
X163448711Y-121316511D01*
X163496322Y-121258496D01*
X163531701Y-121192308D01*
X163553487Y-121120489D01*
X163560843Y-121045800D01*
X163560843Y-120795800D01*
X164245157Y-120795800D01*
X164245157Y-122795800D01*
X164252513Y-122870489D01*
X164274299Y-122942308D01*
X164309678Y-123008496D01*
X164357289Y-123066511D01*
X164415304Y-123114122D01*
X164481492Y-123149501D01*
X164553311Y-123171287D01*
X164628000Y-123178643D01*
X169128000Y-123178643D01*
X169202689Y-123171287D01*
X169274508Y-123149501D01*
X169340696Y-123114122D01*
X169398711Y-123066511D01*
X169446322Y-123008496D01*
X169481701Y-122942308D01*
X169488694Y-122919252D01*
X177569000Y-122919252D01*
X177569000Y-123043548D01*
X177593249Y-123165456D01*
X177640815Y-123280291D01*
X177709870Y-123383639D01*
X177797761Y-123471530D01*
X177901109Y-123540585D01*
X178015944Y-123588151D01*
X178137852Y-123612400D01*
X178262148Y-123612400D01*
X178384056Y-123588151D01*
X178498891Y-123540585D01*
X178602239Y-123471530D01*
X178690130Y-123383639D01*
X178759185Y-123280291D01*
X178806751Y-123165456D01*
X178831000Y-123043548D01*
X178831000Y-122919252D01*
X178806751Y-122797344D01*
X178759185Y-122682509D01*
X178690130Y-122579161D01*
X178602239Y-122491270D01*
X178498891Y-122422215D01*
X178384056Y-122374649D01*
X178262148Y-122350400D01*
X178137852Y-122350400D01*
X178015944Y-122374649D01*
X177901109Y-122422215D01*
X177797761Y-122491270D01*
X177709870Y-122579161D01*
X177640815Y-122682509D01*
X177593249Y-122797344D01*
X177569000Y-122919252D01*
X169488694Y-122919252D01*
X169503487Y-122870489D01*
X169510843Y-122795800D01*
X169510843Y-120807452D01*
X175803200Y-120807452D01*
X175803200Y-120931748D01*
X175827449Y-121053656D01*
X175875015Y-121168491D01*
X175944070Y-121271839D01*
X176031961Y-121359730D01*
X176135309Y-121428785D01*
X176250144Y-121476351D01*
X176372052Y-121500600D01*
X176496348Y-121500600D01*
X176618256Y-121476351D01*
X176733091Y-121428785D01*
X176836439Y-121359730D01*
X176924330Y-121271839D01*
X176993385Y-121168491D01*
X177040951Y-121053656D01*
X177065200Y-120931748D01*
X177065200Y-120807452D01*
X177040951Y-120685544D01*
X176993385Y-120570709D01*
X176924330Y-120467361D01*
X176836439Y-120379470D01*
X176733091Y-120310415D01*
X176618256Y-120262849D01*
X176496348Y-120238600D01*
X176372052Y-120238600D01*
X176250144Y-120262849D01*
X176135309Y-120310415D01*
X176031961Y-120379470D01*
X175944070Y-120467361D01*
X175875015Y-120570709D01*
X175827449Y-120685544D01*
X175803200Y-120807452D01*
X169510843Y-120807452D01*
X169510843Y-120795800D01*
X169503487Y-120721111D01*
X169481701Y-120649292D01*
X169446322Y-120583104D01*
X169398711Y-120525089D01*
X169340696Y-120477478D01*
X169274508Y-120442099D01*
X169202689Y-120420313D01*
X169128000Y-120412957D01*
X164628000Y-120412957D01*
X164553311Y-120420313D01*
X164481492Y-120442099D01*
X164415304Y-120477478D01*
X164357289Y-120525089D01*
X164309678Y-120583104D01*
X164274299Y-120649292D01*
X164252513Y-120721111D01*
X164245157Y-120795800D01*
X163560843Y-120795800D01*
X163560843Y-116545800D01*
X163553487Y-116471111D01*
X163531701Y-116399292D01*
X163496322Y-116333104D01*
X163448711Y-116275089D01*
X163390696Y-116227478D01*
X163324508Y-116192099D01*
X163252689Y-116170313D01*
X163178000Y-116162957D01*
X161178000Y-116162957D01*
X161103311Y-116170313D01*
X161031492Y-116192099D01*
X160965304Y-116227478D01*
X160907289Y-116275089D01*
X160859678Y-116333104D01*
X160824299Y-116399292D01*
X160802513Y-116471111D01*
X160795157Y-116545800D01*
X157455200Y-116545800D01*
X157455200Y-114795800D01*
X164245157Y-114795800D01*
X164245157Y-116795800D01*
X164252513Y-116870489D01*
X164274299Y-116942308D01*
X164309678Y-117008496D01*
X164357289Y-117066511D01*
X164415304Y-117114122D01*
X164481492Y-117149501D01*
X164553311Y-117171287D01*
X164628000Y-117178643D01*
X169128000Y-117178643D01*
X169202689Y-117171287D01*
X169274508Y-117149501D01*
X169340696Y-117114122D01*
X169348823Y-117107452D01*
X173793200Y-117107452D01*
X173793200Y-117231748D01*
X173817449Y-117353656D01*
X173865015Y-117468491D01*
X173865756Y-117469600D01*
X173865015Y-117470709D01*
X173817449Y-117585544D01*
X173793200Y-117707452D01*
X173793200Y-117831748D01*
X173817449Y-117953656D01*
X173865015Y-118068491D01*
X173865756Y-118069600D01*
X173865015Y-118070709D01*
X173817449Y-118185544D01*
X173793200Y-118307452D01*
X173793200Y-118431748D01*
X173817449Y-118553656D01*
X173865015Y-118668491D01*
X173934070Y-118771839D01*
X174021961Y-118859730D01*
X174125309Y-118928785D01*
X174240144Y-118976351D01*
X174362052Y-119000600D01*
X174486348Y-119000600D01*
X174608256Y-118976351D01*
X174723091Y-118928785D01*
X174724200Y-118928044D01*
X174725309Y-118928785D01*
X174840144Y-118976351D01*
X174962052Y-119000600D01*
X175086348Y-119000600D01*
X175208256Y-118976351D01*
X175323091Y-118928785D01*
X175426439Y-118859730D01*
X175514330Y-118771839D01*
X175583385Y-118668491D01*
X175630951Y-118553656D01*
X175655200Y-118431748D01*
X175655200Y-118307452D01*
X175630951Y-118185544D01*
X175583385Y-118070709D01*
X175582644Y-118069600D01*
X175583385Y-118068491D01*
X175630951Y-117953656D01*
X175655200Y-117831748D01*
X175655200Y-117707452D01*
X175630951Y-117585544D01*
X175583385Y-117470709D01*
X175582644Y-117469600D01*
X175583385Y-117468491D01*
X175630951Y-117353656D01*
X175655200Y-117231748D01*
X175655200Y-117107452D01*
X175630951Y-116985544D01*
X175583385Y-116870709D01*
X175514330Y-116767361D01*
X175426439Y-116679470D01*
X175323091Y-116610415D01*
X175208256Y-116562849D01*
X175086348Y-116538600D01*
X174962052Y-116538600D01*
X174840144Y-116562849D01*
X174725309Y-116610415D01*
X174724200Y-116611156D01*
X174723091Y-116610415D01*
X174608256Y-116562849D01*
X174486348Y-116538600D01*
X174362052Y-116538600D01*
X174240144Y-116562849D01*
X174125309Y-116610415D01*
X174021961Y-116679470D01*
X173934070Y-116767361D01*
X173865015Y-116870709D01*
X173817449Y-116985544D01*
X173793200Y-117107452D01*
X169348823Y-117107452D01*
X169398711Y-117066511D01*
X169446322Y-117008496D01*
X169481701Y-116942308D01*
X169503487Y-116870489D01*
X169510843Y-116795800D01*
X169510843Y-115107452D01*
X190093200Y-115107452D01*
X190093200Y-115231748D01*
X190117449Y-115353656D01*
X190165015Y-115468491D01*
X190234070Y-115571839D01*
X190321961Y-115659730D01*
X190425309Y-115728785D01*
X190540144Y-115776351D01*
X190662052Y-115800600D01*
X190786348Y-115800600D01*
X190908256Y-115776351D01*
X191023091Y-115728785D01*
X191124200Y-115661226D01*
X191225309Y-115728785D01*
X191340144Y-115776351D01*
X191462052Y-115800600D01*
X191586348Y-115800600D01*
X191708256Y-115776351D01*
X191823091Y-115728785D01*
X191924200Y-115661226D01*
X192025309Y-115728785D01*
X192140144Y-115776351D01*
X192262052Y-115800600D01*
X192386348Y-115800600D01*
X192508256Y-115776351D01*
X192623091Y-115728785D01*
X192724200Y-115661226D01*
X192825309Y-115728785D01*
X192940144Y-115776351D01*
X193062052Y-115800600D01*
X193186348Y-115800600D01*
X193308256Y-115776351D01*
X193423091Y-115728785D01*
X193526439Y-115659730D01*
X193614330Y-115571839D01*
X193683385Y-115468491D01*
X193730951Y-115353656D01*
X193755200Y-115231748D01*
X193755200Y-115107452D01*
X193730951Y-114985544D01*
X193683385Y-114870709D01*
X193614330Y-114767361D01*
X193526439Y-114679470D01*
X193423091Y-114610415D01*
X193308256Y-114562849D01*
X193186348Y-114538600D01*
X193062052Y-114538600D01*
X192940144Y-114562849D01*
X192825309Y-114610415D01*
X192724200Y-114677974D01*
X192623091Y-114610415D01*
X192508256Y-114562849D01*
X192386348Y-114538600D01*
X192262052Y-114538600D01*
X192140144Y-114562849D01*
X192025309Y-114610415D01*
X191924200Y-114677974D01*
X191823091Y-114610415D01*
X191708256Y-114562849D01*
X191586348Y-114538600D01*
X191462052Y-114538600D01*
X191340144Y-114562849D01*
X191225309Y-114610415D01*
X191124200Y-114677974D01*
X191023091Y-114610415D01*
X190908256Y-114562849D01*
X190786348Y-114538600D01*
X190662052Y-114538600D01*
X190540144Y-114562849D01*
X190425309Y-114610415D01*
X190321961Y-114679470D01*
X190234070Y-114767361D01*
X190165015Y-114870709D01*
X190117449Y-114985544D01*
X190093200Y-115107452D01*
X169510843Y-115107452D01*
X169510843Y-114795800D01*
X169503487Y-114721111D01*
X169481701Y-114649292D01*
X169446322Y-114583104D01*
X169398711Y-114525089D01*
X169340696Y-114477478D01*
X169274508Y-114442099D01*
X169202689Y-114420313D01*
X169128000Y-114412957D01*
X164628000Y-114412957D01*
X164553311Y-114420313D01*
X164481492Y-114442099D01*
X164415304Y-114477478D01*
X164357289Y-114525089D01*
X164309678Y-114583104D01*
X164274299Y-114649292D01*
X164252513Y-114721111D01*
X164245157Y-114795800D01*
X157455200Y-114795800D01*
X157455200Y-113832452D01*
X179343200Y-113832452D01*
X179343200Y-113956748D01*
X179367449Y-114078656D01*
X179415015Y-114193491D01*
X179484070Y-114296839D01*
X179571961Y-114384730D01*
X179675309Y-114453785D01*
X179790144Y-114501351D01*
X179912052Y-114525600D01*
X180036348Y-114525600D01*
X180158256Y-114501351D01*
X180273091Y-114453785D01*
X180376439Y-114384730D01*
X180464330Y-114296839D01*
X180533385Y-114193491D01*
X180580951Y-114078656D01*
X180605200Y-113956748D01*
X180605200Y-113832452D01*
X180580951Y-113710544D01*
X180533385Y-113595709D01*
X180464330Y-113492361D01*
X180376439Y-113404470D01*
X180273091Y-113335415D01*
X180158256Y-113287849D01*
X180036348Y-113263600D01*
X179912052Y-113263600D01*
X179790144Y-113287849D01*
X179675309Y-113335415D01*
X179571961Y-113404470D01*
X179484070Y-113492361D01*
X179415015Y-113595709D01*
X179367449Y-113710544D01*
X179343200Y-113832452D01*
X157455200Y-113832452D01*
X157455200Y-111940452D01*
X185444800Y-111940452D01*
X185444800Y-112064748D01*
X185469049Y-112186656D01*
X185516615Y-112301491D01*
X185585670Y-112404839D01*
X185673561Y-112492730D01*
X185776909Y-112561785D01*
X185891744Y-112609351D01*
X186013652Y-112633600D01*
X186137948Y-112633600D01*
X186259856Y-112609351D01*
X186374691Y-112561785D01*
X186478039Y-112492730D01*
X186513170Y-112457599D01*
X189008200Y-112457599D01*
X189008200Y-112731601D01*
X189061656Y-113000340D01*
X189166512Y-113253485D01*
X189318740Y-113481311D01*
X189512489Y-113675060D01*
X189740315Y-113827288D01*
X189993460Y-113932144D01*
X190262199Y-113985600D01*
X190536201Y-113985600D01*
X190804940Y-113932144D01*
X191058085Y-113827288D01*
X191285911Y-113675060D01*
X191479660Y-113481311D01*
X191631888Y-113253485D01*
X191736744Y-113000340D01*
X191790200Y-112731601D01*
X191790200Y-112457599D01*
X191736744Y-112188860D01*
X191631888Y-111935715D01*
X191479660Y-111707889D01*
X191285911Y-111514140D01*
X191058085Y-111361912D01*
X190804940Y-111257056D01*
X190536201Y-111203600D01*
X190262199Y-111203600D01*
X189993460Y-111257056D01*
X189740315Y-111361912D01*
X189512489Y-111514140D01*
X189318740Y-111707889D01*
X189166512Y-111935715D01*
X189061656Y-112188860D01*
X189008200Y-112457599D01*
X186513170Y-112457599D01*
X186565930Y-112404839D01*
X186634985Y-112301491D01*
X186682551Y-112186656D01*
X186706800Y-112064748D01*
X186706800Y-111940452D01*
X186682551Y-111818544D01*
X186634985Y-111703709D01*
X186565930Y-111600361D01*
X186478039Y-111512470D01*
X186374691Y-111443415D01*
X186259856Y-111395849D01*
X186137948Y-111371600D01*
X186013652Y-111371600D01*
X185891744Y-111395849D01*
X185776909Y-111443415D01*
X185673561Y-111512470D01*
X185585670Y-111600361D01*
X185516615Y-111703709D01*
X185469049Y-111818544D01*
X185444800Y-111940452D01*
X157455200Y-111940452D01*
X157455200Y-110437852D01*
X177619000Y-110437852D01*
X177619000Y-110562148D01*
X177643249Y-110684056D01*
X177690815Y-110798891D01*
X177759870Y-110902239D01*
X177847761Y-110990130D01*
X177951109Y-111059185D01*
X178065944Y-111106751D01*
X178187852Y-111131000D01*
X178312148Y-111131000D01*
X178434056Y-111106751D01*
X178548891Y-111059185D01*
X178652239Y-110990130D01*
X178740130Y-110902239D01*
X178809185Y-110798891D01*
X178856751Y-110684056D01*
X178881000Y-110562148D01*
X178881000Y-110437852D01*
X178856751Y-110315944D01*
X178809185Y-110201109D01*
X178740130Y-110097761D01*
X178652239Y-110009870D01*
X178548891Y-109940815D01*
X178434056Y-109893249D01*
X178312148Y-109869000D01*
X178187852Y-109869000D01*
X178065944Y-109893249D01*
X177951109Y-109940815D01*
X177847761Y-110009870D01*
X177759870Y-110097761D01*
X177690815Y-110201109D01*
X177643249Y-110315944D01*
X177619000Y-110437852D01*
X157455200Y-110437852D01*
X157455200Y-108752852D01*
X174958600Y-108752852D01*
X174958600Y-108877148D01*
X174982849Y-108999056D01*
X175030415Y-109113891D01*
X175099470Y-109217239D01*
X175187361Y-109305130D01*
X175290709Y-109374185D01*
X175405544Y-109421751D01*
X175527452Y-109446000D01*
X175651748Y-109446000D01*
X175773656Y-109421751D01*
X175888491Y-109374185D01*
X175991839Y-109305130D01*
X176079730Y-109217239D01*
X176148785Y-109113891D01*
X176196351Y-108999056D01*
X176220600Y-108877148D01*
X176220600Y-108752852D01*
X176196351Y-108630944D01*
X176148785Y-108516109D01*
X176079730Y-108412761D01*
X175991839Y-108324870D01*
X175888491Y-108255815D01*
X175773656Y-108208249D01*
X175651748Y-108184000D01*
X175527452Y-108184000D01*
X175405544Y-108208249D01*
X175290709Y-108255815D01*
X175187361Y-108324870D01*
X175099470Y-108412761D01*
X175030415Y-108516109D01*
X174982849Y-108630944D01*
X174958600Y-108752852D01*
X157455200Y-108752852D01*
X157455200Y-105983960D01*
X158393200Y-105983960D01*
X158393200Y-106305240D01*
X158455878Y-106620345D01*
X158578826Y-106917168D01*
X158757319Y-107184302D01*
X158984498Y-107411481D01*
X159251632Y-107589974D01*
X159548455Y-107712922D01*
X159863560Y-107775600D01*
X160184840Y-107775600D01*
X160499945Y-107712922D01*
X160796768Y-107589974D01*
X161063902Y-107411481D01*
X161291081Y-107184302D01*
X161469574Y-106917168D01*
X161592522Y-106620345D01*
X161655200Y-106305240D01*
X161655200Y-105983960D01*
X161592522Y-105668855D01*
X161469574Y-105372032D01*
X161291081Y-105104898D01*
X161063902Y-104877719D01*
X160796768Y-104699226D01*
X160499945Y-104576278D01*
X160184840Y-104513600D01*
X159863560Y-104513600D01*
X159548455Y-104576278D01*
X159251632Y-104699226D01*
X158984498Y-104877719D01*
X158757319Y-105104898D01*
X158578826Y-105372032D01*
X158455878Y-105668855D01*
X158393200Y-105983960D01*
X157455200Y-105983960D01*
X157455200Y-103580466D01*
X197397200Y-103568132D01*
X197397200Y-161538600D01*
G37*
X197397200Y-161538600D02*
X157455200Y-161538600D01*
X157455200Y-158508960D01*
X158368200Y-158508960D01*
X158368200Y-158830240D01*
X158430878Y-159145345D01*
X158553826Y-159442168D01*
X158732319Y-159709302D01*
X158959498Y-159936481D01*
X159226632Y-160114974D01*
X159523455Y-160237922D01*
X159838560Y-160300600D01*
X160159840Y-160300600D01*
X160474945Y-160237922D01*
X160771768Y-160114974D01*
X161038902Y-159936481D01*
X161266081Y-159709302D01*
X161444574Y-159442168D01*
X161567522Y-159145345D01*
X161630200Y-158830240D01*
X161630200Y-158508960D01*
X161567522Y-158193855D01*
X161444574Y-157897032D01*
X161266081Y-157629898D01*
X161038902Y-157402719D01*
X160771768Y-157224226D01*
X160474945Y-157101278D01*
X160159840Y-157038600D01*
X159838560Y-157038600D01*
X159523455Y-157101278D01*
X159226632Y-157224226D01*
X158959498Y-157402719D01*
X158732319Y-157629898D01*
X158553826Y-157897032D01*
X158430878Y-158193855D01*
X158368200Y-158508960D01*
X157455200Y-158508960D01*
X157455200Y-156167452D01*
X168603200Y-156167452D01*
X168603200Y-156291748D01*
X168627449Y-156413656D01*
X168675015Y-156528491D01*
X168744070Y-156631839D01*
X168831961Y-156719730D01*
X168935309Y-156788785D01*
X169050144Y-156836351D01*
X169172052Y-156860600D01*
X169296348Y-156860600D01*
X169418256Y-156836351D01*
X169533091Y-156788785D01*
X169636439Y-156719730D01*
X169724330Y-156631839D01*
X169793385Y-156528491D01*
X169840951Y-156413656D01*
X169865200Y-156291748D01*
X169865200Y-156167452D01*
X169840951Y-156045544D01*
X169793385Y-155930709D01*
X169724330Y-155827361D01*
X169636439Y-155739470D01*
X169533091Y-155670415D01*
X169418256Y-155622849D01*
X169296348Y-155598600D01*
X169172052Y-155598600D01*
X169050144Y-155622849D01*
X168935309Y-155670415D01*
X168831961Y-155739470D01*
X168744070Y-155827361D01*
X168675015Y-155930709D01*
X168627449Y-156045544D01*
X168603200Y-156167452D01*
X157455200Y-156167452D01*
X157455200Y-155397452D01*
X163003200Y-155397452D01*
X163003200Y-155521748D01*
X163027449Y-155643656D01*
X163075015Y-155758491D01*
X163144070Y-155861839D01*
X163231961Y-155949730D01*
X163335309Y-156018785D01*
X163450144Y-156066351D01*
X163572052Y-156090600D01*
X163696348Y-156090600D01*
X163818256Y-156066351D01*
X163933091Y-156018785D01*
X164036439Y-155949730D01*
X164124330Y-155861839D01*
X164193385Y-155758491D01*
X164240951Y-155643656D01*
X164265200Y-155521748D01*
X164265200Y-155397452D01*
X164240951Y-155275544D01*
X164193385Y-155160709D01*
X164124330Y-155057361D01*
X164036439Y-154969470D01*
X163933091Y-154900415D01*
X163818256Y-154852849D01*
X163696348Y-154828600D01*
X163572052Y-154828600D01*
X163450144Y-154852849D01*
X163335309Y-154900415D01*
X163231961Y-154969470D01*
X163144070Y-155057361D01*
X163075015Y-155160709D01*
X163027449Y-155275544D01*
X163003200Y-155397452D01*
X157455200Y-155397452D01*
X157455200Y-153877452D01*
X172893200Y-153877452D01*
X172893200Y-154001748D01*
X172917449Y-154123656D01*
X172965015Y-154238491D01*
X173009188Y-154304600D01*
X172965015Y-154370709D01*
X172917449Y-154485544D01*
X172893200Y-154607452D01*
X172893200Y-154731748D01*
X172917449Y-154853656D01*
X172965015Y-154968491D01*
X173015869Y-155044600D01*
X172965015Y-155120709D01*
X172917449Y-155235544D01*
X172893200Y-155357452D01*
X172893200Y-155481748D01*
X172917449Y-155603656D01*
X172965015Y-155718491D01*
X173034070Y-155821839D01*
X173121961Y-155909730D01*
X173225309Y-155978785D01*
X173340144Y-156026351D01*
X173462052Y-156050600D01*
X173586348Y-156050600D01*
X173708256Y-156026351D01*
X173823091Y-155978785D01*
X173926439Y-155909730D01*
X174014330Y-155821839D01*
X174024200Y-155807068D01*
X174034070Y-155821839D01*
X174121961Y-155909730D01*
X174225309Y-155978785D01*
X174340144Y-156026351D01*
X174462052Y-156050600D01*
X174586348Y-156050600D01*
X174708256Y-156026351D01*
X174823091Y-155978785D01*
X174926439Y-155909730D01*
X175014330Y-155821839D01*
X175083385Y-155718491D01*
X175130951Y-155603656D01*
X175155200Y-155481748D01*
X175155200Y-155357452D01*
X175130951Y-155235544D01*
X175083385Y-155120709D01*
X175032531Y-155044600D01*
X175083385Y-154968491D01*
X175130951Y-154853656D01*
X175155200Y-154731748D01*
X175155200Y-154607452D01*
X175130951Y-154485544D01*
X175097842Y-154405611D01*
X175121961Y-154429730D01*
X175225309Y-154498785D01*
X175340144Y-154546351D01*
X175462052Y-154570600D01*
X175586348Y-154570600D01*
X175708256Y-154546351D01*
X175823091Y-154498785D01*
X175926439Y-154429730D01*
X176014330Y-154341839D01*
X176083385Y-154238491D01*
X176130951Y-154123656D01*
X176155200Y-154001748D01*
X176155200Y-153877452D01*
X176130951Y-153755544D01*
X176083385Y-153640709D01*
X176014330Y-153537361D01*
X175926439Y-153449470D01*
X175823091Y-153380415D01*
X175708256Y-153332849D01*
X175586348Y-153308600D01*
X175462052Y-153308600D01*
X175340144Y-153332849D01*
X175225309Y-153380415D01*
X175121961Y-153449470D01*
X175034070Y-153537361D01*
X175024200Y-153552132D01*
X175014330Y-153537361D01*
X174926439Y-153449470D01*
X174823091Y-153380415D01*
X174708256Y-153332849D01*
X174586348Y-153308600D01*
X174462052Y-153308600D01*
X174340144Y-153332849D01*
X174225309Y-153380415D01*
X174121961Y-153449470D01*
X174034070Y-153537361D01*
X174024200Y-153552132D01*
X174014330Y-153537361D01*
X173926439Y-153449470D01*
X173823091Y-153380415D01*
X173708256Y-153332849D01*
X173586348Y-153308600D01*
X173462052Y-153308600D01*
X173340144Y-153332849D01*
X173225309Y-153380415D01*
X173121961Y-153449470D01*
X173034070Y-153537361D01*
X172965015Y-153640709D01*
X172917449Y-153755544D01*
X172893200Y-153877452D01*
X157455200Y-153877452D01*
X157455200Y-152577452D01*
X163253200Y-152577452D01*
X163253200Y-152701748D01*
X163277449Y-152823656D01*
X163325015Y-152938491D01*
X163394070Y-153041839D01*
X163481961Y-153129730D01*
X163585309Y-153198785D01*
X163700144Y-153246351D01*
X163822052Y-153270600D01*
X163946348Y-153270600D01*
X164068256Y-153246351D01*
X164183091Y-153198785D01*
X164286439Y-153129730D01*
X164374330Y-153041839D01*
X164443385Y-152938491D01*
X164490951Y-152823656D01*
X164515200Y-152701748D01*
X164515200Y-152587452D01*
X167393200Y-152587452D01*
X167393200Y-152711748D01*
X167417449Y-152833656D01*
X167465015Y-152948491D01*
X167534070Y-153051839D01*
X167621961Y-153139730D01*
X167725309Y-153208785D01*
X167840144Y-153256351D01*
X167962052Y-153280600D01*
X168086348Y-153280600D01*
X168208256Y-153256351D01*
X168323091Y-153208785D01*
X168426439Y-153139730D01*
X168514330Y-153051839D01*
X168583385Y-152948491D01*
X168630951Y-152833656D01*
X168655200Y-152711748D01*
X168655200Y-152587452D01*
X168630951Y-152465544D01*
X168606889Y-152407452D01*
X189593200Y-152407452D01*
X189593200Y-152531748D01*
X189617449Y-152653656D01*
X189665015Y-152768491D01*
X189734070Y-152871839D01*
X189821961Y-152959730D01*
X189925309Y-153028785D01*
X190040144Y-153076351D01*
X190162052Y-153100600D01*
X190286348Y-153100600D01*
X190408256Y-153076351D01*
X190523091Y-153028785D01*
X190599200Y-152977931D01*
X190675309Y-153028785D01*
X190790144Y-153076351D01*
X190912052Y-153100600D01*
X191036348Y-153100600D01*
X191158256Y-153076351D01*
X191273091Y-153028785D01*
X191374200Y-152961226D01*
X191475309Y-153028785D01*
X191590144Y-153076351D01*
X191712052Y-153100600D01*
X191836348Y-153100600D01*
X191958256Y-153076351D01*
X192073091Y-153028785D01*
X192174200Y-152961226D01*
X192275309Y-153028785D01*
X192390144Y-153076351D01*
X192512052Y-153100600D01*
X192636348Y-153100600D01*
X192758256Y-153076351D01*
X192873091Y-153028785D01*
X192949200Y-152977931D01*
X193025309Y-153028785D01*
X193140144Y-153076351D01*
X193262052Y-153100600D01*
X193386348Y-153100600D01*
X193508256Y-153076351D01*
X193623091Y-153028785D01*
X193726439Y-152959730D01*
X193814330Y-152871839D01*
X193883385Y-152768491D01*
X193930951Y-152653656D01*
X193955200Y-152531748D01*
X193955200Y-152407452D01*
X193930951Y-152285544D01*
X193883385Y-152170709D01*
X193814330Y-152067361D01*
X193726439Y-151979470D01*
X193623091Y-151910415D01*
X193508256Y-151862849D01*
X193386348Y-151838600D01*
X193262052Y-151838600D01*
X193140144Y-151862849D01*
X193025309Y-151910415D01*
X192949200Y-151961269D01*
X192873091Y-151910415D01*
X192758256Y-151862849D01*
X192636348Y-151838600D01*
X192512052Y-151838600D01*
X192390144Y-151862849D01*
X192275309Y-151910415D01*
X192174200Y-151977974D01*
X192073091Y-151910415D01*
X191958256Y-151862849D01*
X191836348Y-151838600D01*
X191712052Y-151838600D01*
X191590144Y-151862849D01*
X191475309Y-151910415D01*
X191374200Y-151977974D01*
X191273091Y-151910415D01*
X191158256Y-151862849D01*
X191036348Y-151838600D01*
X190912052Y-151838600D01*
X190790144Y-151862849D01*
X190675309Y-151910415D01*
X190599200Y-151961269D01*
X190523091Y-151910415D01*
X190408256Y-151862849D01*
X190286348Y-151838600D01*
X190162052Y-151838600D01*
X190040144Y-151862849D01*
X189925309Y-151910415D01*
X189821961Y-151979470D01*
X189734070Y-152067361D01*
X189665015Y-152170709D01*
X189617449Y-152285544D01*
X189593200Y-152407452D01*
X168606889Y-152407452D01*
X168583385Y-152350709D01*
X168514330Y-152247361D01*
X168426439Y-152159470D01*
X168323091Y-152090415D01*
X168208256Y-152042849D01*
X168086348Y-152018600D01*
X167962052Y-152018600D01*
X167840144Y-152042849D01*
X167725309Y-152090415D01*
X167621961Y-152159470D01*
X167534070Y-152247361D01*
X167465015Y-152350709D01*
X167417449Y-152465544D01*
X167393200Y-152587452D01*
X164515200Y-152587452D01*
X164515200Y-152577452D01*
X164490951Y-152455544D01*
X164443385Y-152340709D01*
X164374330Y-152237361D01*
X164286439Y-152149470D01*
X164183091Y-152080415D01*
X164068256Y-152032849D01*
X163946348Y-152008600D01*
X163822052Y-152008600D01*
X163700144Y-152032849D01*
X163585309Y-152080415D01*
X163481961Y-152149470D01*
X163394070Y-152237361D01*
X163325015Y-152340709D01*
X163277449Y-152455544D01*
X163253200Y-152577452D01*
X157455200Y-152577452D01*
X157455200Y-150882452D01*
X179343200Y-150882452D01*
X179343200Y-151006748D01*
X179367449Y-151128656D01*
X179415015Y-151243491D01*
X179484070Y-151346839D01*
X179571961Y-151434730D01*
X179675309Y-151503785D01*
X179790144Y-151551351D01*
X179912052Y-151575600D01*
X180036348Y-151575600D01*
X180158256Y-151551351D01*
X180273091Y-151503785D01*
X180376439Y-151434730D01*
X180464330Y-151346839D01*
X180533385Y-151243491D01*
X180580951Y-151128656D01*
X180605200Y-151006748D01*
X180605200Y-150882452D01*
X180580951Y-150760544D01*
X180533385Y-150645709D01*
X180464330Y-150542361D01*
X180376439Y-150454470D01*
X180273091Y-150385415D01*
X180158256Y-150337849D01*
X180036348Y-150313600D01*
X179912052Y-150313600D01*
X179790144Y-150337849D01*
X179675309Y-150385415D01*
X179571961Y-150454470D01*
X179484070Y-150542361D01*
X179415015Y-150645709D01*
X179367449Y-150760544D01*
X179343200Y-150882452D01*
X157455200Y-150882452D01*
X157455200Y-149295852D01*
X185444800Y-149295852D01*
X185444800Y-149420148D01*
X185469049Y-149542056D01*
X185516615Y-149656891D01*
X185585670Y-149760239D01*
X185673561Y-149848130D01*
X185776909Y-149917185D01*
X185891744Y-149964751D01*
X186013652Y-149989000D01*
X186137948Y-149989000D01*
X186259856Y-149964751D01*
X186374691Y-149917185D01*
X186478039Y-149848130D01*
X186565930Y-149760239D01*
X186634985Y-149656891D01*
X186645047Y-149632599D01*
X189133200Y-149632599D01*
X189133200Y-149906601D01*
X189186656Y-150175340D01*
X189291512Y-150428485D01*
X189443740Y-150656311D01*
X189637489Y-150850060D01*
X189865315Y-151002288D01*
X190118460Y-151107144D01*
X190387199Y-151160600D01*
X190661201Y-151160600D01*
X190929940Y-151107144D01*
X191183085Y-151002288D01*
X191410911Y-150850060D01*
X191604660Y-150656311D01*
X191756888Y-150428485D01*
X191861744Y-150175340D01*
X191915200Y-149906601D01*
X191915200Y-149632599D01*
X191861744Y-149363860D01*
X191756888Y-149110715D01*
X191604660Y-148882889D01*
X191410911Y-148689140D01*
X191183085Y-148536912D01*
X190929940Y-148432056D01*
X190661201Y-148378600D01*
X190387199Y-148378600D01*
X190118460Y-148432056D01*
X189865315Y-148536912D01*
X189637489Y-148689140D01*
X189443740Y-148882889D01*
X189291512Y-149110715D01*
X189186656Y-149363860D01*
X189133200Y-149632599D01*
X186645047Y-149632599D01*
X186682551Y-149542056D01*
X186706800Y-149420148D01*
X186706800Y-149295852D01*
X186682551Y-149173944D01*
X186634985Y-149059109D01*
X186565930Y-148955761D01*
X186478039Y-148867870D01*
X186374691Y-148798815D01*
X186259856Y-148751249D01*
X186137948Y-148727000D01*
X186013652Y-148727000D01*
X185891744Y-148751249D01*
X185776909Y-148798815D01*
X185673561Y-148867870D01*
X185585670Y-148955761D01*
X185516615Y-149059109D01*
X185469049Y-149173944D01*
X185444800Y-149295852D01*
X157455200Y-149295852D01*
X157455200Y-147847852D01*
X177702200Y-147847852D01*
X177702200Y-147972148D01*
X177726449Y-148094056D01*
X177774015Y-148208891D01*
X177843070Y-148312239D01*
X177930961Y-148400130D01*
X178034309Y-148469185D01*
X178149144Y-148516751D01*
X178271052Y-148541000D01*
X178395348Y-148541000D01*
X178517256Y-148516751D01*
X178632091Y-148469185D01*
X178735439Y-148400130D01*
X178823330Y-148312239D01*
X178892385Y-148208891D01*
X178939951Y-148094056D01*
X178964200Y-147972148D01*
X178964200Y-147847852D01*
X178939951Y-147725944D01*
X178892385Y-147611109D01*
X178823330Y-147507761D01*
X178735439Y-147419870D01*
X178632091Y-147350815D01*
X178517256Y-147303249D01*
X178395348Y-147279000D01*
X178271052Y-147279000D01*
X178149144Y-147303249D01*
X178034309Y-147350815D01*
X177930961Y-147419870D01*
X177843070Y-147507761D01*
X177774015Y-147611109D01*
X177726449Y-147725944D01*
X177702200Y-147847852D01*
X157455200Y-147847852D01*
X157455200Y-146092852D01*
X175037800Y-146092852D01*
X175037800Y-146217148D01*
X175062049Y-146339056D01*
X175109615Y-146453891D01*
X175178670Y-146557239D01*
X175266561Y-146645130D01*
X175369909Y-146714185D01*
X175484744Y-146761751D01*
X175606652Y-146786000D01*
X175730948Y-146786000D01*
X175852856Y-146761751D01*
X175967691Y-146714185D01*
X176071039Y-146645130D01*
X176158930Y-146557239D01*
X176227985Y-146453891D01*
X176275551Y-146339056D01*
X176299800Y-146217148D01*
X176299800Y-146092852D01*
X176275551Y-145970944D01*
X176227985Y-145856109D01*
X176158930Y-145752761D01*
X176071039Y-145664870D01*
X175967691Y-145595815D01*
X175852856Y-145548249D01*
X175730948Y-145524000D01*
X175606652Y-145524000D01*
X175484744Y-145548249D01*
X175369909Y-145595815D01*
X175266561Y-145664870D01*
X175178670Y-145752761D01*
X175109615Y-145856109D01*
X175062049Y-145970944D01*
X175037800Y-146092852D01*
X157455200Y-146092852D01*
X157455200Y-142327452D01*
X173383200Y-142327452D01*
X173383200Y-142451748D01*
X173407449Y-142573656D01*
X173455015Y-142688491D01*
X173524070Y-142791839D01*
X173611961Y-142879730D01*
X173715309Y-142948785D01*
X173830144Y-142996351D01*
X173952052Y-143020600D01*
X174076348Y-143020600D01*
X174198256Y-142996351D01*
X174313091Y-142948785D01*
X174416439Y-142879730D01*
X174496136Y-142800033D01*
X174524070Y-142841839D01*
X174611961Y-142929730D01*
X174715309Y-142998785D01*
X174830144Y-143046351D01*
X174952052Y-143070600D01*
X175076348Y-143070600D01*
X175198256Y-143046351D01*
X175313091Y-142998785D01*
X175416439Y-142929730D01*
X175504330Y-142841839D01*
X175573385Y-142738491D01*
X175620951Y-142623656D01*
X175645200Y-142501748D01*
X175645200Y-142377452D01*
X175620951Y-142255544D01*
X175573385Y-142140709D01*
X175520849Y-142062083D01*
X175583385Y-141968491D01*
X175630951Y-141853656D01*
X175655200Y-141731748D01*
X175655200Y-141607452D01*
X175630951Y-141485544D01*
X175583700Y-141371469D01*
X175641961Y-141429730D01*
X175745309Y-141498785D01*
X175860144Y-141546351D01*
X175982052Y-141570600D01*
X176106348Y-141570600D01*
X176228256Y-141546351D01*
X176343091Y-141498785D01*
X176446439Y-141429730D01*
X176534330Y-141341839D01*
X176603385Y-141238491D01*
X176650951Y-141123656D01*
X176675200Y-141001748D01*
X176675200Y-140877452D01*
X176650951Y-140755544D01*
X176603385Y-140640709D01*
X176534330Y-140537361D01*
X176446439Y-140449470D01*
X176343091Y-140380415D01*
X176228256Y-140332849D01*
X176106348Y-140308600D01*
X175982052Y-140308600D01*
X175860144Y-140332849D01*
X175745309Y-140380415D01*
X175641961Y-140449470D01*
X175554070Y-140537361D01*
X175537518Y-140562132D01*
X175534330Y-140557361D01*
X175446439Y-140469470D01*
X175343091Y-140400415D01*
X175228256Y-140352849D01*
X175106348Y-140328600D01*
X174982052Y-140328600D01*
X174860144Y-140352849D01*
X174745309Y-140400415D01*
X174641961Y-140469470D01*
X174554070Y-140557361D01*
X174537541Y-140582099D01*
X174514330Y-140547361D01*
X174426439Y-140459470D01*
X174323091Y-140390415D01*
X174208256Y-140342849D01*
X174086348Y-140318600D01*
X173962052Y-140318600D01*
X173840144Y-140342849D01*
X173725309Y-140390415D01*
X173621961Y-140459470D01*
X173534070Y-140547361D01*
X173465015Y-140650709D01*
X173417449Y-140765544D01*
X173393200Y-140887452D01*
X173393200Y-141011748D01*
X173417449Y-141133656D01*
X173465015Y-141248491D01*
X173505847Y-141309600D01*
X173465015Y-141370709D01*
X173417449Y-141485544D01*
X173393200Y-141607452D01*
X173393200Y-141731748D01*
X173417449Y-141853656D01*
X173465015Y-141968491D01*
X173500847Y-142022117D01*
X173455015Y-142090709D01*
X173407449Y-142205544D01*
X173383200Y-142327452D01*
X157455200Y-142327452D01*
X157455200Y-139507452D01*
X189393200Y-139507452D01*
X189393200Y-139631748D01*
X189417449Y-139753656D01*
X189465015Y-139868491D01*
X189534070Y-139971839D01*
X189621961Y-140059730D01*
X189725309Y-140128785D01*
X189840144Y-140176351D01*
X189962052Y-140200600D01*
X190086348Y-140200600D01*
X190208256Y-140176351D01*
X190323091Y-140128785D01*
X190424200Y-140061226D01*
X190525309Y-140128785D01*
X190640144Y-140176351D01*
X190762052Y-140200600D01*
X190886348Y-140200600D01*
X191008256Y-140176351D01*
X191123091Y-140128785D01*
X191224200Y-140061226D01*
X191325309Y-140128785D01*
X191440144Y-140176351D01*
X191562052Y-140200600D01*
X191686348Y-140200600D01*
X191808256Y-140176351D01*
X191923091Y-140128785D01*
X192024200Y-140061226D01*
X192125309Y-140128785D01*
X192240144Y-140176351D01*
X192362052Y-140200600D01*
X192486348Y-140200600D01*
X192608256Y-140176351D01*
X192723091Y-140128785D01*
X192826439Y-140059730D01*
X192914330Y-139971839D01*
X192983385Y-139868491D01*
X193030951Y-139753656D01*
X193055200Y-139631748D01*
X193055200Y-139507452D01*
X193030951Y-139385544D01*
X192983385Y-139270709D01*
X192914330Y-139167361D01*
X192826439Y-139079470D01*
X192723091Y-139010415D01*
X192608256Y-138962849D01*
X192486348Y-138938600D01*
X192362052Y-138938600D01*
X192240144Y-138962849D01*
X192125309Y-139010415D01*
X192024200Y-139077974D01*
X191923091Y-139010415D01*
X191808256Y-138962849D01*
X191686348Y-138938600D01*
X191562052Y-138938600D01*
X191440144Y-138962849D01*
X191325309Y-139010415D01*
X191224200Y-139077974D01*
X191123091Y-139010415D01*
X191008256Y-138962849D01*
X190886348Y-138938600D01*
X190762052Y-138938600D01*
X190640144Y-138962849D01*
X190525309Y-139010415D01*
X190424200Y-139077974D01*
X190323091Y-139010415D01*
X190208256Y-138962849D01*
X190086348Y-138938600D01*
X189962052Y-138938600D01*
X189840144Y-138962849D01*
X189725309Y-139010415D01*
X189621961Y-139079470D01*
X189534070Y-139167361D01*
X189465015Y-139270709D01*
X189417449Y-139385544D01*
X189393200Y-139507452D01*
X157455200Y-139507452D01*
X157455200Y-138082452D01*
X179343200Y-138082452D01*
X179343200Y-138206748D01*
X179367449Y-138328656D01*
X179415015Y-138443491D01*
X179484070Y-138546839D01*
X179571961Y-138634730D01*
X179675309Y-138703785D01*
X179790144Y-138751351D01*
X179912052Y-138775600D01*
X180036348Y-138775600D01*
X180158256Y-138751351D01*
X180273091Y-138703785D01*
X180376439Y-138634730D01*
X180464330Y-138546839D01*
X180533385Y-138443491D01*
X180580951Y-138328656D01*
X180605200Y-138206748D01*
X180605200Y-138082452D01*
X180580951Y-137960544D01*
X180533385Y-137845709D01*
X180464330Y-137742361D01*
X180376439Y-137654470D01*
X180273091Y-137585415D01*
X180158256Y-137537849D01*
X180036348Y-137513600D01*
X179912052Y-137513600D01*
X179790144Y-137537849D01*
X179675309Y-137585415D01*
X179571961Y-137654470D01*
X179484070Y-137742361D01*
X179415015Y-137845709D01*
X179367449Y-137960544D01*
X179343200Y-138082452D01*
X157455200Y-138082452D01*
X157455200Y-135977452D01*
X171893200Y-135977452D01*
X171893200Y-136101748D01*
X171917449Y-136223656D01*
X171965015Y-136338491D01*
X172034070Y-136441839D01*
X172121961Y-136529730D01*
X172225309Y-136598785D01*
X172340144Y-136646351D01*
X172462052Y-136670600D01*
X172586348Y-136670600D01*
X172708256Y-136646351D01*
X172823091Y-136598785D01*
X172926439Y-136529730D01*
X172928517Y-136527652D01*
X185444800Y-136527652D01*
X185444800Y-136651948D01*
X185469049Y-136773856D01*
X185516615Y-136888691D01*
X185585670Y-136992039D01*
X185673561Y-137079930D01*
X185776909Y-137148985D01*
X185891744Y-137196551D01*
X186013652Y-137220800D01*
X186137948Y-137220800D01*
X186259856Y-137196551D01*
X186374691Y-137148985D01*
X186478039Y-137079930D01*
X186565930Y-136992039D01*
X186634985Y-136888691D01*
X186647863Y-136857599D01*
X189083200Y-136857599D01*
X189083200Y-137131601D01*
X189136656Y-137400340D01*
X189241512Y-137653485D01*
X189393740Y-137881311D01*
X189587489Y-138075060D01*
X189815315Y-138227288D01*
X190068460Y-138332144D01*
X190337199Y-138385600D01*
X190611201Y-138385600D01*
X190879940Y-138332144D01*
X191133085Y-138227288D01*
X191360911Y-138075060D01*
X191554660Y-137881311D01*
X191706888Y-137653485D01*
X191811744Y-137400340D01*
X191865200Y-137131601D01*
X191865200Y-136857599D01*
X191811744Y-136588860D01*
X191706888Y-136335715D01*
X191554660Y-136107889D01*
X191360911Y-135914140D01*
X191133085Y-135761912D01*
X190879940Y-135657056D01*
X190611201Y-135603600D01*
X190337199Y-135603600D01*
X190068460Y-135657056D01*
X189815315Y-135761912D01*
X189587489Y-135914140D01*
X189393740Y-136107889D01*
X189241512Y-136335715D01*
X189136656Y-136588860D01*
X189083200Y-136857599D01*
X186647863Y-136857599D01*
X186682551Y-136773856D01*
X186706800Y-136651948D01*
X186706800Y-136527652D01*
X186682551Y-136405744D01*
X186634985Y-136290909D01*
X186565930Y-136187561D01*
X186478039Y-136099670D01*
X186374691Y-136030615D01*
X186259856Y-135983049D01*
X186137948Y-135958800D01*
X186013652Y-135958800D01*
X185891744Y-135983049D01*
X185776909Y-136030615D01*
X185673561Y-136099670D01*
X185585670Y-136187561D01*
X185516615Y-136290909D01*
X185469049Y-136405744D01*
X185444800Y-136527652D01*
X172928517Y-136527652D01*
X173014330Y-136441839D01*
X173083385Y-136338491D01*
X173130951Y-136223656D01*
X173155200Y-136101748D01*
X173155200Y-135977452D01*
X173130951Y-135855544D01*
X173083385Y-135740709D01*
X173014330Y-135637361D01*
X172926439Y-135549470D01*
X172823091Y-135480415D01*
X172708256Y-135432849D01*
X172586348Y-135408600D01*
X172462052Y-135408600D01*
X172340144Y-135432849D01*
X172225309Y-135480415D01*
X172121961Y-135549470D01*
X172034070Y-135637361D01*
X171965015Y-135740709D01*
X171917449Y-135855544D01*
X171893200Y-135977452D01*
X157455200Y-135977452D01*
X157455200Y-134462852D01*
X169968200Y-134462852D01*
X169968200Y-134587148D01*
X169992449Y-134709056D01*
X170040015Y-134823891D01*
X170109070Y-134927239D01*
X170196961Y-135015130D01*
X170300309Y-135084185D01*
X170415144Y-135131751D01*
X170537052Y-135156000D01*
X170661348Y-135156000D01*
X170702310Y-135147852D01*
X177609000Y-135147852D01*
X177609000Y-135272148D01*
X177633249Y-135394056D01*
X177680815Y-135508891D01*
X177749870Y-135612239D01*
X177837761Y-135700130D01*
X177941109Y-135769185D01*
X178055944Y-135816751D01*
X178177852Y-135841000D01*
X178302148Y-135841000D01*
X178424056Y-135816751D01*
X178538891Y-135769185D01*
X178642239Y-135700130D01*
X178730130Y-135612239D01*
X178799185Y-135508891D01*
X178846751Y-135394056D01*
X178871000Y-135272148D01*
X178871000Y-135147852D01*
X178846751Y-135025944D01*
X178799185Y-134911109D01*
X178730130Y-134807761D01*
X178642239Y-134719870D01*
X178538891Y-134650815D01*
X178424056Y-134603249D01*
X178302148Y-134579000D01*
X178177852Y-134579000D01*
X178055944Y-134603249D01*
X177941109Y-134650815D01*
X177837761Y-134719870D01*
X177749870Y-134807761D01*
X177680815Y-134911109D01*
X177633249Y-135025944D01*
X177609000Y-135147852D01*
X170702310Y-135147852D01*
X170783256Y-135131751D01*
X170898091Y-135084185D01*
X171001439Y-135015130D01*
X171089330Y-134927239D01*
X171158385Y-134823891D01*
X171205951Y-134709056D01*
X171230200Y-134587148D01*
X171230200Y-134462852D01*
X171205951Y-134340944D01*
X171158385Y-134226109D01*
X171089330Y-134122761D01*
X171001439Y-134034870D01*
X170898091Y-133965815D01*
X170783256Y-133918249D01*
X170661348Y-133894000D01*
X170537052Y-133894000D01*
X170415144Y-133918249D01*
X170300309Y-133965815D01*
X170196961Y-134034870D01*
X170109070Y-134122761D01*
X170040015Y-134226109D01*
X169992449Y-134340944D01*
X169968200Y-134462852D01*
X157455200Y-134462852D01*
X157455200Y-132927452D01*
X175853200Y-132927452D01*
X175853200Y-133051748D01*
X175877449Y-133173656D01*
X175925015Y-133288491D01*
X175994070Y-133391839D01*
X176081961Y-133479730D01*
X176185309Y-133548785D01*
X176300144Y-133596351D01*
X176422052Y-133620600D01*
X176546348Y-133620600D01*
X176668256Y-133596351D01*
X176783091Y-133548785D01*
X176886439Y-133479730D01*
X176974330Y-133391839D01*
X177043385Y-133288491D01*
X177090951Y-133173656D01*
X177115200Y-133051748D01*
X177115200Y-132927452D01*
X177090951Y-132805544D01*
X177043385Y-132690709D01*
X176974330Y-132587361D01*
X176886439Y-132499470D01*
X176783091Y-132430415D01*
X176668256Y-132382849D01*
X176546348Y-132358600D01*
X176422052Y-132358600D01*
X176300144Y-132382849D01*
X176185309Y-132430415D01*
X176081961Y-132499470D01*
X175994070Y-132587361D01*
X175925015Y-132690709D01*
X175877449Y-132805544D01*
X175853200Y-132927452D01*
X157455200Y-132927452D01*
X157455200Y-129137452D01*
X173863200Y-129137452D01*
X173863200Y-129261748D01*
X173887449Y-129383656D01*
X173935015Y-129498491D01*
X173935756Y-129499600D01*
X173935015Y-129500709D01*
X173887449Y-129615544D01*
X173863200Y-129737452D01*
X173863200Y-129861748D01*
X173887449Y-129983656D01*
X173935015Y-130098491D01*
X173935756Y-130099600D01*
X173935015Y-130100709D01*
X173887449Y-130215544D01*
X173863200Y-130337452D01*
X173863200Y-130461748D01*
X173887449Y-130583656D01*
X173935015Y-130698491D01*
X174004070Y-130801839D01*
X174091961Y-130889730D01*
X174195309Y-130958785D01*
X174310144Y-131006351D01*
X174432052Y-131030600D01*
X174556348Y-131030600D01*
X174678256Y-131006351D01*
X174793091Y-130958785D01*
X174844200Y-130924635D01*
X174895309Y-130958785D01*
X175010144Y-131006351D01*
X175132052Y-131030600D01*
X175256348Y-131030600D01*
X175378256Y-131006351D01*
X175493091Y-130958785D01*
X175596439Y-130889730D01*
X175684330Y-130801839D01*
X175753385Y-130698491D01*
X175800951Y-130583656D01*
X175825200Y-130461748D01*
X175825200Y-130337452D01*
X175800951Y-130215544D01*
X175753385Y-130100709D01*
X175752644Y-130099600D01*
X175753385Y-130098491D01*
X175800951Y-129983656D01*
X175825200Y-129861748D01*
X175825200Y-129737452D01*
X175800951Y-129615544D01*
X175753385Y-129500709D01*
X175752644Y-129499600D01*
X175753385Y-129498491D01*
X175800951Y-129383656D01*
X175825200Y-129261748D01*
X175825200Y-129137452D01*
X175800951Y-129015544D01*
X175753385Y-128900709D01*
X175684330Y-128797361D01*
X175596439Y-128709470D01*
X175493091Y-128640415D01*
X175378256Y-128592849D01*
X175256348Y-128568600D01*
X175132052Y-128568600D01*
X175010144Y-128592849D01*
X174895309Y-128640415D01*
X174844200Y-128674565D01*
X174793091Y-128640415D01*
X174678256Y-128592849D01*
X174556348Y-128568600D01*
X174432052Y-128568600D01*
X174310144Y-128592849D01*
X174195309Y-128640415D01*
X174091961Y-128709470D01*
X174004070Y-128797361D01*
X173935015Y-128900709D01*
X173887449Y-129015544D01*
X173863200Y-129137452D01*
X157455200Y-129137452D01*
X157455200Y-128127452D01*
X178213200Y-128127452D01*
X178213200Y-128251748D01*
X178237449Y-128373656D01*
X178285015Y-128488491D01*
X178354070Y-128591839D01*
X178441961Y-128679730D01*
X178545309Y-128748785D01*
X178660144Y-128796351D01*
X178782052Y-128820600D01*
X178906348Y-128820600D01*
X179028256Y-128796351D01*
X179143091Y-128748785D01*
X179246439Y-128679730D01*
X179334330Y-128591839D01*
X179403385Y-128488491D01*
X179450951Y-128373656D01*
X179475200Y-128251748D01*
X179475200Y-128127452D01*
X179450951Y-128005544D01*
X179403385Y-127890709D01*
X179334330Y-127787361D01*
X179246439Y-127699470D01*
X179143091Y-127630415D01*
X179028256Y-127582849D01*
X178906348Y-127558600D01*
X178782052Y-127558600D01*
X178660144Y-127582849D01*
X178545309Y-127630415D01*
X178441961Y-127699470D01*
X178354070Y-127787361D01*
X178285015Y-127890709D01*
X178237449Y-128005544D01*
X178213200Y-128127452D01*
X157455200Y-128127452D01*
X157455200Y-127397452D01*
X189263200Y-127397452D01*
X189263200Y-127521748D01*
X189287449Y-127643656D01*
X189335015Y-127758491D01*
X189404070Y-127861839D01*
X189491961Y-127949730D01*
X189595309Y-128018785D01*
X189710144Y-128066351D01*
X189832052Y-128090600D01*
X189956348Y-128090600D01*
X190078256Y-128066351D01*
X190193091Y-128018785D01*
X190256717Y-127976271D01*
X190335309Y-128028785D01*
X190450144Y-128076351D01*
X190572052Y-128100600D01*
X190696348Y-128100600D01*
X190818256Y-128076351D01*
X190933091Y-128028785D01*
X191016683Y-127972931D01*
X191085309Y-128018785D01*
X191200144Y-128066351D01*
X191322052Y-128090600D01*
X191446348Y-128090600D01*
X191568256Y-128066351D01*
X191683091Y-128018785D01*
X191726717Y-127989635D01*
X191785309Y-128028785D01*
X191900144Y-128076351D01*
X192022052Y-128100600D01*
X192146348Y-128100600D01*
X192268256Y-128076351D01*
X192383091Y-128028785D01*
X192486439Y-127959730D01*
X192574330Y-127871839D01*
X192643385Y-127768491D01*
X192690951Y-127653656D01*
X192715200Y-127531748D01*
X192715200Y-127407452D01*
X192690951Y-127285544D01*
X192643385Y-127170709D01*
X192574330Y-127067361D01*
X192486439Y-126979470D01*
X192383091Y-126910415D01*
X192268256Y-126862849D01*
X192146348Y-126838600D01*
X192022052Y-126838600D01*
X191900144Y-126862849D01*
X191785309Y-126910415D01*
X191741683Y-126939565D01*
X191683091Y-126900415D01*
X191568256Y-126852849D01*
X191446348Y-126828600D01*
X191322052Y-126828600D01*
X191200144Y-126852849D01*
X191085309Y-126900415D01*
X191001717Y-126956269D01*
X190933091Y-126910415D01*
X190818256Y-126862849D01*
X190696348Y-126838600D01*
X190572052Y-126838600D01*
X190450144Y-126862849D01*
X190335309Y-126910415D01*
X190271683Y-126952929D01*
X190193091Y-126900415D01*
X190078256Y-126852849D01*
X189956348Y-126828600D01*
X189832052Y-126828600D01*
X189710144Y-126852849D01*
X189595309Y-126900415D01*
X189491961Y-126969470D01*
X189404070Y-127057361D01*
X189335015Y-127160709D01*
X189287449Y-127275544D01*
X189263200Y-127397452D01*
X157455200Y-127397452D01*
X157455200Y-125907452D01*
X179343200Y-125907452D01*
X179343200Y-126031748D01*
X179367449Y-126153656D01*
X179415015Y-126268491D01*
X179484070Y-126371839D01*
X179571961Y-126459730D01*
X179675309Y-126528785D01*
X179790144Y-126576351D01*
X179912052Y-126600600D01*
X180036348Y-126600600D01*
X180158256Y-126576351D01*
X180273091Y-126528785D01*
X180376439Y-126459730D01*
X180464330Y-126371839D01*
X180533385Y-126268491D01*
X180580951Y-126153656D01*
X180605200Y-126031748D01*
X180605200Y-125907452D01*
X180580951Y-125785544D01*
X180533385Y-125670709D01*
X180464330Y-125567361D01*
X180376439Y-125479470D01*
X180273091Y-125410415D01*
X180158256Y-125362849D01*
X180036348Y-125338600D01*
X179912052Y-125338600D01*
X179790144Y-125362849D01*
X179675309Y-125410415D01*
X179571961Y-125479470D01*
X179484070Y-125567361D01*
X179415015Y-125670709D01*
X179367449Y-125785544D01*
X179343200Y-125907452D01*
X157455200Y-125907452D01*
X157455200Y-124284852D01*
X185394000Y-124284852D01*
X185394000Y-124409148D01*
X185418249Y-124531056D01*
X185465815Y-124645891D01*
X185534870Y-124749239D01*
X185622761Y-124837130D01*
X185726109Y-124906185D01*
X185840944Y-124953751D01*
X185962852Y-124978000D01*
X186087148Y-124978000D01*
X186209056Y-124953751D01*
X186323891Y-124906185D01*
X186427239Y-124837130D01*
X186515130Y-124749239D01*
X186584185Y-124645891D01*
X186600045Y-124607599D01*
X188408200Y-124607599D01*
X188408200Y-124881601D01*
X188461656Y-125150340D01*
X188566512Y-125403485D01*
X188718740Y-125631311D01*
X188912489Y-125825060D01*
X189140315Y-125977288D01*
X189393460Y-126082144D01*
X189662199Y-126135600D01*
X189936201Y-126135600D01*
X190204940Y-126082144D01*
X190458085Y-125977288D01*
X190685911Y-125825060D01*
X190879660Y-125631311D01*
X191031888Y-125403485D01*
X191136744Y-125150340D01*
X191190200Y-124881601D01*
X191190200Y-124607599D01*
X191136744Y-124338860D01*
X191031888Y-124085715D01*
X190879660Y-123857889D01*
X190685911Y-123664140D01*
X190458085Y-123511912D01*
X190204940Y-123407056D01*
X189936201Y-123353600D01*
X189662199Y-123353600D01*
X189393460Y-123407056D01*
X189140315Y-123511912D01*
X188912489Y-123664140D01*
X188718740Y-123857889D01*
X188566512Y-124085715D01*
X188461656Y-124338860D01*
X188408200Y-124607599D01*
X186600045Y-124607599D01*
X186631751Y-124531056D01*
X186656000Y-124409148D01*
X186656000Y-124284852D01*
X186631751Y-124162944D01*
X186584185Y-124048109D01*
X186515130Y-123944761D01*
X186427239Y-123856870D01*
X186323891Y-123787815D01*
X186209056Y-123740249D01*
X186087148Y-123716000D01*
X185962852Y-123716000D01*
X185840944Y-123740249D01*
X185726109Y-123787815D01*
X185622761Y-123856870D01*
X185534870Y-123944761D01*
X185465815Y-124048109D01*
X185418249Y-124162944D01*
X185394000Y-124284852D01*
X157455200Y-124284852D01*
X157455200Y-116545800D01*
X160795157Y-116545800D01*
X160795157Y-121045800D01*
X160802513Y-121120489D01*
X160824299Y-121192308D01*
X160859678Y-121258496D01*
X160907289Y-121316511D01*
X160965304Y-121364122D01*
X161031492Y-121399501D01*
X161103311Y-121421287D01*
X161178000Y-121428643D01*
X163178000Y-121428643D01*
X163252689Y-121421287D01*
X163324508Y-121399501D01*
X163390696Y-121364122D01*
X163448711Y-121316511D01*
X163496322Y-121258496D01*
X163531701Y-121192308D01*
X163553487Y-121120489D01*
X163560843Y-121045800D01*
X163560843Y-120795800D01*
X164245157Y-120795800D01*
X164245157Y-122795800D01*
X164252513Y-122870489D01*
X164274299Y-122942308D01*
X164309678Y-123008496D01*
X164357289Y-123066511D01*
X164415304Y-123114122D01*
X164481492Y-123149501D01*
X164553311Y-123171287D01*
X164628000Y-123178643D01*
X169128000Y-123178643D01*
X169202689Y-123171287D01*
X169274508Y-123149501D01*
X169340696Y-123114122D01*
X169398711Y-123066511D01*
X169446322Y-123008496D01*
X169481701Y-122942308D01*
X169488694Y-122919252D01*
X177569000Y-122919252D01*
X177569000Y-123043548D01*
X177593249Y-123165456D01*
X177640815Y-123280291D01*
X177709870Y-123383639D01*
X177797761Y-123471530D01*
X177901109Y-123540585D01*
X178015944Y-123588151D01*
X178137852Y-123612400D01*
X178262148Y-123612400D01*
X178384056Y-123588151D01*
X178498891Y-123540585D01*
X178602239Y-123471530D01*
X178690130Y-123383639D01*
X178759185Y-123280291D01*
X178806751Y-123165456D01*
X178831000Y-123043548D01*
X178831000Y-122919252D01*
X178806751Y-122797344D01*
X178759185Y-122682509D01*
X178690130Y-122579161D01*
X178602239Y-122491270D01*
X178498891Y-122422215D01*
X178384056Y-122374649D01*
X178262148Y-122350400D01*
X178137852Y-122350400D01*
X178015944Y-122374649D01*
X177901109Y-122422215D01*
X177797761Y-122491270D01*
X177709870Y-122579161D01*
X177640815Y-122682509D01*
X177593249Y-122797344D01*
X177569000Y-122919252D01*
X169488694Y-122919252D01*
X169503487Y-122870489D01*
X169510843Y-122795800D01*
X169510843Y-120807452D01*
X175803200Y-120807452D01*
X175803200Y-120931748D01*
X175827449Y-121053656D01*
X175875015Y-121168491D01*
X175944070Y-121271839D01*
X176031961Y-121359730D01*
X176135309Y-121428785D01*
X176250144Y-121476351D01*
X176372052Y-121500600D01*
X176496348Y-121500600D01*
X176618256Y-121476351D01*
X176733091Y-121428785D01*
X176836439Y-121359730D01*
X176924330Y-121271839D01*
X176993385Y-121168491D01*
X177040951Y-121053656D01*
X177065200Y-120931748D01*
X177065200Y-120807452D01*
X177040951Y-120685544D01*
X176993385Y-120570709D01*
X176924330Y-120467361D01*
X176836439Y-120379470D01*
X176733091Y-120310415D01*
X176618256Y-120262849D01*
X176496348Y-120238600D01*
X176372052Y-120238600D01*
X176250144Y-120262849D01*
X176135309Y-120310415D01*
X176031961Y-120379470D01*
X175944070Y-120467361D01*
X175875015Y-120570709D01*
X175827449Y-120685544D01*
X175803200Y-120807452D01*
X169510843Y-120807452D01*
X169510843Y-120795800D01*
X169503487Y-120721111D01*
X169481701Y-120649292D01*
X169446322Y-120583104D01*
X169398711Y-120525089D01*
X169340696Y-120477478D01*
X169274508Y-120442099D01*
X169202689Y-120420313D01*
X169128000Y-120412957D01*
X164628000Y-120412957D01*
X164553311Y-120420313D01*
X164481492Y-120442099D01*
X164415304Y-120477478D01*
X164357289Y-120525089D01*
X164309678Y-120583104D01*
X164274299Y-120649292D01*
X164252513Y-120721111D01*
X164245157Y-120795800D01*
X163560843Y-120795800D01*
X163560843Y-116545800D01*
X163553487Y-116471111D01*
X163531701Y-116399292D01*
X163496322Y-116333104D01*
X163448711Y-116275089D01*
X163390696Y-116227478D01*
X163324508Y-116192099D01*
X163252689Y-116170313D01*
X163178000Y-116162957D01*
X161178000Y-116162957D01*
X161103311Y-116170313D01*
X161031492Y-116192099D01*
X160965304Y-116227478D01*
X160907289Y-116275089D01*
X160859678Y-116333104D01*
X160824299Y-116399292D01*
X160802513Y-116471111D01*
X160795157Y-116545800D01*
X157455200Y-116545800D01*
X157455200Y-114795800D01*
X164245157Y-114795800D01*
X164245157Y-116795800D01*
X164252513Y-116870489D01*
X164274299Y-116942308D01*
X164309678Y-117008496D01*
X164357289Y-117066511D01*
X164415304Y-117114122D01*
X164481492Y-117149501D01*
X164553311Y-117171287D01*
X164628000Y-117178643D01*
X169128000Y-117178643D01*
X169202689Y-117171287D01*
X169274508Y-117149501D01*
X169340696Y-117114122D01*
X169348823Y-117107452D01*
X173793200Y-117107452D01*
X173793200Y-117231748D01*
X173817449Y-117353656D01*
X173865015Y-117468491D01*
X173865756Y-117469600D01*
X173865015Y-117470709D01*
X173817449Y-117585544D01*
X173793200Y-117707452D01*
X173793200Y-117831748D01*
X173817449Y-117953656D01*
X173865015Y-118068491D01*
X173865756Y-118069600D01*
X173865015Y-118070709D01*
X173817449Y-118185544D01*
X173793200Y-118307452D01*
X173793200Y-118431748D01*
X173817449Y-118553656D01*
X173865015Y-118668491D01*
X173934070Y-118771839D01*
X174021961Y-118859730D01*
X174125309Y-118928785D01*
X174240144Y-118976351D01*
X174362052Y-119000600D01*
X174486348Y-119000600D01*
X174608256Y-118976351D01*
X174723091Y-118928785D01*
X174724200Y-118928044D01*
X174725309Y-118928785D01*
X174840144Y-118976351D01*
X174962052Y-119000600D01*
X175086348Y-119000600D01*
X175208256Y-118976351D01*
X175323091Y-118928785D01*
X175426439Y-118859730D01*
X175514330Y-118771839D01*
X175583385Y-118668491D01*
X175630951Y-118553656D01*
X175655200Y-118431748D01*
X175655200Y-118307452D01*
X175630951Y-118185544D01*
X175583385Y-118070709D01*
X175582644Y-118069600D01*
X175583385Y-118068491D01*
X175630951Y-117953656D01*
X175655200Y-117831748D01*
X175655200Y-117707452D01*
X175630951Y-117585544D01*
X175583385Y-117470709D01*
X175582644Y-117469600D01*
X175583385Y-117468491D01*
X175630951Y-117353656D01*
X175655200Y-117231748D01*
X175655200Y-117107452D01*
X175630951Y-116985544D01*
X175583385Y-116870709D01*
X175514330Y-116767361D01*
X175426439Y-116679470D01*
X175323091Y-116610415D01*
X175208256Y-116562849D01*
X175086348Y-116538600D01*
X174962052Y-116538600D01*
X174840144Y-116562849D01*
X174725309Y-116610415D01*
X174724200Y-116611156D01*
X174723091Y-116610415D01*
X174608256Y-116562849D01*
X174486348Y-116538600D01*
X174362052Y-116538600D01*
X174240144Y-116562849D01*
X174125309Y-116610415D01*
X174021961Y-116679470D01*
X173934070Y-116767361D01*
X173865015Y-116870709D01*
X173817449Y-116985544D01*
X173793200Y-117107452D01*
X169348823Y-117107452D01*
X169398711Y-117066511D01*
X169446322Y-117008496D01*
X169481701Y-116942308D01*
X169503487Y-116870489D01*
X169510843Y-116795800D01*
X169510843Y-115107452D01*
X190093200Y-115107452D01*
X190093200Y-115231748D01*
X190117449Y-115353656D01*
X190165015Y-115468491D01*
X190234070Y-115571839D01*
X190321961Y-115659730D01*
X190425309Y-115728785D01*
X190540144Y-115776351D01*
X190662052Y-115800600D01*
X190786348Y-115800600D01*
X190908256Y-115776351D01*
X191023091Y-115728785D01*
X191124200Y-115661226D01*
X191225309Y-115728785D01*
X191340144Y-115776351D01*
X191462052Y-115800600D01*
X191586348Y-115800600D01*
X191708256Y-115776351D01*
X191823091Y-115728785D01*
X191924200Y-115661226D01*
X192025309Y-115728785D01*
X192140144Y-115776351D01*
X192262052Y-115800600D01*
X192386348Y-115800600D01*
X192508256Y-115776351D01*
X192623091Y-115728785D01*
X192724200Y-115661226D01*
X192825309Y-115728785D01*
X192940144Y-115776351D01*
X193062052Y-115800600D01*
X193186348Y-115800600D01*
X193308256Y-115776351D01*
X193423091Y-115728785D01*
X193526439Y-115659730D01*
X193614330Y-115571839D01*
X193683385Y-115468491D01*
X193730951Y-115353656D01*
X193755200Y-115231748D01*
X193755200Y-115107452D01*
X193730951Y-114985544D01*
X193683385Y-114870709D01*
X193614330Y-114767361D01*
X193526439Y-114679470D01*
X193423091Y-114610415D01*
X193308256Y-114562849D01*
X193186348Y-114538600D01*
X193062052Y-114538600D01*
X192940144Y-114562849D01*
X192825309Y-114610415D01*
X192724200Y-114677974D01*
X192623091Y-114610415D01*
X192508256Y-114562849D01*
X192386348Y-114538600D01*
X192262052Y-114538600D01*
X192140144Y-114562849D01*
X192025309Y-114610415D01*
X191924200Y-114677974D01*
X191823091Y-114610415D01*
X191708256Y-114562849D01*
X191586348Y-114538600D01*
X191462052Y-114538600D01*
X191340144Y-114562849D01*
X191225309Y-114610415D01*
X191124200Y-114677974D01*
X191023091Y-114610415D01*
X190908256Y-114562849D01*
X190786348Y-114538600D01*
X190662052Y-114538600D01*
X190540144Y-114562849D01*
X190425309Y-114610415D01*
X190321961Y-114679470D01*
X190234070Y-114767361D01*
X190165015Y-114870709D01*
X190117449Y-114985544D01*
X190093200Y-115107452D01*
X169510843Y-115107452D01*
X169510843Y-114795800D01*
X169503487Y-114721111D01*
X169481701Y-114649292D01*
X169446322Y-114583104D01*
X169398711Y-114525089D01*
X169340696Y-114477478D01*
X169274508Y-114442099D01*
X169202689Y-114420313D01*
X169128000Y-114412957D01*
X164628000Y-114412957D01*
X164553311Y-114420313D01*
X164481492Y-114442099D01*
X164415304Y-114477478D01*
X164357289Y-114525089D01*
X164309678Y-114583104D01*
X164274299Y-114649292D01*
X164252513Y-114721111D01*
X164245157Y-114795800D01*
X157455200Y-114795800D01*
X157455200Y-113832452D01*
X179343200Y-113832452D01*
X179343200Y-113956748D01*
X179367449Y-114078656D01*
X179415015Y-114193491D01*
X179484070Y-114296839D01*
X179571961Y-114384730D01*
X179675309Y-114453785D01*
X179790144Y-114501351D01*
X179912052Y-114525600D01*
X180036348Y-114525600D01*
X180158256Y-114501351D01*
X180273091Y-114453785D01*
X180376439Y-114384730D01*
X180464330Y-114296839D01*
X180533385Y-114193491D01*
X180580951Y-114078656D01*
X180605200Y-113956748D01*
X180605200Y-113832452D01*
X180580951Y-113710544D01*
X180533385Y-113595709D01*
X180464330Y-113492361D01*
X180376439Y-113404470D01*
X180273091Y-113335415D01*
X180158256Y-113287849D01*
X180036348Y-113263600D01*
X179912052Y-113263600D01*
X179790144Y-113287849D01*
X179675309Y-113335415D01*
X179571961Y-113404470D01*
X179484070Y-113492361D01*
X179415015Y-113595709D01*
X179367449Y-113710544D01*
X179343200Y-113832452D01*
X157455200Y-113832452D01*
X157455200Y-111940452D01*
X185444800Y-111940452D01*
X185444800Y-112064748D01*
X185469049Y-112186656D01*
X185516615Y-112301491D01*
X185585670Y-112404839D01*
X185673561Y-112492730D01*
X185776909Y-112561785D01*
X185891744Y-112609351D01*
X186013652Y-112633600D01*
X186137948Y-112633600D01*
X186259856Y-112609351D01*
X186374691Y-112561785D01*
X186478039Y-112492730D01*
X186513170Y-112457599D01*
X189008200Y-112457599D01*
X189008200Y-112731601D01*
X189061656Y-113000340D01*
X189166512Y-113253485D01*
X189318740Y-113481311D01*
X189512489Y-113675060D01*
X189740315Y-113827288D01*
X189993460Y-113932144D01*
X190262199Y-113985600D01*
X190536201Y-113985600D01*
X190804940Y-113932144D01*
X191058085Y-113827288D01*
X191285911Y-113675060D01*
X191479660Y-113481311D01*
X191631888Y-113253485D01*
X191736744Y-113000340D01*
X191790200Y-112731601D01*
X191790200Y-112457599D01*
X191736744Y-112188860D01*
X191631888Y-111935715D01*
X191479660Y-111707889D01*
X191285911Y-111514140D01*
X191058085Y-111361912D01*
X190804940Y-111257056D01*
X190536201Y-111203600D01*
X190262199Y-111203600D01*
X189993460Y-111257056D01*
X189740315Y-111361912D01*
X189512489Y-111514140D01*
X189318740Y-111707889D01*
X189166512Y-111935715D01*
X189061656Y-112188860D01*
X189008200Y-112457599D01*
X186513170Y-112457599D01*
X186565930Y-112404839D01*
X186634985Y-112301491D01*
X186682551Y-112186656D01*
X186706800Y-112064748D01*
X186706800Y-111940452D01*
X186682551Y-111818544D01*
X186634985Y-111703709D01*
X186565930Y-111600361D01*
X186478039Y-111512470D01*
X186374691Y-111443415D01*
X186259856Y-111395849D01*
X186137948Y-111371600D01*
X186013652Y-111371600D01*
X185891744Y-111395849D01*
X185776909Y-111443415D01*
X185673561Y-111512470D01*
X185585670Y-111600361D01*
X185516615Y-111703709D01*
X185469049Y-111818544D01*
X185444800Y-111940452D01*
X157455200Y-111940452D01*
X157455200Y-110437852D01*
X177619000Y-110437852D01*
X177619000Y-110562148D01*
X177643249Y-110684056D01*
X177690815Y-110798891D01*
X177759870Y-110902239D01*
X177847761Y-110990130D01*
X177951109Y-111059185D01*
X178065944Y-111106751D01*
X178187852Y-111131000D01*
X178312148Y-111131000D01*
X178434056Y-111106751D01*
X178548891Y-111059185D01*
X178652239Y-110990130D01*
X178740130Y-110902239D01*
X178809185Y-110798891D01*
X178856751Y-110684056D01*
X178881000Y-110562148D01*
X178881000Y-110437852D01*
X178856751Y-110315944D01*
X178809185Y-110201109D01*
X178740130Y-110097761D01*
X178652239Y-110009870D01*
X178548891Y-109940815D01*
X178434056Y-109893249D01*
X178312148Y-109869000D01*
X178187852Y-109869000D01*
X178065944Y-109893249D01*
X177951109Y-109940815D01*
X177847761Y-110009870D01*
X177759870Y-110097761D01*
X177690815Y-110201109D01*
X177643249Y-110315944D01*
X177619000Y-110437852D01*
X157455200Y-110437852D01*
X157455200Y-108752852D01*
X174958600Y-108752852D01*
X174958600Y-108877148D01*
X174982849Y-108999056D01*
X175030415Y-109113891D01*
X175099470Y-109217239D01*
X175187361Y-109305130D01*
X175290709Y-109374185D01*
X175405544Y-109421751D01*
X175527452Y-109446000D01*
X175651748Y-109446000D01*
X175773656Y-109421751D01*
X175888491Y-109374185D01*
X175991839Y-109305130D01*
X176079730Y-109217239D01*
X176148785Y-109113891D01*
X176196351Y-108999056D01*
X176220600Y-108877148D01*
X176220600Y-108752852D01*
X176196351Y-108630944D01*
X176148785Y-108516109D01*
X176079730Y-108412761D01*
X175991839Y-108324870D01*
X175888491Y-108255815D01*
X175773656Y-108208249D01*
X175651748Y-108184000D01*
X175527452Y-108184000D01*
X175405544Y-108208249D01*
X175290709Y-108255815D01*
X175187361Y-108324870D01*
X175099470Y-108412761D01*
X175030415Y-108516109D01*
X174982849Y-108630944D01*
X174958600Y-108752852D01*
X157455200Y-108752852D01*
X157455200Y-105983960D01*
X158393200Y-105983960D01*
X158393200Y-106305240D01*
X158455878Y-106620345D01*
X158578826Y-106917168D01*
X158757319Y-107184302D01*
X158984498Y-107411481D01*
X159251632Y-107589974D01*
X159548455Y-107712922D01*
X159863560Y-107775600D01*
X160184840Y-107775600D01*
X160499945Y-107712922D01*
X160796768Y-107589974D01*
X161063902Y-107411481D01*
X161291081Y-107184302D01*
X161469574Y-106917168D01*
X161592522Y-106620345D01*
X161655200Y-106305240D01*
X161655200Y-105983960D01*
X161592522Y-105668855D01*
X161469574Y-105372032D01*
X161291081Y-105104898D01*
X161063902Y-104877719D01*
X160796768Y-104699226D01*
X160499945Y-104576278D01*
X160184840Y-104513600D01*
X159863560Y-104513600D01*
X159548455Y-104576278D01*
X159251632Y-104699226D01*
X158984498Y-104877719D01*
X158757319Y-105104898D01*
X158578826Y-105372032D01*
X158455878Y-105668855D01*
X158393200Y-105983960D01*
X157455200Y-105983960D01*
X157455200Y-103580466D01*
X197397200Y-103568132D01*
X197397200Y-161538600D01*
G36*
X234126068Y-137610979D02*
G01*
X234217394Y-137649742D01*
X234295217Y-137711269D01*
X234359090Y-137798101D01*
X236930535Y-142500430D01*
X236939660Y-142514750D01*
X237018705Y-142622207D01*
X237042244Y-142646578D01*
X237146889Y-142729311D01*
X237176034Y-142746592D01*
X237298829Y-142798711D01*
X237331507Y-142807670D01*
X237463714Y-142825465D01*
X237480655Y-142826600D01*
X243773832Y-142826600D01*
X243791413Y-142825377D01*
X243928516Y-142806213D01*
X243962332Y-142796571D01*
X244088925Y-142740546D01*
X244118799Y-142722002D01*
X244225177Y-142633413D01*
X244248823Y-142607387D01*
X244326832Y-142493023D01*
X244335728Y-142477810D01*
X245194315Y-140743734D01*
X248213200Y-140743734D01*
X248213200Y-141035466D01*
X248270114Y-141321592D01*
X248381755Y-141591117D01*
X248543832Y-141833683D01*
X248750117Y-142039968D01*
X248992683Y-142202045D01*
X249262208Y-142313686D01*
X249548334Y-142370600D01*
X249840066Y-142370600D01*
X250126192Y-142313686D01*
X250395717Y-142202045D01*
X250638283Y-142039968D01*
X250844568Y-141833683D01*
X251006645Y-141591117D01*
X251118286Y-141321592D01*
X251175200Y-141035466D01*
X251175200Y-140743734D01*
X251118286Y-140457608D01*
X251006645Y-140188083D01*
X250844568Y-139945517D01*
X250638283Y-139739232D01*
X250395717Y-139577155D01*
X250126192Y-139465514D01*
X249840066Y-139408600D01*
X249548334Y-139408600D01*
X249262208Y-139465514D01*
X248992683Y-139577155D01*
X248750117Y-139739232D01*
X248543832Y-139945517D01*
X248381755Y-140188083D01*
X248270114Y-140457608D01*
X248213200Y-140743734D01*
X245194315Y-140743734D01*
X246596376Y-137912014D01*
X246659408Y-137819607D01*
X246738502Y-137753740D01*
X246832628Y-137712083D01*
X246943399Y-137696600D01*
X253743201Y-137696600D01*
X253743201Y-161538600D01*
X229862057Y-161538600D01*
X229873277Y-158508960D01*
X232893200Y-158508960D01*
X232893200Y-158830240D01*
X232955878Y-159145345D01*
X233078826Y-159442168D01*
X233257319Y-159709302D01*
X233484498Y-159936481D01*
X233751632Y-160114974D01*
X234048455Y-160237922D01*
X234363560Y-160300600D01*
X234684840Y-160300600D01*
X234999945Y-160237922D01*
X235296768Y-160114974D01*
X235563902Y-159936481D01*
X235791081Y-159709302D01*
X235969574Y-159442168D01*
X236092522Y-159145345D01*
X236155200Y-158830240D01*
X236155200Y-158508960D01*
X236092522Y-158193855D01*
X235969574Y-157897032D01*
X235791081Y-157629898D01*
X235563902Y-157402719D01*
X235296768Y-157224226D01*
X234999945Y-157101278D01*
X234684840Y-157038600D01*
X234363560Y-157038600D01*
X234048455Y-157101278D01*
X233751632Y-157224226D01*
X233484498Y-157402719D01*
X233257319Y-157629898D01*
X233078826Y-157897032D01*
X232955878Y-158193855D01*
X232893200Y-158508960D01*
X229873277Y-158508960D01*
X229882629Y-155983734D01*
X248213200Y-155983734D01*
X248213200Y-156275466D01*
X248270114Y-156561592D01*
X248381755Y-156831117D01*
X248543832Y-157073683D01*
X248750117Y-157279968D01*
X248992683Y-157442045D01*
X249262208Y-157553686D01*
X249548334Y-157610600D01*
X249840066Y-157610600D01*
X250126192Y-157553686D01*
X250395717Y-157442045D01*
X250638283Y-157279968D01*
X250844568Y-157073683D01*
X251006645Y-156831117D01*
X251118286Y-156561592D01*
X251175200Y-156275466D01*
X251175200Y-155983734D01*
X251118286Y-155697608D01*
X251006645Y-155428083D01*
X250844568Y-155185517D01*
X250638283Y-154979232D01*
X250395717Y-154817155D01*
X250126192Y-154705514D01*
X249840066Y-154648600D01*
X249548334Y-154648600D01*
X249262208Y-154705514D01*
X248992683Y-154817155D01*
X248750117Y-154979232D01*
X248543832Y-155185517D01*
X248381755Y-155428083D01*
X248270114Y-155697608D01*
X248213200Y-155983734D01*
X229882629Y-155983734D01*
X229901443Y-150903734D01*
X248213200Y-150903734D01*
X248213200Y-151195466D01*
X248270114Y-151481592D01*
X248381755Y-151751117D01*
X248543832Y-151993683D01*
X248750117Y-152199968D01*
X248992683Y-152362045D01*
X249262208Y-152473686D01*
X249548334Y-152530600D01*
X249840066Y-152530600D01*
X250126192Y-152473686D01*
X250395717Y-152362045D01*
X250638283Y-152199968D01*
X250844568Y-151993683D01*
X251006645Y-151751117D01*
X251118286Y-151481592D01*
X251175200Y-151195466D01*
X251175200Y-150903734D01*
X251118286Y-150617608D01*
X251006645Y-150348083D01*
X250844568Y-150105517D01*
X250638283Y-149899232D01*
X250395717Y-149737155D01*
X250126192Y-149625514D01*
X249840066Y-149568600D01*
X249548334Y-149568600D01*
X249262208Y-149625514D01*
X248992683Y-149737155D01*
X248750117Y-149899232D01*
X248543832Y-150105517D01*
X248381755Y-150348083D01*
X248270114Y-150617608D01*
X248213200Y-150903734D01*
X229901443Y-150903734D01*
X229920258Y-145823734D01*
X248213200Y-145823734D01*
X248213200Y-146115466D01*
X248270114Y-146401592D01*
X248381755Y-146671117D01*
X248543832Y-146913683D01*
X248750117Y-147119968D01*
X248992683Y-147282045D01*
X249262208Y-147393686D01*
X249548334Y-147450600D01*
X249840066Y-147450600D01*
X250126192Y-147393686D01*
X250395717Y-147282045D01*
X250638283Y-147119968D01*
X250844568Y-146913683D01*
X251006645Y-146671117D01*
X251118286Y-146401592D01*
X251175200Y-146115466D01*
X251175200Y-145823734D01*
X251118286Y-145537608D01*
X251006645Y-145268083D01*
X250844568Y-145025517D01*
X250638283Y-144819232D01*
X250395717Y-144657155D01*
X250126192Y-144545514D01*
X249840066Y-144488600D01*
X249548334Y-144488600D01*
X249262208Y-144545514D01*
X248992683Y-144657155D01*
X248750117Y-144819232D01*
X248543832Y-145025517D01*
X248381755Y-145268083D01*
X248270114Y-145537608D01*
X248213200Y-145823734D01*
X229920258Y-145823734D01*
X229949323Y-137976527D01*
X229963414Y-137872232D01*
X230000729Y-137782849D01*
X230059858Y-137706134D01*
X230136793Y-137647288D01*
X230226316Y-137610304D01*
X230330659Y-137596600D01*
X234019236Y-137596600D01*
X234126068Y-137610979D01*
G37*
X234126068Y-137610979D02*
X234217394Y-137649742D01*
X234295217Y-137711269D01*
X234359090Y-137798101D01*
X236930535Y-142500430D01*
X236939660Y-142514750D01*
X237018705Y-142622207D01*
X237042244Y-142646578D01*
X237146889Y-142729311D01*
X237176034Y-142746592D01*
X237298829Y-142798711D01*
X237331507Y-142807670D01*
X237463714Y-142825465D01*
X237480655Y-142826600D01*
X243773832Y-142826600D01*
X243791413Y-142825377D01*
X243928516Y-142806213D01*
X243962332Y-142796571D01*
X244088925Y-142740546D01*
X244118799Y-142722002D01*
X244225177Y-142633413D01*
X244248823Y-142607387D01*
X244326832Y-142493023D01*
X244335728Y-142477810D01*
X245194315Y-140743734D01*
X248213200Y-140743734D01*
X248213200Y-141035466D01*
X248270114Y-141321592D01*
X248381755Y-141591117D01*
X248543832Y-141833683D01*
X248750117Y-142039968D01*
X248992683Y-142202045D01*
X249262208Y-142313686D01*
X249548334Y-142370600D01*
X249840066Y-142370600D01*
X250126192Y-142313686D01*
X250395717Y-142202045D01*
X250638283Y-142039968D01*
X250844568Y-141833683D01*
X251006645Y-141591117D01*
X251118286Y-141321592D01*
X251175200Y-141035466D01*
X251175200Y-140743734D01*
X251118286Y-140457608D01*
X251006645Y-140188083D01*
X250844568Y-139945517D01*
X250638283Y-139739232D01*
X250395717Y-139577155D01*
X250126192Y-139465514D01*
X249840066Y-139408600D01*
X249548334Y-139408600D01*
X249262208Y-139465514D01*
X248992683Y-139577155D01*
X248750117Y-139739232D01*
X248543832Y-139945517D01*
X248381755Y-140188083D01*
X248270114Y-140457608D01*
X248213200Y-140743734D01*
X245194315Y-140743734D01*
X246596376Y-137912014D01*
X246659408Y-137819607D01*
X246738502Y-137753740D01*
X246832628Y-137712083D01*
X246943399Y-137696600D01*
X253743201Y-137696600D01*
X253743201Y-161538600D01*
X229862057Y-161538600D01*
X229873277Y-158508960D01*
X232893200Y-158508960D01*
X232893200Y-158830240D01*
X232955878Y-159145345D01*
X233078826Y-159442168D01*
X233257319Y-159709302D01*
X233484498Y-159936481D01*
X233751632Y-160114974D01*
X234048455Y-160237922D01*
X234363560Y-160300600D01*
X234684840Y-160300600D01*
X234999945Y-160237922D01*
X235296768Y-160114974D01*
X235563902Y-159936481D01*
X235791081Y-159709302D01*
X235969574Y-159442168D01*
X236092522Y-159145345D01*
X236155200Y-158830240D01*
X236155200Y-158508960D01*
X236092522Y-158193855D01*
X235969574Y-157897032D01*
X235791081Y-157629898D01*
X235563902Y-157402719D01*
X235296768Y-157224226D01*
X234999945Y-157101278D01*
X234684840Y-157038600D01*
X234363560Y-157038600D01*
X234048455Y-157101278D01*
X233751632Y-157224226D01*
X233484498Y-157402719D01*
X233257319Y-157629898D01*
X233078826Y-157897032D01*
X232955878Y-158193855D01*
X232893200Y-158508960D01*
X229873277Y-158508960D01*
X229882629Y-155983734D01*
X248213200Y-155983734D01*
X248213200Y-156275466D01*
X248270114Y-156561592D01*
X248381755Y-156831117D01*
X248543832Y-157073683D01*
X248750117Y-157279968D01*
X248992683Y-157442045D01*
X249262208Y-157553686D01*
X249548334Y-157610600D01*
X249840066Y-157610600D01*
X250126192Y-157553686D01*
X250395717Y-157442045D01*
X250638283Y-157279968D01*
X250844568Y-157073683D01*
X251006645Y-156831117D01*
X251118286Y-156561592D01*
X251175200Y-156275466D01*
X251175200Y-155983734D01*
X251118286Y-155697608D01*
X251006645Y-155428083D01*
X250844568Y-155185517D01*
X250638283Y-154979232D01*
X250395717Y-154817155D01*
X250126192Y-154705514D01*
X249840066Y-154648600D01*
X249548334Y-154648600D01*
X249262208Y-154705514D01*
X248992683Y-154817155D01*
X248750117Y-154979232D01*
X248543832Y-155185517D01*
X248381755Y-155428083D01*
X248270114Y-155697608D01*
X248213200Y-155983734D01*
X229882629Y-155983734D01*
X229901443Y-150903734D01*
X248213200Y-150903734D01*
X248213200Y-151195466D01*
X248270114Y-151481592D01*
X248381755Y-151751117D01*
X248543832Y-151993683D01*
X248750117Y-152199968D01*
X248992683Y-152362045D01*
X249262208Y-152473686D01*
X249548334Y-152530600D01*
X249840066Y-152530600D01*
X250126192Y-152473686D01*
X250395717Y-152362045D01*
X250638283Y-152199968D01*
X250844568Y-151993683D01*
X251006645Y-151751117D01*
X251118286Y-151481592D01*
X251175200Y-151195466D01*
X251175200Y-150903734D01*
X251118286Y-150617608D01*
X251006645Y-150348083D01*
X250844568Y-150105517D01*
X250638283Y-149899232D01*
X250395717Y-149737155D01*
X250126192Y-149625514D01*
X249840066Y-149568600D01*
X249548334Y-149568600D01*
X249262208Y-149625514D01*
X248992683Y-149737155D01*
X248750117Y-149899232D01*
X248543832Y-150105517D01*
X248381755Y-150348083D01*
X248270114Y-150617608D01*
X248213200Y-150903734D01*
X229901443Y-150903734D01*
X229920258Y-145823734D01*
X248213200Y-145823734D01*
X248213200Y-146115466D01*
X248270114Y-146401592D01*
X248381755Y-146671117D01*
X248543832Y-146913683D01*
X248750117Y-147119968D01*
X248992683Y-147282045D01*
X249262208Y-147393686D01*
X249548334Y-147450600D01*
X249840066Y-147450600D01*
X250126192Y-147393686D01*
X250395717Y-147282045D01*
X250638283Y-147119968D01*
X250844568Y-146913683D01*
X251006645Y-146671117D01*
X251118286Y-146401592D01*
X251175200Y-146115466D01*
X251175200Y-145823734D01*
X251118286Y-145537608D01*
X251006645Y-145268083D01*
X250844568Y-145025517D01*
X250638283Y-144819232D01*
X250395717Y-144657155D01*
X250126192Y-144545514D01*
X249840066Y-144488600D01*
X249548334Y-144488600D01*
X249262208Y-144545514D01*
X248992683Y-144657155D01*
X248750117Y-144819232D01*
X248543832Y-145025517D01*
X248381755Y-145268083D01*
X248270114Y-145537608D01*
X248213200Y-145823734D01*
X229920258Y-145823734D01*
X229949323Y-137976527D01*
X229963414Y-137872232D01*
X230000729Y-137782849D01*
X230059858Y-137706134D01*
X230136793Y-137647288D01*
X230226316Y-137610304D01*
X230330659Y-137596600D01*
X234019236Y-137596600D01*
X234126068Y-137610979D01*
G36*
X253743201Y-136942621D02*
G01*
X246538633Y-136942601D01*
X246520868Y-136943850D01*
X246382360Y-136963417D01*
X246348220Y-136973259D01*
X246220553Y-137030429D01*
X246190476Y-137049344D01*
X246083642Y-137139643D01*
X246059981Y-137166149D01*
X245982342Y-137282509D01*
X245973521Y-137297980D01*
X243774631Y-141872788D01*
X240704163Y-141882489D01*
X240703757Y-141882491D01*
X240700609Y-141882511D01*
X240700215Y-141882514D01*
X237587800Y-141911946D01*
X234809599Y-137265968D01*
X234800372Y-137252568D01*
X234721273Y-137152136D01*
X234698085Y-137129404D01*
X234596103Y-137052312D01*
X234567909Y-137036203D01*
X234449712Y-136987493D01*
X234418355Y-136979060D01*
X234291669Y-136961914D01*
X234275440Y-136960770D01*
X229932139Y-136933281D01*
X229935000Y-136607452D01*
X242943200Y-136607452D01*
X242943200Y-136731748D01*
X242967449Y-136853656D01*
X243015015Y-136968491D01*
X243084070Y-137071839D01*
X243171961Y-137159730D01*
X243275309Y-137228785D01*
X243390144Y-137276351D01*
X243512052Y-137300600D01*
X243636348Y-137300600D01*
X243758256Y-137276351D01*
X243873091Y-137228785D01*
X243976439Y-137159730D01*
X244064330Y-137071839D01*
X244133385Y-136968491D01*
X244180951Y-136853656D01*
X244205200Y-136731748D01*
X244205200Y-136607452D01*
X244180951Y-136485544D01*
X244133385Y-136370709D01*
X244064330Y-136267361D01*
X243976439Y-136179470D01*
X243873091Y-136110415D01*
X243758256Y-136062849D01*
X243636348Y-136038600D01*
X243512052Y-136038600D01*
X243390144Y-136062849D01*
X243275309Y-136110415D01*
X243171961Y-136179470D01*
X243084070Y-136267361D01*
X243015015Y-136370709D01*
X242967449Y-136485544D01*
X242943200Y-136607452D01*
X229935000Y-136607452D01*
X229992075Y-130107452D01*
X236793200Y-130107452D01*
X236793200Y-130231748D01*
X236817449Y-130353656D01*
X236865015Y-130468491D01*
X236934070Y-130571839D01*
X237021961Y-130659730D01*
X237125309Y-130728785D01*
X237240144Y-130776351D01*
X237362052Y-130800600D01*
X237486348Y-130800600D01*
X237608256Y-130776351D01*
X237723091Y-130728785D01*
X237826439Y-130659730D01*
X237914330Y-130571839D01*
X237983385Y-130468491D01*
X238030951Y-130353656D01*
X238055200Y-130231748D01*
X238055200Y-130107452D01*
X238041277Y-130037452D01*
X246703200Y-130037452D01*
X246703200Y-130161748D01*
X246727449Y-130283656D01*
X246775015Y-130398491D01*
X246844070Y-130501839D01*
X246931961Y-130589730D01*
X247035309Y-130658785D01*
X247150144Y-130706351D01*
X247272052Y-130730600D01*
X247396348Y-130730600D01*
X247518256Y-130706351D01*
X247633091Y-130658785D01*
X247736439Y-130589730D01*
X247824330Y-130501839D01*
X247879280Y-130419600D01*
X248201357Y-130419600D01*
X248201357Y-132619600D01*
X248208713Y-132694289D01*
X248230499Y-132766108D01*
X248265878Y-132832296D01*
X248313489Y-132890311D01*
X248371504Y-132937922D01*
X248437692Y-132973301D01*
X248509511Y-132995087D01*
X248584200Y-133002443D01*
X250784200Y-133002443D01*
X250858889Y-132995087D01*
X250930708Y-132973301D01*
X250996896Y-132937922D01*
X251054911Y-132890311D01*
X251102522Y-132832296D01*
X251137901Y-132766108D01*
X251159687Y-132694289D01*
X251167043Y-132619600D01*
X251167043Y-130419600D01*
X251159687Y-130344911D01*
X251137901Y-130273092D01*
X251102522Y-130206904D01*
X251054911Y-130148889D01*
X250996896Y-130101278D01*
X250930708Y-130065899D01*
X250858889Y-130044113D01*
X250784200Y-130036757D01*
X250721494Y-130036757D01*
X250834568Y-129923683D01*
X250996645Y-129681117D01*
X251108286Y-129411592D01*
X251165200Y-129125466D01*
X251165200Y-128833734D01*
X251108286Y-128547608D01*
X250996645Y-128278083D01*
X250834568Y-128035517D01*
X250628283Y-127829232D01*
X250449241Y-127709600D01*
X250628283Y-127589968D01*
X250834568Y-127383683D01*
X250996645Y-127141117D01*
X251108286Y-126871592D01*
X251165200Y-126585466D01*
X251165200Y-126293734D01*
X251108286Y-126007608D01*
X250996645Y-125738083D01*
X250834568Y-125495517D01*
X250628283Y-125289232D01*
X250449241Y-125169600D01*
X250628283Y-125049968D01*
X250834568Y-124843683D01*
X250996645Y-124601117D01*
X251108286Y-124331592D01*
X251165200Y-124045466D01*
X251165200Y-123753734D01*
X251108286Y-123467608D01*
X250996645Y-123198083D01*
X250834568Y-122955517D01*
X250628283Y-122749232D01*
X250449241Y-122629600D01*
X250628283Y-122509968D01*
X250834568Y-122303683D01*
X250996645Y-122061117D01*
X251108286Y-121791592D01*
X251165200Y-121505466D01*
X251165200Y-121213734D01*
X251108286Y-120927608D01*
X250996645Y-120658083D01*
X250834568Y-120415517D01*
X250628283Y-120209232D01*
X250385717Y-120047155D01*
X250116192Y-119935514D01*
X249830066Y-119878600D01*
X249538334Y-119878600D01*
X249252208Y-119935514D01*
X248982683Y-120047155D01*
X248740117Y-120209232D01*
X248533832Y-120415517D01*
X248371755Y-120658083D01*
X248260114Y-120927608D01*
X248203200Y-121213734D01*
X248203200Y-121505466D01*
X248260114Y-121791592D01*
X248371755Y-122061117D01*
X248533832Y-122303683D01*
X248740117Y-122509968D01*
X248919159Y-122629600D01*
X248740117Y-122749232D01*
X248533832Y-122955517D01*
X248371755Y-123198083D01*
X248260114Y-123467608D01*
X248203200Y-123753734D01*
X248203200Y-124045466D01*
X248260114Y-124331592D01*
X248371755Y-124601117D01*
X248533832Y-124843683D01*
X248740117Y-125049968D01*
X248919159Y-125169600D01*
X248740117Y-125289232D01*
X248533832Y-125495517D01*
X248371755Y-125738083D01*
X248260114Y-126007608D01*
X248203200Y-126293734D01*
X248203200Y-126585466D01*
X248260114Y-126871592D01*
X248371755Y-127141117D01*
X248533832Y-127383683D01*
X248740117Y-127589968D01*
X248919159Y-127709600D01*
X248740117Y-127829232D01*
X248533832Y-128035517D01*
X248371755Y-128278083D01*
X248260114Y-128547608D01*
X248203200Y-128833734D01*
X248203200Y-129125466D01*
X248260114Y-129411592D01*
X248371755Y-129681117D01*
X248533832Y-129923683D01*
X248646906Y-130036757D01*
X248584200Y-130036757D01*
X248509511Y-130044113D01*
X248437692Y-130065899D01*
X248371504Y-130101278D01*
X248313489Y-130148889D01*
X248265878Y-130206904D01*
X248230499Y-130273092D01*
X248208713Y-130344911D01*
X248201357Y-130419600D01*
X247879280Y-130419600D01*
X247893385Y-130398491D01*
X247940951Y-130283656D01*
X247965200Y-130161748D01*
X247965200Y-130037452D01*
X247940951Y-129915544D01*
X247893385Y-129800709D01*
X247824330Y-129697361D01*
X247736439Y-129609470D01*
X247633091Y-129540415D01*
X247518256Y-129492849D01*
X247396348Y-129468600D01*
X247272052Y-129468600D01*
X247150144Y-129492849D01*
X247035309Y-129540415D01*
X246931961Y-129609470D01*
X246844070Y-129697361D01*
X246775015Y-129800709D01*
X246727449Y-129915544D01*
X246703200Y-130037452D01*
X238041277Y-130037452D01*
X238030951Y-129985544D01*
X237983385Y-129870709D01*
X237914330Y-129767361D01*
X237826439Y-129679470D01*
X237723091Y-129610415D01*
X237608256Y-129562849D01*
X237486348Y-129538600D01*
X237362052Y-129538600D01*
X237240144Y-129562849D01*
X237125309Y-129610415D01*
X237021961Y-129679470D01*
X236934070Y-129767361D01*
X236865015Y-129870709D01*
X236817449Y-129985544D01*
X236793200Y-130107452D01*
X229992075Y-130107452D01*
X230006564Y-128457452D01*
X236793200Y-128457452D01*
X236793200Y-128581748D01*
X236817449Y-128703656D01*
X236865015Y-128818491D01*
X236934070Y-128921839D01*
X237021961Y-129009730D01*
X237125309Y-129078785D01*
X237240144Y-129126351D01*
X237362052Y-129150600D01*
X237486348Y-129150600D01*
X237608256Y-129126351D01*
X237723091Y-129078785D01*
X237826439Y-129009730D01*
X237914330Y-128921839D01*
X237983385Y-128818491D01*
X238030951Y-128703656D01*
X238055200Y-128581748D01*
X238055200Y-128457452D01*
X246693200Y-128457452D01*
X246693200Y-128581748D01*
X246717449Y-128703656D01*
X246765015Y-128818491D01*
X246834070Y-128921839D01*
X246921961Y-129009730D01*
X247025309Y-129078785D01*
X247140144Y-129126351D01*
X247262052Y-129150600D01*
X247386348Y-129150600D01*
X247508256Y-129126351D01*
X247623091Y-129078785D01*
X247726439Y-129009730D01*
X247814330Y-128921839D01*
X247883385Y-128818491D01*
X247930951Y-128703656D01*
X247955200Y-128581748D01*
X247955200Y-128457452D01*
X247930951Y-128335544D01*
X247883385Y-128220709D01*
X247814330Y-128117361D01*
X247726439Y-128029470D01*
X247623091Y-127960415D01*
X247508256Y-127912849D01*
X247386348Y-127888600D01*
X247262052Y-127888600D01*
X247140144Y-127912849D01*
X247025309Y-127960415D01*
X246921961Y-128029470D01*
X246834070Y-128117361D01*
X246765015Y-128220709D01*
X246717449Y-128335544D01*
X246693200Y-128457452D01*
X238055200Y-128457452D01*
X238030951Y-128335544D01*
X237983385Y-128220709D01*
X237914330Y-128117361D01*
X237826439Y-128029470D01*
X237723091Y-127960415D01*
X237608256Y-127912849D01*
X237486348Y-127888600D01*
X237362052Y-127888600D01*
X237240144Y-127912849D01*
X237125309Y-127960415D01*
X237021961Y-128029470D01*
X236934070Y-128117361D01*
X236865015Y-128220709D01*
X236817449Y-128335544D01*
X236793200Y-128457452D01*
X230006564Y-128457452D01*
X230011733Y-127868815D01*
X230026413Y-127764382D01*
X230064332Y-127675035D01*
X230124080Y-127598543D01*
X230201586Y-127540115D01*
X230291571Y-127503732D01*
X230396229Y-127490848D01*
X236555053Y-127542386D01*
X236571704Y-127541430D01*
X236701750Y-127525347D01*
X236733961Y-127516968D01*
X236855363Y-127467649D01*
X236884292Y-127451190D01*
X236988711Y-127372023D01*
X237012370Y-127348612D01*
X237092634Y-127245034D01*
X237109397Y-127216281D01*
X237159994Y-127095407D01*
X237168712Y-127063285D01*
X237186166Y-126933415D01*
X237187298Y-126916776D01*
X237190060Y-125651832D01*
X237189004Y-125635213D01*
X237172167Y-125505457D01*
X237163615Y-125473342D01*
X237113692Y-125352398D01*
X237097101Y-125323601D01*
X237017509Y-125219749D01*
X236994015Y-125196243D01*
X236890206Y-125116597D01*
X236861418Y-125099991D01*
X236740499Y-125050003D01*
X236708389Y-125041433D01*
X236578643Y-125024528D01*
X236562024Y-125023464D01*
X234948971Y-125026134D01*
X234930951Y-124935544D01*
X234883385Y-124820709D01*
X234814330Y-124717361D01*
X234726439Y-124629470D01*
X234623091Y-124560415D01*
X234508256Y-124512849D01*
X234386348Y-124488600D01*
X234262052Y-124488600D01*
X234140144Y-124512849D01*
X234025309Y-124560415D01*
X233999200Y-124577860D01*
X233973091Y-124560415D01*
X233858256Y-124512849D01*
X233736348Y-124488600D01*
X233612052Y-124488600D01*
X233490144Y-124512849D01*
X233375309Y-124560415D01*
X233271961Y-124629470D01*
X233184070Y-124717361D01*
X233115015Y-124820709D01*
X233067449Y-124935544D01*
X233047526Y-125035702D01*
X229675430Y-125062586D01*
X229671946Y-125062600D01*
X229614200Y-125062600D01*
X229589424Y-125065040D01*
X229565598Y-125072268D01*
X229523172Y-125089842D01*
X229501215Y-125101578D01*
X229481970Y-125117372D01*
X229466177Y-125136618D01*
X229454442Y-125158572D01*
X229436868Y-125200998D01*
X229429641Y-125224822D01*
X229427200Y-125249600D01*
X229427200Y-126978688D01*
X229427198Y-126980168D01*
X229389701Y-139654109D01*
X229389701Y-139654281D01*
X229314844Y-161538600D01*
X197931200Y-161538600D01*
X197931200Y-156707452D01*
X210353200Y-156707452D01*
X210353200Y-156831748D01*
X210377449Y-156953656D01*
X210425015Y-157068491D01*
X210494070Y-157171839D01*
X210581961Y-157259730D01*
X210685309Y-157328785D01*
X210800144Y-157376351D01*
X210922052Y-157400600D01*
X211046348Y-157400600D01*
X211168256Y-157376351D01*
X211283091Y-157328785D01*
X211386439Y-157259730D01*
X211474330Y-157171839D01*
X211543385Y-157068491D01*
X211590951Y-156953656D01*
X211615200Y-156831748D01*
X211615200Y-156707452D01*
X211590951Y-156585544D01*
X211543385Y-156470709D01*
X211474330Y-156367361D01*
X211386439Y-156279470D01*
X211283091Y-156210415D01*
X211168256Y-156162849D01*
X211046348Y-156138600D01*
X210922052Y-156138600D01*
X210800144Y-156162849D01*
X210685309Y-156210415D01*
X210581961Y-156279470D01*
X210494070Y-156367361D01*
X210425015Y-156470709D01*
X210377449Y-156585544D01*
X210353200Y-156707452D01*
X197931200Y-156707452D01*
X197931200Y-137957452D01*
X210353200Y-137957452D01*
X210353200Y-138081748D01*
X210377449Y-138203656D01*
X210425015Y-138318491D01*
X210494070Y-138421839D01*
X210581961Y-138509730D01*
X210685309Y-138578785D01*
X210800144Y-138626351D01*
X210922052Y-138650600D01*
X211046348Y-138650600D01*
X211168256Y-138626351D01*
X211283091Y-138578785D01*
X211386439Y-138509730D01*
X211474330Y-138421839D01*
X211543385Y-138318491D01*
X211590951Y-138203656D01*
X211615200Y-138081748D01*
X211615200Y-137957452D01*
X211590951Y-137835544D01*
X211543385Y-137720709D01*
X211474330Y-137617361D01*
X211386439Y-137529470D01*
X211283091Y-137460415D01*
X211168256Y-137412849D01*
X211046348Y-137388600D01*
X210922052Y-137388600D01*
X210800144Y-137412849D01*
X210685309Y-137460415D01*
X210581961Y-137529470D01*
X210494070Y-137617361D01*
X210425015Y-137720709D01*
X210377449Y-137835544D01*
X210353200Y-137957452D01*
X197931200Y-137957452D01*
X197931200Y-135107452D01*
X221043200Y-135107452D01*
X221043200Y-135231748D01*
X221067449Y-135353656D01*
X221115015Y-135468491D01*
X221184070Y-135571839D01*
X221271961Y-135659730D01*
X221375309Y-135728785D01*
X221490144Y-135776351D01*
X221612052Y-135800600D01*
X221736348Y-135800600D01*
X221858256Y-135776351D01*
X221973091Y-135728785D01*
X222076439Y-135659730D01*
X222164330Y-135571839D01*
X222233385Y-135468491D01*
X222280951Y-135353656D01*
X222305200Y-135231748D01*
X222305200Y-135107452D01*
X222280951Y-134985544D01*
X222233385Y-134870709D01*
X222164330Y-134767361D01*
X222076439Y-134679470D01*
X221973091Y-134610415D01*
X221858256Y-134562849D01*
X221736348Y-134538600D01*
X221612052Y-134538600D01*
X221490144Y-134562849D01*
X221375309Y-134610415D01*
X221271961Y-134679470D01*
X221184070Y-134767361D01*
X221115015Y-134870709D01*
X221067449Y-134985544D01*
X221043200Y-135107452D01*
X197931200Y-135107452D01*
X197931200Y-123607452D01*
X242863200Y-123607452D01*
X242863200Y-123731748D01*
X242887449Y-123853656D01*
X242935015Y-123968491D01*
X243004070Y-124071839D01*
X243091961Y-124159730D01*
X243195309Y-124228785D01*
X243310144Y-124276351D01*
X243432052Y-124300600D01*
X243556348Y-124300600D01*
X243678256Y-124276351D01*
X243793091Y-124228785D01*
X243896439Y-124159730D01*
X243984330Y-124071839D01*
X244053385Y-123968491D01*
X244100951Y-123853656D01*
X244125200Y-123731748D01*
X244125200Y-123607452D01*
X244100951Y-123485544D01*
X244053385Y-123370709D01*
X243984330Y-123267361D01*
X243896439Y-123179470D01*
X243793091Y-123110415D01*
X243678256Y-123062849D01*
X243556348Y-123038600D01*
X243432052Y-123038600D01*
X243310144Y-123062849D01*
X243195309Y-123110415D01*
X243091961Y-123179470D01*
X243004070Y-123267361D01*
X242935015Y-123370709D01*
X242887449Y-123485544D01*
X242863200Y-123607452D01*
X197931200Y-123607452D01*
X197931200Y-119357452D01*
X225093200Y-119357452D01*
X225093200Y-119481748D01*
X225117449Y-119603656D01*
X225165015Y-119718491D01*
X225234070Y-119821839D01*
X225256831Y-119844600D01*
X225234070Y-119867361D01*
X225165015Y-119970709D01*
X225117449Y-120085544D01*
X225093200Y-120207452D01*
X225093200Y-120331748D01*
X225117449Y-120453656D01*
X225165015Y-120568491D01*
X225234070Y-120671839D01*
X225321961Y-120759730D01*
X225425309Y-120828785D01*
X225540144Y-120876351D01*
X225662052Y-120900600D01*
X225786348Y-120900600D01*
X225908256Y-120876351D01*
X226023091Y-120828785D01*
X226126439Y-120759730D01*
X226214330Y-120671839D01*
X226283385Y-120568491D01*
X226330951Y-120453656D01*
X226355200Y-120331748D01*
X226355200Y-120207452D01*
X226330951Y-120085544D01*
X226283385Y-119970709D01*
X226214330Y-119867361D01*
X226191569Y-119844600D01*
X226214330Y-119821839D01*
X226283385Y-119718491D01*
X226330951Y-119603656D01*
X226355200Y-119481748D01*
X226355200Y-119357452D01*
X226330951Y-119235544D01*
X226283385Y-119120709D01*
X226214330Y-119017361D01*
X226126439Y-118929470D01*
X226023091Y-118860415D01*
X225908256Y-118812849D01*
X225786348Y-118788600D01*
X225662052Y-118788600D01*
X225540144Y-118812849D01*
X225425309Y-118860415D01*
X225321961Y-118929470D01*
X225234070Y-119017361D01*
X225165015Y-119120709D01*
X225117449Y-119235544D01*
X225093200Y-119357452D01*
X197931200Y-119357452D01*
X197931200Y-118217452D01*
X202513200Y-118217452D01*
X202513200Y-118341748D01*
X202537449Y-118463656D01*
X202585015Y-118578491D01*
X202654070Y-118681839D01*
X202741961Y-118769730D01*
X202845309Y-118838785D01*
X202960144Y-118886351D01*
X203082052Y-118910600D01*
X203206348Y-118910600D01*
X203328256Y-118886351D01*
X203443091Y-118838785D01*
X203546439Y-118769730D01*
X203634330Y-118681839D01*
X203703385Y-118578491D01*
X203750951Y-118463656D01*
X203775200Y-118341748D01*
X203775200Y-118217452D01*
X203773211Y-118207452D01*
X210053200Y-118207452D01*
X210053200Y-118331748D01*
X210077449Y-118453656D01*
X210125015Y-118568491D01*
X210194070Y-118671839D01*
X210281961Y-118759730D01*
X210385309Y-118828785D01*
X210500144Y-118876351D01*
X210622052Y-118900600D01*
X210746348Y-118900600D01*
X210868256Y-118876351D01*
X210983091Y-118828785D01*
X211086439Y-118759730D01*
X211174330Y-118671839D01*
X211243385Y-118568491D01*
X211290951Y-118453656D01*
X211315200Y-118331748D01*
X211315200Y-118247452D01*
X219623200Y-118247452D01*
X219623200Y-118371748D01*
X219647449Y-118493656D01*
X219695015Y-118608491D01*
X219764070Y-118711839D01*
X219851961Y-118799730D01*
X219955309Y-118868785D01*
X220070144Y-118916351D01*
X220192052Y-118940600D01*
X220316348Y-118940600D01*
X220438256Y-118916351D01*
X220553091Y-118868785D01*
X220656439Y-118799730D01*
X220744330Y-118711839D01*
X220813385Y-118608491D01*
X220860951Y-118493656D01*
X220885200Y-118371748D01*
X220885200Y-118247452D01*
X220860951Y-118125544D01*
X220813385Y-118010709D01*
X220744330Y-117907361D01*
X220656439Y-117819470D01*
X220553091Y-117750415D01*
X220438256Y-117702849D01*
X220316348Y-117678600D01*
X220192052Y-117678600D01*
X220070144Y-117702849D01*
X219955309Y-117750415D01*
X219851961Y-117819470D01*
X219764070Y-117907361D01*
X219695015Y-118010709D01*
X219647449Y-118125544D01*
X219623200Y-118247452D01*
X211315200Y-118247452D01*
X211315200Y-118207452D01*
X211290951Y-118085544D01*
X211243385Y-117970709D01*
X211174330Y-117867361D01*
X211086439Y-117779470D01*
X210983091Y-117710415D01*
X210868256Y-117662849D01*
X210746348Y-117638600D01*
X210622052Y-117638600D01*
X210500144Y-117662849D01*
X210385309Y-117710415D01*
X210281961Y-117779470D01*
X210194070Y-117867361D01*
X210125015Y-117970709D01*
X210077449Y-118085544D01*
X210053200Y-118207452D01*
X203773211Y-118207452D01*
X203750951Y-118095544D01*
X203703385Y-117980709D01*
X203634330Y-117877361D01*
X203546439Y-117789470D01*
X203443091Y-117720415D01*
X203328256Y-117672849D01*
X203206348Y-117648600D01*
X203082052Y-117648600D01*
X202960144Y-117672849D01*
X202845309Y-117720415D01*
X202741961Y-117789470D01*
X202654070Y-117877361D01*
X202585015Y-117980709D01*
X202537449Y-118095544D01*
X202513200Y-118217452D01*
X197931200Y-118217452D01*
X197931200Y-116267452D01*
X204983200Y-116267452D01*
X204983200Y-116391748D01*
X205007449Y-116513656D01*
X205055015Y-116628491D01*
X205124070Y-116731839D01*
X205211961Y-116819730D01*
X205315309Y-116888785D01*
X205430144Y-116936351D01*
X205552052Y-116960600D01*
X205676348Y-116960600D01*
X205798256Y-116936351D01*
X205913091Y-116888785D01*
X206016439Y-116819730D01*
X206104330Y-116731839D01*
X206173385Y-116628491D01*
X206220951Y-116513656D01*
X206245200Y-116391748D01*
X206245200Y-116267452D01*
X206241222Y-116247452D01*
X215773200Y-116247452D01*
X215773200Y-116371748D01*
X215797449Y-116493656D01*
X215845015Y-116608491D01*
X215914070Y-116711839D01*
X216001961Y-116799730D01*
X216105309Y-116868785D01*
X216220144Y-116916351D01*
X216342052Y-116940600D01*
X216466348Y-116940600D01*
X216588256Y-116916351D01*
X216703091Y-116868785D01*
X216806439Y-116799730D01*
X216894330Y-116711839D01*
X216963385Y-116608491D01*
X217010951Y-116493656D01*
X217035200Y-116371748D01*
X217035200Y-116247452D01*
X217010951Y-116125544D01*
X216963385Y-116010709D01*
X216894330Y-115907361D01*
X216806439Y-115819470D01*
X216703091Y-115750415D01*
X216588256Y-115702849D01*
X216466348Y-115678600D01*
X216342052Y-115678600D01*
X216220144Y-115702849D01*
X216105309Y-115750415D01*
X216001961Y-115819470D01*
X215914070Y-115907361D01*
X215845015Y-116010709D01*
X215797449Y-116125544D01*
X215773200Y-116247452D01*
X206241222Y-116247452D01*
X206220951Y-116145544D01*
X206173385Y-116030709D01*
X206104330Y-115927361D01*
X206016439Y-115839470D01*
X205913091Y-115770415D01*
X205798256Y-115722849D01*
X205676348Y-115698600D01*
X205552052Y-115698600D01*
X205430144Y-115722849D01*
X205315309Y-115770415D01*
X205211961Y-115839470D01*
X205124070Y-115927361D01*
X205055015Y-116030709D01*
X205007449Y-116145544D01*
X204983200Y-116267452D01*
X197931200Y-116267452D01*
X197931200Y-113857452D01*
X226023200Y-113857452D01*
X226023200Y-113981748D01*
X226047449Y-114103656D01*
X226095015Y-114218491D01*
X226164070Y-114321839D01*
X226251961Y-114409730D01*
X226355309Y-114478785D01*
X226470144Y-114526351D01*
X226592052Y-114550600D01*
X226716348Y-114550600D01*
X226838256Y-114526351D01*
X226953091Y-114478785D01*
X227056439Y-114409730D01*
X227144330Y-114321839D01*
X227213385Y-114218491D01*
X227260951Y-114103656D01*
X227285200Y-113981748D01*
X227285200Y-113857452D01*
X227260951Y-113735544D01*
X227213385Y-113620709D01*
X227144330Y-113517361D01*
X227056439Y-113429470D01*
X226953091Y-113360415D01*
X226838256Y-113312849D01*
X226716348Y-113288600D01*
X226592052Y-113288600D01*
X226470144Y-113312849D01*
X226355309Y-113360415D01*
X226251961Y-113429470D01*
X226164070Y-113517361D01*
X226095015Y-113620709D01*
X226047449Y-113735544D01*
X226023200Y-113857452D01*
X197931200Y-113857452D01*
X197931200Y-107982599D01*
X218903200Y-107982599D01*
X218903200Y-108256601D01*
X218956656Y-108525340D01*
X219061512Y-108778485D01*
X219213740Y-109006311D01*
X219407489Y-109200060D01*
X219635315Y-109352288D01*
X219888460Y-109457144D01*
X220157199Y-109510600D01*
X220431201Y-109510600D01*
X220699940Y-109457144D01*
X220953085Y-109352288D01*
X221180911Y-109200060D01*
X221374660Y-109006311D01*
X221526888Y-108778485D01*
X221564200Y-108688406D01*
X221601512Y-108778485D01*
X221753740Y-109006311D01*
X221947489Y-109200060D01*
X222175315Y-109352288D01*
X222428460Y-109457144D01*
X222697199Y-109510600D01*
X222971201Y-109510600D01*
X223239940Y-109457144D01*
X223493085Y-109352288D01*
X223720911Y-109200060D01*
X223914660Y-109006311D01*
X224066888Y-108778485D01*
X224104200Y-108688406D01*
X224141512Y-108778485D01*
X224293740Y-109006311D01*
X224487489Y-109200060D01*
X224715315Y-109352288D01*
X224968460Y-109457144D01*
X225237199Y-109510600D01*
X225511201Y-109510600D01*
X225779940Y-109457144D01*
X226033085Y-109352288D01*
X226260911Y-109200060D01*
X226454660Y-109006311D01*
X226606888Y-108778485D01*
X226711744Y-108525340D01*
X226765200Y-108256601D01*
X226765200Y-107982599D01*
X226711744Y-107713860D01*
X226606888Y-107460715D01*
X226454660Y-107232889D01*
X226260911Y-107039140D01*
X226033085Y-106886912D01*
X225779940Y-106782056D01*
X225511201Y-106728600D01*
X225237199Y-106728600D01*
X224968460Y-106782056D01*
X224715315Y-106886912D01*
X224487489Y-107039140D01*
X224293740Y-107232889D01*
X224141512Y-107460715D01*
X224104200Y-107550794D01*
X224066888Y-107460715D01*
X223914660Y-107232889D01*
X223720911Y-107039140D01*
X223493085Y-106886912D01*
X223239940Y-106782056D01*
X222971201Y-106728600D01*
X222697199Y-106728600D01*
X222428460Y-106782056D01*
X222175315Y-106886912D01*
X221947489Y-107039140D01*
X221753740Y-107232889D01*
X221601512Y-107460715D01*
X221564200Y-107550794D01*
X221526888Y-107460715D01*
X221374660Y-107232889D01*
X221180911Y-107039140D01*
X220953085Y-106886912D01*
X220699940Y-106782056D01*
X220431201Y-106728600D01*
X220157199Y-106728600D01*
X219888460Y-106782056D01*
X219635315Y-106886912D01*
X219407489Y-107039140D01*
X219213740Y-107232889D01*
X219061512Y-107460715D01*
X218956656Y-107713860D01*
X218903200Y-107982599D01*
X197931200Y-107982599D01*
X197931200Y-103567967D01*
X229445276Y-103558236D01*
X229437200Y-118209392D01*
X229437200Y-120649600D01*
X229438286Y-120666177D01*
X229455323Y-120795587D01*
X229463904Y-120827611D01*
X229513854Y-120948201D01*
X229530432Y-120976913D01*
X229609892Y-121080466D01*
X229633334Y-121103908D01*
X229736887Y-121183368D01*
X229765599Y-121199946D01*
X229886189Y-121249896D01*
X229918213Y-121258477D01*
X230047623Y-121275514D01*
X230064200Y-121276600D01*
X233791147Y-121276600D01*
X233765015Y-121315709D01*
X233717449Y-121430544D01*
X233693200Y-121552452D01*
X233693200Y-121676748D01*
X233717449Y-121798656D01*
X233765015Y-121913491D01*
X233834070Y-122016839D01*
X233921961Y-122104730D01*
X234025309Y-122173785D01*
X234140144Y-122221351D01*
X234262052Y-122245600D01*
X234386348Y-122245600D01*
X234508256Y-122221351D01*
X234623091Y-122173785D01*
X234726439Y-122104730D01*
X234814330Y-122016839D01*
X234883385Y-121913491D01*
X234930951Y-121798656D01*
X234955200Y-121676748D01*
X234955200Y-121552452D01*
X234930951Y-121430544D01*
X234883385Y-121315709D01*
X234857253Y-121276600D01*
X236554200Y-121276600D01*
X236570777Y-121275514D01*
X236700187Y-121258477D01*
X236732211Y-121249896D01*
X236852801Y-121199946D01*
X236881513Y-121183368D01*
X236985066Y-121103908D01*
X237008508Y-121080466D01*
X237087968Y-120976913D01*
X237104546Y-120948201D01*
X237154496Y-120827611D01*
X237163077Y-120795587D01*
X237180114Y-120666177D01*
X237181200Y-120649600D01*
X237181200Y-119941342D01*
X237181250Y-119934744D01*
X237188034Y-119487735D01*
X237186753Y-119467709D01*
X237166710Y-119328506D01*
X237160763Y-119304330D01*
X237154841Y-119290297D01*
X237092486Y-119164237D01*
X237079314Y-119143111D01*
X237069320Y-119131617D01*
X236970842Y-119031211D01*
X236951751Y-119015231D01*
X236938677Y-119007417D01*
X236813850Y-118942631D01*
X236790734Y-118933383D01*
X236775879Y-118930024D01*
X236637091Y-118907286D01*
X236617093Y-118905616D01*
X234215333Y-118895508D01*
X234233385Y-118868491D01*
X234280951Y-118753656D01*
X234305200Y-118631748D01*
X234305200Y-118507452D01*
X234280951Y-118385544D01*
X234233385Y-118270709D01*
X234164330Y-118167361D01*
X234076439Y-118079470D01*
X233973091Y-118010415D01*
X233858256Y-117962849D01*
X233736348Y-117938600D01*
X233612052Y-117938600D01*
X233490144Y-117962849D01*
X233375309Y-118010415D01*
X233271961Y-118079470D01*
X233184070Y-118167361D01*
X233115015Y-118270709D01*
X233067449Y-118385544D01*
X233043200Y-118507452D01*
X233043200Y-118631748D01*
X233067449Y-118753656D01*
X233115015Y-118868491D01*
X233130015Y-118890940D01*
X230067121Y-118878049D01*
X230064259Y-115047452D01*
X242833200Y-115047452D01*
X242833200Y-115171748D01*
X242857449Y-115293656D01*
X242905015Y-115408491D01*
X242974070Y-115511839D01*
X243061961Y-115599730D01*
X243165309Y-115668785D01*
X243280144Y-115716351D01*
X243402052Y-115740600D01*
X243526348Y-115740600D01*
X243648256Y-115716351D01*
X243763091Y-115668785D01*
X243866439Y-115599730D01*
X243954330Y-115511839D01*
X244023385Y-115408491D01*
X244070951Y-115293656D01*
X244095200Y-115171748D01*
X244095200Y-115047452D01*
X244070951Y-114925544D01*
X244023385Y-114810709D01*
X243954330Y-114707361D01*
X243866439Y-114619470D01*
X243763091Y-114550415D01*
X243648256Y-114502849D01*
X243526348Y-114478600D01*
X243402052Y-114478600D01*
X243280144Y-114502849D01*
X243165309Y-114550415D01*
X243061961Y-114619470D01*
X242974070Y-114707361D01*
X242905015Y-114810709D01*
X242857449Y-114925544D01*
X242833200Y-115047452D01*
X230064259Y-115047452D01*
X230062757Y-113037452D01*
X232623200Y-113037452D01*
X232623200Y-113161748D01*
X232647449Y-113283656D01*
X232695015Y-113398491D01*
X232764070Y-113501839D01*
X232851961Y-113589730D01*
X232955309Y-113658785D01*
X233070144Y-113706351D01*
X233192052Y-113730600D01*
X233316348Y-113730600D01*
X233438256Y-113706351D01*
X233553091Y-113658785D01*
X233656439Y-113589730D01*
X233744330Y-113501839D01*
X233813385Y-113398491D01*
X233860951Y-113283656D01*
X233885200Y-113161748D01*
X233885200Y-113037452D01*
X233860951Y-112915544D01*
X233813385Y-112800709D01*
X233744330Y-112697361D01*
X233656439Y-112609470D01*
X233553091Y-112540415D01*
X233438256Y-112492849D01*
X233316348Y-112468600D01*
X233192052Y-112468600D01*
X233070144Y-112492849D01*
X232955309Y-112540415D01*
X232851961Y-112609470D01*
X232764070Y-112697361D01*
X232695015Y-112800709D01*
X232647449Y-112915544D01*
X232623200Y-113037452D01*
X230062757Y-113037452D01*
X230061435Y-111267452D01*
X242833200Y-111267452D01*
X242833200Y-111391748D01*
X242857449Y-111513656D01*
X242905015Y-111628491D01*
X242974070Y-111731839D01*
X243061961Y-111819730D01*
X243165309Y-111888785D01*
X243280144Y-111936351D01*
X243402052Y-111960600D01*
X243526348Y-111960600D01*
X243648256Y-111936351D01*
X243763091Y-111888785D01*
X243866439Y-111819730D01*
X243954330Y-111731839D01*
X244023385Y-111628491D01*
X244070951Y-111513656D01*
X244095200Y-111391748D01*
X244095200Y-111267452D01*
X244070951Y-111145544D01*
X244032923Y-111053734D01*
X248203200Y-111053734D01*
X248203200Y-111345466D01*
X248260114Y-111631592D01*
X248371755Y-111901117D01*
X248533832Y-112143683D01*
X248740117Y-112349968D01*
X248919159Y-112469600D01*
X248740117Y-112589232D01*
X248533832Y-112795517D01*
X248371755Y-113038083D01*
X248260114Y-113307608D01*
X248203200Y-113593734D01*
X248203200Y-113885466D01*
X248260114Y-114171592D01*
X248371755Y-114441117D01*
X248533832Y-114683683D01*
X248740117Y-114889968D01*
X248919159Y-115009600D01*
X248740117Y-115129232D01*
X248533832Y-115335517D01*
X248371755Y-115578083D01*
X248260114Y-115847608D01*
X248203200Y-116133734D01*
X248203200Y-116425466D01*
X248260114Y-116711592D01*
X248371755Y-116981117D01*
X248533832Y-117223683D01*
X248740117Y-117429968D01*
X248982683Y-117592045D01*
X249252208Y-117703686D01*
X249538334Y-117760600D01*
X249830066Y-117760600D01*
X250116192Y-117703686D01*
X250385717Y-117592045D01*
X250628283Y-117429968D01*
X250834568Y-117223683D01*
X250996645Y-116981117D01*
X251108286Y-116711592D01*
X251165200Y-116425466D01*
X251165200Y-116133734D01*
X251108286Y-115847608D01*
X250996645Y-115578083D01*
X250834568Y-115335517D01*
X250628283Y-115129232D01*
X250449241Y-115009600D01*
X250628283Y-114889968D01*
X250834568Y-114683683D01*
X250996645Y-114441117D01*
X251108286Y-114171592D01*
X251165200Y-113885466D01*
X251165200Y-113593734D01*
X251108286Y-113307608D01*
X250996645Y-113038083D01*
X250834568Y-112795517D01*
X250628283Y-112589232D01*
X250449241Y-112469600D01*
X250628283Y-112349968D01*
X250834568Y-112143683D01*
X250996645Y-111901117D01*
X251108286Y-111631592D01*
X251165200Y-111345466D01*
X251165200Y-111053734D01*
X251108286Y-110767608D01*
X250996645Y-110498083D01*
X250834568Y-110255517D01*
X250628283Y-110049232D01*
X250385717Y-109887155D01*
X250116192Y-109775514D01*
X249830066Y-109718600D01*
X249538334Y-109718600D01*
X249252208Y-109775514D01*
X248982683Y-109887155D01*
X248740117Y-110049232D01*
X248533832Y-110255517D01*
X248371755Y-110498083D01*
X248260114Y-110767608D01*
X248203200Y-111053734D01*
X244032923Y-111053734D01*
X244023385Y-111030709D01*
X243954330Y-110927361D01*
X243866439Y-110839470D01*
X243763091Y-110770415D01*
X243648256Y-110722849D01*
X243526348Y-110698600D01*
X243402052Y-110698600D01*
X243280144Y-110722849D01*
X243165309Y-110770415D01*
X243061961Y-110839470D01*
X242974070Y-110927361D01*
X242905015Y-111030709D01*
X242857449Y-111145544D01*
X242833200Y-111267452D01*
X230061435Y-111267452D01*
X230057504Y-106008960D01*
X232893200Y-106008960D01*
X232893200Y-106330240D01*
X232955878Y-106645345D01*
X233078826Y-106942168D01*
X233257319Y-107209302D01*
X233484498Y-107436481D01*
X233751632Y-107614974D01*
X234048455Y-107737922D01*
X234363560Y-107800600D01*
X234684840Y-107800600D01*
X234999945Y-107737922D01*
X235296768Y-107614974D01*
X235563902Y-107436481D01*
X235791081Y-107209302D01*
X235969574Y-106942168D01*
X236092522Y-106645345D01*
X236155200Y-106330240D01*
X236155200Y-106008960D01*
X236092522Y-105693855D01*
X235969574Y-105397032D01*
X235791081Y-105129898D01*
X235563902Y-104902719D01*
X235296768Y-104724226D01*
X234999945Y-104601278D01*
X234684840Y-104538600D01*
X234363560Y-104538600D01*
X234048455Y-104601278D01*
X233751632Y-104724226D01*
X233484498Y-104902719D01*
X233257319Y-105129898D01*
X233078826Y-105397032D01*
X232955878Y-105693855D01*
X232893200Y-106008960D01*
X230057504Y-106008960D01*
X230055672Y-103558047D01*
X253743200Y-103550733D01*
X253743201Y-136942621D01*
G37*
X253743201Y-136942621D02*
X246538633Y-136942601D01*
X246520868Y-136943850D01*
X246382360Y-136963417D01*
X246348220Y-136973259D01*
X246220553Y-137030429D01*
X246190476Y-137049344D01*
X246083642Y-137139643D01*
X246059981Y-137166149D01*
X245982342Y-137282509D01*
X245973521Y-137297980D01*
X243774631Y-141872788D01*
X240704163Y-141882489D01*
X240703757Y-141882491D01*
X240700609Y-141882511D01*
X240700215Y-141882514D01*
X237587800Y-141911946D01*
X234809599Y-137265968D01*
X234800372Y-137252568D01*
X234721273Y-137152136D01*
X234698085Y-137129404D01*
X234596103Y-137052312D01*
X234567909Y-137036203D01*
X234449712Y-136987493D01*
X234418355Y-136979060D01*
X234291669Y-136961914D01*
X234275440Y-136960770D01*
X229932139Y-136933281D01*
X229935000Y-136607452D01*
X242943200Y-136607452D01*
X242943200Y-136731748D01*
X242967449Y-136853656D01*
X243015015Y-136968491D01*
X243084070Y-137071839D01*
X243171961Y-137159730D01*
X243275309Y-137228785D01*
X243390144Y-137276351D01*
X243512052Y-137300600D01*
X243636348Y-137300600D01*
X243758256Y-137276351D01*
X243873091Y-137228785D01*
X243976439Y-137159730D01*
X244064330Y-137071839D01*
X244133385Y-136968491D01*
X244180951Y-136853656D01*
X244205200Y-136731748D01*
X244205200Y-136607452D01*
X244180951Y-136485544D01*
X244133385Y-136370709D01*
X244064330Y-136267361D01*
X243976439Y-136179470D01*
X243873091Y-136110415D01*
X243758256Y-136062849D01*
X243636348Y-136038600D01*
X243512052Y-136038600D01*
X243390144Y-136062849D01*
X243275309Y-136110415D01*
X243171961Y-136179470D01*
X243084070Y-136267361D01*
X243015015Y-136370709D01*
X242967449Y-136485544D01*
X242943200Y-136607452D01*
X229935000Y-136607452D01*
X229992075Y-130107452D01*
X236793200Y-130107452D01*
X236793200Y-130231748D01*
X236817449Y-130353656D01*
X236865015Y-130468491D01*
X236934070Y-130571839D01*
X237021961Y-130659730D01*
X237125309Y-130728785D01*
X237240144Y-130776351D01*
X237362052Y-130800600D01*
X237486348Y-130800600D01*
X237608256Y-130776351D01*
X237723091Y-130728785D01*
X237826439Y-130659730D01*
X237914330Y-130571839D01*
X237983385Y-130468491D01*
X238030951Y-130353656D01*
X238055200Y-130231748D01*
X238055200Y-130107452D01*
X238041277Y-130037452D01*
X246703200Y-130037452D01*
X246703200Y-130161748D01*
X246727449Y-130283656D01*
X246775015Y-130398491D01*
X246844070Y-130501839D01*
X246931961Y-130589730D01*
X247035309Y-130658785D01*
X247150144Y-130706351D01*
X247272052Y-130730600D01*
X247396348Y-130730600D01*
X247518256Y-130706351D01*
X247633091Y-130658785D01*
X247736439Y-130589730D01*
X247824330Y-130501839D01*
X247879280Y-130419600D01*
X248201357Y-130419600D01*
X248201357Y-132619600D01*
X248208713Y-132694289D01*
X248230499Y-132766108D01*
X248265878Y-132832296D01*
X248313489Y-132890311D01*
X248371504Y-132937922D01*
X248437692Y-132973301D01*
X248509511Y-132995087D01*
X248584200Y-133002443D01*
X250784200Y-133002443D01*
X250858889Y-132995087D01*
X250930708Y-132973301D01*
X250996896Y-132937922D01*
X251054911Y-132890311D01*
X251102522Y-132832296D01*
X251137901Y-132766108D01*
X251159687Y-132694289D01*
X251167043Y-132619600D01*
X251167043Y-130419600D01*
X251159687Y-130344911D01*
X251137901Y-130273092D01*
X251102522Y-130206904D01*
X251054911Y-130148889D01*
X250996896Y-130101278D01*
X250930708Y-130065899D01*
X250858889Y-130044113D01*
X250784200Y-130036757D01*
X250721494Y-130036757D01*
X250834568Y-129923683D01*
X250996645Y-129681117D01*
X251108286Y-129411592D01*
X251165200Y-129125466D01*
X251165200Y-128833734D01*
X251108286Y-128547608D01*
X250996645Y-128278083D01*
X250834568Y-128035517D01*
X250628283Y-127829232D01*
X250449241Y-127709600D01*
X250628283Y-127589968D01*
X250834568Y-127383683D01*
X250996645Y-127141117D01*
X251108286Y-126871592D01*
X251165200Y-126585466D01*
X251165200Y-126293734D01*
X251108286Y-126007608D01*
X250996645Y-125738083D01*
X250834568Y-125495517D01*
X250628283Y-125289232D01*
X250449241Y-125169600D01*
X250628283Y-125049968D01*
X250834568Y-124843683D01*
X250996645Y-124601117D01*
X251108286Y-124331592D01*
X251165200Y-124045466D01*
X251165200Y-123753734D01*
X251108286Y-123467608D01*
X250996645Y-123198083D01*
X250834568Y-122955517D01*
X250628283Y-122749232D01*
X250449241Y-122629600D01*
X250628283Y-122509968D01*
X250834568Y-122303683D01*
X250996645Y-122061117D01*
X251108286Y-121791592D01*
X251165200Y-121505466D01*
X251165200Y-121213734D01*
X251108286Y-120927608D01*
X250996645Y-120658083D01*
X250834568Y-120415517D01*
X250628283Y-120209232D01*
X250385717Y-120047155D01*
X250116192Y-119935514D01*
X249830066Y-119878600D01*
X249538334Y-119878600D01*
X249252208Y-119935514D01*
X248982683Y-120047155D01*
X248740117Y-120209232D01*
X248533832Y-120415517D01*
X248371755Y-120658083D01*
X248260114Y-120927608D01*
X248203200Y-121213734D01*
X248203200Y-121505466D01*
X248260114Y-121791592D01*
X248371755Y-122061117D01*
X248533832Y-122303683D01*
X248740117Y-122509968D01*
X248919159Y-122629600D01*
X248740117Y-122749232D01*
X248533832Y-122955517D01*
X248371755Y-123198083D01*
X248260114Y-123467608D01*
X248203200Y-123753734D01*
X248203200Y-124045466D01*
X248260114Y-124331592D01*
X248371755Y-124601117D01*
X248533832Y-124843683D01*
X248740117Y-125049968D01*
X248919159Y-125169600D01*
X248740117Y-125289232D01*
X248533832Y-125495517D01*
X248371755Y-125738083D01*
X248260114Y-126007608D01*
X248203200Y-126293734D01*
X248203200Y-126585466D01*
X248260114Y-126871592D01*
X248371755Y-127141117D01*
X248533832Y-127383683D01*
X248740117Y-127589968D01*
X248919159Y-127709600D01*
X248740117Y-127829232D01*
X248533832Y-128035517D01*
X248371755Y-128278083D01*
X248260114Y-128547608D01*
X248203200Y-128833734D01*
X248203200Y-129125466D01*
X248260114Y-129411592D01*
X248371755Y-129681117D01*
X248533832Y-129923683D01*
X248646906Y-130036757D01*
X248584200Y-130036757D01*
X248509511Y-130044113D01*
X248437692Y-130065899D01*
X248371504Y-130101278D01*
X248313489Y-130148889D01*
X248265878Y-130206904D01*
X248230499Y-130273092D01*
X248208713Y-130344911D01*
X248201357Y-130419600D01*
X247879280Y-130419600D01*
X247893385Y-130398491D01*
X247940951Y-130283656D01*
X247965200Y-130161748D01*
X247965200Y-130037452D01*
X247940951Y-129915544D01*
X247893385Y-129800709D01*
X247824330Y-129697361D01*
X247736439Y-129609470D01*
X247633091Y-129540415D01*
X247518256Y-129492849D01*
X247396348Y-129468600D01*
X247272052Y-129468600D01*
X247150144Y-129492849D01*
X247035309Y-129540415D01*
X246931961Y-129609470D01*
X246844070Y-129697361D01*
X246775015Y-129800709D01*
X246727449Y-129915544D01*
X246703200Y-130037452D01*
X238041277Y-130037452D01*
X238030951Y-129985544D01*
X237983385Y-129870709D01*
X237914330Y-129767361D01*
X237826439Y-129679470D01*
X237723091Y-129610415D01*
X237608256Y-129562849D01*
X237486348Y-129538600D01*
X237362052Y-129538600D01*
X237240144Y-129562849D01*
X237125309Y-129610415D01*
X237021961Y-129679470D01*
X236934070Y-129767361D01*
X236865015Y-129870709D01*
X236817449Y-129985544D01*
X236793200Y-130107452D01*
X229992075Y-130107452D01*
X230006564Y-128457452D01*
X236793200Y-128457452D01*
X236793200Y-128581748D01*
X236817449Y-128703656D01*
X236865015Y-128818491D01*
X236934070Y-128921839D01*
X237021961Y-129009730D01*
X237125309Y-129078785D01*
X237240144Y-129126351D01*
X237362052Y-129150600D01*
X237486348Y-129150600D01*
X237608256Y-129126351D01*
X237723091Y-129078785D01*
X237826439Y-129009730D01*
X237914330Y-128921839D01*
X237983385Y-128818491D01*
X238030951Y-128703656D01*
X238055200Y-128581748D01*
X238055200Y-128457452D01*
X246693200Y-128457452D01*
X246693200Y-128581748D01*
X246717449Y-128703656D01*
X246765015Y-128818491D01*
X246834070Y-128921839D01*
X246921961Y-129009730D01*
X247025309Y-129078785D01*
X247140144Y-129126351D01*
X247262052Y-129150600D01*
X247386348Y-129150600D01*
X247508256Y-129126351D01*
X247623091Y-129078785D01*
X247726439Y-129009730D01*
X247814330Y-128921839D01*
X247883385Y-128818491D01*
X247930951Y-128703656D01*
X247955200Y-128581748D01*
X247955200Y-128457452D01*
X247930951Y-128335544D01*
X247883385Y-128220709D01*
X247814330Y-128117361D01*
X247726439Y-128029470D01*
X247623091Y-127960415D01*
X247508256Y-127912849D01*
X247386348Y-127888600D01*
X247262052Y-127888600D01*
X247140144Y-127912849D01*
X247025309Y-127960415D01*
X246921961Y-128029470D01*
X246834070Y-128117361D01*
X246765015Y-128220709D01*
X246717449Y-128335544D01*
X246693200Y-128457452D01*
X238055200Y-128457452D01*
X238030951Y-128335544D01*
X237983385Y-128220709D01*
X237914330Y-128117361D01*
X237826439Y-128029470D01*
X237723091Y-127960415D01*
X237608256Y-127912849D01*
X237486348Y-127888600D01*
X237362052Y-127888600D01*
X237240144Y-127912849D01*
X237125309Y-127960415D01*
X237021961Y-128029470D01*
X236934070Y-128117361D01*
X236865015Y-128220709D01*
X236817449Y-128335544D01*
X236793200Y-128457452D01*
X230006564Y-128457452D01*
X230011733Y-127868815D01*
X230026413Y-127764382D01*
X230064332Y-127675035D01*
X230124080Y-127598543D01*
X230201586Y-127540115D01*
X230291571Y-127503732D01*
X230396229Y-127490848D01*
X236555053Y-127542386D01*
X236571704Y-127541430D01*
X236701750Y-127525347D01*
X236733961Y-127516968D01*
X236855363Y-127467649D01*
X236884292Y-127451190D01*
X236988711Y-127372023D01*
X237012370Y-127348612D01*
X237092634Y-127245034D01*
X237109397Y-127216281D01*
X237159994Y-127095407D01*
X237168712Y-127063285D01*
X237186166Y-126933415D01*
X237187298Y-126916776D01*
X237190060Y-125651832D01*
X237189004Y-125635213D01*
X237172167Y-125505457D01*
X237163615Y-125473342D01*
X237113692Y-125352398D01*
X237097101Y-125323601D01*
X237017509Y-125219749D01*
X236994015Y-125196243D01*
X236890206Y-125116597D01*
X236861418Y-125099991D01*
X236740499Y-125050003D01*
X236708389Y-125041433D01*
X236578643Y-125024528D01*
X236562024Y-125023464D01*
X234948971Y-125026134D01*
X234930951Y-124935544D01*
X234883385Y-124820709D01*
X234814330Y-124717361D01*
X234726439Y-124629470D01*
X234623091Y-124560415D01*
X234508256Y-124512849D01*
X234386348Y-124488600D01*
X234262052Y-124488600D01*
X234140144Y-124512849D01*
X234025309Y-124560415D01*
X233999200Y-124577860D01*
X233973091Y-124560415D01*
X233858256Y-124512849D01*
X233736348Y-124488600D01*
X233612052Y-124488600D01*
X233490144Y-124512849D01*
X233375309Y-124560415D01*
X233271961Y-124629470D01*
X233184070Y-124717361D01*
X233115015Y-124820709D01*
X233067449Y-124935544D01*
X233047526Y-125035702D01*
X229675430Y-125062586D01*
X229671946Y-125062600D01*
X229614200Y-125062600D01*
X229589424Y-125065040D01*
X229565598Y-125072268D01*
X229523172Y-125089842D01*
X229501215Y-125101578D01*
X229481970Y-125117372D01*
X229466177Y-125136618D01*
X229454442Y-125158572D01*
X229436868Y-125200998D01*
X229429641Y-125224822D01*
X229427200Y-125249600D01*
X229427200Y-126978688D01*
X229427198Y-126980168D01*
X229389701Y-139654109D01*
X229389701Y-139654281D01*
X229314844Y-161538600D01*
X197931200Y-161538600D01*
X197931200Y-156707452D01*
X210353200Y-156707452D01*
X210353200Y-156831748D01*
X210377449Y-156953656D01*
X210425015Y-157068491D01*
X210494070Y-157171839D01*
X210581961Y-157259730D01*
X210685309Y-157328785D01*
X210800144Y-157376351D01*
X210922052Y-157400600D01*
X211046348Y-157400600D01*
X211168256Y-157376351D01*
X211283091Y-157328785D01*
X211386439Y-157259730D01*
X211474330Y-157171839D01*
X211543385Y-157068491D01*
X211590951Y-156953656D01*
X211615200Y-156831748D01*
X211615200Y-156707452D01*
X211590951Y-156585544D01*
X211543385Y-156470709D01*
X211474330Y-156367361D01*
X211386439Y-156279470D01*
X211283091Y-156210415D01*
X211168256Y-156162849D01*
X211046348Y-156138600D01*
X210922052Y-156138600D01*
X210800144Y-156162849D01*
X210685309Y-156210415D01*
X210581961Y-156279470D01*
X210494070Y-156367361D01*
X210425015Y-156470709D01*
X210377449Y-156585544D01*
X210353200Y-156707452D01*
X197931200Y-156707452D01*
X197931200Y-137957452D01*
X210353200Y-137957452D01*
X210353200Y-138081748D01*
X210377449Y-138203656D01*
X210425015Y-138318491D01*
X210494070Y-138421839D01*
X210581961Y-138509730D01*
X210685309Y-138578785D01*
X210800144Y-138626351D01*
X210922052Y-138650600D01*
X211046348Y-138650600D01*
X211168256Y-138626351D01*
X211283091Y-138578785D01*
X211386439Y-138509730D01*
X211474330Y-138421839D01*
X211543385Y-138318491D01*
X211590951Y-138203656D01*
X211615200Y-138081748D01*
X211615200Y-137957452D01*
X211590951Y-137835544D01*
X211543385Y-137720709D01*
X211474330Y-137617361D01*
X211386439Y-137529470D01*
X211283091Y-137460415D01*
X211168256Y-137412849D01*
X211046348Y-137388600D01*
X210922052Y-137388600D01*
X210800144Y-137412849D01*
X210685309Y-137460415D01*
X210581961Y-137529470D01*
X210494070Y-137617361D01*
X210425015Y-137720709D01*
X210377449Y-137835544D01*
X210353200Y-137957452D01*
X197931200Y-137957452D01*
X197931200Y-135107452D01*
X221043200Y-135107452D01*
X221043200Y-135231748D01*
X221067449Y-135353656D01*
X221115015Y-135468491D01*
X221184070Y-135571839D01*
X221271961Y-135659730D01*
X221375309Y-135728785D01*
X221490144Y-135776351D01*
X221612052Y-135800600D01*
X221736348Y-135800600D01*
X221858256Y-135776351D01*
X221973091Y-135728785D01*
X222076439Y-135659730D01*
X222164330Y-135571839D01*
X222233385Y-135468491D01*
X222280951Y-135353656D01*
X222305200Y-135231748D01*
X222305200Y-135107452D01*
X222280951Y-134985544D01*
X222233385Y-134870709D01*
X222164330Y-134767361D01*
X222076439Y-134679470D01*
X221973091Y-134610415D01*
X221858256Y-134562849D01*
X221736348Y-134538600D01*
X221612052Y-134538600D01*
X221490144Y-134562849D01*
X221375309Y-134610415D01*
X221271961Y-134679470D01*
X221184070Y-134767361D01*
X221115015Y-134870709D01*
X221067449Y-134985544D01*
X221043200Y-135107452D01*
X197931200Y-135107452D01*
X197931200Y-123607452D01*
X242863200Y-123607452D01*
X242863200Y-123731748D01*
X242887449Y-123853656D01*
X242935015Y-123968491D01*
X243004070Y-124071839D01*
X243091961Y-124159730D01*
X243195309Y-124228785D01*
X243310144Y-124276351D01*
X243432052Y-124300600D01*
X243556348Y-124300600D01*
X243678256Y-124276351D01*
X243793091Y-124228785D01*
X243896439Y-124159730D01*
X243984330Y-124071839D01*
X244053385Y-123968491D01*
X244100951Y-123853656D01*
X244125200Y-123731748D01*
X244125200Y-123607452D01*
X244100951Y-123485544D01*
X244053385Y-123370709D01*
X243984330Y-123267361D01*
X243896439Y-123179470D01*
X243793091Y-123110415D01*
X243678256Y-123062849D01*
X243556348Y-123038600D01*
X243432052Y-123038600D01*
X243310144Y-123062849D01*
X243195309Y-123110415D01*
X243091961Y-123179470D01*
X243004070Y-123267361D01*
X242935015Y-123370709D01*
X242887449Y-123485544D01*
X242863200Y-123607452D01*
X197931200Y-123607452D01*
X197931200Y-119357452D01*
X225093200Y-119357452D01*
X225093200Y-119481748D01*
X225117449Y-119603656D01*
X225165015Y-119718491D01*
X225234070Y-119821839D01*
X225256831Y-119844600D01*
X225234070Y-119867361D01*
X225165015Y-119970709D01*
X225117449Y-120085544D01*
X225093200Y-120207452D01*
X225093200Y-120331748D01*
X225117449Y-120453656D01*
X225165015Y-120568491D01*
X225234070Y-120671839D01*
X225321961Y-120759730D01*
X225425309Y-120828785D01*
X225540144Y-120876351D01*
X225662052Y-120900600D01*
X225786348Y-120900600D01*
X225908256Y-120876351D01*
X226023091Y-120828785D01*
X226126439Y-120759730D01*
X226214330Y-120671839D01*
X226283385Y-120568491D01*
X226330951Y-120453656D01*
X226355200Y-120331748D01*
X226355200Y-120207452D01*
X226330951Y-120085544D01*
X226283385Y-119970709D01*
X226214330Y-119867361D01*
X226191569Y-119844600D01*
X226214330Y-119821839D01*
X226283385Y-119718491D01*
X226330951Y-119603656D01*
X226355200Y-119481748D01*
X226355200Y-119357452D01*
X226330951Y-119235544D01*
X226283385Y-119120709D01*
X226214330Y-119017361D01*
X226126439Y-118929470D01*
X226023091Y-118860415D01*
X225908256Y-118812849D01*
X225786348Y-118788600D01*
X225662052Y-118788600D01*
X225540144Y-118812849D01*
X225425309Y-118860415D01*
X225321961Y-118929470D01*
X225234070Y-119017361D01*
X225165015Y-119120709D01*
X225117449Y-119235544D01*
X225093200Y-119357452D01*
X197931200Y-119357452D01*
X197931200Y-118217452D01*
X202513200Y-118217452D01*
X202513200Y-118341748D01*
X202537449Y-118463656D01*
X202585015Y-118578491D01*
X202654070Y-118681839D01*
X202741961Y-118769730D01*
X202845309Y-118838785D01*
X202960144Y-118886351D01*
X203082052Y-118910600D01*
X203206348Y-118910600D01*
X203328256Y-118886351D01*
X203443091Y-118838785D01*
X203546439Y-118769730D01*
X203634330Y-118681839D01*
X203703385Y-118578491D01*
X203750951Y-118463656D01*
X203775200Y-118341748D01*
X203775200Y-118217452D01*
X203773211Y-118207452D01*
X210053200Y-118207452D01*
X210053200Y-118331748D01*
X210077449Y-118453656D01*
X210125015Y-118568491D01*
X210194070Y-118671839D01*
X210281961Y-118759730D01*
X210385309Y-118828785D01*
X210500144Y-118876351D01*
X210622052Y-118900600D01*
X210746348Y-118900600D01*
X210868256Y-118876351D01*
X210983091Y-118828785D01*
X211086439Y-118759730D01*
X211174330Y-118671839D01*
X211243385Y-118568491D01*
X211290951Y-118453656D01*
X211315200Y-118331748D01*
X211315200Y-118247452D01*
X219623200Y-118247452D01*
X219623200Y-118371748D01*
X219647449Y-118493656D01*
X219695015Y-118608491D01*
X219764070Y-118711839D01*
X219851961Y-118799730D01*
X219955309Y-118868785D01*
X220070144Y-118916351D01*
X220192052Y-118940600D01*
X220316348Y-118940600D01*
X220438256Y-118916351D01*
X220553091Y-118868785D01*
X220656439Y-118799730D01*
X220744330Y-118711839D01*
X220813385Y-118608491D01*
X220860951Y-118493656D01*
X220885200Y-118371748D01*
X220885200Y-118247452D01*
X220860951Y-118125544D01*
X220813385Y-118010709D01*
X220744330Y-117907361D01*
X220656439Y-117819470D01*
X220553091Y-117750415D01*
X220438256Y-117702849D01*
X220316348Y-117678600D01*
X220192052Y-117678600D01*
X220070144Y-117702849D01*
X219955309Y-117750415D01*
X219851961Y-117819470D01*
X219764070Y-117907361D01*
X219695015Y-118010709D01*
X219647449Y-118125544D01*
X219623200Y-118247452D01*
X211315200Y-118247452D01*
X211315200Y-118207452D01*
X211290951Y-118085544D01*
X211243385Y-117970709D01*
X211174330Y-117867361D01*
X211086439Y-117779470D01*
X210983091Y-117710415D01*
X210868256Y-117662849D01*
X210746348Y-117638600D01*
X210622052Y-117638600D01*
X210500144Y-117662849D01*
X210385309Y-117710415D01*
X210281961Y-117779470D01*
X210194070Y-117867361D01*
X210125015Y-117970709D01*
X210077449Y-118085544D01*
X210053200Y-118207452D01*
X203773211Y-118207452D01*
X203750951Y-118095544D01*
X203703385Y-117980709D01*
X203634330Y-117877361D01*
X203546439Y-117789470D01*
X203443091Y-117720415D01*
X203328256Y-117672849D01*
X203206348Y-117648600D01*
X203082052Y-117648600D01*
X202960144Y-117672849D01*
X202845309Y-117720415D01*
X202741961Y-117789470D01*
X202654070Y-117877361D01*
X202585015Y-117980709D01*
X202537449Y-118095544D01*
X202513200Y-118217452D01*
X197931200Y-118217452D01*
X197931200Y-116267452D01*
X204983200Y-116267452D01*
X204983200Y-116391748D01*
X205007449Y-116513656D01*
X205055015Y-116628491D01*
X205124070Y-116731839D01*
X205211961Y-116819730D01*
X205315309Y-116888785D01*
X205430144Y-116936351D01*
X205552052Y-116960600D01*
X205676348Y-116960600D01*
X205798256Y-116936351D01*
X205913091Y-116888785D01*
X206016439Y-116819730D01*
X206104330Y-116731839D01*
X206173385Y-116628491D01*
X206220951Y-116513656D01*
X206245200Y-116391748D01*
X206245200Y-116267452D01*
X206241222Y-116247452D01*
X215773200Y-116247452D01*
X215773200Y-116371748D01*
X215797449Y-116493656D01*
X215845015Y-116608491D01*
X215914070Y-116711839D01*
X216001961Y-116799730D01*
X216105309Y-116868785D01*
X216220144Y-116916351D01*
X216342052Y-116940600D01*
X216466348Y-116940600D01*
X216588256Y-116916351D01*
X216703091Y-116868785D01*
X216806439Y-116799730D01*
X216894330Y-116711839D01*
X216963385Y-116608491D01*
X217010951Y-116493656D01*
X217035200Y-116371748D01*
X217035200Y-116247452D01*
X217010951Y-116125544D01*
X216963385Y-116010709D01*
X216894330Y-115907361D01*
X216806439Y-115819470D01*
X216703091Y-115750415D01*
X216588256Y-115702849D01*
X216466348Y-115678600D01*
X216342052Y-115678600D01*
X216220144Y-115702849D01*
X216105309Y-115750415D01*
X216001961Y-115819470D01*
X215914070Y-115907361D01*
X215845015Y-116010709D01*
X215797449Y-116125544D01*
X215773200Y-116247452D01*
X206241222Y-116247452D01*
X206220951Y-116145544D01*
X206173385Y-116030709D01*
X206104330Y-115927361D01*
X206016439Y-115839470D01*
X205913091Y-115770415D01*
X205798256Y-115722849D01*
X205676348Y-115698600D01*
X205552052Y-115698600D01*
X205430144Y-115722849D01*
X205315309Y-115770415D01*
X205211961Y-115839470D01*
X205124070Y-115927361D01*
X205055015Y-116030709D01*
X205007449Y-116145544D01*
X204983200Y-116267452D01*
X197931200Y-116267452D01*
X197931200Y-113857452D01*
X226023200Y-113857452D01*
X226023200Y-113981748D01*
X226047449Y-114103656D01*
X226095015Y-114218491D01*
X226164070Y-114321839D01*
X226251961Y-114409730D01*
X226355309Y-114478785D01*
X226470144Y-114526351D01*
X226592052Y-114550600D01*
X226716348Y-114550600D01*
X226838256Y-114526351D01*
X226953091Y-114478785D01*
X227056439Y-114409730D01*
X227144330Y-114321839D01*
X227213385Y-114218491D01*
X227260951Y-114103656D01*
X227285200Y-113981748D01*
X227285200Y-113857452D01*
X227260951Y-113735544D01*
X227213385Y-113620709D01*
X227144330Y-113517361D01*
X227056439Y-113429470D01*
X226953091Y-113360415D01*
X226838256Y-113312849D01*
X226716348Y-113288600D01*
X226592052Y-113288600D01*
X226470144Y-113312849D01*
X226355309Y-113360415D01*
X226251961Y-113429470D01*
X226164070Y-113517361D01*
X226095015Y-113620709D01*
X226047449Y-113735544D01*
X226023200Y-113857452D01*
X197931200Y-113857452D01*
X197931200Y-107982599D01*
X218903200Y-107982599D01*
X218903200Y-108256601D01*
X218956656Y-108525340D01*
X219061512Y-108778485D01*
X219213740Y-109006311D01*
X219407489Y-109200060D01*
X219635315Y-109352288D01*
X219888460Y-109457144D01*
X220157199Y-109510600D01*
X220431201Y-109510600D01*
X220699940Y-109457144D01*
X220953085Y-109352288D01*
X221180911Y-109200060D01*
X221374660Y-109006311D01*
X221526888Y-108778485D01*
X221564200Y-108688406D01*
X221601512Y-108778485D01*
X221753740Y-109006311D01*
X221947489Y-109200060D01*
X222175315Y-109352288D01*
X222428460Y-109457144D01*
X222697199Y-109510600D01*
X222971201Y-109510600D01*
X223239940Y-109457144D01*
X223493085Y-109352288D01*
X223720911Y-109200060D01*
X223914660Y-109006311D01*
X224066888Y-108778485D01*
X224104200Y-108688406D01*
X224141512Y-108778485D01*
X224293740Y-109006311D01*
X224487489Y-109200060D01*
X224715315Y-109352288D01*
X224968460Y-109457144D01*
X225237199Y-109510600D01*
X225511201Y-109510600D01*
X225779940Y-109457144D01*
X226033085Y-109352288D01*
X226260911Y-109200060D01*
X226454660Y-109006311D01*
X226606888Y-108778485D01*
X226711744Y-108525340D01*
X226765200Y-108256601D01*
X226765200Y-107982599D01*
X226711744Y-107713860D01*
X226606888Y-107460715D01*
X226454660Y-107232889D01*
X226260911Y-107039140D01*
X226033085Y-106886912D01*
X225779940Y-106782056D01*
X225511201Y-106728600D01*
X225237199Y-106728600D01*
X224968460Y-106782056D01*
X224715315Y-106886912D01*
X224487489Y-107039140D01*
X224293740Y-107232889D01*
X224141512Y-107460715D01*
X224104200Y-107550794D01*
X224066888Y-107460715D01*
X223914660Y-107232889D01*
X223720911Y-107039140D01*
X223493085Y-106886912D01*
X223239940Y-106782056D01*
X222971201Y-106728600D01*
X222697199Y-106728600D01*
X222428460Y-106782056D01*
X222175315Y-106886912D01*
X221947489Y-107039140D01*
X221753740Y-107232889D01*
X221601512Y-107460715D01*
X221564200Y-107550794D01*
X221526888Y-107460715D01*
X221374660Y-107232889D01*
X221180911Y-107039140D01*
X220953085Y-106886912D01*
X220699940Y-106782056D01*
X220431201Y-106728600D01*
X220157199Y-106728600D01*
X219888460Y-106782056D01*
X219635315Y-106886912D01*
X219407489Y-107039140D01*
X219213740Y-107232889D01*
X219061512Y-107460715D01*
X218956656Y-107713860D01*
X218903200Y-107982599D01*
X197931200Y-107982599D01*
X197931200Y-103567967D01*
X229445276Y-103558236D01*
X229437200Y-118209392D01*
X229437200Y-120649600D01*
X229438286Y-120666177D01*
X229455323Y-120795587D01*
X229463904Y-120827611D01*
X229513854Y-120948201D01*
X229530432Y-120976913D01*
X229609892Y-121080466D01*
X229633334Y-121103908D01*
X229736887Y-121183368D01*
X229765599Y-121199946D01*
X229886189Y-121249896D01*
X229918213Y-121258477D01*
X230047623Y-121275514D01*
X230064200Y-121276600D01*
X233791147Y-121276600D01*
X233765015Y-121315709D01*
X233717449Y-121430544D01*
X233693200Y-121552452D01*
X233693200Y-121676748D01*
X233717449Y-121798656D01*
X233765015Y-121913491D01*
X233834070Y-122016839D01*
X233921961Y-122104730D01*
X234025309Y-122173785D01*
X234140144Y-122221351D01*
X234262052Y-122245600D01*
X234386348Y-122245600D01*
X234508256Y-122221351D01*
X234623091Y-122173785D01*
X234726439Y-122104730D01*
X234814330Y-122016839D01*
X234883385Y-121913491D01*
X234930951Y-121798656D01*
X234955200Y-121676748D01*
X234955200Y-121552452D01*
X234930951Y-121430544D01*
X234883385Y-121315709D01*
X234857253Y-121276600D01*
X236554200Y-121276600D01*
X236570777Y-121275514D01*
X236700187Y-121258477D01*
X236732211Y-121249896D01*
X236852801Y-121199946D01*
X236881513Y-121183368D01*
X236985066Y-121103908D01*
X237008508Y-121080466D01*
X237087968Y-120976913D01*
X237104546Y-120948201D01*
X237154496Y-120827611D01*
X237163077Y-120795587D01*
X237180114Y-120666177D01*
X237181200Y-120649600D01*
X237181200Y-119941342D01*
X237181250Y-119934744D01*
X237188034Y-119487735D01*
X237186753Y-119467709D01*
X237166710Y-119328506D01*
X237160763Y-119304330D01*
X237154841Y-119290297D01*
X237092486Y-119164237D01*
X237079314Y-119143111D01*
X237069320Y-119131617D01*
X236970842Y-119031211D01*
X236951751Y-119015231D01*
X236938677Y-119007417D01*
X236813850Y-118942631D01*
X236790734Y-118933383D01*
X236775879Y-118930024D01*
X236637091Y-118907286D01*
X236617093Y-118905616D01*
X234215333Y-118895508D01*
X234233385Y-118868491D01*
X234280951Y-118753656D01*
X234305200Y-118631748D01*
X234305200Y-118507452D01*
X234280951Y-118385544D01*
X234233385Y-118270709D01*
X234164330Y-118167361D01*
X234076439Y-118079470D01*
X233973091Y-118010415D01*
X233858256Y-117962849D01*
X233736348Y-117938600D01*
X233612052Y-117938600D01*
X233490144Y-117962849D01*
X233375309Y-118010415D01*
X233271961Y-118079470D01*
X233184070Y-118167361D01*
X233115015Y-118270709D01*
X233067449Y-118385544D01*
X233043200Y-118507452D01*
X233043200Y-118631748D01*
X233067449Y-118753656D01*
X233115015Y-118868491D01*
X233130015Y-118890940D01*
X230067121Y-118878049D01*
X230064259Y-115047452D01*
X242833200Y-115047452D01*
X242833200Y-115171748D01*
X242857449Y-115293656D01*
X242905015Y-115408491D01*
X242974070Y-115511839D01*
X243061961Y-115599730D01*
X243165309Y-115668785D01*
X243280144Y-115716351D01*
X243402052Y-115740600D01*
X243526348Y-115740600D01*
X243648256Y-115716351D01*
X243763091Y-115668785D01*
X243866439Y-115599730D01*
X243954330Y-115511839D01*
X244023385Y-115408491D01*
X244070951Y-115293656D01*
X244095200Y-115171748D01*
X244095200Y-115047452D01*
X244070951Y-114925544D01*
X244023385Y-114810709D01*
X243954330Y-114707361D01*
X243866439Y-114619470D01*
X243763091Y-114550415D01*
X243648256Y-114502849D01*
X243526348Y-114478600D01*
X243402052Y-114478600D01*
X243280144Y-114502849D01*
X243165309Y-114550415D01*
X243061961Y-114619470D01*
X242974070Y-114707361D01*
X242905015Y-114810709D01*
X242857449Y-114925544D01*
X242833200Y-115047452D01*
X230064259Y-115047452D01*
X230062757Y-113037452D01*
X232623200Y-113037452D01*
X232623200Y-113161748D01*
X232647449Y-113283656D01*
X232695015Y-113398491D01*
X232764070Y-113501839D01*
X232851961Y-113589730D01*
X232955309Y-113658785D01*
X233070144Y-113706351D01*
X233192052Y-113730600D01*
X233316348Y-113730600D01*
X233438256Y-113706351D01*
X233553091Y-113658785D01*
X233656439Y-113589730D01*
X233744330Y-113501839D01*
X233813385Y-113398491D01*
X233860951Y-113283656D01*
X233885200Y-113161748D01*
X233885200Y-113037452D01*
X233860951Y-112915544D01*
X233813385Y-112800709D01*
X233744330Y-112697361D01*
X233656439Y-112609470D01*
X233553091Y-112540415D01*
X233438256Y-112492849D01*
X233316348Y-112468600D01*
X233192052Y-112468600D01*
X233070144Y-112492849D01*
X232955309Y-112540415D01*
X232851961Y-112609470D01*
X232764070Y-112697361D01*
X232695015Y-112800709D01*
X232647449Y-112915544D01*
X232623200Y-113037452D01*
X230062757Y-113037452D01*
X230061435Y-111267452D01*
X242833200Y-111267452D01*
X242833200Y-111391748D01*
X242857449Y-111513656D01*
X242905015Y-111628491D01*
X242974070Y-111731839D01*
X243061961Y-111819730D01*
X243165309Y-111888785D01*
X243280144Y-111936351D01*
X243402052Y-111960600D01*
X243526348Y-111960600D01*
X243648256Y-111936351D01*
X243763091Y-111888785D01*
X243866439Y-111819730D01*
X243954330Y-111731839D01*
X244023385Y-111628491D01*
X244070951Y-111513656D01*
X244095200Y-111391748D01*
X244095200Y-111267452D01*
X244070951Y-111145544D01*
X244032923Y-111053734D01*
X248203200Y-111053734D01*
X248203200Y-111345466D01*
X248260114Y-111631592D01*
X248371755Y-111901117D01*
X248533832Y-112143683D01*
X248740117Y-112349968D01*
X248919159Y-112469600D01*
X248740117Y-112589232D01*
X248533832Y-112795517D01*
X248371755Y-113038083D01*
X248260114Y-113307608D01*
X248203200Y-113593734D01*
X248203200Y-113885466D01*
X248260114Y-114171592D01*
X248371755Y-114441117D01*
X248533832Y-114683683D01*
X248740117Y-114889968D01*
X248919159Y-115009600D01*
X248740117Y-115129232D01*
X248533832Y-115335517D01*
X248371755Y-115578083D01*
X248260114Y-115847608D01*
X248203200Y-116133734D01*
X248203200Y-116425466D01*
X248260114Y-116711592D01*
X248371755Y-116981117D01*
X248533832Y-117223683D01*
X248740117Y-117429968D01*
X248982683Y-117592045D01*
X249252208Y-117703686D01*
X249538334Y-117760600D01*
X249830066Y-117760600D01*
X250116192Y-117703686D01*
X250385717Y-117592045D01*
X250628283Y-117429968D01*
X250834568Y-117223683D01*
X250996645Y-116981117D01*
X251108286Y-116711592D01*
X251165200Y-116425466D01*
X251165200Y-116133734D01*
X251108286Y-115847608D01*
X250996645Y-115578083D01*
X250834568Y-115335517D01*
X250628283Y-115129232D01*
X250449241Y-115009600D01*
X250628283Y-114889968D01*
X250834568Y-114683683D01*
X250996645Y-114441117D01*
X251108286Y-114171592D01*
X251165200Y-113885466D01*
X251165200Y-113593734D01*
X251108286Y-113307608D01*
X250996645Y-113038083D01*
X250834568Y-112795517D01*
X250628283Y-112589232D01*
X250449241Y-112469600D01*
X250628283Y-112349968D01*
X250834568Y-112143683D01*
X250996645Y-111901117D01*
X251108286Y-111631592D01*
X251165200Y-111345466D01*
X251165200Y-111053734D01*
X251108286Y-110767608D01*
X250996645Y-110498083D01*
X250834568Y-110255517D01*
X250628283Y-110049232D01*
X250385717Y-109887155D01*
X250116192Y-109775514D01*
X249830066Y-109718600D01*
X249538334Y-109718600D01*
X249252208Y-109775514D01*
X248982683Y-109887155D01*
X248740117Y-110049232D01*
X248533832Y-110255517D01*
X248371755Y-110498083D01*
X248260114Y-110767608D01*
X248203200Y-111053734D01*
X244032923Y-111053734D01*
X244023385Y-111030709D01*
X243954330Y-110927361D01*
X243866439Y-110839470D01*
X243763091Y-110770415D01*
X243648256Y-110722849D01*
X243526348Y-110698600D01*
X243402052Y-110698600D01*
X243280144Y-110722849D01*
X243165309Y-110770415D01*
X243061961Y-110839470D01*
X242974070Y-110927361D01*
X242905015Y-111030709D01*
X242857449Y-111145544D01*
X242833200Y-111267452D01*
X230061435Y-111267452D01*
X230057504Y-106008960D01*
X232893200Y-106008960D01*
X232893200Y-106330240D01*
X232955878Y-106645345D01*
X233078826Y-106942168D01*
X233257319Y-107209302D01*
X233484498Y-107436481D01*
X233751632Y-107614974D01*
X234048455Y-107737922D01*
X234363560Y-107800600D01*
X234684840Y-107800600D01*
X234999945Y-107737922D01*
X235296768Y-107614974D01*
X235563902Y-107436481D01*
X235791081Y-107209302D01*
X235969574Y-106942168D01*
X236092522Y-106645345D01*
X236155200Y-106330240D01*
X236155200Y-106008960D01*
X236092522Y-105693855D01*
X235969574Y-105397032D01*
X235791081Y-105129898D01*
X235563902Y-104902719D01*
X235296768Y-104724226D01*
X234999945Y-104601278D01*
X234684840Y-104538600D01*
X234363560Y-104538600D01*
X234048455Y-104601278D01*
X233751632Y-104724226D01*
X233484498Y-104902719D01*
X233257319Y-105129898D01*
X233078826Y-105397032D01*
X232955878Y-105693855D01*
X232893200Y-106008960D01*
X230057504Y-106008960D01*
X230055672Y-103558047D01*
X253743200Y-103550733D01*
X253743201Y-136942621D01*
M02*
