G04 #@! TF.GenerationSoftware,KiCad,Pcbnew,5.1.5-52549c5~84~ubuntu18.04.1*
G04 #@! TF.CreationDate,2019-12-02T09:37:23+01:00*
G04 #@! TF.ProjectId,power_control_ipe_v1,706f7765-725f-4636-9f6e-74726f6c5f69,rev?*
G04 #@! TF.SameCoordinates,Original*
G04 #@! TF.FileFunction,Soldermask,Bot*
G04 #@! TF.FilePolarity,Negative*
%FSLAX46Y46*%
G04 Gerber Fmt 4.6, Leading zero omitted, Abs format (unit mm)*
G04 Created by KiCad (PCBNEW 5.1.5-52549c5~84~ubuntu18.04.1) date 2019-12-02 09:37:23*
%MOMM*%
%LPD*%
G04 APERTURE LIST*
%ADD10C,0.100000*%
G04 APERTURE END LIST*
D10*
G36*
X201665354Y-158035782D02*
G01*
X201733682Y-158049373D01*
X201830227Y-158089364D01*
X201926773Y-158129354D01*
X202100546Y-158245465D01*
X202248335Y-158393254D01*
X202364446Y-158567027D01*
X202364446Y-158567028D01*
X202434072Y-158735118D01*
X202444427Y-158760119D01*
X202485200Y-158965099D01*
X202485200Y-159174101D01*
X202444427Y-159379081D01*
X202364446Y-159572173D01*
X202248335Y-159745946D01*
X202100546Y-159893735D01*
X201926773Y-160009846D01*
X201830227Y-160049836D01*
X201733682Y-160089827D01*
X201665354Y-160103418D01*
X201528701Y-160130600D01*
X201319699Y-160130600D01*
X201183046Y-160103418D01*
X201114718Y-160089827D01*
X201018173Y-160049837D01*
X200921627Y-160009846D01*
X200747854Y-159893735D01*
X200600065Y-159745946D01*
X200483954Y-159572173D01*
X200403973Y-159379081D01*
X200363200Y-159174101D01*
X200363200Y-158965099D01*
X200403973Y-158760119D01*
X200414329Y-158735118D01*
X200483954Y-158567028D01*
X200483954Y-158567027D01*
X200600065Y-158393254D01*
X200747854Y-158245465D01*
X200921627Y-158129354D01*
X201018173Y-158089363D01*
X201114718Y-158049373D01*
X201183046Y-158035782D01*
X201319699Y-158008600D01*
X201528701Y-158008600D01*
X201665354Y-158035782D01*
G37*
G36*
X185204385Y-158008600D02*
G01*
X185283682Y-158024373D01*
X185344037Y-158049373D01*
X185476773Y-158104354D01*
X185650546Y-158220465D01*
X185798335Y-158368254D01*
X185914446Y-158542027D01*
X185994427Y-158735119D01*
X186035200Y-158940099D01*
X186035200Y-159149101D01*
X186030227Y-159174101D01*
X185994427Y-159354082D01*
X185954437Y-159450627D01*
X185914446Y-159547173D01*
X185798335Y-159720946D01*
X185650546Y-159868735D01*
X185476773Y-159984846D01*
X185416417Y-160009846D01*
X185283682Y-160064827D01*
X185215354Y-160078418D01*
X185078701Y-160105600D01*
X184869699Y-160105600D01*
X184733046Y-160078418D01*
X184664718Y-160064827D01*
X184531983Y-160009846D01*
X184471627Y-159984846D01*
X184297854Y-159868735D01*
X184150065Y-159720946D01*
X184033954Y-159547173D01*
X183993963Y-159450627D01*
X183953973Y-159354082D01*
X183918173Y-159174101D01*
X183913200Y-159149101D01*
X183913200Y-158940099D01*
X183953973Y-158735119D01*
X184033954Y-158542027D01*
X184150065Y-158368254D01*
X184297854Y-158220465D01*
X184471627Y-158104354D01*
X184604363Y-158049373D01*
X184664718Y-158024373D01*
X184744015Y-158008600D01*
X184869699Y-157983600D01*
X185078701Y-157983600D01*
X185204385Y-158008600D01*
G37*
G36*
X160378687Y-157418596D02*
G01*
X160597146Y-157509085D01*
X160615455Y-157516669D01*
X160828539Y-157659047D01*
X161009753Y-157840261D01*
X161132773Y-158024373D01*
X161152132Y-158053347D01*
X161250204Y-158290113D01*
X161300200Y-158541461D01*
X161300200Y-158797739D01*
X161250204Y-159049087D01*
X161198422Y-159174099D01*
X161152131Y-159285855D01*
X161009753Y-159498939D01*
X160828539Y-159680153D01*
X160615455Y-159822531D01*
X160615454Y-159822532D01*
X160615453Y-159822532D01*
X160378687Y-159920604D01*
X160127339Y-159970600D01*
X159871061Y-159970600D01*
X159619713Y-159920604D01*
X159382947Y-159822532D01*
X159382946Y-159822532D01*
X159382945Y-159822531D01*
X159169861Y-159680153D01*
X158988647Y-159498939D01*
X158846269Y-159285855D01*
X158799978Y-159174099D01*
X158748196Y-159049087D01*
X158698200Y-158797739D01*
X158698200Y-158541461D01*
X158748196Y-158290113D01*
X158846268Y-158053347D01*
X158865628Y-158024373D01*
X158988647Y-157840261D01*
X159169861Y-157659047D01*
X159382945Y-157516669D01*
X159401254Y-157509085D01*
X159619713Y-157418596D01*
X159871061Y-157368600D01*
X160127339Y-157368600D01*
X160378687Y-157418596D01*
G37*
G36*
X234903687Y-157418596D02*
G01*
X235122146Y-157509085D01*
X235140455Y-157516669D01*
X235353539Y-157659047D01*
X235534753Y-157840261D01*
X235657773Y-158024373D01*
X235677132Y-158053347D01*
X235775204Y-158290113D01*
X235825200Y-158541461D01*
X235825200Y-158797739D01*
X235775204Y-159049087D01*
X235723422Y-159174099D01*
X235677131Y-159285855D01*
X235534753Y-159498939D01*
X235353539Y-159680153D01*
X235140455Y-159822531D01*
X235140454Y-159822532D01*
X235140453Y-159822532D01*
X234903687Y-159920604D01*
X234652339Y-159970600D01*
X234396061Y-159970600D01*
X234144713Y-159920604D01*
X233907947Y-159822532D01*
X233907946Y-159822532D01*
X233907945Y-159822531D01*
X233694861Y-159680153D01*
X233513647Y-159498939D01*
X233371269Y-159285855D01*
X233324978Y-159174099D01*
X233273196Y-159049087D01*
X233223200Y-158797739D01*
X233223200Y-158541461D01*
X233273196Y-158290113D01*
X233371268Y-158053347D01*
X233390628Y-158024373D01*
X233513647Y-157840261D01*
X233694861Y-157659047D01*
X233907945Y-157516669D01*
X233926254Y-157509085D01*
X234144713Y-157418596D01*
X234396061Y-157368600D01*
X234652339Y-157368600D01*
X234903687Y-157418596D01*
G37*
G36*
X191072404Y-158104347D02*
G01*
X191108944Y-158115432D01*
X191142621Y-158133433D01*
X191172141Y-158157659D01*
X191196367Y-158187179D01*
X191214368Y-158220856D01*
X191225453Y-158257396D01*
X191229800Y-158301538D01*
X191229800Y-159750462D01*
X191225453Y-159794604D01*
X191214368Y-159831144D01*
X191196367Y-159864821D01*
X191172141Y-159894341D01*
X191142621Y-159918567D01*
X191108944Y-159936568D01*
X191072404Y-159947653D01*
X191028262Y-159952000D01*
X190079338Y-159952000D01*
X190035196Y-159947653D01*
X189998656Y-159936568D01*
X189964979Y-159918567D01*
X189935459Y-159894341D01*
X189911233Y-159864821D01*
X189893232Y-159831144D01*
X189882147Y-159794604D01*
X189877800Y-159750462D01*
X189877800Y-158301538D01*
X189882147Y-158257396D01*
X189893232Y-158220856D01*
X189911233Y-158187179D01*
X189935459Y-158157659D01*
X189964979Y-158133433D01*
X189998656Y-158115432D01*
X190035196Y-158104347D01*
X190079338Y-158100000D01*
X191028262Y-158100000D01*
X191072404Y-158104347D01*
G37*
G36*
X188272404Y-158104347D02*
G01*
X188308944Y-158115432D01*
X188342621Y-158133433D01*
X188372141Y-158157659D01*
X188396367Y-158187179D01*
X188414368Y-158220856D01*
X188425453Y-158257396D01*
X188429800Y-158301538D01*
X188429800Y-159750462D01*
X188425453Y-159794604D01*
X188414368Y-159831144D01*
X188396367Y-159864821D01*
X188372141Y-159894341D01*
X188342621Y-159918567D01*
X188308944Y-159936568D01*
X188272404Y-159947653D01*
X188228262Y-159952000D01*
X187279338Y-159952000D01*
X187235196Y-159947653D01*
X187198656Y-159936568D01*
X187164979Y-159918567D01*
X187135459Y-159894341D01*
X187111233Y-159864821D01*
X187093232Y-159831144D01*
X187082147Y-159794604D01*
X187077800Y-159750462D01*
X187077800Y-158301538D01*
X187082147Y-158257396D01*
X187093232Y-158220856D01*
X187111233Y-158187179D01*
X187135459Y-158157659D01*
X187164979Y-158133433D01*
X187198656Y-158115432D01*
X187235196Y-158104347D01*
X187279338Y-158100000D01*
X188228262Y-158100000D01*
X188272404Y-158104347D01*
G37*
G36*
X249918749Y-139760716D02*
G01*
X250029934Y-139782832D01*
X250239403Y-139869597D01*
X250427920Y-139995560D01*
X250588240Y-140155880D01*
X250714203Y-140344397D01*
X250800968Y-140553866D01*
X250845200Y-140776236D01*
X250845200Y-141002964D01*
X250800968Y-141225334D01*
X250714203Y-141434803D01*
X250588240Y-141623320D01*
X250427920Y-141783640D01*
X250239403Y-141909603D01*
X250029934Y-141996368D01*
X249902361Y-142021744D01*
X249825648Y-142037003D01*
X249802199Y-142044116D01*
X249780588Y-142055667D01*
X249761646Y-142071212D01*
X249746101Y-142090154D01*
X249734550Y-142111765D01*
X249727437Y-142135214D01*
X249725035Y-142159600D01*
X249727437Y-142183986D01*
X249734550Y-142207435D01*
X249746101Y-142229046D01*
X249761646Y-142247988D01*
X249780588Y-142263533D01*
X249802199Y-142275084D01*
X249825648Y-142282197D01*
X249902361Y-142297456D01*
X250029934Y-142322832D01*
X250239403Y-142409597D01*
X250427920Y-142535560D01*
X250588240Y-142695880D01*
X250714203Y-142884397D01*
X250800968Y-143093866D01*
X250845200Y-143316236D01*
X250845200Y-143542964D01*
X250800968Y-143765334D01*
X250714203Y-143974803D01*
X250588240Y-144163320D01*
X250427920Y-144323640D01*
X250239403Y-144449603D01*
X250029934Y-144536368D01*
X249902361Y-144561744D01*
X249825648Y-144577003D01*
X249802199Y-144584116D01*
X249780588Y-144595667D01*
X249761646Y-144611212D01*
X249746101Y-144630154D01*
X249734550Y-144651765D01*
X249727437Y-144675214D01*
X249725035Y-144699600D01*
X249727437Y-144723986D01*
X249734550Y-144747435D01*
X249746101Y-144769046D01*
X249761646Y-144787988D01*
X249780588Y-144803533D01*
X249802199Y-144815084D01*
X249825648Y-144822197D01*
X249902361Y-144837456D01*
X250029934Y-144862832D01*
X250239403Y-144949597D01*
X250427920Y-145075560D01*
X250588240Y-145235880D01*
X250714203Y-145424397D01*
X250800968Y-145633866D01*
X250845200Y-145856236D01*
X250845200Y-146082964D01*
X250800968Y-146305334D01*
X250714203Y-146514803D01*
X250588240Y-146703320D01*
X250427920Y-146863640D01*
X250239403Y-146989603D01*
X250029934Y-147076368D01*
X249902361Y-147101744D01*
X249825648Y-147117003D01*
X249802199Y-147124116D01*
X249780588Y-147135667D01*
X249761646Y-147151212D01*
X249746101Y-147170154D01*
X249734550Y-147191765D01*
X249727437Y-147215214D01*
X249725035Y-147239600D01*
X249727437Y-147263986D01*
X249734550Y-147287435D01*
X249746101Y-147309046D01*
X249761646Y-147327988D01*
X249780588Y-147343533D01*
X249802199Y-147355084D01*
X249825648Y-147362197D01*
X249879058Y-147372821D01*
X250029934Y-147402832D01*
X250239403Y-147489597D01*
X250427920Y-147615560D01*
X250588240Y-147775880D01*
X250714203Y-147964397D01*
X250800968Y-148173866D01*
X250845200Y-148396236D01*
X250845200Y-148622964D01*
X250800968Y-148845334D01*
X250714203Y-149054803D01*
X250588240Y-149243320D01*
X250427920Y-149403640D01*
X250239403Y-149529603D01*
X250029934Y-149616368D01*
X249902361Y-149641744D01*
X249825648Y-149657003D01*
X249802199Y-149664116D01*
X249780588Y-149675667D01*
X249761646Y-149691212D01*
X249746101Y-149710154D01*
X249734550Y-149731765D01*
X249727437Y-149755214D01*
X249725035Y-149779600D01*
X249727437Y-149803986D01*
X249734550Y-149827435D01*
X249746101Y-149849046D01*
X249761646Y-149867988D01*
X249780588Y-149883533D01*
X249802199Y-149895084D01*
X249825648Y-149902197D01*
X249902361Y-149917456D01*
X250029934Y-149942832D01*
X250239403Y-150029597D01*
X250427920Y-150155560D01*
X250588240Y-150315880D01*
X250707676Y-150494629D01*
X250714204Y-150504399D01*
X250739616Y-150565750D01*
X250800968Y-150713866D01*
X250845200Y-150936236D01*
X250845200Y-151162964D01*
X250800968Y-151385334D01*
X250714203Y-151594803D01*
X250588240Y-151783320D01*
X250427920Y-151943640D01*
X250239403Y-152069603D01*
X250029934Y-152156368D01*
X249974301Y-152167434D01*
X249825648Y-152197003D01*
X249802199Y-152204116D01*
X249780588Y-152215667D01*
X249761646Y-152231212D01*
X249746101Y-152250154D01*
X249734550Y-152271765D01*
X249727437Y-152295214D01*
X249725035Y-152319600D01*
X249727437Y-152343986D01*
X249734550Y-152367435D01*
X249746101Y-152389046D01*
X249761646Y-152407988D01*
X249780588Y-152423533D01*
X249802199Y-152435084D01*
X249825648Y-152442197D01*
X249902361Y-152457456D01*
X250029934Y-152482832D01*
X250239403Y-152569597D01*
X250427920Y-152695560D01*
X250588240Y-152855880D01*
X250714203Y-153044397D01*
X250773810Y-153188300D01*
X250800968Y-153253867D01*
X250845200Y-153476235D01*
X250845200Y-153702965D01*
X250831620Y-153771237D01*
X250800968Y-153925334D01*
X250714203Y-154134803D01*
X250588240Y-154323320D01*
X250427920Y-154483640D01*
X250239403Y-154609603D01*
X250029934Y-154696368D01*
X249941694Y-154713920D01*
X249825648Y-154737003D01*
X249802199Y-154744116D01*
X249780588Y-154755667D01*
X249761646Y-154771212D01*
X249746101Y-154790154D01*
X249734550Y-154811765D01*
X249727437Y-154835214D01*
X249725035Y-154859600D01*
X249727437Y-154883986D01*
X249734550Y-154907435D01*
X249746101Y-154929046D01*
X249761646Y-154947988D01*
X249780588Y-154963533D01*
X249802199Y-154975084D01*
X249825648Y-154982197D01*
X249902361Y-154997456D01*
X250029934Y-155022832D01*
X250239403Y-155109597D01*
X250427920Y-155235560D01*
X250588240Y-155395880D01*
X250714203Y-155584397D01*
X250800968Y-155793866D01*
X250845200Y-156016236D01*
X250845200Y-156242964D01*
X250800968Y-156465334D01*
X250714203Y-156674803D01*
X250588240Y-156863320D01*
X250427920Y-157023640D01*
X250239403Y-157149603D01*
X250029934Y-157236368D01*
X249913392Y-157259550D01*
X249855807Y-157271004D01*
X249832358Y-157278117D01*
X249810747Y-157289668D01*
X249791805Y-157305213D01*
X249776260Y-157324155D01*
X249764709Y-157345766D01*
X249757596Y-157369215D01*
X249755194Y-157393601D01*
X249757596Y-157417987D01*
X249764709Y-157441436D01*
X249776260Y-157463047D01*
X249791805Y-157481989D01*
X249810747Y-157497534D01*
X249832358Y-157509085D01*
X249855807Y-157516198D01*
X249880193Y-157518600D01*
X250845200Y-157518600D01*
X250845200Y-159820600D01*
X248543200Y-159820600D01*
X248543200Y-157518600D01*
X249508207Y-157518600D01*
X249532593Y-157516198D01*
X249556042Y-157509085D01*
X249577653Y-157497534D01*
X249596595Y-157481989D01*
X249612140Y-157463047D01*
X249623691Y-157441436D01*
X249630804Y-157417987D01*
X249633206Y-157393601D01*
X249630804Y-157369215D01*
X249623691Y-157345766D01*
X249612140Y-157324155D01*
X249596595Y-157305213D01*
X249577653Y-157289668D01*
X249556042Y-157278117D01*
X249532593Y-157271004D01*
X249475008Y-157259550D01*
X249358466Y-157236368D01*
X249148997Y-157149603D01*
X248960480Y-157023640D01*
X248800160Y-156863320D01*
X248674197Y-156674803D01*
X248587432Y-156465334D01*
X248543200Y-156242964D01*
X248543200Y-156016236D01*
X248587432Y-155793866D01*
X248674197Y-155584397D01*
X248800160Y-155395880D01*
X248960480Y-155235560D01*
X249148997Y-155109597D01*
X249358466Y-155022832D01*
X249486039Y-154997456D01*
X249562752Y-154982197D01*
X249586201Y-154975084D01*
X249607812Y-154963533D01*
X249626754Y-154947988D01*
X249642299Y-154929046D01*
X249653850Y-154907435D01*
X249660963Y-154883986D01*
X249663365Y-154859600D01*
X249660963Y-154835214D01*
X249653850Y-154811765D01*
X249642299Y-154790154D01*
X249626754Y-154771212D01*
X249607812Y-154755667D01*
X249586201Y-154744116D01*
X249562752Y-154737003D01*
X249446706Y-154713920D01*
X249358466Y-154696368D01*
X249148997Y-154609603D01*
X248960480Y-154483640D01*
X248800160Y-154323320D01*
X248674197Y-154134803D01*
X248587432Y-153925334D01*
X248556780Y-153771237D01*
X248543200Y-153702965D01*
X248543200Y-153476235D01*
X248587432Y-153253867D01*
X248614591Y-153188300D01*
X248674197Y-153044397D01*
X248800160Y-152855880D01*
X248960480Y-152695560D01*
X249148997Y-152569597D01*
X249358466Y-152482832D01*
X249486039Y-152457456D01*
X249562752Y-152442197D01*
X249586201Y-152435084D01*
X249607812Y-152423533D01*
X249626754Y-152407988D01*
X249642299Y-152389046D01*
X249653850Y-152367435D01*
X249660963Y-152343986D01*
X249663365Y-152319600D01*
X249660963Y-152295214D01*
X249653850Y-152271765D01*
X249642299Y-152250154D01*
X249626754Y-152231212D01*
X249607812Y-152215667D01*
X249586201Y-152204116D01*
X249562752Y-152197003D01*
X249414099Y-152167434D01*
X249358466Y-152156368D01*
X249148997Y-152069603D01*
X248960480Y-151943640D01*
X248800160Y-151783320D01*
X248674197Y-151594803D01*
X248587432Y-151385334D01*
X248543200Y-151162964D01*
X248543200Y-150936236D01*
X248587432Y-150713866D01*
X248648784Y-150565750D01*
X248674196Y-150504399D01*
X248680724Y-150494629D01*
X248800160Y-150315880D01*
X248960480Y-150155560D01*
X249148997Y-150029597D01*
X249358466Y-149942832D01*
X249486039Y-149917456D01*
X249562752Y-149902197D01*
X249586201Y-149895084D01*
X249607812Y-149883533D01*
X249626754Y-149867988D01*
X249642299Y-149849046D01*
X249653850Y-149827435D01*
X249660963Y-149803986D01*
X249663365Y-149779600D01*
X249660963Y-149755214D01*
X249653850Y-149731765D01*
X249642299Y-149710154D01*
X249626754Y-149691212D01*
X249607812Y-149675667D01*
X249586201Y-149664116D01*
X249562752Y-149657003D01*
X249486039Y-149641744D01*
X249358466Y-149616368D01*
X249148997Y-149529603D01*
X248960480Y-149403640D01*
X248800160Y-149243320D01*
X248674197Y-149054803D01*
X248587432Y-148845334D01*
X248543200Y-148622964D01*
X248543200Y-148396236D01*
X248587432Y-148173866D01*
X248674197Y-147964397D01*
X248800160Y-147775880D01*
X248960480Y-147615560D01*
X249148997Y-147489597D01*
X249358466Y-147402832D01*
X249509342Y-147372821D01*
X249562752Y-147362197D01*
X249586201Y-147355084D01*
X249607812Y-147343533D01*
X249626754Y-147327988D01*
X249642299Y-147309046D01*
X249653850Y-147287435D01*
X249660963Y-147263986D01*
X249663365Y-147239600D01*
X249660963Y-147215214D01*
X249653850Y-147191765D01*
X249642299Y-147170154D01*
X249626754Y-147151212D01*
X249607812Y-147135667D01*
X249586201Y-147124116D01*
X249562752Y-147117003D01*
X249486039Y-147101744D01*
X249358466Y-147076368D01*
X249148997Y-146989603D01*
X248960480Y-146863640D01*
X248800160Y-146703320D01*
X248674197Y-146514803D01*
X248587432Y-146305334D01*
X248543200Y-146082964D01*
X248543200Y-145856236D01*
X248587432Y-145633866D01*
X248674197Y-145424397D01*
X248800160Y-145235880D01*
X248960480Y-145075560D01*
X249148997Y-144949597D01*
X249358466Y-144862832D01*
X249486039Y-144837456D01*
X249562752Y-144822197D01*
X249586201Y-144815084D01*
X249607812Y-144803533D01*
X249626754Y-144787988D01*
X249642299Y-144769046D01*
X249653850Y-144747435D01*
X249660963Y-144723986D01*
X249663365Y-144699600D01*
X249660963Y-144675214D01*
X249653850Y-144651765D01*
X249642299Y-144630154D01*
X249626754Y-144611212D01*
X249607812Y-144595667D01*
X249586201Y-144584116D01*
X249562752Y-144577003D01*
X249486039Y-144561744D01*
X249358466Y-144536368D01*
X249148997Y-144449603D01*
X248960480Y-144323640D01*
X248800160Y-144163320D01*
X248674197Y-143974803D01*
X248587432Y-143765334D01*
X248543200Y-143542964D01*
X248543200Y-143316236D01*
X248587432Y-143093866D01*
X248674197Y-142884397D01*
X248800160Y-142695880D01*
X248960480Y-142535560D01*
X249148997Y-142409597D01*
X249358466Y-142322832D01*
X249486039Y-142297456D01*
X249562752Y-142282197D01*
X249586201Y-142275084D01*
X249607812Y-142263533D01*
X249626754Y-142247988D01*
X249642299Y-142229046D01*
X249653850Y-142207435D01*
X249660963Y-142183986D01*
X249663365Y-142159600D01*
X249660963Y-142135214D01*
X249653850Y-142111765D01*
X249642299Y-142090154D01*
X249626754Y-142071212D01*
X249607812Y-142055667D01*
X249586201Y-142044116D01*
X249562752Y-142037003D01*
X249486039Y-142021744D01*
X249358466Y-141996368D01*
X249148997Y-141909603D01*
X248960480Y-141783640D01*
X248800160Y-141623320D01*
X248674197Y-141434803D01*
X248587432Y-141225334D01*
X248543200Y-141002964D01*
X248543200Y-140776236D01*
X248587432Y-140553866D01*
X248674197Y-140344397D01*
X248800160Y-140155880D01*
X248960480Y-139995560D01*
X249148997Y-139869597D01*
X249358466Y-139782832D01*
X249469651Y-139760716D01*
X249580835Y-139738600D01*
X249807565Y-139738600D01*
X249918749Y-139760716D01*
G37*
G36*
X188205500Y-156511600D02*
G01*
X185842900Y-156511600D01*
X185842900Y-153920400D01*
X188205500Y-153920400D01*
X188205500Y-156511600D01*
G37*
G36*
X193539500Y-156511600D02*
G01*
X191176900Y-156511600D01*
X191176900Y-153920400D01*
X193539500Y-153920400D01*
X193539500Y-156511600D01*
G37*
G36*
X179006700Y-156214900D02*
G01*
X175602700Y-156214900D01*
X175602700Y-154309500D01*
X179006700Y-154309500D01*
X179006700Y-156214900D01*
G37*
G36*
X184518500Y-156214900D02*
G01*
X181114500Y-156214900D01*
X181114500Y-154309500D01*
X184518500Y-154309500D01*
X184518500Y-156214900D01*
G37*
G36*
X167189991Y-153816785D02*
G01*
X167223969Y-153827093D01*
X167255290Y-153843834D01*
X167282739Y-153866361D01*
X167305266Y-153893810D01*
X167322007Y-153925131D01*
X167332315Y-153959109D01*
X167336400Y-154000590D01*
X167336400Y-154676810D01*
X167332315Y-154718291D01*
X167322007Y-154752269D01*
X167305266Y-154783590D01*
X167282739Y-154811039D01*
X167255290Y-154833566D01*
X167223969Y-154850307D01*
X167189991Y-154860615D01*
X167148510Y-154864700D01*
X166547290Y-154864700D01*
X166505809Y-154860615D01*
X166471831Y-154850307D01*
X166440510Y-154833566D01*
X166413061Y-154811039D01*
X166390534Y-154783590D01*
X166373793Y-154752269D01*
X166363485Y-154718291D01*
X166359400Y-154676810D01*
X166359400Y-154000590D01*
X166363485Y-153959109D01*
X166373793Y-153925131D01*
X166390534Y-153893810D01*
X166413061Y-153866361D01*
X166440510Y-153843834D01*
X166471831Y-153827093D01*
X166505809Y-153816785D01*
X166547290Y-153812700D01*
X167148510Y-153812700D01*
X167189991Y-153816785D01*
G37*
G36*
X165614991Y-153816785D02*
G01*
X165648969Y-153827093D01*
X165680290Y-153843834D01*
X165707739Y-153866361D01*
X165730266Y-153893810D01*
X165747007Y-153925131D01*
X165757315Y-153959109D01*
X165761400Y-154000590D01*
X165761400Y-154676810D01*
X165757315Y-154718291D01*
X165747007Y-154752269D01*
X165730266Y-154783590D01*
X165707739Y-154811039D01*
X165680290Y-154833566D01*
X165648969Y-154850307D01*
X165614991Y-154860615D01*
X165573510Y-154864700D01*
X164972290Y-154864700D01*
X164930809Y-154860615D01*
X164896831Y-154850307D01*
X164865510Y-154833566D01*
X164838061Y-154811039D01*
X164815534Y-154783590D01*
X164798793Y-154752269D01*
X164788485Y-154718291D01*
X164784400Y-154676810D01*
X164784400Y-154000590D01*
X164788485Y-153959109D01*
X164798793Y-153925131D01*
X164815534Y-153893810D01*
X164838061Y-153866361D01*
X164865510Y-153843834D01*
X164896831Y-153827093D01*
X164930809Y-153816785D01*
X164972290Y-153812700D01*
X165573510Y-153812700D01*
X165614991Y-153816785D01*
G37*
G36*
X232201507Y-150483098D02*
G01*
X232239518Y-150494629D01*
X232274542Y-150513349D01*
X232305249Y-150538551D01*
X232330451Y-150569258D01*
X232349171Y-150604282D01*
X232360702Y-150642293D01*
X232365200Y-150687963D01*
X232365200Y-153771237D01*
X232360702Y-153816907D01*
X232349171Y-153854918D01*
X232330451Y-153889942D01*
X232305249Y-153920649D01*
X232274542Y-153945851D01*
X232239518Y-153964571D01*
X232201507Y-153976102D01*
X232155837Y-153980600D01*
X231347563Y-153980600D01*
X231301893Y-153976102D01*
X231263882Y-153964571D01*
X231228858Y-153945851D01*
X231198151Y-153920649D01*
X231172949Y-153889942D01*
X231154229Y-153854918D01*
X231142698Y-153816907D01*
X231138200Y-153771237D01*
X231138200Y-150687963D01*
X231142698Y-150642293D01*
X231154229Y-150604282D01*
X231172949Y-150569258D01*
X231198151Y-150538551D01*
X231228858Y-150513349D01*
X231263882Y-150494629D01*
X231301893Y-150483098D01*
X231347563Y-150478600D01*
X232155837Y-150478600D01*
X232201507Y-150483098D01*
G37*
G36*
X227926507Y-150483098D02*
G01*
X227964518Y-150494629D01*
X227999542Y-150513349D01*
X228030249Y-150538551D01*
X228055451Y-150569258D01*
X228074171Y-150604282D01*
X228085702Y-150642293D01*
X228090200Y-150687963D01*
X228090200Y-153771237D01*
X228085702Y-153816907D01*
X228074171Y-153854918D01*
X228055451Y-153889942D01*
X228030249Y-153920649D01*
X227999542Y-153945851D01*
X227964518Y-153964571D01*
X227926507Y-153976102D01*
X227880837Y-153980600D01*
X227072563Y-153980600D01*
X227026893Y-153976102D01*
X226988882Y-153964571D01*
X226953858Y-153945851D01*
X226923151Y-153920649D01*
X226897949Y-153889942D01*
X226879229Y-153854918D01*
X226867698Y-153816907D01*
X226863200Y-153771237D01*
X226863200Y-150687963D01*
X226867698Y-150642293D01*
X226879229Y-150604282D01*
X226897949Y-150569258D01*
X226923151Y-150538551D01*
X226953858Y-150513349D01*
X226988882Y-150494629D01*
X227026893Y-150483098D01*
X227072563Y-150478600D01*
X227880837Y-150478600D01*
X227926507Y-150483098D01*
G37*
G36*
X165640391Y-152140385D02*
G01*
X165674369Y-152150693D01*
X165705690Y-152167434D01*
X165733139Y-152189961D01*
X165755666Y-152217410D01*
X165772407Y-152248731D01*
X165782715Y-152282709D01*
X165786800Y-152324190D01*
X165786800Y-153000410D01*
X165782715Y-153041891D01*
X165772407Y-153075869D01*
X165755666Y-153107190D01*
X165733139Y-153134639D01*
X165705690Y-153157166D01*
X165674369Y-153173907D01*
X165640391Y-153184215D01*
X165598910Y-153188300D01*
X164997690Y-153188300D01*
X164956209Y-153184215D01*
X164922231Y-153173907D01*
X164890910Y-153157166D01*
X164863461Y-153134639D01*
X164840934Y-153107190D01*
X164824193Y-153075869D01*
X164813885Y-153041891D01*
X164809800Y-153000410D01*
X164809800Y-152324190D01*
X164813885Y-152282709D01*
X164824193Y-152248731D01*
X164840934Y-152217410D01*
X164863461Y-152189961D01*
X164890910Y-152167434D01*
X164922231Y-152150693D01*
X164956209Y-152140385D01*
X164997690Y-152136300D01*
X165598910Y-152136300D01*
X165640391Y-152140385D01*
G37*
G36*
X167215391Y-152140385D02*
G01*
X167249369Y-152150693D01*
X167280690Y-152167434D01*
X167308139Y-152189961D01*
X167330666Y-152217410D01*
X167347407Y-152248731D01*
X167357715Y-152282709D01*
X167361800Y-152324190D01*
X167361800Y-153000410D01*
X167357715Y-153041891D01*
X167347407Y-153075869D01*
X167330666Y-153107190D01*
X167308139Y-153134639D01*
X167280690Y-153157166D01*
X167249369Y-153173907D01*
X167215391Y-153184215D01*
X167173910Y-153188300D01*
X166572690Y-153188300D01*
X166531209Y-153184215D01*
X166497231Y-153173907D01*
X166465910Y-153157166D01*
X166438461Y-153134639D01*
X166415934Y-153107190D01*
X166399193Y-153075869D01*
X166388885Y-153041891D01*
X166384800Y-153000410D01*
X166384800Y-152324190D01*
X166388885Y-152282709D01*
X166399193Y-152248731D01*
X166415934Y-152217410D01*
X166438461Y-152189961D01*
X166465910Y-152167434D01*
X166497231Y-152150693D01*
X166531209Y-152140385D01*
X166572690Y-152136300D01*
X167173910Y-152136300D01*
X167215391Y-152140385D01*
G37*
G36*
X190765354Y-148735782D02*
G01*
X190833682Y-148749373D01*
X190930227Y-148789364D01*
X191026773Y-148829354D01*
X191200546Y-148945465D01*
X191348335Y-149093254D01*
X191464446Y-149267027D01*
X191544427Y-149460119D01*
X191585200Y-149665099D01*
X191585200Y-149874101D01*
X191558018Y-150010754D01*
X191544427Y-150079082D01*
X191504437Y-150175627D01*
X191464446Y-150272173D01*
X191348335Y-150445946D01*
X191200546Y-150593735D01*
X191026773Y-150709846D01*
X191017065Y-150713867D01*
X190833682Y-150789827D01*
X190765354Y-150803418D01*
X190628701Y-150830600D01*
X190419699Y-150830600D01*
X190283046Y-150803418D01*
X190214718Y-150789827D01*
X190031335Y-150713867D01*
X190021627Y-150709846D01*
X189847854Y-150593735D01*
X189700065Y-150445946D01*
X189583954Y-150272173D01*
X189543963Y-150175627D01*
X189503973Y-150079082D01*
X189490382Y-150010754D01*
X189463200Y-149874101D01*
X189463200Y-149665099D01*
X189503973Y-149460119D01*
X189583954Y-149267027D01*
X189700065Y-149093254D01*
X189847854Y-148945465D01*
X190021627Y-148829354D01*
X190118173Y-148789364D01*
X190214718Y-148749373D01*
X190283046Y-148735782D01*
X190419699Y-148708600D01*
X190628701Y-148708600D01*
X190765354Y-148735782D01*
G37*
G36*
X190942804Y-145612347D02*
G01*
X190979344Y-145623432D01*
X191013021Y-145641433D01*
X191042541Y-145665659D01*
X191066767Y-145695179D01*
X191084768Y-145728856D01*
X191095853Y-145765396D01*
X191100200Y-145809538D01*
X191100200Y-147258462D01*
X191095853Y-147302604D01*
X191084768Y-147339144D01*
X191066767Y-147372821D01*
X191042541Y-147402341D01*
X191013021Y-147426567D01*
X190979344Y-147444568D01*
X190942804Y-147455653D01*
X190898662Y-147460000D01*
X189949738Y-147460000D01*
X189905596Y-147455653D01*
X189869056Y-147444568D01*
X189835379Y-147426567D01*
X189805859Y-147402341D01*
X189781633Y-147372821D01*
X189763632Y-147339144D01*
X189752547Y-147302604D01*
X189748200Y-147258462D01*
X189748200Y-145809538D01*
X189752547Y-145765396D01*
X189763632Y-145728856D01*
X189781633Y-145695179D01*
X189805859Y-145665659D01*
X189835379Y-145641433D01*
X189869056Y-145623432D01*
X189905596Y-145612347D01*
X189949738Y-145608000D01*
X190898662Y-145608000D01*
X190942804Y-145612347D01*
G37*
G36*
X188142804Y-145612347D02*
G01*
X188179344Y-145623432D01*
X188213021Y-145641433D01*
X188242541Y-145665659D01*
X188266767Y-145695179D01*
X188284768Y-145728856D01*
X188295853Y-145765396D01*
X188300200Y-145809538D01*
X188300200Y-147258462D01*
X188295853Y-147302604D01*
X188284768Y-147339144D01*
X188266767Y-147372821D01*
X188242541Y-147402341D01*
X188213021Y-147426567D01*
X188179344Y-147444568D01*
X188142804Y-147455653D01*
X188098662Y-147460000D01*
X187149738Y-147460000D01*
X187105596Y-147455653D01*
X187069056Y-147444568D01*
X187035379Y-147426567D01*
X187005859Y-147402341D01*
X186981633Y-147372821D01*
X186963632Y-147339144D01*
X186952547Y-147302604D01*
X186948200Y-147258462D01*
X186948200Y-145809538D01*
X186952547Y-145765396D01*
X186963632Y-145728856D01*
X186981633Y-145695179D01*
X187005859Y-145665659D01*
X187035379Y-145641433D01*
X187069056Y-145623432D01*
X187105596Y-145612347D01*
X187149738Y-145608000D01*
X188098662Y-145608000D01*
X188142804Y-145612347D01*
G37*
G36*
X193539500Y-143715200D02*
G01*
X191176900Y-143715200D01*
X191176900Y-141124000D01*
X193539500Y-141124000D01*
X193539500Y-143715200D01*
G37*
G36*
X188205500Y-143715200D02*
G01*
X185842900Y-143715200D01*
X185842900Y-141124000D01*
X188205500Y-141124000D01*
X188205500Y-143715200D01*
G37*
G36*
X179006700Y-143397300D02*
G01*
X175602700Y-143397300D01*
X175602700Y-141491900D01*
X179006700Y-141491900D01*
X179006700Y-143397300D01*
G37*
G36*
X184518500Y-143397300D02*
G01*
X181114500Y-143397300D01*
X181114500Y-141491900D01*
X184518500Y-141491900D01*
X184518500Y-143397300D01*
G37*
G36*
X169131600Y-138451400D02*
G01*
X167918400Y-138451400D01*
X167918400Y-137748600D01*
X169131600Y-137748600D01*
X169131600Y-138451400D01*
G37*
G36*
X165681600Y-138451400D02*
G01*
X164468400Y-138451400D01*
X164468400Y-137748600D01*
X165681600Y-137748600D01*
X165681600Y-138451400D01*
G37*
G36*
X190699910Y-135957710D02*
G01*
X190783682Y-135974373D01*
X190846999Y-136000600D01*
X190976773Y-136054354D01*
X191150546Y-136170465D01*
X191298335Y-136318254D01*
X191414446Y-136492027D01*
X191494427Y-136685119D01*
X191535200Y-136890099D01*
X191535200Y-137099101D01*
X191494427Y-137304081D01*
X191414446Y-137497173D01*
X191298335Y-137670946D01*
X191150546Y-137818735D01*
X190976773Y-137934846D01*
X190880227Y-137974836D01*
X190783682Y-138014827D01*
X190715354Y-138028418D01*
X190578701Y-138055600D01*
X190369699Y-138055600D01*
X190233046Y-138028418D01*
X190164718Y-138014827D01*
X190068173Y-137974836D01*
X189971627Y-137934846D01*
X189797854Y-137818735D01*
X189650065Y-137670946D01*
X189533954Y-137497173D01*
X189453973Y-137304081D01*
X189413200Y-137099101D01*
X189413200Y-136890099D01*
X189453973Y-136685119D01*
X189533954Y-136492027D01*
X189650065Y-136318254D01*
X189797854Y-136170465D01*
X189971627Y-136054354D01*
X190101401Y-136000600D01*
X190164718Y-135974373D01*
X190248490Y-135957710D01*
X190369699Y-135933600D01*
X190578701Y-135933600D01*
X190699910Y-135957710D01*
G37*
G36*
X197446138Y-136771316D02*
G01*
X197466757Y-136777571D01*
X197485753Y-136787724D01*
X197502408Y-136801392D01*
X197516076Y-136818047D01*
X197526229Y-136837043D01*
X197532484Y-136857662D01*
X197535200Y-136885240D01*
X197535200Y-137393960D01*
X197532484Y-137421538D01*
X197526229Y-137442157D01*
X197516076Y-137461153D01*
X197502408Y-137477808D01*
X197485753Y-137491476D01*
X197466757Y-137501629D01*
X197446138Y-137507884D01*
X197418560Y-137510600D01*
X196959840Y-137510600D01*
X196932262Y-137507884D01*
X196911643Y-137501629D01*
X196892647Y-137491476D01*
X196875992Y-137477808D01*
X196862324Y-137461153D01*
X196852171Y-137442157D01*
X196845916Y-137421538D01*
X196843200Y-137393960D01*
X196843200Y-136885240D01*
X196845916Y-136857662D01*
X196852171Y-136837043D01*
X196862324Y-136818047D01*
X196875992Y-136801392D01*
X196892647Y-136787724D01*
X196911643Y-136777571D01*
X196932262Y-136771316D01*
X196959840Y-136768600D01*
X197418560Y-136768600D01*
X197446138Y-136771316D01*
G37*
G36*
X198416138Y-136771316D02*
G01*
X198436757Y-136777571D01*
X198455753Y-136787724D01*
X198472408Y-136801392D01*
X198486076Y-136818047D01*
X198496229Y-136837043D01*
X198502484Y-136857662D01*
X198505200Y-136885240D01*
X198505200Y-137393960D01*
X198502484Y-137421538D01*
X198496229Y-137442157D01*
X198486076Y-137461153D01*
X198472408Y-137477808D01*
X198455753Y-137491476D01*
X198436757Y-137501629D01*
X198416138Y-137507884D01*
X198388560Y-137510600D01*
X197929840Y-137510600D01*
X197902262Y-137507884D01*
X197881643Y-137501629D01*
X197862647Y-137491476D01*
X197845992Y-137477808D01*
X197832324Y-137461153D01*
X197822171Y-137442157D01*
X197815916Y-137421538D01*
X197813200Y-137393960D01*
X197813200Y-136885240D01*
X197815916Y-136857662D01*
X197822171Y-136837043D01*
X197832324Y-136818047D01*
X197845992Y-136801392D01*
X197862647Y-136787724D01*
X197881643Y-136777571D01*
X197902262Y-136771316D01*
X197929840Y-136768600D01*
X198388560Y-136768600D01*
X198416138Y-136771316D01*
G37*
G36*
X165470000Y-136820000D02*
G01*
X164730000Y-136820000D01*
X164730000Y-135380000D01*
X165470000Y-135380000D01*
X165470000Y-136820000D01*
G37*
G36*
X167370000Y-136820000D02*
G01*
X166630000Y-136820000D01*
X166630000Y-135380000D01*
X167370000Y-135380000D01*
X167370000Y-136820000D01*
G37*
G36*
X169379591Y-135615585D02*
G01*
X169413569Y-135625893D01*
X169444890Y-135642634D01*
X169472339Y-135665161D01*
X169494866Y-135692610D01*
X169511607Y-135723931D01*
X169521915Y-135757909D01*
X169526000Y-135799390D01*
X169526000Y-136400610D01*
X169521915Y-136442091D01*
X169511607Y-136476069D01*
X169494866Y-136507390D01*
X169472339Y-136534839D01*
X169444890Y-136557366D01*
X169413569Y-136574107D01*
X169379591Y-136584415D01*
X169338110Y-136588500D01*
X168661890Y-136588500D01*
X168620409Y-136584415D01*
X168586431Y-136574107D01*
X168555110Y-136557366D01*
X168527661Y-136534839D01*
X168505134Y-136507390D01*
X168488393Y-136476069D01*
X168478085Y-136442091D01*
X168474000Y-136400610D01*
X168474000Y-135799390D01*
X168478085Y-135757909D01*
X168488393Y-135723931D01*
X168505134Y-135692610D01*
X168527661Y-135665161D01*
X168555110Y-135642634D01*
X168586431Y-135625893D01*
X168620409Y-135615585D01*
X168661890Y-135611500D01*
X169338110Y-135611500D01*
X169379591Y-135615585D01*
G37*
G36*
X241373791Y-135172685D02*
G01*
X241407769Y-135182993D01*
X241439090Y-135199734D01*
X241466539Y-135222261D01*
X241489066Y-135249710D01*
X241505807Y-135281031D01*
X241516115Y-135315009D01*
X241520200Y-135356490D01*
X241520200Y-135957710D01*
X241516115Y-135999191D01*
X241505807Y-136033169D01*
X241489066Y-136064490D01*
X241466539Y-136091939D01*
X241439090Y-136114466D01*
X241407769Y-136131207D01*
X241373791Y-136141515D01*
X241332310Y-136145600D01*
X240656090Y-136145600D01*
X240614609Y-136141515D01*
X240580631Y-136131207D01*
X240549310Y-136114466D01*
X240521861Y-136091939D01*
X240499334Y-136064490D01*
X240482593Y-136033169D01*
X240472285Y-135999191D01*
X240468200Y-135957710D01*
X240468200Y-135356490D01*
X240472285Y-135315009D01*
X240482593Y-135281031D01*
X240499334Y-135249710D01*
X240521861Y-135222261D01*
X240549310Y-135199734D01*
X240580631Y-135182993D01*
X240614609Y-135172685D01*
X240656090Y-135168600D01*
X241332310Y-135168600D01*
X241373791Y-135172685D01*
G37*
G36*
X243953791Y-135142685D02*
G01*
X243987769Y-135152993D01*
X244019090Y-135169734D01*
X244046539Y-135192261D01*
X244069066Y-135219710D01*
X244085807Y-135251031D01*
X244096115Y-135285009D01*
X244100200Y-135326490D01*
X244100200Y-135927710D01*
X244096115Y-135969191D01*
X244085807Y-136003169D01*
X244069066Y-136034490D01*
X244046539Y-136061939D01*
X244019090Y-136084466D01*
X243987769Y-136101207D01*
X243953791Y-136111515D01*
X243912310Y-136115600D01*
X243236090Y-136115600D01*
X243194609Y-136111515D01*
X243160631Y-136101207D01*
X243129310Y-136084466D01*
X243101861Y-136061939D01*
X243079334Y-136034490D01*
X243062593Y-136003169D01*
X243052285Y-135969191D01*
X243048200Y-135927710D01*
X243048200Y-135326490D01*
X243052285Y-135285009D01*
X243062593Y-135251031D01*
X243079334Y-135219710D01*
X243101861Y-135192261D01*
X243129310Y-135169734D01*
X243160631Y-135152993D01*
X243194609Y-135142685D01*
X243236090Y-135138600D01*
X243912310Y-135138600D01*
X243953791Y-135142685D01*
G37*
G36*
X239946138Y-135311316D02*
G01*
X239966757Y-135317571D01*
X239985753Y-135327724D01*
X240002408Y-135341392D01*
X240016076Y-135358047D01*
X240026229Y-135377043D01*
X240032484Y-135397662D01*
X240035200Y-135425240D01*
X240035200Y-135883960D01*
X240032484Y-135911538D01*
X240026229Y-135932157D01*
X240016076Y-135951153D01*
X240002408Y-135967808D01*
X239985753Y-135981476D01*
X239966757Y-135991629D01*
X239946138Y-135997884D01*
X239918560Y-136000600D01*
X239409840Y-136000600D01*
X239382262Y-135997884D01*
X239361643Y-135991629D01*
X239342647Y-135981476D01*
X239325992Y-135967808D01*
X239312324Y-135951153D01*
X239302171Y-135932157D01*
X239295916Y-135911538D01*
X239293200Y-135883960D01*
X239293200Y-135425240D01*
X239295916Y-135397662D01*
X239302171Y-135377043D01*
X239312324Y-135358047D01*
X239325992Y-135341392D01*
X239342647Y-135327724D01*
X239361643Y-135317571D01*
X239382262Y-135311316D01*
X239409840Y-135308600D01*
X239918560Y-135308600D01*
X239946138Y-135311316D01*
G37*
G36*
X200411507Y-132323098D02*
G01*
X200449518Y-132334629D01*
X200484542Y-132353349D01*
X200515249Y-132378551D01*
X200540451Y-132409258D01*
X200559171Y-132444282D01*
X200570702Y-132482293D01*
X200575200Y-132527963D01*
X200575200Y-135611237D01*
X200570702Y-135656907D01*
X200559171Y-135694918D01*
X200540451Y-135729942D01*
X200515249Y-135760649D01*
X200484542Y-135785851D01*
X200449518Y-135804571D01*
X200411507Y-135816102D01*
X200365837Y-135820600D01*
X199557563Y-135820600D01*
X199511893Y-135816102D01*
X199473882Y-135804571D01*
X199438858Y-135785851D01*
X199408151Y-135760649D01*
X199382949Y-135729942D01*
X199364229Y-135694918D01*
X199352698Y-135656907D01*
X199348200Y-135611237D01*
X199348200Y-132527963D01*
X199352698Y-132482293D01*
X199364229Y-132444282D01*
X199382949Y-132409258D01*
X199408151Y-132378551D01*
X199438858Y-132353349D01*
X199473882Y-132334629D01*
X199511893Y-132323098D01*
X199557563Y-132318600D01*
X200365837Y-132318600D01*
X200411507Y-132323098D01*
G37*
G36*
X196136507Y-132323098D02*
G01*
X196174518Y-132334629D01*
X196209542Y-132353349D01*
X196240249Y-132378551D01*
X196265451Y-132409258D01*
X196284171Y-132444282D01*
X196295702Y-132482293D01*
X196300200Y-132527963D01*
X196300200Y-135611237D01*
X196295702Y-135656907D01*
X196284171Y-135694918D01*
X196265451Y-135729942D01*
X196240249Y-135760649D01*
X196209542Y-135785851D01*
X196174518Y-135804571D01*
X196136507Y-135816102D01*
X196090837Y-135820600D01*
X195282563Y-135820600D01*
X195236893Y-135816102D01*
X195198882Y-135804571D01*
X195163858Y-135785851D01*
X195133151Y-135760649D01*
X195107949Y-135729942D01*
X195089229Y-135694918D01*
X195077698Y-135656907D01*
X195073200Y-135611237D01*
X195073200Y-132527963D01*
X195077698Y-132482293D01*
X195089229Y-132444282D01*
X195107949Y-132409258D01*
X195133151Y-132378551D01*
X195163858Y-132353349D01*
X195198882Y-132334629D01*
X195236893Y-132323098D01*
X195282563Y-132318600D01*
X196090837Y-132318600D01*
X196136507Y-132323098D01*
G37*
G36*
X191042804Y-133247947D02*
G01*
X191079344Y-133259032D01*
X191113021Y-133277033D01*
X191142541Y-133301259D01*
X191166767Y-133330779D01*
X191184768Y-133364456D01*
X191195853Y-133400996D01*
X191200200Y-133445138D01*
X191200200Y-134894062D01*
X191195853Y-134938204D01*
X191184768Y-134974744D01*
X191166767Y-135008421D01*
X191142541Y-135037941D01*
X191113021Y-135062167D01*
X191079344Y-135080168D01*
X191042804Y-135091253D01*
X190998662Y-135095600D01*
X190049738Y-135095600D01*
X190005596Y-135091253D01*
X189969056Y-135080168D01*
X189935379Y-135062167D01*
X189905859Y-135037941D01*
X189881633Y-135008421D01*
X189863632Y-134974744D01*
X189852547Y-134938204D01*
X189848200Y-134894062D01*
X189848200Y-133445138D01*
X189852547Y-133400996D01*
X189863632Y-133364456D01*
X189881633Y-133330779D01*
X189905859Y-133301259D01*
X189935379Y-133277033D01*
X189969056Y-133259032D01*
X190005596Y-133247947D01*
X190049738Y-133243600D01*
X190998662Y-133243600D01*
X191042804Y-133247947D01*
G37*
G36*
X188242804Y-133247947D02*
G01*
X188279344Y-133259032D01*
X188313021Y-133277033D01*
X188342541Y-133301259D01*
X188366767Y-133330779D01*
X188384768Y-133364456D01*
X188395853Y-133400996D01*
X188400200Y-133445138D01*
X188400200Y-134894062D01*
X188395853Y-134938204D01*
X188384768Y-134974744D01*
X188366767Y-135008421D01*
X188342541Y-135037941D01*
X188313021Y-135062167D01*
X188279344Y-135080168D01*
X188242804Y-135091253D01*
X188198662Y-135095600D01*
X187249738Y-135095600D01*
X187205596Y-135091253D01*
X187169056Y-135080168D01*
X187135379Y-135062167D01*
X187105859Y-135037941D01*
X187081633Y-135008421D01*
X187063632Y-134974744D01*
X187052547Y-134938204D01*
X187048200Y-134894062D01*
X187048200Y-133445138D01*
X187052547Y-133400996D01*
X187063632Y-133364456D01*
X187081633Y-133330779D01*
X187105859Y-133301259D01*
X187135379Y-133277033D01*
X187169056Y-133259032D01*
X187205596Y-133247947D01*
X187249738Y-133243600D01*
X188198662Y-133243600D01*
X188242804Y-133247947D01*
G37*
G36*
X239946138Y-134341316D02*
G01*
X239966757Y-134347571D01*
X239985753Y-134357724D01*
X240002408Y-134371392D01*
X240016076Y-134388047D01*
X240026229Y-134407043D01*
X240032484Y-134427662D01*
X240035200Y-134455240D01*
X240035200Y-134913960D01*
X240032484Y-134941538D01*
X240026229Y-134962157D01*
X240016076Y-134981153D01*
X240002408Y-134997808D01*
X239985753Y-135011476D01*
X239966757Y-135021629D01*
X239946138Y-135027884D01*
X239918560Y-135030600D01*
X239409840Y-135030600D01*
X239382262Y-135027884D01*
X239361643Y-135021629D01*
X239342647Y-135011476D01*
X239325992Y-134997808D01*
X239312324Y-134981153D01*
X239302171Y-134962157D01*
X239295916Y-134941538D01*
X239293200Y-134913960D01*
X239293200Y-134455240D01*
X239295916Y-134427662D01*
X239302171Y-134407043D01*
X239312324Y-134388047D01*
X239325992Y-134371392D01*
X239342647Y-134357724D01*
X239361643Y-134347571D01*
X239382262Y-134341316D01*
X239409840Y-134338600D01*
X239918560Y-134338600D01*
X239946138Y-134341316D01*
G37*
G36*
X169379591Y-134040585D02*
G01*
X169413569Y-134050893D01*
X169444890Y-134067634D01*
X169472339Y-134090161D01*
X169494866Y-134117610D01*
X169511607Y-134148931D01*
X169521915Y-134182909D01*
X169526000Y-134224390D01*
X169526000Y-134825610D01*
X169521915Y-134867091D01*
X169511607Y-134901069D01*
X169494866Y-134932390D01*
X169472339Y-134959839D01*
X169444890Y-134982366D01*
X169413569Y-134999107D01*
X169379591Y-135009415D01*
X169338110Y-135013500D01*
X168661890Y-135013500D01*
X168620409Y-135009415D01*
X168586431Y-134999107D01*
X168555110Y-134982366D01*
X168527661Y-134959839D01*
X168505134Y-134932390D01*
X168488393Y-134901069D01*
X168478085Y-134867091D01*
X168474000Y-134825610D01*
X168474000Y-134224390D01*
X168478085Y-134182909D01*
X168488393Y-134148931D01*
X168505134Y-134117610D01*
X168527661Y-134090161D01*
X168555110Y-134067634D01*
X168586431Y-134050893D01*
X168620409Y-134040585D01*
X168661890Y-134036500D01*
X169338110Y-134036500D01*
X169379591Y-134040585D01*
G37*
G36*
X166420000Y-134720000D02*
G01*
X165680000Y-134720000D01*
X165680000Y-133280000D01*
X166420000Y-133280000D01*
X166420000Y-134720000D01*
G37*
G36*
X241373791Y-133597685D02*
G01*
X241407769Y-133607993D01*
X241439090Y-133624734D01*
X241466539Y-133647261D01*
X241489066Y-133674710D01*
X241505807Y-133706031D01*
X241516115Y-133740009D01*
X241520200Y-133781490D01*
X241520200Y-134382710D01*
X241516115Y-134424191D01*
X241505807Y-134458169D01*
X241489066Y-134489490D01*
X241466539Y-134516939D01*
X241439090Y-134539466D01*
X241407769Y-134556207D01*
X241373791Y-134566515D01*
X241332310Y-134570600D01*
X240656090Y-134570600D01*
X240614609Y-134566515D01*
X240580631Y-134556207D01*
X240549310Y-134539466D01*
X240521861Y-134516939D01*
X240499334Y-134489490D01*
X240482593Y-134458169D01*
X240472285Y-134424191D01*
X240468200Y-134382710D01*
X240468200Y-133781490D01*
X240472285Y-133740009D01*
X240482593Y-133706031D01*
X240499334Y-133674710D01*
X240521861Y-133647261D01*
X240549310Y-133624734D01*
X240580631Y-133607993D01*
X240614609Y-133597685D01*
X240656090Y-133593600D01*
X241332310Y-133593600D01*
X241373791Y-133597685D01*
G37*
G36*
X243953791Y-133567685D02*
G01*
X243987769Y-133577993D01*
X244019090Y-133594734D01*
X244046539Y-133617261D01*
X244069066Y-133644710D01*
X244085807Y-133676031D01*
X244096115Y-133710009D01*
X244100200Y-133751490D01*
X244100200Y-134352710D01*
X244096115Y-134394191D01*
X244085807Y-134428169D01*
X244069066Y-134459490D01*
X244046539Y-134486939D01*
X244019090Y-134509466D01*
X243987769Y-134526207D01*
X243953791Y-134536515D01*
X243912310Y-134540600D01*
X243236090Y-134540600D01*
X243194609Y-134536515D01*
X243160631Y-134526207D01*
X243129310Y-134509466D01*
X243101861Y-134486939D01*
X243079334Y-134459490D01*
X243062593Y-134428169D01*
X243052285Y-134394191D01*
X243048200Y-134352710D01*
X243048200Y-133751490D01*
X243052285Y-133710009D01*
X243062593Y-133676031D01*
X243079334Y-133644710D01*
X243101861Y-133617261D01*
X243129310Y-133594734D01*
X243160631Y-133577993D01*
X243194609Y-133567685D01*
X243236090Y-133563600D01*
X243912310Y-133563600D01*
X243953791Y-133567685D01*
G37*
G36*
X169281938Y-132841716D02*
G01*
X169302557Y-132847971D01*
X169321553Y-132858124D01*
X169338208Y-132871792D01*
X169351876Y-132888447D01*
X169362029Y-132907443D01*
X169368284Y-132928062D01*
X169371000Y-132955640D01*
X169371000Y-133414360D01*
X169368284Y-133441938D01*
X169362029Y-133462557D01*
X169351876Y-133481553D01*
X169338208Y-133498208D01*
X169321553Y-133511876D01*
X169302557Y-133522029D01*
X169281938Y-133528284D01*
X169254360Y-133531000D01*
X168745640Y-133531000D01*
X168718062Y-133528284D01*
X168697443Y-133522029D01*
X168678447Y-133511876D01*
X168661792Y-133498208D01*
X168648124Y-133481553D01*
X168637971Y-133462557D01*
X168631716Y-133441938D01*
X168629000Y-133414360D01*
X168629000Y-132955640D01*
X168631716Y-132928062D01*
X168637971Y-132907443D01*
X168648124Y-132888447D01*
X168661792Y-132871792D01*
X168678447Y-132858124D01*
X168697443Y-132847971D01*
X168718062Y-132841716D01*
X168745640Y-132839000D01*
X169254360Y-132839000D01*
X169281938Y-132841716D01*
G37*
G36*
X167029591Y-131678085D02*
G01*
X167063569Y-131688393D01*
X167094890Y-131705134D01*
X167122339Y-131727661D01*
X167144866Y-131755110D01*
X167161607Y-131786431D01*
X167171915Y-131820409D01*
X167176000Y-131861890D01*
X167176000Y-132538110D01*
X167171915Y-132579591D01*
X167161607Y-132613569D01*
X167144866Y-132644890D01*
X167122339Y-132672339D01*
X167094890Y-132694866D01*
X167063569Y-132711607D01*
X167029591Y-132721915D01*
X166988110Y-132726000D01*
X166386890Y-132726000D01*
X166345409Y-132721915D01*
X166311431Y-132711607D01*
X166280110Y-132694866D01*
X166252661Y-132672339D01*
X166230134Y-132644890D01*
X166213393Y-132613569D01*
X166203085Y-132579591D01*
X166199000Y-132538110D01*
X166199000Y-131861890D01*
X166203085Y-131820409D01*
X166213393Y-131786431D01*
X166230134Y-131755110D01*
X166252661Y-131727661D01*
X166280110Y-131705134D01*
X166311431Y-131688393D01*
X166345409Y-131678085D01*
X166386890Y-131674000D01*
X166988110Y-131674000D01*
X167029591Y-131678085D01*
G37*
G36*
X165454591Y-131678085D02*
G01*
X165488569Y-131688393D01*
X165519890Y-131705134D01*
X165547339Y-131727661D01*
X165569866Y-131755110D01*
X165586607Y-131786431D01*
X165596915Y-131820409D01*
X165601000Y-131861890D01*
X165601000Y-132538110D01*
X165596915Y-132579591D01*
X165586607Y-132613569D01*
X165569866Y-132644890D01*
X165547339Y-132672339D01*
X165519890Y-132694866D01*
X165488569Y-132711607D01*
X165454591Y-132721915D01*
X165413110Y-132726000D01*
X164811890Y-132726000D01*
X164770409Y-132721915D01*
X164736431Y-132711607D01*
X164705110Y-132694866D01*
X164677661Y-132672339D01*
X164655134Y-132644890D01*
X164638393Y-132613569D01*
X164628085Y-132579591D01*
X164624000Y-132538110D01*
X164624000Y-131861890D01*
X164628085Y-131820409D01*
X164638393Y-131786431D01*
X164655134Y-131755110D01*
X164677661Y-131727661D01*
X164705110Y-131705134D01*
X164736431Y-131688393D01*
X164770409Y-131678085D01*
X164811890Y-131674000D01*
X165413110Y-131674000D01*
X165454591Y-131678085D01*
G37*
G36*
X249908749Y-107530716D02*
G01*
X250019934Y-107552832D01*
X250229403Y-107639597D01*
X250417920Y-107765560D01*
X250578240Y-107925880D01*
X250704203Y-108114397D01*
X250790968Y-108323866D01*
X250835200Y-108546236D01*
X250835200Y-108772964D01*
X250790968Y-108995334D01*
X250704203Y-109204803D01*
X250578240Y-109393320D01*
X250417920Y-109553640D01*
X250229403Y-109679603D01*
X250019934Y-109766368D01*
X249892361Y-109791744D01*
X249815648Y-109807003D01*
X249792199Y-109814116D01*
X249770588Y-109825667D01*
X249751646Y-109841212D01*
X249736101Y-109860154D01*
X249724550Y-109881765D01*
X249717437Y-109905214D01*
X249715035Y-109929600D01*
X249717437Y-109953986D01*
X249724550Y-109977435D01*
X249736101Y-109999046D01*
X249751646Y-110017988D01*
X249770588Y-110033533D01*
X249792199Y-110045084D01*
X249815648Y-110052197D01*
X249890284Y-110067043D01*
X250019934Y-110092832D01*
X250229403Y-110179597D01*
X250417920Y-110305560D01*
X250578240Y-110465880D01*
X250704203Y-110654397D01*
X250704204Y-110654399D01*
X250718921Y-110689929D01*
X250790968Y-110863866D01*
X250835200Y-111086236D01*
X250835200Y-111312964D01*
X250790968Y-111535334D01*
X250704203Y-111744803D01*
X250578240Y-111933320D01*
X250417920Y-112093640D01*
X250229403Y-112219603D01*
X250019934Y-112306368D01*
X249892361Y-112331744D01*
X249815648Y-112347003D01*
X249792199Y-112354116D01*
X249770588Y-112365667D01*
X249751646Y-112381212D01*
X249736101Y-112400154D01*
X249724550Y-112421765D01*
X249717437Y-112445214D01*
X249715035Y-112469600D01*
X249717437Y-112493986D01*
X249724550Y-112517435D01*
X249736101Y-112539046D01*
X249751646Y-112557988D01*
X249770588Y-112573533D01*
X249792199Y-112585084D01*
X249815648Y-112592197D01*
X249892361Y-112607456D01*
X250019934Y-112632832D01*
X250229403Y-112719597D01*
X250417920Y-112845560D01*
X250578240Y-113005880D01*
X250704203Y-113194397D01*
X250790968Y-113403866D01*
X250795745Y-113427884D01*
X250835200Y-113626235D01*
X250835200Y-113852965D01*
X250790968Y-114075333D01*
X250709776Y-114271350D01*
X250704203Y-114284803D01*
X250578240Y-114473320D01*
X250417920Y-114633640D01*
X250229403Y-114759603D01*
X250019934Y-114846368D01*
X249892361Y-114871744D01*
X249815648Y-114887003D01*
X249792199Y-114894116D01*
X249770588Y-114905667D01*
X249751646Y-114921212D01*
X249736101Y-114940154D01*
X249724550Y-114961765D01*
X249717437Y-114985214D01*
X249715035Y-115009600D01*
X249717437Y-115033986D01*
X249724550Y-115057435D01*
X249736101Y-115079046D01*
X249751646Y-115097988D01*
X249770588Y-115113533D01*
X249792199Y-115125084D01*
X249815648Y-115132197D01*
X249892361Y-115147456D01*
X250019934Y-115172832D01*
X250229403Y-115259597D01*
X250417920Y-115385560D01*
X250578240Y-115545880D01*
X250704203Y-115734397D01*
X250790968Y-115943866D01*
X250835200Y-116166236D01*
X250835200Y-116392964D01*
X250790968Y-116615334D01*
X250704203Y-116824803D01*
X250578240Y-117013320D01*
X250417920Y-117173640D01*
X250229403Y-117299603D01*
X250019934Y-117386368D01*
X249892361Y-117411744D01*
X249815648Y-117427003D01*
X249792199Y-117434116D01*
X249770588Y-117445667D01*
X249751646Y-117461212D01*
X249736101Y-117480154D01*
X249724550Y-117501765D01*
X249717437Y-117525214D01*
X249715035Y-117549600D01*
X249717437Y-117573986D01*
X249724550Y-117597435D01*
X249736101Y-117619046D01*
X249751646Y-117637988D01*
X249770588Y-117653533D01*
X249792199Y-117665084D01*
X249815648Y-117672197D01*
X249892361Y-117687456D01*
X250019934Y-117712832D01*
X250229403Y-117799597D01*
X250417920Y-117925560D01*
X250578240Y-118085880D01*
X250704203Y-118274397D01*
X250704204Y-118274399D01*
X250790968Y-118483867D01*
X250835200Y-118706235D01*
X250835200Y-118932965D01*
X250813084Y-119044149D01*
X250790968Y-119155334D01*
X250704203Y-119364803D01*
X250578240Y-119553320D01*
X250417920Y-119713640D01*
X250229403Y-119839603D01*
X250019934Y-119926368D01*
X249892361Y-119951744D01*
X249815648Y-119967003D01*
X249792199Y-119974116D01*
X249770588Y-119985667D01*
X249751646Y-120001212D01*
X249736101Y-120020154D01*
X249724550Y-120041765D01*
X249717437Y-120065214D01*
X249715035Y-120089600D01*
X249717437Y-120113986D01*
X249724550Y-120137435D01*
X249736101Y-120159046D01*
X249751646Y-120177988D01*
X249770588Y-120193533D01*
X249792199Y-120205084D01*
X249815648Y-120212197D01*
X249892361Y-120227456D01*
X250019934Y-120252832D01*
X250229403Y-120339597D01*
X250417920Y-120465560D01*
X250578240Y-120625880D01*
X250704203Y-120814397D01*
X250790968Y-121023866D01*
X250835200Y-121246236D01*
X250835200Y-121472964D01*
X250790968Y-121695334D01*
X250704203Y-121904803D01*
X250578240Y-122093320D01*
X250417920Y-122253640D01*
X250229403Y-122379603D01*
X250019934Y-122466368D01*
X249892361Y-122491744D01*
X249815648Y-122507003D01*
X249792199Y-122514116D01*
X249770588Y-122525667D01*
X249751646Y-122541212D01*
X249736101Y-122560154D01*
X249724550Y-122581765D01*
X249717437Y-122605214D01*
X249715035Y-122629600D01*
X249717437Y-122653986D01*
X249724550Y-122677435D01*
X249736101Y-122699046D01*
X249751646Y-122717988D01*
X249770588Y-122733533D01*
X249792199Y-122745084D01*
X249815648Y-122752197D01*
X249892361Y-122767456D01*
X250019934Y-122792832D01*
X250229403Y-122879597D01*
X250417920Y-123005560D01*
X250578240Y-123165880D01*
X250704203Y-123354397D01*
X250704204Y-123354399D01*
X250790968Y-123563867D01*
X250814785Y-123683600D01*
X250835200Y-123786236D01*
X250835200Y-124012964D01*
X250790968Y-124235334D01*
X250788195Y-124242028D01*
X250712504Y-124424764D01*
X250704203Y-124444803D01*
X250578240Y-124633320D01*
X250417920Y-124793640D01*
X250229403Y-124919603D01*
X250019934Y-125006368D01*
X249892361Y-125031744D01*
X249815648Y-125047003D01*
X249792199Y-125054116D01*
X249770588Y-125065667D01*
X249751646Y-125081212D01*
X249736101Y-125100154D01*
X249724550Y-125121765D01*
X249717437Y-125145214D01*
X249715035Y-125169600D01*
X249717437Y-125193986D01*
X249724550Y-125217435D01*
X249736101Y-125239046D01*
X249751646Y-125257988D01*
X249770588Y-125273533D01*
X249792199Y-125285084D01*
X249815648Y-125292197D01*
X249889761Y-125306939D01*
X250019934Y-125332832D01*
X250229403Y-125419597D01*
X250417920Y-125545560D01*
X250578240Y-125705880D01*
X250704203Y-125894397D01*
X250790968Y-126103866D01*
X250835200Y-126326236D01*
X250835200Y-126552964D01*
X250790968Y-126775334D01*
X250758358Y-126854061D01*
X250726528Y-126930907D01*
X250704203Y-126984803D01*
X250578240Y-127173320D01*
X250417920Y-127333640D01*
X250229403Y-127459603D01*
X250019934Y-127546368D01*
X249892361Y-127571744D01*
X249815648Y-127587003D01*
X249792199Y-127594116D01*
X249770588Y-127605667D01*
X249751646Y-127621212D01*
X249736101Y-127640154D01*
X249724550Y-127661765D01*
X249717437Y-127685214D01*
X249715035Y-127709600D01*
X249717437Y-127733986D01*
X249724550Y-127757435D01*
X249736101Y-127779046D01*
X249751646Y-127797988D01*
X249770588Y-127813533D01*
X249792199Y-127825084D01*
X249815648Y-127832197D01*
X249892361Y-127847456D01*
X250019934Y-127872832D01*
X250229403Y-127959597D01*
X250417920Y-128085560D01*
X250578240Y-128245880D01*
X250704203Y-128434397D01*
X250790968Y-128643866D01*
X250835200Y-128866236D01*
X250835200Y-129092964D01*
X250790968Y-129315334D01*
X250704203Y-129524803D01*
X250578240Y-129713320D01*
X250417920Y-129873640D01*
X250229403Y-129999603D01*
X250019934Y-130086368D01*
X249903392Y-130109550D01*
X249845807Y-130121004D01*
X249822358Y-130128117D01*
X249800747Y-130139668D01*
X249781805Y-130155213D01*
X249766260Y-130174155D01*
X249754709Y-130195766D01*
X249747596Y-130219215D01*
X249745194Y-130243601D01*
X249747596Y-130267987D01*
X249754709Y-130291436D01*
X249766260Y-130313047D01*
X249781805Y-130331989D01*
X249800747Y-130347534D01*
X249822358Y-130359085D01*
X249845807Y-130366198D01*
X249870193Y-130368600D01*
X250835200Y-130368600D01*
X250835200Y-132670600D01*
X248533200Y-132670600D01*
X248533200Y-130368600D01*
X249498207Y-130368600D01*
X249522593Y-130366198D01*
X249546042Y-130359085D01*
X249567653Y-130347534D01*
X249586595Y-130331989D01*
X249602140Y-130313047D01*
X249613691Y-130291436D01*
X249620804Y-130267987D01*
X249623206Y-130243601D01*
X249620804Y-130219215D01*
X249613691Y-130195766D01*
X249602140Y-130174155D01*
X249586595Y-130155213D01*
X249567653Y-130139668D01*
X249546042Y-130128117D01*
X249522593Y-130121004D01*
X249465008Y-130109550D01*
X249348466Y-130086368D01*
X249138997Y-129999603D01*
X248950480Y-129873640D01*
X248790160Y-129713320D01*
X248664197Y-129524803D01*
X248577432Y-129315334D01*
X248533200Y-129092964D01*
X248533200Y-128866236D01*
X248577432Y-128643866D01*
X248664197Y-128434397D01*
X248790160Y-128245880D01*
X248950480Y-128085560D01*
X249138997Y-127959597D01*
X249348466Y-127872832D01*
X249476039Y-127847456D01*
X249552752Y-127832197D01*
X249576201Y-127825084D01*
X249597812Y-127813533D01*
X249616754Y-127797988D01*
X249632299Y-127779046D01*
X249643850Y-127757435D01*
X249650963Y-127733986D01*
X249653365Y-127709600D01*
X249650963Y-127685214D01*
X249643850Y-127661765D01*
X249632299Y-127640154D01*
X249616754Y-127621212D01*
X249597812Y-127605667D01*
X249576201Y-127594116D01*
X249552752Y-127587003D01*
X249476039Y-127571744D01*
X249348466Y-127546368D01*
X249138997Y-127459603D01*
X248950480Y-127333640D01*
X248790160Y-127173320D01*
X248664197Y-126984803D01*
X248641873Y-126930907D01*
X248610042Y-126854061D01*
X248577432Y-126775334D01*
X248533200Y-126552964D01*
X248533200Y-126326236D01*
X248577432Y-126103866D01*
X248664197Y-125894397D01*
X248790160Y-125705880D01*
X248950480Y-125545560D01*
X249138997Y-125419597D01*
X249348466Y-125332832D01*
X249478639Y-125306939D01*
X249552752Y-125292197D01*
X249576201Y-125285084D01*
X249597812Y-125273533D01*
X249616754Y-125257988D01*
X249632299Y-125239046D01*
X249643850Y-125217435D01*
X249650963Y-125193986D01*
X249653365Y-125169600D01*
X249650963Y-125145214D01*
X249643850Y-125121765D01*
X249632299Y-125100154D01*
X249616754Y-125081212D01*
X249597812Y-125065667D01*
X249576201Y-125054116D01*
X249552752Y-125047003D01*
X249476039Y-125031744D01*
X249348466Y-125006368D01*
X249138997Y-124919603D01*
X248950480Y-124793640D01*
X248790160Y-124633320D01*
X248664197Y-124444803D01*
X248655897Y-124424764D01*
X248580205Y-124242028D01*
X248577432Y-124235334D01*
X248533200Y-124012964D01*
X248533200Y-123786236D01*
X248553616Y-123683600D01*
X248577432Y-123563867D01*
X248664196Y-123354399D01*
X248664197Y-123354397D01*
X248790160Y-123165880D01*
X248950480Y-123005560D01*
X249138997Y-122879597D01*
X249348466Y-122792832D01*
X249476039Y-122767456D01*
X249552752Y-122752197D01*
X249576201Y-122745084D01*
X249597812Y-122733533D01*
X249616754Y-122717988D01*
X249632299Y-122699046D01*
X249643850Y-122677435D01*
X249650963Y-122653986D01*
X249653365Y-122629600D01*
X249650963Y-122605214D01*
X249643850Y-122581765D01*
X249632299Y-122560154D01*
X249616754Y-122541212D01*
X249597812Y-122525667D01*
X249576201Y-122514116D01*
X249552752Y-122507003D01*
X249476039Y-122491744D01*
X249348466Y-122466368D01*
X249138997Y-122379603D01*
X248950480Y-122253640D01*
X248790160Y-122093320D01*
X248664197Y-121904803D01*
X248577432Y-121695334D01*
X248533200Y-121472964D01*
X248533200Y-121246236D01*
X248577432Y-121023866D01*
X248664197Y-120814397D01*
X248790160Y-120625880D01*
X248950480Y-120465560D01*
X249138997Y-120339597D01*
X249348466Y-120252832D01*
X249476039Y-120227456D01*
X249552752Y-120212197D01*
X249576201Y-120205084D01*
X249597812Y-120193533D01*
X249616754Y-120177988D01*
X249632299Y-120159046D01*
X249643850Y-120137435D01*
X249650963Y-120113986D01*
X249653365Y-120089600D01*
X249650963Y-120065214D01*
X249643850Y-120041765D01*
X249632299Y-120020154D01*
X249616754Y-120001212D01*
X249597812Y-119985667D01*
X249576201Y-119974116D01*
X249552752Y-119967003D01*
X249476039Y-119951744D01*
X249348466Y-119926368D01*
X249138997Y-119839603D01*
X248950480Y-119713640D01*
X248790160Y-119553320D01*
X248664197Y-119364803D01*
X248577432Y-119155334D01*
X248555316Y-119044149D01*
X248533200Y-118932965D01*
X248533200Y-118706235D01*
X248577432Y-118483867D01*
X248664196Y-118274399D01*
X248664197Y-118274397D01*
X248790160Y-118085880D01*
X248950480Y-117925560D01*
X249138997Y-117799597D01*
X249348466Y-117712832D01*
X249476039Y-117687456D01*
X249552752Y-117672197D01*
X249576201Y-117665084D01*
X249597812Y-117653533D01*
X249616754Y-117637988D01*
X249632299Y-117619046D01*
X249643850Y-117597435D01*
X249650963Y-117573986D01*
X249653365Y-117549600D01*
X249650963Y-117525214D01*
X249643850Y-117501765D01*
X249632299Y-117480154D01*
X249616754Y-117461212D01*
X249597812Y-117445667D01*
X249576201Y-117434116D01*
X249552752Y-117427003D01*
X249476039Y-117411744D01*
X249348466Y-117386368D01*
X249138997Y-117299603D01*
X248950480Y-117173640D01*
X248790160Y-117013320D01*
X248664197Y-116824803D01*
X248577432Y-116615334D01*
X248533200Y-116392964D01*
X248533200Y-116166236D01*
X248577432Y-115943866D01*
X248664197Y-115734397D01*
X248790160Y-115545880D01*
X248950480Y-115385560D01*
X249138997Y-115259597D01*
X249348466Y-115172832D01*
X249476039Y-115147456D01*
X249552752Y-115132197D01*
X249576201Y-115125084D01*
X249597812Y-115113533D01*
X249616754Y-115097988D01*
X249632299Y-115079046D01*
X249643850Y-115057435D01*
X249650963Y-115033986D01*
X249653365Y-115009600D01*
X249650963Y-114985214D01*
X249643850Y-114961765D01*
X249632299Y-114940154D01*
X249616754Y-114921212D01*
X249597812Y-114905667D01*
X249576201Y-114894116D01*
X249552752Y-114887003D01*
X249476039Y-114871744D01*
X249348466Y-114846368D01*
X249138997Y-114759603D01*
X248950480Y-114633640D01*
X248790160Y-114473320D01*
X248664197Y-114284803D01*
X248658625Y-114271350D01*
X248577432Y-114075333D01*
X248533200Y-113852965D01*
X248533200Y-113626235D01*
X248572655Y-113427884D01*
X248577432Y-113403866D01*
X248664197Y-113194397D01*
X248790160Y-113005880D01*
X248950480Y-112845560D01*
X249138997Y-112719597D01*
X249348466Y-112632832D01*
X249476039Y-112607456D01*
X249552752Y-112592197D01*
X249576201Y-112585084D01*
X249597812Y-112573533D01*
X249616754Y-112557988D01*
X249632299Y-112539046D01*
X249643850Y-112517435D01*
X249650963Y-112493986D01*
X249653365Y-112469600D01*
X249650963Y-112445214D01*
X249643850Y-112421765D01*
X249632299Y-112400154D01*
X249616754Y-112381212D01*
X249597812Y-112365667D01*
X249576201Y-112354116D01*
X249552752Y-112347003D01*
X249476039Y-112331744D01*
X249348466Y-112306368D01*
X249138997Y-112219603D01*
X248950480Y-112093640D01*
X248790160Y-111933320D01*
X248664197Y-111744803D01*
X248577432Y-111535334D01*
X248533200Y-111312964D01*
X248533200Y-111086236D01*
X248577432Y-110863866D01*
X248649479Y-110689929D01*
X248664196Y-110654399D01*
X248664197Y-110654397D01*
X248790160Y-110465880D01*
X248950480Y-110305560D01*
X249138997Y-110179597D01*
X249348466Y-110092832D01*
X249478116Y-110067043D01*
X249552752Y-110052197D01*
X249576201Y-110045084D01*
X249597812Y-110033533D01*
X249616754Y-110017988D01*
X249632299Y-109999046D01*
X249643850Y-109977435D01*
X249650963Y-109953986D01*
X249653365Y-109929600D01*
X249650963Y-109905214D01*
X249643850Y-109881765D01*
X249632299Y-109860154D01*
X249616754Y-109841212D01*
X249597812Y-109825667D01*
X249576201Y-109814116D01*
X249552752Y-109807003D01*
X249476039Y-109791744D01*
X249348466Y-109766368D01*
X249138997Y-109679603D01*
X248950480Y-109553640D01*
X248790160Y-109393320D01*
X248664197Y-109204803D01*
X248577432Y-108995334D01*
X248533200Y-108772964D01*
X248533200Y-108546236D01*
X248577432Y-108323866D01*
X248664197Y-108114397D01*
X248790160Y-107925880D01*
X248950480Y-107765560D01*
X249138997Y-107639597D01*
X249348466Y-107552832D01*
X249459651Y-107530716D01*
X249570835Y-107508600D01*
X249797565Y-107508600D01*
X249908749Y-107530716D01*
G37*
G36*
X169281938Y-131871716D02*
G01*
X169302557Y-131877971D01*
X169321553Y-131888124D01*
X169338208Y-131901792D01*
X169351876Y-131918447D01*
X169362029Y-131937443D01*
X169368284Y-131958062D01*
X169371000Y-131985640D01*
X169371000Y-132444360D01*
X169368284Y-132471938D01*
X169362029Y-132492557D01*
X169351876Y-132511553D01*
X169338208Y-132528208D01*
X169321553Y-132541876D01*
X169302557Y-132552029D01*
X169281938Y-132558284D01*
X169254360Y-132561000D01*
X168745640Y-132561000D01*
X168718062Y-132558284D01*
X168697443Y-132552029D01*
X168678447Y-132541876D01*
X168661792Y-132528208D01*
X168648124Y-132511553D01*
X168637971Y-132492557D01*
X168631716Y-132471938D01*
X168629000Y-132444360D01*
X168629000Y-131985640D01*
X168631716Y-131958062D01*
X168637971Y-131937443D01*
X168648124Y-131918447D01*
X168661792Y-131901792D01*
X168678447Y-131888124D01*
X168697443Y-131877971D01*
X168718062Y-131871716D01*
X168745640Y-131869000D01*
X169254360Y-131869000D01*
X169281938Y-131871716D01*
G37*
G36*
X197096168Y-130323165D02*
G01*
X197134838Y-130334896D01*
X197170477Y-130353946D01*
X197201717Y-130379583D01*
X197227354Y-130410823D01*
X197246404Y-130446462D01*
X197258135Y-130485132D01*
X197262700Y-130531488D01*
X197262700Y-131607712D01*
X197258135Y-131654068D01*
X197246404Y-131692738D01*
X197227354Y-131728377D01*
X197201717Y-131759617D01*
X197170477Y-131785254D01*
X197134838Y-131804304D01*
X197096168Y-131816035D01*
X197049812Y-131820600D01*
X196398588Y-131820600D01*
X196352232Y-131816035D01*
X196313562Y-131804304D01*
X196277923Y-131785254D01*
X196246683Y-131759617D01*
X196221046Y-131728377D01*
X196201996Y-131692738D01*
X196190265Y-131654068D01*
X196185700Y-131607712D01*
X196185700Y-130531488D01*
X196190265Y-130485132D01*
X196201996Y-130446462D01*
X196221046Y-130410823D01*
X196246683Y-130379583D01*
X196277923Y-130353946D01*
X196313562Y-130334896D01*
X196352232Y-130323165D01*
X196398588Y-130318600D01*
X197049812Y-130318600D01*
X197096168Y-130323165D01*
G37*
G36*
X198971168Y-130323165D02*
G01*
X199009838Y-130334896D01*
X199045477Y-130353946D01*
X199076717Y-130379583D01*
X199102354Y-130410823D01*
X199121404Y-130446462D01*
X199133135Y-130485132D01*
X199137700Y-130531488D01*
X199137700Y-131607712D01*
X199133135Y-131654068D01*
X199121404Y-131692738D01*
X199102354Y-131728377D01*
X199076717Y-131759617D01*
X199045477Y-131785254D01*
X199009838Y-131804304D01*
X198971168Y-131816035D01*
X198924812Y-131820600D01*
X198273588Y-131820600D01*
X198227232Y-131816035D01*
X198188562Y-131804304D01*
X198152923Y-131785254D01*
X198121683Y-131759617D01*
X198096046Y-131728377D01*
X198076996Y-131692738D01*
X198065265Y-131654068D01*
X198060700Y-131607712D01*
X198060700Y-130531488D01*
X198065265Y-130485132D01*
X198076996Y-130446462D01*
X198096046Y-130410823D01*
X198121683Y-130379583D01*
X198152923Y-130353946D01*
X198188562Y-130334896D01*
X198227232Y-130323165D01*
X198273588Y-130318600D01*
X198924812Y-130318600D01*
X198971168Y-130323165D01*
G37*
G36*
X188205500Y-131527600D02*
G01*
X185842900Y-131527600D01*
X185842900Y-128936400D01*
X188205500Y-128936400D01*
X188205500Y-131527600D01*
G37*
G36*
X193539500Y-131527600D02*
G01*
X191176900Y-131527600D01*
X191176900Y-128936400D01*
X193539500Y-128936400D01*
X193539500Y-131527600D01*
G37*
G36*
X179165900Y-131203900D02*
G01*
X175761900Y-131203900D01*
X175761900Y-129298500D01*
X179165900Y-129298500D01*
X179165900Y-131203900D01*
G37*
G36*
X184677700Y-131203900D02*
G01*
X181273700Y-131203900D01*
X181273700Y-129298500D01*
X184677700Y-129298500D01*
X184677700Y-131203900D01*
G37*
G36*
X241279191Y-125962685D02*
G01*
X241313169Y-125972993D01*
X241344490Y-125989734D01*
X241371939Y-126012261D01*
X241394466Y-126039710D01*
X241411207Y-126071031D01*
X241421515Y-126105009D01*
X241425600Y-126146490D01*
X241425600Y-126747710D01*
X241421515Y-126789191D01*
X241411207Y-126823169D01*
X241394466Y-126854490D01*
X241371939Y-126881939D01*
X241344490Y-126904466D01*
X241313169Y-126921207D01*
X241279191Y-126931515D01*
X241237710Y-126935600D01*
X240561490Y-126935600D01*
X240520009Y-126931515D01*
X240486031Y-126921207D01*
X240454710Y-126904466D01*
X240427261Y-126881939D01*
X240404734Y-126854490D01*
X240387993Y-126823169D01*
X240377685Y-126789191D01*
X240373600Y-126747710D01*
X240373600Y-126146490D01*
X240377685Y-126105009D01*
X240387993Y-126071031D01*
X240404734Y-126039710D01*
X240427261Y-126012261D01*
X240454710Y-125989734D01*
X240486031Y-125972993D01*
X240520009Y-125962685D01*
X240561490Y-125958600D01*
X241237710Y-125958600D01*
X241279191Y-125962685D01*
G37*
G36*
X243863791Y-125952685D02*
G01*
X243897769Y-125962993D01*
X243929090Y-125979734D01*
X243956539Y-126002261D01*
X243979066Y-126029710D01*
X243995807Y-126061031D01*
X244006115Y-126095009D01*
X244010200Y-126136490D01*
X244010200Y-126737710D01*
X244006115Y-126779191D01*
X243995807Y-126813169D01*
X243979066Y-126844490D01*
X243956539Y-126871939D01*
X243929090Y-126894466D01*
X243897769Y-126911207D01*
X243863791Y-126921515D01*
X243822310Y-126925600D01*
X243146090Y-126925600D01*
X243104609Y-126921515D01*
X243070631Y-126911207D01*
X243039310Y-126894466D01*
X243011861Y-126871939D01*
X242989334Y-126844490D01*
X242972593Y-126813169D01*
X242962285Y-126779191D01*
X242958200Y-126737710D01*
X242958200Y-126136490D01*
X242962285Y-126095009D01*
X242972593Y-126061031D01*
X242989334Y-126029710D01*
X243011861Y-126002261D01*
X243039310Y-125979734D01*
X243070631Y-125962993D01*
X243104609Y-125952685D01*
X243146090Y-125948600D01*
X243822310Y-125948600D01*
X243863791Y-125952685D01*
G37*
G36*
X239826138Y-125521316D02*
G01*
X239846757Y-125527571D01*
X239865753Y-125537724D01*
X239882408Y-125551392D01*
X239896076Y-125568047D01*
X239906229Y-125587043D01*
X239912484Y-125607662D01*
X239915200Y-125635240D01*
X239915200Y-126093960D01*
X239912484Y-126121538D01*
X239906229Y-126142157D01*
X239896076Y-126161153D01*
X239882408Y-126177808D01*
X239865753Y-126191476D01*
X239846757Y-126201629D01*
X239826138Y-126207884D01*
X239798560Y-126210600D01*
X239289840Y-126210600D01*
X239262262Y-126207884D01*
X239241643Y-126201629D01*
X239222647Y-126191476D01*
X239205992Y-126177808D01*
X239192324Y-126161153D01*
X239182171Y-126142157D01*
X239175916Y-126121538D01*
X239173200Y-126093960D01*
X239173200Y-125635240D01*
X239175916Y-125607662D01*
X239182171Y-125587043D01*
X239192324Y-125568047D01*
X239205992Y-125551392D01*
X239222647Y-125537724D01*
X239241643Y-125527571D01*
X239262262Y-125521316D01*
X239289840Y-125518600D01*
X239798560Y-125518600D01*
X239826138Y-125521316D01*
G37*
G36*
X190040354Y-123710782D02*
G01*
X190108682Y-123724373D01*
X190205227Y-123764363D01*
X190301773Y-123804354D01*
X190475546Y-123920465D01*
X190623335Y-124068254D01*
X190739446Y-124242027D01*
X190739446Y-124242028D01*
X190816173Y-124427261D01*
X190819427Y-124435119D01*
X190858852Y-124633320D01*
X190860200Y-124640101D01*
X190860200Y-124849099D01*
X190819427Y-125054082D01*
X190790482Y-125123960D01*
X190739446Y-125247173D01*
X190623335Y-125420946D01*
X190475546Y-125568735D01*
X190301773Y-125684846D01*
X190205227Y-125724837D01*
X190108682Y-125764827D01*
X190040354Y-125778418D01*
X189903701Y-125805600D01*
X189694699Y-125805600D01*
X189558046Y-125778418D01*
X189489718Y-125764827D01*
X189393173Y-125724837D01*
X189296627Y-125684846D01*
X189122854Y-125568735D01*
X188975065Y-125420946D01*
X188858954Y-125247173D01*
X188807918Y-125123960D01*
X188778973Y-125054082D01*
X188738200Y-124849099D01*
X188738200Y-124640101D01*
X188739549Y-124633320D01*
X188778973Y-124435119D01*
X188782228Y-124427261D01*
X188858954Y-124242028D01*
X188858954Y-124242027D01*
X188975065Y-124068254D01*
X189122854Y-123920465D01*
X189296627Y-123804354D01*
X189393173Y-123764363D01*
X189489718Y-123724373D01*
X189558046Y-123710782D01*
X189694699Y-123683600D01*
X189903701Y-123683600D01*
X190040354Y-123710782D01*
G37*
G36*
X241279191Y-124387685D02*
G01*
X241313169Y-124397993D01*
X241344490Y-124414734D01*
X241371939Y-124437261D01*
X241394466Y-124464710D01*
X241411207Y-124496031D01*
X241421515Y-124530009D01*
X241425600Y-124571490D01*
X241425600Y-125172710D01*
X241421515Y-125214191D01*
X241411207Y-125248169D01*
X241394466Y-125279490D01*
X241371939Y-125306939D01*
X241344490Y-125329466D01*
X241313169Y-125346207D01*
X241279191Y-125356515D01*
X241237710Y-125360600D01*
X240561490Y-125360600D01*
X240520009Y-125356515D01*
X240486031Y-125346207D01*
X240454710Y-125329466D01*
X240427261Y-125306939D01*
X240404734Y-125279490D01*
X240387993Y-125248169D01*
X240377685Y-125214191D01*
X240373600Y-125172710D01*
X240373600Y-124571490D01*
X240377685Y-124530009D01*
X240387993Y-124496031D01*
X240404734Y-124464710D01*
X240427261Y-124437261D01*
X240454710Y-124414734D01*
X240486031Y-124397993D01*
X240520009Y-124387685D01*
X240561490Y-124383600D01*
X241237710Y-124383600D01*
X241279191Y-124387685D01*
G37*
G36*
X243863791Y-124377685D02*
G01*
X243897769Y-124387993D01*
X243929090Y-124404734D01*
X243956539Y-124427261D01*
X243979066Y-124454710D01*
X243995807Y-124486031D01*
X244006115Y-124520009D01*
X244010200Y-124561490D01*
X244010200Y-125162710D01*
X244006115Y-125204191D01*
X243995807Y-125238169D01*
X243979066Y-125269490D01*
X243956539Y-125296939D01*
X243929090Y-125319466D01*
X243897769Y-125336207D01*
X243863791Y-125346515D01*
X243822310Y-125350600D01*
X243146090Y-125350600D01*
X243104609Y-125346515D01*
X243070631Y-125336207D01*
X243039310Y-125319466D01*
X243011861Y-125296939D01*
X242989334Y-125269490D01*
X242972593Y-125238169D01*
X242962285Y-125204191D01*
X242958200Y-125162710D01*
X242958200Y-124561490D01*
X242962285Y-124520009D01*
X242972593Y-124486031D01*
X242989334Y-124454710D01*
X243011861Y-124427261D01*
X243039310Y-124404734D01*
X243070631Y-124387993D01*
X243104609Y-124377685D01*
X243146090Y-124373600D01*
X243822310Y-124373600D01*
X243863791Y-124377685D01*
G37*
G36*
X239826138Y-124551316D02*
G01*
X239846757Y-124557571D01*
X239865753Y-124567724D01*
X239882408Y-124581392D01*
X239896076Y-124598047D01*
X239906229Y-124617043D01*
X239912484Y-124637662D01*
X239915200Y-124665240D01*
X239915200Y-125123960D01*
X239912484Y-125151538D01*
X239906229Y-125172157D01*
X239896076Y-125191153D01*
X239882408Y-125207808D01*
X239865753Y-125221476D01*
X239846757Y-125231629D01*
X239826138Y-125237884D01*
X239798560Y-125240600D01*
X239289840Y-125240600D01*
X239262262Y-125237884D01*
X239241643Y-125231629D01*
X239222647Y-125221476D01*
X239205992Y-125207808D01*
X239192324Y-125191153D01*
X239182171Y-125172157D01*
X239175916Y-125151538D01*
X239173200Y-125123960D01*
X239173200Y-124665240D01*
X239175916Y-124637662D01*
X239182171Y-124617043D01*
X239192324Y-124598047D01*
X239205992Y-124581392D01*
X239222647Y-124567724D01*
X239241643Y-124557571D01*
X239262262Y-124551316D01*
X239289840Y-124548600D01*
X239798560Y-124548600D01*
X239826138Y-124551316D01*
G37*
G36*
X169179000Y-122846800D02*
G01*
X164577000Y-122846800D01*
X164577000Y-120744800D01*
X169179000Y-120744800D01*
X169179000Y-122846800D01*
G37*
G36*
X188218604Y-120878347D02*
G01*
X188255144Y-120889432D01*
X188288821Y-120907433D01*
X188318341Y-120931659D01*
X188342567Y-120961179D01*
X188360568Y-120994856D01*
X188371653Y-121031396D01*
X188376000Y-121075538D01*
X188376000Y-122524462D01*
X188371653Y-122568604D01*
X188360568Y-122605144D01*
X188342567Y-122638821D01*
X188318341Y-122668341D01*
X188288821Y-122692567D01*
X188255144Y-122710568D01*
X188218604Y-122721653D01*
X188174462Y-122726000D01*
X187225538Y-122726000D01*
X187181396Y-122721653D01*
X187144856Y-122710568D01*
X187111179Y-122692567D01*
X187081659Y-122668341D01*
X187057433Y-122638821D01*
X187039432Y-122605144D01*
X187028347Y-122568604D01*
X187024000Y-122524462D01*
X187024000Y-121075538D01*
X187028347Y-121031396D01*
X187039432Y-120994856D01*
X187057433Y-120961179D01*
X187081659Y-120931659D01*
X187111179Y-120907433D01*
X187144856Y-120889432D01*
X187181396Y-120878347D01*
X187225538Y-120874000D01*
X188174462Y-120874000D01*
X188218604Y-120878347D01*
G37*
G36*
X191018604Y-120878347D02*
G01*
X191055144Y-120889432D01*
X191088821Y-120907433D01*
X191118341Y-120931659D01*
X191142567Y-120961179D01*
X191160568Y-120994856D01*
X191171653Y-121031396D01*
X191176000Y-121075538D01*
X191176000Y-122524462D01*
X191171653Y-122568604D01*
X191160568Y-122605144D01*
X191142567Y-122638821D01*
X191118341Y-122668341D01*
X191088821Y-122692567D01*
X191055144Y-122710568D01*
X191018604Y-122721653D01*
X190974462Y-122726000D01*
X190025538Y-122726000D01*
X189981396Y-122721653D01*
X189944856Y-122710568D01*
X189911179Y-122692567D01*
X189881659Y-122668341D01*
X189857433Y-122638821D01*
X189839432Y-122605144D01*
X189828347Y-122568604D01*
X189824000Y-122524462D01*
X189824000Y-121075538D01*
X189828347Y-121031396D01*
X189839432Y-120994856D01*
X189857433Y-120961179D01*
X189881659Y-120931659D01*
X189911179Y-120907433D01*
X189944856Y-120889432D01*
X189981396Y-120878347D01*
X190025538Y-120874000D01*
X190974462Y-120874000D01*
X191018604Y-120878347D01*
G37*
G36*
X163229000Y-121096800D02*
G01*
X161127000Y-121096800D01*
X161127000Y-116494800D01*
X163229000Y-116494800D01*
X163229000Y-121096800D01*
G37*
G36*
X193372500Y-119195600D02*
G01*
X191009900Y-119195600D01*
X191009900Y-116604400D01*
X193372500Y-116604400D01*
X193372500Y-119195600D01*
G37*
G36*
X188038500Y-119195600D02*
G01*
X185675900Y-119195600D01*
X185675900Y-116604400D01*
X188038500Y-116604400D01*
X188038500Y-119195600D01*
G37*
G36*
X178995300Y-118947300D02*
G01*
X175591300Y-118947300D01*
X175591300Y-117041900D01*
X178995300Y-117041900D01*
X178995300Y-118947300D01*
G37*
G36*
X184507100Y-118947300D02*
G01*
X181103100Y-118947300D01*
X181103100Y-117041900D01*
X184507100Y-117041900D01*
X184507100Y-118947300D01*
G37*
G36*
X169179000Y-116846800D02*
G01*
X164577000Y-116846800D01*
X164577000Y-114744800D01*
X169179000Y-114744800D01*
X169179000Y-116846800D01*
G37*
G36*
X241280791Y-113567385D02*
G01*
X241314769Y-113577693D01*
X241346090Y-113594434D01*
X241373539Y-113616961D01*
X241396066Y-113644410D01*
X241412807Y-113675731D01*
X241423115Y-113709709D01*
X241427200Y-113751190D01*
X241427200Y-114352410D01*
X241423115Y-114393891D01*
X241412807Y-114427869D01*
X241396066Y-114459190D01*
X241373539Y-114486639D01*
X241346090Y-114509166D01*
X241314769Y-114525907D01*
X241280791Y-114536215D01*
X241239310Y-114540300D01*
X240563090Y-114540300D01*
X240521609Y-114536215D01*
X240487631Y-114525907D01*
X240456310Y-114509166D01*
X240428861Y-114486639D01*
X240406334Y-114459190D01*
X240389593Y-114427869D01*
X240379285Y-114393891D01*
X240375200Y-114352410D01*
X240375200Y-113751190D01*
X240379285Y-113709709D01*
X240389593Y-113675731D01*
X240406334Y-113644410D01*
X240428861Y-113616961D01*
X240456310Y-113594434D01*
X240487631Y-113577693D01*
X240521609Y-113567385D01*
X240563090Y-113563300D01*
X241239310Y-113563300D01*
X241280791Y-113567385D01*
G37*
G36*
X243843791Y-113542685D02*
G01*
X243877769Y-113552993D01*
X243909090Y-113569734D01*
X243936539Y-113592261D01*
X243959066Y-113619710D01*
X243975807Y-113651031D01*
X243986115Y-113685009D01*
X243990200Y-113726490D01*
X243990200Y-114327710D01*
X243986115Y-114369191D01*
X243975807Y-114403169D01*
X243959066Y-114434490D01*
X243936539Y-114461939D01*
X243909090Y-114484466D01*
X243877769Y-114501207D01*
X243843791Y-114511515D01*
X243802310Y-114515600D01*
X243126090Y-114515600D01*
X243084609Y-114511515D01*
X243050631Y-114501207D01*
X243019310Y-114484466D01*
X242991861Y-114461939D01*
X242969334Y-114434490D01*
X242952593Y-114403169D01*
X242942285Y-114369191D01*
X242938200Y-114327710D01*
X242938200Y-113726490D01*
X242942285Y-113685009D01*
X242952593Y-113651031D01*
X242969334Y-113619710D01*
X242991861Y-113592261D01*
X243019310Y-113569734D01*
X243050631Y-113552993D01*
X243084609Y-113542685D01*
X243126090Y-113538600D01*
X243802310Y-113538600D01*
X243843791Y-113542685D01*
G37*
G36*
X239836138Y-113711316D02*
G01*
X239856757Y-113717571D01*
X239875753Y-113727724D01*
X239892408Y-113741392D01*
X239906076Y-113758047D01*
X239916229Y-113777043D01*
X239922484Y-113797662D01*
X239925200Y-113825240D01*
X239925200Y-114283960D01*
X239922484Y-114311538D01*
X239916229Y-114332157D01*
X239906076Y-114351153D01*
X239892408Y-114367808D01*
X239875753Y-114381476D01*
X239856757Y-114391629D01*
X239836138Y-114397884D01*
X239808560Y-114400600D01*
X239299840Y-114400600D01*
X239272262Y-114397884D01*
X239251643Y-114391629D01*
X239232647Y-114381476D01*
X239215992Y-114367808D01*
X239202324Y-114351153D01*
X239192171Y-114332157D01*
X239185916Y-114311538D01*
X239183200Y-114283960D01*
X239183200Y-113825240D01*
X239185916Y-113797662D01*
X239192171Y-113777043D01*
X239202324Y-113758047D01*
X239215992Y-113741392D01*
X239232647Y-113727724D01*
X239251643Y-113717571D01*
X239272262Y-113711316D01*
X239299840Y-113708600D01*
X239808560Y-113708600D01*
X239836138Y-113711316D01*
G37*
G36*
X190640354Y-111560782D02*
G01*
X190708682Y-111574373D01*
X190805227Y-111614363D01*
X190901773Y-111654354D01*
X191075546Y-111770465D01*
X191223335Y-111918254D01*
X191339446Y-112092027D01*
X191343051Y-112100731D01*
X191392290Y-112219603D01*
X191419427Y-112285119D01*
X191460200Y-112490099D01*
X191460200Y-112699101D01*
X191442264Y-112789271D01*
X191419427Y-112904082D01*
X191379437Y-113000627D01*
X191339446Y-113097173D01*
X191223335Y-113270946D01*
X191075546Y-113418735D01*
X190901773Y-113534846D01*
X190805227Y-113574837D01*
X190708682Y-113614827D01*
X190651329Y-113626235D01*
X190503701Y-113655600D01*
X190294699Y-113655600D01*
X190147071Y-113626235D01*
X190089718Y-113614827D01*
X189993173Y-113574837D01*
X189896627Y-113534846D01*
X189722854Y-113418735D01*
X189575065Y-113270946D01*
X189458954Y-113097173D01*
X189418963Y-113000627D01*
X189378973Y-112904082D01*
X189356136Y-112789271D01*
X189338200Y-112699101D01*
X189338200Y-112490099D01*
X189378973Y-112285119D01*
X189406111Y-112219603D01*
X189455349Y-112100731D01*
X189458954Y-112092027D01*
X189575065Y-111918254D01*
X189722854Y-111770465D01*
X189896627Y-111654354D01*
X189993173Y-111614363D01*
X190089718Y-111574373D01*
X190158046Y-111560782D01*
X190294699Y-111533600D01*
X190503701Y-111533600D01*
X190640354Y-111560782D01*
G37*
G36*
X239836138Y-112741316D02*
G01*
X239856757Y-112747571D01*
X239875753Y-112757724D01*
X239892408Y-112771392D01*
X239906076Y-112788047D01*
X239916229Y-112807043D01*
X239922484Y-112827662D01*
X239925200Y-112855240D01*
X239925200Y-113313960D01*
X239922484Y-113341538D01*
X239916229Y-113362157D01*
X239906076Y-113381153D01*
X239892408Y-113397808D01*
X239875753Y-113411476D01*
X239856757Y-113421629D01*
X239836138Y-113427884D01*
X239808560Y-113430600D01*
X239299840Y-113430600D01*
X239272262Y-113427884D01*
X239251643Y-113421629D01*
X239232647Y-113411476D01*
X239215992Y-113397808D01*
X239202324Y-113381153D01*
X239192171Y-113362157D01*
X239185916Y-113341538D01*
X239183200Y-113313960D01*
X239183200Y-112855240D01*
X239185916Y-112827662D01*
X239192171Y-112807043D01*
X239202324Y-112788047D01*
X239215992Y-112771392D01*
X239232647Y-112757724D01*
X239251643Y-112747571D01*
X239272262Y-112741316D01*
X239299840Y-112738600D01*
X239808560Y-112738600D01*
X239836138Y-112741316D01*
G37*
G36*
X241280791Y-111992385D02*
G01*
X241314769Y-112002693D01*
X241346090Y-112019434D01*
X241373539Y-112041961D01*
X241396066Y-112069410D01*
X241412807Y-112100731D01*
X241423115Y-112134709D01*
X241427200Y-112176190D01*
X241427200Y-112777410D01*
X241423115Y-112818891D01*
X241412807Y-112852869D01*
X241396066Y-112884190D01*
X241373539Y-112911639D01*
X241346090Y-112934166D01*
X241314769Y-112950907D01*
X241280791Y-112961215D01*
X241239310Y-112965300D01*
X240563090Y-112965300D01*
X240521609Y-112961215D01*
X240487631Y-112950907D01*
X240456310Y-112934166D01*
X240428861Y-112911639D01*
X240406334Y-112884190D01*
X240389593Y-112852869D01*
X240379285Y-112818891D01*
X240375200Y-112777410D01*
X240375200Y-112176190D01*
X240379285Y-112134709D01*
X240389593Y-112100731D01*
X240406334Y-112069410D01*
X240428861Y-112041961D01*
X240456310Y-112019434D01*
X240487631Y-112002693D01*
X240521609Y-111992385D01*
X240563090Y-111988300D01*
X241239310Y-111988300D01*
X241280791Y-111992385D01*
G37*
G36*
X243843791Y-111967685D02*
G01*
X243877769Y-111977993D01*
X243909090Y-111994734D01*
X243936539Y-112017261D01*
X243959066Y-112044710D01*
X243975807Y-112076031D01*
X243986115Y-112110009D01*
X243990200Y-112151490D01*
X243990200Y-112752710D01*
X243986115Y-112794191D01*
X243975807Y-112828169D01*
X243959066Y-112859490D01*
X243936539Y-112886939D01*
X243909090Y-112909466D01*
X243877769Y-112926207D01*
X243843791Y-112936515D01*
X243802310Y-112940600D01*
X243126090Y-112940600D01*
X243084609Y-112936515D01*
X243050631Y-112926207D01*
X243019310Y-112909466D01*
X242991861Y-112886939D01*
X242969334Y-112859490D01*
X242952593Y-112828169D01*
X242942285Y-112794191D01*
X242938200Y-112752710D01*
X242938200Y-112151490D01*
X242942285Y-112110009D01*
X242952593Y-112076031D01*
X242969334Y-112044710D01*
X242991861Y-112017261D01*
X243019310Y-111994734D01*
X243050631Y-111977993D01*
X243084609Y-111967685D01*
X243126090Y-111963600D01*
X243802310Y-111963600D01*
X243843791Y-111967685D01*
G37*
G36*
X221516138Y-110001316D02*
G01*
X221536757Y-110007571D01*
X221555753Y-110017724D01*
X221572408Y-110031392D01*
X221586076Y-110048047D01*
X221596229Y-110067043D01*
X221602484Y-110087662D01*
X221605200Y-110115240D01*
X221605200Y-110623960D01*
X221602484Y-110651538D01*
X221596229Y-110672157D01*
X221586076Y-110691153D01*
X221572408Y-110707808D01*
X221555753Y-110721476D01*
X221536757Y-110731629D01*
X221516138Y-110737884D01*
X221488560Y-110740600D01*
X221029840Y-110740600D01*
X221002262Y-110737884D01*
X220981643Y-110731629D01*
X220962647Y-110721476D01*
X220945992Y-110707808D01*
X220932324Y-110691153D01*
X220922171Y-110672157D01*
X220915916Y-110651538D01*
X220913200Y-110623960D01*
X220913200Y-110115240D01*
X220915916Y-110087662D01*
X220922171Y-110067043D01*
X220932324Y-110048047D01*
X220945992Y-110031392D01*
X220962647Y-110017724D01*
X220981643Y-110007571D01*
X221002262Y-110001316D01*
X221029840Y-109998600D01*
X221488560Y-109998600D01*
X221516138Y-110001316D01*
G37*
G36*
X220546138Y-110001316D02*
G01*
X220566757Y-110007571D01*
X220585753Y-110017724D01*
X220602408Y-110031392D01*
X220616076Y-110048047D01*
X220626229Y-110067043D01*
X220632484Y-110087662D01*
X220635200Y-110115240D01*
X220635200Y-110623960D01*
X220632484Y-110651538D01*
X220626229Y-110672157D01*
X220616076Y-110691153D01*
X220602408Y-110707808D01*
X220585753Y-110721476D01*
X220566757Y-110731629D01*
X220546138Y-110737884D01*
X220518560Y-110740600D01*
X220059840Y-110740600D01*
X220032262Y-110737884D01*
X220011643Y-110731629D01*
X219992647Y-110721476D01*
X219975992Y-110707808D01*
X219962324Y-110691153D01*
X219952171Y-110672157D01*
X219945916Y-110651538D01*
X219943200Y-110623960D01*
X219943200Y-110115240D01*
X219945916Y-110087662D01*
X219952171Y-110067043D01*
X219962324Y-110048047D01*
X219975992Y-110031392D01*
X219992647Y-110017724D01*
X220011643Y-110007571D01*
X220032262Y-110001316D01*
X220059840Y-109998600D01*
X220518560Y-109998600D01*
X220546138Y-110001316D01*
G37*
G36*
X223075354Y-107085782D02*
G01*
X223143682Y-107099373D01*
X223240227Y-107139364D01*
X223336773Y-107179354D01*
X223510546Y-107295465D01*
X223658335Y-107443254D01*
X223774446Y-107617027D01*
X223854427Y-107810119D01*
X223895200Y-108015099D01*
X223895200Y-108224101D01*
X223854427Y-108429081D01*
X223774446Y-108622173D01*
X223658335Y-108795946D01*
X223510546Y-108943735D01*
X223336773Y-109059846D01*
X223240227Y-109099837D01*
X223143682Y-109139827D01*
X223075354Y-109153418D01*
X222938701Y-109180600D01*
X222729699Y-109180600D01*
X222593046Y-109153418D01*
X222524718Y-109139827D01*
X222428173Y-109099837D01*
X222331627Y-109059846D01*
X222157854Y-108943735D01*
X222010065Y-108795946D01*
X221893954Y-108622173D01*
X221813973Y-108429081D01*
X221773200Y-108224101D01*
X221773200Y-108015099D01*
X221813973Y-107810119D01*
X221893954Y-107617027D01*
X222010065Y-107443254D01*
X222157854Y-107295465D01*
X222331627Y-107179354D01*
X222428173Y-107139364D01*
X222524718Y-107099373D01*
X222593046Y-107085782D01*
X222729699Y-107058600D01*
X222938701Y-107058600D01*
X223075354Y-107085782D01*
G37*
G36*
X220535354Y-107085782D02*
G01*
X220603682Y-107099373D01*
X220700227Y-107139364D01*
X220796773Y-107179354D01*
X220970546Y-107295465D01*
X221118335Y-107443254D01*
X221234446Y-107617027D01*
X221314427Y-107810119D01*
X221355200Y-108015099D01*
X221355200Y-108224101D01*
X221314427Y-108429081D01*
X221234446Y-108622173D01*
X221118335Y-108795946D01*
X220970546Y-108943735D01*
X220796773Y-109059846D01*
X220700227Y-109099837D01*
X220603682Y-109139827D01*
X220535354Y-109153418D01*
X220398701Y-109180600D01*
X220189699Y-109180600D01*
X220053046Y-109153418D01*
X219984718Y-109139827D01*
X219888173Y-109099837D01*
X219791627Y-109059846D01*
X219617854Y-108943735D01*
X219470065Y-108795946D01*
X219353954Y-108622173D01*
X219273973Y-108429081D01*
X219233200Y-108224101D01*
X219233200Y-108015099D01*
X219273973Y-107810119D01*
X219353954Y-107617027D01*
X219470065Y-107443254D01*
X219617854Y-107295465D01*
X219791627Y-107179354D01*
X219888173Y-107139364D01*
X219984718Y-107099373D01*
X220053046Y-107085782D01*
X220189699Y-107058600D01*
X220398701Y-107058600D01*
X220535354Y-107085782D01*
G37*
G36*
X225615354Y-107085782D02*
G01*
X225683682Y-107099373D01*
X225780227Y-107139364D01*
X225876773Y-107179354D01*
X226050546Y-107295465D01*
X226198335Y-107443254D01*
X226314446Y-107617027D01*
X226394427Y-107810119D01*
X226435200Y-108015099D01*
X226435200Y-108224101D01*
X226394427Y-108429081D01*
X226314446Y-108622173D01*
X226198335Y-108795946D01*
X226050546Y-108943735D01*
X225876773Y-109059846D01*
X225780227Y-109099837D01*
X225683682Y-109139827D01*
X225615354Y-109153418D01*
X225478701Y-109180600D01*
X225269699Y-109180600D01*
X225133046Y-109153418D01*
X225064718Y-109139827D01*
X224968173Y-109099837D01*
X224871627Y-109059846D01*
X224697854Y-108943735D01*
X224550065Y-108795946D01*
X224433954Y-108622173D01*
X224353973Y-108429081D01*
X224313200Y-108224101D01*
X224313200Y-108015099D01*
X224353973Y-107810119D01*
X224433954Y-107617027D01*
X224550065Y-107443254D01*
X224697854Y-107295465D01*
X224871627Y-107179354D01*
X224968173Y-107139364D01*
X225064718Y-107099373D01*
X225133046Y-107085782D01*
X225269699Y-107058600D01*
X225478701Y-107058600D01*
X225615354Y-107085782D01*
G37*
G36*
X228155354Y-107085782D02*
G01*
X228223682Y-107099373D01*
X228320227Y-107139364D01*
X228416773Y-107179354D01*
X228590546Y-107295465D01*
X228738335Y-107443254D01*
X228854446Y-107617027D01*
X228934427Y-107810119D01*
X228975200Y-108015099D01*
X228975200Y-108224101D01*
X228934427Y-108429081D01*
X228854446Y-108622173D01*
X228738335Y-108795946D01*
X228590546Y-108943735D01*
X228416773Y-109059846D01*
X228320227Y-109099837D01*
X228223682Y-109139827D01*
X228155354Y-109153418D01*
X228018701Y-109180600D01*
X227809699Y-109180600D01*
X227673046Y-109153418D01*
X227604718Y-109139827D01*
X227508173Y-109099837D01*
X227411627Y-109059846D01*
X227237854Y-108943735D01*
X227090065Y-108795946D01*
X226973954Y-108622173D01*
X226893973Y-108429081D01*
X226853200Y-108224101D01*
X226853200Y-108015099D01*
X226893973Y-107810119D01*
X226973954Y-107617027D01*
X227090065Y-107443254D01*
X227237854Y-107295465D01*
X227411627Y-107179354D01*
X227508173Y-107139364D01*
X227604718Y-107099373D01*
X227673046Y-107085782D01*
X227809699Y-107058600D01*
X228018701Y-107058600D01*
X228155354Y-107085782D01*
G37*
G36*
X234903687Y-104918596D02*
G01*
X235080100Y-104991669D01*
X235140455Y-105016669D01*
X235353539Y-105159047D01*
X235534753Y-105340261D01*
X235660427Y-105528345D01*
X235677132Y-105553347D01*
X235775204Y-105790113D01*
X235825200Y-106041461D01*
X235825200Y-106297739D01*
X235775204Y-106549087D01*
X235677132Y-106785853D01*
X235677131Y-106785855D01*
X235534753Y-106998939D01*
X235353539Y-107180153D01*
X235140455Y-107322531D01*
X235140454Y-107322532D01*
X235140453Y-107322532D01*
X234903687Y-107420604D01*
X234652339Y-107470600D01*
X234396061Y-107470600D01*
X234144713Y-107420604D01*
X233907947Y-107322532D01*
X233907946Y-107322532D01*
X233907945Y-107322531D01*
X233694861Y-107180153D01*
X233513647Y-106998939D01*
X233371269Y-106785855D01*
X233371268Y-106785853D01*
X233273196Y-106549087D01*
X233223200Y-106297739D01*
X233223200Y-106041461D01*
X233273196Y-105790113D01*
X233371268Y-105553347D01*
X233387974Y-105528345D01*
X233513647Y-105340261D01*
X233694861Y-105159047D01*
X233907945Y-105016669D01*
X233968300Y-104991669D01*
X234144713Y-104918596D01*
X234396061Y-104868600D01*
X234652339Y-104868600D01*
X234903687Y-104918596D01*
G37*
G36*
X160403687Y-104893596D02*
G01*
X160640453Y-104991668D01*
X160640455Y-104991669D01*
X160853539Y-105134047D01*
X161034753Y-105315261D01*
X161168375Y-105515240D01*
X161177132Y-105528347D01*
X161275204Y-105765113D01*
X161325200Y-106016461D01*
X161325200Y-106272739D01*
X161275204Y-106524087D01*
X161264848Y-106549088D01*
X161177131Y-106760855D01*
X161034753Y-106973939D01*
X160853539Y-107155153D01*
X160640455Y-107297531D01*
X160640454Y-107297532D01*
X160640453Y-107297532D01*
X160403687Y-107395604D01*
X160152339Y-107445600D01*
X159896061Y-107445600D01*
X159644713Y-107395604D01*
X159407947Y-107297532D01*
X159407946Y-107297532D01*
X159407945Y-107297531D01*
X159194861Y-107155153D01*
X159013647Y-106973939D01*
X158871269Y-106760855D01*
X158783552Y-106549088D01*
X158773196Y-106524087D01*
X158723200Y-106272739D01*
X158723200Y-106016461D01*
X158773196Y-105765113D01*
X158871268Y-105528347D01*
X158880026Y-105515240D01*
X159013647Y-105315261D01*
X159194861Y-105134047D01*
X159407945Y-104991669D01*
X159407947Y-104991668D01*
X159644713Y-104893596D01*
X159896061Y-104843600D01*
X160152339Y-104843600D01*
X160403687Y-104893596D01*
G37*
G36*
X224866138Y-105401316D02*
G01*
X224886757Y-105407571D01*
X224905753Y-105417724D01*
X224922408Y-105431392D01*
X224936076Y-105448047D01*
X224946229Y-105467043D01*
X224952484Y-105487662D01*
X224955200Y-105515240D01*
X224955200Y-106023960D01*
X224952484Y-106051538D01*
X224946229Y-106072157D01*
X224936076Y-106091153D01*
X224922408Y-106107808D01*
X224905753Y-106121476D01*
X224886757Y-106131629D01*
X224866138Y-106137884D01*
X224838560Y-106140600D01*
X224379840Y-106140600D01*
X224352262Y-106137884D01*
X224331643Y-106131629D01*
X224312647Y-106121476D01*
X224295992Y-106107808D01*
X224282324Y-106091153D01*
X224272171Y-106072157D01*
X224265916Y-106051538D01*
X224263200Y-106023960D01*
X224263200Y-105515240D01*
X224265916Y-105487662D01*
X224272171Y-105467043D01*
X224282324Y-105448047D01*
X224295992Y-105431392D01*
X224312647Y-105417724D01*
X224331643Y-105407571D01*
X224352262Y-105401316D01*
X224379840Y-105398600D01*
X224838560Y-105398600D01*
X224866138Y-105401316D01*
G37*
G36*
X223896138Y-105401316D02*
G01*
X223916757Y-105407571D01*
X223935753Y-105417724D01*
X223952408Y-105431392D01*
X223966076Y-105448047D01*
X223976229Y-105467043D01*
X223982484Y-105487662D01*
X223985200Y-105515240D01*
X223985200Y-106023960D01*
X223982484Y-106051538D01*
X223976229Y-106072157D01*
X223966076Y-106091153D01*
X223952408Y-106107808D01*
X223935753Y-106121476D01*
X223916757Y-106131629D01*
X223896138Y-106137884D01*
X223868560Y-106140600D01*
X223409840Y-106140600D01*
X223382262Y-106137884D01*
X223361643Y-106131629D01*
X223342647Y-106121476D01*
X223325992Y-106107808D01*
X223312324Y-106091153D01*
X223302171Y-106072157D01*
X223295916Y-106051538D01*
X223293200Y-106023960D01*
X223293200Y-105515240D01*
X223295916Y-105487662D01*
X223302171Y-105467043D01*
X223312324Y-105448047D01*
X223325992Y-105431392D01*
X223342647Y-105417724D01*
X223361643Y-105407571D01*
X223382262Y-105401316D01*
X223409840Y-105398600D01*
X223868560Y-105398600D01*
X223896138Y-105401316D01*
G37*
M02*
