G04 #@! TF.GenerationSoftware,KiCad,Pcbnew,5.1.5-52549c5~84~ubuntu18.04.1*
G04 #@! TF.CreationDate,2019-12-02T09:37:23+01:00*
G04 #@! TF.ProjectId,power_control_ipe_v1,706f7765-725f-4636-9f6e-74726f6c5f69,rev?*
G04 #@! TF.SameCoordinates,Original*
G04 #@! TF.FileFunction,Paste,Bot*
G04 #@! TF.FilePolarity,Positive*
%FSLAX46Y46*%
G04 Gerber Fmt 4.6, Leading zero omitted, Abs format (unit mm)*
G04 Created by KiCad (PCBNEW 5.1.5-52549c5~84~ubuntu18.04.1) date 2019-12-02 09:37:23*
%MOMM*%
%LPD*%
G04 APERTURE LIST*
%ADD10C,0.100000*%
%ADD11R,3.302000X1.803400*%
%ADD12R,2.260600X2.489200*%
%ADD13R,1.111200X0.600800*%
%ADD14R,0.600000X1.300000*%
G04 APERTURE END LIST*
D10*
G36*
X227813705Y-150530804D02*
G01*
X227837973Y-150534404D01*
X227861772Y-150540365D01*
X227884871Y-150548630D01*
X227907050Y-150559120D01*
X227928093Y-150571732D01*
X227947799Y-150586347D01*
X227965977Y-150602823D01*
X227982453Y-150621001D01*
X227997068Y-150640707D01*
X228009680Y-150661750D01*
X228020170Y-150683929D01*
X228028435Y-150707028D01*
X228034396Y-150730827D01*
X228037996Y-150755095D01*
X228039200Y-150779599D01*
X228039200Y-153679601D01*
X228037996Y-153704105D01*
X228034396Y-153728373D01*
X228028435Y-153752172D01*
X228020170Y-153775271D01*
X228009680Y-153797450D01*
X227997068Y-153818493D01*
X227982453Y-153838199D01*
X227965977Y-153856377D01*
X227947799Y-153872853D01*
X227928093Y-153887468D01*
X227907050Y-153900080D01*
X227884871Y-153910570D01*
X227861772Y-153918835D01*
X227837973Y-153924796D01*
X227813705Y-153928396D01*
X227789201Y-153929600D01*
X227164199Y-153929600D01*
X227139695Y-153928396D01*
X227115427Y-153924796D01*
X227091628Y-153918835D01*
X227068529Y-153910570D01*
X227046350Y-153900080D01*
X227025307Y-153887468D01*
X227005601Y-153872853D01*
X226987423Y-153856377D01*
X226970947Y-153838199D01*
X226956332Y-153818493D01*
X226943720Y-153797450D01*
X226933230Y-153775271D01*
X226924965Y-153752172D01*
X226919004Y-153728373D01*
X226915404Y-153704105D01*
X226914200Y-153679601D01*
X226914200Y-150779599D01*
X226915404Y-150755095D01*
X226919004Y-150730827D01*
X226924965Y-150707028D01*
X226933230Y-150683929D01*
X226943720Y-150661750D01*
X226956332Y-150640707D01*
X226970947Y-150621001D01*
X226987423Y-150602823D01*
X227005601Y-150586347D01*
X227025307Y-150571732D01*
X227046350Y-150559120D01*
X227068529Y-150548630D01*
X227091628Y-150540365D01*
X227115427Y-150534404D01*
X227139695Y-150530804D01*
X227164199Y-150529600D01*
X227789201Y-150529600D01*
X227813705Y-150530804D01*
G37*
G36*
X232088705Y-150530804D02*
G01*
X232112973Y-150534404D01*
X232136772Y-150540365D01*
X232159871Y-150548630D01*
X232182050Y-150559120D01*
X232203093Y-150571732D01*
X232222799Y-150586347D01*
X232240977Y-150602823D01*
X232257453Y-150621001D01*
X232272068Y-150640707D01*
X232284680Y-150661750D01*
X232295170Y-150683929D01*
X232303435Y-150707028D01*
X232309396Y-150730827D01*
X232312996Y-150755095D01*
X232314200Y-150779599D01*
X232314200Y-153679601D01*
X232312996Y-153704105D01*
X232309396Y-153728373D01*
X232303435Y-153752172D01*
X232295170Y-153775271D01*
X232284680Y-153797450D01*
X232272068Y-153818493D01*
X232257453Y-153838199D01*
X232240977Y-153856377D01*
X232222799Y-153872853D01*
X232203093Y-153887468D01*
X232182050Y-153900080D01*
X232159871Y-153910570D01*
X232136772Y-153918835D01*
X232112973Y-153924796D01*
X232088705Y-153928396D01*
X232064201Y-153929600D01*
X231439199Y-153929600D01*
X231414695Y-153928396D01*
X231390427Y-153924796D01*
X231366628Y-153918835D01*
X231343529Y-153910570D01*
X231321350Y-153900080D01*
X231300307Y-153887468D01*
X231280601Y-153872853D01*
X231262423Y-153856377D01*
X231245947Y-153838199D01*
X231231332Y-153818493D01*
X231218720Y-153797450D01*
X231208230Y-153775271D01*
X231199965Y-153752172D01*
X231194004Y-153728373D01*
X231190404Y-153704105D01*
X231189200Y-153679601D01*
X231189200Y-150779599D01*
X231190404Y-150755095D01*
X231194004Y-150730827D01*
X231199965Y-150707028D01*
X231208230Y-150683929D01*
X231218720Y-150661750D01*
X231231332Y-150640707D01*
X231245947Y-150621001D01*
X231262423Y-150602823D01*
X231280601Y-150586347D01*
X231300307Y-150571732D01*
X231321350Y-150559120D01*
X231343529Y-150548630D01*
X231366628Y-150540365D01*
X231390427Y-150534404D01*
X231414695Y-150530804D01*
X231439199Y-150529600D01*
X232064201Y-150529600D01*
X232088705Y-150530804D01*
G37*
G36*
X197351158Y-136820310D02*
G01*
X197365476Y-136822434D01*
X197379517Y-136825951D01*
X197393146Y-136830828D01*
X197406231Y-136837017D01*
X197418647Y-136844458D01*
X197430273Y-136853081D01*
X197440998Y-136862802D01*
X197450719Y-136873527D01*
X197459342Y-136885153D01*
X197466783Y-136897569D01*
X197472972Y-136910654D01*
X197477849Y-136924283D01*
X197481366Y-136938324D01*
X197483490Y-136952642D01*
X197484200Y-136967100D01*
X197484200Y-137312100D01*
X197483490Y-137326558D01*
X197481366Y-137340876D01*
X197477849Y-137354917D01*
X197472972Y-137368546D01*
X197466783Y-137381631D01*
X197459342Y-137394047D01*
X197450719Y-137405673D01*
X197440998Y-137416398D01*
X197430273Y-137426119D01*
X197418647Y-137434742D01*
X197406231Y-137442183D01*
X197393146Y-137448372D01*
X197379517Y-137453249D01*
X197365476Y-137456766D01*
X197351158Y-137458890D01*
X197336700Y-137459600D01*
X197041700Y-137459600D01*
X197027242Y-137458890D01*
X197012924Y-137456766D01*
X196998883Y-137453249D01*
X196985254Y-137448372D01*
X196972169Y-137442183D01*
X196959753Y-137434742D01*
X196948127Y-137426119D01*
X196937402Y-137416398D01*
X196927681Y-137405673D01*
X196919058Y-137394047D01*
X196911617Y-137381631D01*
X196905428Y-137368546D01*
X196900551Y-137354917D01*
X196897034Y-137340876D01*
X196894910Y-137326558D01*
X196894200Y-137312100D01*
X196894200Y-136967100D01*
X196894910Y-136952642D01*
X196897034Y-136938324D01*
X196900551Y-136924283D01*
X196905428Y-136910654D01*
X196911617Y-136897569D01*
X196919058Y-136885153D01*
X196927681Y-136873527D01*
X196937402Y-136862802D01*
X196948127Y-136853081D01*
X196959753Y-136844458D01*
X196972169Y-136837017D01*
X196985254Y-136830828D01*
X196998883Y-136825951D01*
X197012924Y-136822434D01*
X197027242Y-136820310D01*
X197041700Y-136819600D01*
X197336700Y-136819600D01*
X197351158Y-136820310D01*
G37*
G36*
X198321158Y-136820310D02*
G01*
X198335476Y-136822434D01*
X198349517Y-136825951D01*
X198363146Y-136830828D01*
X198376231Y-136837017D01*
X198388647Y-136844458D01*
X198400273Y-136853081D01*
X198410998Y-136862802D01*
X198420719Y-136873527D01*
X198429342Y-136885153D01*
X198436783Y-136897569D01*
X198442972Y-136910654D01*
X198447849Y-136924283D01*
X198451366Y-136938324D01*
X198453490Y-136952642D01*
X198454200Y-136967100D01*
X198454200Y-137312100D01*
X198453490Y-137326558D01*
X198451366Y-137340876D01*
X198447849Y-137354917D01*
X198442972Y-137368546D01*
X198436783Y-137381631D01*
X198429342Y-137394047D01*
X198420719Y-137405673D01*
X198410998Y-137416398D01*
X198400273Y-137426119D01*
X198388647Y-137434742D01*
X198376231Y-137442183D01*
X198363146Y-137448372D01*
X198349517Y-137453249D01*
X198335476Y-137456766D01*
X198321158Y-137458890D01*
X198306700Y-137459600D01*
X198011700Y-137459600D01*
X197997242Y-137458890D01*
X197982924Y-137456766D01*
X197968883Y-137453249D01*
X197955254Y-137448372D01*
X197942169Y-137442183D01*
X197929753Y-137434742D01*
X197918127Y-137426119D01*
X197907402Y-137416398D01*
X197897681Y-137405673D01*
X197889058Y-137394047D01*
X197881617Y-137381631D01*
X197875428Y-137368546D01*
X197870551Y-137354917D01*
X197867034Y-137340876D01*
X197864910Y-137326558D01*
X197864200Y-137312100D01*
X197864200Y-136967100D01*
X197864910Y-136952642D01*
X197867034Y-136938324D01*
X197870551Y-136924283D01*
X197875428Y-136910654D01*
X197881617Y-136897569D01*
X197889058Y-136885153D01*
X197897681Y-136873527D01*
X197907402Y-136862802D01*
X197918127Y-136853081D01*
X197929753Y-136844458D01*
X197942169Y-136837017D01*
X197955254Y-136830828D01*
X197968883Y-136825951D01*
X197982924Y-136822434D01*
X197997242Y-136820310D01*
X198011700Y-136819600D01*
X198306700Y-136819600D01*
X198321158Y-136820310D01*
G37*
D11*
X182805100Y-117994600D03*
X177293300Y-117994600D03*
D12*
X186857200Y-117900000D03*
X192191200Y-117900000D03*
X187024200Y-142419600D03*
X192358200Y-142419600D03*
X187024200Y-155216000D03*
X192358200Y-155216000D03*
X187024200Y-130232000D03*
X192358200Y-130232000D03*
D11*
X182816500Y-142444600D03*
X177304700Y-142444600D03*
X182975700Y-130251200D03*
X177463900Y-130251200D03*
X182816500Y-155262200D03*
X177304700Y-155262200D03*
D10*
G36*
X220451158Y-110050310D02*
G01*
X220465476Y-110052434D01*
X220479517Y-110055951D01*
X220493146Y-110060828D01*
X220506231Y-110067017D01*
X220518647Y-110074458D01*
X220530273Y-110083081D01*
X220540998Y-110092802D01*
X220550719Y-110103527D01*
X220559342Y-110115153D01*
X220566783Y-110127569D01*
X220572972Y-110140654D01*
X220577849Y-110154283D01*
X220581366Y-110168324D01*
X220583490Y-110182642D01*
X220584200Y-110197100D01*
X220584200Y-110542100D01*
X220583490Y-110556558D01*
X220581366Y-110570876D01*
X220577849Y-110584917D01*
X220572972Y-110598546D01*
X220566783Y-110611631D01*
X220559342Y-110624047D01*
X220550719Y-110635673D01*
X220540998Y-110646398D01*
X220530273Y-110656119D01*
X220518647Y-110664742D01*
X220506231Y-110672183D01*
X220493146Y-110678372D01*
X220479517Y-110683249D01*
X220465476Y-110686766D01*
X220451158Y-110688890D01*
X220436700Y-110689600D01*
X220141700Y-110689600D01*
X220127242Y-110688890D01*
X220112924Y-110686766D01*
X220098883Y-110683249D01*
X220085254Y-110678372D01*
X220072169Y-110672183D01*
X220059753Y-110664742D01*
X220048127Y-110656119D01*
X220037402Y-110646398D01*
X220027681Y-110635673D01*
X220019058Y-110624047D01*
X220011617Y-110611631D01*
X220005428Y-110598546D01*
X220000551Y-110584917D01*
X219997034Y-110570876D01*
X219994910Y-110556558D01*
X219994200Y-110542100D01*
X219994200Y-110197100D01*
X219994910Y-110182642D01*
X219997034Y-110168324D01*
X220000551Y-110154283D01*
X220005428Y-110140654D01*
X220011617Y-110127569D01*
X220019058Y-110115153D01*
X220027681Y-110103527D01*
X220037402Y-110092802D01*
X220048127Y-110083081D01*
X220059753Y-110074458D01*
X220072169Y-110067017D01*
X220085254Y-110060828D01*
X220098883Y-110055951D01*
X220112924Y-110052434D01*
X220127242Y-110050310D01*
X220141700Y-110049600D01*
X220436700Y-110049600D01*
X220451158Y-110050310D01*
G37*
G36*
X221421158Y-110050310D02*
G01*
X221435476Y-110052434D01*
X221449517Y-110055951D01*
X221463146Y-110060828D01*
X221476231Y-110067017D01*
X221488647Y-110074458D01*
X221500273Y-110083081D01*
X221510998Y-110092802D01*
X221520719Y-110103527D01*
X221529342Y-110115153D01*
X221536783Y-110127569D01*
X221542972Y-110140654D01*
X221547849Y-110154283D01*
X221551366Y-110168324D01*
X221553490Y-110182642D01*
X221554200Y-110197100D01*
X221554200Y-110542100D01*
X221553490Y-110556558D01*
X221551366Y-110570876D01*
X221547849Y-110584917D01*
X221542972Y-110598546D01*
X221536783Y-110611631D01*
X221529342Y-110624047D01*
X221520719Y-110635673D01*
X221510998Y-110646398D01*
X221500273Y-110656119D01*
X221488647Y-110664742D01*
X221476231Y-110672183D01*
X221463146Y-110678372D01*
X221449517Y-110683249D01*
X221435476Y-110686766D01*
X221421158Y-110688890D01*
X221406700Y-110689600D01*
X221111700Y-110689600D01*
X221097242Y-110688890D01*
X221082924Y-110686766D01*
X221068883Y-110683249D01*
X221055254Y-110678372D01*
X221042169Y-110672183D01*
X221029753Y-110664742D01*
X221018127Y-110656119D01*
X221007402Y-110646398D01*
X220997681Y-110635673D01*
X220989058Y-110624047D01*
X220981617Y-110611631D01*
X220975428Y-110598546D01*
X220970551Y-110584917D01*
X220967034Y-110570876D01*
X220964910Y-110556558D01*
X220964200Y-110542100D01*
X220964200Y-110197100D01*
X220964910Y-110182642D01*
X220967034Y-110168324D01*
X220970551Y-110154283D01*
X220975428Y-110140654D01*
X220981617Y-110127569D01*
X220989058Y-110115153D01*
X220997681Y-110103527D01*
X221007402Y-110092802D01*
X221018127Y-110083081D01*
X221029753Y-110074458D01*
X221042169Y-110067017D01*
X221055254Y-110060828D01*
X221068883Y-110055951D01*
X221082924Y-110052434D01*
X221097242Y-110050310D01*
X221111700Y-110049600D01*
X221406700Y-110049600D01*
X221421158Y-110050310D01*
G37*
G36*
X224771158Y-105450310D02*
G01*
X224785476Y-105452434D01*
X224799517Y-105455951D01*
X224813146Y-105460828D01*
X224826231Y-105467017D01*
X224838647Y-105474458D01*
X224850273Y-105483081D01*
X224860998Y-105492802D01*
X224870719Y-105503527D01*
X224879342Y-105515153D01*
X224886783Y-105527569D01*
X224892972Y-105540654D01*
X224897849Y-105554283D01*
X224901366Y-105568324D01*
X224903490Y-105582642D01*
X224904200Y-105597100D01*
X224904200Y-105942100D01*
X224903490Y-105956558D01*
X224901366Y-105970876D01*
X224897849Y-105984917D01*
X224892972Y-105998546D01*
X224886783Y-106011631D01*
X224879342Y-106024047D01*
X224870719Y-106035673D01*
X224860998Y-106046398D01*
X224850273Y-106056119D01*
X224838647Y-106064742D01*
X224826231Y-106072183D01*
X224813146Y-106078372D01*
X224799517Y-106083249D01*
X224785476Y-106086766D01*
X224771158Y-106088890D01*
X224756700Y-106089600D01*
X224461700Y-106089600D01*
X224447242Y-106088890D01*
X224432924Y-106086766D01*
X224418883Y-106083249D01*
X224405254Y-106078372D01*
X224392169Y-106072183D01*
X224379753Y-106064742D01*
X224368127Y-106056119D01*
X224357402Y-106046398D01*
X224347681Y-106035673D01*
X224339058Y-106024047D01*
X224331617Y-106011631D01*
X224325428Y-105998546D01*
X224320551Y-105984917D01*
X224317034Y-105970876D01*
X224314910Y-105956558D01*
X224314200Y-105942100D01*
X224314200Y-105597100D01*
X224314910Y-105582642D01*
X224317034Y-105568324D01*
X224320551Y-105554283D01*
X224325428Y-105540654D01*
X224331617Y-105527569D01*
X224339058Y-105515153D01*
X224347681Y-105503527D01*
X224357402Y-105492802D01*
X224368127Y-105483081D01*
X224379753Y-105474458D01*
X224392169Y-105467017D01*
X224405254Y-105460828D01*
X224418883Y-105455951D01*
X224432924Y-105452434D01*
X224447242Y-105450310D01*
X224461700Y-105449600D01*
X224756700Y-105449600D01*
X224771158Y-105450310D01*
G37*
G36*
X223801158Y-105450310D02*
G01*
X223815476Y-105452434D01*
X223829517Y-105455951D01*
X223843146Y-105460828D01*
X223856231Y-105467017D01*
X223868647Y-105474458D01*
X223880273Y-105483081D01*
X223890998Y-105492802D01*
X223900719Y-105503527D01*
X223909342Y-105515153D01*
X223916783Y-105527569D01*
X223922972Y-105540654D01*
X223927849Y-105554283D01*
X223931366Y-105568324D01*
X223933490Y-105582642D01*
X223934200Y-105597100D01*
X223934200Y-105942100D01*
X223933490Y-105956558D01*
X223931366Y-105970876D01*
X223927849Y-105984917D01*
X223922972Y-105998546D01*
X223916783Y-106011631D01*
X223909342Y-106024047D01*
X223900719Y-106035673D01*
X223890998Y-106046398D01*
X223880273Y-106056119D01*
X223868647Y-106064742D01*
X223856231Y-106072183D01*
X223843146Y-106078372D01*
X223829517Y-106083249D01*
X223815476Y-106086766D01*
X223801158Y-106088890D01*
X223786700Y-106089600D01*
X223491700Y-106089600D01*
X223477242Y-106088890D01*
X223462924Y-106086766D01*
X223448883Y-106083249D01*
X223435254Y-106078372D01*
X223422169Y-106072183D01*
X223409753Y-106064742D01*
X223398127Y-106056119D01*
X223387402Y-106046398D01*
X223377681Y-106035673D01*
X223369058Y-106024047D01*
X223361617Y-106011631D01*
X223355428Y-105998546D01*
X223350551Y-105984917D01*
X223347034Y-105970876D01*
X223344910Y-105956558D01*
X223344200Y-105942100D01*
X223344200Y-105597100D01*
X223344910Y-105582642D01*
X223347034Y-105568324D01*
X223350551Y-105554283D01*
X223355428Y-105540654D01*
X223361617Y-105527569D01*
X223369058Y-105515153D01*
X223377681Y-105503527D01*
X223387402Y-105492802D01*
X223398127Y-105483081D01*
X223409753Y-105474458D01*
X223422169Y-105467017D01*
X223435254Y-105460828D01*
X223448883Y-105455951D01*
X223462924Y-105452434D01*
X223477242Y-105450310D01*
X223491700Y-105449600D01*
X223786700Y-105449600D01*
X223801158Y-105450310D01*
G37*
G36*
X188023704Y-145660204D02*
G01*
X188047973Y-145663804D01*
X188071771Y-145669765D01*
X188094871Y-145678030D01*
X188117049Y-145688520D01*
X188138093Y-145701133D01*
X188157798Y-145715747D01*
X188175977Y-145732223D01*
X188192453Y-145750402D01*
X188207067Y-145770107D01*
X188219680Y-145791151D01*
X188230170Y-145813329D01*
X188238435Y-145836429D01*
X188244396Y-145860227D01*
X188247996Y-145884496D01*
X188249200Y-145909000D01*
X188249200Y-147159000D01*
X188247996Y-147183504D01*
X188244396Y-147207773D01*
X188238435Y-147231571D01*
X188230170Y-147254671D01*
X188219680Y-147276849D01*
X188207067Y-147297893D01*
X188192453Y-147317598D01*
X188175977Y-147335777D01*
X188157798Y-147352253D01*
X188138093Y-147366867D01*
X188117049Y-147379480D01*
X188094871Y-147389970D01*
X188071771Y-147398235D01*
X188047973Y-147404196D01*
X188023704Y-147407796D01*
X187999200Y-147409000D01*
X187249200Y-147409000D01*
X187224696Y-147407796D01*
X187200427Y-147404196D01*
X187176629Y-147398235D01*
X187153529Y-147389970D01*
X187131351Y-147379480D01*
X187110307Y-147366867D01*
X187090602Y-147352253D01*
X187072423Y-147335777D01*
X187055947Y-147317598D01*
X187041333Y-147297893D01*
X187028720Y-147276849D01*
X187018230Y-147254671D01*
X187009965Y-147231571D01*
X187004004Y-147207773D01*
X187000404Y-147183504D01*
X186999200Y-147159000D01*
X186999200Y-145909000D01*
X187000404Y-145884496D01*
X187004004Y-145860227D01*
X187009965Y-145836429D01*
X187018230Y-145813329D01*
X187028720Y-145791151D01*
X187041333Y-145770107D01*
X187055947Y-145750402D01*
X187072423Y-145732223D01*
X187090602Y-145715747D01*
X187110307Y-145701133D01*
X187131351Y-145688520D01*
X187153529Y-145678030D01*
X187176629Y-145669765D01*
X187200427Y-145663804D01*
X187224696Y-145660204D01*
X187249200Y-145659000D01*
X187999200Y-145659000D01*
X188023704Y-145660204D01*
G37*
G36*
X190823704Y-145660204D02*
G01*
X190847973Y-145663804D01*
X190871771Y-145669765D01*
X190894871Y-145678030D01*
X190917049Y-145688520D01*
X190938093Y-145701133D01*
X190957798Y-145715747D01*
X190975977Y-145732223D01*
X190992453Y-145750402D01*
X191007067Y-145770107D01*
X191019680Y-145791151D01*
X191030170Y-145813329D01*
X191038435Y-145836429D01*
X191044396Y-145860227D01*
X191047996Y-145884496D01*
X191049200Y-145909000D01*
X191049200Y-147159000D01*
X191047996Y-147183504D01*
X191044396Y-147207773D01*
X191038435Y-147231571D01*
X191030170Y-147254671D01*
X191019680Y-147276849D01*
X191007067Y-147297893D01*
X190992453Y-147317598D01*
X190975977Y-147335777D01*
X190957798Y-147352253D01*
X190938093Y-147366867D01*
X190917049Y-147379480D01*
X190894871Y-147389970D01*
X190871771Y-147398235D01*
X190847973Y-147404196D01*
X190823704Y-147407796D01*
X190799200Y-147409000D01*
X190049200Y-147409000D01*
X190024696Y-147407796D01*
X190000427Y-147404196D01*
X189976629Y-147398235D01*
X189953529Y-147389970D01*
X189931351Y-147379480D01*
X189910307Y-147366867D01*
X189890602Y-147352253D01*
X189872423Y-147335777D01*
X189855947Y-147317598D01*
X189841333Y-147297893D01*
X189828720Y-147276849D01*
X189818230Y-147254671D01*
X189809965Y-147231571D01*
X189804004Y-147207773D01*
X189800404Y-147183504D01*
X189799200Y-147159000D01*
X189799200Y-145909000D01*
X189800404Y-145884496D01*
X189804004Y-145860227D01*
X189809965Y-145836429D01*
X189818230Y-145813329D01*
X189828720Y-145791151D01*
X189841333Y-145770107D01*
X189855947Y-145750402D01*
X189872423Y-145732223D01*
X189890602Y-145715747D01*
X189910307Y-145701133D01*
X189931351Y-145688520D01*
X189953529Y-145678030D01*
X189976629Y-145669765D01*
X190000427Y-145663804D01*
X190024696Y-145660204D01*
X190049200Y-145659000D01*
X190799200Y-145659000D01*
X190823704Y-145660204D01*
G37*
G36*
X196991842Y-130370774D02*
G01*
X197015503Y-130374284D01*
X197038707Y-130380096D01*
X197061229Y-130388154D01*
X197082853Y-130398382D01*
X197103370Y-130410679D01*
X197122583Y-130424929D01*
X197140307Y-130440993D01*
X197156371Y-130458717D01*
X197170621Y-130477930D01*
X197182918Y-130498447D01*
X197193146Y-130520071D01*
X197201204Y-130542593D01*
X197207016Y-130565797D01*
X197210526Y-130589458D01*
X197211700Y-130613350D01*
X197211700Y-131525850D01*
X197210526Y-131549742D01*
X197207016Y-131573403D01*
X197201204Y-131596607D01*
X197193146Y-131619129D01*
X197182918Y-131640753D01*
X197170621Y-131661270D01*
X197156371Y-131680483D01*
X197140307Y-131698207D01*
X197122583Y-131714271D01*
X197103370Y-131728521D01*
X197082853Y-131740818D01*
X197061229Y-131751046D01*
X197038707Y-131759104D01*
X197015503Y-131764916D01*
X196991842Y-131768426D01*
X196967950Y-131769600D01*
X196480450Y-131769600D01*
X196456558Y-131768426D01*
X196432897Y-131764916D01*
X196409693Y-131759104D01*
X196387171Y-131751046D01*
X196365547Y-131740818D01*
X196345030Y-131728521D01*
X196325817Y-131714271D01*
X196308093Y-131698207D01*
X196292029Y-131680483D01*
X196277779Y-131661270D01*
X196265482Y-131640753D01*
X196255254Y-131619129D01*
X196247196Y-131596607D01*
X196241384Y-131573403D01*
X196237874Y-131549742D01*
X196236700Y-131525850D01*
X196236700Y-130613350D01*
X196237874Y-130589458D01*
X196241384Y-130565797D01*
X196247196Y-130542593D01*
X196255254Y-130520071D01*
X196265482Y-130498447D01*
X196277779Y-130477930D01*
X196292029Y-130458717D01*
X196308093Y-130440993D01*
X196325817Y-130424929D01*
X196345030Y-130410679D01*
X196365547Y-130398382D01*
X196387171Y-130388154D01*
X196409693Y-130380096D01*
X196432897Y-130374284D01*
X196456558Y-130370774D01*
X196480450Y-130369600D01*
X196967950Y-130369600D01*
X196991842Y-130370774D01*
G37*
G36*
X198866842Y-130370774D02*
G01*
X198890503Y-130374284D01*
X198913707Y-130380096D01*
X198936229Y-130388154D01*
X198957853Y-130398382D01*
X198978370Y-130410679D01*
X198997583Y-130424929D01*
X199015307Y-130440993D01*
X199031371Y-130458717D01*
X199045621Y-130477930D01*
X199057918Y-130498447D01*
X199068146Y-130520071D01*
X199076204Y-130542593D01*
X199082016Y-130565797D01*
X199085526Y-130589458D01*
X199086700Y-130613350D01*
X199086700Y-131525850D01*
X199085526Y-131549742D01*
X199082016Y-131573403D01*
X199076204Y-131596607D01*
X199068146Y-131619129D01*
X199057918Y-131640753D01*
X199045621Y-131661270D01*
X199031371Y-131680483D01*
X199015307Y-131698207D01*
X198997583Y-131714271D01*
X198978370Y-131728521D01*
X198957853Y-131740818D01*
X198936229Y-131751046D01*
X198913707Y-131759104D01*
X198890503Y-131764916D01*
X198866842Y-131768426D01*
X198842950Y-131769600D01*
X198355450Y-131769600D01*
X198331558Y-131768426D01*
X198307897Y-131764916D01*
X198284693Y-131759104D01*
X198262171Y-131751046D01*
X198240547Y-131740818D01*
X198220030Y-131728521D01*
X198200817Y-131714271D01*
X198183093Y-131698207D01*
X198167029Y-131680483D01*
X198152779Y-131661270D01*
X198140482Y-131640753D01*
X198130254Y-131619129D01*
X198122196Y-131596607D01*
X198116384Y-131573403D01*
X198112874Y-131549742D01*
X198111700Y-131525850D01*
X198111700Y-130613350D01*
X198112874Y-130589458D01*
X198116384Y-130565797D01*
X198122196Y-130542593D01*
X198130254Y-130520071D01*
X198140482Y-130498447D01*
X198152779Y-130477930D01*
X198167029Y-130458717D01*
X198183093Y-130440993D01*
X198200817Y-130424929D01*
X198220030Y-130410679D01*
X198240547Y-130398382D01*
X198262171Y-130388154D01*
X198284693Y-130380096D01*
X198307897Y-130374284D01*
X198331558Y-130370774D01*
X198355450Y-130369600D01*
X198842950Y-130369600D01*
X198866842Y-130370774D01*
G37*
G36*
X165538491Y-152188353D02*
G01*
X165559726Y-152191503D01*
X165580550Y-152196719D01*
X165600762Y-152203951D01*
X165620168Y-152213130D01*
X165638581Y-152224166D01*
X165655824Y-152236954D01*
X165671730Y-152251370D01*
X165686146Y-152267276D01*
X165698934Y-152284519D01*
X165709970Y-152302932D01*
X165719149Y-152322338D01*
X165726381Y-152342550D01*
X165731597Y-152363374D01*
X165734747Y-152384609D01*
X165735800Y-152406050D01*
X165735800Y-152918550D01*
X165734747Y-152939991D01*
X165731597Y-152961226D01*
X165726381Y-152982050D01*
X165719149Y-153002262D01*
X165709970Y-153021668D01*
X165698934Y-153040081D01*
X165686146Y-153057324D01*
X165671730Y-153073230D01*
X165655824Y-153087646D01*
X165638581Y-153100434D01*
X165620168Y-153111470D01*
X165600762Y-153120649D01*
X165580550Y-153127881D01*
X165559726Y-153133097D01*
X165538491Y-153136247D01*
X165517050Y-153137300D01*
X165079550Y-153137300D01*
X165058109Y-153136247D01*
X165036874Y-153133097D01*
X165016050Y-153127881D01*
X164995838Y-153120649D01*
X164976432Y-153111470D01*
X164958019Y-153100434D01*
X164940776Y-153087646D01*
X164924870Y-153073230D01*
X164910454Y-153057324D01*
X164897666Y-153040081D01*
X164886630Y-153021668D01*
X164877451Y-153002262D01*
X164870219Y-152982050D01*
X164865003Y-152961226D01*
X164861853Y-152939991D01*
X164860800Y-152918550D01*
X164860800Y-152406050D01*
X164861853Y-152384609D01*
X164865003Y-152363374D01*
X164870219Y-152342550D01*
X164877451Y-152322338D01*
X164886630Y-152302932D01*
X164897666Y-152284519D01*
X164910454Y-152267276D01*
X164924870Y-152251370D01*
X164940776Y-152236954D01*
X164958019Y-152224166D01*
X164976432Y-152213130D01*
X164995838Y-152203951D01*
X165016050Y-152196719D01*
X165036874Y-152191503D01*
X165058109Y-152188353D01*
X165079550Y-152187300D01*
X165517050Y-152187300D01*
X165538491Y-152188353D01*
G37*
G36*
X167113491Y-152188353D02*
G01*
X167134726Y-152191503D01*
X167155550Y-152196719D01*
X167175762Y-152203951D01*
X167195168Y-152213130D01*
X167213581Y-152224166D01*
X167230824Y-152236954D01*
X167246730Y-152251370D01*
X167261146Y-152267276D01*
X167273934Y-152284519D01*
X167284970Y-152302932D01*
X167294149Y-152322338D01*
X167301381Y-152342550D01*
X167306597Y-152363374D01*
X167309747Y-152384609D01*
X167310800Y-152406050D01*
X167310800Y-152918550D01*
X167309747Y-152939991D01*
X167306597Y-152961226D01*
X167301381Y-152982050D01*
X167294149Y-153002262D01*
X167284970Y-153021668D01*
X167273934Y-153040081D01*
X167261146Y-153057324D01*
X167246730Y-153073230D01*
X167230824Y-153087646D01*
X167213581Y-153100434D01*
X167195168Y-153111470D01*
X167175762Y-153120649D01*
X167155550Y-153127881D01*
X167134726Y-153133097D01*
X167113491Y-153136247D01*
X167092050Y-153137300D01*
X166654550Y-153137300D01*
X166633109Y-153136247D01*
X166611874Y-153133097D01*
X166591050Y-153127881D01*
X166570838Y-153120649D01*
X166551432Y-153111470D01*
X166533019Y-153100434D01*
X166515776Y-153087646D01*
X166499870Y-153073230D01*
X166485454Y-153057324D01*
X166472666Y-153040081D01*
X166461630Y-153021668D01*
X166452451Y-153002262D01*
X166445219Y-152982050D01*
X166440003Y-152961226D01*
X166436853Y-152939991D01*
X166435800Y-152918550D01*
X166435800Y-152406050D01*
X166436853Y-152384609D01*
X166440003Y-152363374D01*
X166445219Y-152342550D01*
X166452451Y-152322338D01*
X166461630Y-152302932D01*
X166472666Y-152284519D01*
X166485454Y-152267276D01*
X166499870Y-152251370D01*
X166515776Y-152236954D01*
X166533019Y-152224166D01*
X166551432Y-152213130D01*
X166570838Y-152203951D01*
X166591050Y-152196719D01*
X166611874Y-152191503D01*
X166633109Y-152188353D01*
X166654550Y-152187300D01*
X167092050Y-152187300D01*
X167113491Y-152188353D01*
G37*
G36*
X243851891Y-135190653D02*
G01*
X243873126Y-135193803D01*
X243893950Y-135199019D01*
X243914162Y-135206251D01*
X243933568Y-135215430D01*
X243951981Y-135226466D01*
X243969224Y-135239254D01*
X243985130Y-135253670D01*
X243999546Y-135269576D01*
X244012334Y-135286819D01*
X244023370Y-135305232D01*
X244032549Y-135324638D01*
X244039781Y-135344850D01*
X244044997Y-135365674D01*
X244048147Y-135386909D01*
X244049200Y-135408350D01*
X244049200Y-135845850D01*
X244048147Y-135867291D01*
X244044997Y-135888526D01*
X244039781Y-135909350D01*
X244032549Y-135929562D01*
X244023370Y-135948968D01*
X244012334Y-135967381D01*
X243999546Y-135984624D01*
X243985130Y-136000530D01*
X243969224Y-136014946D01*
X243951981Y-136027734D01*
X243933568Y-136038770D01*
X243914162Y-136047949D01*
X243893950Y-136055181D01*
X243873126Y-136060397D01*
X243851891Y-136063547D01*
X243830450Y-136064600D01*
X243317950Y-136064600D01*
X243296509Y-136063547D01*
X243275274Y-136060397D01*
X243254450Y-136055181D01*
X243234238Y-136047949D01*
X243214832Y-136038770D01*
X243196419Y-136027734D01*
X243179176Y-136014946D01*
X243163270Y-136000530D01*
X243148854Y-135984624D01*
X243136066Y-135967381D01*
X243125030Y-135948968D01*
X243115851Y-135929562D01*
X243108619Y-135909350D01*
X243103403Y-135888526D01*
X243100253Y-135867291D01*
X243099200Y-135845850D01*
X243099200Y-135408350D01*
X243100253Y-135386909D01*
X243103403Y-135365674D01*
X243108619Y-135344850D01*
X243115851Y-135324638D01*
X243125030Y-135305232D01*
X243136066Y-135286819D01*
X243148854Y-135269576D01*
X243163270Y-135253670D01*
X243179176Y-135239254D01*
X243196419Y-135226466D01*
X243214832Y-135215430D01*
X243234238Y-135206251D01*
X243254450Y-135199019D01*
X243275274Y-135193803D01*
X243296509Y-135190653D01*
X243317950Y-135189600D01*
X243830450Y-135189600D01*
X243851891Y-135190653D01*
G37*
G36*
X243851891Y-133615653D02*
G01*
X243873126Y-133618803D01*
X243893950Y-133624019D01*
X243914162Y-133631251D01*
X243933568Y-133640430D01*
X243951981Y-133651466D01*
X243969224Y-133664254D01*
X243985130Y-133678670D01*
X243999546Y-133694576D01*
X244012334Y-133711819D01*
X244023370Y-133730232D01*
X244032549Y-133749638D01*
X244039781Y-133769850D01*
X244044997Y-133790674D01*
X244048147Y-133811909D01*
X244049200Y-133833350D01*
X244049200Y-134270850D01*
X244048147Y-134292291D01*
X244044997Y-134313526D01*
X244039781Y-134334350D01*
X244032549Y-134354562D01*
X244023370Y-134373968D01*
X244012334Y-134392381D01*
X243999546Y-134409624D01*
X243985130Y-134425530D01*
X243969224Y-134439946D01*
X243951981Y-134452734D01*
X243933568Y-134463770D01*
X243914162Y-134472949D01*
X243893950Y-134480181D01*
X243873126Y-134485397D01*
X243851891Y-134488547D01*
X243830450Y-134489600D01*
X243317950Y-134489600D01*
X243296509Y-134488547D01*
X243275274Y-134485397D01*
X243254450Y-134480181D01*
X243234238Y-134472949D01*
X243214832Y-134463770D01*
X243196419Y-134452734D01*
X243179176Y-134439946D01*
X243163270Y-134425530D01*
X243148854Y-134409624D01*
X243136066Y-134392381D01*
X243125030Y-134373968D01*
X243115851Y-134354562D01*
X243108619Y-134334350D01*
X243103403Y-134313526D01*
X243100253Y-134292291D01*
X243099200Y-134270850D01*
X243099200Y-133833350D01*
X243100253Y-133811909D01*
X243103403Y-133790674D01*
X243108619Y-133769850D01*
X243115851Y-133749638D01*
X243125030Y-133730232D01*
X243136066Y-133711819D01*
X243148854Y-133694576D01*
X243163270Y-133678670D01*
X243179176Y-133664254D01*
X243196419Y-133651466D01*
X243214832Y-133640430D01*
X243234238Y-133631251D01*
X243254450Y-133624019D01*
X243275274Y-133618803D01*
X243296509Y-133615653D01*
X243317950Y-133614600D01*
X243830450Y-133614600D01*
X243851891Y-133615653D01*
G37*
G36*
X243761891Y-124425653D02*
G01*
X243783126Y-124428803D01*
X243803950Y-124434019D01*
X243824162Y-124441251D01*
X243843568Y-124450430D01*
X243861981Y-124461466D01*
X243879224Y-124474254D01*
X243895130Y-124488670D01*
X243909546Y-124504576D01*
X243922334Y-124521819D01*
X243933370Y-124540232D01*
X243942549Y-124559638D01*
X243949781Y-124579850D01*
X243954997Y-124600674D01*
X243958147Y-124621909D01*
X243959200Y-124643350D01*
X243959200Y-125080850D01*
X243958147Y-125102291D01*
X243954997Y-125123526D01*
X243949781Y-125144350D01*
X243942549Y-125164562D01*
X243933370Y-125183968D01*
X243922334Y-125202381D01*
X243909546Y-125219624D01*
X243895130Y-125235530D01*
X243879224Y-125249946D01*
X243861981Y-125262734D01*
X243843568Y-125273770D01*
X243824162Y-125282949D01*
X243803950Y-125290181D01*
X243783126Y-125295397D01*
X243761891Y-125298547D01*
X243740450Y-125299600D01*
X243227950Y-125299600D01*
X243206509Y-125298547D01*
X243185274Y-125295397D01*
X243164450Y-125290181D01*
X243144238Y-125282949D01*
X243124832Y-125273770D01*
X243106419Y-125262734D01*
X243089176Y-125249946D01*
X243073270Y-125235530D01*
X243058854Y-125219624D01*
X243046066Y-125202381D01*
X243035030Y-125183968D01*
X243025851Y-125164562D01*
X243018619Y-125144350D01*
X243013403Y-125123526D01*
X243010253Y-125102291D01*
X243009200Y-125080850D01*
X243009200Y-124643350D01*
X243010253Y-124621909D01*
X243013403Y-124600674D01*
X243018619Y-124579850D01*
X243025851Y-124559638D01*
X243035030Y-124540232D01*
X243046066Y-124521819D01*
X243058854Y-124504576D01*
X243073270Y-124488670D01*
X243089176Y-124474254D01*
X243106419Y-124461466D01*
X243124832Y-124450430D01*
X243144238Y-124441251D01*
X243164450Y-124434019D01*
X243185274Y-124428803D01*
X243206509Y-124425653D01*
X243227950Y-124424600D01*
X243740450Y-124424600D01*
X243761891Y-124425653D01*
G37*
G36*
X243761891Y-126000653D02*
G01*
X243783126Y-126003803D01*
X243803950Y-126009019D01*
X243824162Y-126016251D01*
X243843568Y-126025430D01*
X243861981Y-126036466D01*
X243879224Y-126049254D01*
X243895130Y-126063670D01*
X243909546Y-126079576D01*
X243922334Y-126096819D01*
X243933370Y-126115232D01*
X243942549Y-126134638D01*
X243949781Y-126154850D01*
X243954997Y-126175674D01*
X243958147Y-126196909D01*
X243959200Y-126218350D01*
X243959200Y-126655850D01*
X243958147Y-126677291D01*
X243954997Y-126698526D01*
X243949781Y-126719350D01*
X243942549Y-126739562D01*
X243933370Y-126758968D01*
X243922334Y-126777381D01*
X243909546Y-126794624D01*
X243895130Y-126810530D01*
X243879224Y-126824946D01*
X243861981Y-126837734D01*
X243843568Y-126848770D01*
X243824162Y-126857949D01*
X243803950Y-126865181D01*
X243783126Y-126870397D01*
X243761891Y-126873547D01*
X243740450Y-126874600D01*
X243227950Y-126874600D01*
X243206509Y-126873547D01*
X243185274Y-126870397D01*
X243164450Y-126865181D01*
X243144238Y-126857949D01*
X243124832Y-126848770D01*
X243106419Y-126837734D01*
X243089176Y-126824946D01*
X243073270Y-126810530D01*
X243058854Y-126794624D01*
X243046066Y-126777381D01*
X243035030Y-126758968D01*
X243025851Y-126739562D01*
X243018619Y-126719350D01*
X243013403Y-126698526D01*
X243010253Y-126677291D01*
X243009200Y-126655850D01*
X243009200Y-126218350D01*
X243010253Y-126196909D01*
X243013403Y-126175674D01*
X243018619Y-126154850D01*
X243025851Y-126134638D01*
X243035030Y-126115232D01*
X243046066Y-126096819D01*
X243058854Y-126079576D01*
X243073270Y-126063670D01*
X243089176Y-126049254D01*
X243106419Y-126036466D01*
X243124832Y-126025430D01*
X243144238Y-126016251D01*
X243164450Y-126009019D01*
X243185274Y-126003803D01*
X243206509Y-126000653D01*
X243227950Y-125999600D01*
X243740450Y-125999600D01*
X243761891Y-126000653D01*
G37*
G36*
X243741891Y-112015653D02*
G01*
X243763126Y-112018803D01*
X243783950Y-112024019D01*
X243804162Y-112031251D01*
X243823568Y-112040430D01*
X243841981Y-112051466D01*
X243859224Y-112064254D01*
X243875130Y-112078670D01*
X243889546Y-112094576D01*
X243902334Y-112111819D01*
X243913370Y-112130232D01*
X243922549Y-112149638D01*
X243929781Y-112169850D01*
X243934997Y-112190674D01*
X243938147Y-112211909D01*
X243939200Y-112233350D01*
X243939200Y-112670850D01*
X243938147Y-112692291D01*
X243934997Y-112713526D01*
X243929781Y-112734350D01*
X243922549Y-112754562D01*
X243913370Y-112773968D01*
X243902334Y-112792381D01*
X243889546Y-112809624D01*
X243875130Y-112825530D01*
X243859224Y-112839946D01*
X243841981Y-112852734D01*
X243823568Y-112863770D01*
X243804162Y-112872949D01*
X243783950Y-112880181D01*
X243763126Y-112885397D01*
X243741891Y-112888547D01*
X243720450Y-112889600D01*
X243207950Y-112889600D01*
X243186509Y-112888547D01*
X243165274Y-112885397D01*
X243144450Y-112880181D01*
X243124238Y-112872949D01*
X243104832Y-112863770D01*
X243086419Y-112852734D01*
X243069176Y-112839946D01*
X243053270Y-112825530D01*
X243038854Y-112809624D01*
X243026066Y-112792381D01*
X243015030Y-112773968D01*
X243005851Y-112754562D01*
X242998619Y-112734350D01*
X242993403Y-112713526D01*
X242990253Y-112692291D01*
X242989200Y-112670850D01*
X242989200Y-112233350D01*
X242990253Y-112211909D01*
X242993403Y-112190674D01*
X242998619Y-112169850D01*
X243005851Y-112149638D01*
X243015030Y-112130232D01*
X243026066Y-112111819D01*
X243038854Y-112094576D01*
X243053270Y-112078670D01*
X243069176Y-112064254D01*
X243086419Y-112051466D01*
X243104832Y-112040430D01*
X243124238Y-112031251D01*
X243144450Y-112024019D01*
X243165274Y-112018803D01*
X243186509Y-112015653D01*
X243207950Y-112014600D01*
X243720450Y-112014600D01*
X243741891Y-112015653D01*
G37*
G36*
X243741891Y-113590653D02*
G01*
X243763126Y-113593803D01*
X243783950Y-113599019D01*
X243804162Y-113606251D01*
X243823568Y-113615430D01*
X243841981Y-113626466D01*
X243859224Y-113639254D01*
X243875130Y-113653670D01*
X243889546Y-113669576D01*
X243902334Y-113686819D01*
X243913370Y-113705232D01*
X243922549Y-113724638D01*
X243929781Y-113744850D01*
X243934997Y-113765674D01*
X243938147Y-113786909D01*
X243939200Y-113808350D01*
X243939200Y-114245850D01*
X243938147Y-114267291D01*
X243934997Y-114288526D01*
X243929781Y-114309350D01*
X243922549Y-114329562D01*
X243913370Y-114348968D01*
X243902334Y-114367381D01*
X243889546Y-114384624D01*
X243875130Y-114400530D01*
X243859224Y-114414946D01*
X243841981Y-114427734D01*
X243823568Y-114438770D01*
X243804162Y-114447949D01*
X243783950Y-114455181D01*
X243763126Y-114460397D01*
X243741891Y-114463547D01*
X243720450Y-114464600D01*
X243207950Y-114464600D01*
X243186509Y-114463547D01*
X243165274Y-114460397D01*
X243144450Y-114455181D01*
X243124238Y-114447949D01*
X243104832Y-114438770D01*
X243086419Y-114427734D01*
X243069176Y-114414946D01*
X243053270Y-114400530D01*
X243038854Y-114384624D01*
X243026066Y-114367381D01*
X243015030Y-114348968D01*
X243005851Y-114329562D01*
X242998619Y-114309350D01*
X242993403Y-114288526D01*
X242990253Y-114267291D01*
X242989200Y-114245850D01*
X242989200Y-113808350D01*
X242990253Y-113786909D01*
X242993403Y-113765674D01*
X242998619Y-113744850D01*
X243005851Y-113724638D01*
X243015030Y-113705232D01*
X243026066Y-113686819D01*
X243038854Y-113669576D01*
X243053270Y-113653670D01*
X243069176Y-113639254D01*
X243086419Y-113626466D01*
X243104832Y-113615430D01*
X243124238Y-113606251D01*
X243144450Y-113599019D01*
X243165274Y-113593803D01*
X243186509Y-113590653D01*
X243207950Y-113589600D01*
X243720450Y-113589600D01*
X243741891Y-113590653D01*
G37*
G36*
X239731158Y-125570310D02*
G01*
X239745476Y-125572434D01*
X239759517Y-125575951D01*
X239773146Y-125580828D01*
X239786231Y-125587017D01*
X239798647Y-125594458D01*
X239810273Y-125603081D01*
X239820998Y-125612802D01*
X239830719Y-125623527D01*
X239839342Y-125635153D01*
X239846783Y-125647569D01*
X239852972Y-125660654D01*
X239857849Y-125674283D01*
X239861366Y-125688324D01*
X239863490Y-125702642D01*
X239864200Y-125717100D01*
X239864200Y-126012100D01*
X239863490Y-126026558D01*
X239861366Y-126040876D01*
X239857849Y-126054917D01*
X239852972Y-126068546D01*
X239846783Y-126081631D01*
X239839342Y-126094047D01*
X239830719Y-126105673D01*
X239820998Y-126116398D01*
X239810273Y-126126119D01*
X239798647Y-126134742D01*
X239786231Y-126142183D01*
X239773146Y-126148372D01*
X239759517Y-126153249D01*
X239745476Y-126156766D01*
X239731158Y-126158890D01*
X239716700Y-126159600D01*
X239371700Y-126159600D01*
X239357242Y-126158890D01*
X239342924Y-126156766D01*
X239328883Y-126153249D01*
X239315254Y-126148372D01*
X239302169Y-126142183D01*
X239289753Y-126134742D01*
X239278127Y-126126119D01*
X239267402Y-126116398D01*
X239257681Y-126105673D01*
X239249058Y-126094047D01*
X239241617Y-126081631D01*
X239235428Y-126068546D01*
X239230551Y-126054917D01*
X239227034Y-126040876D01*
X239224910Y-126026558D01*
X239224200Y-126012100D01*
X239224200Y-125717100D01*
X239224910Y-125702642D01*
X239227034Y-125688324D01*
X239230551Y-125674283D01*
X239235428Y-125660654D01*
X239241617Y-125647569D01*
X239249058Y-125635153D01*
X239257681Y-125623527D01*
X239267402Y-125612802D01*
X239278127Y-125603081D01*
X239289753Y-125594458D01*
X239302169Y-125587017D01*
X239315254Y-125580828D01*
X239328883Y-125575951D01*
X239342924Y-125572434D01*
X239357242Y-125570310D01*
X239371700Y-125569600D01*
X239716700Y-125569600D01*
X239731158Y-125570310D01*
G37*
G36*
X239731158Y-124600310D02*
G01*
X239745476Y-124602434D01*
X239759517Y-124605951D01*
X239773146Y-124610828D01*
X239786231Y-124617017D01*
X239798647Y-124624458D01*
X239810273Y-124633081D01*
X239820998Y-124642802D01*
X239830719Y-124653527D01*
X239839342Y-124665153D01*
X239846783Y-124677569D01*
X239852972Y-124690654D01*
X239857849Y-124704283D01*
X239861366Y-124718324D01*
X239863490Y-124732642D01*
X239864200Y-124747100D01*
X239864200Y-125042100D01*
X239863490Y-125056558D01*
X239861366Y-125070876D01*
X239857849Y-125084917D01*
X239852972Y-125098546D01*
X239846783Y-125111631D01*
X239839342Y-125124047D01*
X239830719Y-125135673D01*
X239820998Y-125146398D01*
X239810273Y-125156119D01*
X239798647Y-125164742D01*
X239786231Y-125172183D01*
X239773146Y-125178372D01*
X239759517Y-125183249D01*
X239745476Y-125186766D01*
X239731158Y-125188890D01*
X239716700Y-125189600D01*
X239371700Y-125189600D01*
X239357242Y-125188890D01*
X239342924Y-125186766D01*
X239328883Y-125183249D01*
X239315254Y-125178372D01*
X239302169Y-125172183D01*
X239289753Y-125164742D01*
X239278127Y-125156119D01*
X239267402Y-125146398D01*
X239257681Y-125135673D01*
X239249058Y-125124047D01*
X239241617Y-125111631D01*
X239235428Y-125098546D01*
X239230551Y-125084917D01*
X239227034Y-125070876D01*
X239224910Y-125056558D01*
X239224200Y-125042100D01*
X239224200Y-124747100D01*
X239224910Y-124732642D01*
X239227034Y-124718324D01*
X239230551Y-124704283D01*
X239235428Y-124690654D01*
X239241617Y-124677569D01*
X239249058Y-124665153D01*
X239257681Y-124653527D01*
X239267402Y-124642802D01*
X239278127Y-124633081D01*
X239289753Y-124624458D01*
X239302169Y-124617017D01*
X239315254Y-124610828D01*
X239328883Y-124605951D01*
X239342924Y-124602434D01*
X239357242Y-124600310D01*
X239371700Y-124599600D01*
X239716700Y-124599600D01*
X239731158Y-124600310D01*
G37*
G36*
X239741158Y-113760310D02*
G01*
X239755476Y-113762434D01*
X239769517Y-113765951D01*
X239783146Y-113770828D01*
X239796231Y-113777017D01*
X239808647Y-113784458D01*
X239820273Y-113793081D01*
X239830998Y-113802802D01*
X239840719Y-113813527D01*
X239849342Y-113825153D01*
X239856783Y-113837569D01*
X239862972Y-113850654D01*
X239867849Y-113864283D01*
X239871366Y-113878324D01*
X239873490Y-113892642D01*
X239874200Y-113907100D01*
X239874200Y-114202100D01*
X239873490Y-114216558D01*
X239871366Y-114230876D01*
X239867849Y-114244917D01*
X239862972Y-114258546D01*
X239856783Y-114271631D01*
X239849342Y-114284047D01*
X239840719Y-114295673D01*
X239830998Y-114306398D01*
X239820273Y-114316119D01*
X239808647Y-114324742D01*
X239796231Y-114332183D01*
X239783146Y-114338372D01*
X239769517Y-114343249D01*
X239755476Y-114346766D01*
X239741158Y-114348890D01*
X239726700Y-114349600D01*
X239381700Y-114349600D01*
X239367242Y-114348890D01*
X239352924Y-114346766D01*
X239338883Y-114343249D01*
X239325254Y-114338372D01*
X239312169Y-114332183D01*
X239299753Y-114324742D01*
X239288127Y-114316119D01*
X239277402Y-114306398D01*
X239267681Y-114295673D01*
X239259058Y-114284047D01*
X239251617Y-114271631D01*
X239245428Y-114258546D01*
X239240551Y-114244917D01*
X239237034Y-114230876D01*
X239234910Y-114216558D01*
X239234200Y-114202100D01*
X239234200Y-113907100D01*
X239234910Y-113892642D01*
X239237034Y-113878324D01*
X239240551Y-113864283D01*
X239245428Y-113850654D01*
X239251617Y-113837569D01*
X239259058Y-113825153D01*
X239267681Y-113813527D01*
X239277402Y-113802802D01*
X239288127Y-113793081D01*
X239299753Y-113784458D01*
X239312169Y-113777017D01*
X239325254Y-113770828D01*
X239338883Y-113765951D01*
X239352924Y-113762434D01*
X239367242Y-113760310D01*
X239381700Y-113759600D01*
X239726700Y-113759600D01*
X239741158Y-113760310D01*
G37*
G36*
X239741158Y-112790310D02*
G01*
X239755476Y-112792434D01*
X239769517Y-112795951D01*
X239783146Y-112800828D01*
X239796231Y-112807017D01*
X239808647Y-112814458D01*
X239820273Y-112823081D01*
X239830998Y-112832802D01*
X239840719Y-112843527D01*
X239849342Y-112855153D01*
X239856783Y-112867569D01*
X239862972Y-112880654D01*
X239867849Y-112894283D01*
X239871366Y-112908324D01*
X239873490Y-112922642D01*
X239874200Y-112937100D01*
X239874200Y-113232100D01*
X239873490Y-113246558D01*
X239871366Y-113260876D01*
X239867849Y-113274917D01*
X239862972Y-113288546D01*
X239856783Y-113301631D01*
X239849342Y-113314047D01*
X239840719Y-113325673D01*
X239830998Y-113336398D01*
X239820273Y-113346119D01*
X239808647Y-113354742D01*
X239796231Y-113362183D01*
X239783146Y-113368372D01*
X239769517Y-113373249D01*
X239755476Y-113376766D01*
X239741158Y-113378890D01*
X239726700Y-113379600D01*
X239381700Y-113379600D01*
X239367242Y-113378890D01*
X239352924Y-113376766D01*
X239338883Y-113373249D01*
X239325254Y-113368372D01*
X239312169Y-113362183D01*
X239299753Y-113354742D01*
X239288127Y-113346119D01*
X239277402Y-113336398D01*
X239267681Y-113325673D01*
X239259058Y-113314047D01*
X239251617Y-113301631D01*
X239245428Y-113288546D01*
X239240551Y-113274917D01*
X239237034Y-113260876D01*
X239234910Y-113246558D01*
X239234200Y-113232100D01*
X239234200Y-112937100D01*
X239234910Y-112922642D01*
X239237034Y-112908324D01*
X239240551Y-112894283D01*
X239245428Y-112880654D01*
X239251617Y-112867569D01*
X239259058Y-112855153D01*
X239267681Y-112843527D01*
X239277402Y-112832802D01*
X239288127Y-112823081D01*
X239299753Y-112814458D01*
X239312169Y-112807017D01*
X239325254Y-112800828D01*
X239338883Y-112795951D01*
X239352924Y-112792434D01*
X239367242Y-112790310D01*
X239381700Y-112789600D01*
X239726700Y-112789600D01*
X239741158Y-112790310D01*
G37*
G36*
X241178891Y-112040353D02*
G01*
X241200126Y-112043503D01*
X241220950Y-112048719D01*
X241241162Y-112055951D01*
X241260568Y-112065130D01*
X241278981Y-112076166D01*
X241296224Y-112088954D01*
X241312130Y-112103370D01*
X241326546Y-112119276D01*
X241339334Y-112136519D01*
X241350370Y-112154932D01*
X241359549Y-112174338D01*
X241366781Y-112194550D01*
X241371997Y-112215374D01*
X241375147Y-112236609D01*
X241376200Y-112258050D01*
X241376200Y-112695550D01*
X241375147Y-112716991D01*
X241371997Y-112738226D01*
X241366781Y-112759050D01*
X241359549Y-112779262D01*
X241350370Y-112798668D01*
X241339334Y-112817081D01*
X241326546Y-112834324D01*
X241312130Y-112850230D01*
X241296224Y-112864646D01*
X241278981Y-112877434D01*
X241260568Y-112888470D01*
X241241162Y-112897649D01*
X241220950Y-112904881D01*
X241200126Y-112910097D01*
X241178891Y-112913247D01*
X241157450Y-112914300D01*
X240644950Y-112914300D01*
X240623509Y-112913247D01*
X240602274Y-112910097D01*
X240581450Y-112904881D01*
X240561238Y-112897649D01*
X240541832Y-112888470D01*
X240523419Y-112877434D01*
X240506176Y-112864646D01*
X240490270Y-112850230D01*
X240475854Y-112834324D01*
X240463066Y-112817081D01*
X240452030Y-112798668D01*
X240442851Y-112779262D01*
X240435619Y-112759050D01*
X240430403Y-112738226D01*
X240427253Y-112716991D01*
X240426200Y-112695550D01*
X240426200Y-112258050D01*
X240427253Y-112236609D01*
X240430403Y-112215374D01*
X240435619Y-112194550D01*
X240442851Y-112174338D01*
X240452030Y-112154932D01*
X240463066Y-112136519D01*
X240475854Y-112119276D01*
X240490270Y-112103370D01*
X240506176Y-112088954D01*
X240523419Y-112076166D01*
X240541832Y-112065130D01*
X240561238Y-112055951D01*
X240581450Y-112048719D01*
X240602274Y-112043503D01*
X240623509Y-112040353D01*
X240644950Y-112039300D01*
X241157450Y-112039300D01*
X241178891Y-112040353D01*
G37*
G36*
X241178891Y-113615353D02*
G01*
X241200126Y-113618503D01*
X241220950Y-113623719D01*
X241241162Y-113630951D01*
X241260568Y-113640130D01*
X241278981Y-113651166D01*
X241296224Y-113663954D01*
X241312130Y-113678370D01*
X241326546Y-113694276D01*
X241339334Y-113711519D01*
X241350370Y-113729932D01*
X241359549Y-113749338D01*
X241366781Y-113769550D01*
X241371997Y-113790374D01*
X241375147Y-113811609D01*
X241376200Y-113833050D01*
X241376200Y-114270550D01*
X241375147Y-114291991D01*
X241371997Y-114313226D01*
X241366781Y-114334050D01*
X241359549Y-114354262D01*
X241350370Y-114373668D01*
X241339334Y-114392081D01*
X241326546Y-114409324D01*
X241312130Y-114425230D01*
X241296224Y-114439646D01*
X241278981Y-114452434D01*
X241260568Y-114463470D01*
X241241162Y-114472649D01*
X241220950Y-114479881D01*
X241200126Y-114485097D01*
X241178891Y-114488247D01*
X241157450Y-114489300D01*
X240644950Y-114489300D01*
X240623509Y-114488247D01*
X240602274Y-114485097D01*
X240581450Y-114479881D01*
X240561238Y-114472649D01*
X240541832Y-114463470D01*
X240523419Y-114452434D01*
X240506176Y-114439646D01*
X240490270Y-114425230D01*
X240475854Y-114409324D01*
X240463066Y-114392081D01*
X240452030Y-114373668D01*
X240442851Y-114354262D01*
X240435619Y-114334050D01*
X240430403Y-114313226D01*
X240427253Y-114291991D01*
X240426200Y-114270550D01*
X240426200Y-113833050D01*
X240427253Y-113811609D01*
X240430403Y-113790374D01*
X240435619Y-113769550D01*
X240442851Y-113749338D01*
X240452030Y-113729932D01*
X240463066Y-113711519D01*
X240475854Y-113694276D01*
X240490270Y-113678370D01*
X240506176Y-113663954D01*
X240523419Y-113651166D01*
X240541832Y-113640130D01*
X240561238Y-113630951D01*
X240581450Y-113623719D01*
X240602274Y-113618503D01*
X240623509Y-113615353D01*
X240644950Y-113614300D01*
X241157450Y-113614300D01*
X241178891Y-113615353D01*
G37*
G36*
X241177291Y-124435653D02*
G01*
X241198526Y-124438803D01*
X241219350Y-124444019D01*
X241239562Y-124451251D01*
X241258968Y-124460430D01*
X241277381Y-124471466D01*
X241294624Y-124484254D01*
X241310530Y-124498670D01*
X241324946Y-124514576D01*
X241337734Y-124531819D01*
X241348770Y-124550232D01*
X241357949Y-124569638D01*
X241365181Y-124589850D01*
X241370397Y-124610674D01*
X241373547Y-124631909D01*
X241374600Y-124653350D01*
X241374600Y-125090850D01*
X241373547Y-125112291D01*
X241370397Y-125133526D01*
X241365181Y-125154350D01*
X241357949Y-125174562D01*
X241348770Y-125193968D01*
X241337734Y-125212381D01*
X241324946Y-125229624D01*
X241310530Y-125245530D01*
X241294624Y-125259946D01*
X241277381Y-125272734D01*
X241258968Y-125283770D01*
X241239562Y-125292949D01*
X241219350Y-125300181D01*
X241198526Y-125305397D01*
X241177291Y-125308547D01*
X241155850Y-125309600D01*
X240643350Y-125309600D01*
X240621909Y-125308547D01*
X240600674Y-125305397D01*
X240579850Y-125300181D01*
X240559638Y-125292949D01*
X240540232Y-125283770D01*
X240521819Y-125272734D01*
X240504576Y-125259946D01*
X240488670Y-125245530D01*
X240474254Y-125229624D01*
X240461466Y-125212381D01*
X240450430Y-125193968D01*
X240441251Y-125174562D01*
X240434019Y-125154350D01*
X240428803Y-125133526D01*
X240425653Y-125112291D01*
X240424600Y-125090850D01*
X240424600Y-124653350D01*
X240425653Y-124631909D01*
X240428803Y-124610674D01*
X240434019Y-124589850D01*
X240441251Y-124569638D01*
X240450430Y-124550232D01*
X240461466Y-124531819D01*
X240474254Y-124514576D01*
X240488670Y-124498670D01*
X240504576Y-124484254D01*
X240521819Y-124471466D01*
X240540232Y-124460430D01*
X240559638Y-124451251D01*
X240579850Y-124444019D01*
X240600674Y-124438803D01*
X240621909Y-124435653D01*
X240643350Y-124434600D01*
X241155850Y-124434600D01*
X241177291Y-124435653D01*
G37*
G36*
X241177291Y-126010653D02*
G01*
X241198526Y-126013803D01*
X241219350Y-126019019D01*
X241239562Y-126026251D01*
X241258968Y-126035430D01*
X241277381Y-126046466D01*
X241294624Y-126059254D01*
X241310530Y-126073670D01*
X241324946Y-126089576D01*
X241337734Y-126106819D01*
X241348770Y-126125232D01*
X241357949Y-126144638D01*
X241365181Y-126164850D01*
X241370397Y-126185674D01*
X241373547Y-126206909D01*
X241374600Y-126228350D01*
X241374600Y-126665850D01*
X241373547Y-126687291D01*
X241370397Y-126708526D01*
X241365181Y-126729350D01*
X241357949Y-126749562D01*
X241348770Y-126768968D01*
X241337734Y-126787381D01*
X241324946Y-126804624D01*
X241310530Y-126820530D01*
X241294624Y-126834946D01*
X241277381Y-126847734D01*
X241258968Y-126858770D01*
X241239562Y-126867949D01*
X241219350Y-126875181D01*
X241198526Y-126880397D01*
X241177291Y-126883547D01*
X241155850Y-126884600D01*
X240643350Y-126884600D01*
X240621909Y-126883547D01*
X240600674Y-126880397D01*
X240579850Y-126875181D01*
X240559638Y-126867949D01*
X240540232Y-126858770D01*
X240521819Y-126847734D01*
X240504576Y-126834946D01*
X240488670Y-126820530D01*
X240474254Y-126804624D01*
X240461466Y-126787381D01*
X240450430Y-126768968D01*
X240441251Y-126749562D01*
X240434019Y-126729350D01*
X240428803Y-126708526D01*
X240425653Y-126687291D01*
X240424600Y-126665850D01*
X240424600Y-126228350D01*
X240425653Y-126206909D01*
X240428803Y-126185674D01*
X240434019Y-126164850D01*
X240441251Y-126144638D01*
X240450430Y-126125232D01*
X240461466Y-126106819D01*
X240474254Y-126089576D01*
X240488670Y-126073670D01*
X240504576Y-126059254D01*
X240521819Y-126046466D01*
X240540232Y-126035430D01*
X240559638Y-126026251D01*
X240579850Y-126019019D01*
X240600674Y-126013803D01*
X240621909Y-126010653D01*
X240643350Y-126009600D01*
X241155850Y-126009600D01*
X241177291Y-126010653D01*
G37*
G36*
X239851158Y-134390310D02*
G01*
X239865476Y-134392434D01*
X239879517Y-134395951D01*
X239893146Y-134400828D01*
X239906231Y-134407017D01*
X239918647Y-134414458D01*
X239930273Y-134423081D01*
X239940998Y-134432802D01*
X239950719Y-134443527D01*
X239959342Y-134455153D01*
X239966783Y-134467569D01*
X239972972Y-134480654D01*
X239977849Y-134494283D01*
X239981366Y-134508324D01*
X239983490Y-134522642D01*
X239984200Y-134537100D01*
X239984200Y-134832100D01*
X239983490Y-134846558D01*
X239981366Y-134860876D01*
X239977849Y-134874917D01*
X239972972Y-134888546D01*
X239966783Y-134901631D01*
X239959342Y-134914047D01*
X239950719Y-134925673D01*
X239940998Y-134936398D01*
X239930273Y-134946119D01*
X239918647Y-134954742D01*
X239906231Y-134962183D01*
X239893146Y-134968372D01*
X239879517Y-134973249D01*
X239865476Y-134976766D01*
X239851158Y-134978890D01*
X239836700Y-134979600D01*
X239491700Y-134979600D01*
X239477242Y-134978890D01*
X239462924Y-134976766D01*
X239448883Y-134973249D01*
X239435254Y-134968372D01*
X239422169Y-134962183D01*
X239409753Y-134954742D01*
X239398127Y-134946119D01*
X239387402Y-134936398D01*
X239377681Y-134925673D01*
X239369058Y-134914047D01*
X239361617Y-134901631D01*
X239355428Y-134888546D01*
X239350551Y-134874917D01*
X239347034Y-134860876D01*
X239344910Y-134846558D01*
X239344200Y-134832100D01*
X239344200Y-134537100D01*
X239344910Y-134522642D01*
X239347034Y-134508324D01*
X239350551Y-134494283D01*
X239355428Y-134480654D01*
X239361617Y-134467569D01*
X239369058Y-134455153D01*
X239377681Y-134443527D01*
X239387402Y-134432802D01*
X239398127Y-134423081D01*
X239409753Y-134414458D01*
X239422169Y-134407017D01*
X239435254Y-134400828D01*
X239448883Y-134395951D01*
X239462924Y-134392434D01*
X239477242Y-134390310D01*
X239491700Y-134389600D01*
X239836700Y-134389600D01*
X239851158Y-134390310D01*
G37*
G36*
X239851158Y-135360310D02*
G01*
X239865476Y-135362434D01*
X239879517Y-135365951D01*
X239893146Y-135370828D01*
X239906231Y-135377017D01*
X239918647Y-135384458D01*
X239930273Y-135393081D01*
X239940998Y-135402802D01*
X239950719Y-135413527D01*
X239959342Y-135425153D01*
X239966783Y-135437569D01*
X239972972Y-135450654D01*
X239977849Y-135464283D01*
X239981366Y-135478324D01*
X239983490Y-135492642D01*
X239984200Y-135507100D01*
X239984200Y-135802100D01*
X239983490Y-135816558D01*
X239981366Y-135830876D01*
X239977849Y-135844917D01*
X239972972Y-135858546D01*
X239966783Y-135871631D01*
X239959342Y-135884047D01*
X239950719Y-135895673D01*
X239940998Y-135906398D01*
X239930273Y-135916119D01*
X239918647Y-135924742D01*
X239906231Y-135932183D01*
X239893146Y-135938372D01*
X239879517Y-135943249D01*
X239865476Y-135946766D01*
X239851158Y-135948890D01*
X239836700Y-135949600D01*
X239491700Y-135949600D01*
X239477242Y-135948890D01*
X239462924Y-135946766D01*
X239448883Y-135943249D01*
X239435254Y-135938372D01*
X239422169Y-135932183D01*
X239409753Y-135924742D01*
X239398127Y-135916119D01*
X239387402Y-135906398D01*
X239377681Y-135895673D01*
X239369058Y-135884047D01*
X239361617Y-135871631D01*
X239355428Y-135858546D01*
X239350551Y-135844917D01*
X239347034Y-135830876D01*
X239344910Y-135816558D01*
X239344200Y-135802100D01*
X239344200Y-135507100D01*
X239344910Y-135492642D01*
X239347034Y-135478324D01*
X239350551Y-135464283D01*
X239355428Y-135450654D01*
X239361617Y-135437569D01*
X239369058Y-135425153D01*
X239377681Y-135413527D01*
X239387402Y-135402802D01*
X239398127Y-135393081D01*
X239409753Y-135384458D01*
X239422169Y-135377017D01*
X239435254Y-135370828D01*
X239448883Y-135365951D01*
X239462924Y-135362434D01*
X239477242Y-135360310D01*
X239491700Y-135359600D01*
X239836700Y-135359600D01*
X239851158Y-135360310D01*
G37*
G36*
X241271891Y-135220653D02*
G01*
X241293126Y-135223803D01*
X241313950Y-135229019D01*
X241334162Y-135236251D01*
X241353568Y-135245430D01*
X241371981Y-135256466D01*
X241389224Y-135269254D01*
X241405130Y-135283670D01*
X241419546Y-135299576D01*
X241432334Y-135316819D01*
X241443370Y-135335232D01*
X241452549Y-135354638D01*
X241459781Y-135374850D01*
X241464997Y-135395674D01*
X241468147Y-135416909D01*
X241469200Y-135438350D01*
X241469200Y-135875850D01*
X241468147Y-135897291D01*
X241464997Y-135918526D01*
X241459781Y-135939350D01*
X241452549Y-135959562D01*
X241443370Y-135978968D01*
X241432334Y-135997381D01*
X241419546Y-136014624D01*
X241405130Y-136030530D01*
X241389224Y-136044946D01*
X241371981Y-136057734D01*
X241353568Y-136068770D01*
X241334162Y-136077949D01*
X241313950Y-136085181D01*
X241293126Y-136090397D01*
X241271891Y-136093547D01*
X241250450Y-136094600D01*
X240737950Y-136094600D01*
X240716509Y-136093547D01*
X240695274Y-136090397D01*
X240674450Y-136085181D01*
X240654238Y-136077949D01*
X240634832Y-136068770D01*
X240616419Y-136057734D01*
X240599176Y-136044946D01*
X240583270Y-136030530D01*
X240568854Y-136014624D01*
X240556066Y-135997381D01*
X240545030Y-135978968D01*
X240535851Y-135959562D01*
X240528619Y-135939350D01*
X240523403Y-135918526D01*
X240520253Y-135897291D01*
X240519200Y-135875850D01*
X240519200Y-135438350D01*
X240520253Y-135416909D01*
X240523403Y-135395674D01*
X240528619Y-135374850D01*
X240535851Y-135354638D01*
X240545030Y-135335232D01*
X240556066Y-135316819D01*
X240568854Y-135299576D01*
X240583270Y-135283670D01*
X240599176Y-135269254D01*
X240616419Y-135256466D01*
X240634832Y-135245430D01*
X240654238Y-135236251D01*
X240674450Y-135229019D01*
X240695274Y-135223803D01*
X240716509Y-135220653D01*
X240737950Y-135219600D01*
X241250450Y-135219600D01*
X241271891Y-135220653D01*
G37*
G36*
X241271891Y-133645653D02*
G01*
X241293126Y-133648803D01*
X241313950Y-133654019D01*
X241334162Y-133661251D01*
X241353568Y-133670430D01*
X241371981Y-133681466D01*
X241389224Y-133694254D01*
X241405130Y-133708670D01*
X241419546Y-133724576D01*
X241432334Y-133741819D01*
X241443370Y-133760232D01*
X241452549Y-133779638D01*
X241459781Y-133799850D01*
X241464997Y-133820674D01*
X241468147Y-133841909D01*
X241469200Y-133863350D01*
X241469200Y-134300850D01*
X241468147Y-134322291D01*
X241464997Y-134343526D01*
X241459781Y-134364350D01*
X241452549Y-134384562D01*
X241443370Y-134403968D01*
X241432334Y-134422381D01*
X241419546Y-134439624D01*
X241405130Y-134455530D01*
X241389224Y-134469946D01*
X241371981Y-134482734D01*
X241353568Y-134493770D01*
X241334162Y-134502949D01*
X241313950Y-134510181D01*
X241293126Y-134515397D01*
X241271891Y-134518547D01*
X241250450Y-134519600D01*
X240737950Y-134519600D01*
X240716509Y-134518547D01*
X240695274Y-134515397D01*
X240674450Y-134510181D01*
X240654238Y-134502949D01*
X240634832Y-134493770D01*
X240616419Y-134482734D01*
X240599176Y-134469946D01*
X240583270Y-134455530D01*
X240568854Y-134439624D01*
X240556066Y-134422381D01*
X240545030Y-134403968D01*
X240535851Y-134384562D01*
X240528619Y-134364350D01*
X240523403Y-134343526D01*
X240520253Y-134322291D01*
X240519200Y-134300850D01*
X240519200Y-133863350D01*
X240520253Y-133841909D01*
X240523403Y-133820674D01*
X240528619Y-133799850D01*
X240535851Y-133779638D01*
X240545030Y-133760232D01*
X240556066Y-133741819D01*
X240568854Y-133724576D01*
X240583270Y-133708670D01*
X240599176Y-133694254D01*
X240616419Y-133681466D01*
X240634832Y-133670430D01*
X240654238Y-133661251D01*
X240674450Y-133654019D01*
X240695274Y-133648803D01*
X240716509Y-133645653D01*
X240737950Y-133644600D01*
X241250450Y-133644600D01*
X241271891Y-133645653D01*
G37*
D13*
X165075000Y-138100000D03*
X168525000Y-138100000D03*
D14*
X167000000Y-136100000D03*
X165100000Y-136100000D03*
X166050000Y-134000000D03*
D10*
G36*
X169186958Y-131920710D02*
G01*
X169201276Y-131922834D01*
X169215317Y-131926351D01*
X169228946Y-131931228D01*
X169242031Y-131937417D01*
X169254447Y-131944858D01*
X169266073Y-131953481D01*
X169276798Y-131963202D01*
X169286519Y-131973927D01*
X169295142Y-131985553D01*
X169302583Y-131997969D01*
X169308772Y-132011054D01*
X169313649Y-132024683D01*
X169317166Y-132038724D01*
X169319290Y-132053042D01*
X169320000Y-132067500D01*
X169320000Y-132362500D01*
X169319290Y-132376958D01*
X169317166Y-132391276D01*
X169313649Y-132405317D01*
X169308772Y-132418946D01*
X169302583Y-132432031D01*
X169295142Y-132444447D01*
X169286519Y-132456073D01*
X169276798Y-132466798D01*
X169266073Y-132476519D01*
X169254447Y-132485142D01*
X169242031Y-132492583D01*
X169228946Y-132498772D01*
X169215317Y-132503649D01*
X169201276Y-132507166D01*
X169186958Y-132509290D01*
X169172500Y-132510000D01*
X168827500Y-132510000D01*
X168813042Y-132509290D01*
X168798724Y-132507166D01*
X168784683Y-132503649D01*
X168771054Y-132498772D01*
X168757969Y-132492583D01*
X168745553Y-132485142D01*
X168733927Y-132476519D01*
X168723202Y-132466798D01*
X168713481Y-132456073D01*
X168704858Y-132444447D01*
X168697417Y-132432031D01*
X168691228Y-132418946D01*
X168686351Y-132405317D01*
X168682834Y-132391276D01*
X168680710Y-132376958D01*
X168680000Y-132362500D01*
X168680000Y-132067500D01*
X168680710Y-132053042D01*
X168682834Y-132038724D01*
X168686351Y-132024683D01*
X168691228Y-132011054D01*
X168697417Y-131997969D01*
X168704858Y-131985553D01*
X168713481Y-131973927D01*
X168723202Y-131963202D01*
X168733927Y-131953481D01*
X168745553Y-131944858D01*
X168757969Y-131937417D01*
X168771054Y-131931228D01*
X168784683Y-131926351D01*
X168798724Y-131922834D01*
X168813042Y-131920710D01*
X168827500Y-131920000D01*
X169172500Y-131920000D01*
X169186958Y-131920710D01*
G37*
G36*
X169186958Y-132890710D02*
G01*
X169201276Y-132892834D01*
X169215317Y-132896351D01*
X169228946Y-132901228D01*
X169242031Y-132907417D01*
X169254447Y-132914858D01*
X169266073Y-132923481D01*
X169276798Y-132933202D01*
X169286519Y-132943927D01*
X169295142Y-132955553D01*
X169302583Y-132967969D01*
X169308772Y-132981054D01*
X169313649Y-132994683D01*
X169317166Y-133008724D01*
X169319290Y-133023042D01*
X169320000Y-133037500D01*
X169320000Y-133332500D01*
X169319290Y-133346958D01*
X169317166Y-133361276D01*
X169313649Y-133375317D01*
X169308772Y-133388946D01*
X169302583Y-133402031D01*
X169295142Y-133414447D01*
X169286519Y-133426073D01*
X169276798Y-133436798D01*
X169266073Y-133446519D01*
X169254447Y-133455142D01*
X169242031Y-133462583D01*
X169228946Y-133468772D01*
X169215317Y-133473649D01*
X169201276Y-133477166D01*
X169186958Y-133479290D01*
X169172500Y-133480000D01*
X168827500Y-133480000D01*
X168813042Y-133479290D01*
X168798724Y-133477166D01*
X168784683Y-133473649D01*
X168771054Y-133468772D01*
X168757969Y-133462583D01*
X168745553Y-133455142D01*
X168733927Y-133446519D01*
X168723202Y-133436798D01*
X168713481Y-133426073D01*
X168704858Y-133414447D01*
X168697417Y-133402031D01*
X168691228Y-133388946D01*
X168686351Y-133375317D01*
X168682834Y-133361276D01*
X168680710Y-133346958D01*
X168680000Y-133332500D01*
X168680000Y-133037500D01*
X168680710Y-133023042D01*
X168682834Y-133008724D01*
X168686351Y-132994683D01*
X168691228Y-132981054D01*
X168697417Y-132967969D01*
X168704858Y-132955553D01*
X168713481Y-132943927D01*
X168723202Y-132933202D01*
X168733927Y-132923481D01*
X168745553Y-132914858D01*
X168757969Y-132907417D01*
X168771054Y-132901228D01*
X168784683Y-132896351D01*
X168798724Y-132892834D01*
X168813042Y-132890710D01*
X168827500Y-132890000D01*
X169172500Y-132890000D01*
X169186958Y-132890710D01*
G37*
G36*
X165352691Y-131726053D02*
G01*
X165373926Y-131729203D01*
X165394750Y-131734419D01*
X165414962Y-131741651D01*
X165434368Y-131750830D01*
X165452781Y-131761866D01*
X165470024Y-131774654D01*
X165485930Y-131789070D01*
X165500346Y-131804976D01*
X165513134Y-131822219D01*
X165524170Y-131840632D01*
X165533349Y-131860038D01*
X165540581Y-131880250D01*
X165545797Y-131901074D01*
X165548947Y-131922309D01*
X165550000Y-131943750D01*
X165550000Y-132456250D01*
X165548947Y-132477691D01*
X165545797Y-132498926D01*
X165540581Y-132519750D01*
X165533349Y-132539962D01*
X165524170Y-132559368D01*
X165513134Y-132577781D01*
X165500346Y-132595024D01*
X165485930Y-132610930D01*
X165470024Y-132625346D01*
X165452781Y-132638134D01*
X165434368Y-132649170D01*
X165414962Y-132658349D01*
X165394750Y-132665581D01*
X165373926Y-132670797D01*
X165352691Y-132673947D01*
X165331250Y-132675000D01*
X164893750Y-132675000D01*
X164872309Y-132673947D01*
X164851074Y-132670797D01*
X164830250Y-132665581D01*
X164810038Y-132658349D01*
X164790632Y-132649170D01*
X164772219Y-132638134D01*
X164754976Y-132625346D01*
X164739070Y-132610930D01*
X164724654Y-132595024D01*
X164711866Y-132577781D01*
X164700830Y-132559368D01*
X164691651Y-132539962D01*
X164684419Y-132519750D01*
X164679203Y-132498926D01*
X164676053Y-132477691D01*
X164675000Y-132456250D01*
X164675000Y-131943750D01*
X164676053Y-131922309D01*
X164679203Y-131901074D01*
X164684419Y-131880250D01*
X164691651Y-131860038D01*
X164700830Y-131840632D01*
X164711866Y-131822219D01*
X164724654Y-131804976D01*
X164739070Y-131789070D01*
X164754976Y-131774654D01*
X164772219Y-131761866D01*
X164790632Y-131750830D01*
X164810038Y-131741651D01*
X164830250Y-131734419D01*
X164851074Y-131729203D01*
X164872309Y-131726053D01*
X164893750Y-131725000D01*
X165331250Y-131725000D01*
X165352691Y-131726053D01*
G37*
G36*
X166927691Y-131726053D02*
G01*
X166948926Y-131729203D01*
X166969750Y-131734419D01*
X166989962Y-131741651D01*
X167009368Y-131750830D01*
X167027781Y-131761866D01*
X167045024Y-131774654D01*
X167060930Y-131789070D01*
X167075346Y-131804976D01*
X167088134Y-131822219D01*
X167099170Y-131840632D01*
X167108349Y-131860038D01*
X167115581Y-131880250D01*
X167120797Y-131901074D01*
X167123947Y-131922309D01*
X167125000Y-131943750D01*
X167125000Y-132456250D01*
X167123947Y-132477691D01*
X167120797Y-132498926D01*
X167115581Y-132519750D01*
X167108349Y-132539962D01*
X167099170Y-132559368D01*
X167088134Y-132577781D01*
X167075346Y-132595024D01*
X167060930Y-132610930D01*
X167045024Y-132625346D01*
X167027781Y-132638134D01*
X167009368Y-132649170D01*
X166989962Y-132658349D01*
X166969750Y-132665581D01*
X166948926Y-132670797D01*
X166927691Y-132673947D01*
X166906250Y-132675000D01*
X166468750Y-132675000D01*
X166447309Y-132673947D01*
X166426074Y-132670797D01*
X166405250Y-132665581D01*
X166385038Y-132658349D01*
X166365632Y-132649170D01*
X166347219Y-132638134D01*
X166329976Y-132625346D01*
X166314070Y-132610930D01*
X166299654Y-132595024D01*
X166286866Y-132577781D01*
X166275830Y-132559368D01*
X166266651Y-132539962D01*
X166259419Y-132519750D01*
X166254203Y-132498926D01*
X166251053Y-132477691D01*
X166250000Y-132456250D01*
X166250000Y-131943750D01*
X166251053Y-131922309D01*
X166254203Y-131901074D01*
X166259419Y-131880250D01*
X166266651Y-131860038D01*
X166275830Y-131840632D01*
X166286866Y-131822219D01*
X166299654Y-131804976D01*
X166314070Y-131789070D01*
X166329976Y-131774654D01*
X166347219Y-131761866D01*
X166365632Y-131750830D01*
X166385038Y-131741651D01*
X166405250Y-131734419D01*
X166426074Y-131729203D01*
X166447309Y-131726053D01*
X166468750Y-131725000D01*
X166906250Y-131725000D01*
X166927691Y-131726053D01*
G37*
G36*
X169277691Y-135663553D02*
G01*
X169298926Y-135666703D01*
X169319750Y-135671919D01*
X169339962Y-135679151D01*
X169359368Y-135688330D01*
X169377781Y-135699366D01*
X169395024Y-135712154D01*
X169410930Y-135726570D01*
X169425346Y-135742476D01*
X169438134Y-135759719D01*
X169449170Y-135778132D01*
X169458349Y-135797538D01*
X169465581Y-135817750D01*
X169470797Y-135838574D01*
X169473947Y-135859809D01*
X169475000Y-135881250D01*
X169475000Y-136318750D01*
X169473947Y-136340191D01*
X169470797Y-136361426D01*
X169465581Y-136382250D01*
X169458349Y-136402462D01*
X169449170Y-136421868D01*
X169438134Y-136440281D01*
X169425346Y-136457524D01*
X169410930Y-136473430D01*
X169395024Y-136487846D01*
X169377781Y-136500634D01*
X169359368Y-136511670D01*
X169339962Y-136520849D01*
X169319750Y-136528081D01*
X169298926Y-136533297D01*
X169277691Y-136536447D01*
X169256250Y-136537500D01*
X168743750Y-136537500D01*
X168722309Y-136536447D01*
X168701074Y-136533297D01*
X168680250Y-136528081D01*
X168660038Y-136520849D01*
X168640632Y-136511670D01*
X168622219Y-136500634D01*
X168604976Y-136487846D01*
X168589070Y-136473430D01*
X168574654Y-136457524D01*
X168561866Y-136440281D01*
X168550830Y-136421868D01*
X168541651Y-136402462D01*
X168534419Y-136382250D01*
X168529203Y-136361426D01*
X168526053Y-136340191D01*
X168525000Y-136318750D01*
X168525000Y-135881250D01*
X168526053Y-135859809D01*
X168529203Y-135838574D01*
X168534419Y-135817750D01*
X168541651Y-135797538D01*
X168550830Y-135778132D01*
X168561866Y-135759719D01*
X168574654Y-135742476D01*
X168589070Y-135726570D01*
X168604976Y-135712154D01*
X168622219Y-135699366D01*
X168640632Y-135688330D01*
X168660038Y-135679151D01*
X168680250Y-135671919D01*
X168701074Y-135666703D01*
X168722309Y-135663553D01*
X168743750Y-135662500D01*
X169256250Y-135662500D01*
X169277691Y-135663553D01*
G37*
G36*
X169277691Y-134088553D02*
G01*
X169298926Y-134091703D01*
X169319750Y-134096919D01*
X169339962Y-134104151D01*
X169359368Y-134113330D01*
X169377781Y-134124366D01*
X169395024Y-134137154D01*
X169410930Y-134151570D01*
X169425346Y-134167476D01*
X169438134Y-134184719D01*
X169449170Y-134203132D01*
X169458349Y-134222538D01*
X169465581Y-134242750D01*
X169470797Y-134263574D01*
X169473947Y-134284809D01*
X169475000Y-134306250D01*
X169475000Y-134743750D01*
X169473947Y-134765191D01*
X169470797Y-134786426D01*
X169465581Y-134807250D01*
X169458349Y-134827462D01*
X169449170Y-134846868D01*
X169438134Y-134865281D01*
X169425346Y-134882524D01*
X169410930Y-134898430D01*
X169395024Y-134912846D01*
X169377781Y-134925634D01*
X169359368Y-134936670D01*
X169339962Y-134945849D01*
X169319750Y-134953081D01*
X169298926Y-134958297D01*
X169277691Y-134961447D01*
X169256250Y-134962500D01*
X168743750Y-134962500D01*
X168722309Y-134961447D01*
X168701074Y-134958297D01*
X168680250Y-134953081D01*
X168660038Y-134945849D01*
X168640632Y-134936670D01*
X168622219Y-134925634D01*
X168604976Y-134912846D01*
X168589070Y-134898430D01*
X168574654Y-134882524D01*
X168561866Y-134865281D01*
X168550830Y-134846868D01*
X168541651Y-134827462D01*
X168534419Y-134807250D01*
X168529203Y-134786426D01*
X168526053Y-134765191D01*
X168525000Y-134743750D01*
X168525000Y-134306250D01*
X168526053Y-134284809D01*
X168529203Y-134263574D01*
X168534419Y-134242750D01*
X168541651Y-134222538D01*
X168550830Y-134203132D01*
X168561866Y-134184719D01*
X168574654Y-134167476D01*
X168589070Y-134151570D01*
X168604976Y-134137154D01*
X168622219Y-134124366D01*
X168640632Y-134113330D01*
X168660038Y-134104151D01*
X168680250Y-134096919D01*
X168701074Y-134091703D01*
X168722309Y-134088553D01*
X168743750Y-134087500D01*
X169256250Y-134087500D01*
X169277691Y-134088553D01*
G37*
G36*
X165513091Y-153864753D02*
G01*
X165534326Y-153867903D01*
X165555150Y-153873119D01*
X165575362Y-153880351D01*
X165594768Y-153889530D01*
X165613181Y-153900566D01*
X165630424Y-153913354D01*
X165646330Y-153927770D01*
X165660746Y-153943676D01*
X165673534Y-153960919D01*
X165684570Y-153979332D01*
X165693749Y-153998738D01*
X165700981Y-154018950D01*
X165706197Y-154039774D01*
X165709347Y-154061009D01*
X165710400Y-154082450D01*
X165710400Y-154594950D01*
X165709347Y-154616391D01*
X165706197Y-154637626D01*
X165700981Y-154658450D01*
X165693749Y-154678662D01*
X165684570Y-154698068D01*
X165673534Y-154716481D01*
X165660746Y-154733724D01*
X165646330Y-154749630D01*
X165630424Y-154764046D01*
X165613181Y-154776834D01*
X165594768Y-154787870D01*
X165575362Y-154797049D01*
X165555150Y-154804281D01*
X165534326Y-154809497D01*
X165513091Y-154812647D01*
X165491650Y-154813700D01*
X165054150Y-154813700D01*
X165032709Y-154812647D01*
X165011474Y-154809497D01*
X164990650Y-154804281D01*
X164970438Y-154797049D01*
X164951032Y-154787870D01*
X164932619Y-154776834D01*
X164915376Y-154764046D01*
X164899470Y-154749630D01*
X164885054Y-154733724D01*
X164872266Y-154716481D01*
X164861230Y-154698068D01*
X164852051Y-154678662D01*
X164844819Y-154658450D01*
X164839603Y-154637626D01*
X164836453Y-154616391D01*
X164835400Y-154594950D01*
X164835400Y-154082450D01*
X164836453Y-154061009D01*
X164839603Y-154039774D01*
X164844819Y-154018950D01*
X164852051Y-153998738D01*
X164861230Y-153979332D01*
X164872266Y-153960919D01*
X164885054Y-153943676D01*
X164899470Y-153927770D01*
X164915376Y-153913354D01*
X164932619Y-153900566D01*
X164951032Y-153889530D01*
X164970438Y-153880351D01*
X164990650Y-153873119D01*
X165011474Y-153867903D01*
X165032709Y-153864753D01*
X165054150Y-153863700D01*
X165491650Y-153863700D01*
X165513091Y-153864753D01*
G37*
G36*
X167088091Y-153864753D02*
G01*
X167109326Y-153867903D01*
X167130150Y-153873119D01*
X167150362Y-153880351D01*
X167169768Y-153889530D01*
X167188181Y-153900566D01*
X167205424Y-153913354D01*
X167221330Y-153927770D01*
X167235746Y-153943676D01*
X167248534Y-153960919D01*
X167259570Y-153979332D01*
X167268749Y-153998738D01*
X167275981Y-154018950D01*
X167281197Y-154039774D01*
X167284347Y-154061009D01*
X167285400Y-154082450D01*
X167285400Y-154594950D01*
X167284347Y-154616391D01*
X167281197Y-154637626D01*
X167275981Y-154658450D01*
X167268749Y-154678662D01*
X167259570Y-154698068D01*
X167248534Y-154716481D01*
X167235746Y-154733724D01*
X167221330Y-154749630D01*
X167205424Y-154764046D01*
X167188181Y-154776834D01*
X167169768Y-154787870D01*
X167150362Y-154797049D01*
X167130150Y-154804281D01*
X167109326Y-154809497D01*
X167088091Y-154812647D01*
X167066650Y-154813700D01*
X166629150Y-154813700D01*
X166607709Y-154812647D01*
X166586474Y-154809497D01*
X166565650Y-154804281D01*
X166545438Y-154797049D01*
X166526032Y-154787870D01*
X166507619Y-154776834D01*
X166490376Y-154764046D01*
X166474470Y-154749630D01*
X166460054Y-154733724D01*
X166447266Y-154716481D01*
X166436230Y-154698068D01*
X166427051Y-154678662D01*
X166419819Y-154658450D01*
X166414603Y-154637626D01*
X166411453Y-154616391D01*
X166410400Y-154594950D01*
X166410400Y-154082450D01*
X166411453Y-154061009D01*
X166414603Y-154039774D01*
X166419819Y-154018950D01*
X166427051Y-153998738D01*
X166436230Y-153979332D01*
X166447266Y-153960919D01*
X166460054Y-153943676D01*
X166474470Y-153927770D01*
X166490376Y-153913354D01*
X166507619Y-153900566D01*
X166526032Y-153889530D01*
X166545438Y-153880351D01*
X166565650Y-153873119D01*
X166586474Y-153867903D01*
X166607709Y-153864753D01*
X166629150Y-153863700D01*
X167066650Y-153863700D01*
X167088091Y-153864753D01*
G37*
G36*
X188123704Y-133295804D02*
G01*
X188147973Y-133299404D01*
X188171771Y-133305365D01*
X188194871Y-133313630D01*
X188217049Y-133324120D01*
X188238093Y-133336733D01*
X188257798Y-133351347D01*
X188275977Y-133367823D01*
X188292453Y-133386002D01*
X188307067Y-133405707D01*
X188319680Y-133426751D01*
X188330170Y-133448929D01*
X188338435Y-133472029D01*
X188344396Y-133495827D01*
X188347996Y-133520096D01*
X188349200Y-133544600D01*
X188349200Y-134794600D01*
X188347996Y-134819104D01*
X188344396Y-134843373D01*
X188338435Y-134867171D01*
X188330170Y-134890271D01*
X188319680Y-134912449D01*
X188307067Y-134933493D01*
X188292453Y-134953198D01*
X188275977Y-134971377D01*
X188257798Y-134987853D01*
X188238093Y-135002467D01*
X188217049Y-135015080D01*
X188194871Y-135025570D01*
X188171771Y-135033835D01*
X188147973Y-135039796D01*
X188123704Y-135043396D01*
X188099200Y-135044600D01*
X187349200Y-135044600D01*
X187324696Y-135043396D01*
X187300427Y-135039796D01*
X187276629Y-135033835D01*
X187253529Y-135025570D01*
X187231351Y-135015080D01*
X187210307Y-135002467D01*
X187190602Y-134987853D01*
X187172423Y-134971377D01*
X187155947Y-134953198D01*
X187141333Y-134933493D01*
X187128720Y-134912449D01*
X187118230Y-134890271D01*
X187109965Y-134867171D01*
X187104004Y-134843373D01*
X187100404Y-134819104D01*
X187099200Y-134794600D01*
X187099200Y-133544600D01*
X187100404Y-133520096D01*
X187104004Y-133495827D01*
X187109965Y-133472029D01*
X187118230Y-133448929D01*
X187128720Y-133426751D01*
X187141333Y-133405707D01*
X187155947Y-133386002D01*
X187172423Y-133367823D01*
X187190602Y-133351347D01*
X187210307Y-133336733D01*
X187231351Y-133324120D01*
X187253529Y-133313630D01*
X187276629Y-133305365D01*
X187300427Y-133299404D01*
X187324696Y-133295804D01*
X187349200Y-133294600D01*
X188099200Y-133294600D01*
X188123704Y-133295804D01*
G37*
G36*
X190923704Y-133295804D02*
G01*
X190947973Y-133299404D01*
X190971771Y-133305365D01*
X190994871Y-133313630D01*
X191017049Y-133324120D01*
X191038093Y-133336733D01*
X191057798Y-133351347D01*
X191075977Y-133367823D01*
X191092453Y-133386002D01*
X191107067Y-133405707D01*
X191119680Y-133426751D01*
X191130170Y-133448929D01*
X191138435Y-133472029D01*
X191144396Y-133495827D01*
X191147996Y-133520096D01*
X191149200Y-133544600D01*
X191149200Y-134794600D01*
X191147996Y-134819104D01*
X191144396Y-134843373D01*
X191138435Y-134867171D01*
X191130170Y-134890271D01*
X191119680Y-134912449D01*
X191107067Y-134933493D01*
X191092453Y-134953198D01*
X191075977Y-134971377D01*
X191057798Y-134987853D01*
X191038093Y-135002467D01*
X191017049Y-135015080D01*
X190994871Y-135025570D01*
X190971771Y-135033835D01*
X190947973Y-135039796D01*
X190923704Y-135043396D01*
X190899200Y-135044600D01*
X190149200Y-135044600D01*
X190124696Y-135043396D01*
X190100427Y-135039796D01*
X190076629Y-135033835D01*
X190053529Y-135025570D01*
X190031351Y-135015080D01*
X190010307Y-135002467D01*
X189990602Y-134987853D01*
X189972423Y-134971377D01*
X189955947Y-134953198D01*
X189941333Y-134933493D01*
X189928720Y-134912449D01*
X189918230Y-134890271D01*
X189909965Y-134867171D01*
X189904004Y-134843373D01*
X189900404Y-134819104D01*
X189899200Y-134794600D01*
X189899200Y-133544600D01*
X189900404Y-133520096D01*
X189904004Y-133495827D01*
X189909965Y-133472029D01*
X189918230Y-133448929D01*
X189928720Y-133426751D01*
X189941333Y-133405707D01*
X189955947Y-133386002D01*
X189972423Y-133367823D01*
X189990602Y-133351347D01*
X190010307Y-133336733D01*
X190031351Y-133324120D01*
X190053529Y-133313630D01*
X190076629Y-133305365D01*
X190100427Y-133299404D01*
X190124696Y-133295804D01*
X190149200Y-133294600D01*
X190899200Y-133294600D01*
X190923704Y-133295804D01*
G37*
G36*
X188099504Y-120926204D02*
G01*
X188123773Y-120929804D01*
X188147571Y-120935765D01*
X188170671Y-120944030D01*
X188192849Y-120954520D01*
X188213893Y-120967133D01*
X188233598Y-120981747D01*
X188251777Y-120998223D01*
X188268253Y-121016402D01*
X188282867Y-121036107D01*
X188295480Y-121057151D01*
X188305970Y-121079329D01*
X188314235Y-121102429D01*
X188320196Y-121126227D01*
X188323796Y-121150496D01*
X188325000Y-121175000D01*
X188325000Y-122425000D01*
X188323796Y-122449504D01*
X188320196Y-122473773D01*
X188314235Y-122497571D01*
X188305970Y-122520671D01*
X188295480Y-122542849D01*
X188282867Y-122563893D01*
X188268253Y-122583598D01*
X188251777Y-122601777D01*
X188233598Y-122618253D01*
X188213893Y-122632867D01*
X188192849Y-122645480D01*
X188170671Y-122655970D01*
X188147571Y-122664235D01*
X188123773Y-122670196D01*
X188099504Y-122673796D01*
X188075000Y-122675000D01*
X187325000Y-122675000D01*
X187300496Y-122673796D01*
X187276227Y-122670196D01*
X187252429Y-122664235D01*
X187229329Y-122655970D01*
X187207151Y-122645480D01*
X187186107Y-122632867D01*
X187166402Y-122618253D01*
X187148223Y-122601777D01*
X187131747Y-122583598D01*
X187117133Y-122563893D01*
X187104520Y-122542849D01*
X187094030Y-122520671D01*
X187085765Y-122497571D01*
X187079804Y-122473773D01*
X187076204Y-122449504D01*
X187075000Y-122425000D01*
X187075000Y-121175000D01*
X187076204Y-121150496D01*
X187079804Y-121126227D01*
X187085765Y-121102429D01*
X187094030Y-121079329D01*
X187104520Y-121057151D01*
X187117133Y-121036107D01*
X187131747Y-121016402D01*
X187148223Y-120998223D01*
X187166402Y-120981747D01*
X187186107Y-120967133D01*
X187207151Y-120954520D01*
X187229329Y-120944030D01*
X187252429Y-120935765D01*
X187276227Y-120929804D01*
X187300496Y-120926204D01*
X187325000Y-120925000D01*
X188075000Y-120925000D01*
X188099504Y-120926204D01*
G37*
G36*
X190899504Y-120926204D02*
G01*
X190923773Y-120929804D01*
X190947571Y-120935765D01*
X190970671Y-120944030D01*
X190992849Y-120954520D01*
X191013893Y-120967133D01*
X191033598Y-120981747D01*
X191051777Y-120998223D01*
X191068253Y-121016402D01*
X191082867Y-121036107D01*
X191095480Y-121057151D01*
X191105970Y-121079329D01*
X191114235Y-121102429D01*
X191120196Y-121126227D01*
X191123796Y-121150496D01*
X191125000Y-121175000D01*
X191125000Y-122425000D01*
X191123796Y-122449504D01*
X191120196Y-122473773D01*
X191114235Y-122497571D01*
X191105970Y-122520671D01*
X191095480Y-122542849D01*
X191082867Y-122563893D01*
X191068253Y-122583598D01*
X191051777Y-122601777D01*
X191033598Y-122618253D01*
X191013893Y-122632867D01*
X190992849Y-122645480D01*
X190970671Y-122655970D01*
X190947571Y-122664235D01*
X190923773Y-122670196D01*
X190899504Y-122673796D01*
X190875000Y-122675000D01*
X190125000Y-122675000D01*
X190100496Y-122673796D01*
X190076227Y-122670196D01*
X190052429Y-122664235D01*
X190029329Y-122655970D01*
X190007151Y-122645480D01*
X189986107Y-122632867D01*
X189966402Y-122618253D01*
X189948223Y-122601777D01*
X189931747Y-122583598D01*
X189917133Y-122563893D01*
X189904520Y-122542849D01*
X189894030Y-122520671D01*
X189885765Y-122497571D01*
X189879804Y-122473773D01*
X189876204Y-122449504D01*
X189875000Y-122425000D01*
X189875000Y-121175000D01*
X189876204Y-121150496D01*
X189879804Y-121126227D01*
X189885765Y-121102429D01*
X189894030Y-121079329D01*
X189904520Y-121057151D01*
X189917133Y-121036107D01*
X189931747Y-121016402D01*
X189948223Y-120998223D01*
X189966402Y-120981747D01*
X189986107Y-120967133D01*
X190007151Y-120954520D01*
X190029329Y-120944030D01*
X190052429Y-120935765D01*
X190076227Y-120929804D01*
X190100496Y-120926204D01*
X190125000Y-120925000D01*
X190875000Y-120925000D01*
X190899504Y-120926204D01*
G37*
G36*
X188153304Y-158152204D02*
G01*
X188177573Y-158155804D01*
X188201371Y-158161765D01*
X188224471Y-158170030D01*
X188246649Y-158180520D01*
X188267693Y-158193133D01*
X188287398Y-158207747D01*
X188305577Y-158224223D01*
X188322053Y-158242402D01*
X188336667Y-158262107D01*
X188349280Y-158283151D01*
X188359770Y-158305329D01*
X188368035Y-158328429D01*
X188373996Y-158352227D01*
X188377596Y-158376496D01*
X188378800Y-158401000D01*
X188378800Y-159651000D01*
X188377596Y-159675504D01*
X188373996Y-159699773D01*
X188368035Y-159723571D01*
X188359770Y-159746671D01*
X188349280Y-159768849D01*
X188336667Y-159789893D01*
X188322053Y-159809598D01*
X188305577Y-159827777D01*
X188287398Y-159844253D01*
X188267693Y-159858867D01*
X188246649Y-159871480D01*
X188224471Y-159881970D01*
X188201371Y-159890235D01*
X188177573Y-159896196D01*
X188153304Y-159899796D01*
X188128800Y-159901000D01*
X187378800Y-159901000D01*
X187354296Y-159899796D01*
X187330027Y-159896196D01*
X187306229Y-159890235D01*
X187283129Y-159881970D01*
X187260951Y-159871480D01*
X187239907Y-159858867D01*
X187220202Y-159844253D01*
X187202023Y-159827777D01*
X187185547Y-159809598D01*
X187170933Y-159789893D01*
X187158320Y-159768849D01*
X187147830Y-159746671D01*
X187139565Y-159723571D01*
X187133604Y-159699773D01*
X187130004Y-159675504D01*
X187128800Y-159651000D01*
X187128800Y-158401000D01*
X187130004Y-158376496D01*
X187133604Y-158352227D01*
X187139565Y-158328429D01*
X187147830Y-158305329D01*
X187158320Y-158283151D01*
X187170933Y-158262107D01*
X187185547Y-158242402D01*
X187202023Y-158224223D01*
X187220202Y-158207747D01*
X187239907Y-158193133D01*
X187260951Y-158180520D01*
X187283129Y-158170030D01*
X187306229Y-158161765D01*
X187330027Y-158155804D01*
X187354296Y-158152204D01*
X187378800Y-158151000D01*
X188128800Y-158151000D01*
X188153304Y-158152204D01*
G37*
G36*
X190953304Y-158152204D02*
G01*
X190977573Y-158155804D01*
X191001371Y-158161765D01*
X191024471Y-158170030D01*
X191046649Y-158180520D01*
X191067693Y-158193133D01*
X191087398Y-158207747D01*
X191105577Y-158224223D01*
X191122053Y-158242402D01*
X191136667Y-158262107D01*
X191149280Y-158283151D01*
X191159770Y-158305329D01*
X191168035Y-158328429D01*
X191173996Y-158352227D01*
X191177596Y-158376496D01*
X191178800Y-158401000D01*
X191178800Y-159651000D01*
X191177596Y-159675504D01*
X191173996Y-159699773D01*
X191168035Y-159723571D01*
X191159770Y-159746671D01*
X191149280Y-159768849D01*
X191136667Y-159789893D01*
X191122053Y-159809598D01*
X191105577Y-159827777D01*
X191087398Y-159844253D01*
X191067693Y-159858867D01*
X191046649Y-159871480D01*
X191024471Y-159881970D01*
X191001371Y-159890235D01*
X190977573Y-159896196D01*
X190953304Y-159899796D01*
X190928800Y-159901000D01*
X190178800Y-159901000D01*
X190154296Y-159899796D01*
X190130027Y-159896196D01*
X190106229Y-159890235D01*
X190083129Y-159881970D01*
X190060951Y-159871480D01*
X190039907Y-159858867D01*
X190020202Y-159844253D01*
X190002023Y-159827777D01*
X189985547Y-159809598D01*
X189970933Y-159789893D01*
X189958320Y-159768849D01*
X189947830Y-159746671D01*
X189939565Y-159723571D01*
X189933604Y-159699773D01*
X189930004Y-159675504D01*
X189928800Y-159651000D01*
X189928800Y-158401000D01*
X189930004Y-158376496D01*
X189933604Y-158352227D01*
X189939565Y-158328429D01*
X189947830Y-158305329D01*
X189958320Y-158283151D01*
X189970933Y-158262107D01*
X189985547Y-158242402D01*
X190002023Y-158224223D01*
X190020202Y-158207747D01*
X190039907Y-158193133D01*
X190060951Y-158180520D01*
X190083129Y-158170030D01*
X190106229Y-158161765D01*
X190130027Y-158155804D01*
X190154296Y-158152204D01*
X190178800Y-158151000D01*
X190928800Y-158151000D01*
X190953304Y-158152204D01*
G37*
G36*
X196023705Y-132370804D02*
G01*
X196047973Y-132374404D01*
X196071772Y-132380365D01*
X196094871Y-132388630D01*
X196117050Y-132399120D01*
X196138093Y-132411732D01*
X196157799Y-132426347D01*
X196175977Y-132442823D01*
X196192453Y-132461001D01*
X196207068Y-132480707D01*
X196219680Y-132501750D01*
X196230170Y-132523929D01*
X196238435Y-132547028D01*
X196244396Y-132570827D01*
X196247996Y-132595095D01*
X196249200Y-132619599D01*
X196249200Y-135519601D01*
X196247996Y-135544105D01*
X196244396Y-135568373D01*
X196238435Y-135592172D01*
X196230170Y-135615271D01*
X196219680Y-135637450D01*
X196207068Y-135658493D01*
X196192453Y-135678199D01*
X196175977Y-135696377D01*
X196157799Y-135712853D01*
X196138093Y-135727468D01*
X196117050Y-135740080D01*
X196094871Y-135750570D01*
X196071772Y-135758835D01*
X196047973Y-135764796D01*
X196023705Y-135768396D01*
X195999201Y-135769600D01*
X195374199Y-135769600D01*
X195349695Y-135768396D01*
X195325427Y-135764796D01*
X195301628Y-135758835D01*
X195278529Y-135750570D01*
X195256350Y-135740080D01*
X195235307Y-135727468D01*
X195215601Y-135712853D01*
X195197423Y-135696377D01*
X195180947Y-135678199D01*
X195166332Y-135658493D01*
X195153720Y-135637450D01*
X195143230Y-135615271D01*
X195134965Y-135592172D01*
X195129004Y-135568373D01*
X195125404Y-135544105D01*
X195124200Y-135519601D01*
X195124200Y-132619599D01*
X195125404Y-132595095D01*
X195129004Y-132570827D01*
X195134965Y-132547028D01*
X195143230Y-132523929D01*
X195153720Y-132501750D01*
X195166332Y-132480707D01*
X195180947Y-132461001D01*
X195197423Y-132442823D01*
X195215601Y-132426347D01*
X195235307Y-132411732D01*
X195256350Y-132399120D01*
X195278529Y-132388630D01*
X195301628Y-132380365D01*
X195325427Y-132374404D01*
X195349695Y-132370804D01*
X195374199Y-132369600D01*
X195999201Y-132369600D01*
X196023705Y-132370804D01*
G37*
G36*
X200298705Y-132370804D02*
G01*
X200322973Y-132374404D01*
X200346772Y-132380365D01*
X200369871Y-132388630D01*
X200392050Y-132399120D01*
X200413093Y-132411732D01*
X200432799Y-132426347D01*
X200450977Y-132442823D01*
X200467453Y-132461001D01*
X200482068Y-132480707D01*
X200494680Y-132501750D01*
X200505170Y-132523929D01*
X200513435Y-132547028D01*
X200519396Y-132570827D01*
X200522996Y-132595095D01*
X200524200Y-132619599D01*
X200524200Y-135519601D01*
X200522996Y-135544105D01*
X200519396Y-135568373D01*
X200513435Y-135592172D01*
X200505170Y-135615271D01*
X200494680Y-135637450D01*
X200482068Y-135658493D01*
X200467453Y-135678199D01*
X200450977Y-135696377D01*
X200432799Y-135712853D01*
X200413093Y-135727468D01*
X200392050Y-135740080D01*
X200369871Y-135750570D01*
X200346772Y-135758835D01*
X200322973Y-135764796D01*
X200298705Y-135768396D01*
X200274201Y-135769600D01*
X199649199Y-135769600D01*
X199624695Y-135768396D01*
X199600427Y-135764796D01*
X199576628Y-135758835D01*
X199553529Y-135750570D01*
X199531350Y-135740080D01*
X199510307Y-135727468D01*
X199490601Y-135712853D01*
X199472423Y-135696377D01*
X199455947Y-135678199D01*
X199441332Y-135658493D01*
X199428720Y-135637450D01*
X199418230Y-135615271D01*
X199409965Y-135592172D01*
X199404004Y-135568373D01*
X199400404Y-135544105D01*
X199399200Y-135519601D01*
X199399200Y-132619599D01*
X199400404Y-132595095D01*
X199404004Y-132570827D01*
X199409965Y-132547028D01*
X199418230Y-132523929D01*
X199428720Y-132501750D01*
X199441332Y-132480707D01*
X199455947Y-132461001D01*
X199472423Y-132442823D01*
X199490601Y-132426347D01*
X199510307Y-132411732D01*
X199531350Y-132399120D01*
X199553529Y-132388630D01*
X199576628Y-132380365D01*
X199600427Y-132374404D01*
X199624695Y-132370804D01*
X199649199Y-132369600D01*
X200274201Y-132369600D01*
X200298705Y-132370804D01*
G37*
M02*
