%TF.GenerationSoftware,KiCad,Pcbnew,5.1.5-52549c5~84~ubuntu18.04.1*%
%TF.CreationDate,2020-01-16T23:25:26+01:00*%
%TF.ProjectId,hmcdaughter_dac,686d6364-6175-4676-9874-65725f646163,rev?*%
%TF.SameCoordinates,PX924f140PY6e75580*%
%TF.FileFunction,OtherDrawing,Comment*%
%FSLAX46Y46*%
G04 Gerber Fmt 4.6, Leading zero omitted, Abs format (unit mm)*
G04 Created by KiCad (PCBNEW 5.1.5-52549c5~84~ubuntu18.04.1) date 2020-01-16 23:25:26*
%MOMM*%
%LPD*%
G04 APERTURE LIST*
%ADD10C,0.150000*%
%ADD11C,0.254000*%
G04 APERTURE END LIST*
D10*
X4457700Y6540500D02*
G75*
G03X4457700Y6540500I-1714500J0D01*
G01*
X-132291200Y121983500D02*
G75*
G03X-132291200Y121983500I-500000J0D01*
G01*
X-136396000Y118681500D02*
G75*
G03X-136396000Y118681500I-500000J0D01*
G01*
X-141486000Y118681500D02*
G75*
G03X-141486000Y118681500I-500000J0D01*
G01*
X-146566000Y118681500D02*
G75*
G03X-146566000Y118681500I-500000J0D01*
G01*
X-150680800Y121983500D02*
G75*
G03X-150680800Y121983500I-500000J0D01*
G01*
X22847300Y6540500D02*
G75*
G03X22847300Y6540500I-1714500J0D01*
G01*
X8572500Y3238500D02*
G75*
G03X8572500Y3238500I-1714500J0D01*
G01*
X13652500Y3238500D02*
G75*
G03X13652500Y3238500I-1714500J0D01*
G01*
X18732500Y3238500D02*
G75*
G03X18732500Y3238500I-1714500J0D01*
G01*
X-147066000Y116713000D02*
X-136906000Y116713000D01*
X-135191500Y118681500D02*
G75*
G03X-135191500Y118681500I-1714500J0D01*
G01*
X-140271500Y118681500D02*
G75*
G03X-140271500Y118681500I-1714500J0D01*
G01*
X-145351500Y118681500D02*
G75*
G03X-145351500Y118681500I-1714500J0D01*
G01*
X-131076700Y121983500D02*
G75*
G03X-131076700Y121983500I-1714500J0D01*
G01*
X-149466300Y121983500D02*
G75*
G03X-149466300Y121983500I-1714500J0D01*
G01*
X-132842000Y147320000D02*
G75*
G03X-132969000Y147447000I-127000J0D01*
G01*
X-151003000Y147447000D02*
G75*
G03X-151130000Y147320000I0J-127000D01*
G01*
X-151130000Y138430000D02*
X-151130000Y147320000D01*
X-132842000Y138430000D02*
X-132842000Y147320000D01*
X-132842000Y138430000D02*
G75*
G03X-130556000Y136144000I2286000J0D01*
G01*
X-153416000Y136144000D02*
G75*
G03X-151130000Y138430000I0J2286000D01*
G01*
X-151003000Y147447000D02*
X-132969000Y147447000D01*
X-153416000Y115824000D02*
X-153416000Y136144000D01*
X-130556000Y115824000D02*
X-130556000Y136144000D01*
X-153416000Y115824000D02*
X-130556000Y115824000D01*
X4961619Y-21296380D02*
X5056857Y-21296380D01*
X5152095Y-21344000D01*
X5199714Y-21391619D01*
X5247333Y-21486857D01*
X5294952Y-21677333D01*
X5294952Y-21915428D01*
X5247333Y-22105904D01*
X5199714Y-22201142D01*
X5152095Y-22248761D01*
X5056857Y-22296380D01*
X4961619Y-22296380D01*
X4866380Y-22248761D01*
X4818761Y-22201142D01*
X4771142Y-22105904D01*
X4723523Y-21915428D01*
X4723523Y-21677333D01*
X4771142Y-21486857D01*
X4818761Y-21391619D01*
X4866380Y-21344000D01*
X4961619Y-21296380D01*
X5723523Y-22201142D02*
X5771142Y-22248761D01*
X5723523Y-22296380D01*
X5675904Y-22248761D01*
X5723523Y-22201142D01*
X5723523Y-22296380D01*
X6390190Y-21296380D02*
X6485428Y-21296380D01*
X6580666Y-21344000D01*
X6628285Y-21391619D01*
X6675904Y-21486857D01*
X6723523Y-21677333D01*
X6723523Y-21915428D01*
X6675904Y-22105904D01*
X6628285Y-22201142D01*
X6580666Y-22248761D01*
X6485428Y-22296380D01*
X6390190Y-22296380D01*
X6294952Y-22248761D01*
X6247333Y-22201142D01*
X6199714Y-22105904D01*
X6152095Y-21915428D01*
X6152095Y-21677333D01*
X6199714Y-21486857D01*
X6247333Y-21391619D01*
X6294952Y-21344000D01*
X6390190Y-21296380D01*
X7628285Y-21296380D02*
X7152095Y-21296380D01*
X7104476Y-21772571D01*
X7152095Y-21724952D01*
X7247333Y-21677333D01*
X7485428Y-21677333D01*
X7580666Y-21724952D01*
X7628285Y-21772571D01*
X7675904Y-21867809D01*
X7675904Y-22105904D01*
X7628285Y-22201142D01*
X7580666Y-22248761D01*
X7485428Y-22296380D01*
X7247333Y-22296380D01*
X7152095Y-22248761D01*
X7104476Y-22201142D01*
X8152095Y-22296380D02*
X8342571Y-22296380D01*
X8437809Y-22248761D01*
X8485428Y-22201142D01*
X8580666Y-22058285D01*
X8628285Y-21867809D01*
X8628285Y-21486857D01*
X8580666Y-21391619D01*
X8533047Y-21344000D01*
X8437809Y-21296380D01*
X8247333Y-21296380D01*
X8152095Y-21344000D01*
X8104476Y-21391619D01*
X8056857Y-21486857D01*
X8056857Y-21724952D01*
X8104476Y-21820190D01*
X8152095Y-21867809D01*
X8247333Y-21915428D01*
X8437809Y-21915428D01*
X8533047Y-21867809D01*
X8580666Y-21820190D01*
X8628285Y-21724952D01*
X9056857Y-22296380D02*
X9056857Y-21629714D01*
X9056857Y-21296380D02*
X9009238Y-21344000D01*
X9056857Y-21391619D01*
X9104476Y-21344000D01*
X9056857Y-21296380D01*
X9056857Y-21391619D01*
X9533047Y-21629714D02*
X9533047Y-22296380D01*
X9533047Y-21724952D02*
X9580666Y-21677333D01*
X9675904Y-21629714D01*
X9818761Y-21629714D01*
X9914000Y-21677333D01*
X9961619Y-21772571D01*
X9961619Y-22296380D01*
X11152095Y-21248761D02*
X10294952Y-22534476D01*
X12009238Y-22296380D02*
X11437809Y-22296380D01*
X11723523Y-22296380D02*
X11723523Y-21296380D01*
X11628285Y-21439238D01*
X11533047Y-21534476D01*
X11437809Y-21582095D01*
X12437809Y-22201142D02*
X12485428Y-22248761D01*
X12437809Y-22296380D01*
X12390190Y-22248761D01*
X12437809Y-22201142D01*
X12437809Y-22296380D01*
X13390190Y-21296380D02*
X12914000Y-21296380D01*
X12866380Y-21772571D01*
X12914000Y-21724952D01*
X13009238Y-21677333D01*
X13247333Y-21677333D01*
X13342571Y-21724952D01*
X13390190Y-21772571D01*
X13437809Y-21867809D01*
X13437809Y-22105904D01*
X13390190Y-22201142D01*
X13342571Y-22248761D01*
X13247333Y-22296380D01*
X13009238Y-22296380D01*
X12914000Y-22248761D01*
X12866380Y-22201142D01*
X13866380Y-22296380D02*
X13866380Y-21629714D01*
X13866380Y-21724952D02*
X13914000Y-21677333D01*
X14009238Y-21629714D01*
X14152095Y-21629714D01*
X14247333Y-21677333D01*
X14294952Y-21772571D01*
X14294952Y-22296380D01*
X14294952Y-21772571D02*
X14342571Y-21677333D01*
X14437809Y-21629714D01*
X14580666Y-21629714D01*
X14675904Y-21677333D01*
X14723523Y-21772571D01*
X14723523Y-22296380D01*
X15199714Y-22296380D02*
X15199714Y-21629714D01*
X15199714Y-21724952D02*
X15247333Y-21677333D01*
X15342571Y-21629714D01*
X15485428Y-21629714D01*
X15580666Y-21677333D01*
X15628285Y-21772571D01*
X15628285Y-22296380D01*
X15628285Y-21772571D02*
X15675904Y-21677333D01*
X15771142Y-21629714D01*
X15914000Y-21629714D01*
X16009238Y-21677333D01*
X16056857Y-21772571D01*
X16056857Y-22296380D01*
X4485428Y-12406380D02*
X4580666Y-12406380D01*
X4675904Y-12454000D01*
X4723523Y-12501619D01*
X4771142Y-12596857D01*
X4818761Y-12787333D01*
X4818761Y-13025428D01*
X4771142Y-13215904D01*
X4723523Y-13311142D01*
X4675904Y-13358761D01*
X4580666Y-13406380D01*
X4485428Y-13406380D01*
X4390190Y-13358761D01*
X4342571Y-13311142D01*
X4294952Y-13215904D01*
X4247333Y-13025428D01*
X4247333Y-12787333D01*
X4294952Y-12596857D01*
X4342571Y-12501619D01*
X4390190Y-12454000D01*
X4485428Y-12406380D01*
X5247333Y-13311142D02*
X5294952Y-13358761D01*
X5247333Y-13406380D01*
X5199714Y-13358761D01*
X5247333Y-13311142D01*
X5247333Y-13406380D01*
X6247333Y-13406380D02*
X5675904Y-13406380D01*
X5961619Y-13406380D02*
X5961619Y-12406380D01*
X5866380Y-12549238D01*
X5771142Y-12644476D01*
X5675904Y-12692095D01*
X7199714Y-13406380D02*
X6628285Y-13406380D01*
X6914000Y-13406380D02*
X6914000Y-12406380D01*
X6818761Y-12549238D01*
X6723523Y-12644476D01*
X6628285Y-12692095D01*
X7628285Y-13406380D02*
X7628285Y-12739714D01*
X7628285Y-12406380D02*
X7580666Y-12454000D01*
X7628285Y-12501619D01*
X7675904Y-12454000D01*
X7628285Y-12406380D01*
X7628285Y-12501619D01*
X8104476Y-12739714D02*
X8104476Y-13406380D01*
X8104476Y-12834952D02*
X8152095Y-12787333D01*
X8247333Y-12739714D01*
X8390190Y-12739714D01*
X8485428Y-12787333D01*
X8533047Y-12882571D01*
X8533047Y-13406380D01*
X9723523Y-12358761D02*
X8866380Y-13644476D01*
X10009238Y-12501619D02*
X10056857Y-12454000D01*
X10152095Y-12406380D01*
X10390190Y-12406380D01*
X10485428Y-12454000D01*
X10533047Y-12501619D01*
X10580666Y-12596857D01*
X10580666Y-12692095D01*
X10533047Y-12834952D01*
X9961619Y-13406380D01*
X10580666Y-13406380D01*
X11009238Y-13311142D02*
X11056857Y-13358761D01*
X11009238Y-13406380D01*
X10961619Y-13358761D01*
X11009238Y-13311142D01*
X11009238Y-13406380D01*
X11390190Y-12406380D02*
X12056857Y-12406380D01*
X11628285Y-13406380D01*
X12580666Y-12834952D02*
X12485428Y-12787333D01*
X12437809Y-12739714D01*
X12390190Y-12644476D01*
X12390190Y-12596857D01*
X12437809Y-12501619D01*
X12485428Y-12454000D01*
X12580666Y-12406380D01*
X12771142Y-12406380D01*
X12866380Y-12454000D01*
X12914000Y-12501619D01*
X12961619Y-12596857D01*
X12961619Y-12644476D01*
X12914000Y-12739714D01*
X12866380Y-12787333D01*
X12771142Y-12834952D01*
X12580666Y-12834952D01*
X12485428Y-12882571D01*
X12437809Y-12930190D01*
X12390190Y-13025428D01*
X12390190Y-13215904D01*
X12437809Y-13311142D01*
X12485428Y-13358761D01*
X12580666Y-13406380D01*
X12771142Y-13406380D01*
X12866380Y-13358761D01*
X12914000Y-13311142D01*
X12961619Y-13215904D01*
X12961619Y-13025428D01*
X12914000Y-12930190D01*
X12866380Y-12882571D01*
X12771142Y-12834952D01*
X13866380Y-12406380D02*
X13390190Y-12406380D01*
X13342571Y-12882571D01*
X13390190Y-12834952D01*
X13485428Y-12787333D01*
X13723523Y-12787333D01*
X13818761Y-12834952D01*
X13866380Y-12882571D01*
X13914000Y-12977809D01*
X13914000Y-13215904D01*
X13866380Y-13311142D01*
X13818761Y-13358761D01*
X13723523Y-13406380D01*
X13485428Y-13406380D01*
X13390190Y-13358761D01*
X13342571Y-13311142D01*
X14342571Y-13406380D02*
X14342571Y-12739714D01*
X14342571Y-12834952D02*
X14390190Y-12787333D01*
X14485428Y-12739714D01*
X14628285Y-12739714D01*
X14723523Y-12787333D01*
X14771142Y-12882571D01*
X14771142Y-13406380D01*
X14771142Y-12882571D02*
X14818761Y-12787333D01*
X14914000Y-12739714D01*
X15056857Y-12739714D01*
X15152095Y-12787333D01*
X15199714Y-12882571D01*
X15199714Y-13406380D01*
X15675904Y-13406380D02*
X15675904Y-12739714D01*
X15675904Y-12834952D02*
X15723523Y-12787333D01*
X15818761Y-12739714D01*
X15961619Y-12739714D01*
X16056857Y-12787333D01*
X16104476Y-12882571D01*
X16104476Y-13406380D01*
X16104476Y-12882571D02*
X16152095Y-12787333D01*
X16247333Y-12739714D01*
X16390190Y-12739714D01*
X16485428Y-12787333D01*
X16533047Y-12882571D01*
X16533047Y-13406380D01*
X3501238Y-15708380D02*
X3596476Y-15708380D01*
X3691714Y-15756000D01*
X3739333Y-15803619D01*
X3786952Y-15898857D01*
X3834571Y-16089333D01*
X3834571Y-16327428D01*
X3786952Y-16517904D01*
X3739333Y-16613142D01*
X3691714Y-16660761D01*
X3596476Y-16708380D01*
X3501238Y-16708380D01*
X3406000Y-16660761D01*
X3358380Y-16613142D01*
X3310761Y-16517904D01*
X3263142Y-16327428D01*
X3263142Y-16089333D01*
X3310761Y-15898857D01*
X3358380Y-15803619D01*
X3406000Y-15756000D01*
X3501238Y-15708380D01*
X4263142Y-16613142D02*
X4310761Y-16660761D01*
X4263142Y-16708380D01*
X4215523Y-16660761D01*
X4263142Y-16613142D01*
X4263142Y-16708380D01*
X4929809Y-15708380D02*
X5025047Y-15708380D01*
X5120285Y-15756000D01*
X5167904Y-15803619D01*
X5215523Y-15898857D01*
X5263142Y-16089333D01*
X5263142Y-16327428D01*
X5215523Y-16517904D01*
X5167904Y-16613142D01*
X5120285Y-16660761D01*
X5025047Y-16708380D01*
X4929809Y-16708380D01*
X4834571Y-16660761D01*
X4786952Y-16613142D01*
X4739333Y-16517904D01*
X4691714Y-16327428D01*
X4691714Y-16089333D01*
X4739333Y-15898857D01*
X4786952Y-15803619D01*
X4834571Y-15756000D01*
X4929809Y-15708380D01*
X5596476Y-15708380D02*
X6215523Y-15708380D01*
X5882190Y-16089333D01*
X6025047Y-16089333D01*
X6120285Y-16136952D01*
X6167904Y-16184571D01*
X6215523Y-16279809D01*
X6215523Y-16517904D01*
X6167904Y-16613142D01*
X6120285Y-16660761D01*
X6025047Y-16708380D01*
X5739333Y-16708380D01*
X5644095Y-16660761D01*
X5596476Y-16613142D01*
X6548857Y-15708380D02*
X7167904Y-15708380D01*
X6834571Y-16089333D01*
X6977428Y-16089333D01*
X7072666Y-16136952D01*
X7120285Y-16184571D01*
X7167904Y-16279809D01*
X7167904Y-16517904D01*
X7120285Y-16613142D01*
X7072666Y-16660761D01*
X6977428Y-16708380D01*
X6691714Y-16708380D01*
X6596476Y-16660761D01*
X6548857Y-16613142D01*
X7596476Y-16708380D02*
X7596476Y-16041714D01*
X7596476Y-15708380D02*
X7548857Y-15756000D01*
X7596476Y-15803619D01*
X7644095Y-15756000D01*
X7596476Y-15708380D01*
X7596476Y-15803619D01*
X8072666Y-16041714D02*
X8072666Y-16708380D01*
X8072666Y-16136952D02*
X8120285Y-16089333D01*
X8215523Y-16041714D01*
X8358380Y-16041714D01*
X8453619Y-16089333D01*
X8501238Y-16184571D01*
X8501238Y-16708380D01*
X9691714Y-15660761D02*
X8834571Y-16946476D01*
X10215523Y-15708380D02*
X10310761Y-15708380D01*
X10406000Y-15756000D01*
X10453619Y-15803619D01*
X10501238Y-15898857D01*
X10548857Y-16089333D01*
X10548857Y-16327428D01*
X10501238Y-16517904D01*
X10453619Y-16613142D01*
X10406000Y-16660761D01*
X10310761Y-16708380D01*
X10215523Y-16708380D01*
X10120285Y-16660761D01*
X10072666Y-16613142D01*
X10025047Y-16517904D01*
X9977428Y-16327428D01*
X9977428Y-16089333D01*
X10025047Y-15898857D01*
X10072666Y-15803619D01*
X10120285Y-15756000D01*
X10215523Y-15708380D01*
X10977428Y-16613142D02*
X11025047Y-16660761D01*
X10977428Y-16708380D01*
X10929809Y-16660761D01*
X10977428Y-16613142D01*
X10977428Y-16708380D01*
X11596476Y-16136952D02*
X11501238Y-16089333D01*
X11453619Y-16041714D01*
X11406000Y-15946476D01*
X11406000Y-15898857D01*
X11453619Y-15803619D01*
X11501238Y-15756000D01*
X11596476Y-15708380D01*
X11786952Y-15708380D01*
X11882190Y-15756000D01*
X11929809Y-15803619D01*
X11977428Y-15898857D01*
X11977428Y-15946476D01*
X11929809Y-16041714D01*
X11882190Y-16089333D01*
X11786952Y-16136952D01*
X11596476Y-16136952D01*
X11501238Y-16184571D01*
X11453619Y-16232190D01*
X11406000Y-16327428D01*
X11406000Y-16517904D01*
X11453619Y-16613142D01*
X11501238Y-16660761D01*
X11596476Y-16708380D01*
X11786952Y-16708380D01*
X11882190Y-16660761D01*
X11929809Y-16613142D01*
X11977428Y-16517904D01*
X11977428Y-16327428D01*
X11929809Y-16232190D01*
X11882190Y-16184571D01*
X11786952Y-16136952D01*
X12358380Y-15803619D02*
X12406000Y-15756000D01*
X12501238Y-15708380D01*
X12739333Y-15708380D01*
X12834571Y-15756000D01*
X12882190Y-15803619D01*
X12929809Y-15898857D01*
X12929809Y-15994095D01*
X12882190Y-16136952D01*
X12310761Y-16708380D01*
X12929809Y-16708380D01*
X13501238Y-16136952D02*
X13406000Y-16089333D01*
X13358380Y-16041714D01*
X13310761Y-15946476D01*
X13310761Y-15898857D01*
X13358380Y-15803619D01*
X13406000Y-15756000D01*
X13501238Y-15708380D01*
X13691714Y-15708380D01*
X13786952Y-15756000D01*
X13834571Y-15803619D01*
X13882190Y-15898857D01*
X13882190Y-15946476D01*
X13834571Y-16041714D01*
X13786952Y-16089333D01*
X13691714Y-16136952D01*
X13501238Y-16136952D01*
X13406000Y-16184571D01*
X13358380Y-16232190D01*
X13310761Y-16327428D01*
X13310761Y-16517904D01*
X13358380Y-16613142D01*
X13406000Y-16660761D01*
X13501238Y-16708380D01*
X13691714Y-16708380D01*
X13786952Y-16660761D01*
X13834571Y-16613142D01*
X13882190Y-16517904D01*
X13882190Y-16327428D01*
X13834571Y-16232190D01*
X13786952Y-16184571D01*
X13691714Y-16136952D01*
X14310761Y-16708380D02*
X14310761Y-16041714D01*
X14310761Y-16136952D02*
X14358380Y-16089333D01*
X14453619Y-16041714D01*
X14596476Y-16041714D01*
X14691714Y-16089333D01*
X14739333Y-16184571D01*
X14739333Y-16708380D01*
X14739333Y-16184571D02*
X14786952Y-16089333D01*
X14882190Y-16041714D01*
X15025047Y-16041714D01*
X15120285Y-16089333D01*
X15167904Y-16184571D01*
X15167904Y-16708380D01*
X15644095Y-16708380D02*
X15644095Y-16041714D01*
X15644095Y-16136952D02*
X15691714Y-16089333D01*
X15786952Y-16041714D01*
X15929809Y-16041714D01*
X16025047Y-16089333D01*
X16072666Y-16184571D01*
X16072666Y-16708380D01*
X16072666Y-16184571D02*
X16120285Y-16089333D01*
X16215523Y-16041714D01*
X16358380Y-16041714D01*
X16453619Y-16089333D01*
X16501238Y-16184571D01*
X16501238Y-16708380D01*
X2739238Y-9358380D02*
X2834476Y-9358380D01*
X2929714Y-9406000D01*
X2977333Y-9453619D01*
X3024952Y-9548857D01*
X3072571Y-9739333D01*
X3072571Y-9977428D01*
X3024952Y-10167904D01*
X2977333Y-10263142D01*
X2929714Y-10310761D01*
X2834476Y-10358380D01*
X2739238Y-10358380D01*
X2644000Y-10310761D01*
X2596380Y-10263142D01*
X2548761Y-10167904D01*
X2501142Y-9977428D01*
X2501142Y-9739333D01*
X2548761Y-9548857D01*
X2596380Y-9453619D01*
X2644000Y-9406000D01*
X2739238Y-9358380D01*
X3501142Y-10263142D02*
X3548761Y-10310761D01*
X3501142Y-10358380D01*
X3453523Y-10310761D01*
X3501142Y-10263142D01*
X3501142Y-10358380D01*
X4167809Y-9358380D02*
X4263047Y-9358380D01*
X4358285Y-9406000D01*
X4405904Y-9453619D01*
X4453523Y-9548857D01*
X4501142Y-9739333D01*
X4501142Y-9977428D01*
X4453523Y-10167904D01*
X4405904Y-10263142D01*
X4358285Y-10310761D01*
X4263047Y-10358380D01*
X4167809Y-10358380D01*
X4072571Y-10310761D01*
X4024952Y-10263142D01*
X3977333Y-10167904D01*
X3929714Y-9977428D01*
X3929714Y-9739333D01*
X3977333Y-9548857D01*
X4024952Y-9453619D01*
X4072571Y-9406000D01*
X4167809Y-9358380D01*
X5453523Y-10358380D02*
X4882095Y-10358380D01*
X5167809Y-10358380D02*
X5167809Y-9358380D01*
X5072571Y-9501238D01*
X4977333Y-9596476D01*
X4882095Y-9644095D01*
X5834476Y-9453619D02*
X5882095Y-9406000D01*
X5977333Y-9358380D01*
X6215428Y-9358380D01*
X6310666Y-9406000D01*
X6358285Y-9453619D01*
X6405904Y-9548857D01*
X6405904Y-9644095D01*
X6358285Y-9786952D01*
X5786857Y-10358380D01*
X6405904Y-10358380D01*
X6834476Y-10358380D02*
X6834476Y-9691714D01*
X6834476Y-9358380D02*
X6786857Y-9406000D01*
X6834476Y-9453619D01*
X6882095Y-9406000D01*
X6834476Y-9358380D01*
X6834476Y-9453619D01*
X7310666Y-9691714D02*
X7310666Y-10358380D01*
X7310666Y-9786952D02*
X7358285Y-9739333D01*
X7453523Y-9691714D01*
X7596380Y-9691714D01*
X7691619Y-9739333D01*
X7739238Y-9834571D01*
X7739238Y-10358380D01*
X8929714Y-9310761D02*
X8072571Y-10596476D01*
X9453523Y-9358380D02*
X9548761Y-9358380D01*
X9644000Y-9406000D01*
X9691619Y-9453619D01*
X9739238Y-9548857D01*
X9786857Y-9739333D01*
X9786857Y-9977428D01*
X9739238Y-10167904D01*
X9691619Y-10263142D01*
X9644000Y-10310761D01*
X9548761Y-10358380D01*
X9453523Y-10358380D01*
X9358285Y-10310761D01*
X9310666Y-10263142D01*
X9263047Y-10167904D01*
X9215428Y-9977428D01*
X9215428Y-9739333D01*
X9263047Y-9548857D01*
X9310666Y-9453619D01*
X9358285Y-9406000D01*
X9453523Y-9358380D01*
X10215428Y-10263142D02*
X10263047Y-10310761D01*
X10215428Y-10358380D01*
X10167809Y-10310761D01*
X10215428Y-10263142D01*
X10215428Y-10358380D01*
X10596380Y-9358380D02*
X11215428Y-9358380D01*
X10882095Y-9739333D01*
X11024952Y-9739333D01*
X11120190Y-9786952D01*
X11167809Y-9834571D01*
X11215428Y-9929809D01*
X11215428Y-10167904D01*
X11167809Y-10263142D01*
X11120190Y-10310761D01*
X11024952Y-10358380D01*
X10739238Y-10358380D01*
X10644000Y-10310761D01*
X10596380Y-10263142D01*
X11834476Y-9358380D02*
X11929714Y-9358380D01*
X12024952Y-9406000D01*
X12072571Y-9453619D01*
X12120190Y-9548857D01*
X12167809Y-9739333D01*
X12167809Y-9977428D01*
X12120190Y-10167904D01*
X12072571Y-10263142D01*
X12024952Y-10310761D01*
X11929714Y-10358380D01*
X11834476Y-10358380D01*
X11739238Y-10310761D01*
X11691619Y-10263142D01*
X11644000Y-10167904D01*
X11596380Y-9977428D01*
X11596380Y-9739333D01*
X11644000Y-9548857D01*
X11691619Y-9453619D01*
X11739238Y-9406000D01*
X11834476Y-9358380D01*
X13072571Y-9358380D02*
X12596380Y-9358380D01*
X12548761Y-9834571D01*
X12596380Y-9786952D01*
X12691619Y-9739333D01*
X12929714Y-9739333D01*
X13024952Y-9786952D01*
X13072571Y-9834571D01*
X13120190Y-9929809D01*
X13120190Y-10167904D01*
X13072571Y-10263142D01*
X13024952Y-10310761D01*
X12929714Y-10358380D01*
X12691619Y-10358380D01*
X12596380Y-10310761D01*
X12548761Y-10263142D01*
X13548761Y-10358380D02*
X13548761Y-9691714D01*
X13548761Y-9786952D02*
X13596380Y-9739333D01*
X13691619Y-9691714D01*
X13834476Y-9691714D01*
X13929714Y-9739333D01*
X13977333Y-9834571D01*
X13977333Y-10358380D01*
X13977333Y-9834571D02*
X14024952Y-9739333D01*
X14120190Y-9691714D01*
X14263047Y-9691714D01*
X14358285Y-9739333D01*
X14405904Y-9834571D01*
X14405904Y-10358380D01*
X14882095Y-10358380D02*
X14882095Y-9691714D01*
X14882095Y-9786952D02*
X14929714Y-9739333D01*
X15024952Y-9691714D01*
X15167809Y-9691714D01*
X15263047Y-9739333D01*
X15310666Y-9834571D01*
X15310666Y-10358380D01*
X15310666Y-9834571D02*
X15358285Y-9739333D01*
X15453523Y-9691714D01*
X15596380Y-9691714D01*
X15691619Y-9739333D01*
X15739238Y-9834571D01*
X15739238Y-10358380D01*
X4929809Y-18756380D02*
X5025047Y-18756380D01*
X5120285Y-18804000D01*
X5167904Y-18851619D01*
X5215523Y-18946857D01*
X5263142Y-19137333D01*
X5263142Y-19375428D01*
X5215523Y-19565904D01*
X5167904Y-19661142D01*
X5120285Y-19708761D01*
X5025047Y-19756380D01*
X4929809Y-19756380D01*
X4834571Y-19708761D01*
X4786952Y-19661142D01*
X4739333Y-19565904D01*
X4691714Y-19375428D01*
X4691714Y-19137333D01*
X4739333Y-18946857D01*
X4786952Y-18851619D01*
X4834571Y-18804000D01*
X4929809Y-18756380D01*
X5691714Y-19661142D02*
X5739333Y-19708761D01*
X5691714Y-19756380D01*
X5644095Y-19708761D01*
X5691714Y-19661142D01*
X5691714Y-19756380D01*
X6358380Y-18756380D02*
X6453619Y-18756380D01*
X6548857Y-18804000D01*
X6596476Y-18851619D01*
X6644095Y-18946857D01*
X6691714Y-19137333D01*
X6691714Y-19375428D01*
X6644095Y-19565904D01*
X6596476Y-19661142D01*
X6548857Y-19708761D01*
X6453619Y-19756380D01*
X6358380Y-19756380D01*
X6263142Y-19708761D01*
X6215523Y-19661142D01*
X6167904Y-19565904D01*
X6120285Y-19375428D01*
X6120285Y-19137333D01*
X6167904Y-18946857D01*
X6215523Y-18851619D01*
X6263142Y-18804000D01*
X6358380Y-18756380D01*
X7072666Y-18851619D02*
X7120285Y-18804000D01*
X7215523Y-18756380D01*
X7453619Y-18756380D01*
X7548857Y-18804000D01*
X7596476Y-18851619D01*
X7644095Y-18946857D01*
X7644095Y-19042095D01*
X7596476Y-19184952D01*
X7025047Y-19756380D01*
X7644095Y-19756380D01*
X8072666Y-19756380D02*
X8072666Y-19089714D01*
X8072666Y-18756380D02*
X8025047Y-18804000D01*
X8072666Y-18851619D01*
X8120285Y-18804000D01*
X8072666Y-18756380D01*
X8072666Y-18851619D01*
X8548857Y-19089714D02*
X8548857Y-19756380D01*
X8548857Y-19184952D02*
X8596476Y-19137333D01*
X8691714Y-19089714D01*
X8834571Y-19089714D01*
X8929809Y-19137333D01*
X8977428Y-19232571D01*
X8977428Y-19756380D01*
X10167904Y-18708761D02*
X9310761Y-19994476D01*
X10691714Y-18756380D02*
X10786952Y-18756380D01*
X10882190Y-18804000D01*
X10929809Y-18851619D01*
X10977428Y-18946857D01*
X11025047Y-19137333D01*
X11025047Y-19375428D01*
X10977428Y-19565904D01*
X10929809Y-19661142D01*
X10882190Y-19708761D01*
X10786952Y-19756380D01*
X10691714Y-19756380D01*
X10596476Y-19708761D01*
X10548857Y-19661142D01*
X10501238Y-19565904D01*
X10453619Y-19375428D01*
X10453619Y-19137333D01*
X10501238Y-18946857D01*
X10548857Y-18851619D01*
X10596476Y-18804000D01*
X10691714Y-18756380D01*
X11453619Y-19661142D02*
X11501238Y-19708761D01*
X11453619Y-19756380D01*
X11406000Y-19708761D01*
X11453619Y-19661142D01*
X11453619Y-19756380D01*
X12406000Y-18756380D02*
X11929809Y-18756380D01*
X11882190Y-19232571D01*
X11929809Y-19184952D01*
X12025047Y-19137333D01*
X12263142Y-19137333D01*
X12358380Y-19184952D01*
X12406000Y-19232571D01*
X12453619Y-19327809D01*
X12453619Y-19565904D01*
X12406000Y-19661142D01*
X12358380Y-19708761D01*
X12263142Y-19756380D01*
X12025047Y-19756380D01*
X11929809Y-19708761D01*
X11882190Y-19661142D01*
X12882190Y-19756380D02*
X12882190Y-19089714D01*
X12882190Y-19184952D02*
X12929809Y-19137333D01*
X13025047Y-19089714D01*
X13167904Y-19089714D01*
X13263142Y-19137333D01*
X13310761Y-19232571D01*
X13310761Y-19756380D01*
X13310761Y-19232571D02*
X13358380Y-19137333D01*
X13453619Y-19089714D01*
X13596476Y-19089714D01*
X13691714Y-19137333D01*
X13739333Y-19232571D01*
X13739333Y-19756380D01*
X14215523Y-19756380D02*
X14215523Y-19089714D01*
X14215523Y-19184952D02*
X14263142Y-19137333D01*
X14358380Y-19089714D01*
X14501238Y-19089714D01*
X14596476Y-19137333D01*
X14644095Y-19232571D01*
X14644095Y-19756380D01*
X14644095Y-19232571D02*
X14691714Y-19137333D01*
X14786952Y-19089714D01*
X14929809Y-19089714D01*
X15025047Y-19137333D01*
X15072666Y-19232571D01*
X15072666Y-19756380D01*
D11*
G36*
X13347700Y3427194D02*
G01*
X13347700Y3024406D01*
X12152094Y1828800D01*
X11749306Y1828800D01*
X10553700Y3024406D01*
X10553700Y3427194D01*
X11749306Y4622800D01*
X12152094Y4622800D01*
X13347700Y3427194D01*
G37*
X13347700Y3427194D02*
X13347700Y3024406D01*
X12152094Y1828800D01*
X11749306Y1828800D01*
X10553700Y3024406D01*
X10553700Y3427194D01*
X11749306Y4622800D01*
X12152094Y4622800D01*
X13347700Y3427194D01*
G36*
X8267700Y3439894D02*
G01*
X8267700Y3037106D01*
X7072094Y1841500D01*
X6669306Y1841500D01*
X5473700Y3037106D01*
X5473700Y3439894D01*
X6669306Y4635500D01*
X7072094Y4635500D01*
X8267700Y3439894D01*
G37*
X8267700Y3439894D02*
X8267700Y3037106D01*
X7072094Y1841500D01*
X6669306Y1841500D01*
X5473700Y3037106D01*
X5473700Y3439894D01*
X6669306Y4635500D01*
X7072094Y4635500D01*
X8267700Y3439894D01*
G36*
X18427700Y3427194D02*
G01*
X18427700Y3024406D01*
X17232094Y1828800D01*
X16829306Y1828800D01*
X15633700Y3024406D01*
X15633700Y3427194D01*
X16829306Y4622800D01*
X17232094Y4622800D01*
X18427700Y3427194D01*
G37*
X18427700Y3427194D02*
X18427700Y3024406D01*
X17232094Y1828800D01*
X16829306Y1828800D01*
X15633700Y3024406D01*
X15633700Y3427194D01*
X16829306Y4622800D01*
X17232094Y4622800D01*
X18427700Y3427194D01*
G36*
X22542500Y6741894D02*
G01*
X22542500Y6339106D01*
X21346894Y5143500D01*
X20944106Y5143500D01*
X19748500Y6339106D01*
X19748500Y6741894D01*
X20944106Y7937500D01*
X21346894Y7937500D01*
X22542500Y6741894D01*
G37*
X22542500Y6741894D02*
X22542500Y6339106D01*
X21346894Y5143500D01*
X20944106Y5143500D01*
X19748500Y6339106D01*
X19748500Y6741894D01*
X20944106Y7937500D01*
X21346894Y7937500D01*
X22542500Y6741894D01*
G36*
X4127500Y6754594D02*
G01*
X4127500Y6351806D01*
X2931894Y5156200D01*
X2529106Y5156200D01*
X1333500Y6351806D01*
X1333500Y6754594D01*
X2529106Y7950200D01*
X2931894Y7950200D01*
X4127500Y6754594D01*
G37*
X4127500Y6754594D02*
X4127500Y6351806D01*
X2931894Y5156200D01*
X2529106Y5156200D01*
X1333500Y6351806D01*
X1333500Y6754594D01*
X2529106Y7950200D01*
X2931894Y7950200D01*
X4127500Y6754594D01*
M02*
