<?xml version="1.0" standalone="no"?>
 <!DOCTYPE svg PUBLIC "-//W3C//DTD SVG 1.1//EN" 
 "http://www.w3.org/Graphics/SVG/1.1/DTD/svg11.dtd"> 
<svg xmlns="http://www.w3.org/2000/svg" version="1.1" 
    width="29.7002cm" height="21.0007cm" viewBox="0 0 116930 82680 ">
<title>SVG Picture created as hmcdaughter_dac-F.Mask.svg date 2019/04/03 14:01:24 </title>
  <desc>Picture generated by PCBNEW </desc>
<g style="fill:#000000; fill-opacity:1;stroke:#000000; stroke-opacity:1;
stroke-linecap:round; stroke-linejoin:round; "
 transform="translate(0 0) scale(1 1)">
</g>
<g style="fill:#C2C200; fill-opacity:0.0; 
stroke:#C2C200; stroke-width:-0.000393701; stroke-opacity:1; 
stroke-linecap:round; stroke-linejoin:round;">
</g>
<g style="fill:#C2C200; fill-opacity:0.0; 
stroke:#C2C200; stroke-width:59.0551; stroke-opacity:1; 
stroke-linecap:round; stroke-linejoin:round;">
<circle cx="60400" cy="45600" r="656.168" /> 
<path d="M59415 45600
L61384 45600
" />
<path d="M60400 44615
L60400 46584
" />
<path d="M60796 45450
L69403 45450
" />
<path d="M69400 45450
L69400 37450
" />
<path d="M60800 45450
L60800 37450
" />
<path d="M61746 33000
L68453 33000
" />
<path d="M60800 37450 A900 900 0.0 0 0 61700 36550 " />
<path d="M68500 36550 A900 900 0.0 0 0 69400 37450 " />
<path d="M68500 36550
L68500 33050
" />
<path d="M61700 36550
L61700 33050
" />
<path d="M61750 33000 A50 50 0.0 0 0 61700 33050 " />
<path d="M68500 33050 A50 50 0.0 0 0 68450 33000 " />
<circle cx="0" cy="0" r="262.467" /> 
<path d="M-393 0
L393 0
" />
<path d="M0 -393
L0 393
" />
</g>
<g style="fill:#840000; fill-opacity:0.0; 
stroke:#840000; stroke-width:59.0551; stroke-opacity:1; 
stroke-linecap:round; stroke-linejoin:round;">
</g>
<g style="fill:#840000; fill-opacity:1.0; 
stroke:#840000; stroke-width:0; stroke-opacity:1; 
stroke-linecap:round; stroke-linejoin:round;">
<circle cx="66160" cy="40080" r="314.961" /> 
</g>
<g style="fill:#840000; fill-opacity:1.0; 
stroke:#840000; stroke-width:39.3701; stroke-opacity:1; 
stroke-linecap:round; stroke-linejoin:round;">
</g>
<g style="fill:#840000; fill-opacity:1.0; 
stroke:#840000; stroke-width:0; stroke-opacity:1; 
stroke-linecap:round; stroke-linejoin:round;">
<circle cx="67105" cy="44325" r="610.236" /> 
</g>
<g style="fill:#840000; fill-opacity:1.0; 
stroke:#840000; stroke-width:39.3701; stroke-opacity:1; 
stroke-linecap:round; stroke-linejoin:round;">
</g>
<g style="fill:#840000; fill-opacity:1.0; 
stroke:#840000; stroke-width:0; stroke-opacity:1; 
stroke-linecap:round; stroke-linejoin:round;">
<polyline style="fill-rule:evenodd;"
points="63663,33748
63663,33453
64120,33453
64120,33748
63663,33748
" /> 
<polyline style="fill-rule:evenodd;"
points="63663,34122
63663,33827
64120,33827
64120,34122
63663,34122
" /> 
<polyline style="fill-rule:evenodd;"
points="63663,34496
63663,34201
64120,34201
64120,34496
63663,34496
" /> 
<polyline style="fill-rule:evenodd;"
points="64529,34496
64529,34201
64986,34201
64986,34496
64529,34496
" /> 
<polyline style="fill-rule:evenodd;"
points="64529,33748
64529,33453
64986,33453
64986,33748
64529,33748
" /> 
<polyline style="fill-rule:evenodd;"
points="64529,34122
64529,33827
64986,33827
64986,34122
64529,34122
" /> 
<polyline style="fill-rule:evenodd;"
points="63457,33363
63457,34386
63024,34386
63024,33363
63457,33363
" /> 
<polyline style="fill-rule:evenodd;"
points="62275,33363
62275,34386
61842,34386
61842,33363
62275,33363
" /> 
<polyline style="fill-rule:evenodd;"
points="63237,41445
62962,41445
62962,41248
63237,41248
63237,41445
" /> 
<polyline style="fill-rule:evenodd;"
points="63237,41091
62962,41091
62962,40894
63237,40894
63237,41091
" /> 
<polyline style="fill-rule:evenodd;"
points="63980,38100
63449,38100
63449,37667
63980,37667
63980,38100
" /> 
<polyline style="fill-rule:evenodd;"
points="63980,37312
63449,37312
63449,36879
63980,36879
63980,37312
" /> 
<polyline style="fill-rule:evenodd;"
points="64472,39008
64256,39008
64256,38556
64472,38556
64472,39008
" /> 
<polyline style="fill-rule:evenodd;"
points="64728,39008
64511,39008
64511,38556
64728,38556
64728,39008
" /> 
<polyline style="fill-rule:evenodd;"
points="64984,39008
64767,39008
64767,38556
64984,38556
64984,39008
" /> 
<polyline style="fill-rule:evenodd;"
points="65240,39008
65023,39008
65023,38556
65240,38556
65240,39008
" /> 
<polyline style="fill-rule:evenodd;"
points="65496,39008
65279,39008
65279,38556
65496,38556
65496,39008
" /> 
<polyline style="fill-rule:evenodd;"
points="65752,39008
65535,39008
65535,38556
65752,38556
65752,39008
" /> 
<polyline style="fill-rule:evenodd;"
points="66008,39008
65791,39008
65791,38556
66008,38556
66008,39008
" /> 
<polyline style="fill-rule:evenodd;"
points="66263,39008
66047,39008
66047,38556
66263,38556
66263,39008
" /> 
<polyline style="fill-rule:evenodd;"
points="66263,36823
66047,36823
66047,36371
66263,36371
66263,36823
" /> 
<polyline style="fill-rule:evenodd;"
points="66008,36823
65791,36823
65791,36371
66008,36371
66008,36823
" /> 
<polyline style="fill-rule:evenodd;"
points="65752,36823
65535,36823
65535,36371
65752,36371
65752,36823
" /> 
<polyline style="fill-rule:evenodd;"
points="65496,36823
65279,36823
65279,36371
65496,36371
65496,36823
" /> 
<polyline style="fill-rule:evenodd;"
points="65240,36823
65023,36823
65023,36371
65240,36371
65240,36823
" /> 
<polyline style="fill-rule:evenodd;"
points="64984,36823
64767,36823
64767,36371
64984,36371
64984,36823
" /> 
<polyline style="fill-rule:evenodd;"
points="64728,36823
64511,36823
64511,36371
64728,36371
64728,36823
" /> 
<polyline style="fill-rule:evenodd;"
points="64472,36823
64256,36823
64256,36371
64472,36371
64472,36823
" /> 
<polyline style="fill-rule:evenodd;"
points="65984,37709
65592,37709
65592,37091
65984,37091
65984,37709
" /> 
<polyline style="fill-rule:evenodd;"
points="65632,37709
65240,37709
65240,37091
65632,37091
65632,37709
" /> 
<polyline style="fill-rule:evenodd;"
points="65279,37709
64887,37709
64887,37091
65279,37091
65279,37709
" /> 
<polyline style="fill-rule:evenodd;"
points="64927,37709
64535,37709
64535,37091
64927,37091
64927,37709
" /> 
<polyline style="fill-rule:evenodd;"
points="65984,38288
65592,38288
65592,37670
65984,37670
65984,38288
" /> 
<polyline style="fill-rule:evenodd;"
points="65632,38288
65240,38288
65240,37670
65632,37670
65632,38288
" /> 
<polyline style="fill-rule:evenodd;"
points="65279,38288
64887,38288
64887,37670
65279,37670
65279,38288
" /> 
<polyline style="fill-rule:evenodd;"
points="64927,38288
64535,38288
64535,37670
64927,37670
64927,38288
" /> 
<polyline style="fill-rule:evenodd;"
points="63803,39506
64196,39506
64196,39742
63803,39742
63803,39506
" /> 
<polyline style="fill-rule:evenodd;"
points="63803,40097
64196,40097
64196,40333
63803,40333
63803,40097
" /> 
<polyline style="fill-rule:evenodd;"
points="64302,35142
64302,34807
64656,34807
64656,35142
64302,35142
" /> 
<polyline style="fill-rule:evenodd;"
points="64893,35142
64893,34807
65247,34807
65247,35142
64893,35142
" /> 
<polyline style="fill-rule:evenodd;"
points="65463,33342
66486,33342
66486,33775
65463,33775
65463,33342
" /> 
<polyline style="fill-rule:evenodd;"
points="65463,34524
66486,34524
66486,34957
65463,34957
65463,34524
" /> 
<polyline style="fill-rule:evenodd;"
points="66709,34039
67240,34039
67240,34472
66709,34472
66709,34039
" /> 
<polyline style="fill-rule:evenodd;"
points="66709,34827
67240,34827
67240,35260
66709,35260
66709,34827
" /> 
<polyline style="fill-rule:evenodd;"
points="63457,34838
63457,35861
63024,35861
63024,34838
63457,34838
" /> 
<polyline style="fill-rule:evenodd;"
points="62275,34838
62275,35861
61842,35861
61842,34838
62275,34838
" /> 
<polyline style="fill-rule:evenodd;"
points="63232,37962
62897,37962
62897,37608
63232,37608
63232,37962
" /> 
<polyline style="fill-rule:evenodd;"
points="63232,37371
62897,37371
62897,37017
63232,37017
63232,37371
" /> 
<polyline style="fill-rule:evenodd;"
points="66237,41095
65962,41095
65962,40898
66237,40898
66237,41095
" /> 
<polyline style="fill-rule:evenodd;"
points="66237,40741
65962,40741
65962,40544
66237,40544
66237,40741
" /> 
<polyline style="fill-rule:evenodd;"
points="63237,40745
62962,40745
62962,40548
63237,40548
63237,40745
" /> 
<polyline style="fill-rule:evenodd;"
points="63237,40391
62962,40391
62962,40194
63237,40194
63237,40391
" /> 
<polyline style="fill-rule:evenodd;"
points="66237,41795
65962,41795
65962,41598
66237,41598
66237,41795
" /> 
<polyline style="fill-rule:evenodd;"
points="66237,41441
65962,41441
65962,41244
66237,41244
66237,41441
" /> 
<polyline style="fill-rule:evenodd;"
points="66736,33796
66736,33403
66972,33403
66972,33796
66736,33796
" /> 
<polyline style="fill-rule:evenodd;"
points="67327,33796
67327,33403
67563,33403
67563,33796
67327,33796
" /> 
<polyline style="fill-rule:evenodd;"
points="64071,35638
63678,35638
63678,35402
64071,35402
64071,35638
" /> 
<polyline style="fill-rule:evenodd;"
points="64071,35047
63678,35047
63678,34811
64071,34811
64071,35047
" /> 
<polyline style="fill-rule:evenodd;"
points="63036,39003
62643,39003
62643,38767
63036,38767
63036,39003
" /> 
<polyline style="fill-rule:evenodd;"
points="63036,38412
62643,38412
62643,38176
63036,38176
63036,38412
" /> 
<polyline style="fill-rule:evenodd;"
points="65660,39804
65660,40335
65227,40335
65227,39804
65660,39804
" /> 
<polyline style="fill-rule:evenodd;"
points="64872,39804
64872,40335
64439,40335
64439,39804
64872,39804
" /> 
<polyline style="fill-rule:evenodd;"
points="65771,41495
65771,41712
65161,41712
65161,41495
65771,41495
" /> 
<polyline style="fill-rule:evenodd;"
points="65771,41239
65771,41456
65161,41456
65161,41239
65771,41239
" /> 
<polyline style="fill-rule:evenodd;"
points="65771,40983
65771,41200
65161,41200
65161,40983
65771,40983
" /> 
<polyline style="fill-rule:evenodd;"
points="65771,40727
65771,40944
65161,40944
65161,40727
65771,40727
" /> 
<polyline style="fill-rule:evenodd;"
points="64038,40727
64038,40944
63428,40944
63428,40727
64038,40727
" /> 
<polyline style="fill-rule:evenodd;"
points="64038,40983
64038,41200
63428,41200
63428,40983
64038,40983
" /> 
<polyline style="fill-rule:evenodd;"
points="64038,41239
64038,41456
63428,41456
63428,41239
64038,41239
" /> 
<polyline style="fill-rule:evenodd;"
points="64038,41495
64038,41712
63428,41712
63428,41495
64038,41495
" /> 
<circle cx="67600" cy="38200" r="314.961" /> 
</g>
<g style="fill:#840000; fill-opacity:1.0; 
stroke:#840000; stroke-width:39.3701; stroke-opacity:1; 
stroke-linecap:round; stroke-linejoin:round;">
</g>
<g style="fill:#840000; fill-opacity:1.0; 
stroke:#840000; stroke-width:0; stroke-opacity:1; 
stroke-linecap:round; stroke-linejoin:round;">
<circle cx="67600" cy="39200" r="314.961" /> 
</g>
<g style="fill:#840000; fill-opacity:1.0; 
stroke:#840000; stroke-width:39.3701; stroke-opacity:1; 
stroke-linecap:round; stroke-linejoin:round;">
</g>
<g style="fill:#840000; fill-opacity:1.0; 
stroke:#840000; stroke-width:0; stroke-opacity:1; 
stroke-linecap:round; stroke-linejoin:round;">
<circle cx="67600" cy="41200" r="314.961" /> 
</g>
<g style="fill:#840000; fill-opacity:1.0; 
stroke:#840000; stroke-width:39.3701; stroke-opacity:1; 
stroke-linecap:round; stroke-linejoin:round;">
</g>
<g style="fill:#840000; fill-opacity:1.0; 
stroke:#840000; stroke-width:0; stroke-opacity:1; 
stroke-linecap:round; stroke-linejoin:round;">
<circle cx="67600" cy="40200" r="314.961" /> 
</g>
<g style="fill:#840000; fill-opacity:1.0; 
stroke:#840000; stroke-width:39.3701; stroke-opacity:1; 
stroke-linecap:round; stroke-linejoin:round;">
</g>
<g style="fill:#840000; fill-opacity:1.0; 
stroke:#840000; stroke-width:0; stroke-opacity:1; 
stroke-linecap:round; stroke-linejoin:round;">
<circle cx="63250" cy="36360" r="314.961" /> 
</g>
<g style="fill:#840000; fill-opacity:1.0; 
stroke:#840000; stroke-width:39.3701; stroke-opacity:1; 
stroke-linecap:round; stroke-linejoin:round;">
</g>
<g style="fill:#840000; fill-opacity:1.0; 
stroke:#840000; stroke-width:0; stroke-opacity:1; 
stroke-linecap:round; stroke-linejoin:round;">
<circle cx="63590" cy="38615" r="314.961" /> 
</g>
<g style="fill:#840000; fill-opacity:1.0; 
stroke:#840000; stroke-width:39.3701; stroke-opacity:1; 
stroke-linecap:round; stroke-linejoin:round;">
</g>
<g style="fill:#840000; fill-opacity:1.0; 
stroke:#840000; stroke-width:0; stroke-opacity:1; 
stroke-linecap:round; stroke-linejoin:round;">
<circle cx="63100" cy="39700" r="314.961" /> 
</g>
<g style="fill:#840000; fill-opacity:1.0; 
stroke:#840000; stroke-width:39.3701; stroke-opacity:1; 
stroke-linecap:round; stroke-linejoin:round;">
</g>
<g style="fill:#840000; fill-opacity:1.0; 
stroke:#840000; stroke-width:0; stroke-opacity:1; 
stroke-linecap:round; stroke-linejoin:round;">
<circle cx="61480" cy="43025" r="610.236" /> 
</g>
<g style="fill:#840000; fill-opacity:1.0; 
stroke:#840000; stroke-width:39.3701; stroke-opacity:1; 
stroke-linecap:round; stroke-linejoin:round;">
</g>
<g style="fill:#840000; fill-opacity:1.0; 
stroke:#840000; stroke-width:0; stroke-opacity:1; 
stroke-linecap:round; stroke-linejoin:round;">
<circle cx="68720" cy="43025" r="610.236" /> 
</g>
<g style="fill:#840000; fill-opacity:1.0; 
stroke:#840000; stroke-width:39.3701; stroke-opacity:1; 
stroke-linecap:round; stroke-linejoin:round;">
</g>
<g style="fill:#840000; fill-opacity:1.0; 
stroke:#840000; stroke-width:0; stroke-opacity:1; 
stroke-linecap:round; stroke-linejoin:round;">
<circle cx="63100" cy="44325" r="610.236" /> 
</g>
<g style="fill:#840000; fill-opacity:1.0; 
stroke:#840000; stroke-width:39.3701; stroke-opacity:1; 
stroke-linecap:round; stroke-linejoin:round;">
</g>
<g style="fill:#840000; fill-opacity:1.0; 
stroke:#840000; stroke-width:0; stroke-opacity:1; 
stroke-linecap:round; stroke-linejoin:round;">
<circle cx="65100" cy="44325" r="610.236" /> 
</g>
<g style="fill:#840000; fill-opacity:1.0; 
stroke:#840000; stroke-width:39.3701; stroke-opacity:1; 
stroke-linecap:round; stroke-linejoin:round;">
</g>
<g style="fill:#840000; fill-opacity:1.0; 
stroke:#840000; stroke-width:0; stroke-opacity:1; 
stroke-linecap:round; stroke-linejoin:round;">
<polyline style="fill-rule:evenodd;"
points="68465,35510
67934,35510
67934,35077
68465,35077
68465,35510
" /> 
<polyline style="fill-rule:evenodd;"
points="68465,34722
67934,34722
67934,34289
68465,34289
68465,34722
" /> 
<polyline style="fill-rule:evenodd;"
points="68003,36086
68396,36086
68396,36322
68003,36322
68003,36086
" /> 
<polyline style="fill-rule:evenodd;"
points="68003,36677
68396,36677
68396,36913
68003,36913
68003,36677
" /> 
<circle cx="67400" cy="35700" r="314.961" /> 
</g>
<g style="fill:#840000; fill-opacity:1.0; 
stroke:#840000; stroke-width:39.3701; stroke-opacity:1; 
stroke-linecap:round; stroke-linejoin:round;">
</g>
<g style="fill:#840000; fill-opacity:1.0; 
stroke:#840000; stroke-width:0; stroke-opacity:1; 
stroke-linecap:round; stroke-linejoin:round;">
<polyline style="fill-rule:evenodd;"
points="60988,40532
62011,40532
62011,40965
60988,40965
60988,40532
" /> 
<polyline style="fill-rule:evenodd;"
points="60988,41714
62011,41714
62011,42147
60988,42147
60988,41714
" /> 
<polyline style="fill-rule:evenodd;"
points="66412,42951
66412,41928
66845,41928
66845,42951
66412,42951
" /> 
<polyline style="fill-rule:evenodd;"
points="67594,42951
67594,41928
68027,41928
68027,42951
67594,42951
" /> 
<polyline style="fill-rule:evenodd;"
points="62765,42130
62234,42130
62234,41697
62765,41697
62765,42130
" /> 
<polyline style="fill-rule:evenodd;"
points="62765,41342
62234,41342
62234,40909
62765,40909
62765,41342
" /> 
<polyline style="fill-rule:evenodd;"
points="65770,42094
65770,42625
65337,42625
65337,42094
65770,42094
" /> 
<polyline style="fill-rule:evenodd;"
points="64982,42094
64982,42625
64549,42625
64549,42094
64982,42094
" /> 
<polyline style="fill-rule:evenodd;"
points="61344,38511
61855,38511
61855,39022
61344,39022
61344,38511
" /> 
<polyline style="fill-rule:evenodd;"
points="61344,39377
61855,39377
61855,39888
61344,39888
61344,39377
" /> 
<polyline style="fill-rule:evenodd;"
points="61737,38325
61462,38325
61462,38128
61737,38128
61737,38325
" /> 
<polyline style="fill-rule:evenodd;"
points="61737,37971
61462,37971
61462,37774
61737,37774
61737,37971
" /> 
<polyline style="fill-rule:evenodd;"
points="62962,41584
63237,41584
63237,41781
62962,41781
62962,41584
" /> 
<polyline style="fill-rule:evenodd;"
points="62962,41938
63237,41938
63237,42135
62962,42135
62962,41938
" /> 
<polyline style="fill-rule:evenodd;"
points="65962,41944
66237,41944
66237,42141
65962,42141
65962,41944
" /> 
<polyline style="fill-rule:evenodd;"
points="65962,42298
66237,42298
66237,42495
65962,42495
65962,42298
" /> 
<polyline style="fill-rule:evenodd;"
points="64742,35644
65017,35644
65017,35841
64742,35841
64742,35644
" /> 
<polyline style="fill-rule:evenodd;"
points="64742,35998
65017,35998
65017,36195
64742,36195
64742,35998
" /> 
<polyline style="fill-rule:evenodd;"
points="64597,36195
64322,36195
64322,35998
64597,35998
64597,36195
" /> 
<polyline style="fill-rule:evenodd;"
points="64597,35841
64322,35841
64322,35644
64597,35644
64597,35841
" /> 
<polyline style="fill-rule:evenodd;"
points="65982,35504
66257,35504
66257,35701
65982,35701
65982,35504
" /> 
<polyline style="fill-rule:evenodd;"
points="65982,35858
66257,35858
66257,36055
65982,36055
65982,35858
" /> 
<polyline style="fill-rule:evenodd;"
points="65837,36055
65562,36055
65562,35858
65837,35858
65837,36055
" /> 
<polyline style="fill-rule:evenodd;"
points="65837,35701
65562,35701
65562,35504
65837,35504
65837,35701
" /> 
<polyline style="fill-rule:evenodd;"
points="66424,36597
66424,36322
66621,36322
66621,36597
66424,36597
" /> 
<polyline style="fill-rule:evenodd;"
points="66778,36597
66778,36322
66975,36322
66975,36597
66778,36597
" /> 
<polyline style="fill-rule:evenodd;"
points="66424,37167
66424,36892
66621,36892
66621,37167
66424,37167
" /> 
<polyline style="fill-rule:evenodd;"
points="66778,37167
66778,36892
66975,36892
66975,37167
66778,37167
" /> 
<polyline style="fill-rule:evenodd;"
points="68345,38554
68345,37845
69054,37845
69054,38554
68345,38554
" /> 
</g>
<g style="fill:#840000; fill-opacity:1.0; 
stroke:#840000; stroke-width:708.661; stroke-opacity:1; 
stroke-linecap:round; stroke-linejoin:round;">
</g>
<g style="fill:#840000; fill-opacity:0.0; 
stroke:#840000; stroke-width:708.661; stroke-opacity:1; 
stroke-linecap:round; stroke-linejoin:round;">
<path d="M68700 39200
L68700 39200
" />
<path d="M68700 40200
L68700 40200
" />
<path d="M68700 41200
L68700 41200
" />
</g> 
</svg>
