<?xml version="1.0" standalone="no"?>
 <!DOCTYPE svg PUBLIC "-//W3C//DTD SVG 1.1//EN" 
 "http://www.w3.org/Graphics/SVG/1.1/DTD/svg11.dtd"> 
<svg xmlns="http://www.w3.org/2000/svg" version="1.1" 
    width="29.7002cm" height="21.0007cm" viewBox="0 0 116930 82680 ">
<title>SVG Picture created as hmcdaughter_dac-F.Paste.svg date 2019/04/03 14:01:24 </title>
  <desc>Picture generated by PCBNEW </desc>
<g style="fill:#000000; fill-opacity:1;stroke:#000000; stroke-opacity:1;
stroke-linecap:round; stroke-linejoin:round; "
 transform="translate(0 0) scale(1 1)">
</g>
<g style="fill:#C2C200; fill-opacity:0.0; 
stroke:#C2C200; stroke-width:-0.000393701; stroke-opacity:1; 
stroke-linecap:round; stroke-linejoin:round;">
</g>
<g style="fill:#C2C200; fill-opacity:0.0; 
stroke:#C2C200; stroke-width:59.0551; stroke-opacity:1; 
stroke-linecap:round; stroke-linejoin:round;">
<circle cx="60400" cy="45600" r="656.168" /> 
<path d="M59415 45600
L61384 45600
" />
<path d="M60400 44615
L60400 46584
" />
<path d="M60796 45450
L69403 45450
" />
<path d="M69400 45450
L69400 37450
" />
<path d="M60800 45450
L60800 37450
" />
<path d="M61746 33000
L68453 33000
" />
<path d="M60800 37450 A900 900 0.0 0 0 61700 36550 " />
<path d="M68500 36550 A900 900 0.0 0 0 69400 37450 " />
<path d="M68500 36550
L68500 33050
" />
<path d="M61700 36550
L61700 33050
" />
<path d="M61750 33000 A50 50 0.0 0 0 61700 33050 " />
<path d="M68500 33050 A50 50 0.0 0 0 68450 33000 " />
<circle cx="0" cy="0" r="262.467" /> 
<path d="M-393 0
L393 0
" />
<path d="M0 -393
L0 393
" />
</g>
<g style="fill:#840000; fill-opacity:0.0; 
stroke:#840000; stroke-width:59.0551; stroke-opacity:1; 
stroke-linecap:round; stroke-linejoin:round;">
</g>
<g style="fill:#840000; fill-opacity:0.0; 
stroke:#840000; stroke-width:0; stroke-opacity:1; 
stroke-linecap:round; stroke-linejoin:round;">
</g>
<g style="fill:#840000; fill-opacity:1.0; 
stroke:#840000; stroke-width:0; stroke-opacity:1; 
stroke-linecap:round; stroke-linejoin:round;">
<polyline style="fill-rule:evenodd;"
points="63683,33728
63683,33473
64100,33473
64100,33728
63683,33728
" /> 
<polyline style="fill-rule:evenodd;"
points="63683,34102
63683,33847
64100,33847
64100,34102
63683,34102
" /> 
<polyline style="fill-rule:evenodd;"
points="63683,34476
63683,34221
64100,34221
64100,34476
63683,34476
" /> 
<polyline style="fill-rule:evenodd;"
points="64549,34476
64549,34221
64966,34221
64966,34476
64549,34476
" /> 
<polyline style="fill-rule:evenodd;"
points="64549,33728
64549,33473
64966,33473
64966,33728
64549,33728
" /> 
<polyline style="fill-rule:evenodd;"
points="64549,34102
64549,33847
64966,33847
64966,34102
64549,34102
" /> 
<polyline style="fill-rule:evenodd;"
points="63437,33382
63437,34367
63043,34367
63043,33382
63437,33382
" /> 
<polyline style="fill-rule:evenodd;"
points="62256,33382
62256,34367
61862,34367
61862,33382
62256,33382
" /> 
<polyline style="fill-rule:evenodd;"
points="63218,41425
62981,41425
62981,41268
63218,41268
63218,41425
" /> 
<polyline style="fill-rule:evenodd;"
points="63218,41071
62981,41071
62981,40914
63218,40914
63218,41071
" /> 
<polyline style="fill-rule:evenodd;"
points="63961,38080
63468,38080
63468,37686
63961,37686
63961,38080
" /> 
<polyline style="fill-rule:evenodd;"
points="63961,37293
63468,37293
63468,36899
63961,36899
63961,37293
" /> 
<polyline style="fill-rule:evenodd;"
points="64452,38989
64275,38989
64275,38575
64452,38575
64452,38989
" /> 
<polyline style="fill-rule:evenodd;"
points="64708,38989
64531,38989
64531,38575
64708,38575
64708,38989
" /> 
<polyline style="fill-rule:evenodd;"
points="64964,38989
64787,38989
64787,38575
64964,38575
64964,38989
" /> 
<polyline style="fill-rule:evenodd;"
points="65220,38989
65043,38989
65043,38575
65220,38575
65220,38989
" /> 
<polyline style="fill-rule:evenodd;"
points="65476,38989
65299,38989
65299,38575
65476,38575
65476,38989
" /> 
<polyline style="fill-rule:evenodd;"
points="65732,38989
65555,38989
65555,38575
65732,38575
65732,38989
" /> 
<polyline style="fill-rule:evenodd;"
points="65988,38989
65811,38989
65811,38575
65988,38575
65988,38989
" /> 
<polyline style="fill-rule:evenodd;"
points="66244,38989
66067,38989
66067,38575
66244,38575
66244,38989
" /> 
<polyline style="fill-rule:evenodd;"
points="66244,36804
66067,36804
66067,36390
66244,36390
66244,36804
" /> 
<polyline style="fill-rule:evenodd;"
points="65988,36804
65811,36804
65811,36390
65988,36390
65988,36804
" /> 
<polyline style="fill-rule:evenodd;"
points="65732,36804
65555,36804
65555,36390
65732,36390
65732,36804
" /> 
<polyline style="fill-rule:evenodd;"
points="65476,36804
65299,36804
65299,36390
65476,36390
65476,36804
" /> 
<polyline style="fill-rule:evenodd;"
points="65220,36804
65043,36804
65043,36390
65220,36390
65220,36804
" /> 
<polyline style="fill-rule:evenodd;"
points="64964,36804
64787,36804
64787,36390
64964,36390
64964,36804
" /> 
<polyline style="fill-rule:evenodd;"
points="64708,36804
64531,36804
64531,36390
64708,36390
64708,36804
" /> 
<polyline style="fill-rule:evenodd;"
points="64452,36804
64275,36804
64275,36390
64452,36390
64452,36804
" /> 
<polyline style="fill-rule:evenodd;"
points="65894,37574
65682,37574
65682,37227
65894,37227
65894,37574
" /> 
<polyline style="fill-rule:evenodd;"
points="65541,37574
65330,37574
65330,37227
65541,37227
65541,37574
" /> 
<polyline style="fill-rule:evenodd;"
points="65189,37574
64978,37574
64978,37227
65189,37227
65189,37574
" /> 
<polyline style="fill-rule:evenodd;"
points="64837,37574
64625,37574
64625,37227
64837,37227
64837,37574
" /> 
<polyline style="fill-rule:evenodd;"
points="65894,38152
65682,38152
65682,37805
65894,37805
65894,38152
" /> 
<polyline style="fill-rule:evenodd;"
points="65541,38152
65330,38152
65330,37805
65541,37805
65541,38152
" /> 
<polyline style="fill-rule:evenodd;"
points="65189,38152
64978,38152
64978,37805
65189,37805
65189,38152
" /> 
<polyline style="fill-rule:evenodd;"
points="64837,38152
64625,38152
64625,37805
64837,37805
64837,38152
" /> 
<polyline style="fill-rule:evenodd;"
points="63822,39526
64177,39526
64177,39723
63822,39723
63822,39526
" /> 
<polyline style="fill-rule:evenodd;"
points="63822,40116
64177,40116
64177,40313
63822,40313
63822,40116
" /> 
<polyline style="fill-rule:evenodd;"
points="64322,35122
64322,34827
64637,34827
64637,35122
64322,35122
" /> 
<polyline style="fill-rule:evenodd;"
points="64912,35122
64912,34827
65227,34827
65227,35122
64912,35122
" /> 
<polyline style="fill-rule:evenodd;"
points="65482,33362
66467,33362
66467,33756
65482,33756
65482,33362
" /> 
<polyline style="fill-rule:evenodd;"
points="65482,34543
66467,34543
66467,34937
65482,34937
65482,34543
" /> 
<polyline style="fill-rule:evenodd;"
points="66728,34059
67221,34059
67221,34453
66728,34453
66728,34059
" /> 
<polyline style="fill-rule:evenodd;"
points="66728,34846
67221,34846
67221,35240
66728,35240
66728,34846
" /> 
<polyline style="fill-rule:evenodd;"
points="63437,34857
63437,35842
63043,35842
63043,34857
63437,34857
" /> 
<polyline style="fill-rule:evenodd;"
points="62256,34857
62256,35842
61862,35842
61862,34857
62256,34857
" /> 
<polyline style="fill-rule:evenodd;"
points="63212,37942
62917,37942
62917,37627
63212,37627
63212,37942
" /> 
<polyline style="fill-rule:evenodd;"
points="63212,37352
62917,37352
62917,37037
63212,37037
63212,37352
" /> 
<polyline style="fill-rule:evenodd;"
points="66218,41075
65981,41075
65981,40918
66218,40918
66218,41075
" /> 
<polyline style="fill-rule:evenodd;"
points="66218,40721
65981,40721
65981,40564
66218,40564
66218,40721
" /> 
<polyline style="fill-rule:evenodd;"
points="63218,40725
62981,40725
62981,40568
63218,40568
63218,40725
" /> 
<polyline style="fill-rule:evenodd;"
points="63218,40371
62981,40371
62981,40214
63218,40214
63218,40371
" /> 
<polyline style="fill-rule:evenodd;"
points="66218,41775
65981,41775
65981,41618
66218,41618
66218,41775
" /> 
<polyline style="fill-rule:evenodd;"
points="66218,41421
65981,41421
65981,41264
66218,41264
66218,41421
" /> 
<polyline style="fill-rule:evenodd;"
points="66756,33777
66756,33422
66953,33422
66953,33777
66756,33777
" /> 
<polyline style="fill-rule:evenodd;"
points="67346,33777
67346,33422
67543,33422
67543,33777
67346,33777
" /> 
<polyline style="fill-rule:evenodd;"
points="64052,35618
63697,35618
63697,35421
64052,35421
64052,35618
" /> 
<polyline style="fill-rule:evenodd;"
points="64052,35028
63697,35028
63697,34831
64052,34831
64052,35028
" /> 
<polyline style="fill-rule:evenodd;"
points="63017,38983
62662,38983
62662,38786
63017,38786
63017,38983
" /> 
<polyline style="fill-rule:evenodd;"
points="63017,38393
62662,38393
62662,38196
63017,38196
63017,38393
" /> 
<polyline style="fill-rule:evenodd;"
points="65640,39823
65640,40316
65246,40316
65246,39823
65640,39823
" /> 
<polyline style="fill-rule:evenodd;"
points="64853,39823
64853,40316
64459,40316
64459,39823
64853,39823
" /> 
<polyline style="fill-rule:evenodd;"
points="65751,41515
65751,41692
65180,41692
65180,41515
65751,41515
" /> 
<polyline style="fill-rule:evenodd;"
points="65751,41259
65751,41436
65180,41436
65180,41259
65751,41259
" /> 
<polyline style="fill-rule:evenodd;"
points="65751,41003
65751,41180
65180,41180
65180,41003
65751,41003
" /> 
<polyline style="fill-rule:evenodd;"
points="65751,40747
65751,40924
65180,40924
65180,40747
65751,40747
" /> 
<polyline style="fill-rule:evenodd;"
points="64019,40747
64019,40924
63448,40924
63448,40747
64019,40747
" /> 
<polyline style="fill-rule:evenodd;"
points="64019,41003
64019,41180
63448,41180
63448,41003
64019,41003
" /> 
<polyline style="fill-rule:evenodd;"
points="64019,41259
64019,41436
63448,41436
63448,41259
64019,41259
" /> 
<polyline style="fill-rule:evenodd;"
points="64019,41515
64019,41692
63448,41692
63448,41515
64019,41515
" /> 
<polyline style="fill-rule:evenodd;"
points="68446,35490
67953,35490
67953,35096
68446,35096
68446,35490
" /> 
<polyline style="fill-rule:evenodd;"
points="68446,34703
67953,34703
67953,34309
68446,34309
68446,34703
" /> 
<polyline style="fill-rule:evenodd;"
points="68022,36106
68377,36106
68377,36303
68022,36303
68022,36106
" /> 
<polyline style="fill-rule:evenodd;"
points="68022,36696
68377,36696
68377,36893
68022,36893
68022,36696
" /> 
<polyline style="fill-rule:evenodd;"
points="61007,40552
61992,40552
61992,40946
61007,40946
61007,40552
" /> 
<polyline style="fill-rule:evenodd;"
points="61007,41733
61992,41733
61992,42127
61007,42127
61007,41733
" /> 
<polyline style="fill-rule:evenodd;"
points="66432,42932
66432,41947
66826,41947
66826,42932
66432,42932
" /> 
<polyline style="fill-rule:evenodd;"
points="67613,42932
67613,41947
68007,41947
68007,42932
67613,42932
" /> 
<polyline style="fill-rule:evenodd;"
points="62746,42110
62253,42110
62253,41716
62746,41716
62746,42110
" /> 
<polyline style="fill-rule:evenodd;"
points="62746,41323
62253,41323
62253,40929
62746,40929
62746,41323
" /> 
<polyline style="fill-rule:evenodd;"
points="65750,42113
65750,42606
65356,42606
65356,42113
65750,42113
" /> 
<polyline style="fill-rule:evenodd;"
points="64963,42113
64963,42606
64569,42606
64569,42113
64963,42113
" /> 
<polyline style="fill-rule:evenodd;"
points="61363,38530
61836,38530
61836,39003
61363,39003
61363,38530
" /> 
<polyline style="fill-rule:evenodd;"
points="61363,39396
61836,39396
61836,39869
61363,39869
61363,39396
" /> 
<polyline style="fill-rule:evenodd;"
points="61718,38305
61481,38305
61481,38148
61718,38148
61718,38305
" /> 
<polyline style="fill-rule:evenodd;"
points="61718,37951
61481,37951
61481,37794
61718,37794
61718,37951
" /> 
<polyline style="fill-rule:evenodd;"
points="62981,41604
63218,41604
63218,41761
62981,41761
62981,41604
" /> 
<polyline style="fill-rule:evenodd;"
points="62981,41958
63218,41958
63218,42115
62981,42115
62981,41958
" /> 
<polyline style="fill-rule:evenodd;"
points="65981,41964
66218,41964
66218,42121
65981,42121
65981,41964
" /> 
<polyline style="fill-rule:evenodd;"
points="65981,42318
66218,42318
66218,42475
65981,42475
65981,42318
" /> 
<polyline style="fill-rule:evenodd;"
points="64761,35664
64998,35664
64998,35821
64761,35821
64761,35664
" /> 
<polyline style="fill-rule:evenodd;"
points="64761,36018
64998,36018
64998,36175
64761,36175
64761,36018
" /> 
<polyline style="fill-rule:evenodd;"
points="64578,36175
64341,36175
64341,36018
64578,36018
64578,36175
" /> 
<polyline style="fill-rule:evenodd;"
points="64578,35821
64341,35821
64341,35664
64578,35664
64578,35821
" /> 
<polyline style="fill-rule:evenodd;"
points="66001,35524
66238,35524
66238,35681
66001,35681
66001,35524
" /> 
<polyline style="fill-rule:evenodd;"
points="66001,35878
66238,35878
66238,36035
66001,36035
66001,35878
" /> 
<polyline style="fill-rule:evenodd;"
points="65818,36035
65581,36035
65581,35878
65818,35878
65818,36035
" /> 
<polyline style="fill-rule:evenodd;"
points="65818,35681
65581,35681
65581,35524
65818,35524
65818,35681
" /> 
<polyline style="fill-rule:evenodd;"
points="66444,36578
66444,36341
66601,36341
66601,36578
66444,36578
" /> 
<polyline style="fill-rule:evenodd;"
points="66798,36578
66798,36341
66955,36341
66955,36578
66798,36578
" /> 
<polyline style="fill-rule:evenodd;"
points="66444,37148
66444,36911
66601,36911
66601,37148
66444,37148
" /> 
<polyline style="fill-rule:evenodd;"
points="66798,37148
66798,36911
66955,36911
66955,37148
66798,37148
" /> 
</g> 
</svg>
