  0
SECTION
  2
HEADER
  9
$ANGBASE
  50
0.0
  9
$ANGDIR
  70
1
  9
$MEASUREMENT
  70
0
  0
ENDSEC
  0
SECTION
  2
TABLES
  0
TABLE
  2
LTYPE
  70
4
  0
LTYPE
  5
40F
  2
CONTINUOUS
  70
0
  3
Solid line
  72
65
  73
0
  40
0.0
  0
LTYPE
  5
410
  2
DASHDOT
 70
0
  3
Dash Dot ____ _ ____ _
 72
65
 73
4
 40
2.0
 49
1.25
 49
-0.25
 49
0.25
 49
-0.25
  0
LTYPE
  5
411
  2
DASHED
 70
0
  3
Dashed __ __ __ __ __
 72
65
 73
2
 40
0.75
 49
0.5
 49
-0.25
  0
LTYPE
  5
43B
  2
DOTTED
 70
0
  3
Dotted .  .  .  .
 72
65
 73
2
 40
0.2
 49
0.0
 49
-0.2
  0
ENDTAB
  0
TABLE
  2
STYLE
  70
4
  0
STYLE
  2
KICAD
  70
0
  40
0
  41
1
  42
1
  50
0
  71
0
  3
isocp.shx
  0
STYLE
  2
KICADB
  70
0
  40
0
  41
1
  42
1
  50
0
  71
0
  3
isocp.shx
  0
STYLE
  2
KICADI
  70
0
  40
0
  41
1
  42
1
  50
15
  71
0
  3
isocp.shx
  0
STYLE
  2
KICADBI
  70
0
  40
0
  41
1
  42
1
  50
15
  71
0
  3
isocp.shx
  0
ENDTAB
  0
TABLE
  2
LAYER
  70
1
  0
LAYER
  2
BLACK
  70
0
  62
7
  6
CONTINUOUS
  0
ENDTAB
  0
ENDSEC
  0
SECTION
  2
ENTITIES
0
LINE
8
BLACK
6
CONTINUOUS
10
-0.362774
20
-0.183214
11
-0.352027
21
-0.187666
0
LINE
8
BLACK
6
CONTINUOUS
10
-0.352027
20
-0.187666
11
-0.342355
21
-0.194129
0
LINE
8
BLACK
6
CONTINUOUS
10
-0.342355
20
-0.194129
11
-0.334129
21
-0.202355
0
LINE
8
BLACK
6
CONTINUOUS
10
-0.334129
20
-0.202355
11
-0.327666
21
-0.212027
0
LINE
8
BLACK
6
CONTINUOUS
10
-0.327666
20
-0.212027
11
-0.323214
21
-0.222774
0
LINE
8
BLACK
6
CONTINUOUS
10
-0.323214
20
-0.222774
11
-0.320945
21
-0.234184
0
LINE
8
BLACK
6
CONTINUOUS
10
-0.320945
20
-0.234184
11
-0.320945
21
-0.245816
0
LINE
8
BLACK
6
CONTINUOUS
10
-0.320945
20
-0.245816
11
-0.323214
21
-0.257226
0
LINE
8
BLACK
6
CONTINUOUS
10
-0.323214
20
-0.257226
11
-0.327666
21
-0.267973
0
LINE
8
BLACK
6
CONTINUOUS
10
-0.327666
20
-0.267973
11
-0.334129
21
-0.277645
0
LINE
8
BLACK
6
CONTINUOUS
10
-0.334129
20
-0.277645
11
-0.342355
21
-0.285871
0
LINE
8
BLACK
6
CONTINUOUS
10
-0.342355
20
-0.285871
11
-0.352027
21
-0.292334
0
LINE
8
BLACK
6
CONTINUOUS
10
-0.352027
20
-0.292334
11
-0.362774
21
-0.296786
0
LINE
8
BLACK
6
CONTINUOUS
10
-0.362774
20
-0.296786
11
-0.374184
21
-0.299055
0
LINE
8
BLACK
6
CONTINUOUS
10
-0.374184
20
-0.299055
11
-0.385816
21
-0.299055
0
LINE
8
BLACK
6
CONTINUOUS
10
-0.385816
20
-0.299055
11
-0.397226
21
-0.296786
0
LINE
8
BLACK
6
CONTINUOUS
10
-0.397226
20
-0.296786
11
-0.407973
21
-0.292334
0
LINE
8
BLACK
6
CONTINUOUS
10
-0.407973
20
-0.292334
11
-0.417645
21
-0.285871
0
LINE
8
BLACK
6
CONTINUOUS
10
-0.417645
20
-0.285871
11
-0.425871
21
-0.277645
0
LINE
8
BLACK
6
CONTINUOUS
10
-0.425871
20
-0.277645
11
-0.432334
21
-0.267973
0
LINE
8
BLACK
6
CONTINUOUS
10
-0.432334
20
-0.267973
11
-0.436786
21
-0.257226
0
LINE
8
BLACK
6
CONTINUOUS
10
-0.436786
20
-0.257226
11
-0.439055
21
-0.245816
0
LINE
8
BLACK
6
CONTINUOUS
10
-0.439055
20
-0.245816
11
-0.439055
21
-0.234184
0
LINE
8
BLACK
6
CONTINUOUS
10
-0.439055
20
-0.234184
11
-0.436786
21
-0.222774
0
LINE
8
BLACK
6
CONTINUOUS
10
-0.436786
20
-0.222774
11
-0.432334
21
-0.212027
0
LINE
8
BLACK
6
CONTINUOUS
10
-0.432334
20
-0.212027
11
-0.425871
21
-0.202355
0
LINE
8
BLACK
6
CONTINUOUS
10
-0.425871
20
-0.202355
11
-0.417645
21
-0.194129
0
LINE
8
BLACK
6
CONTINUOUS
10
-0.417645
20
-0.194129
11
-0.407973
21
-0.187666
0
LINE
8
BLACK
6
CONTINUOUS
10
-0.407973
20
-0.187666
11
-0.397226
21
-0.183214
0
LINE
8
BLACK
6
CONTINUOUS
10
-0.397226
20
-0.183214
11
-0.385816
21
-0.180945
0
LINE
8
BLACK
6
CONTINUOUS
10
-0.385816
20
-0.180945
11
-0.374184
21
-0.180945
0
LINE
8
BLACK
6
CONTINUOUS
10
-0.374184
20
-0.180945
11
-0.362774
21
-0.183214
0
LINE
8
BLACK
6
CONTINUOUS
10
1.40723
20
-0.0832143
11
1.41797
21
-0.087666
0
LINE
8
BLACK
6
CONTINUOUS
10
1.41797
20
-0.087666
11
1.42765
21
-0.0941289
0
LINE
8
BLACK
6
CONTINUOUS
10
1.42765
20
-0.0941289
11
1.43587
21
-0.102355
0
LINE
8
BLACK
6
CONTINUOUS
10
1.43587
20
-0.102355
11
1.44233
21
-0.112027
0
LINE
8
BLACK
6
CONTINUOUS
10
1.44233
20
-0.112027
11
1.44679
21
-0.122774
0
LINE
8
BLACK
6
CONTINUOUS
10
1.44679
20
-0.122774
11
1.44906
21
-0.134184
0
LINE
8
BLACK
6
CONTINUOUS
10
1.44906
20
-0.134184
11
1.44906
21
-0.145816
0
LINE
8
BLACK
6
CONTINUOUS
10
1.44906
20
-0.145816
11
1.44679
21
-0.157226
0
LINE
8
BLACK
6
CONTINUOUS
10
1.44679
20
-0.157226
11
1.44233
21
-0.167973
0
LINE
8
BLACK
6
CONTINUOUS
10
1.44233
20
-0.167973
11
1.43587
21
-0.177645
0
LINE
8
BLACK
6
CONTINUOUS
10
1.43587
20
-0.177645
11
1.42765
21
-0.185871
0
LINE
8
BLACK
6
CONTINUOUS
10
1.42765
20
-0.185871
11
1.41797
21
-0.192334
0
LINE
8
BLACK
6
CONTINUOUS
10
1.41797
20
-0.192334
11
1.40723
21
-0.196786
0
LINE
8
BLACK
6
CONTINUOUS
10
1.40723
20
-0.196786
11
1.39582
21
-0.199055
0
LINE
8
BLACK
6
CONTINUOUS
10
1.39582
20
-0.199055
11
1.38418
21
-0.199055
0
LINE
8
BLACK
6
CONTINUOUS
10
1.38418
20
-0.199055
11
1.37277
21
-0.196786
0
LINE
8
BLACK
6
CONTINUOUS
10
1.37277
20
-0.196786
11
1.36203
21
-0.192334
0
LINE
8
BLACK
6
CONTINUOUS
10
1.36203
20
-0.192334
11
1.35235
21
-0.185871
0
LINE
8
BLACK
6
CONTINUOUS
10
1.35235
20
-0.185871
11
1.34413
21
-0.177645
0
LINE
8
BLACK
6
CONTINUOUS
10
1.34413
20
-0.177645
11
1.33767
21
-0.167973
0
LINE
8
BLACK
6
CONTINUOUS
10
1.33767
20
-0.167973
11
1.33321
21
-0.157226
0
LINE
8
BLACK
6
CONTINUOUS
10
1.33321
20
-0.157226
11
1.33094
21
-0.145816
0
LINE
8
BLACK
6
CONTINUOUS
10
1.33094
20
-0.145816
11
1.33094
21
-0.134184
0
LINE
8
BLACK
6
CONTINUOUS
10
1.33094
20
-0.134184
11
1.33321
21
-0.122774
0
LINE
8
BLACK
6
CONTINUOUS
10
1.33321
20
-0.122774
11
1.33767
21
-0.112027
0
LINE
8
BLACK
6
CONTINUOUS
10
1.33767
20
-0.112027
11
1.34413
21
-0.102355
0
LINE
8
BLACK
6
CONTINUOUS
10
1.34413
20
-0.102355
11
1.35235
21
-0.0941289
0
LINE
8
BLACK
6
CONTINUOUS
10
1.35235
20
-0.0941289
11
1.36203
21
-0.087666
0
LINE
8
BLACK
6
CONTINUOUS
10
1.36203
20
-0.087666
11
1.37277
21
-0.0832143
0
LINE
8
BLACK
6
CONTINUOUS
10
1.37277
20
-0.0832143
11
1.38418
21
-0.0809449
0
LINE
8
BLACK
6
CONTINUOUS
10
1.38418
20
-0.0809449
11
1.39582
21
-0.0809449
0
LINE
8
BLACK
6
CONTINUOUS
10
1.39582
20
-0.0809449
11
1.40723
21
-0.0832143
0
LINE
8
BLACK
6
CONTINUOUS
10
-0.572774
20
0.0867857
11
-0.562027
21
0.082334
0
LINE
8
BLACK
6
CONTINUOUS
10
-0.562027
20
0.082334
11
-0.552355
21
0.0758711
0
LINE
8
BLACK
6
CONTINUOUS
10
-0.552355
20
0.0758711
11
-0.544129
21
0.0676454
0
LINE
8
BLACK
6
CONTINUOUS
10
-0.544129
20
0.0676454
11
-0.537666
21
0.0579731
0
LINE
8
BLACK
6
CONTINUOUS
10
-0.537666
20
0.0579731
11
-0.533214
21
0.0472257
0
LINE
8
BLACK
6
CONTINUOUS
10
-0.533214
20
0.0472257
11
-0.530945
21
0.0358164
0
LINE
8
BLACK
6
CONTINUOUS
10
-0.530945
20
0.0358164
11
-0.530945
21
0.0241836
0
LINE
8
BLACK
6
CONTINUOUS
10
-0.530945
20
0.0241836
11
-0.533214
21
0.0127743
0
LINE
8
BLACK
6
CONTINUOUS
10
-0.533214
20
0.0127743
11
-0.537666
21
0.00202689
0
LINE
8
BLACK
6
CONTINUOUS
10
-0.537666
20
0.00202689
11
-0.544129
21
-0.00764543
0
LINE
8
BLACK
6
CONTINUOUS
10
-0.544129
20
-0.00764543
11
-0.552355
21
-0.0158711
0
LINE
8
BLACK
6
CONTINUOUS
10
-0.552355
20
-0.0158711
11
-0.562027
21
-0.022334
0
LINE
8
BLACK
6
CONTINUOUS
10
-0.562027
20
-0.022334
11
-0.572774
21
-0.0267857
0
LINE
8
BLACK
6
CONTINUOUS
10
-0.572774
20
-0.0267857
11
-0.584184
21
-0.0290551
0
LINE
8
BLACK
6
CONTINUOUS
10
-0.584184
20
-0.0290551
11
-0.595816
21
-0.0290551
0
LINE
8
BLACK
6
CONTINUOUS
10
-0.595816
20
-0.0290551
11
-0.607226
21
-0.0267857
0
LINE
8
BLACK
6
CONTINUOUS
10
-0.607226
20
-0.0267857
11
-0.617973
21
-0.022334
0
LINE
8
BLACK
6
CONTINUOUS
10
-0.617973
20
-0.022334
11
-0.627645
21
-0.0158711
0
LINE
8
BLACK
6
CONTINUOUS
10
-0.627645
20
-0.0158711
11
-0.635871
21
-0.00764543
0
LINE
8
BLACK
6
CONTINUOUS
10
-0.635871
20
-0.00764543
11
-0.642334
21
0.00202689
0
LINE
8
BLACK
6
CONTINUOUS
10
-0.642334
20
0.00202689
11
-0.646786
21
0.0127743
0
LINE
8
BLACK
6
CONTINUOUS
10
-0.646786
20
0.0127743
11
-0.649055
21
0.0241836
0
LINE
8
BLACK
6
CONTINUOUS
10
-0.649055
20
0.0241836
11
-0.649055
21
0.0358164
0
LINE
8
BLACK
6
CONTINUOUS
10
-0.649055
20
0.0358164
11
-0.646786
21
0.0472257
0
LINE
8
BLACK
6
CONTINUOUS
10
-0.646786
20
0.0472257
11
-0.642334
21
0.0579731
0
LINE
8
BLACK
6
CONTINUOUS
10
-0.642334
20
0.0579731
11
-0.635871
21
0.0676454
0
LINE
8
BLACK
6
CONTINUOUS
10
-0.635871
20
0.0676454
11
-0.627645
21
0.0758711
0
LINE
8
BLACK
6
CONTINUOUS
10
-0.627645
20
0.0758711
11
-0.617973
21
0.082334
0
LINE
8
BLACK
6
CONTINUOUS
10
-0.617973
20
0.082334
11
-0.607226
21
0.0867857
0
LINE
8
BLACK
6
CONTINUOUS
10
-0.607226
20
0.0867857
11
-0.595816
21
0.0890551
0
LINE
8
BLACK
6
CONTINUOUS
10
-0.595816
20
0.0890551
11
-0.584184
21
0.0890551
0
LINE
8
BLACK
6
CONTINUOUS
10
-0.584184
20
0.0890551
11
-0.572774
21
0.0867857
0
LINE
8
BLACK
6
CONTINUOUS
10
1.33723
20
0.196786
11
1.34797
21
0.192334
0
LINE
8
BLACK
6
CONTINUOUS
10
1.34797
20
0.192334
11
1.35765
21
0.185871
0
LINE
8
BLACK
6
CONTINUOUS
10
1.35765
20
0.185871
11
1.36587
21
0.177645
0
LINE
8
BLACK
6
CONTINUOUS
10
1.36587
20
0.177645
11
1.37233
21
0.167973
0
LINE
8
BLACK
6
CONTINUOUS
10
1.37233
20
0.167973
11
1.37679
21
0.157226
0
LINE
8
BLACK
6
CONTINUOUS
10
1.37679
20
0.157226
11
1.37906
21
0.145816
0
LINE
8
BLACK
6
CONTINUOUS
10
1.37906
20
0.145816
11
1.37906
21
0.134184
0
LINE
8
BLACK
6
CONTINUOUS
10
1.37906
20
0.134184
11
1.37679
21
0.122774
0
LINE
8
BLACK
6
CONTINUOUS
10
1.37679
20
0.122774
11
1.37233
21
0.112027
0
LINE
8
BLACK
6
CONTINUOUS
10
1.37233
20
0.112027
11
1.36587
21
0.102355
0
LINE
8
BLACK
6
CONTINUOUS
10
1.36587
20
0.102355
11
1.35765
21
0.0941289
0
LINE
8
BLACK
6
CONTINUOUS
10
1.35765
20
0.0941289
11
1.34797
21
0.087666
0
LINE
8
BLACK
6
CONTINUOUS
10
1.34797
20
0.087666
11
1.33723
21
0.0832143
0
LINE
8
BLACK
6
CONTINUOUS
10
1.33723
20
0.0832143
11
1.32582
21
0.0809449
0
LINE
8
BLACK
6
CONTINUOUS
10
1.32582
20
0.0809449
11
1.31418
21
0.0809449
0
LINE
8
BLACK
6
CONTINUOUS
10
1.31418
20
0.0809449
11
1.30277
21
0.0832143
0
LINE
8
BLACK
6
CONTINUOUS
10
1.30277
20
0.0832143
11
1.29203
21
0.087666
0
LINE
8
BLACK
6
CONTINUOUS
10
1.29203
20
0.087666
11
1.28235
21
0.0941289
0
LINE
8
BLACK
6
CONTINUOUS
10
1.28235
20
0.0941289
11
1.27413
21
0.102355
0
LINE
8
BLACK
6
CONTINUOUS
10
1.27413
20
0.102355
11
1.26767
21
0.112027
0
LINE
8
BLACK
6
CONTINUOUS
10
1.26767
20
0.112027
11
1.26321
21
0.122774
0
LINE
8
BLACK
6
CONTINUOUS
10
1.26321
20
0.122774
11
1.26094
21
0.134184
0
LINE
8
BLACK
6
CONTINUOUS
10
1.26094
20
0.134184
11
1.26094
21
0.145816
0
LINE
8
BLACK
6
CONTINUOUS
10
1.26094
20
0.145816
11
1.26321
21
0.157226
0
LINE
8
BLACK
6
CONTINUOUS
10
1.26321
20
0.157226
11
1.26767
21
0.167973
0
LINE
8
BLACK
6
CONTINUOUS
10
1.26767
20
0.167973
11
1.27413
21
0.177645
0
LINE
8
BLACK
6
CONTINUOUS
10
1.27413
20
0.177645
11
1.28235
21
0.185871
0
LINE
8
BLACK
6
CONTINUOUS
10
1.28235
20
0.185871
11
1.29203
21
0.192334
0
LINE
8
BLACK
6
CONTINUOUS
10
1.29203
20
0.192334
11
1.30277
21
0.196786
0
LINE
8
BLACK
6
CONTINUOUS
10
1.30277
20
0.196786
11
1.31418
21
0.199055
0
LINE
8
BLACK
6
CONTINUOUS
10
1.31418
20
0.199055
11
1.32582
21
0.199055
0
LINE
8
BLACK
6
CONTINUOUS
10
1.32582
20
0.199055
11
1.33723
21
0.196786
0
LINE
8
BLACK
6
CONTINUOUS
10
0.384965
20
0.43085
11
0.385892
21
0.430569
0
LINE
8
BLACK
6
CONTINUOUS
10
0.385892
20
0.430569
11
0.386747
21
0.430112
0
LINE
8
BLACK
6
CONTINUOUS
10
0.386747
20
0.430112
11
0.387497
21
0.429497
0
LINE
8
BLACK
6
CONTINUOUS
10
0.387497
20
0.429497
11
0.388112
21
0.428747
0
LINE
8
BLACK
6
CONTINUOUS
10
0.388112
20
0.428747
11
0.388569
21
0.427892
0
LINE
8
BLACK
6
CONTINUOUS
10
0.388569
20
0.427892
11
0.38885
21
0.426965
0
LINE
8
BLACK
6
CONTINUOUS
10
0.38885
20
0.426965
11
0.388921
21
0.426241
0
LINE
8
BLACK
6
CONTINUOUS
10
0.388921
20
0.426241
11
0.388921
21
0.241741
0
LINE
8
BLACK
6
CONTINUOUS
10
0.388921
20
0.241741
11
0.388945
21
0.2415
0
LINE
8
BLACK
6
CONTINUOUS
10
0.388945
20
0.2415
11
0.388921
21
0.241259
0
LINE
8
BLACK
6
CONTINUOUS
10
0.388921
20
0.241259
11
0.388921
21
0.241259
0
LINE
8
BLACK
6
CONTINUOUS
10
0.388921
20
0.241259
11
0.38885
21
0.240535
0
LINE
8
BLACK
6
CONTINUOUS
10
0.38885
20
0.240535
11
0.388569
21
0.239608
0
LINE
8
BLACK
6
CONTINUOUS
10
0.388569
20
0.239608
11
0.388112
21
0.238753
0
LINE
8
BLACK
6
CONTINUOUS
10
0.388112
20
0.238753
11
0.388112
21
0.238753
0
LINE
8
BLACK
6
CONTINUOUS
10
0.388112
20
0.238753
11
0.387651
21
0.238191
0
LINE
8
BLACK
6
CONTINUOUS
10
0.387651
20
0.238191
11
0.38765
21
0.238191
0
LINE
8
BLACK
6
CONTINUOUS
10
0.38765
20
0.238191
11
0.387497
21
0.238003
0
LINE
8
BLACK
6
CONTINUOUS
10
0.387497
20
0.238003
11
0.387309
21
0.23785
0
LINE
8
BLACK
6
CONTINUOUS
10
0.387309
20
0.23785
11
0.369651
21
0.220191
0
LINE
8
BLACK
6
CONTINUOUS
10
0.369651
20
0.220191
11
0.369651
21
0.220191
0
LINE
8
BLACK
6
CONTINUOUS
10
0.369651
20
0.220191
11
0.273309
21
0.123849
0
LINE
8
BLACK
6
CONTINUOUS
10
0.273309
20
0.123849
11
0.272747
21
0.123388
0
LINE
8
BLACK
6
CONTINUOUS
10
0.272747
20
0.123388
11
0.271892
21
0.122931
0
LINE
8
BLACK
6
CONTINUOUS
10
0.271892
20
0.122931
11
0.270965
21
0.12265
0
LINE
8
BLACK
6
CONTINUOUS
10
0.270965
20
0.12265
11
0.27
21
0.122555
0
LINE
8
BLACK
6
CONTINUOUS
10
0.27
20
0.122555
11
0.269035
21
0.12265
0
LINE
8
BLACK
6
CONTINUOUS
10
0.269035
20
0.12265
11
0.268108
21
0.122931
0
LINE
8
BLACK
6
CONTINUOUS
10
0.268108
20
0.122931
11
0.267253
21
0.123388
0
LINE
8
BLACK
6
CONTINUOUS
10
0.267253
20
0.123388
11
0.266503
21
0.124003
0
LINE
8
BLACK
6
CONTINUOUS
10
0.266503
20
0.124003
11
0.265888
21
0.124753
0
LINE
8
BLACK
6
CONTINUOUS
10
0.265888
20
0.124753
11
0.265431
21
0.125608
0
LINE
8
BLACK
6
CONTINUOUS
10
0.265431
20
0.125608
11
0.26515
21
0.126535
0
LINE
8
BLACK
6
CONTINUOUS
10
0.26515
20
0.126535
11
0.265055
21
0.1275
0
LINE
8
BLACK
6
CONTINUOUS
10
0.265055
20
0.1275
11
0.26515
21
0.128465
0
LINE
8
BLACK
6
CONTINUOUS
10
0.26515
20
0.128465
11
0.265431
21
0.129392
0
LINE
8
BLACK
6
CONTINUOUS
10
0.265431
20
0.129392
11
0.265888
21
0.130247
0
LINE
8
BLACK
6
CONTINUOUS
10
0.265888
20
0.130247
11
0.266349
21
0.130809
0
LINE
8
BLACK
6
CONTINUOUS
10
0.266349
20
0.130809
11
0.362691
21
0.227151
0
LINE
8
BLACK
6
CONTINUOUS
10
0.362691
20
0.227151
11
0.362691
21
0.227151
0
LINE
8
BLACK
6
CONTINUOUS
10
0.362691
20
0.227151
11
0.379079
21
0.243538
0
LINE
8
BLACK
6
CONTINUOUS
10
0.379079
20
0.243538
11
0.379079
21
0.426241
0
LINE
8
BLACK
6
CONTINUOUS
10
0.379079
20
0.426241
11
0.37915
21
0.426965
0
LINE
8
BLACK
6
CONTINUOUS
10
0.37915
20
0.426965
11
0.379431
21
0.427892
0
LINE
8
BLACK
6
CONTINUOUS
10
0.379431
20
0.427892
11
0.379888
21
0.428747
0
LINE
8
BLACK
6
CONTINUOUS
10
0.379888
20
0.428747
11
0.380503
21
0.429497
0
LINE
8
BLACK
6
CONTINUOUS
10
0.380503
20
0.429497
11
0.381253
21
0.430112
0
LINE
8
BLACK
6
CONTINUOUS
10
0.381253
20
0.430112
11
0.382108
21
0.430569
0
LINE
8
BLACK
6
CONTINUOUS
10
0.382108
20
0.430569
11
0.383035
21
0.43085
0
LINE
8
BLACK
6
CONTINUOUS
10
0.383035
20
0.43085
11
0.384
21
0.430945
0
LINE
8
BLACK
6
CONTINUOUS
10
0.384
20
0.430945
11
0.384965
21
0.43085
0
LINE
8
BLACK
6
CONTINUOUS
10
0.506965
20
0.37885
11
0.507892
21
0.378569
0
LINE
8
BLACK
6
CONTINUOUS
10
0.507892
20
0.378569
11
0.508747
21
0.378112
0
LINE
8
BLACK
6
CONTINUOUS
10
0.508747
20
0.378112
11
0.509497
21
0.377497
0
LINE
8
BLACK
6
CONTINUOUS
10
0.509497
20
0.377497
11
0.510112
21
0.376747
0
LINE
8
BLACK
6
CONTINUOUS
10
0.510112
20
0.376747
11
0.510569
21
0.375892
0
LINE
8
BLACK
6
CONTINUOUS
10
0.510569
20
0.375892
11
0.51085
21
0.374965
0
LINE
8
BLACK
6
CONTINUOUS
10
0.51085
20
0.374965
11
0.510921
21
0.374241
0
LINE
8
BLACK
6
CONTINUOUS
10
0.510921
20
0.374241
11
0.510921
21
0.292646
0
LINE
8
BLACK
6
CONTINUOUS
10
0.510921
20
0.292646
11
0.67342
21
0.130147
0
LINE
8
BLACK
6
CONTINUOUS
10
0.67342
20
0.130147
11
0.673789
21
0.129698
0
LINE
8
BLACK
6
CONTINUOUS
10
0.673789
20
0.129698
11
0.674155
21
0.129014
0
LINE
8
BLACK
6
CONTINUOUS
10
0.674155
20
0.129014
11
0.67438
21
0.128272
0
LINE
8
BLACK
6
CONTINUOUS
10
0.67438
20
0.128272
11
0.674456
21
0.1275
0
LINE
8
BLACK
6
CONTINUOUS
10
0.674456
20
0.1275
11
0.67438
21
0.126728
0
LINE
8
BLACK
6
CONTINUOUS
10
0.67438
20
0.126728
11
0.674155
21
0.125986
0
LINE
8
BLACK
6
CONTINUOUS
10
0.674155
20
0.125986
11
0.673789
21
0.125302
0
LINE
8
BLACK
6
CONTINUOUS
10
0.673789
20
0.125302
11
0.673297
21
0.124703
0
LINE
8
BLACK
6
CONTINUOUS
10
0.673297
20
0.124703
11
0.672698
21
0.124211
0
LINE
8
BLACK
6
CONTINUOUS
10
0.672698
20
0.124211
11
0.672014
21
0.123845
0
LINE
8
BLACK
6
CONTINUOUS
10
0.672014
20
0.123845
11
0.671272
21
0.12362
0
LINE
8
BLACK
6
CONTINUOUS
10
0.671272
20
0.12362
11
0.6705
21
0.123544
0
LINE
8
BLACK
6
CONTINUOUS
10
0.6705
20
0.123544
11
0.669728
21
0.12362
0
LINE
8
BLACK
6
CONTINUOUS
10
0.669728
20
0.12362
11
0.668986
21
0.123845
0
LINE
8
BLACK
6
CONTINUOUS
10
0.668986
20
0.123845
11
0.668302
21
0.124211
0
LINE
8
BLACK
6
CONTINUOUS
10
0.668302
20
0.124211
11
0.667853
21
0.12458
0
LINE
8
BLACK
6
CONTINUOUS
10
0.667853
20
0.12458
11
0.505309
21
0.287123
0
LINE
8
BLACK
6
CONTINUOUS
10
0.505309
20
0.287123
11
0.505035
21
0.28715
0
LINE
8
BLACK
6
CONTINUOUS
10
0.505035
20
0.28715
11
0.504108
21
0.287431
0
LINE
8
BLACK
6
CONTINUOUS
10
0.504108
20
0.287431
11
0.503253
21
0.287888
0
LINE
8
BLACK
6
CONTINUOUS
10
0.503253
20
0.287888
11
0.502503
21
0.288503
0
LINE
8
BLACK
6
CONTINUOUS
10
0.502503
20
0.288503
11
0.501888
21
0.289253
0
LINE
8
BLACK
6
CONTINUOUS
10
0.501888
20
0.289253
11
0.501431
21
0.290108
0
LINE
8
BLACK
6
CONTINUOUS
10
0.501431
20
0.290108
11
0.50115
21
0.291035
0
LINE
8
BLACK
6
CONTINUOUS
10
0.50115
20
0.291035
11
0.501079
21
0.291759
0
LINE
8
BLACK
6
CONTINUOUS
10
0.501079
20
0.291759
11
0.501079
21
0.374241
0
LINE
8
BLACK
6
CONTINUOUS
10
0.501079
20
0.374241
11
0.50115
21
0.374965
0
LINE
8
BLACK
6
CONTINUOUS
10
0.50115
20
0.374965
11
0.501431
21
0.375892
0
LINE
8
BLACK
6
CONTINUOUS
10
0.501431
20
0.375892
11
0.501888
21
0.376747
0
LINE
8
BLACK
6
CONTINUOUS
10
0.501888
20
0.376747
11
0.502503
21
0.377497
0
LINE
8
BLACK
6
CONTINUOUS
10
0.502503
20
0.377497
11
0.503253
21
0.378112
0
LINE
8
BLACK
6
CONTINUOUS
10
0.503253
20
0.378112
11
0.504108
21
0.378569
0
LINE
8
BLACK
6
CONTINUOUS
10
0.504108
20
0.378569
11
0.505035
21
0.37885
0
LINE
8
BLACK
6
CONTINUOUS
10
0.505035
20
0.37885
11
0.506
21
0.378945
0
LINE
8
BLACK
6
CONTINUOUS
10
0.506
20
0.378945
11
0.506965
21
0.37885
0
LINE
8
BLACK
6
CONTINUOUS
10
1.35976
20
0.472179
11
1.36585
21
0.469656
0
LINE
8
BLACK
6
CONTINUOUS
10
1.36585
20
0.469656
11
1.37133
21
0.465994
0
LINE
8
BLACK
6
CONTINUOUS
10
1.37133
20
0.465994
11
1.37599
21
0.461332
0
LINE
8
BLACK
6
CONTINUOUS
10
1.37599
20
0.461332
11
1.37966
21
0.455851
0
LINE
8
BLACK
6
CONTINUOUS
10
1.37966
20
0.455851
11
1.38218
21
0.449761
0
LINE
8
BLACK
6
CONTINUOUS
10
1.38218
20
0.449761
11
1.38346
21
0.443296
0
LINE
8
BLACK
6
CONTINUOUS
10
1.38346
20
0.443296
11
1.38346
21
0.436704
0
LINE
8
BLACK
6
CONTINUOUS
10
1.38346
20
0.436704
11
1.38218
21
0.430239
0
LINE
8
BLACK
6
CONTINUOUS
10
1.38218
20
0.430239
11
1.37966
21
0.424149
0
LINE
8
BLACK
6
CONTINUOUS
10
1.37966
20
0.424149
11
1.37599
21
0.418668
0
LINE
8
BLACK
6
CONTINUOUS
10
1.37599
20
0.418668
11
1.37133
21
0.414006
0
LINE
8
BLACK
6
CONTINUOUS
10
1.37133
20
0.414006
11
1.36585
21
0.410344
0
LINE
8
BLACK
6
CONTINUOUS
10
1.36585
20
0.410344
11
1.35976
21
0.407821
0
LINE
8
BLACK
6
CONTINUOUS
10
1.35976
20
0.407821
11
1.3533
21
0.406535
0
LINE
8
BLACK
6
CONTINUOUS
10
1.3533
20
0.406535
11
1.3467
21
0.406535
0
LINE
8
BLACK
6
CONTINUOUS
10
1.3467
20
0.406535
11
1.34024
21
0.407821
0
LINE
8
BLACK
6
CONTINUOUS
10
1.34024
20
0.407821
11
1.33415
21
0.410344
0
LINE
8
BLACK
6
CONTINUOUS
10
1.33415
20
0.410344
11
1.32867
21
0.414006
0
LINE
8
BLACK
6
CONTINUOUS
10
1.32867
20
0.414006
11
1.32401
21
0.418668
0
LINE
8
BLACK
6
CONTINUOUS
10
1.32401
20
0.418668
11
1.32034
21
0.424149
0
LINE
8
BLACK
6
CONTINUOUS
10
1.32034
20
0.424149
11
1.31782
21
0.430239
0
LINE
8
BLACK
6
CONTINUOUS
10
1.31782
20
0.430239
11
1.31654
21
0.436704
0
LINE
8
BLACK
6
CONTINUOUS
10
1.31654
20
0.436704
11
1.31654
21
0.443296
0
LINE
8
BLACK
6
CONTINUOUS
10
1.31654
20
0.443296
11
1.31782
21
0.449761
0
LINE
8
BLACK
6
CONTINUOUS
10
1.31782
20
0.449761
11
1.32034
21
0.455851
0
LINE
8
BLACK
6
CONTINUOUS
10
1.32034
20
0.455851
11
1.32401
21
0.461332
0
LINE
8
BLACK
6
CONTINUOUS
10
1.32401
20
0.461332
11
1.32867
21
0.465994
0
LINE
8
BLACK
6
CONTINUOUS
10
1.32867
20
0.465994
11
1.33415
21
0.469656
0
LINE
8
BLACK
6
CONTINUOUS
10
1.33415
20
0.469656
11
1.34024
21
0.472179
0
LINE
8
BLACK
6
CONTINUOUS
10
1.34024
20
0.472179
11
1.3467
21
0.473465
0
LINE
8
BLACK
6
CONTINUOUS
10
1.3467
20
0.473465
11
1.3533
21
0.473465
0
LINE
8
BLACK
6
CONTINUOUS
10
1.3533
20
0.473465
11
1.35976
21
0.472179
0
LINE
8
BLACK
6
CONTINUOUS
10
0.628225
20
0.510094
11
0.630016
21
0.509352
0
LINE
8
BLACK
6
CONTINUOUS
10
0.630016
20
0.509352
11
0.631628
21
0.508275
0
LINE
8
BLACK
6
CONTINUOUS
10
0.631628
20
0.508275
11
0.632999
21
0.506904
0
LINE
8
BLACK
6
CONTINUOUS
10
0.632999
20
0.506904
11
0.634076
21
0.505292
0
LINE
8
BLACK
6
CONTINUOUS
10
0.634076
20
0.505292
11
0.634818
21
0.503501
0
LINE
8
BLACK
6
CONTINUOUS
10
0.634818
20
0.503501
11
0.635196
21
0.501599
0
LINE
8
BLACK
6
CONTINUOUS
10
0.635196
20
0.501599
11
0.635196
21
0.499661
0
LINE
8
BLACK
6
CONTINUOUS
10
0.635196
20
0.499661
11
0.634818
21
0.497759
0
LINE
8
BLACK
6
CONTINUOUS
10
0.634818
20
0.497759
11
0.634076
21
0.495968
0
LINE
8
BLACK
6
CONTINUOUS
10
0.634076
20
0.495968
11
0.632999
21
0.494356
0
LINE
8
BLACK
6
CONTINUOUS
10
0.632999
20
0.494356
11
0.631628
21
0.492985
0
LINE
8
BLACK
6
CONTINUOUS
10
0.631628
20
0.492985
11
0.630016
21
0.491908
0
LINE
8
BLACK
6
CONTINUOUS
10
0.630016
20
0.491908
11
0.628225
21
0.491166
0
LINE
8
BLACK
6
CONTINUOUS
10
0.628225
20
0.491166
11
0.626323
21
0.490787
0
LINE
8
BLACK
6
CONTINUOUS
10
0.626323
20
0.490787
11
0.624385
21
0.490787
0
LINE
8
BLACK
6
CONTINUOUS
10
0.624385
20
0.490787
11
0.622483
21
0.491166
0
LINE
8
BLACK
6
CONTINUOUS
10
0.622483
20
0.491166
11
0.620692
21
0.491908
0
LINE
8
BLACK
6
CONTINUOUS
10
0.620692
20
0.491908
11
0.61908
21
0.492985
0
LINE
8
BLACK
6
CONTINUOUS
10
0.61908
20
0.492985
11
0.617709
21
0.494356
0
LINE
8
BLACK
6
CONTINUOUS
10
0.617709
20
0.494356
11
0.616632
21
0.495968
0
LINE
8
BLACK
6
CONTINUOUS
10
0.616632
20
0.495968
11
0.61589
21
0.497759
0
LINE
8
BLACK
6
CONTINUOUS
10
0.61589
20
0.497759
11
0.615511
21
0.499661
0
LINE
8
BLACK
6
CONTINUOUS
10
0.615511
20
0.499661
11
0.615511
21
0.501599
0
LINE
8
BLACK
6
CONTINUOUS
10
0.615511
20
0.501599
11
0.61589
21
0.503501
0
LINE
8
BLACK
6
CONTINUOUS
10
0.61589
20
0.503501
11
0.616632
21
0.505292
0
LINE
8
BLACK
6
CONTINUOUS
10
0.616632
20
0.505292
11
0.617709
21
0.506904
0
LINE
8
BLACK
6
CONTINUOUS
10
0.617709
20
0.506904
11
0.61908
21
0.508275
0
LINE
8
BLACK
6
CONTINUOUS
10
0.61908
20
0.508275
11
0.620692
21
0.509352
0
LINE
8
BLACK
6
CONTINUOUS
10
0.620692
20
0.509352
11
0.622483
21
0.510094
0
LINE
8
BLACK
6
CONTINUOUS
10
0.622483
20
0.510094
11
0.624385
21
0.510472
0
LINE
8
BLACK
6
CONTINUOUS
10
0.624385
20
0.510472
11
0.626323
21
0.510472
0
LINE
8
BLACK
6
CONTINUOUS
10
0.626323
20
0.510472
11
0.628225
21
0.510094
0
LINE
8
BLACK
6
CONTINUOUS
10
0.52769
20
0.510094
11
0.529481
21
0.509352
0
LINE
8
BLACK
6
CONTINUOUS
10
0.529481
20
0.509352
11
0.531093
21
0.508275
0
LINE
8
BLACK
6
CONTINUOUS
10
0.531093
20
0.508275
11
0.532464
21
0.506904
0
LINE
8
BLACK
6
CONTINUOUS
10
0.532464
20
0.506904
11
0.533541
21
0.505292
0
LINE
8
BLACK
6
CONTINUOUS
10
0.533541
20
0.505292
11
0.534283
21
0.503501
0
LINE
8
BLACK
6
CONTINUOUS
10
0.534283
20
0.503501
11
0.534661
21
0.501599
0
LINE
8
BLACK
6
CONTINUOUS
10
0.534661
20
0.501599
11
0.534661
21
0.499661
0
LINE
8
BLACK
6
CONTINUOUS
10
0.534661
20
0.499661
11
0.534283
21
0.497759
0
LINE
8
BLACK
6
CONTINUOUS
10
0.534283
20
0.497759
11
0.533541
21
0.495968
0
LINE
8
BLACK
6
CONTINUOUS
10
0.533541
20
0.495968
11
0.532464
21
0.494356
0
LINE
8
BLACK
6
CONTINUOUS
10
0.532464
20
0.494356
11
0.531093
21
0.492985
0
LINE
8
BLACK
6
CONTINUOUS
10
0.531093
20
0.492985
11
0.529481
21
0.491908
0
LINE
8
BLACK
6
CONTINUOUS
10
0.529481
20
0.491908
11
0.52769
21
0.491166
0
LINE
8
BLACK
6
CONTINUOUS
10
0.52769
20
0.491166
11
0.525788
21
0.490787
0
LINE
8
BLACK
6
CONTINUOUS
10
0.525788
20
0.490787
11
0.523849
21
0.490787
0
LINE
8
BLACK
6
CONTINUOUS
10
0.523849
20
0.490787
11
0.521948
21
0.491166
0
LINE
8
BLACK
6
CONTINUOUS
10
0.521948
20
0.491166
11
0.520157
21
0.491908
0
LINE
8
BLACK
6
CONTINUOUS
10
0.520157
20
0.491908
11
0.518545
21
0.492985
0
LINE
8
BLACK
6
CONTINUOUS
10
0.518545
20
0.492985
11
0.517174
21
0.494356
0
LINE
8
BLACK
6
CONTINUOUS
10
0.517174
20
0.494356
11
0.516097
21
0.495968
0
LINE
8
BLACK
6
CONTINUOUS
10
0.516097
20
0.495968
11
0.515355
21
0.497759
0
LINE
8
BLACK
6
CONTINUOUS
10
0.515355
20
0.497759
11
0.514976
21
0.499661
0
LINE
8
BLACK
6
CONTINUOUS
10
0.514976
20
0.499661
11
0.514976
21
0.501599
0
LINE
8
BLACK
6
CONTINUOUS
10
0.514976
20
0.501599
11
0.515355
21
0.503501
0
LINE
8
BLACK
6
CONTINUOUS
10
0.515355
20
0.503501
11
0.516097
21
0.505292
0
LINE
8
BLACK
6
CONTINUOUS
10
0.516097
20
0.505292
11
0.517174
21
0.506904
0
LINE
8
BLACK
6
CONTINUOUS
10
0.517174
20
0.506904
11
0.518545
21
0.508275
0
LINE
8
BLACK
6
CONTINUOUS
10
0.518545
20
0.508275
11
0.520157
21
0.509352
0
LINE
8
BLACK
6
CONTINUOUS
10
0.520157
20
0.509352
11
0.521948
21
0.510094
0
LINE
8
BLACK
6
CONTINUOUS
10
0.521948
20
0.510094
11
0.523849
21
0.510472
0
LINE
8
BLACK
6
CONTINUOUS
10
0.523849
20
0.510472
11
0.525788
21
0.510472
0
LINE
8
BLACK
6
CONTINUOUS
10
0.525788
20
0.510472
11
0.52769
21
0.510094
0
LINE
8
BLACK
6
CONTINUOUS
10
0.603091
20
0.510094
11
0.604882
21
0.509352
0
LINE
8
BLACK
6
CONTINUOUS
10
0.604882
20
0.509352
11
0.606494
21
0.508275
0
LINE
8
BLACK
6
CONTINUOUS
10
0.606494
20
0.508275
11
0.607865
21
0.506904
0
LINE
8
BLACK
6
CONTINUOUS
10
0.607865
20
0.506904
11
0.608942
21
0.505292
0
LINE
8
BLACK
6
CONTINUOUS
10
0.608942
20
0.505292
11
0.609684
21
0.503501
0
LINE
8
BLACK
6
CONTINUOUS
10
0.609684
20
0.503501
11
0.610063
21
0.501599
0
LINE
8
BLACK
6
CONTINUOUS
10
0.610063
20
0.501599
11
0.610063
21
0.499661
0
LINE
8
BLACK
6
CONTINUOUS
10
0.610063
20
0.499661
11
0.609684
21
0.497759
0
LINE
8
BLACK
6
CONTINUOUS
10
0.609684
20
0.497759
11
0.608942
21
0.495968
0
LINE
8
BLACK
6
CONTINUOUS
10
0.608942
20
0.495968
11
0.607865
21
0.494356
0
LINE
8
BLACK
6
CONTINUOUS
10
0.607865
20
0.494356
11
0.606494
21
0.492985
0
LINE
8
BLACK
6
CONTINUOUS
10
0.606494
20
0.492985
11
0.604882
21
0.491908
0
LINE
8
BLACK
6
CONTINUOUS
10
0.604882
20
0.491908
11
0.603091
21
0.491166
0
LINE
8
BLACK
6
CONTINUOUS
10
0.603091
20
0.491166
11
0.60119
21
0.490787
0
LINE
8
BLACK
6
CONTINUOUS
10
0.60119
20
0.490787
11
0.599251
21
0.490787
0
LINE
8
BLACK
6
CONTINUOUS
10
0.599251
20
0.490787
11
0.597349
21
0.491166
0
LINE
8
BLACK
6
CONTINUOUS
10
0.597349
20
0.491166
11
0.595558
21
0.491908
0
LINE
8
BLACK
6
CONTINUOUS
10
0.595558
20
0.491908
11
0.593946
21
0.492985
0
LINE
8
BLACK
6
CONTINUOUS
10
0.593946
20
0.492985
11
0.592575
21
0.494356
0
LINE
8
BLACK
6
CONTINUOUS
10
0.592575
20
0.494356
11
0.591498
21
0.495968
0
LINE
8
BLACK
6
CONTINUOUS
10
0.591498
20
0.495968
11
0.590756
21
0.497759
0
LINE
8
BLACK
6
CONTINUOUS
10
0.590756
20
0.497759
11
0.590378
21
0.499661
0
LINE
8
BLACK
6
CONTINUOUS
10
0.590378
20
0.499661
11
0.590378
21
0.501599
0
LINE
8
BLACK
6
CONTINUOUS
10
0.590378
20
0.501599
11
0.590756
21
0.503501
0
LINE
8
BLACK
6
CONTINUOUS
10
0.590756
20
0.503501
11
0.591498
21
0.505292
0
LINE
8
BLACK
6
CONTINUOUS
10
0.591498
20
0.505292
11
0.592575
21
0.506904
0
LINE
8
BLACK
6
CONTINUOUS
10
0.592575
20
0.506904
11
0.593946
21
0.508275
0
LINE
8
BLACK
6
CONTINUOUS
10
0.593946
20
0.508275
11
0.595558
21
0.509352
0
LINE
8
BLACK
6
CONTINUOUS
10
0.595558
20
0.509352
11
0.597349
21
0.510094
0
LINE
8
BLACK
6
CONTINUOUS
10
0.597349
20
0.510094
11
0.599251
21
0.510472
0
LINE
8
BLACK
6
CONTINUOUS
10
0.599251
20
0.510472
11
0.60119
21
0.510472
0
LINE
8
BLACK
6
CONTINUOUS
10
0.60119
20
0.510472
11
0.603091
21
0.510094
0
LINE
8
BLACK
6
CONTINUOUS
10
0.577957
20
0.510094
11
0.579749
21
0.509352
0
LINE
8
BLACK
6
CONTINUOUS
10
0.579749
20
0.509352
11
0.581361
21
0.508275
0
LINE
8
BLACK
6
CONTINUOUS
10
0.581361
20
0.508275
11
0.582732
21
0.506904
0
LINE
8
BLACK
6
CONTINUOUS
10
0.582732
20
0.506904
11
0.583809
21
0.505292
0
LINE
8
BLACK
6
CONTINUOUS
10
0.583809
20
0.505292
11
0.584551
21
0.503501
0
LINE
8
BLACK
6
CONTINUOUS
10
0.584551
20
0.503501
11
0.584929
21
0.501599
0
LINE
8
BLACK
6
CONTINUOUS
10
0.584929
20
0.501599
11
0.584929
21
0.499661
0
LINE
8
BLACK
6
CONTINUOUS
10
0.584929
20
0.499661
11
0.584551
21
0.497759
0
LINE
8
BLACK
6
CONTINUOUS
10
0.584551
20
0.497759
11
0.583809
21
0.495968
0
LINE
8
BLACK
6
CONTINUOUS
10
0.583809
20
0.495968
11
0.582732
21
0.494356
0
LINE
8
BLACK
6
CONTINUOUS
10
0.582732
20
0.494356
11
0.581361
21
0.492985
0
LINE
8
BLACK
6
CONTINUOUS
10
0.581361
20
0.492985
11
0.579749
21
0.491908
0
LINE
8
BLACK
6
CONTINUOUS
10
0.579749
20
0.491908
11
0.577957
21
0.491166
0
LINE
8
BLACK
6
CONTINUOUS
10
0.577957
20
0.491166
11
0.576056
21
0.490787
0
LINE
8
BLACK
6
CONTINUOUS
10
0.576056
20
0.490787
11
0.574117
21
0.490787
0
LINE
8
BLACK
6
CONTINUOUS
10
0.574117
20
0.490787
11
0.572215
21
0.491166
0
LINE
8
BLACK
6
CONTINUOUS
10
0.572215
20
0.491166
11
0.570424
21
0.491908
0
LINE
8
BLACK
6
CONTINUOUS
10
0.570424
20
0.491908
11
0.568812
21
0.492985
0
LINE
8
BLACK
6
CONTINUOUS
10
0.568812
20
0.492985
11
0.567441
21
0.494356
0
LINE
8
BLACK
6
CONTINUOUS
10
0.567441
20
0.494356
11
0.566364
21
0.495968
0
LINE
8
BLACK
6
CONTINUOUS
10
0.566364
20
0.495968
11
0.565622
21
0.497759
0
LINE
8
BLACK
6
CONTINUOUS
10
0.565622
20
0.497759
11
0.565244
21
0.499661
0
LINE
8
BLACK
6
CONTINUOUS
10
0.565244
20
0.499661
11
0.565244
21
0.501599
0
LINE
8
BLACK
6
CONTINUOUS
10
0.565244
20
0.501599
11
0.565622
21
0.503501
0
LINE
8
BLACK
6
CONTINUOUS
10
0.565622
20
0.503501
11
0.566364
21
0.505292
0
LINE
8
BLACK
6
CONTINUOUS
10
0.566364
20
0.505292
11
0.567441
21
0.506904
0
LINE
8
BLACK
6
CONTINUOUS
10
0.567441
20
0.506904
11
0.568812
21
0.508275
0
LINE
8
BLACK
6
CONTINUOUS
10
0.568812
20
0.508275
11
0.570424
21
0.509352
0
LINE
8
BLACK
6
CONTINUOUS
10
0.570424
20
0.509352
11
0.572215
21
0.510094
0
LINE
8
BLACK
6
CONTINUOUS
10
0.572215
20
0.510094
11
0.574117
21
0.510472
0
LINE
8
BLACK
6
CONTINUOUS
10
0.574117
20
0.510472
11
0.576056
21
0.510472
0
LINE
8
BLACK
6
CONTINUOUS
10
0.576056
20
0.510472
11
0.577957
21
0.510094
0
LINE
8
BLACK
6
CONTINUOUS
10
0.552824
20
0.510094
11
0.554615
21
0.509352
0
LINE
8
BLACK
6
CONTINUOUS
10
0.554615
20
0.509352
11
0.556227
21
0.508275
0
LINE
8
BLACK
6
CONTINUOUS
10
0.556227
20
0.508275
11
0.557598
21
0.506904
0
LINE
8
BLACK
6
CONTINUOUS
10
0.557598
20
0.506904
11
0.558675
21
0.505292
0
LINE
8
BLACK
6
CONTINUOUS
10
0.558675
20
0.505292
11
0.559417
21
0.503501
0
LINE
8
BLACK
6
CONTINUOUS
10
0.559417
20
0.503501
11
0.559795
21
0.501599
0
LINE
8
BLACK
6
CONTINUOUS
10
0.559795
20
0.501599
11
0.559795
21
0.499661
0
LINE
8
BLACK
6
CONTINUOUS
10
0.559795
20
0.499661
11
0.559417
21
0.497759
0
LINE
8
BLACK
6
CONTINUOUS
10
0.559417
20
0.497759
11
0.558675
21
0.495968
0
LINE
8
BLACK
6
CONTINUOUS
10
0.558675
20
0.495968
11
0.557598
21
0.494356
0
LINE
8
BLACK
6
CONTINUOUS
10
0.557598
20
0.494356
11
0.556227
21
0.492985
0
LINE
8
BLACK
6
CONTINUOUS
10
0.556227
20
0.492985
11
0.554615
21
0.491908
0
LINE
8
BLACK
6
CONTINUOUS
10
0.554615
20
0.491908
11
0.552824
21
0.491166
0
LINE
8
BLACK
6
CONTINUOUS
10
0.552824
20
0.491166
11
0.550922
21
0.490787
0
LINE
8
BLACK
6
CONTINUOUS
10
0.550922
20
0.490787
11
0.548983
21
0.490787
0
LINE
8
BLACK
6
CONTINUOUS
10
0.548983
20
0.490787
11
0.547082
21
0.491166
0
LINE
8
BLACK
6
CONTINUOUS
10
0.547082
20
0.491166
11
0.54529
21
0.491908
0
LINE
8
BLACK
6
CONTINUOUS
10
0.54529
20
0.491908
11
0.543678
21
0.492985
0
LINE
8
BLACK
6
CONTINUOUS
10
0.543678
20
0.492985
11
0.542307
21
0.494356
0
LINE
8
BLACK
6
CONTINUOUS
10
0.542307
20
0.494356
11
0.54123
21
0.495968
0
LINE
8
BLACK
6
CONTINUOUS
10
0.54123
20
0.495968
11
0.540488
21
0.497759
0
LINE
8
BLACK
6
CONTINUOUS
10
0.540488
20
0.497759
11
0.54011
21
0.499661
0
LINE
8
BLACK
6
CONTINUOUS
10
0.54011
20
0.499661
11
0.54011
21
0.501599
0
LINE
8
BLACK
6
CONTINUOUS
10
0.54011
20
0.501599
11
0.540488
21
0.503501
0
LINE
8
BLACK
6
CONTINUOUS
10
0.540488
20
0.503501
11
0.54123
21
0.505292
0
LINE
8
BLACK
6
CONTINUOUS
10
0.54123
20
0.505292
11
0.542307
21
0.506904
0
LINE
8
BLACK
6
CONTINUOUS
10
0.542307
20
0.506904
11
0.543678
21
0.508275
0
LINE
8
BLACK
6
CONTINUOUS
10
0.543678
20
0.508275
11
0.54529
21
0.509352
0
LINE
8
BLACK
6
CONTINUOUS
10
0.54529
20
0.509352
11
0.547082
21
0.510094
0
LINE
8
BLACK
6
CONTINUOUS
10
0.547082
20
0.510094
11
0.548983
21
0.510472
0
LINE
8
BLACK
6
CONTINUOUS
10
0.548983
20
0.510472
11
0.550922
21
0.510472
0
LINE
8
BLACK
6
CONTINUOUS
10
0.550922
20
0.510472
11
0.552824
21
0.510094
0
LINE
8
BLACK
6
CONTINUOUS
10
1.35976
20
0.572179
11
1.36585
21
0.569656
0
LINE
8
BLACK
6
CONTINUOUS
10
1.36585
20
0.569656
11
1.37133
21
0.565994
0
LINE
8
BLACK
6
CONTINUOUS
10
1.37133
20
0.565994
11
1.37599
21
0.561332
0
LINE
8
BLACK
6
CONTINUOUS
10
1.37599
20
0.561332
11
1.37966
21
0.555851
0
LINE
8
BLACK
6
CONTINUOUS
10
1.37966
20
0.555851
11
1.38218
21
0.549761
0
LINE
8
BLACK
6
CONTINUOUS
10
1.38218
20
0.549761
11
1.38346
21
0.543296
0
LINE
8
BLACK
6
CONTINUOUS
10
1.38346
20
0.543296
11
1.38346
21
0.536704
0
LINE
8
BLACK
6
CONTINUOUS
10
1.38346
20
0.536704
11
1.38218
21
0.530239
0
LINE
8
BLACK
6
CONTINUOUS
10
1.38218
20
0.530239
11
1.37966
21
0.524149
0
LINE
8
BLACK
6
CONTINUOUS
10
1.37966
20
0.524149
11
1.37599
21
0.518668
0
LINE
8
BLACK
6
CONTINUOUS
10
1.37599
20
0.518668
11
1.37133
21
0.514006
0
LINE
8
BLACK
6
CONTINUOUS
10
1.37133
20
0.514006
11
1.36585
21
0.510344
0
LINE
8
BLACK
6
CONTINUOUS
10
1.36585
20
0.510344
11
1.35976
21
0.507821
0
LINE
8
BLACK
6
CONTINUOUS
10
1.35976
20
0.507821
11
1.3533
21
0.506535
0
LINE
8
BLACK
6
CONTINUOUS
10
1.3533
20
0.506535
11
1.3467
21
0.506535
0
LINE
8
BLACK
6
CONTINUOUS
10
1.3467
20
0.506535
11
1.34024
21
0.507821
0
LINE
8
BLACK
6
CONTINUOUS
10
1.34024
20
0.507821
11
1.33415
21
0.510344
0
LINE
8
BLACK
6
CONTINUOUS
10
1.33415
20
0.510344
11
1.32867
21
0.514006
0
LINE
8
BLACK
6
CONTINUOUS
10
1.32867
20
0.514006
11
1.32401
21
0.518668
0
LINE
8
BLACK
6
CONTINUOUS
10
1.32401
20
0.518668
11
1.32034
21
0.524149
0
LINE
8
BLACK
6
CONTINUOUS
10
1.32034
20
0.524149
11
1.31782
21
0.530239
0
LINE
8
BLACK
6
CONTINUOUS
10
1.31782
20
0.530239
11
1.31654
21
0.536704
0
LINE
8
BLACK
6
CONTINUOUS
10
1.31654
20
0.536704
11
1.31654
21
0.543296
0
LINE
8
BLACK
6
CONTINUOUS
10
1.31654
20
0.543296
11
1.31782
21
0.549761
0
LINE
8
BLACK
6
CONTINUOUS
10
1.31782
20
0.549761
11
1.32034
21
0.555851
0
LINE
8
BLACK
6
CONTINUOUS
10
1.32034
20
0.555851
11
1.32401
21
0.561332
0
LINE
8
BLACK
6
CONTINUOUS
10
1.32401
20
0.561332
11
1.32867
21
0.565994
0
LINE
8
BLACK
6
CONTINUOUS
10
1.32867
20
0.565994
11
1.33415
21
0.569656
0
LINE
8
BLACK
6
CONTINUOUS
10
1.33415
20
0.569656
11
1.34024
21
0.572179
0
LINE
8
BLACK
6
CONTINUOUS
10
1.34024
20
0.572179
11
1.3467
21
0.573465
0
LINE
8
BLACK
6
CONTINUOUS
10
1.3467
20
0.573465
11
1.3533
21
0.573465
0
LINE
8
BLACK
6
CONTINUOUS
10
1.3533
20
0.573465
11
1.35976
21
0.572179
0
LINE
8
BLACK
6
CONTINUOUS
10
0.52769
20
0.588834
11
0.529481
21
0.588092
0
LINE
8
BLACK
6
CONTINUOUS
10
0.529481
20
0.588092
11
0.531093
21
0.587015
0
LINE
8
BLACK
6
CONTINUOUS
10
0.531093
20
0.587015
11
0.532464
21
0.585644
0
LINE
8
BLACK
6
CONTINUOUS
10
0.532464
20
0.585644
11
0.533541
21
0.584032
0
LINE
8
BLACK
6
CONTINUOUS
10
0.533541
20
0.584032
11
0.534283
21
0.582241
0
LINE
8
BLACK
6
CONTINUOUS
10
0.534283
20
0.582241
11
0.534661
21
0.580339
0
LINE
8
BLACK
6
CONTINUOUS
10
0.534661
20
0.580339
11
0.534661
21
0.578401
0
LINE
8
BLACK
6
CONTINUOUS
10
0.534661
20
0.578401
11
0.534283
21
0.576499
0
LINE
8
BLACK
6
CONTINUOUS
10
0.534283
20
0.576499
11
0.533541
21
0.574708
0
LINE
8
BLACK
6
CONTINUOUS
10
0.533541
20
0.574708
11
0.532464
21
0.573096
0
LINE
8
BLACK
6
CONTINUOUS
10
0.532464
20
0.573096
11
0.531093
21
0.571725
0
LINE
8
BLACK
6
CONTINUOUS
10
0.531093
20
0.571725
11
0.529481
21
0.570648
0
LINE
8
BLACK
6
CONTINUOUS
10
0.529481
20
0.570648
11
0.52769
21
0.569906
0
LINE
8
BLACK
6
CONTINUOUS
10
0.52769
20
0.569906
11
0.525788
21
0.569528
0
LINE
8
BLACK
6
CONTINUOUS
10
0.525788
20
0.569528
11
0.523849
21
0.569528
0
LINE
8
BLACK
6
CONTINUOUS
10
0.523849
20
0.569528
11
0.521948
21
0.569906
0
LINE
8
BLACK
6
CONTINUOUS
10
0.521948
20
0.569906
11
0.520157
21
0.570648
0
LINE
8
BLACK
6
CONTINUOUS
10
0.520157
20
0.570648
11
0.518545
21
0.571725
0
LINE
8
BLACK
6
CONTINUOUS
10
0.518545
20
0.571725
11
0.517174
21
0.573096
0
LINE
8
BLACK
6
CONTINUOUS
10
0.517174
20
0.573096
11
0.516097
21
0.574708
0
LINE
8
BLACK
6
CONTINUOUS
10
0.516097
20
0.574708
11
0.515355
21
0.576499
0
LINE
8
BLACK
6
CONTINUOUS
10
0.515355
20
0.576499
11
0.514976
21
0.578401
0
LINE
8
BLACK
6
CONTINUOUS
10
0.514976
20
0.578401
11
0.514976
21
0.580339
0
LINE
8
BLACK
6
CONTINUOUS
10
0.514976
20
0.580339
11
0.515355
21
0.582241
0
LINE
8
BLACK
6
CONTINUOUS
10
0.515355
20
0.582241
11
0.516097
21
0.584032
0
LINE
8
BLACK
6
CONTINUOUS
10
0.516097
20
0.584032
11
0.517174
21
0.585644
0
LINE
8
BLACK
6
CONTINUOUS
10
0.517174
20
0.585644
11
0.518545
21
0.587015
0
LINE
8
BLACK
6
CONTINUOUS
10
0.518545
20
0.587015
11
0.520157
21
0.588092
0
LINE
8
BLACK
6
CONTINUOUS
10
0.520157
20
0.588092
11
0.521948
21
0.588834
0
LINE
8
BLACK
6
CONTINUOUS
10
0.521948
20
0.588834
11
0.523849
21
0.589213
0
LINE
8
BLACK
6
CONTINUOUS
10
0.523849
20
0.589213
11
0.525788
21
0.589213
0
LINE
8
BLACK
6
CONTINUOUS
10
0.525788
20
0.589213
11
0.52769
21
0.588834
0
LINE
8
BLACK
6
CONTINUOUS
10
0.628225
20
0.588834
11
0.630016
21
0.588092
0
LINE
8
BLACK
6
CONTINUOUS
10
0.630016
20
0.588092
11
0.631628
21
0.587015
0
LINE
8
BLACK
6
CONTINUOUS
10
0.631628
20
0.587015
11
0.632999
21
0.585644
0
LINE
8
BLACK
6
CONTINUOUS
10
0.632999
20
0.585644
11
0.634076
21
0.584032
0
LINE
8
BLACK
6
CONTINUOUS
10
0.634076
20
0.584032
11
0.634818
21
0.582241
0
LINE
8
BLACK
6
CONTINUOUS
10
0.634818
20
0.582241
11
0.635196
21
0.580339
0
LINE
8
BLACK
6
CONTINUOUS
10
0.635196
20
0.580339
11
0.635196
21
0.578401
0
LINE
8
BLACK
6
CONTINUOUS
10
0.635196
20
0.578401
11
0.634818
21
0.576499
0
LINE
8
BLACK
6
CONTINUOUS
10
0.634818
20
0.576499
11
0.634076
21
0.574708
0
LINE
8
BLACK
6
CONTINUOUS
10
0.634076
20
0.574708
11
0.632999
21
0.573096
0
LINE
8
BLACK
6
CONTINUOUS
10
0.632999
20
0.573096
11
0.631628
21
0.571725
0
LINE
8
BLACK
6
CONTINUOUS
10
0.631628
20
0.571725
11
0.630016
21
0.570648
0
LINE
8
BLACK
6
CONTINUOUS
10
0.630016
20
0.570648
11
0.628225
21
0.569906
0
LINE
8
BLACK
6
CONTINUOUS
10
0.628225
20
0.569906
11
0.626323
21
0.569528
0
LINE
8
BLACK
6
CONTINUOUS
10
0.626323
20
0.569528
11
0.624385
21
0.569528
0
LINE
8
BLACK
6
CONTINUOUS
10
0.624385
20
0.569528
11
0.622483
21
0.569906
0
LINE
8
BLACK
6
CONTINUOUS
10
0.622483
20
0.569906
11
0.620692
21
0.570648
0
LINE
8
BLACK
6
CONTINUOUS
10
0.620692
20
0.570648
11
0.61908
21
0.571725
0
LINE
8
BLACK
6
CONTINUOUS
10
0.61908
20
0.571725
11
0.617709
21
0.573096
0
LINE
8
BLACK
6
CONTINUOUS
10
0.617709
20
0.573096
11
0.616632
21
0.574708
0
LINE
8
BLACK
6
CONTINUOUS
10
0.616632
20
0.574708
11
0.61589
21
0.576499
0
LINE
8
BLACK
6
CONTINUOUS
10
0.61589
20
0.576499
11
0.615511
21
0.578401
0
LINE
8
BLACK
6
CONTINUOUS
10
0.615511
20
0.578401
11
0.615511
21
0.580339
0
LINE
8
BLACK
6
CONTINUOUS
10
0.615511
20
0.580339
11
0.61589
21
0.582241
0
LINE
8
BLACK
6
CONTINUOUS
10
0.61589
20
0.582241
11
0.616632
21
0.584032
0
LINE
8
BLACK
6
CONTINUOUS
10
0.616632
20
0.584032
11
0.617709
21
0.585644
0
LINE
8
BLACK
6
CONTINUOUS
10
0.617709
20
0.585644
11
0.61908
21
0.587015
0
LINE
8
BLACK
6
CONTINUOUS
10
0.61908
20
0.587015
11
0.620692
21
0.588092
0
LINE
8
BLACK
6
CONTINUOUS
10
0.620692
20
0.588092
11
0.622483
21
0.588834
0
LINE
8
BLACK
6
CONTINUOUS
10
0.622483
20
0.588834
11
0.624385
21
0.589213
0
LINE
8
BLACK
6
CONTINUOUS
10
0.624385
20
0.589213
11
0.626323
21
0.589213
0
LINE
8
BLACK
6
CONTINUOUS
10
0.626323
20
0.589213
11
0.628225
21
0.588834
0
LINE
8
BLACK
6
CONTINUOUS
10
0.552824
20
0.588834
11
0.554615
21
0.588092
0
LINE
8
BLACK
6
CONTINUOUS
10
0.554615
20
0.588092
11
0.556227
21
0.587015
0
LINE
8
BLACK
6
CONTINUOUS
10
0.556227
20
0.587015
11
0.557598
21
0.585644
0
LINE
8
BLACK
6
CONTINUOUS
10
0.557598
20
0.585644
11
0.558675
21
0.584032
0
LINE
8
BLACK
6
CONTINUOUS
10
0.558675
20
0.584032
11
0.559417
21
0.582241
0
LINE
8
BLACK
6
CONTINUOUS
10
0.559417
20
0.582241
11
0.559795
21
0.580339
0
LINE
8
BLACK
6
CONTINUOUS
10
0.559795
20
0.580339
11
0.559795
21
0.578401
0
LINE
8
BLACK
6
CONTINUOUS
10
0.559795
20
0.578401
11
0.559417
21
0.576499
0
LINE
8
BLACK
6
CONTINUOUS
10
0.559417
20
0.576499
11
0.558675
21
0.574708
0
LINE
8
BLACK
6
CONTINUOUS
10
0.558675
20
0.574708
11
0.557598
21
0.573096
0
LINE
8
BLACK
6
CONTINUOUS
10
0.557598
20
0.573096
11
0.556227
21
0.571725
0
LINE
8
BLACK
6
CONTINUOUS
10
0.556227
20
0.571725
11
0.554615
21
0.570648
0
LINE
8
BLACK
6
CONTINUOUS
10
0.554615
20
0.570648
11
0.552824
21
0.569906
0
LINE
8
BLACK
6
CONTINUOUS
10
0.552824
20
0.569906
11
0.550922
21
0.569528
0
LINE
8
BLACK
6
CONTINUOUS
10
0.550922
20
0.569528
11
0.548983
21
0.569528
0
LINE
8
BLACK
6
CONTINUOUS
10
0.548983
20
0.569528
11
0.547082
21
0.569906
0
LINE
8
BLACK
6
CONTINUOUS
10
0.547082
20
0.569906
11
0.54529
21
0.570648
0
LINE
8
BLACK
6
CONTINUOUS
10
0.54529
20
0.570648
11
0.543678
21
0.571725
0
LINE
8
BLACK
6
CONTINUOUS
10
0.543678
20
0.571725
11
0.542307
21
0.573096
0
LINE
8
BLACK
6
CONTINUOUS
10
0.542307
20
0.573096
11
0.54123
21
0.574708
0
LINE
8
BLACK
6
CONTINUOUS
10
0.54123
20
0.574708
11
0.540488
21
0.576499
0
LINE
8
BLACK
6
CONTINUOUS
10
0.540488
20
0.576499
11
0.54011
21
0.578401
0
LINE
8
BLACK
6
CONTINUOUS
10
0.54011
20
0.578401
11
0.54011
21
0.580339
0
LINE
8
BLACK
6
CONTINUOUS
10
0.54011
20
0.580339
11
0.540488
21
0.582241
0
LINE
8
BLACK
6
CONTINUOUS
10
0.540488
20
0.582241
11
0.54123
21
0.584032
0
LINE
8
BLACK
6
CONTINUOUS
10
0.54123
20
0.584032
11
0.542307
21
0.585644
0
LINE
8
BLACK
6
CONTINUOUS
10
0.542307
20
0.585644
11
0.543678
21
0.587015
0
LINE
8
BLACK
6
CONTINUOUS
10
0.543678
20
0.587015
11
0.54529
21
0.588092
0
LINE
8
BLACK
6
CONTINUOUS
10
0.54529
20
0.588092
11
0.547082
21
0.588834
0
LINE
8
BLACK
6
CONTINUOUS
10
0.547082
20
0.588834
11
0.548983
21
0.589213
0
LINE
8
BLACK
6
CONTINUOUS
10
0.548983
20
0.589213
11
0.550922
21
0.589213
0
LINE
8
BLACK
6
CONTINUOUS
10
0.550922
20
0.589213
11
0.552824
21
0.588834
0
LINE
8
BLACK
6
CONTINUOUS
10
0.577957
20
0.588834
11
0.579749
21
0.588092
0
LINE
8
BLACK
6
CONTINUOUS
10
0.579749
20
0.588092
11
0.581361
21
0.587015
0
LINE
8
BLACK
6
CONTINUOUS
10
0.581361
20
0.587015
11
0.582732
21
0.585644
0
LINE
8
BLACK
6
CONTINUOUS
10
0.582732
20
0.585644
11
0.583809
21
0.584032
0
LINE
8
BLACK
6
CONTINUOUS
10
0.583809
20
0.584032
11
0.584551
21
0.582241
0
LINE
8
BLACK
6
CONTINUOUS
10
0.584551
20
0.582241
11
0.584929
21
0.580339
0
LINE
8
BLACK
6
CONTINUOUS
10
0.584929
20
0.580339
11
0.584929
21
0.578401
0
LINE
8
BLACK
6
CONTINUOUS
10
0.584929
20
0.578401
11
0.584551
21
0.576499
0
LINE
8
BLACK
6
CONTINUOUS
10
0.584551
20
0.576499
11
0.583809
21
0.574708
0
LINE
8
BLACK
6
CONTINUOUS
10
0.583809
20
0.574708
11
0.582732
21
0.573096
0
LINE
8
BLACK
6
CONTINUOUS
10
0.582732
20
0.573096
11
0.581361
21
0.571725
0
LINE
8
BLACK
6
CONTINUOUS
10
0.581361
20
0.571725
11
0.579749
21
0.570648
0
LINE
8
BLACK
6
CONTINUOUS
10
0.579749
20
0.570648
11
0.577957
21
0.569906
0
LINE
8
BLACK
6
CONTINUOUS
10
0.577957
20
0.569906
11
0.576056
21
0.569528
0
LINE
8
BLACK
6
CONTINUOUS
10
0.576056
20
0.569528
11
0.574117
21
0.569528
0
LINE
8
BLACK
6
CONTINUOUS
10
0.574117
20
0.569528
11
0.572215
21
0.569906
0
LINE
8
BLACK
6
CONTINUOUS
10
0.572215
20
0.569906
11
0.570424
21
0.570648
0
LINE
8
BLACK
6
CONTINUOUS
10
0.570424
20
0.570648
11
0.568812
21
0.571725
0
LINE
8
BLACK
6
CONTINUOUS
10
0.568812
20
0.571725
11
0.567441
21
0.573096
0
LINE
8
BLACK
6
CONTINUOUS
10
0.567441
20
0.573096
11
0.566364
21
0.574708
0
LINE
8
BLACK
6
CONTINUOUS
10
0.566364
20
0.574708
11
0.565622
21
0.576499
0
LINE
8
BLACK
6
CONTINUOUS
10
0.565622
20
0.576499
11
0.565244
21
0.578401
0
LINE
8
BLACK
6
CONTINUOUS
10
0.565244
20
0.578401
11
0.565244
21
0.580339
0
LINE
8
BLACK
6
CONTINUOUS
10
0.565244
20
0.580339
11
0.565622
21
0.582241
0
LINE
8
BLACK
6
CONTINUOUS
10
0.565622
20
0.582241
11
0.566364
21
0.584032
0
LINE
8
BLACK
6
CONTINUOUS
10
0.566364
20
0.584032
11
0.567441
21
0.585644
0
LINE
8
BLACK
6
CONTINUOUS
10
0.567441
20
0.585644
11
0.568812
21
0.587015
0
LINE
8
BLACK
6
CONTINUOUS
10
0.568812
20
0.587015
11
0.570424
21
0.588092
0
LINE
8
BLACK
6
CONTINUOUS
10
0.570424
20
0.588092
11
0.572215
21
0.588834
0
LINE
8
BLACK
6
CONTINUOUS
10
0.572215
20
0.588834
11
0.574117
21
0.589213
0
LINE
8
BLACK
6
CONTINUOUS
10
0.574117
20
0.589213
11
0.576056
21
0.589213
0
LINE
8
BLACK
6
CONTINUOUS
10
0.576056
20
0.589213
11
0.577957
21
0.588834
0
LINE
8
BLACK
6
CONTINUOUS
10
0.603091
20
0.588834
11
0.604882
21
0.588092
0
LINE
8
BLACK
6
CONTINUOUS
10
0.604882
20
0.588092
11
0.606494
21
0.587015
0
LINE
8
BLACK
6
CONTINUOUS
10
0.606494
20
0.587015
11
0.607865
21
0.585644
0
LINE
8
BLACK
6
CONTINUOUS
10
0.607865
20
0.585644
11
0.608942
21
0.584032
0
LINE
8
BLACK
6
CONTINUOUS
10
0.608942
20
0.584032
11
0.609684
21
0.582241
0
LINE
8
BLACK
6
CONTINUOUS
10
0.609684
20
0.582241
11
0.610063
21
0.580339
0
LINE
8
BLACK
6
CONTINUOUS
10
0.610063
20
0.580339
11
0.610063
21
0.578401
0
LINE
8
BLACK
6
CONTINUOUS
10
0.610063
20
0.578401
11
0.609684
21
0.576499
0
LINE
8
BLACK
6
CONTINUOUS
10
0.609684
20
0.576499
11
0.608942
21
0.574708
0
LINE
8
BLACK
6
CONTINUOUS
10
0.608942
20
0.574708
11
0.607865
21
0.573096
0
LINE
8
BLACK
6
CONTINUOUS
10
0.607865
20
0.573096
11
0.606494
21
0.571725
0
LINE
8
BLACK
6
CONTINUOUS
10
0.606494
20
0.571725
11
0.604882
21
0.570648
0
LINE
8
BLACK
6
CONTINUOUS
10
0.604882
20
0.570648
11
0.603091
21
0.569906
0
LINE
8
BLACK
6
CONTINUOUS
10
0.603091
20
0.569906
11
0.60119
21
0.569528
0
LINE
8
BLACK
6
CONTINUOUS
10
0.60119
20
0.569528
11
0.599251
21
0.569528
0
LINE
8
BLACK
6
CONTINUOUS
10
0.599251
20
0.569528
11
0.597349
21
0.569906
0
LINE
8
BLACK
6
CONTINUOUS
10
0.597349
20
0.569906
11
0.595558
21
0.570648
0
LINE
8
BLACK
6
CONTINUOUS
10
0.595558
20
0.570648
11
0.593946
21
0.571725
0
LINE
8
BLACK
6
CONTINUOUS
10
0.593946
20
0.571725
11
0.592575
21
0.573096
0
LINE
8
BLACK
6
CONTINUOUS
10
0.592575
20
0.573096
11
0.591498
21
0.574708
0
LINE
8
BLACK
6
CONTINUOUS
10
0.591498
20
0.574708
11
0.590756
21
0.576499
0
LINE
8
BLACK
6
CONTINUOUS
10
0.590756
20
0.576499
11
0.590378
21
0.578401
0
LINE
8
BLACK
6
CONTINUOUS
10
0.590378
20
0.578401
11
0.590378
21
0.580339
0
LINE
8
BLACK
6
CONTINUOUS
10
0.590378
20
0.580339
11
0.590756
21
0.582241
0
LINE
8
BLACK
6
CONTINUOUS
10
0.590756
20
0.582241
11
0.591498
21
0.584032
0
LINE
8
BLACK
6
CONTINUOUS
10
0.591498
20
0.584032
11
0.592575
21
0.585644
0
LINE
8
BLACK
6
CONTINUOUS
10
0.592575
20
0.585644
11
0.593946
21
0.587015
0
LINE
8
BLACK
6
CONTINUOUS
10
0.593946
20
0.587015
11
0.595558
21
0.588092
0
LINE
8
BLACK
6
CONTINUOUS
10
0.595558
20
0.588092
11
0.597349
21
0.588834
0
LINE
8
BLACK
6
CONTINUOUS
10
0.597349
20
0.588834
11
0.599251
21
0.589213
0
LINE
8
BLACK
6
CONTINUOUS
10
0.599251
20
0.589213
11
0.60119
21
0.589213
0
LINE
8
BLACK
6
CONTINUOUS
10
0.60119
20
0.589213
11
0.603091
21
0.588834
0
LINE
8
BLACK
6
CONTINUOUS
10
1.35976
20
0.672179
11
1.36585
21
0.669656
0
LINE
8
BLACK
6
CONTINUOUS
10
1.36585
20
0.669656
11
1.37133
21
0.665994
0
LINE
8
BLACK
6
CONTINUOUS
10
1.37133
20
0.665994
11
1.37599
21
0.661332
0
LINE
8
BLACK
6
CONTINUOUS
10
1.37599
20
0.661332
11
1.37966
21
0.655851
0
LINE
8
BLACK
6
CONTINUOUS
10
1.37966
20
0.655851
11
1.38218
21
0.649761
0
LINE
8
BLACK
6
CONTINUOUS
10
1.38218
20
0.649761
11
1.38346
21
0.643296
0
LINE
8
BLACK
6
CONTINUOUS
10
1.38346
20
0.643296
11
1.38346
21
0.636704
0
LINE
8
BLACK
6
CONTINUOUS
10
1.38346
20
0.636704
11
1.38218
21
0.630239
0
LINE
8
BLACK
6
CONTINUOUS
10
1.38218
20
0.630239
11
1.37966
21
0.624149
0
LINE
8
BLACK
6
CONTINUOUS
10
1.37966
20
0.624149
11
1.37599
21
0.618668
0
LINE
8
BLACK
6
CONTINUOUS
10
1.37599
20
0.618668
11
1.37133
21
0.614006
0
LINE
8
BLACK
6
CONTINUOUS
10
1.37133
20
0.614006
11
1.36585
21
0.610344
0
LINE
8
BLACK
6
CONTINUOUS
10
1.36585
20
0.610344
11
1.35976
21
0.607821
0
LINE
8
BLACK
6
CONTINUOUS
10
1.35976
20
0.607821
11
1.3533
21
0.606535
0
LINE
8
BLACK
6
CONTINUOUS
10
1.3533
20
0.606535
11
1.3467
21
0.606535
0
LINE
8
BLACK
6
CONTINUOUS
10
1.3467
20
0.606535
11
1.34024
21
0.607821
0
LINE
8
BLACK
6
CONTINUOUS
10
1.34024
20
0.607821
11
1.33415
21
0.610344
0
LINE
8
BLACK
6
CONTINUOUS
10
1.33415
20
0.610344
11
1.32867
21
0.614006
0
LINE
8
BLACK
6
CONTINUOUS
10
1.32867
20
0.614006
11
1.32401
21
0.618668
0
LINE
8
BLACK
6
CONTINUOUS
10
1.32401
20
0.618668
11
1.32034
21
0.624149
0
LINE
8
BLACK
6
CONTINUOUS
10
1.32034
20
0.624149
11
1.31782
21
0.630239
0
LINE
8
BLACK
6
CONTINUOUS
10
1.31782
20
0.630239
11
1.31654
21
0.636704
0
LINE
8
BLACK
6
CONTINUOUS
10
1.31654
20
0.636704
11
1.31654
21
0.643296
0
LINE
8
BLACK
6
CONTINUOUS
10
1.31654
20
0.643296
11
1.31782
21
0.649761
0
LINE
8
BLACK
6
CONTINUOUS
10
1.31782
20
0.649761
11
1.32034
21
0.655851
0
LINE
8
BLACK
6
CONTINUOUS
10
1.32034
20
0.655851
11
1.32401
21
0.661332
0
LINE
8
BLACK
6
CONTINUOUS
10
1.32401
20
0.661332
11
1.32867
21
0.665994
0
LINE
8
BLACK
6
CONTINUOUS
10
1.32867
20
0.665994
11
1.33415
21
0.669656
0
LINE
8
BLACK
6
CONTINUOUS
10
1.33415
20
0.669656
11
1.34024
21
0.672179
0
LINE
8
BLACK
6
CONTINUOUS
10
1.34024
20
0.672179
11
1.3467
21
0.673465
0
LINE
8
BLACK
6
CONTINUOUS
10
1.3467
20
0.673465
11
1.3533
21
0.673465
0
LINE
8
BLACK
6
CONTINUOUS
10
1.3533
20
0.673465
11
1.35976
21
0.672179
0
LINE
8
BLACK
6
CONTINUOUS
10
1.38346
20
0.706535
11
1.31654
21
0.706535
0
LINE
8
BLACK
6
CONTINUOUS
10
1.31654
20
0.706535
11
1.31654
21
0.773465
0
LINE
8
BLACK
6
CONTINUOUS
10
1.31654
20
0.773465
11
1.38346
21
0.773465
0
LINE
8
BLACK
6
CONTINUOUS
10
1.38346
20
0.773465
11
1.38346
21
0.706535
0
CIRCLE
8
BLACK
10
0.549953
20
0.50063
40
0.00393701
0
CIRCLE
8
BLACK
10
0.575086
20
0.50063
40
0.00393701
0
CIRCLE
8
BLACK
10
0.60022
20
0.50063
40
0.00393701
0
CIRCLE
8
BLACK
10
0.524819
20
0.50063
40
0.00393701
0
CIRCLE
8
BLACK
10
0.60022
20
0.57937
40
0.00393701
0
CIRCLE
8
BLACK
10
0.575086
20
0.57937
40
0.00393701
0
CIRCLE
8
BLACK
10
0.549953
20
0.57937
40
0.00393701
0
CIRCLE
8
BLACK
10
0.625354
20
0.57937
40
0.00393701
0
CIRCLE
8
BLACK
10
0.524819
20
0.57937
40
0.00393701
0
CIRCLE
8
BLACK
10
0.625354
20
0.50063
40
0.00393701
  0
ENDSEC
  0
EOF
