<?xml version="1.0" standalone="no"?>
 <!DOCTYPE svg PUBLIC "-//W3C//DTD SVG 1.1//EN" 
 "http://www.w3.org/Graphics/SVG/1.1/DTD/svg11.dtd"> 
<svg xmlns="http://www.w3.org/2000/svg" version="1.1" 
    width="29.7002cm" height="21.0007cm" viewBox="0 0 116930 82680 ">
<title>SVG Picture created as hmcdaughter_dac-F.SilkS.svg date 2019/04/03 14:01:24 </title>
  <desc>Picture generated by PCBNEW </desc>
<g style="fill:#000000; fill-opacity:1;stroke:#000000; stroke-opacity:1;
stroke-linecap:round; stroke-linejoin:round; "
 transform="translate(0 0) scale(1 1)">
</g>
<g style="fill:#C2C200; fill-opacity:0.0; 
stroke:#C2C200; stroke-width:-0.000393701; stroke-opacity:1; 
stroke-linecap:round; stroke-linejoin:round;">
</g>
<g style="fill:#C2C200; fill-opacity:0.0; 
stroke:#C2C200; stroke-width:59.0551; stroke-opacity:1; 
stroke-linecap:round; stroke-linejoin:round;">
<circle cx="60400" cy="45600" r="656.168" /> 
<path d="M59415 45600
L61384 45600
" />
<path d="M60400 44615
L60400 46584
" />
<path d="M60796 45450
L69403 45450
" />
<path d="M69400 45450
L69400 37450
" />
<path d="M60800 45450
L60800 37450
" />
<path d="M61746 33000
L68453 33000
" />
<path d="M60800 37450 A900 900 0.0 0 0 61700 36550 " />
<path d="M68500 36550 A900 900 0.0 0 0 69400 37450 " />
<path d="M68500 36550
L68500 33050
" />
<path d="M61700 36550
L61700 33050
" />
<path d="M61750 33000 A50 50 0.0 0 0 61700 33050 " />
<path d="M68500 33050 A50 50 0.0 0 0 68450 33000 " />
<circle cx="0" cy="0" r="262.467" /> 
<path d="M-393 0
L393 0
" />
<path d="M0 -393
L0 393
" />
</g>
<g style="fill:#008484; fill-opacity:0.0; 
stroke:#008484; stroke-width:59.0551; stroke-opacity:1; 
stroke-linecap:round; stroke-linejoin:round;">
<path d="M65531 39344
L65663 39738
L65794 39344
" />
<path d="M66056 39531
L66113 39550
L66131 39569
L66150 39606
L66150 39663
L66131 39700
L66113 39719
L66075 39738
L65925 39738
L65925 39344
L66056 39344
L66094 39363
L66113 39381
L66131 39419
L66131 39456
L66113 39494
L66094 39513
L66056 39531
L65925 39531
" />
<path d="M66781 44984
L66912 45378
L67043 44984
" />
<path d="M67381 45378
L67156 45378
" />
<path d="M67268 45378
L67268 44984
L67231 45040
L67193 45078
L67156 45096
" />
</g>
<g style="fill:#C2C200; fill-opacity:0.0; 
stroke:#C2C200; stroke-width:59.0551; stroke-opacity:1; 
stroke-linecap:round; stroke-linejoin:round;">
<path d="M65360 35084
L65360 35403
L65378 35440
L65397 35459
L65435 35478
L65510 35478
L65547 35459
L65566 35440
L65585 35403
L65585 35084
" />
<path d="M65978 35478
L65753 35478
" />
<path d="M65866 35478
L65866 35084
L65828 35140
L65791 35178
L65753 35196
" />
</g>
<g style="fill:#C2C200; fill-opacity:0.0; 
stroke:#C2C200; stroke-width:49.2126; stroke-opacity:1; 
stroke-linecap:round; stroke-linejoin:round;">
<path d="M62607 34690
L62597 34699
L62569 34709
L62550 34709
L62522 34699
L62504 34680
L62494 34662
L62485 34624
L62485 34596
L62494 34559
L62504 34540
L62522 34521
L62550 34512
L62569 34512
L62597 34521
L62607 34530
" />
<path d="M62672 34512
L62794 34512
L62729 34587
L62757 34587
L62775 34596
L62785 34605
L62794 34624
L62794 34671
L62785 34690
L62775 34699
L62757 34709
L62700 34709
L62682 34699
L62672 34690
" />
<path d="M63067 42649
L63001 42555
" />
<path d="M62954 42649
L62954 42452
L63029 42452
L63048 42461
L63057 42470
L63067 42489
L63067 42517
L63057 42536
L63048 42545
L63029 42555
L62954 42555
" />
<path d="M63235 42517
L63235 42649
" />
<path d="M63189 42442
L63142 42583
L63264 42583
" />
<path d="M62760 37522
L62769 37532
L62779 37560
L62779 37579
L62769 37607
L62750 37625
L62732 37635
L62694 37644
L62666 37644
L62629 37635
L62610 37625
L62591 37607
L62582 37579
L62582 37560
L62591 37532
L62600 37522
" />
<path d="M62582 37457
L62582 37325
L62779 37410
" />
</g>
<g style="fill:#C2C200; fill-opacity:0.0; 
stroke:#C2C200; stroke-width:59.0551; stroke-opacity:1; 
stroke-linecap:round; stroke-linejoin:round;">
<path d="M63704 36779
L64023 36779
L64060 36761
L64079 36742
L64098 36704
L64098 36629
L64079 36592
L64060 36573
L64023 36554
L63704 36554
" />
<path d="M63741 36386
L63723 36367
L63704 36330
L63704 36236
L63723 36198
L63741 36180
L63779 36161
L63816 36161
L63873 36180
L64098 36405
L64098 36161
" />
</g>
<g style="fill:#C2C200; fill-opacity:0.0; 
stroke:#C2C200; stroke-width:49.2126; stroke-opacity:1; 
stroke-linecap:round; stroke-linejoin:round;">
<path d="M63639 40002
L63639 40096
L63442 40096
" />
<path d="M63507 39852
L63639 39852
" />
<path d="M63432 39899
L63573 39946
L63573 39824
" />
<path d="M64727 35450
L64717 35459
L64689 35469
L64670 35469
L64642 35459
L64624 35440
L64614 35422
L64605 35384
L64605 35356
L64614 35319
L64624 35300
L64642 35281
L64670 35272
L64689 35272
L64717 35281
L64727 35290
" />
<path d="M64914 35469
L64802 35469
" />
<path d="M64858 35469
L64858 35272
L64839 35300
L64820 35319
L64802 35328
" />
<path d="M66327 35180
L66317 35189
L66289 35199
L66270 35199
L66242 35189
L66224 35170
L66214 35152
L66205 35114
L66205 35086
L66214 35049
L66224 35030
L66242 35011
L66270 35002
L66289 35002
L66317 35011
L66327 35020
" />
<path d="M66402 35020
L66411 35011
L66430 35002
L66477 35002
L66495 35011
L66505 35020
L66514 35039
L66514 35058
L66505 35086
L66392 35199
L66514 35199
" />
<path d="M67450 35112
L67459 35122
L67469 35150
L67469 35169
L67459 35197
L67440 35215
L67422 35225
L67384 35234
L67356 35234
L67319 35225
L67300 35215
L67281 35197
L67272 35169
L67272 35150
L67281 35122
L67290 35112
" />
<path d="M67337 34944
L67469 34944
" />
<path d="M67262 34990
L67403 35037
L67403 34915
" />
<path d="M62627 36170
L62617 36179
L62589 36189
L62570 36189
L62542 36179
L62524 36160
L62514 36142
L62505 36104
L62505 36076
L62514 36039
L62524 36020
L62542 36001
L62570 35992
L62589 35992
L62617 36001
L62627 36010
" />
<path d="M62805 35992
L62711 35992
L62702 36085
L62711 36076
L62730 36067
L62777 36067
L62795 36076
L62805 36085
L62814 36104
L62814 36151
L62805 36170
L62795 36179
L62777 36189
L62730 36189
L62711 36179
L62702 36170
" />
<path d="M62460 37522
L62469 37532
L62479 37560
L62479 37579
L62469 37607
L62450 37625
L62432 37635
L62394 37644
L62366 37644
L62329 37635
L62310 37625
L62291 37607
L62282 37579
L62282 37560
L62291 37532
L62300 37522
" />
<path d="M62282 37354
L62282 37391
L62291 37410
L62300 37419
L62329 37438
L62366 37447
L62441 37447
L62460 37438
L62469 37429
L62479 37410
L62479 37372
L62469 37354
L62460 37344
L62441 37335
L62394 37335
L62375 37344
L62366 37354
L62357 37372
L62357 37410
L62366 37429
L62375 37438
L62394 37447
" />
<path d="M66067 42829
L66001 42735
" />
<path d="M65954 42829
L65954 42632
L66029 42632
L66048 42641
L66057 42650
L66067 42669
L66067 42697
L66057 42716
L66048 42725
L66029 42735
L65954 42735
" />
<path d="M66254 42829
L66142 42829
" />
<path d="M66198 42829
L66198 42632
L66179 42660
L66160 42679
L66142 42688
" />
<path d="M63067 42389
L63001 42295
" />
<path d="M62954 42389
L62954 42192
L63029 42192
L63048 42201
L63057 42210
L63067 42229
L63067 42257
L63057 42276
L63048 42285
L63029 42295
L62954 42295
" />
<path d="M63142 42210
L63151 42201
L63170 42192
L63217 42192
L63235 42201
L63245 42210
L63254 42229
L63254 42248
L63245 42276
L63132 42389
L63254 42389
" />
<path d="M66067 43089
L66001 42995
" />
<path d="M65954 43089
L65954 42892
L66029 42892
L66048 42901
L66057 42910
L66067 42929
L66067 42957
L66057 42976
L66048 42985
L66029 42995
L65954 42995
" />
<path d="M66132 42892
L66254 42892
L66189 42967
L66217 42967
L66235 42976
L66245 42985
L66254 43004
L66254 43051
L66245 43070
L66235 43079
L66217 43089
L66160 43089
L66142 43079
L66132 43070
" />
<path d="M67807 33689
L67713 33689
L67713 33492
" />
<path d="M67975 33689
L67863 33689
" />
<path d="M67919 33689
L67919 33492
L67900 33520
L67882 33539
L67863 33548
" />
<path d="M63969 35892
L63969 35986
L63772 35986
" />
<path d="M63790 35836
L63781 35827
L63772 35808
L63772 35761
L63781 35742
L63790 35733
L63809 35724
L63828 35724
L63856 35733
L63969 35845
L63969 35724
" />
<path d="M62307 38679
L62213 38679
L62213 38482
" />
<path d="M62354 38482
L62475 38482
L62410 38557
L62438 38557
L62457 38566
L62466 38575
L62475 38594
L62475 38641
L62466 38660
L62457 38669
L62438 38679
L62382 38679
L62363 38669
L62354 38660
" />
<path d="M64923 39590
L64914 39599
L64885 39609
L64867 39609
L64839 39599
L64820 39580
L64810 39562
L64801 39524
L64801 39496
L64810 39459
L64820 39440
L64839 39421
L64867 39412
L64885 39412
L64914 39421
L64923 39430
" />
<path d="M65110 39609
L64998 39609
" />
<path d="M65054 39609
L65054 39412
L65035 39440
L65017 39459
L64998 39468
" />
<path d="M65232 39412
L65251 39412
L65270 39421
L65279 39430
L65289 39449
L65298 39487
L65298 39534
L65289 39571
L65279 39590
L65270 39599
L65251 39609
L65232 39609
L65214 39599
L65204 39590
L65195 39571
L65185 39534
L65185 39487
L65195 39449
L65204 39430
L65214 39421
L65232 39412
" />
</g>
<g style="fill:#C2C200; fill-opacity:0.0; 
stroke:#C2C200; stroke-width:59.0551; stroke-opacity:1; 
stroke-linecap:round; stroke-linejoin:round;">
<path d="M63760 41984
L63760 42303
L63778 42340
L63797 42359
L63835 42378
L63910 42378
L63947 42359
L63966 42340
L63985 42303
L63985 41984
" />
<path d="M64134 41984
L64378 41984
L64247 42134
L64303 42134
L64341 42153
L64359 42171
L64378 42209
L64378 42303
L64359 42340
L64341 42359
L64303 42378
L64191 42378
L64153 42359
L64134 42340
" />
</g>
<g style="fill:#008484; fill-opacity:0.0; 
stroke:#008484; stroke-width:59.0551; stroke-opacity:1; 
stroke-linecap:round; stroke-linejoin:round;">
<path d="M66543 38374
L66355 38374
L66336 38561
L66355 38543
L66393 38524
L66486 38524
L66524 38543
L66543 38561
L66561 38599
L66561 38693
L66543 38730
L66524 38749
L66486 38768
L66393 38768
L66355 38749
L66336 38730
" />
<path d="M66674 38374
L66805 38768
L66936 38374
" />
<path d="M67068 38768
L67068 38505
" />
<path d="M67068 38374
L67049 38393
L67068 38411
L67086 38393
L67068 38374
L67068 38411
" />
<path d="M67255 38505
L67255 38768
" />
<path d="M67255 38543
L67274 38524
L67311 38505
L67368 38505
L67405 38524
L67424 38561
L67424 38768
" />
<path d="M66430 39083
L66392 39064
L66336 39064
L66280 39083
L66242 39120
L66223 39158
L66205 39233
L66205 39289
L66223 39364
L66242 39401
L66280 39439
L66336 39458
L66373 39458
L66430 39439
L66448 39420
L66448 39289
L66373 39289
" />
<path d="M66617 39458
L66617 39064
L66842 39458
L66842 39064
" />
<path d="M67029 39458
L67029 39064
L67123 39064
L67179 39083
L67217 39120
L67236 39158
L67254 39233
L67254 39289
L67236 39364
L67217 39401
L67179 39439
L67123 39458
L67029 39458
" />
<path d="M66351 41139
L66407 41158
L66501 41158
L66538 41139
L66557 41120
L66576 41083
L66576 41045
L66557 41008
L66538 40989
L66501 40970
L66426 40951
L66388 40933
L66370 40914
L66351 40876
L66351 40839
L66370 40801
L66388 40783
L66426 40764
L66520 40764
L66576 40783
" />
<path d="M66969 41120
L66951 41139
L66894 41158
L66857 41158
L66801 41139
L66763 41101
L66745 41064
L66726 40989
L66726 40933
L66745 40858
L66763 40820
L66801 40783
L66857 40764
L66894 40764
L66951 40783
L66969 40801
" />
<path d="M67326 41158
L67138 41158
L67138 40764
" />
<path d="M66381 40649
L66438 40668
L66531 40668
L66569 40649
L66588 40630
L66606 40593
L66606 40555
L66588 40518
L66569 40499
L66531 40480
L66456 40461
L66419 40443
L66400 40424
L66381 40386
L66381 40349
L66400 40311
L66419 40293
L66456 40274
L66550 40274
L66606 40293
" />
<path d="M66775 40668
L66775 40274
L66869 40274
L66925 40293
L66963 40330
L66981 40368
L67000 40443
L67000 40499
L66981 40574
L66963 40611
L66925 40649
L66869 40668
L66775 40668
" />
<path d="M67150 40555
L67338 40555
" />
<path d="M67113 40668
L67244 40274
L67375 40668
" />
<path d="M61833 36284
L61965 36678
L62096 36284
" />
<path d="M62208 36659
L62265 36678
L62358 36678
L62396 36659
L62414 36640
L62433 36603
L62433 36565
L62414 36528
L62396 36509
L62358 36490
L62283 36471
L62246 36453
L62227 36434
L62208 36396
L62208 36359
L62227 36321
L62246 36303
L62283 36284
L62377 36284
L62433 36303
" />
<path d="M62583 36659
L62639 36678
L62733 36678
L62771 36659
L62789 36640
L62808 36603
L62808 36565
L62789 36528
L62771 36509
L62733 36490
L62658 36471
L62621 36453
L62602 36434
L62583 36396
L62583 36359
L62602 36321
L62621 36303
L62658 36284
L62752 36284
L62808 36303
" />
<path d="M63145 38984
L63276 39378
L63408 38984
" />
<path d="M63539 39378
L63539 39115
" />
<path d="M63539 39190
L63558 39153
L63576 39134
L63614 39115
L63651 39115
" />
<path d="M63933 39359
L63895 39378
L63820 39378
L63783 39359
L63764 39321
L63764 39171
L63783 39134
L63820 39115
L63895 39115
L63933 39134
L63951 39171
L63951 39209
L63764 39246
" />
<path d="M64064 39115
L64214 39115
" />
<path d="M64120 39378
L64120 39040
L64139 39003
L64176 38984
L64214 38984
" />
<path d="M62180 39544
L62311 39938
L62442 39544
" />
<path d="M62554 39825
L62742 39825
" />
<path d="M62517 39938
L62648 39544
L62779 39938
" />
<path d="M61200 43803
L61162 43784
L61106 43784
L61050 43803
L61012 43840
L60993 43878
L60975 43953
L60975 44009
L60993 44084
L61012 44121
L61050 44159
L61106 44178
L61143 44178
L61200 44159
L61218 44140
L61218 44009
L61143 44009
" />
<path d="M61387 44178
L61387 43784
L61612 44178
L61612 43784
" />
<path d="M61799 44178
L61799 43784
L61893 43784
L61949 43803
L61987 43840
L62006 43878
L62024 43953
L62024 44009
L62006 44084
L61987 44121
L61949 44159
L61893 44178
L61799 44178
" />
<path d="M68400 43703
L68362 43684
L68306 43684
L68250 43703
L68212 43740
L68193 43778
L68175 43853
L68175 43909
L68193 43984
L68212 44021
L68250 44059
L68306 44078
L68343 44078
L68400 44059
L68418 44040
L68418 43909
L68343 43909
" />
<path d="M68587 44078
L68587 43684
L68812 44078
L68812 43684
" />
<path d="M68999 44078
L68999 43684
L69093 43684
L69149 43703
L69187 43740
L69206 43778
L69224 43853
L69224 43909
L69206 43984
L69187 44021
L69149 44059
L69093 44078
L68999 44078
" />
<path d="M62781 44984
L62912 45378
L63043 44984
" />
<path d="M63156 45021
L63174 45003
L63212 44984
L63306 44984
L63343 45003
L63362 45021
L63381 45059
L63381 45096
L63362 45153
L63137 45378
L63381 45378
" />
<path d="M65100 45378
L65100 44984
" />
</g>
<g style="fill:#C2C200; fill-opacity:0.0; 
stroke:#C2C200; stroke-width:59.0551; stroke-opacity:1; 
stroke-linecap:round; stroke-linejoin:round;">
</g>
<g style="fill:#C2C200; fill-opacity:0.0; 
stroke:#C2C200; stroke-width:49.2126; stroke-opacity:1; 
stroke-linecap:round; stroke-linejoin:round;">
<path d="M67770 35026
L67779 35035
L67789 35064
L67789 35082
L67779 35110
L67760 35129
L67742 35139
L67704 35148
L67676 35148
L67639 35139
L67620 35129
L67601 35110
L67592 35082
L67592 35064
L67601 35035
L67610 35026
" />
<path d="M67789 34839
L67789 34951
" />
<path d="M67789 34895
L67592 34895
L67620 34914
L67639 34932
L67648 34951
" />
<path d="M67789 34651
L67789 34764
" />
<path d="M67789 34707
L67592 34707
L67620 34726
L67639 34745
L67648 34764
" />
<path d="M67839 36822
L67839 36916
L67642 36916
" />
<path d="M67642 36663
L67642 36757
L67735 36766
L67726 36757
L67717 36738
L67717 36691
L67726 36672
L67735 36663
L67754 36654
L67801 36654
L67820 36663
L67829 36672
L67839 36691
L67839 36738
L67829 36757
L67820 36766
" />
</g>
<g style="fill:#008484; fill-opacity:0.0; 
stroke:#008484; stroke-width:49.2126; stroke-opacity:1; 
stroke-linecap:round; stroke-linejoin:round;">
</g>
<g style="fill:#008484; fill-opacity:0.0; 
stroke:#008484; stroke-width:59.0551; stroke-opacity:1; 
stroke-linecap:round; stroke-linejoin:round;">
<path d="M67285 36144
L67097 36144
L67078 36331
L67097 36313
L67135 36294
L67228 36294
L67266 36313
L67285 36331
L67303 36369
L67303 36463
L67285 36500
L67266 36519
L67228 36538
L67135 36538
L67097 36519
L67078 36500
" />
<path d="M67416 36144
L67547 36538
L67678 36144
" />
</g>
<g style="fill:#C2C200; fill-opacity:0.0; 
stroke:#C2C200; stroke-width:59.0551; stroke-opacity:1; 
stroke-linecap:round; stroke-linejoin:round;">
</g>
<g style="fill:#C2C200; fill-opacity:0.0; 
stroke:#C2C200; stroke-width:49.2126; stroke-opacity:1; 
stroke-linecap:round; stroke-linejoin:round;">
<path d="M61320 40332
L61329 40342
L61339 40370
L61339 40389
L61329 40417
L61310 40435
L61292 40445
L61254 40454
L61226 40454
L61189 40445
L61170 40435
L61151 40417
L61142 40389
L61142 40370
L61151 40342
L61160 40332
" />
<path d="M61226 40220
L61217 40239
L61207 40248
L61189 40257
L61179 40257
L61160 40248
L61151 40239
L61142 40220
L61142 40182
L61151 40164
L61160 40154
L61179 40145
L61189 40145
L61207 40154
L61217 40164
L61226 40182
L61226 40220
L61235 40239
L61245 40248
L61264 40257
L61301 40257
L61320 40248
L61329 40239
L61339 40220
L61339 40182
L61329 40164
L61320 40154
L61301 40145
L61264 40145
L61245 40154
L61235 40164
L61226 40182
" />
<path d="M67167 41790
L67157 41799
L67129 41809
L67110 41809
L67082 41799
L67064 41780
L67054 41762
L67045 41724
L67045 41696
L67054 41659
L67064 41640
L67082 41621
L67110 41612
L67129 41612
L67157 41621
L67167 41630
" />
<path d="M67260 41809
L67298 41809
L67317 41799
L67326 41790
L67345 41762
L67354 41724
L67354 41649
L67345 41630
L67335 41621
L67317 41612
L67279 41612
L67260 41621
L67251 41630
L67242 41649
L67242 41696
L67251 41715
L67260 41724
L67279 41734
L67317 41734
L67335 41724
L67345 41715
L67354 41696
" />
<path d="M62550 40666
L62559 40675
L62569 40704
L62569 40722
L62559 40750
L62540 40769
L62522 40779
L62484 40788
L62456 40788
L62419 40779
L62400 40769
L62381 40750
L62372 40722
L62372 40704
L62381 40675
L62390 40666
" />
<path d="M62569 40479
L62569 40591
" />
<path d="M62569 40535
L62372 40535
L62400 40554
L62419 40572
L62428 40591
" />
<path d="M62390 40404
L62381 40394
L62372 40375
L62372 40329
L62381 40310
L62390 40300
L62409 40291
L62428 40291
L62456 40300
L62569 40413
L62569 40291
" />
<path d="M65033 42930
L65024 42939
L64995 42949
L64977 42949
L64949 42939
L64930 42920
L64920 42902
L64911 42864
L64911 42836
L64920 42799
L64930 42780
L64949 42761
L64977 42752
L64995 42752
L65024 42761
L65033 42770
" />
<path d="M65220 42949
L65108 42949
" />
<path d="M65164 42949
L65164 42752
L65145 42780
L65127 42799
L65108 42808
" />
<path d="M65286 42752
L65408 42752
L65342 42827
L65370 42827
L65389 42836
L65399 42845
L65408 42864
L65408 42911
L65399 42930
L65389 42939
L65370 42949
L65314 42949
L65295 42939
L65286 42930
" />
<path d="M61239 39345
L61042 39345
L61042 39298
L61051 39270
L61070 39251
L61089 39242
L61126 39232
L61154 39232
L61192 39242
L61210 39251
L61229 39270
L61239 39298
L61239 39345
" />
<path d="M61239 39045
L61239 39157
" />
<path d="M61239 39101
L61042 39101
L61070 39120
L61089 39139
L61098 39157
" />
<path d="M61339 38032
L61245 38098
" />
<path d="M61339 38145
L61142 38145
L61142 38070
L61151 38051
L61160 38042
L61179 38032
L61207 38032
L61226 38042
L61235 38051
L61245 38070
L61245 38145
" />
<path d="M61142 37854
L61142 37948
L61235 37957
L61226 37948
L61217 37929
L61217 37882
L61226 37864
L61235 37854
L61254 37845
L61301 37845
L61320 37854
L61329 37864
L61339 37882
L61339 37929
L61329 37948
L61320 37957
" />
<path d="M63067 42909
L63001 42815
" />
<path d="M62954 42909
L62954 42712
L63029 42712
L63048 42721
L63057 42730
L63067 42749
L63067 42777
L63057 42796
L63048 42805
L63029 42815
L62954 42815
" />
<path d="M63235 42712
L63198 42712
L63179 42721
L63170 42730
L63151 42759
L63142 42796
L63142 42871
L63151 42890
L63160 42899
L63179 42909
L63217 42909
L63235 42899
L63245 42890
L63254 42871
L63254 42824
L63245 42805
L63235 42796
L63217 42787
L63179 42787
L63160 42796
L63151 42805
L63142 42824
" />
<path d="M66067 43349
L66001 43255
" />
<path d="M65954 43349
L65954 43152
L66029 43152
L66048 43161
L66057 43170
L66067 43189
L66067 43217
L66057 43236
L66048 43245
L66029 43255
L65954 43255
" />
<path d="M66132 43152
L66264 43152
L66179 43349
" />
</g>
<g style="fill:#C2C200; fill-opacity:0.0; 
stroke:#C2C200; stroke-width:59.0551; stroke-opacity:1; 
stroke-linecap:round; stroke-linejoin:round;">
<path d="M68248 37134
L68248 37415
L68230 37471
L68192 37509
L68136 37528
L68098 37528
" />
<path d="M68642 37528
L68417 37528
" />
<path d="M68529 37528
L68529 37134
L68492 37190
L68454 37228
L68417 37246
" />
</g>
<g style="fill:#008484; fill-opacity:0.0; 
stroke:#008484; stroke-width:59.0551; stroke-opacity:1; 
stroke-linecap:round; stroke-linejoin:round;">
</g>
<g style="fill:#008484; fill-opacity:0.0; 
stroke:#008484; stroke-width:47.2441; stroke-opacity:1; 
stroke-linecap:round; stroke-linejoin:round;">
<path d="M63970 34608
L64679 34608
" />
<path d="M64679 33341
L63714 33341
" />
<path d="M62256 34457
L63043 34457
" />
<path d="M63043 33292
L62256 33292
" />
<path d="M62891 41071
L62891 41268
" />
<path d="M63308 41268
L63308 41071
" />
<path d="M63380 37293
L63380 37686
" />
<path d="M64049 37686
L64049 37293
" />
</g>
<g style="fill:#008484; fill-opacity:0.0; 
stroke:#008484; stroke-width:59.0551; stroke-opacity:1; 
stroke-linecap:round; stroke-linejoin:round;">
<path d="M66332 38575
L66332 36804
" />
<path d="M64147 39018
L64147 36804
" />
</g>
<g style="fill:#008484; fill-opacity:0.0; 
stroke:#008484; stroke-width:47.2441; stroke-opacity:1; 
stroke-linecap:round; stroke-linejoin:round;">
<path d="M63732 40116
L63732 39723
" />
<path d="M64267 39723
L64267 40116
" />
<path d="M64637 34738
L64912 34738
" />
<path d="M64912 35211
L64637 35211
" />
<path d="M66557 34543
L66557 33756
" />
<path d="M65392 33756
L65392 34543
" />
<path d="M67309 34846
L67309 34453
" />
<path d="M66640 34453
L66640 34846
" />
<path d="M62256 35932
L63043 35932
" />
<path d="M63043 34767
L62256 34767
" />
<path d="M62828 37627
L62828 37352
" />
<path d="M63301 37352
L63301 37627
" />
<path d="M65891 40721
L65891 40918
" />
<path d="M66308 40918
L66308 40721
" />
<path d="M62891 40371
L62891 40568
" />
<path d="M63308 40568
L63308 40371
" />
<path d="M65891 41421
L65891 41618
" />
<path d="M66308 41618
L66308 41421
" />
<path d="M67346 33867
L66953 33867
" />
<path d="M66953 33332
L67346 33332
" />
<path d="M64142 35028
L64142 35421
" />
<path d="M63607 35421
L63607 35028
" />
<path d="M63107 38393
L63107 38786
" />
<path d="M62572 38786
L62572 38393
" />
<path d="M64853 40404
L65246 40404
" />
<path d="M65246 39735
L64853 39735
" />
</g>
<g style="fill:#008484; fill-opacity:0.0; 
stroke:#008484; stroke-width:59.0551; stroke-opacity:1; 
stroke-linecap:round; stroke-linejoin:round;">
<path d="M65259 41879
L65259 41810
" />
<path d="M63940 41879
L63940 41781
" />
<path d="M63940 40560
L63940 40658
" />
<path d="M65259 40560
L65259 40658
" />
<path d="M65259 41879
L63940 41879
" />
<path d="M65259 40560
L63940 40560
" />
<path d="M65259 41810
L65751 41810
" />
</g>
<g style="fill:#008484; fill-opacity:0.0; 
stroke:#008484; stroke-width:47.2441; stroke-opacity:1; 
stroke-linecap:round; stroke-linejoin:round;">
<path d="M67865 34703
L67865 35096
" />
<path d="M68534 35096
L68534 34703
" />
<path d="M67932 36696
L67932 36303
" />
<path d="M68467 36303
L68467 36696
" />
<path d="M62082 41733
L62082 40946
" />
<path d="M60917 40946
L60917 41733
" />
<path d="M67613 41857
L66826 41857
" />
<path d="M66826 43022
L67613 43022
" />
<path d="M62165 41323
L62165 41716
" />
<path d="M62834 41716
L62834 41323
" />
<path d="M64963 42694
L65356 42694
" />
<path d="M65356 42025
L64963 42025
" />
<path d="M61324 39908
L61875 39908
" />
<path d="M61875 39908
L61875 38806
" />
<path d="M61324 39908
L61324 38806
" />
<path d="M61391 37951
L61391 38148
" />
<path d="M61808 38148
L61808 37951
" />
<path d="M63308 41958
L63308 41761
" />
<path d="M62891 41761
L62891 41958
" />
<path d="M66308 42318
L66308 42121
" />
<path d="M65891 42121
L65891 42318
" />
<path d="M65088 36018
L65088 35821
" />
<path d="M64671 35821
L64671 36018
" />
<path d="M64251 35821
L64251 36018
" />
<path d="M64668 36018
L64668 35821
" />
<path d="M66328 35878
L66328 35681
" />
<path d="M65911 35681
L65911 35878
" />
<path d="M65491 35681
L65491 35878
" />
<path d="M65908 35878
L65908 35681
" />
<path d="M66798 36251
L66601 36251
" />
<path d="M66601 36668
L66798 36668
" />
<path d="M66798 36821
L66601 36821
" />
<path d="M66601 37238
L66798 37238
" />
<path d="M68152 38700
L68152 41747
" />
<path d="M68152 41747
L69247 41747
" />
<path d="M69247 41747
L69247 38700
" />
<path d="M69247 38700
L68152 38700
" />
<path d="M68152 38200
L68152 37652
" />
<path d="M68152 37652
L68700 37652
" />
</g> 
</svg>
