  0
SECTION
  2
HEADER
  9
$ANGBASE
  50
0.0
  9
$ANGDIR
  70
1
  9
$MEASUREMENT
  70
0
  0
ENDSEC
  0
SECTION
  2
TABLES
  0
TABLE
  2
LTYPE
  70
4
  0
LTYPE
  5
40F
  2
CONTINUOUS
  70
0
  3
Solid line
  72
65
  73
0
  40
0.0
  0
LTYPE
  5
410
  2
DASHDOT
 70
0
  3
Dash Dot ____ _ ____ _
 72
65
 73
4
 40
2.0
 49
1.25
 49
-0.25
 49
0.25
 49
-0.25
  0
LTYPE
  5
411
  2
DASHED
 70
0
  3
Dashed __ __ __ __ __
 72
65
 73
2
 40
0.75
 49
0.5
 49
-0.25
  0
LTYPE
  5
43B
  2
DOTTED
 70
0
  3
Dotted .  .  .  .
 72
65
 73
2
 40
0.2
 49
0.0
 49
-0.2
  0
ENDTAB
  0
TABLE
  2
STYLE
  70
4
  0
STYLE
  2
KICAD
  70
0
  40
0
  41
1
  42
1
  50
0
  71
0
  3
isocp.shx
  0
STYLE
  2
KICADB
  70
0
  40
0
  41
1
  42
1
  50
0
  71
0
  3
isocp.shx
  0
STYLE
  2
KICADI
  70
0
  40
0
  41
1
  42
1
  50
15
  71
0
  3
isocp.shx
  0
STYLE
  2
KICADBI
  70
0
  40
0
  41
1
  42
1
  50
15
  71
0
  3
isocp.shx
  0
ENDTAB
  0
TABLE
  2
LAYER
  70
1
  0
LAYER
  2
BLACK
  70
0
  62
7
  6
CONTINUOUS
  0
ENDTAB
  0
ENDSEC
  0
SECTION
  2
ENTITIES
0
LINE
8
BLACK
6
CONTINUOUS
10
5.96121
20
-2.23429
11
5.96155
21
-2.2343
0
LINE
8
BLACK
6
CONTINUOUS
10
5.96155
20
-2.2343
11
5.96171
21
-2.2343
0
LINE
8
BLACK
6
CONTINUOUS
10
5.96171
20
-2.2343
11
5.96175
21
-2.2343
0
LINE
8
BLACK
6
CONTINUOUS
10
5.96175
20
-2.2343
11
5.96179
21
-2.2343
0
LINE
8
BLACK
6
CONTINUOUS
10
5.96179
20
-2.2343
11
5.96194
21
-2.23432
0
LINE
8
BLACK
6
CONTINUOUS
10
5.96194
20
-2.23432
11
5.96228
21
-2.23436
0
LINE
8
BLACK
6
CONTINUOUS
10
5.96228
20
-2.23436
11
5.96232
21
-2.23437
0
LINE
8
BLACK
6
CONTINUOUS
10
5.96232
20
-2.23437
11
5.96274
21
-2.23442
0
LINE
8
BLACK
6
CONTINUOUS
10
5.96274
20
-2.23442
11
5.96282
21
-2.23443
0
LINE
8
BLACK
6
CONTINUOUS
10
5.96282
20
-2.23443
11
5.9629
21
-2.23443
0
LINE
8
BLACK
6
CONTINUOUS
10
5.9629
20
-2.23443
11
5.96301
21
-2.23444
0
LINE
8
BLACK
6
CONTINUOUS
10
5.96301
20
-2.23444
11
5.96323
21
-2.23447
0
LINE
8
BLACK
6
CONTINUOUS
10
5.96323
20
-2.23447
11
5.96331
21
-2.23447
0
LINE
8
BLACK
6
CONTINUOUS
10
5.96331
20
-2.23447
11
5.96353
21
-2.23452
0
LINE
8
BLACK
6
CONTINUOUS
10
5.96353
20
-2.23452
11
5.96356
21
-2.23452
0
LINE
8
BLACK
6
CONTINUOUS
10
5.96356
20
-2.23452
11
5.96372
21
-2.23456
0
LINE
8
BLACK
6
CONTINUOUS
10
5.96372
20
-2.23456
11
5.96387
21
-2.2346
0
LINE
8
BLACK
6
CONTINUOUS
10
5.96387
20
-2.2346
11
5.9639
21
-2.23461
0
LINE
8
BLACK
6
CONTINUOUS
10
5.9639
20
-2.23461
11
5.96412
21
-2.23466
0
LINE
8
BLACK
6
CONTINUOUS
10
5.96412
20
-2.23466
11
5.96426
21
-2.23472
0
LINE
8
BLACK
6
CONTINUOUS
10
5.96426
20
-2.23472
11
5.96472
21
-2.23486
0
LINE
8
BLACK
6
CONTINUOUS
10
5.96472
20
-2.23486
11
5.9648
21
-2.23487
0
LINE
8
BLACK
6
CONTINUOUS
10
5.9648
20
-2.23487
11
5.96494
21
-2.23491
0
LINE
8
BLACK
6
CONTINUOUS
10
5.96494
20
-2.23491
11
5.96508
21
-2.23493
0
LINE
8
BLACK
6
CONTINUOUS
10
5.96508
20
-2.23493
11
5.96531
21
-2.23502
0
LINE
8
BLACK
6
CONTINUOUS
10
5.96531
20
-2.23502
11
5.96555
21
-2.23509
0
LINE
8
BLACK
6
CONTINUOUS
10
5.96555
20
-2.23509
11
5.96568
21
-2.23517
0
LINE
8
BLACK
6
CONTINUOUS
10
5.96568
20
-2.23517
11
5.9658
21
-2.23519
0
LINE
8
BLACK
6
CONTINUOUS
10
5.9658
20
-2.23519
11
5.96607
21
-2.23532
0
LINE
8
BLACK
6
CONTINUOUS
10
5.96607
20
-2.23532
11
5.96635
21
-2.23543
0
LINE
8
BLACK
6
CONTINUOUS
10
5.96635
20
-2.23543
11
5.96659
21
-2.23558
0
LINE
8
BLACK
6
CONTINUOUS
10
5.96659
20
-2.23558
11
5.96689
21
-2.23575
0
LINE
8
BLACK
6
CONTINUOUS
10
5.96689
20
-2.23575
11
5.96692
21
-2.23576
0
LINE
8
BLACK
6
CONTINUOUS
10
5.96692
20
-2.23576
11
5.96692
21
-2.23576
0
LINE
8
BLACK
6
CONTINUOUS
10
5.96692
20
-2.23576
11
5.96692
21
-2.23576
0
LINE
8
BLACK
6
CONTINUOUS
10
5.96692
20
-2.23576
11
5.96729
21
-2.23596
0
LINE
8
BLACK
6
CONTINUOUS
10
5.96729
20
-2.23596
11
5.96743
21
-2.23603
0
LINE
8
BLACK
6
CONTINUOUS
10
5.96743
20
-2.23603
11
5.96743
21
-2.23604
0
LINE
8
BLACK
6
CONTINUOUS
10
5.96743
20
-2.23604
11
5.96761
21
-2.23613
0
LINE
8
BLACK
6
CONTINUOUS
10
5.96761
20
-2.23613
11
5.96776
21
-2.23625
0
LINE
8
BLACK
6
CONTINUOUS
10
5.96776
20
-2.23625
11
5.96777
21
-2.23626
0
LINE
8
BLACK
6
CONTINUOUS
10
5.96777
20
-2.23626
11
5.96779
21
-2.23627
0
LINE
8
BLACK
6
CONTINUOUS
10
5.96779
20
-2.23627
11
5.96809
21
-2.23647
0
LINE
8
BLACK
6
CONTINUOUS
10
5.96809
20
-2.23647
11
5.96823
21
-2.23656
0
LINE
8
BLACK
6
CONTINUOUS
10
5.96823
20
-2.23656
11
5.96825
21
-2.23658
0
LINE
8
BLACK
6
CONTINUOUS
10
5.96825
20
-2.23658
11
5.96827
21
-2.2366
0
LINE
8
BLACK
6
CONTINUOUS
10
5.96827
20
-2.2366
11
5.9684
21
-2.23671
0
LINE
8
BLACK
6
CONTINUOUS
10
5.9684
20
-2.23671
11
5.96868
21
-2.23693
0
LINE
8
BLACK
6
CONTINUOUS
10
5.96868
20
-2.23693
11
5.96869
21
-2.23695
0
LINE
8
BLACK
6
CONTINUOUS
10
5.96869
20
-2.23695
11
5.96878
21
-2.23703
0
LINE
8
BLACK
6
CONTINUOUS
10
5.96878
20
-2.23703
11
5.96887
21
-2.23707
0
LINE
8
BLACK
6
CONTINUOUS
10
5.96887
20
-2.23707
11
5.96904
21
-2.23721
0
LINE
8
BLACK
6
CONTINUOUS
10
5.96904
20
-2.23721
11
5.96922
21
-2.23734
0
LINE
8
BLACK
6
CONTINUOUS
10
5.96922
20
-2.23734
11
5.96934
21
-2.23746
0
LINE
8
BLACK
6
CONTINUOUS
10
5.96934
20
-2.23746
11
5.96947
21
-2.23756
0
LINE
8
BLACK
6
CONTINUOUS
10
5.96947
20
-2.23756
11
5.96961
21
-2.23773
0
LINE
8
BLACK
6
CONTINUOUS
10
5.96961
20
-2.23773
11
5.96962
21
-2.23775
0
LINE
8
BLACK
6
CONTINUOUS
10
5.96962
20
-2.23775
11
5.96973
21
-2.23788
0
LINE
8
BLACK
6
CONTINUOUS
10
5.96973
20
-2.23788
11
5.96977
21
-2.23793
0
LINE
8
BLACK
6
CONTINUOUS
10
5.96977
20
-2.23793
11
5.96979
21
-2.23796
0
LINE
8
BLACK
6
CONTINUOUS
10
5.96979
20
-2.23796
11
5.96991
21
-2.23807
0
LINE
8
BLACK
6
CONTINUOUS
10
5.96991
20
-2.23807
11
5.96993
21
-2.23809
0
LINE
8
BLACK
6
CONTINUOUS
10
5.96993
20
-2.23809
11
5.96994
21
-2.23811
0
LINE
8
BLACK
6
CONTINUOUS
10
5.96994
20
-2.23811
11
5.97005
21
-2.23824
0
LINE
8
BLACK
6
CONTINUOUS
10
5.97005
20
-2.23824
11
5.97043
21
-2.23869
0
LINE
8
BLACK
6
CONTINUOUS
10
5.97043
20
-2.23869
11
5.97045
21
-2.23871
0
LINE
8
BLACK
6
CONTINUOUS
10
5.97045
20
-2.23871
11
5.97057
21
-2.23886
0
LINE
8
BLACK
6
CONTINUOUS
10
5.97057
20
-2.23886
11
5.97061
21
-2.2389
0
LINE
8
BLACK
6
CONTINUOUS
10
5.97061
20
-2.2389
11
5.97065
21
-2.23894
0
LINE
8
BLACK
6
CONTINUOUS
10
5.97065
20
-2.23894
11
5.97082
21
-2.23912
0
LINE
8
BLACK
6
CONTINUOUS
10
5.97082
20
-2.23912
11
5.97089
21
-2.23924
0
LINE
8
BLACK
6
CONTINUOUS
10
5.97089
20
-2.23924
11
5.97098
21
-2.23935
0
LINE
8
BLACK
6
CONTINUOUS
10
5.97098
20
-2.23935
11
5.9711
21
-2.23956
0
LINE
8
BLACK
6
CONTINUOUS
10
5.9711
20
-2.23956
11
5.97113
21
-2.23961
0
LINE
8
BLACK
6
CONTINUOUS
10
5.97113
20
-2.23961
11
5.97115
21
-2.23965
0
LINE
8
BLACK
6
CONTINUOUS
10
5.97115
20
-2.23965
11
5.97116
21
-2.23967
0
LINE
8
BLACK
6
CONTINUOUS
10
5.97116
20
-2.23967
11
5.97125
21
-2.2398
0
LINE
8
BLACK
6
CONTINUOUS
10
5.97125
20
-2.2398
11
5.97133
21
-2.23992
0
LINE
8
BLACK
6
CONTINUOUS
10
5.97133
20
-2.23992
11
5.97135
21
-2.23996
0
LINE
8
BLACK
6
CONTINUOUS
10
5.97135
20
-2.23996
11
5.97148
21
-2.24016
0
LINE
8
BLACK
6
CONTINUOUS
10
5.97148
20
-2.24016
11
5.97154
21
-2.2403
0
LINE
8
BLACK
6
CONTINUOUS
10
5.97154
20
-2.2403
11
5.97171
21
-2.24061
0
LINE
8
BLACK
6
CONTINUOUS
10
5.97171
20
-2.24061
11
5.97177
21
-2.24068
0
LINE
8
BLACK
6
CONTINUOUS
10
5.97177
20
-2.24068
11
5.97184
21
-2.24081
0
LINE
8
BLACK
6
CONTINUOUS
10
5.97184
20
-2.24081
11
5.97192
21
-2.24092
0
LINE
8
BLACK
6
CONTINUOUS
10
5.97192
20
-2.24092
11
5.97202
21
-2.24115
0
LINE
8
BLACK
6
CONTINUOUS
10
5.97202
20
-2.24115
11
5.97214
21
-2.24137
0
LINE
8
BLACK
6
CONTINUOUS
10
5.97214
20
-2.24137
11
5.97223
21
-2.24169
0
LINE
8
BLACK
6
CONTINUOUS
10
5.97223
20
-2.24169
11
5.97223
21
-2.24169
0
LINE
8
BLACK
6
CONTINUOUS
10
5.97223
20
-2.24169
11
5.9723
21
-2.24186
0
LINE
8
BLACK
6
CONTINUOUS
10
5.9723
20
-2.24186
11
5.97237
21
-2.24202
0
LINE
8
BLACK
6
CONTINUOUS
10
5.97237
20
-2.24202
11
5.97238
21
-2.24204
0
LINE
8
BLACK
6
CONTINUOUS
10
5.97238
20
-2.24204
11
5.97239
21
-2.24206
0
LINE
8
BLACK
6
CONTINUOUS
10
5.97239
20
-2.24206
11
5.97244
21
-2.24223
0
LINE
8
BLACK
6
CONTINUOUS
10
5.97244
20
-2.24223
11
5.97255
21
-2.24258
0
LINE
8
BLACK
6
CONTINUOUS
10
5.97255
20
-2.24258
11
5.97255
21
-2.2426
0
LINE
8
BLACK
6
CONTINUOUS
10
5.97255
20
-2.2426
11
5.97261
21
-2.24278
0
LINE
8
BLACK
6
CONTINUOUS
10
5.97261
20
-2.24278
11
5.97261
21
-2.24279
0
LINE
8
BLACK
6
CONTINUOUS
10
5.97261
20
-2.24279
11
5.97271
21
-2.24311
0
LINE
8
BLACK
6
CONTINUOUS
10
5.97271
20
-2.24311
11
5.97278
21
-2.24334
0
LINE
8
BLACK
6
CONTINUOUS
10
5.97278
20
-2.24334
11
5.97278
21
-2.24334
0
LINE
8
BLACK
6
CONTINUOUS
10
5.97278
20
-2.24334
11
5.97283
21
-2.24353
0
LINE
8
BLACK
6
CONTINUOUS
10
5.97283
20
-2.24353
11
5.97284
21
-2.24362
0
LINE
8
BLACK
6
CONTINUOUS
10
5.97284
20
-2.24362
11
5.97287
21
-2.24372
0
LINE
8
BLACK
6
CONTINUOUS
10
5.97287
20
-2.24372
11
5.97288
21
-2.24379
0
LINE
8
BLACK
6
CONTINUOUS
10
5.97288
20
-2.24379
11
5.9729
21
-2.24387
0
LINE
8
BLACK
6
CONTINUOUS
10
5.9729
20
-2.24387
11
5.97292
21
-2.24398
0
LINE
8
BLACK
6
CONTINUOUS
10
5.97292
20
-2.24398
11
5.97297
21
-2.24429
0
LINE
8
BLACK
6
CONTINUOUS
10
5.97297
20
-2.24429
11
5.97297
21
-2.24437
0
LINE
8
BLACK
6
CONTINUOUS
10
5.97297
20
-2.24437
11
5.97297
21
-2.24437
0
LINE
8
BLACK
6
CONTINUOUS
10
5.97297
20
-2.24437
11
5.973
21
-2.24452
0
LINE
8
BLACK
6
CONTINUOUS
10
5.973
20
-2.24452
11
5.973
21
-2.24456
0
LINE
8
BLACK
6
CONTINUOUS
10
5.973
20
-2.24456
11
5.97305
21
-2.24501
0
LINE
8
BLACK
6
CONTINUOUS
10
5.97305
20
-2.24501
11
5.97307
21
-2.24506
0
LINE
8
BLACK
6
CONTINUOUS
10
5.97307
20
-2.24506
11
5.9731
21
-2.2454
0
LINE
8
BLACK
6
CONTINUOUS
10
5.9731
20
-2.2454
11
5.97312
21
-2.24554
0
LINE
8
BLACK
6
CONTINUOUS
10
5.97312
20
-2.24554
11
5.97312
21
-2.24559
0
LINE
8
BLACK
6
CONTINUOUS
10
5.97312
20
-2.24559
11
5.97313
21
-2.24564
0
LINE
8
BLACK
6
CONTINUOUS
10
5.97313
20
-2.24564
11
5.97313
21
-2.24579
0
LINE
8
BLACK
6
CONTINUOUS
10
5.97313
20
-2.24579
11
5.97314
21
-2.24612
0
LINE
8
BLACK
6
CONTINUOUS
10
5.97314
20
-2.24612
11
5.97313
21
-2.24617
0
LINE
8
BLACK
6
CONTINUOUS
10
5.97313
20
-2.24617
11
5.97313
21
-2.7114
0
LINE
8
BLACK
6
CONTINUOUS
10
5.97313
20
-2.7114
11
5.9739
21
-2.71938
0
LINE
8
BLACK
6
CONTINUOUS
10
5.9739
20
-2.71938
11
5.97616
21
-2.72688
0
LINE
8
BLACK
6
CONTINUOUS
10
5.97616
20
-2.72688
11
5.97983
21
-2.7338
0
LINE
8
BLACK
6
CONTINUOUS
10
5.97983
20
-2.7338
11
5.98477
21
-2.73987
0
LINE
8
BLACK
6
CONTINUOUS
10
5.98477
20
-2.73987
11
5.9908
21
-2.74487
0
LINE
8
BLACK
6
CONTINUOUS
10
5.9908
20
-2.74487
11
5.99769
21
-2.74861
0
LINE
8
BLACK
6
CONTINUOUS
10
5.99769
20
-2.74861
11
6.00517
21
-2.75093
0
LINE
8
BLACK
6
CONTINUOUS
10
6.00517
20
-2.75093
11
6.01314
21
-2.75178
0
LINE
8
BLACK
6
CONTINUOUS
10
6.01314
20
-2.75178
11
6.05938
21
-2.75178
0
LINE
8
BLACK
6
CONTINUOUS
10
6.05938
20
-2.75178
11
6.05996
21
-2.75184
0
LINE
8
BLACK
6
CONTINUOUS
10
6.05996
20
-2.75184
11
6.0607
21
-2.75206
0
LINE
8
BLACK
6
CONTINUOUS
10
6.0607
20
-2.75206
11
6.06139
21
-2.75243
0
LINE
8
BLACK
6
CONTINUOUS
10
6.06139
20
-2.75243
11
6.06199
21
-2.75292
0
LINE
8
BLACK
6
CONTINUOUS
10
6.06199
20
-2.75292
11
6.06248
21
-2.75352
0
LINE
8
BLACK
6
CONTINUOUS
10
6.06248
20
-2.75352
11
6.06284
21
-2.7542
0
LINE
8
BLACK
6
CONTINUOUS
10
6.06284
20
-2.7542
11
6.06307
21
-2.75494
0
LINE
8
BLACK
6
CONTINUOUS
10
6.06307
20
-2.75494
11
6.06315
21
-2.75572
0
LINE
8
BLACK
6
CONTINUOUS
10
6.06315
20
-2.75572
11
6.06313
21
-2.75591
0
LINE
8
BLACK
6
CONTINUOUS
10
6.06313
20
-2.75591
11
6.06313
21
-3.88377
0
LINE
8
BLACK
6
CONTINUOUS
10
6.06313
20
-3.88377
11
6.06313
21
-3.8839
0
LINE
8
BLACK
6
CONTINUOUS
10
6.06313
20
-3.8839
11
6.06313
21
-3.88396
0
LINE
8
BLACK
6
CONTINUOUS
10
6.06313
20
-3.88396
11
6.06313
21
-3.88402
0
LINE
8
BLACK
6
CONTINUOUS
10
6.06313
20
-3.88402
11
6.06311
21
-3.88415
0
LINE
8
BLACK
6
CONTINUOUS
10
6.06311
20
-3.88415
11
6.06309
21
-3.88452
0
LINE
8
BLACK
6
CONTINUOUS
10
6.06309
20
-3.88452
11
6.06309
21
-3.88474
0
LINE
8
BLACK
6
CONTINUOUS
10
6.06309
20
-3.88474
11
6.06303
21
-3.88509
0
LINE
8
BLACK
6
CONTINUOUS
10
6.06303
20
-3.88509
11
6.06297
21
-3.88545
0
LINE
8
BLACK
6
CONTINUOUS
10
6.06297
20
-3.88545
11
6.06289
21
-3.88566
0
LINE
8
BLACK
6
CONTINUOUS
10
6.06289
20
-3.88566
11
6.06282
21
-3.8859
0
LINE
8
BLACK
6
CONTINUOUS
10
6.06282
20
-3.8859
11
6.06277
21
-3.88613
0
LINE
8
BLACK
6
CONTINUOUS
10
6.06277
20
-3.88613
11
6.06264
21
-3.88645
0
LINE
8
BLACK
6
CONTINUOUS
10
6.06264
20
-3.88645
11
6.06251
21
-3.88678
0
LINE
8
BLACK
6
CONTINUOUS
10
6.06251
20
-3.88678
11
6.06239
21
-3.88697
0
LINE
8
BLACK
6
CONTINUOUS
10
6.06239
20
-3.88697
11
6.06223
21
-3.88726
0
LINE
8
BLACK
6
CONTINUOUS
10
6.06223
20
-3.88726
11
6.06211
21
-3.88752
0
LINE
8
BLACK
6
CONTINUOUS
10
6.06211
20
-3.88752
11
6.06193
21
-3.88776
0
LINE
8
BLACK
6
CONTINUOUS
10
6.06193
20
-3.88776
11
6.06177
21
-3.888
0
LINE
8
BLACK
6
CONTINUOUS
10
6.06177
20
-3.888
11
6.06156
21
-3.8882
0
LINE
8
BLACK
6
CONTINUOUS
10
6.06156
20
-3.8882
11
6.06123
21
-3.88857
0
LINE
8
BLACK
6
CONTINUOUS
10
6.06123
20
-3.88857
11
6.06111
21
-3.8887
0
LINE
8
BLACK
6
CONTINUOUS
10
6.06111
20
-3.8887
11
6.06111
21
-3.8887
0
LINE
8
BLACK
6
CONTINUOUS
10
6.06111
20
-3.8887
11
6.06111
21
-3.8887
0
LINE
8
BLACK
6
CONTINUOUS
10
6.06111
20
-3.8887
11
6.06098
21
-3.88882
0
LINE
8
BLACK
6
CONTINUOUS
10
6.06098
20
-3.88882
11
6.06061
21
-3.88915
0
LINE
8
BLACK
6
CONTINUOUS
10
6.06061
20
-3.88915
11
6.06041
21
-3.88936
0
LINE
8
BLACK
6
CONTINUOUS
10
6.06041
20
-3.88936
11
6.06017
21
-3.88952
0
LINE
8
BLACK
6
CONTINUOUS
10
6.06017
20
-3.88952
11
6.05993
21
-3.8897
0
LINE
8
BLACK
6
CONTINUOUS
10
6.05993
20
-3.8897
11
6.05967
21
-3.88982
0
LINE
8
BLACK
6
CONTINUOUS
10
6.05967
20
-3.88982
11
6.05938
21
-3.88998
0
LINE
8
BLACK
6
CONTINUOUS
10
6.05938
20
-3.88998
11
6.05919
21
-3.8901
0
LINE
8
BLACK
6
CONTINUOUS
10
6.05919
20
-3.8901
11
6.05886
21
-3.89023
0
LINE
8
BLACK
6
CONTINUOUS
10
6.05886
20
-3.89023
11
6.05854
21
-3.89036
0
LINE
8
BLACK
6
CONTINUOUS
10
6.05854
20
-3.89036
11
6.05831
21
-3.89041
0
LINE
8
BLACK
6
CONTINUOUS
10
6.05831
20
-3.89041
11
6.05811
21
-3.89047
0
LINE
8
BLACK
6
CONTINUOUS
10
6.05811
20
-3.89047
11
6.05795
21
-3.89053
0
LINE
8
BLACK
6
CONTINUOUS
10
6.05795
20
-3.89053
11
6.05774
21
-3.89057
0
LINE
8
BLACK
6
CONTINUOUS
10
6.05774
20
-3.89057
11
6.05772
21
-3.89058
0
LINE
8
BLACK
6
CONTINUOUS
10
6.05772
20
-3.89058
11
6.05755
21
-3.89061
0
LINE
8
BLACK
6
CONTINUOUS
10
6.05755
20
-3.89061
11
6.05738
21
-3.89064
0
LINE
8
BLACK
6
CONTINUOUS
10
6.05738
20
-3.89064
11
6.05736
21
-3.89065
0
LINE
8
BLACK
6
CONTINUOUS
10
6.05736
20
-3.89065
11
6.05715
21
-3.89068
0
LINE
8
BLACK
6
CONTINUOUS
10
6.05715
20
-3.89068
11
6.05697
21
-3.89068
0
LINE
8
BLACK
6
CONTINUOUS
10
6.05697
20
-3.89068
11
6.05676
21
-3.8907
0
LINE
8
BLACK
6
CONTINUOUS
10
6.05676
20
-3.8907
11
6.05659
21
-3.89072
0
LINE
8
BLACK
6
CONTINUOUS
10
6.05659
20
-3.89072
11
6.05657
21
-3.89072
0
LINE
8
BLACK
6
CONTINUOUS
10
6.05657
20
-3.89072
11
6.05656
21
-3.89072
0
LINE
8
BLACK
6
CONTINUOUS
10
6.05656
20
-3.89072
11
6.05639
21
-3.89072
0
LINE
8
BLACK
6
CONTINUOUS
10
6.05639
20
-3.89072
11
5.1563
21
-3.89072
0
LINE
8
BLACK
6
CONTINUOUS
10
5.1563
20
-3.89072
11
5.15617
21
-3.89072
0
LINE
8
BLACK
6
CONTINUOUS
10
5.15617
20
-3.89072
11
5.15611
21
-3.89072
0
LINE
8
BLACK
6
CONTINUOUS
10
5.15611
20
-3.89072
11
5.15604
21
-3.89072
0
LINE
8
BLACK
6
CONTINUOUS
10
5.15604
20
-3.89072
11
5.15591
21
-3.8907
0
LINE
8
BLACK
6
CONTINUOUS
10
5.15591
20
-3.8907
11
5.15555
21
-3.89068
0
LINE
8
BLACK
6
CONTINUOUS
10
5.15555
20
-3.89068
11
5.15532
21
-3.89068
0
LINE
8
BLACK
6
CONTINUOUS
10
5.15532
20
-3.89068
11
5.15497
21
-3.89062
0
LINE
8
BLACK
6
CONTINUOUS
10
5.15497
20
-3.89062
11
5.15462
21
-3.89056
0
LINE
8
BLACK
6
CONTINUOUS
10
5.15462
20
-3.89056
11
5.15441
21
-3.89048
0
LINE
8
BLACK
6
CONTINUOUS
10
5.15441
20
-3.89048
11
5.15416
21
-3.89041
0
LINE
8
BLACK
6
CONTINUOUS
10
5.15416
20
-3.89041
11
5.15393
21
-3.89036
0
LINE
8
BLACK
6
CONTINUOUS
10
5.15393
20
-3.89036
11
5.15361
21
-3.89023
0
LINE
8
BLACK
6
CONTINUOUS
10
5.15361
20
-3.89023
11
5.15329
21
-3.8901
0
LINE
8
BLACK
6
CONTINUOUS
10
5.15329
20
-3.8901
11
5.15309
21
-3.88998
0
LINE
8
BLACK
6
CONTINUOUS
10
5.15309
20
-3.88998
11
5.1528
21
-3.88982
0
LINE
8
BLACK
6
CONTINUOUS
10
5.1528
20
-3.88982
11
5.15254
21
-3.8897
0
LINE
8
BLACK
6
CONTINUOUS
10
5.15254
20
-3.8897
11
5.15231
21
-3.88952
0
LINE
8
BLACK
6
CONTINUOUS
10
5.15231
20
-3.88952
11
5.15206
21
-3.88936
0
LINE
8
BLACK
6
CONTINUOUS
10
5.15206
20
-3.88936
11
5.15186
21
-3.88915
0
LINE
8
BLACK
6
CONTINUOUS
10
5.15186
20
-3.88915
11
5.1515
21
-3.88882
0
LINE
8
BLACK
6
CONTINUOUS
10
5.1515
20
-3.88882
11
5.15137
21
-3.8887
0
LINE
8
BLACK
6
CONTINUOUS
10
5.15137
20
-3.8887
11
5.15136
21
-3.8887
0
LINE
8
BLACK
6
CONTINUOUS
10
5.15136
20
-3.8887
11
5.15136
21
-3.8887
0
LINE
8
BLACK
6
CONTINUOUS
10
5.15136
20
-3.8887
11
5.15124
21
-3.88857
0
LINE
8
BLACK
6
CONTINUOUS
10
5.15124
20
-3.88857
11
5.15091
21
-3.8882
0
LINE
8
BLACK
6
CONTINUOUS
10
5.15091
20
-3.8882
11
5.15071
21
-3.888
0
LINE
8
BLACK
6
CONTINUOUS
10
5.15071
20
-3.888
11
5.15054
21
-3.88776
0
LINE
8
BLACK
6
CONTINUOUS
10
5.15054
20
-3.88776
11
5.15037
21
-3.88752
0
LINE
8
BLACK
6
CONTINUOUS
10
5.15037
20
-3.88752
11
5.15024
21
-3.88726
0
LINE
8
BLACK
6
CONTINUOUS
10
5.15024
20
-3.88726
11
5.15009
21
-3.88697
0
LINE
8
BLACK
6
CONTINUOUS
10
5.15009
20
-3.88697
11
5.14996
21
-3.88678
0
LINE
8
BLACK
6
CONTINUOUS
10
5.14996
20
-3.88678
11
5.14983
21
-3.88645
0
LINE
8
BLACK
6
CONTINUOUS
10
5.14983
20
-3.88645
11
5.1497
21
-3.88613
0
LINE
8
BLACK
6
CONTINUOUS
10
5.1497
20
-3.88613
11
5.14965
21
-3.8859
0
LINE
8
BLACK
6
CONTINUOUS
10
5.14965
20
-3.8859
11
5.14958
21
-3.88565
0
LINE
8
BLACK
6
CONTINUOUS
10
5.14958
20
-3.88565
11
5.1495
21
-3.88545
0
LINE
8
BLACK
6
CONTINUOUS
10
5.1495
20
-3.88545
11
5.14944
21
-3.88509
0
LINE
8
BLACK
6
CONTINUOUS
10
5.14944
20
-3.88509
11
5.14938
21
-3.88474
0
LINE
8
BLACK
6
CONTINUOUS
10
5.14938
20
-3.88474
11
5.14938
21
-3.88452
0
LINE
8
BLACK
6
CONTINUOUS
10
5.14938
20
-3.88452
11
5.14936
21
-3.88415
0
LINE
8
BLACK
6
CONTINUOUS
10
5.14936
20
-3.88415
11
5.14935
21
-3.88402
0
LINE
8
BLACK
6
CONTINUOUS
10
5.14935
20
-3.88402
11
5.14935
21
-3.88396
0
LINE
8
BLACK
6
CONTINUOUS
10
5.14935
20
-3.88396
11
5.14934
21
-3.8839
0
LINE
8
BLACK
6
CONTINUOUS
10
5.14934
20
-3.8839
11
5.14935
21
-3.88377
0
LINE
8
BLACK
6
CONTINUOUS
10
5.14935
20
-3.88377
11
5.14935
21
-3.88348
0
LINE
8
BLACK
6
CONTINUOUS
10
5.14935
20
-3.88348
11
5.14935
21
-2.74575
0
LINE
8
BLACK
6
CONTINUOUS
10
5.14935
20
-2.74575
11
5.14933
21
-2.74556
0
LINE
8
BLACK
6
CONTINUOUS
10
5.14933
20
-2.74556
11
5.1494
21
-2.74479
0
LINE
8
BLACK
6
CONTINUOUS
10
5.1494
20
-2.74479
11
5.14963
21
-2.74405
0
LINE
8
BLACK
6
CONTINUOUS
10
5.14963
20
-2.74405
11
5.14999
21
-2.74336
0
LINE
8
BLACK
6
CONTINUOUS
10
5.14999
20
-2.74336
11
5.15
21
-2.74336
0
LINE
8
BLACK
6
CONTINUOUS
10
5.15
20
-2.74336
11
5.1503
21
-2.74298
0
LINE
8
BLACK
6
CONTINUOUS
10
5.1503
20
-2.74298
11
5.15049
21
-2.74276
0
LINE
8
BLACK
6
CONTINUOUS
10
5.15049
20
-2.74276
11
5.15049
21
-2.74276
0
LINE
8
BLACK
6
CONTINUOUS
10
5.15049
20
-2.74276
11
5.15049
21
-2.74276
0
LINE
8
BLACK
6
CONTINUOUS
10
5.15049
20
-2.74276
11
5.15102
21
-2.74232
0
LINE
8
BLACK
6
CONTINUOUS
10
5.15102
20
-2.74232
11
5.15109
21
-2.74227
0
LINE
8
BLACK
6
CONTINUOUS
10
5.15109
20
-2.74227
11
5.15109
21
-2.74227
0
LINE
8
BLACK
6
CONTINUOUS
10
5.15109
20
-2.74227
11
5.15109
21
-2.74227
0
LINE
8
BLACK
6
CONTINUOUS
10
5.15109
20
-2.74227
11
5.15177
21
-2.7419
0
LINE
8
BLACK
6
CONTINUOUS
10
5.15177
20
-2.7419
11
5.15246
21
-2.7417
0
LINE
8
BLACK
6
CONTINUOUS
10
5.15246
20
-2.7417
11
5.15251
21
-2.74168
0
LINE
8
BLACK
6
CONTINUOUS
10
5.15251
20
-2.74168
11
5.15251
21
-2.74168
0
LINE
8
BLACK
6
CONTINUOUS
10
5.15251
20
-2.74168
11
5.15251
21
-2.74168
0
LINE
8
BLACK
6
CONTINUOUS
10
5.15251
20
-2.74168
11
5.15328
21
-2.7416
0
LINE
8
BLACK
6
CONTINUOUS
10
5.15328
20
-2.7416
11
5.15348
21
-2.74162
0
LINE
8
BLACK
6
CONTINUOUS
10
5.15348
20
-2.74162
11
5.19897
21
-2.74162
0
LINE
8
BLACK
6
CONTINUOUS
10
5.19897
20
-2.74162
11
5.20694
21
-2.74085
0
LINE
8
BLACK
6
CONTINUOUS
10
5.20694
20
-2.74085
11
5.21445
21
-2.73859
0
LINE
8
BLACK
6
CONTINUOUS
10
5.21445
20
-2.73859
11
5.22137
21
-2.73492
0
LINE
8
BLACK
6
CONTINUOUS
10
5.22137
20
-2.73492
11
5.22744
21
-2.72998
0
LINE
8
BLACK
6
CONTINUOUS
10
5.22744
20
-2.72998
11
5.23244
21
-2.72394
0
LINE
8
BLACK
6
CONTINUOUS
10
5.23244
20
-2.72394
11
5.23618
21
-2.71706
0
LINE
8
BLACK
6
CONTINUOUS
10
5.23618
20
-2.71706
11
5.2385
21
-2.70958
0
LINE
8
BLACK
6
CONTINUOUS
10
5.2385
20
-2.70958
11
5.23935
21
-2.70161
0
LINE
8
BLACK
6
CONTINUOUS
10
5.23935
20
-2.70161
11
5.23935
21
-2.24626
0
LINE
8
BLACK
6
CONTINUOUS
10
5.23935
20
-2.24626
11
5.23934
21
-2.24622
0
LINE
8
BLACK
6
CONTINUOUS
10
5.23934
20
-2.24622
11
5.23934
21
-2.24607
0
LINE
8
BLACK
6
CONTINUOUS
10
5.23934
20
-2.24607
11
5.23933
21
-2.24591
0
LINE
8
BLACK
6
CONTINUOUS
10
5.23933
20
-2.24591
11
5.23935
21
-2.24568
0
LINE
8
BLACK
6
CONTINUOUS
10
5.23935
20
-2.24568
11
5.23935
21
-2.24564
0
LINE
8
BLACK
6
CONTINUOUS
10
5.23935
20
-2.24564
11
5.23937
21
-2.24549
0
LINE
8
BLACK
6
CONTINUOUS
10
5.23937
20
-2.24549
11
5.2394
21
-2.24514
0
LINE
8
BLACK
6
CONTINUOUS
10
5.2394
20
-2.24514
11
5.23942
21
-2.2451
0
LINE
8
BLACK
6
CONTINUOUS
10
5.23942
20
-2.2451
11
5.23947
21
-2.24468
0
LINE
8
BLACK
6
CONTINUOUS
10
5.23947
20
-2.24468
11
5.23947
21
-2.24461
0
LINE
8
BLACK
6
CONTINUOUS
10
5.23947
20
-2.24461
11
5.23948
21
-2.24452
0
LINE
8
BLACK
6
CONTINUOUS
10
5.23948
20
-2.24452
11
5.23949
21
-2.24442
0
LINE
8
BLACK
6
CONTINUOUS
10
5.23949
20
-2.24442
11
5.23951
21
-2.2442
0
LINE
8
BLACK
6
CONTINUOUS
10
5.23951
20
-2.2442
11
5.23952
21
-2.24412
0
LINE
8
BLACK
6
CONTINUOUS
10
5.23952
20
-2.24412
11
5.23957
21
-2.2439
0
LINE
8
BLACK
6
CONTINUOUS
10
5.23957
20
-2.2439
11
5.23957
21
-2.24387
0
LINE
8
BLACK
6
CONTINUOUS
10
5.23957
20
-2.24387
11
5.23961
21
-2.24371
0
LINE
8
BLACK
6
CONTINUOUS
10
5.23961
20
-2.24371
11
5.23965
21
-2.24355
0
LINE
8
BLACK
6
CONTINUOUS
10
5.23965
20
-2.24355
11
5.23966
21
-2.24352
0
LINE
8
BLACK
6
CONTINUOUS
10
5.23966
20
-2.24352
11
5.23971
21
-2.2433
0
LINE
8
BLACK
6
CONTINUOUS
10
5.23971
20
-2.2433
11
5.23977
21
-2.24317
0
LINE
8
BLACK
6
CONTINUOUS
10
5.23977
20
-2.24317
11
5.23991
21
-2.2427
0
LINE
8
BLACK
6
CONTINUOUS
10
5.23991
20
-2.2427
11
5.23992
21
-2.24262
0
LINE
8
BLACK
6
CONTINUOUS
10
5.23992
20
-2.24262
11
5.23996
21
-2.24249
0
LINE
8
BLACK
6
CONTINUOUS
10
5.23996
20
-2.24249
11
5.23998
21
-2.24235
0
LINE
8
BLACK
6
CONTINUOUS
10
5.23998
20
-2.24235
11
5.24007
21
-2.24212
0
LINE
8
BLACK
6
CONTINUOUS
10
5.24007
20
-2.24212
11
5.24014
21
-2.24188
0
LINE
8
BLACK
6
CONTINUOUS
10
5.24014
20
-2.24188
11
5.24021
21
-2.24174
0
LINE
8
BLACK
6
CONTINUOUS
10
5.24021
20
-2.24174
11
5.24024
21
-2.24163
0
LINE
8
BLACK
6
CONTINUOUS
10
5.24024
20
-2.24163
11
5.24036
21
-2.24135
0
LINE
8
BLACK
6
CONTINUOUS
10
5.24036
20
-2.24135
11
5.24047
21
-2.24107
0
LINE
8
BLACK
6
CONTINUOUS
10
5.24047
20
-2.24107
11
5.24063
21
-2.24084
0
LINE
8
BLACK
6
CONTINUOUS
10
5.24063
20
-2.24084
11
5.2408
21
-2.24053
0
LINE
8
BLACK
6
CONTINUOUS
10
5.2408
20
-2.24053
11
5.24081
21
-2.24051
0
LINE
8
BLACK
6
CONTINUOUS
10
5.24081
20
-2.24051
11
5.24081
21
-2.2405
0
LINE
8
BLACK
6
CONTINUOUS
10
5.24081
20
-2.2405
11
5.24081
21
-2.2405
0
LINE
8
BLACK
6
CONTINUOUS
10
5.24081
20
-2.2405
11
5.24101
21
-2.24014
0
LINE
8
BLACK
6
CONTINUOUS
10
5.24101
20
-2.24014
11
5.24108
21
-2.23999
0
LINE
8
BLACK
6
CONTINUOUS
10
5.24108
20
-2.23999
11
5.24108
21
-2.23999
0
LINE
8
BLACK
6
CONTINUOUS
10
5.24108
20
-2.23999
11
5.24118
21
-2.23982
0
LINE
8
BLACK
6
CONTINUOUS
10
5.24118
20
-2.23982
11
5.2413
21
-2.23967
0
LINE
8
BLACK
6
CONTINUOUS
10
5.2413
20
-2.23967
11
5.2413
21
-2.23966
0
LINE
8
BLACK
6
CONTINUOUS
10
5.2413
20
-2.23966
11
5.24131
21
-2.23963
0
LINE
8
BLACK
6
CONTINUOUS
10
5.24131
20
-2.23963
11
5.24152
21
-2.23934
0
LINE
8
BLACK
6
CONTINUOUS
10
5.24152
20
-2.23934
11
5.24161
21
-2.2392
0
LINE
8
BLACK
6
CONTINUOUS
10
5.24161
20
-2.2392
11
5.24163
21
-2.23918
0
LINE
8
BLACK
6
CONTINUOUS
10
5.24163
20
-2.23918
11
5.24164
21
-2.23915
0
LINE
8
BLACK
6
CONTINUOUS
10
5.24164
20
-2.23915
11
5.24175
21
-2.23903
0
LINE
8
BLACK
6
CONTINUOUS
10
5.24175
20
-2.23903
11
5.24198
21
-2.23875
0
LINE
8
BLACK
6
CONTINUOUS
10
5.24198
20
-2.23875
11
5.242
21
-2.23873
0
LINE
8
BLACK
6
CONTINUOUS
10
5.242
20
-2.23873
11
5.24207
21
-2.23864
0
LINE
8
BLACK
6
CONTINUOUS
10
5.24207
20
-2.23864
11
5.24212
21
-2.23856
0
LINE
8
BLACK
6
CONTINUOUS
10
5.24212
20
-2.23856
11
5.24226
21
-2.23839
0
LINE
8
BLACK
6
CONTINUOUS
10
5.24226
20
-2.23839
11
5.24238
21
-2.23821
0
LINE
8
BLACK
6
CONTINUOUS
10
5.24238
20
-2.23821
11
5.2425
21
-2.23809
0
LINE
8
BLACK
6
CONTINUOUS
10
5.2425
20
-2.23809
11
5.24261
21
-2.23796
0
LINE
8
BLACK
6
CONTINUOUS
10
5.24261
20
-2.23796
11
5.24278
21
-2.23782
0
LINE
8
BLACK
6
CONTINUOUS
10
5.24278
20
-2.23782
11
5.2428
21
-2.2378
0
LINE
8
BLACK
6
CONTINUOUS
10
5.2428
20
-2.2378
11
5.24293
21
-2.23769
0
LINE
8
BLACK
6
CONTINUOUS
10
5.24293
20
-2.23769
11
5.24298
21
-2.23766
0
LINE
8
BLACK
6
CONTINUOUS
10
5.24298
20
-2.23766
11
5.243
21
-2.23763
0
LINE
8
BLACK
6
CONTINUOUS
10
5.243
20
-2.23763
11
5.24312
21
-2.23751
0
LINE
8
BLACK
6
CONTINUOUS
10
5.24312
20
-2.23751
11
5.24314
21
-2.2375
0
LINE
8
BLACK
6
CONTINUOUS
10
5.24314
20
-2.2375
11
5.24316
21
-2.23748
0
LINE
8
BLACK
6
CONTINUOUS
10
5.24316
20
-2.23748
11
5.24329
21
-2.23738
0
LINE
8
BLACK
6
CONTINUOUS
10
5.24329
20
-2.23738
11
5.24374
21
-2.23699
0
LINE
8
BLACK
6
CONTINUOUS
10
5.24374
20
-2.23699
11
5.24375
21
-2.23697
0
LINE
8
BLACK
6
CONTINUOUS
10
5.24375
20
-2.23697
11
5.2439
21
-2.23685
0
LINE
8
BLACK
6
CONTINUOUS
10
5.2439
20
-2.23685
11
5.24394
21
-2.23681
0
LINE
8
BLACK
6
CONTINUOUS
10
5.24394
20
-2.23681
11
5.24399
21
-2.23678
0
LINE
8
BLACK
6
CONTINUOUS
10
5.24399
20
-2.23678
11
5.24417
21
-2.23661
0
LINE
8
BLACK
6
CONTINUOUS
10
5.24417
20
-2.23661
11
5.24428
21
-2.23653
0
LINE
8
BLACK
6
CONTINUOUS
10
5.24428
20
-2.23653
11
5.24439
21
-2.23644
0
LINE
8
BLACK
6
CONTINUOUS
10
5.24439
20
-2.23644
11
5.24461
21
-2.23633
0
LINE
8
BLACK
6
CONTINUOUS
10
5.24461
20
-2.23633
11
5.24466
21
-2.2363
0
LINE
8
BLACK
6
CONTINUOUS
10
5.24466
20
-2.2363
11
5.24469
21
-2.23628
0
LINE
8
BLACK
6
CONTINUOUS
10
5.24469
20
-2.23628
11
5.24472
21
-2.23626
0
LINE
8
BLACK
6
CONTINUOUS
10
5.24472
20
-2.23626
11
5.24484
21
-2.23618
0
LINE
8
BLACK
6
CONTINUOUS
10
5.24484
20
-2.23618
11
5.24497
21
-2.23609
0
LINE
8
BLACK
6
CONTINUOUS
10
5.24497
20
-2.23609
11
5.24501
21
-2.23607
0
LINE
8
BLACK
6
CONTINUOUS
10
5.24501
20
-2.23607
11
5.2452
21
-2.23594
0
LINE
8
BLACK
6
CONTINUOUS
10
5.2452
20
-2.23594
11
5.24534
21
-2.23589
0
LINE
8
BLACK
6
CONTINUOUS
10
5.24534
20
-2.23589
11
5.24565
21
-2.23572
0
LINE
8
BLACK
6
CONTINUOUS
10
5.24565
20
-2.23572
11
5.24573
21
-2.23566
0
LINE
8
BLACK
6
CONTINUOUS
10
5.24573
20
-2.23566
11
5.24586
21
-2.23559
0
LINE
8
BLACK
6
CONTINUOUS
10
5.24586
20
-2.23559
11
5.24597
21
-2.23551
0
LINE
8
BLACK
6
CONTINUOUS
10
5.24597
20
-2.23551
11
5.2462
21
-2.23541
0
LINE
8
BLACK
6
CONTINUOUS
10
5.2462
20
-2.23541
11
5.24642
21
-2.23529
0
LINE
8
BLACK
6
CONTINUOUS
10
5.24642
20
-2.23529
11
5.24673
21
-2.23519
0
LINE
8
BLACK
6
CONTINUOUS
10
5.24673
20
-2.23519
11
5.24674
21
-2.23519
0
LINE
8
BLACK
6
CONTINUOUS
10
5.24674
20
-2.23519
11
5.24691
21
-2.23512
0
LINE
8
BLACK
6
CONTINUOUS
10
5.24691
20
-2.23512
11
5.24707
21
-2.23505
0
LINE
8
BLACK
6
CONTINUOUS
10
5.24707
20
-2.23505
11
5.24709
21
-2.23505
0
LINE
8
BLACK
6
CONTINUOUS
10
5.24709
20
-2.23505
11
5.24711
21
-2.23504
0
LINE
8
BLACK
6
CONTINUOUS
10
5.24711
20
-2.23504
11
5.24728
21
-2.23499
0
LINE
8
BLACK
6
CONTINUOUS
10
5.24728
20
-2.23499
11
5.24762
21
-2.23488
0
LINE
8
BLACK
6
CONTINUOUS
10
5.24762
20
-2.23488
11
5.24764
21
-2.23488
0
LINE
8
BLACK
6
CONTINUOUS
10
5.24764
20
-2.23488
11
5.24783
21
-2.23482
0
LINE
8
BLACK
6
CONTINUOUS
10
5.24783
20
-2.23482
11
5.24783
21
-2.23482
0
LINE
8
BLACK
6
CONTINUOUS
10
5.24783
20
-2.23482
11
5.24817
21
-2.23472
0
LINE
8
BLACK
6
CONTINUOUS
10
5.24817
20
-2.23472
11
5.24839
21
-2.23465
0
LINE
8
BLACK
6
CONTINUOUS
10
5.24839
20
-2.23465
11
5.24839
21
-2.23465
0
LINE
8
BLACK
6
CONTINUOUS
10
5.24839
20
-2.23465
11
5.24858
21
-2.23459
0
LINE
8
BLACK
6
CONTINUOUS
10
5.24858
20
-2.23459
11
5.24867
21
-2.23458
0
LINE
8
BLACK
6
CONTINUOUS
10
5.24867
20
-2.23458
11
5.24877
21
-2.23456
0
LINE
8
BLACK
6
CONTINUOUS
10
5.24877
20
-2.23456
11
5.24884
21
-2.23454
0
LINE
8
BLACK
6
CONTINUOUS
10
5.24884
20
-2.23454
11
5.24891
21
-2.23452
0
LINE
8
BLACK
6
CONTINUOUS
10
5.24891
20
-2.23452
11
5.24903
21
-2.23451
0
LINE
8
BLACK
6
CONTINUOUS
10
5.24903
20
-2.23451
11
5.24934
21
-2.23445
0
LINE
8
BLACK
6
CONTINUOUS
10
5.24934
20
-2.23445
11
5.24941
21
-2.23445
0
LINE
8
BLACK
6
CONTINUOUS
10
5.24941
20
-2.23445
11
5.24941
21
-2.23445
0
LINE
8
BLACK
6
CONTINUOUS
10
5.24941
20
-2.23445
11
5.24957
21
-2.23443
0
LINE
8
BLACK
6
CONTINUOUS
10
5.24957
20
-2.23443
11
5.24961
21
-2.23443
0
LINE
8
BLACK
6
CONTINUOUS
10
5.24961
20
-2.23443
11
5.25006
21
-2.23437
0
LINE
8
BLACK
6
CONTINUOUS
10
5.25006
20
-2.23437
11
5.25011
21
-2.23436
0
LINE
8
BLACK
6
CONTINUOUS
10
5.25011
20
-2.23436
11
5.25044
21
-2.23432
0
LINE
8
BLACK
6
CONTINUOUS
10
5.25044
20
-2.23432
11
5.25059
21
-2.23431
0
LINE
8
BLACK
6
CONTINUOUS
10
5.25059
20
-2.23431
11
5.25064
21
-2.2343
0
LINE
8
BLACK
6
CONTINUOUS
10
5.25064
20
-2.2343
11
5.25069
21
-2.2343
0
LINE
8
BLACK
6
CONTINUOUS
10
5.25069
20
-2.2343
11
5.25083
21
-2.2343
0
LINE
8
BLACK
6
CONTINUOUS
10
5.25083
20
-2.2343
11
5.25117
21
-2.23429
0
LINE
8
BLACK
6
CONTINUOUS
10
5.25117
20
-2.23429
11
5.25122
21
-2.2343
0
LINE
8
BLACK
6
CONTINUOUS
10
5.25122
20
-2.2343
11
5.96117
21
-2.2343
0
LINE
8
BLACK
6
CONTINUOUS
10
5.96117
20
-2.2343
11
5.96121
21
-2.23429
0
LINE
8
BLACK
6
CONTINUOUS
10
6.0039
20
-2.75872
11
6.00355
21
-2.75864
0
LINE
8
BLACK
6
CONTINUOUS
10
6.00355
20
-2.75864
11
6.0032
21
-2.75857
0
LINE
8
BLACK
6
CONTINUOUS
10
6.0032
20
-2.75857
11
5.99498
21
-2.75601
0
LINE
8
BLACK
6
CONTINUOUS
10
5.99498
20
-2.75601
11
5.99493
21
-2.756
0
LINE
8
BLACK
6
CONTINUOUS
10
5.99493
20
-2.756
11
5.99461
21
-2.75585
0
LINE
8
BLACK
6
CONTINUOUS
10
5.99461
20
-2.75585
11
5.99428
21
-2.75571
0
LINE
8
BLACK
6
CONTINUOUS
10
5.99428
20
-2.75571
11
5.98671
21
-2.75161
0
LINE
8
BLACK
6
CONTINUOUS
10
5.98671
20
-2.75161
11
5.98666
21
-2.75159
0
LINE
8
BLACK
6
CONTINUOUS
10
5.98666
20
-2.75159
11
5.98637
21
-2.75138
0
LINE
8
BLACK
6
CONTINUOUS
10
5.98637
20
-2.75138
11
5.98607
21
-2.75118
0
LINE
8
BLACK
6
CONTINUOUS
10
5.98607
20
-2.75118
11
5.97945
21
-2.74569
0
LINE
8
BLACK
6
CONTINUOUS
10
5.97945
20
-2.74569
11
5.97945
21
-2.74569
0
LINE
8
BLACK
6
CONTINUOUS
10
5.97945
20
-2.74569
11
5.97945
21
-2.74569
0
LINE
8
BLACK
6
CONTINUOUS
10
5.97945
20
-2.74569
11
5.97941
21
-2.74565
0
LINE
8
BLACK
6
CONTINUOUS
10
5.97941
20
-2.74565
11
5.97916
21
-2.7454
0
LINE
8
BLACK
6
CONTINUOUS
10
5.97916
20
-2.7454
11
5.97891
21
-2.74514
0
LINE
8
BLACK
6
CONTINUOUS
10
5.97891
20
-2.74514
11
5.97348
21
-2.73847
0
LINE
8
BLACK
6
CONTINUOUS
10
5.97348
20
-2.73847
11
5.97348
21
-2.73847
0
LINE
8
BLACK
6
CONTINUOUS
10
5.97348
20
-2.73847
11
5.97348
21
-2.73847
0
LINE
8
BLACK
6
CONTINUOUS
10
5.97348
20
-2.73847
11
5.97344
21
-2.73843
0
LINE
8
BLACK
6
CONTINUOUS
10
5.97344
20
-2.73843
11
5.97325
21
-2.73813
0
LINE
8
BLACK
6
CONTINUOUS
10
5.97325
20
-2.73813
11
5.97305
21
-2.73783
0
LINE
8
BLACK
6
CONTINUOUS
10
5.97305
20
-2.73783
11
5.96902
21
-2.73023
0
LINE
8
BLACK
6
CONTINUOUS
10
5.96902
20
-2.73023
11
5.96902
21
-2.73023
0
LINE
8
BLACK
6
CONTINUOUS
10
5.96902
20
-2.73023
11
5.96902
21
-2.73023
0
LINE
8
BLACK
6
CONTINUOUS
10
5.96902
20
-2.73023
11
5.96899
21
-2.73018
0
LINE
8
BLACK
6
CONTINUOUS
10
5.96899
20
-2.73018
11
5.96886
21
-2.72985
0
LINE
8
BLACK
6
CONTINUOUS
10
5.96886
20
-2.72985
11
5.96873
21
-2.72952
0
LINE
8
BLACK
6
CONTINUOUS
10
5.96873
20
-2.72952
11
5.96625
21
-2.72127
0
LINE
8
BLACK
6
CONTINUOUS
10
5.96625
20
-2.72127
11
5.96625
21
-2.72127
0
LINE
8
BLACK
6
CONTINUOUS
10
5.96625
20
-2.72127
11
5.96625
21
-2.72127
0
LINE
8
BLACK
6
CONTINUOUS
10
5.96625
20
-2.72127
11
5.96623
21
-2.72122
0
LINE
8
BLACK
6
CONTINUOUS
10
5.96623
20
-2.72122
11
5.96617
21
-2.72087
0
LINE
8
BLACK
6
CONTINUOUS
10
5.96617
20
-2.72087
11
5.9661
21
-2.72052
0
LINE
8
BLACK
6
CONTINUOUS
10
5.9661
20
-2.72052
11
5.96527
21
-2.71195
0
LINE
8
BLACK
6
CONTINUOUS
10
5.96527
20
-2.71195
11
5.96526
21
-2.7119
0
LINE
8
BLACK
6
CONTINUOUS
10
5.96526
20
-2.7119
11
5.96527
21
-2.71173
0
LINE
8
BLACK
6
CONTINUOUS
10
5.96527
20
-2.71173
11
5.96525
21
-2.71156
0
LINE
8
BLACK
6
CONTINUOUS
10
5.96525
20
-2.71156
11
5.96525
21
-2.71125
0
LINE
8
BLACK
6
CONTINUOUS
10
5.96525
20
-2.71125
11
5.96525
21
-2.24608
0
LINE
8
BLACK
6
CONTINUOUS
10
5.96525
20
-2.24608
11
5.96517
21
-2.24544
0
LINE
8
BLACK
6
CONTINUOUS
10
5.96517
20
-2.24544
11
5.96507
21
-2.24511
0
LINE
8
BLACK
6
CONTINUOUS
10
5.96507
20
-2.24511
11
5.96507
21
-2.24505
0
LINE
8
BLACK
6
CONTINUOUS
10
5.96507
20
-2.24505
11
5.96497
21
-2.24475
0
LINE
8
BLACK
6
CONTINUOUS
10
5.96497
20
-2.24475
11
5.96495
21
-2.24469
0
LINE
8
BLACK
6
CONTINUOUS
10
5.96495
20
-2.24469
11
5.96489
21
-2.24455
0
LINE
8
BLACK
6
CONTINUOUS
10
5.96489
20
-2.24455
11
5.96488
21
-2.24454
0
LINE
8
BLACK
6
CONTINUOUS
10
5.96488
20
-2.24454
11
5.96472
21
-2.24424
0
LINE
8
BLACK
6
CONTINUOUS
10
5.96472
20
-2.24424
11
5.96469
21
-2.24421
0
LINE
8
BLACK
6
CONTINUOUS
10
5.96469
20
-2.24421
11
5.96449
21
-2.2439
0
LINE
8
BLACK
6
CONTINUOUS
10
5.96449
20
-2.2439
11
5.96439
21
-2.24374
0
LINE
8
BLACK
6
CONTINUOUS
10
5.96439
20
-2.24374
11
5.96414
21
-2.24344
0
LINE
8
BLACK
6
CONTINUOUS
10
5.96414
20
-2.24344
11
5.96403
21
-2.24333
0
LINE
8
BLACK
6
CONTINUOUS
10
5.96403
20
-2.24333
11
5.96398
21
-2.24328
0
LINE
8
BLACK
6
CONTINUOUS
10
5.96398
20
-2.24328
11
5.96383
21
-2.24316
0
LINE
8
BLACK
6
CONTINUOUS
10
5.96383
20
-2.24316
11
5.96382
21
-2.24314
0
LINE
8
BLACK
6
CONTINUOUS
10
5.96382
20
-2.24314
11
5.96354
21
-2.2429
0
LINE
8
BLACK
6
CONTINUOUS
10
5.96354
20
-2.2429
11
5.96346
21
-2.24286
0
LINE
8
BLACK
6
CONTINUOUS
10
5.96346
20
-2.24286
11
5.96317
21
-2.24271
0
LINE
8
BLACK
6
CONTINUOUS
10
5.96317
20
-2.24271
11
5.96313
21
-2.24267
0
LINE
8
BLACK
6
CONTINUOUS
10
5.96313
20
-2.24267
11
5.963
21
-2.2426
0
LINE
8
BLACK
6
CONTINUOUS
10
5.963
20
-2.2426
11
5.963
21
-2.2426
0
LINE
8
BLACK
6
CONTINUOUS
10
5.963
20
-2.2426
11
5.96284
21
-2.24254
0
LINE
8
BLACK
6
CONTINUOUS
10
5.96284
20
-2.24254
11
5.96268
21
-2.24247
0
LINE
8
BLACK
6
CONTINUOUS
10
5.96268
20
-2.24247
11
5.96266
21
-2.24246
0
LINE
8
BLACK
6
CONTINUOUS
10
5.96266
20
-2.24246
11
5.96263
21
-2.24245
0
LINE
8
BLACK
6
CONTINUOUS
10
5.96263
20
-2.24245
11
5.96206
21
-2.24228
0
LINE
8
BLACK
6
CONTINUOUS
10
5.96206
20
-2.24228
11
5.96199
21
-2.24227
0
LINE
8
BLACK
6
CONTINUOUS
10
5.96199
20
-2.24227
11
5.96195
21
-2.24226
0
LINE
8
BLACK
6
CONTINUOUS
10
5.96195
20
-2.24226
11
5.96172
21
-2.24223
0
LINE
8
BLACK
6
CONTINUOUS
10
5.96172
20
-2.24223
11
5.96168
21
-2.24222
0
LINE
8
BLACK
6
CONTINUOUS
10
5.96168
20
-2.24222
11
5.96128
21
-2.24217
0
LINE
8
BLACK
6
CONTINUOUS
10
5.96128
20
-2.24217
11
5.25113
21
-2.24217
0
LINE
8
BLACK
6
CONTINUOUS
10
5.25113
20
-2.24217
11
5.25048
21
-2.24225
0
LINE
8
BLACK
6
CONTINUOUS
10
5.25048
20
-2.24225
11
5.25016
21
-2.24235
0
LINE
8
BLACK
6
CONTINUOUS
10
5.25016
20
-2.24235
11
5.2501
21
-2.24236
0
LINE
8
BLACK
6
CONTINUOUS
10
5.2501
20
-2.24236
11
5.24979
21
-2.24245
0
LINE
8
BLACK
6
CONTINUOUS
10
5.24979
20
-2.24245
11
5.24974
21
-2.24247
0
LINE
8
BLACK
6
CONTINUOUS
10
5.24974
20
-2.24247
11
5.24959
21
-2.24254
0
LINE
8
BLACK
6
CONTINUOUS
10
5.24959
20
-2.24254
11
5.24959
21
-2.24254
0
LINE
8
BLACK
6
CONTINUOUS
10
5.24959
20
-2.24254
11
5.24929
21
-2.24271
0
LINE
8
BLACK
6
CONTINUOUS
10
5.24929
20
-2.24271
11
5.24925
21
-2.24274
0
LINE
8
BLACK
6
CONTINUOUS
10
5.24925
20
-2.24274
11
5.24895
21
-2.24293
0
LINE
8
BLACK
6
CONTINUOUS
10
5.24895
20
-2.24293
11
5.24879
21
-2.24303
0
LINE
8
BLACK
6
CONTINUOUS
10
5.24879
20
-2.24303
11
5.24849
21
-2.24329
0
LINE
8
BLACK
6
CONTINUOUS
10
5.24849
20
-2.24329
11
5.24837
21
-2.2434
0
LINE
8
BLACK
6
CONTINUOUS
10
5.24837
20
-2.2434
11
5.24833
21
-2.24344
0
LINE
8
BLACK
6
CONTINUOUS
10
5.24833
20
-2.24344
11
5.24821
21
-2.24359
0
LINE
8
BLACK
6
CONTINUOUS
10
5.24821
20
-2.24359
11
5.24819
21
-2.24361
0
LINE
8
BLACK
6
CONTINUOUS
10
5.24819
20
-2.24361
11
5.24795
21
-2.24389
0
LINE
8
BLACK
6
CONTINUOUS
10
5.24795
20
-2.24389
11
5.24791
21
-2.24396
0
LINE
8
BLACK
6
CONTINUOUS
10
5.24791
20
-2.24396
11
5.24775
21
-2.24425
0
LINE
8
BLACK
6
CONTINUOUS
10
5.24775
20
-2.24425
11
5.24772
21
-2.2443
0
LINE
8
BLACK
6
CONTINUOUS
10
5.24772
20
-2.2443
11
5.24765
21
-2.24442
0
LINE
8
BLACK
6
CONTINUOUS
10
5.24765
20
-2.24442
11
5.24765
21
-2.24442
0
LINE
8
BLACK
6
CONTINUOUS
10
5.24765
20
-2.24442
11
5.24758
21
-2.24458
0
LINE
8
BLACK
6
CONTINUOUS
10
5.24758
20
-2.24458
11
5.24752
21
-2.24475
0
LINE
8
BLACK
6
CONTINUOUS
10
5.24752
20
-2.24475
11
5.24751
21
-2.24477
0
LINE
8
BLACK
6
CONTINUOUS
10
5.24751
20
-2.24477
11
5.2475
21
-2.2448
0
LINE
8
BLACK
6
CONTINUOUS
10
5.2475
20
-2.2448
11
5.24733
21
-2.24537
0
LINE
8
BLACK
6
CONTINUOUS
10
5.24733
20
-2.24537
11
5.24732
21
-2.24544
0
LINE
8
BLACK
6
CONTINUOUS
10
5.24732
20
-2.24544
11
5.2473
21
-2.24548
0
LINE
8
BLACK
6
CONTINUOUS
10
5.2473
20
-2.24548
11
5.24728
21
-2.2457
0
LINE
8
BLACK
6
CONTINUOUS
10
5.24728
20
-2.2457
11
5.24727
21
-2.24574
0
LINE
8
BLACK
6
CONTINUOUS
10
5.24727
20
-2.24574
11
5.24722
21
-2.24615
0
LINE
8
BLACK
6
CONTINUOUS
10
5.24722
20
-2.24615
11
5.24722
21
-2.70201
0
LINE
8
BLACK
6
CONTINUOUS
10
5.24722
20
-2.70201
11
5.24716
21
-2.70259
0
LINE
8
BLACK
6
CONTINUOUS
10
5.24716
20
-2.70259
11
5.24716
21
-2.7026
0
LINE
8
BLACK
6
CONTINUOUS
10
5.24716
20
-2.7026
11
5.24629
21
-2.71079
0
LINE
8
BLACK
6
CONTINUOUS
10
5.24629
20
-2.71079
11
5.24628
21
-2.71085
0
LINE
8
BLACK
6
CONTINUOUS
10
5.24628
20
-2.71085
11
5.24621
21
-2.71119
0
LINE
8
BLACK
6
CONTINUOUS
10
5.24621
20
-2.71119
11
5.24613
21
-2.71154
0
LINE
8
BLACK
6
CONTINUOUS
10
5.24613
20
-2.71154
11
5.24358
21
-2.71976
0
LINE
8
BLACK
6
CONTINUOUS
10
5.24358
20
-2.71976
11
5.24356
21
-2.71981
0
LINE
8
BLACK
6
CONTINUOUS
10
5.24356
20
-2.71981
11
5.24342
21
-2.72014
0
LINE
8
BLACK
6
CONTINUOUS
10
5.24342
20
-2.72014
11
5.24328
21
-2.72047
0
LINE
8
BLACK
6
CONTINUOUS
10
5.24328
20
-2.72047
11
5.23918
21
-2.72804
0
LINE
8
BLACK
6
CONTINUOUS
10
5.23918
20
-2.72804
11
5.23916
21
-2.72808
0
LINE
8
BLACK
6
CONTINUOUS
10
5.23916
20
-2.72808
11
5.23895
21
-2.72838
0
LINE
8
BLACK
6
CONTINUOUS
10
5.23895
20
-2.72838
11
5.23875
21
-2.72867
0
LINE
8
BLACK
6
CONTINUOUS
10
5.23875
20
-2.72867
11
5.23326
21
-2.7353
0
LINE
8
BLACK
6
CONTINUOUS
10
5.23326
20
-2.7353
11
5.23326
21
-2.7353
0
LINE
8
BLACK
6
CONTINUOUS
10
5.23326
20
-2.7353
11
5.23326
21
-2.7353
0
LINE
8
BLACK
6
CONTINUOUS
10
5.23326
20
-2.7353
11
5.23322
21
-2.73534
0
LINE
8
BLACK
6
CONTINUOUS
10
5.23322
20
-2.73534
11
5.23297
21
-2.73559
0
LINE
8
BLACK
6
CONTINUOUS
10
5.23297
20
-2.73559
11
5.23271
21
-2.73584
0
LINE
8
BLACK
6
CONTINUOUS
10
5.23271
20
-2.73584
11
5.22604
21
-2.74127
0
LINE
8
BLACK
6
CONTINUOUS
10
5.22604
20
-2.74127
11
5.22604
21
-2.74127
0
LINE
8
BLACK
6
CONTINUOUS
10
5.22604
20
-2.74127
11
5.22604
21
-2.74127
0
LINE
8
BLACK
6
CONTINUOUS
10
5.22604
20
-2.74127
11
5.226
21
-2.74131
0
LINE
8
BLACK
6
CONTINUOUS
10
5.226
20
-2.74131
11
5.2257
21
-2.7415
0
LINE
8
BLACK
6
CONTINUOUS
10
5.2257
20
-2.7415
11
5.2254
21
-2.7417
0
LINE
8
BLACK
6
CONTINUOUS
10
5.2254
20
-2.7417
11
5.2178
21
-2.74573
0
LINE
8
BLACK
6
CONTINUOUS
10
5.2178
20
-2.74573
11
5.21779
21
-2.74573
0
LINE
8
BLACK
6
CONTINUOUS
10
5.21779
20
-2.74573
11
5.21779
21
-2.74573
0
LINE
8
BLACK
6
CONTINUOUS
10
5.21779
20
-2.74573
11
5.21775
21
-2.74575
0
LINE
8
BLACK
6
CONTINUOUS
10
5.21775
20
-2.74575
11
5.21742
21
-2.74588
0
LINE
8
BLACK
6
CONTINUOUS
10
5.21742
20
-2.74588
11
5.21708
21
-2.74602
0
LINE
8
BLACK
6
CONTINUOUS
10
5.21708
20
-2.74602
11
5.20884
21
-2.7485
0
LINE
8
BLACK
6
CONTINUOUS
10
5.20884
20
-2.7485
11
5.20884
21
-2.7485
0
LINE
8
BLACK
6
CONTINUOUS
10
5.20884
20
-2.7485
11
5.20884
21
-2.7485
0
LINE
8
BLACK
6
CONTINUOUS
10
5.20884
20
-2.7485
11
5.20879
21
-2.74851
0
LINE
8
BLACK
6
CONTINUOUS
10
5.20879
20
-2.74851
11
5.20844
21
-2.74858
0
LINE
8
BLACK
6
CONTINUOUS
10
5.20844
20
-2.74858
11
5.20809
21
-2.74865
0
LINE
8
BLACK
6
CONTINUOUS
10
5.20809
20
-2.74865
11
5.19952
21
-2.74948
0
LINE
8
BLACK
6
CONTINUOUS
10
5.19952
20
-2.74948
11
5.19947
21
-2.74948
0
LINE
8
BLACK
6
CONTINUOUS
10
5.19947
20
-2.74948
11
5.1993
21
-2.74948
0
LINE
8
BLACK
6
CONTINUOUS
10
5.1993
20
-2.74948
11
5.19912
21
-2.7495
0
LINE
8
BLACK
6
CONTINUOUS
10
5.19912
20
-2.7495
11
5.19882
21
-2.74949
0
LINE
8
BLACK
6
CONTINUOUS
10
5.19882
20
-2.74949
11
5.15722
21
-2.7495
0
LINE
8
BLACK
6
CONTINUOUS
10
5.15722
20
-2.7495
11
5.15722
21
-3.88284
0
LINE
8
BLACK
6
CONTINUOUS
10
5.15722
20
-3.88284
11
6.05525
21
-3.88284
0
LINE
8
BLACK
6
CONTINUOUS
10
6.05525
20
-3.88284
11
6.05525
21
-2.75965
0
LINE
8
BLACK
6
CONTINUOUS
10
6.05525
20
-2.75965
11
6.01274
21
-2.75965
0
LINE
8
BLACK
6
CONTINUOUS
10
6.01274
20
-2.75965
11
6.01216
21
-2.7596
0
LINE
8
BLACK
6
CONTINUOUS
10
6.01216
20
-2.7596
11
6.01214
21
-2.75959
0
LINE
8
BLACK
6
CONTINUOUS
10
6.01214
20
-2.75959
11
6.00396
21
-2.75872
0
LINE
8
BLACK
6
CONTINUOUS
10
6.00396
20
-2.75872
11
6.00396
21
-2.75872
0
LINE
8
BLACK
6
CONTINUOUS
10
6.00396
20
-2.75872
11
6.0039
21
-2.75872
  0
ENDSEC
  0
EOF
