  0
SECTION
  2
HEADER
  9
$ANGBASE
  50
0.0
  9
$ANGDIR
  70
1
  9
$MEASUREMENT
  70
0
  0
ENDSEC
  0
SECTION
  2
TABLES
  0
TABLE
  2
LTYPE
  70
4
  0
LTYPE
  5
40F
  2
CONTINUOUS
  70
0
  3
Solid line
  72
65
  73
0
  40
0.0
  0
LTYPE
  5
410
  2
DASHDOT
 70
0
  3
Dash Dot ____ _ ____ _
 72
65
 73
4
 40
2.0
 49
1.25
 49
-0.25
 49
0.25
 49
-0.25
  0
LTYPE
  5
411
  2
DASHED
 70
0
  3
Dashed __ __ __ __ __
 72
65
 73
2
 40
0.75
 49
0.5
 49
-0.25
  0
LTYPE
  5
43B
  2
DOTTED
 70
0
  3
Dotted .  .  .  .
 72
65
 73
2
 40
0.2
 49
0.0
 49
-0.2
  0
ENDTAB
  0
TABLE
  2
STYLE
  70
4
  0
STYLE
  2
KICAD
  70
0
  40
0
  41
1
  42
1
  50
0
  71
0
  3
isocp.shx
  0
STYLE
  2
KICADB
  70
0
  40
0
  41
1
  42
1
  50
0
  71
0
  3
isocp.shx
  0
STYLE
  2
KICADI
  70
0
  40
0
  41
1
  42
1
  50
15
  71
0
  3
isocp.shx
  0
STYLE
  2
KICADBI
  70
0
  40
0
  41
1
  42
1
  50
15
  71
0
  3
isocp.shx
  0
ENDTAB
  0
TABLE
  2
LAYER
  70
1
  0
LAYER
  2
BLACK
  70
0
  62
7
  6
CONTINUOUS
  0
ENDTAB
  0
ENDSEC
  0
SECTION
  2
ENTITIES
0
LINE
8
BLACK
6
CONTINUOUS
10
5.16116
20
-2.75539
11
5.16116
21
-2.75539
0
LINE
8
BLACK
6
CONTINUOUS
10
5.16116
20
-2.75539
11
5.16116
21
-2.75539
0
LINE
8
BLACK
6
CONTINUOUS
10
5.16116
20
-2.75539
11
5.16116
21
-2.75537
0
LINE
8
BLACK
6
CONTINUOUS
10
5.16116
20
-2.75537
11
5.16118
21
-2.75519
0
LINE
8
BLACK
6
CONTINUOUS
10
5.16118
20
-2.75519
11
5.1612
21
-2.75501
0
LINE
8
BLACK
6
CONTINUOUS
10
5.1612
20
-2.75501
11
5.1612
21
-2.755
0
LINE
8
BLACK
6
CONTINUOUS
10
5.1612
20
-2.755
11
5.1612
21
-2.75499
0
LINE
8
BLACK
6
CONTINUOUS
10
5.1612
20
-2.75499
11
5.16126
21
-2.75481
0
LINE
8
BLACK
6
CONTINUOUS
10
5.16126
20
-2.75481
11
5.16131
21
-2.75464
0
LINE
8
BLACK
6
CONTINUOUS
10
5.16131
20
-2.75464
11
5.16131
21
-2.75463
0
LINE
8
BLACK
6
CONTINUOUS
10
5.16131
20
-2.75463
11
5.16132
21
-2.75463
0
LINE
8
BLACK
6
CONTINUOUS
10
5.16132
20
-2.75463
11
5.16141
21
-2.75446
0
LINE
8
BLACK
6
CONTINUOUS
10
5.16141
20
-2.75446
11
5.16149
21
-2.7543
0
LINE
8
BLACK
6
CONTINUOUS
10
5.16149
20
-2.7543
11
5.1615
21
-2.7543
0
LINE
8
BLACK
6
CONTINUOUS
10
5.1615
20
-2.7543
11
5.1615
21
-2.75429
0
LINE
8
BLACK
6
CONTINUOUS
10
5.1615
20
-2.75429
11
5.16162
21
-2.75415
0
LINE
8
BLACK
6
CONTINUOUS
10
5.16162
20
-2.75415
11
5.16174
21
-2.754
0
LINE
8
BLACK
6
CONTINUOUS
10
5.16174
20
-2.754
11
5.16174
21
-2.754
0
LINE
8
BLACK
6
CONTINUOUS
10
5.16174
20
-2.754
11
5.16175
21
-2.75399
0
LINE
8
BLACK
6
CONTINUOUS
10
5.16175
20
-2.75399
11
5.16189
21
-2.75388
0
LINE
8
BLACK
6
CONTINUOUS
10
5.16189
20
-2.75388
11
5.16204
21
-2.75376
0
LINE
8
BLACK
6
CONTINUOUS
10
5.16204
20
-2.75376
11
5.16204
21
-2.75376
0
LINE
8
BLACK
6
CONTINUOUS
10
5.16204
20
-2.75376
11
5.16205
21
-2.75375
0
LINE
8
BLACK
6
CONTINUOUS
10
5.16205
20
-2.75375
11
5.16221
21
-2.75367
0
LINE
8
BLACK
6
CONTINUOUS
10
5.16221
20
-2.75367
11
5.16238
21
-2.75358
0
LINE
8
BLACK
6
CONTINUOUS
10
5.16238
20
-2.75358
11
5.16238
21
-2.75358
0
LINE
8
BLACK
6
CONTINUOUS
10
5.16238
20
-2.75358
11
5.16239
21
-2.75358
0
LINE
8
BLACK
6
CONTINUOUS
10
5.16239
20
-2.75358
11
5.16256
21
-2.75352
0
LINE
8
BLACK
6
CONTINUOUS
10
5.16256
20
-2.75352
11
5.16274
21
-2.75347
0
LINE
8
BLACK
6
CONTINUOUS
10
5.16274
20
-2.75347
11
5.16275
21
-2.75347
0
LINE
8
BLACK
6
CONTINUOUS
10
5.16275
20
-2.75347
11
5.16276
21
-2.75347
0
LINE
8
BLACK
6
CONTINUOUS
10
5.16276
20
-2.75347
11
5.16294
21
-2.75345
0
LINE
8
BLACK
6
CONTINUOUS
10
5.16294
20
-2.75345
11
5.16313
21
-2.75343
0
LINE
8
BLACK
6
CONTINUOUS
10
5.16313
20
-2.75343
11
5.19881
21
-2.75343
0
LINE
8
BLACK
6
CONTINUOUS
10
5.19881
20
-2.75343
11
5.19882
21
-2.75343
0
LINE
8
BLACK
6
CONTINUOUS
10
5.19882
20
-2.75343
11
5.19882
21
-2.75343
0
LINE
8
BLACK
6
CONTINUOUS
10
5.19882
20
-2.75343
11
5.1991
21
-2.75343
0
LINE
8
BLACK
6
CONTINUOUS
10
5.1991
20
-2.75343
11
5.19911
21
-2.75343
0
LINE
8
BLACK
6
CONTINUOUS
10
5.19911
20
-2.75343
11
5.19922
21
-2.75343
0
LINE
8
BLACK
6
CONTINUOUS
10
5.19922
20
-2.75343
11
5.19949
21
-2.7534
0
LINE
8
BLACK
6
CONTINUOUS
10
5.19949
20
-2.7534
11
5.19952
21
-2.7534
0
LINE
8
BLACK
6
CONTINUOUS
10
5.19952
20
-2.7534
11
5.19962
21
-2.7534
0
LINE
8
BLACK
6
CONTINUOUS
10
5.19962
20
-2.7534
11
5.19972
21
-2.7534
0
LINE
8
BLACK
6
CONTINUOUS
10
5.19972
20
-2.7534
11
5.19988
21
-2.7534
0
LINE
8
BLACK
6
CONTINUOUS
10
5.19988
20
-2.7534
11
5.19991
21
-2.7534
0
LINE
8
BLACK
6
CONTINUOUS
10
5.19991
20
-2.7534
11
5.20837
21
-2.75257
0
LINE
8
BLACK
6
CONTINUOUS
10
5.20837
20
-2.75257
11
5.20915
21
-2.75242
0
LINE
8
BLACK
6
CONTINUOUS
10
5.20915
20
-2.75242
11
5.20918
21
-2.75242
0
LINE
8
BLACK
6
CONTINUOUS
10
5.20918
20
-2.75242
11
5.20918
21
-2.75242
0
LINE
8
BLACK
6
CONTINUOUS
10
5.20918
20
-2.75242
11
5.20996
21
-2.75227
0
LINE
8
BLACK
6
CONTINUOUS
10
5.20996
20
-2.75227
11
5.20998
21
-2.75227
0
LINE
8
BLACK
6
CONTINUOUS
10
5.20998
20
-2.75227
11
5.21813
21
-2.74982
0
LINE
8
BLACK
6
CONTINUOUS
10
5.21813
20
-2.74982
11
5.21886
21
-2.74952
0
LINE
8
BLACK
6
CONTINUOUS
10
5.21886
20
-2.74952
11
5.21889
21
-2.74951
0
LINE
8
BLACK
6
CONTINUOUS
10
5.21889
20
-2.74951
11
5.21889
21
-2.74951
0
LINE
8
BLACK
6
CONTINUOUS
10
5.21889
20
-2.74951
11
5.21962
21
-2.74922
0
LINE
8
BLACK
6
CONTINUOUS
10
5.21962
20
-2.74922
11
5.21965
21
-2.7492
0
LINE
8
BLACK
6
CONTINUOUS
10
5.21965
20
-2.7492
11
5.22716
21
-2.74522
0
LINE
8
BLACK
6
CONTINUOUS
10
5.22716
20
-2.74522
11
5.22782
21
-2.74478
0
LINE
8
BLACK
6
CONTINUOUS
10
5.22782
20
-2.74478
11
5.22784
21
-2.74476
0
LINE
8
BLACK
6
CONTINUOUS
10
5.22784
20
-2.74476
11
5.22851
21
-2.74434
0
LINE
8
BLACK
6
CONTINUOUS
10
5.22851
20
-2.74434
11
5.22853
21
-2.74432
0
LINE
8
BLACK
6
CONTINUOUS
10
5.22853
20
-2.74432
11
5.23512
21
-2.73895
0
LINE
8
BLACK
6
CONTINUOUS
10
5.23512
20
-2.73895
11
5.23569
21
-2.73839
0
LINE
8
BLACK
6
CONTINUOUS
10
5.23569
20
-2.73839
11
5.23571
21
-2.73837
0
LINE
8
BLACK
6
CONTINUOUS
10
5.23571
20
-2.73837
11
5.23628
21
-2.73783
0
LINE
8
BLACK
6
CONTINUOUS
10
5.23628
20
-2.73783
11
5.23629
21
-2.7378
0
LINE
8
BLACK
6
CONTINUOUS
10
5.23629
20
-2.7378
11
5.24172
21
-2.73126
0
LINE
8
BLACK
6
CONTINUOUS
10
5.24172
20
-2.73126
11
5.24217
21
-2.7306
0
LINE
8
BLACK
6
CONTINUOUS
10
5.24217
20
-2.7306
11
5.24218
21
-2.73058
0
LINE
8
BLACK
6
CONTINUOUS
10
5.24218
20
-2.73058
11
5.24263
21
-2.72993
0
LINE
8
BLACK
6
CONTINUOUS
10
5.24263
20
-2.72993
11
5.24265
21
-2.72991
0
LINE
8
BLACK
6
CONTINUOUS
10
5.24265
20
-2.72991
11
5.2467
21
-2.72243
0
LINE
8
BLACK
6
CONTINUOUS
10
5.2467
20
-2.72243
11
5.24701
21
-2.7217
0
LINE
8
BLACK
6
CONTINUOUS
10
5.24701
20
-2.7217
11
5.24702
21
-2.72167
0
LINE
8
BLACK
6
CONTINUOUS
10
5.24702
20
-2.72167
11
5.24702
21
-2.72167
0
LINE
8
BLACK
6
CONTINUOUS
10
5.24702
20
-2.72167
11
5.24733
21
-2.72095
0
LINE
8
BLACK
6
CONTINUOUS
10
5.24733
20
-2.72095
11
5.24734
21
-2.72093
0
LINE
8
BLACK
6
CONTINUOUS
10
5.24734
20
-2.72093
11
5.24987
21
-2.7128
0
LINE
8
BLACK
6
CONTINUOUS
10
5.24987
20
-2.7128
11
5.25003
21
-2.71203
0
LINE
8
BLACK
6
CONTINUOUS
10
5.25003
20
-2.71203
11
5.25003
21
-2.712
0
LINE
8
BLACK
6
CONTINUOUS
10
5.25003
20
-2.712
11
5.25003
21
-2.712
0
LINE
8
BLACK
6
CONTINUOUS
10
5.25003
20
-2.712
11
5.2502
21
-2.71123
0
LINE
8
BLACK
6
CONTINUOUS
10
5.2502
20
-2.71123
11
5.25021
21
-2.7112
0
LINE
8
BLACK
6
CONTINUOUS
10
5.25021
20
-2.7112
11
5.25102
21
-2.70358
0
LINE
8
BLACK
6
CONTINUOUS
10
5.25102
20
-2.70358
11
5.25102
21
-2.70355
0
LINE
8
BLACK
6
CONTINUOUS
10
5.25102
20
-2.70355
11
5.25103
21
-2.70349
0
LINE
8
BLACK
6
CONTINUOUS
10
5.25103
20
-2.70349
11
5.25116
21
-2.7022
0
LINE
8
BLACK
6
CONTINUOUS
10
5.25116
20
-2.7022
11
5.25116
21
-2.24808
0
LINE
8
BLACK
6
CONTINUOUS
10
5.25116
20
-2.24808
11
5.25116
21
-2.24807
0
LINE
8
BLACK
6
CONTINUOUS
10
5.25116
20
-2.24807
11
5.25116
21
-2.24806
0
LINE
8
BLACK
6
CONTINUOUS
10
5.25116
20
-2.24806
11
5.25116
21
-2.24806
0
LINE
8
BLACK
6
CONTINUOUS
10
5.25116
20
-2.24806
11
5.25116
21
-2.24805
0
LINE
8
BLACK
6
CONTINUOUS
10
5.25116
20
-2.24805
11
5.25118
21
-2.24787
0
LINE
8
BLACK
6
CONTINUOUS
10
5.25118
20
-2.24787
11
5.2512
21
-2.24768
0
LINE
8
BLACK
6
CONTINUOUS
10
5.2512
20
-2.24768
11
5.2512
21
-2.24768
0
LINE
8
BLACK
6
CONTINUOUS
10
5.2512
20
-2.24768
11
5.2512
21
-2.24767
0
LINE
8
BLACK
6
CONTINUOUS
10
5.2512
20
-2.24767
11
5.25126
21
-2.24749
0
LINE
8
BLACK
6
CONTINUOUS
10
5.25126
20
-2.24749
11
5.25131
21
-2.24732
0
LINE
8
BLACK
6
CONTINUOUS
10
5.25131
20
-2.24732
11
5.25131
21
-2.24731
0
LINE
8
BLACK
6
CONTINUOUS
10
5.25131
20
-2.24731
11
5.25132
21
-2.2473
0
LINE
8
BLACK
6
CONTINUOUS
10
5.25132
20
-2.2473
11
5.25141
21
-2.24714
0
LINE
8
BLACK
6
CONTINUOUS
10
5.25141
20
-2.24714
11
5.25149
21
-2.24698
0
LINE
8
BLACK
6
CONTINUOUS
10
5.25149
20
-2.24698
11
5.2515
21
-2.24697
0
LINE
8
BLACK
6
CONTINUOUS
10
5.2515
20
-2.24697
11
5.2515
21
-2.24697
0
LINE
8
BLACK
6
CONTINUOUS
10
5.2515
20
-2.24697
11
5.25162
21
-2.24683
0
LINE
8
BLACK
6
CONTINUOUS
10
5.25162
20
-2.24683
11
5.25174
21
-2.24668
0
LINE
8
BLACK
6
CONTINUOUS
10
5.25174
20
-2.24668
11
5.25174
21
-2.24668
0
LINE
8
BLACK
6
CONTINUOUS
10
5.25174
20
-2.24668
11
5.25175
21
-2.24667
0
LINE
8
BLACK
6
CONTINUOUS
10
5.25175
20
-2.24667
11
5.25189
21
-2.24656
0
LINE
8
BLACK
6
CONTINUOUS
10
5.25189
20
-2.24656
11
5.25204
21
-2.24644
0
LINE
8
BLACK
6
CONTINUOUS
10
5.25204
20
-2.24644
11
5.25204
21
-2.24644
0
LINE
8
BLACK
6
CONTINUOUS
10
5.25204
20
-2.24644
11
5.25205
21
-2.24643
0
LINE
8
BLACK
6
CONTINUOUS
10
5.25205
20
-2.24643
11
5.25221
21
-2.24635
0
LINE
8
BLACK
6
CONTINUOUS
10
5.25221
20
-2.24635
11
5.25238
21
-2.24626
0
LINE
8
BLACK
6
CONTINUOUS
10
5.25238
20
-2.24626
11
5.25238
21
-2.24626
0
LINE
8
BLACK
6
CONTINUOUS
10
5.25238
20
-2.24626
11
5.25239
21
-2.24625
0
LINE
8
BLACK
6
CONTINUOUS
10
5.25239
20
-2.24625
11
5.25256
21
-2.2462
0
LINE
8
BLACK
6
CONTINUOUS
10
5.25256
20
-2.2462
11
5.25274
21
-2.24615
0
LINE
8
BLACK
6
CONTINUOUS
10
5.25274
20
-2.24615
11
5.25275
21
-2.24615
0
LINE
8
BLACK
6
CONTINUOUS
10
5.25275
20
-2.24615
11
5.25276
21
-2.24615
0
LINE
8
BLACK
6
CONTINUOUS
10
5.25276
20
-2.24615
11
5.25294
21
-2.24613
0
LINE
8
BLACK
6
CONTINUOUS
10
5.25294
20
-2.24613
11
5.25313
21
-2.24611
0
LINE
8
BLACK
6
CONTINUOUS
10
5.25313
20
-2.24611
11
5.95935
21
-2.24611
0
LINE
8
BLACK
6
CONTINUOUS
10
5.95935
20
-2.24611
11
5.95936
21
-2.24611
0
LINE
8
BLACK
6
CONTINUOUS
10
5.95936
20
-2.24611
11
5.95936
21
-2.24611
0
LINE
8
BLACK
6
CONTINUOUS
10
5.95936
20
-2.24611
11
5.95936
21
-2.24611
0
LINE
8
BLACK
6
CONTINUOUS
10
5.95936
20
-2.24611
11
5.95937
21
-2.24611
0
LINE
8
BLACK
6
CONTINUOUS
10
5.95937
20
-2.24611
11
5.95956
21
-2.24613
0
LINE
8
BLACK
6
CONTINUOUS
10
5.95956
20
-2.24613
11
5.95974
21
-2.24615
0
LINE
8
BLACK
6
CONTINUOUS
10
5.95974
20
-2.24615
11
5.95975
21
-2.24615
0
LINE
8
BLACK
6
CONTINUOUS
10
5.95975
20
-2.24615
11
5.95976
21
-2.24615
0
LINE
8
BLACK
6
CONTINUOUS
10
5.95976
20
-2.24615
11
5.95993
21
-2.24621
0
LINE
8
BLACK
6
CONTINUOUS
10
5.95993
20
-2.24621
11
5.96011
21
-2.24626
0
LINE
8
BLACK
6
CONTINUOUS
10
5.96011
20
-2.24626
11
5.96012
21
-2.24627
0
LINE
8
BLACK
6
CONTINUOUS
10
5.96012
20
-2.24627
11
5.96012
21
-2.24627
0
LINE
8
BLACK
6
CONTINUOUS
10
5.96012
20
-2.24627
11
5.96028
21
-2.24636
0
LINE
8
BLACK
6
CONTINUOUS
10
5.96028
20
-2.24636
11
5.96045
21
-2.24645
0
LINE
8
BLACK
6
CONTINUOUS
10
5.96045
20
-2.24645
11
5.96045
21
-2.24645
0
LINE
8
BLACK
6
CONTINUOUS
10
5.96045
20
-2.24645
11
5.96046
21
-2.24645
0
LINE
8
BLACK
6
CONTINUOUS
10
5.96046
20
-2.24645
11
5.9606
21
-2.24657
0
LINE
8
BLACK
6
CONTINUOUS
10
5.9606
20
-2.24657
11
5.96074
21
-2.24669
0
LINE
8
BLACK
6
CONTINUOUS
10
5.96074
20
-2.24669
11
5.96075
21
-2.2467
0
LINE
8
BLACK
6
CONTINUOUS
10
5.96075
20
-2.2467
11
5.96075
21
-2.2467
0
LINE
8
BLACK
6
CONTINUOUS
10
5.96075
20
-2.2467
11
5.96087
21
-2.24684
0
LINE
8
BLACK
6
CONTINUOUS
10
5.96087
20
-2.24684
11
5.96099
21
-2.24699
0
LINE
8
BLACK
6
CONTINUOUS
10
5.96099
20
-2.24699
11
5.96099
21
-2.247
0
LINE
8
BLACK
6
CONTINUOUS
10
5.96099
20
-2.247
11
5.96099
21
-2.247
0
LINE
8
BLACK
6
CONTINUOUS
10
5.96099
20
-2.247
11
5.96108
21
-2.24716
0
LINE
8
BLACK
6
CONTINUOUS
10
5.96108
20
-2.24716
11
5.96117
21
-2.24733
0
LINE
8
BLACK
6
CONTINUOUS
10
5.96117
20
-2.24733
11
5.96117
21
-2.24734
0
LINE
8
BLACK
6
CONTINUOUS
10
5.96117
20
-2.24734
11
5.96117
21
-2.24734
0
LINE
8
BLACK
6
CONTINUOUS
10
5.96117
20
-2.24734
11
5.96122
21
-2.24752
0
LINE
8
BLACK
6
CONTINUOUS
10
5.96122
20
-2.24752
11
5.96128
21
-2.2477
0
LINE
8
BLACK
6
CONTINUOUS
10
5.96128
20
-2.2477
11
5.96128
21
-2.2477
0
LINE
8
BLACK
6
CONTINUOUS
10
5.96128
20
-2.2477
11
5.96128
21
-2.24771
0
LINE
8
BLACK
6
CONTINUOUS
10
5.96128
20
-2.24771
11
5.9613
21
-2.24789
0
LINE
8
BLACK
6
CONTINUOUS
10
5.9613
20
-2.24789
11
5.96132
21
-2.24808
0
LINE
8
BLACK
6
CONTINUOUS
10
5.96132
20
-2.24808
11
5.96132
21
-2.71124
0
LINE
8
BLACK
6
CONTINUOUS
10
5.96132
20
-2.71124
11
5.96132
21
-2.71125
0
LINE
8
BLACK
6
CONTINUOUS
10
5.96132
20
-2.71125
11
5.96132
21
-2.71125
0
LINE
8
BLACK
6
CONTINUOUS
10
5.96132
20
-2.71125
11
5.96131
21
-2.71153
0
LINE
8
BLACK
6
CONTINUOUS
10
5.96131
20
-2.71153
11
5.96132
21
-2.71154
0
LINE
8
BLACK
6
CONTINUOUS
10
5.96132
20
-2.71154
11
5.96132
21
-2.71165
0
LINE
8
BLACK
6
CONTINUOUS
10
5.96132
20
-2.71165
11
5.96134
21
-2.71192
0
LINE
8
BLACK
6
CONTINUOUS
10
5.96134
20
-2.71192
11
5.96134
21
-2.71195
0
LINE
8
BLACK
6
CONTINUOUS
10
5.96134
20
-2.71195
11
5.96134
21
-2.71205
0
LINE
8
BLACK
6
CONTINUOUS
10
5.96134
20
-2.71205
11
5.96135
21
-2.71215
0
LINE
8
BLACK
6
CONTINUOUS
10
5.96135
20
-2.71215
11
5.96135
21
-2.71231
0
LINE
8
BLACK
6
CONTINUOUS
10
5.96135
20
-2.71231
11
5.96135
21
-2.71234
0
LINE
8
BLACK
6
CONTINUOUS
10
5.96135
20
-2.71234
11
5.96217
21
-2.7208
0
LINE
8
BLACK
6
CONTINUOUS
10
5.96217
20
-2.7208
11
5.96233
21
-2.72159
0
LINE
8
BLACK
6
CONTINUOUS
10
5.96233
20
-2.72159
11
5.96233
21
-2.72161
0
LINE
8
BLACK
6
CONTINUOUS
10
5.96233
20
-2.72161
11
5.96233
21
-2.72161
0
LINE
8
BLACK
6
CONTINUOUS
10
5.96233
20
-2.72161
11
5.96247
21
-2.72239
0
LINE
8
BLACK
6
CONTINUOUS
10
5.96247
20
-2.72239
11
5.96248
21
-2.72242
0
LINE
8
BLACK
6
CONTINUOUS
10
5.96248
20
-2.72242
11
5.96493
21
-2.73056
0
LINE
8
BLACK
6
CONTINUOUS
10
5.96493
20
-2.73056
11
5.96523
21
-2.73129
0
LINE
8
BLACK
6
CONTINUOUS
10
5.96523
20
-2.73129
11
5.96524
21
-2.73132
0
LINE
8
BLACK
6
CONTINUOUS
10
5.96524
20
-2.73132
11
5.96524
21
-2.73132
0
LINE
8
BLACK
6
CONTINUOUS
10
5.96524
20
-2.73132
11
5.96553
21
-2.73205
0
LINE
8
BLACK
6
CONTINUOUS
10
5.96553
20
-2.73205
11
5.96554
21
-2.73208
0
LINE
8
BLACK
6
CONTINUOUS
10
5.96554
20
-2.73208
11
5.96953
21
-2.73959
0
LINE
8
BLACK
6
CONTINUOUS
10
5.96953
20
-2.73959
11
5.96997
21
-2.74025
0
LINE
8
BLACK
6
CONTINUOUS
10
5.96997
20
-2.74025
11
5.96998
21
-2.74027
0
LINE
8
BLACK
6
CONTINUOUS
10
5.96998
20
-2.74027
11
5.97041
21
-2.74094
0
LINE
8
BLACK
6
CONTINUOUS
10
5.97041
20
-2.74094
11
5.97043
21
-2.74096
0
LINE
8
BLACK
6
CONTINUOUS
10
5.97043
20
-2.74096
11
5.97579
21
-2.74755
0
LINE
8
BLACK
6
CONTINUOUS
10
5.97579
20
-2.74755
11
5.97635
21
-2.74812
0
LINE
8
BLACK
6
CONTINUOUS
10
5.97635
20
-2.74812
11
5.97637
21
-2.74814
0
LINE
8
BLACK
6
CONTINUOUS
10
5.97637
20
-2.74814
11
5.97692
21
-2.74871
0
LINE
8
BLACK
6
CONTINUOUS
10
5.97692
20
-2.74871
11
5.97694
21
-2.74873
0
LINE
8
BLACK
6
CONTINUOUS
10
5.97694
20
-2.74873
11
5.98349
21
-2.75415
0
LINE
8
BLACK
6
CONTINUOUS
10
5.98349
20
-2.75415
11
5.98415
21
-2.7546
0
LINE
8
BLACK
6
CONTINUOUS
10
5.98415
20
-2.7546
11
5.98417
21
-2.75461
0
LINE
8
BLACK
6
CONTINUOUS
10
5.98417
20
-2.75461
11
5.98482
21
-2.75506
0
LINE
8
BLACK
6
CONTINUOUS
10
5.98482
20
-2.75506
11
5.98484
21
-2.75508
0
LINE
8
BLACK
6
CONTINUOUS
10
5.98484
20
-2.75508
11
5.99232
21
-2.75913
0
LINE
8
BLACK
6
CONTINUOUS
10
5.99232
20
-2.75913
11
5.99305
21
-2.75944
0
LINE
8
BLACK
6
CONTINUOUS
10
5.99305
20
-2.75944
11
5.99307
21
-2.75945
0
LINE
8
BLACK
6
CONTINUOUS
10
5.99307
20
-2.75945
11
5.99307
21
-2.75945
0
LINE
8
BLACK
6
CONTINUOUS
10
5.99307
20
-2.75945
11
5.9938
21
-2.75977
0
LINE
8
BLACK
6
CONTINUOUS
10
5.9938
20
-2.75977
11
5.99382
21
-2.75977
0
LINE
8
BLACK
6
CONTINUOUS
10
5.99382
20
-2.75977
11
6.00194
21
-2.7623
0
LINE
8
BLACK
6
CONTINUOUS
10
6.00194
20
-2.7623
11
6.00272
21
-2.76246
0
LINE
8
BLACK
6
CONTINUOUS
10
6.00272
20
-2.76246
11
6.00275
21
-2.76246
0
LINE
8
BLACK
6
CONTINUOUS
10
6.00275
20
-2.76246
11
6.00275
21
-2.76246
0
LINE
8
BLACK
6
CONTINUOUS
10
6.00275
20
-2.76246
11
6.00352
21
-2.76263
0
LINE
8
BLACK
6
CONTINUOUS
10
6.00352
20
-2.76263
11
6.00354
21
-2.76264
0
LINE
8
BLACK
6
CONTINUOUS
10
6.00354
20
-2.76264
11
6.01117
21
-2.76345
0
LINE
8
BLACK
6
CONTINUOUS
10
6.01117
20
-2.76345
11
6.0112
21
-2.76345
0
LINE
8
BLACK
6
CONTINUOUS
10
6.0112
20
-2.76345
11
6.01126
21
-2.76346
0
LINE
8
BLACK
6
CONTINUOUS
10
6.01126
20
-2.76346
11
6.01254
21
-2.76359
0
LINE
8
BLACK
6
CONTINUOUS
10
6.01254
20
-2.76359
11
6.04935
21
-2.76359
0
LINE
8
BLACK
6
CONTINUOUS
10
6.04935
20
-2.76359
11
6.04936
21
-2.76359
0
LINE
8
BLACK
6
CONTINUOUS
10
6.04936
20
-2.76359
11
6.04936
21
-2.76359
0
LINE
8
BLACK
6
CONTINUOUS
10
6.04936
20
-2.76359
11
6.04936
21
-2.76359
0
LINE
8
BLACK
6
CONTINUOUS
10
6.04936
20
-2.76359
11
6.04937
21
-2.76359
0
LINE
8
BLACK
6
CONTINUOUS
10
6.04937
20
-2.76359
11
6.04956
21
-2.76361
0
LINE
8
BLACK
6
CONTINUOUS
10
6.04956
20
-2.76361
11
6.04974
21
-2.76363
0
LINE
8
BLACK
6
CONTINUOUS
10
6.04974
20
-2.76363
11
6.04975
21
-2.76363
0
LINE
8
BLACK
6
CONTINUOUS
10
6.04975
20
-2.76363
11
6.04976
21
-2.76363
0
LINE
8
BLACK
6
CONTINUOUS
10
6.04976
20
-2.76363
11
6.04993
21
-2.76369
0
LINE
8
BLACK
6
CONTINUOUS
10
6.04993
20
-2.76369
11
6.05011
21
-2.76374
0
LINE
8
BLACK
6
CONTINUOUS
10
6.05011
20
-2.76374
11
6.05012
21
-2.76375
0
LINE
8
BLACK
6
CONTINUOUS
10
6.05012
20
-2.76375
11
6.05012
21
-2.76375
0
LINE
8
BLACK
6
CONTINUOUS
10
6.05012
20
-2.76375
11
6.05028
21
-2.76384
0
LINE
8
BLACK
6
CONTINUOUS
10
6.05028
20
-2.76384
11
6.05045
21
-2.76393
0
LINE
8
BLACK
6
CONTINUOUS
10
6.05045
20
-2.76393
11
6.05045
21
-2.76393
0
LINE
8
BLACK
6
CONTINUOUS
10
6.05045
20
-2.76393
11
6.05046
21
-2.76393
0
LINE
8
BLACK
6
CONTINUOUS
10
6.05046
20
-2.76393
11
6.0506
21
-2.76405
0
LINE
8
BLACK
6
CONTINUOUS
10
6.0506
20
-2.76405
11
6.05074
21
-2.76417
0
LINE
8
BLACK
6
CONTINUOUS
10
6.05074
20
-2.76417
11
6.05075
21
-2.76418
0
LINE
8
BLACK
6
CONTINUOUS
10
6.05075
20
-2.76418
11
6.05075
21
-2.76418
0
LINE
8
BLACK
6
CONTINUOUS
10
6.05075
20
-2.76418
11
6.05087
21
-2.76432
0
LINE
8
BLACK
6
CONTINUOUS
10
6.05087
20
-2.76432
11
6.05099
21
-2.76447
0
LINE
8
BLACK
6
CONTINUOUS
10
6.05099
20
-2.76447
11
6.05099
21
-2.76448
0
LINE
8
BLACK
6
CONTINUOUS
10
6.05099
20
-2.76448
11
6.05099
21
-2.76448
0
LINE
8
BLACK
6
CONTINUOUS
10
6.05099
20
-2.76448
11
6.05108
21
-2.76465
0
LINE
8
BLACK
6
CONTINUOUS
10
6.05108
20
-2.76465
11
6.05117
21
-2.76481
0
LINE
8
BLACK
6
CONTINUOUS
10
6.05117
20
-2.76481
11
6.05117
21
-2.76482
0
LINE
8
BLACK
6
CONTINUOUS
10
6.05117
20
-2.76482
11
6.05117
21
-2.76482
0
LINE
8
BLACK
6
CONTINUOUS
10
6.05117
20
-2.76482
11
6.05122
21
-2.765
0
LINE
8
BLACK
6
CONTINUOUS
10
6.05122
20
-2.765
11
6.05128
21
-2.76518
0
LINE
8
BLACK
6
CONTINUOUS
10
6.05128
20
-2.76518
11
6.05128
21
-2.76518
0
LINE
8
BLACK
6
CONTINUOUS
10
6.05128
20
-2.76518
11
6.05128
21
-2.76519
0
LINE
8
BLACK
6
CONTINUOUS
10
6.05128
20
-2.76519
11
6.0513
21
-2.76537
0
LINE
8
BLACK
6
CONTINUOUS
10
6.0513
20
-2.76537
11
6.05132
21
-2.76556
0
LINE
8
BLACK
6
CONTINUOUS
10
6.05132
20
-2.76556
11
6.05132
21
-3.87694
0
LINE
8
BLACK
6
CONTINUOUS
10
6.05132
20
-3.87694
11
6.05132
21
-3.87695
0
LINE
8
BLACK
6
CONTINUOUS
10
6.05132
20
-3.87695
11
6.05132
21
-3.87695
0
LINE
8
BLACK
6
CONTINUOUS
10
6.05132
20
-3.87695
11
6.05132
21
-3.87695
0
LINE
8
BLACK
6
CONTINUOUS
10
6.05132
20
-3.87695
11
6.05132
21
-3.87696
0
LINE
8
BLACK
6
CONTINUOUS
10
6.05132
20
-3.87696
11
6.05129
21
-3.87715
0
LINE
8
BLACK
6
CONTINUOUS
10
6.05129
20
-3.87715
11
6.05128
21
-3.87733
0
LINE
8
BLACK
6
CONTINUOUS
10
6.05128
20
-3.87733
11
6.05127
21
-3.87734
0
LINE
8
BLACK
6
CONTINUOUS
10
6.05127
20
-3.87734
11
6.05127
21
-3.87735
0
LINE
8
BLACK
6
CONTINUOUS
10
6.05127
20
-3.87735
11
6.05122
21
-3.87752
0
LINE
8
BLACK
6
CONTINUOUS
10
6.05122
20
-3.87752
11
6.05116
21
-3.8777
0
LINE
8
BLACK
6
CONTINUOUS
10
6.05116
20
-3.8777
11
6.05116
21
-3.87771
0
LINE
8
BLACK
6
CONTINUOUS
10
6.05116
20
-3.87771
11
6.05116
21
-3.87771
0
LINE
8
BLACK
6
CONTINUOUS
10
6.05116
20
-3.87771
11
6.05107
21
-3.87787
0
LINE
8
BLACK
6
CONTINUOUS
10
6.05107
20
-3.87787
11
6.05098
21
-3.87804
0
LINE
8
BLACK
6
CONTINUOUS
10
6.05098
20
-3.87804
11
6.05097
21
-3.87804
0
LINE
8
BLACK
6
CONTINUOUS
10
6.05097
20
-3.87804
11
6.05097
21
-3.87805
0
LINE
8
BLACK
6
CONTINUOUS
10
6.05097
20
-3.87805
11
6.05085
21
-3.87819
0
LINE
8
BLACK
6
CONTINUOUS
10
6.05085
20
-3.87819
11
6.05073
21
-3.87833
0
LINE
8
BLACK
6
CONTINUOUS
10
6.05073
20
-3.87833
11
6.05073
21
-3.87834
0
LINE
8
BLACK
6
CONTINUOUS
10
6.05073
20
-3.87834
11
6.05072
21
-3.87834
0
LINE
8
BLACK
6
CONTINUOUS
10
6.05072
20
-3.87834
11
6.05058
21
-3.87846
0
LINE
8
BLACK
6
CONTINUOUS
10
6.05058
20
-3.87846
11
6.05044
21
-3.87858
0
LINE
8
BLACK
6
CONTINUOUS
10
6.05044
20
-3.87858
11
6.05043
21
-3.87858
0
LINE
8
BLACK
6
CONTINUOUS
10
6.05043
20
-3.87858
11
6.05042
21
-3.87858
0
LINE
8
BLACK
6
CONTINUOUS
10
6.05042
20
-3.87858
11
6.05026
21
-3.87867
0
LINE
8
BLACK
6
CONTINUOUS
10
6.05026
20
-3.87867
11
6.0501
21
-3.87876
0
LINE
8
BLACK
6
CONTINUOUS
10
6.0501
20
-3.87876
11
6.05009
21
-3.87876
0
LINE
8
BLACK
6
CONTINUOUS
10
6.05009
20
-3.87876
11
6.05008
21
-3.87876
0
LINE
8
BLACK
6
CONTINUOUS
10
6.05008
20
-3.87876
11
6.04991
21
-3.87881
0
LINE
8
BLACK
6
CONTINUOUS
10
6.04991
20
-3.87881
11
6.04973
21
-3.87887
0
LINE
8
BLACK
6
CONTINUOUS
10
6.04973
20
-3.87887
11
6.04972
21
-3.87887
0
LINE
8
BLACK
6
CONTINUOUS
10
6.04972
20
-3.87887
11
6.04972
21
-3.87887
0
LINE
8
BLACK
6
CONTINUOUS
10
6.04972
20
-3.87887
11
6.04953
21
-3.87889
0
LINE
8
BLACK
6
CONTINUOUS
10
6.04953
20
-3.87889
11
6.04935
21
-3.87891
0
LINE
8
BLACK
6
CONTINUOUS
10
6.04935
20
-3.87891
11
5.16313
21
-3.87891
0
LINE
8
BLACK
6
CONTINUOUS
10
5.16313
20
-3.87891
11
5.16311
21
-3.87891
0
LINE
8
BLACK
6
CONTINUOUS
10
5.16311
20
-3.87891
11
5.16311
21
-3.87891
0
LINE
8
BLACK
6
CONTINUOUS
10
5.16311
20
-3.87891
11
5.16311
21
-3.87891
0
LINE
8
BLACK
6
CONTINUOUS
10
5.16311
20
-3.87891
11
5.1631
21
-3.87891
0
LINE
8
BLACK
6
CONTINUOUS
10
5.1631
20
-3.87891
11
5.16292
21
-3.87888
0
LINE
8
BLACK
6
CONTINUOUS
10
5.16292
20
-3.87888
11
5.16273
21
-3.87887
0
LINE
8
BLACK
6
CONTINUOUS
10
5.16273
20
-3.87887
11
5.16272
21
-3.87886
0
LINE
8
BLACK
6
CONTINUOUS
10
5.16272
20
-3.87886
11
5.16272
21
-3.87886
0
LINE
8
BLACK
6
CONTINUOUS
10
5.16272
20
-3.87886
11
5.16254
21
-3.87881
0
LINE
8
BLACK
6
CONTINUOUS
10
5.16254
20
-3.87881
11
5.16236
21
-3.87875
0
LINE
8
BLACK
6
CONTINUOUS
10
5.16236
20
-3.87875
11
5.16236
21
-3.87875
0
LINE
8
BLACK
6
CONTINUOUS
10
5.16236
20
-3.87875
11
5.16235
21
-3.87875
0
LINE
8
BLACK
6
CONTINUOUS
10
5.16235
20
-3.87875
11
5.16219
21
-3.87866
0
LINE
8
BLACK
6
CONTINUOUS
10
5.16219
20
-3.87866
11
5.16203
21
-3.87857
0
LINE
8
BLACK
6
CONTINUOUS
10
5.16203
20
-3.87857
11
5.16202
21
-3.87856
0
LINE
8
BLACK
6
CONTINUOUS
10
5.16202
20
-3.87856
11
5.16201
21
-3.87856
0
LINE
8
BLACK
6
CONTINUOUS
10
5.16201
20
-3.87856
11
5.16187
21
-3.87844
0
LINE
8
BLACK
6
CONTINUOUS
10
5.16187
20
-3.87844
11
5.16173
21
-3.87832
0
LINE
8
BLACK
6
CONTINUOUS
10
5.16173
20
-3.87832
11
5.16173
21
-3.87832
0
LINE
8
BLACK
6
CONTINUOUS
10
5.16173
20
-3.87832
11
5.16172
21
-3.87831
0
LINE
8
BLACK
6
CONTINUOUS
10
5.16172
20
-3.87831
11
5.16161
21
-3.87817
0
LINE
8
BLACK
6
CONTINUOUS
10
5.16161
20
-3.87817
11
5.16149
21
-3.87803
0
LINE
8
BLACK
6
CONTINUOUS
10
5.16149
20
-3.87803
11
5.16148
21
-3.87802
0
LINE
8
BLACK
6
CONTINUOUS
10
5.16148
20
-3.87802
11
5.16148
21
-3.87801
0
LINE
8
BLACK
6
CONTINUOUS
10
5.16148
20
-3.87801
11
5.16139
21
-3.87785
0
LINE
8
BLACK
6
CONTINUOUS
10
5.16139
20
-3.87785
11
5.16131
21
-3.87769
0
LINE
8
BLACK
6
CONTINUOUS
10
5.16131
20
-3.87769
11
5.1613
21
-3.87768
0
LINE
8
BLACK
6
CONTINUOUS
10
5.1613
20
-3.87768
11
5.1613
21
-3.87767
0
LINE
8
BLACK
6
CONTINUOUS
10
5.1613
20
-3.87767
11
5.16125
21
-3.8775
0
LINE
8
BLACK
6
CONTINUOUS
10
5.16125
20
-3.8775
11
5.1612
21
-3.87732
0
LINE
8
BLACK
6
CONTINUOUS
10
5.1612
20
-3.87732
11
5.16119
21
-3.87731
0
LINE
8
BLACK
6
CONTINUOUS
10
5.16119
20
-3.87731
11
5.16119
21
-3.87731
0
LINE
8
BLACK
6
CONTINUOUS
10
5.16119
20
-3.87731
11
5.16118
21
-3.87712
0
LINE
8
BLACK
6
CONTINUOUS
10
5.16118
20
-3.87712
11
5.16116
21
-3.87694
0
LINE
8
BLACK
6
CONTINUOUS
10
5.16116
20
-3.87694
11
5.16116
21
-2.7554
0
LINE
8
BLACK
6
CONTINUOUS
10
5.16116
20
-2.7554
11
5.16116
21
-2.75539
0
LINE
8
BLACK
6
CONTINUOUS
10
5.52614
20
-3.33359
11
5.5231
21
-3.3342
0
LINE
8
BLACK
6
CONTINUOUS
10
5.5231
20
-3.3342
11
5.52023
21
-3.33538
0
LINE
8
BLACK
6
CONTINUOUS
10
5.52023
20
-3.33538
11
5.51765
21
-3.33711
0
LINE
8
BLACK
6
CONTINUOUS
10
5.51765
20
-3.33711
11
5.51546
21
-3.3393
0
LINE
8
BLACK
6
CONTINUOUS
10
5.51546
20
-3.3393
11
5.51374
21
-3.34188
0
LINE
8
BLACK
6
CONTINUOUS
10
5.51374
20
-3.34188
11
5.51255
21
-3.34475
0
LINE
8
BLACK
6
CONTINUOUS
10
5.51255
20
-3.34475
11
5.51195
21
-3.34779
0
LINE
8
BLACK
6
CONTINUOUS
10
5.51195
20
-3.34779
11
5.51195
21
-3.35089
0
LINE
8
BLACK
6
CONTINUOUS
10
5.51195
20
-3.35089
11
5.51255
21
-3.35393
0
LINE
8
BLACK
6
CONTINUOUS
10
5.51255
20
-3.35393
11
5.51374
21
-3.3568
0
LINE
8
BLACK
6
CONTINUOUS
10
5.51374
20
-3.3568
11
5.51546
21
-3.35938
0
LINE
8
BLACK
6
CONTINUOUS
10
5.51546
20
-3.35938
11
5.51765
21
-3.36157
0
LINE
8
BLACK
6
CONTINUOUS
10
5.51765
20
-3.36157
11
5.52023
21
-3.36329
0
LINE
8
BLACK
6
CONTINUOUS
10
5.52023
20
-3.36329
11
5.5231
21
-3.36448
0
LINE
8
BLACK
6
CONTINUOUS
10
5.5231
20
-3.36448
11
5.52614
21
-3.36509
0
LINE
8
BLACK
6
CONTINUOUS
10
5.52614
20
-3.36509
11
5.52924
21
-3.36509
0
LINE
8
BLACK
6
CONTINUOUS
10
5.52924
20
-3.36509
11
5.53229
21
-3.36448
0
LINE
8
BLACK
6
CONTINUOUS
10
5.53229
20
-3.36448
11
5.53515
21
-3.36329
0
LINE
8
BLACK
6
CONTINUOUS
10
5.53515
20
-3.36329
11
5.53773
21
-3.36157
0
LINE
8
BLACK
6
CONTINUOUS
10
5.53773
20
-3.36157
11
5.53993
21
-3.35938
0
LINE
8
BLACK
6
CONTINUOUS
10
5.53993
20
-3.35938
11
5.54165
21
-3.3568
0
LINE
8
BLACK
6
CONTINUOUS
10
5.54165
20
-3.3568
11
5.54284
21
-3.35393
0
LINE
8
BLACK
6
CONTINUOUS
10
5.54284
20
-3.35393
11
5.54344
21
-3.35089
0
LINE
8
BLACK
6
CONTINUOUS
10
5.54344
20
-3.35089
11
5.54344
21
-3.34779
0
LINE
8
BLACK
6
CONTINUOUS
10
5.54344
20
-3.34779
11
5.54284
21
-3.34475
0
LINE
8
BLACK
6
CONTINUOUS
10
5.54284
20
-3.34475
11
5.54165
21
-3.34188
0
LINE
8
BLACK
6
CONTINUOUS
10
5.54165
20
-3.34188
11
5.53993
21
-3.3393
0
LINE
8
BLACK
6
CONTINUOUS
10
5.53993
20
-3.3393
11
5.53773
21
-3.33711
0
LINE
8
BLACK
6
CONTINUOUS
10
5.53773
20
-3.33711
11
5.53515
21
-3.33538
0
LINE
8
BLACK
6
CONTINUOUS
10
5.53515
20
-3.33538
11
5.53229
21
-3.3342
0
LINE
8
BLACK
6
CONTINUOUS
10
5.53229
20
-3.3342
11
5.52924
21
-3.33359
0
LINE
8
BLACK
6
CONTINUOUS
10
5.52924
20
-3.33359
11
5.52614
21
-3.33359
0
LINE
8
BLACK
6
CONTINUOUS
10
5.66798
20
-3.27148
11
5.66341
21
-3.27239
0
LINE
8
BLACK
6
CONTINUOUS
10
5.66341
20
-3.27239
11
5.65912
21
-3.27417
0
LINE
8
BLACK
6
CONTINUOUS
10
5.65912
20
-3.27417
11
5.65525
21
-3.27675
0
LINE
8
BLACK
6
CONTINUOUS
10
5.65525
20
-3.27675
11
5.65196
21
-3.28004
0
LINE
8
BLACK
6
CONTINUOUS
10
5.65196
20
-3.28004
11
5.64937
21
-3.28391
0
LINE
8
BLACK
6
CONTINUOUS
10
5.64937
20
-3.28391
11
5.64759
21
-3.28821
0
LINE
8
BLACK
6
CONTINUOUS
10
5.64759
20
-3.28821
11
5.64668
21
-3.29277
0
LINE
8
BLACK
6
CONTINUOUS
10
5.64668
20
-3.29277
11
5.64668
21
-3.29743
0
LINE
8
BLACK
6
CONTINUOUS
10
5.64668
20
-3.29743
11
5.64759
21
-3.30199
0
LINE
8
BLACK
6
CONTINUOUS
10
5.64759
20
-3.30199
11
5.64937
21
-3.30629
0
LINE
8
BLACK
6
CONTINUOUS
10
5.64937
20
-3.30629
11
5.65196
21
-3.31016
0
LINE
8
BLACK
6
CONTINUOUS
10
5.65196
20
-3.31016
11
5.65525
21
-3.31345
0
LINE
8
BLACK
6
CONTINUOUS
10
5.65525
20
-3.31345
11
5.65912
21
-3.31603
0
LINE
8
BLACK
6
CONTINUOUS
10
5.65912
20
-3.31603
11
5.66341
21
-3.31781
0
LINE
8
BLACK
6
CONTINUOUS
10
5.66341
20
-3.31781
11
5.66798
21
-3.31872
0
LINE
8
BLACK
6
CONTINUOUS
10
5.66798
20
-3.31872
11
5.67263
21
-3.31872
0
LINE
8
BLACK
6
CONTINUOUS
10
5.67263
20
-3.31872
11
5.67719
21
-3.31781
0
LINE
8
BLACK
6
CONTINUOUS
10
5.67719
20
-3.31781
11
5.68149
21
-3.31603
0
LINE
8
BLACK
6
CONTINUOUS
10
5.68149
20
-3.31603
11
5.68536
21
-3.31345
0
LINE
8
BLACK
6
CONTINUOUS
10
5.68536
20
-3.31345
11
5.68865
21
-3.31016
0
LINE
8
BLACK
6
CONTINUOUS
10
5.68865
20
-3.31016
11
5.69124
21
-3.30629
0
LINE
8
BLACK
6
CONTINUOUS
10
5.69124
20
-3.30629
11
5.69302
21
-3.30199
0
LINE
8
BLACK
6
CONTINUOUS
10
5.69302
20
-3.30199
11
5.69393
21
-3.29743
0
LINE
8
BLACK
6
CONTINUOUS
10
5.69393
20
-3.29743
11
5.69393
21
-3.29277
0
LINE
8
BLACK
6
CONTINUOUS
10
5.69393
20
-3.29277
11
5.69302
21
-3.28821
0
LINE
8
BLACK
6
CONTINUOUS
10
5.69302
20
-3.28821
11
5.69124
21
-3.28391
0
LINE
8
BLACK
6
CONTINUOUS
10
5.69124
20
-3.28391
11
5.68865
21
-3.28004
0
LINE
8
BLACK
6
CONTINUOUS
10
5.68865
20
-3.28004
11
5.68536
21
-3.27675
0
LINE
8
BLACK
6
CONTINUOUS
10
5.68536
20
-3.27675
11
5.68149
21
-3.27417
0
LINE
8
BLACK
6
CONTINUOUS
10
5.68149
20
-3.27417
11
5.67719
21
-3.27239
0
LINE
8
BLACK
6
CONTINUOUS
10
5.67719
20
-3.27239
11
5.67263
21
-3.27148
0
LINE
8
BLACK
6
CONTINUOUS
10
5.67263
20
-3.27148
11
5.66798
21
-3.27148
0
LINE
8
BLACK
6
CONTINUOUS
10
5.58913
20
-3.27517
11
5.58609
21
-3.27578
0
LINE
8
BLACK
6
CONTINUOUS
10
5.58609
20
-3.27578
11
5.58323
21
-3.27696
0
LINE
8
BLACK
6
CONTINUOUS
10
5.58323
20
-3.27696
11
5.58065
21
-3.27869
0
LINE
8
BLACK
6
CONTINUOUS
10
5.58065
20
-3.27869
11
5.57845
21
-3.28088
0
LINE
8
BLACK
6
CONTINUOUS
10
5.57845
20
-3.28088
11
5.57673
21
-3.28346
0
LINE
8
BLACK
6
CONTINUOUS
10
5.57673
20
-3.28346
11
5.57554
21
-3.28632
0
LINE
8
BLACK
6
CONTINUOUS
10
5.57554
20
-3.28632
11
5.57494
21
-3.28937
0
LINE
8
BLACK
6
CONTINUOUS
10
5.57494
20
-3.28937
11
5.57494
21
-3.29247
0
LINE
8
BLACK
6
CONTINUOUS
10
5.57494
20
-3.29247
11
5.57554
21
-3.29551
0
LINE
8
BLACK
6
CONTINUOUS
10
5.57554
20
-3.29551
11
5.57673
21
-3.29838
0
LINE
8
BLACK
6
CONTINUOUS
10
5.57673
20
-3.29838
11
5.57845
21
-3.30096
0
LINE
8
BLACK
6
CONTINUOUS
10
5.57845
20
-3.30096
11
5.58065
21
-3.30315
0
LINE
8
BLACK
6
CONTINUOUS
10
5.58065
20
-3.30315
11
5.58323
21
-3.30487
0
LINE
8
BLACK
6
CONTINUOUS
10
5.58323
20
-3.30487
11
5.58609
21
-3.30606
0
LINE
8
BLACK
6
CONTINUOUS
10
5.58609
20
-3.30606
11
5.58913
21
-3.30667
0
LINE
8
BLACK
6
CONTINUOUS
10
5.58913
20
-3.30667
11
5.59224
21
-3.30667
0
LINE
8
BLACK
6
CONTINUOUS
10
5.59224
20
-3.30667
11
5.59528
21
-3.30606
0
LINE
8
BLACK
6
CONTINUOUS
10
5.59528
20
-3.30606
11
5.59814
21
-3.30487
0
LINE
8
BLACK
6
CONTINUOUS
10
5.59814
20
-3.30487
11
5.60072
21
-3.30315
0
LINE
8
BLACK
6
CONTINUOUS
10
5.60072
20
-3.30315
11
5.60292
21
-3.30096
0
LINE
8
BLACK
6
CONTINUOUS
10
5.60292
20
-3.30096
11
5.60464
21
-3.29838
0
LINE
8
BLACK
6
CONTINUOUS
10
5.60464
20
-3.29838
11
5.60583
21
-3.29551
0
LINE
8
BLACK
6
CONTINUOUS
10
5.60583
20
-3.29551
11
5.60643
21
-3.29247
0
LINE
8
BLACK
6
CONTINUOUS
10
5.60643
20
-3.29247
11
5.60643
21
-3.28937
0
LINE
8
BLACK
6
CONTINUOUS
10
5.60643
20
-3.28937
11
5.60583
21
-3.28632
0
LINE
8
BLACK
6
CONTINUOUS
10
5.60583
20
-3.28632
11
5.60464
21
-3.28346
0
LINE
8
BLACK
6
CONTINUOUS
10
5.60464
20
-3.28346
11
5.60292
21
-3.28088
0
LINE
8
BLACK
6
CONTINUOUS
10
5.60292
20
-3.28088
11
5.60072
21
-3.27869
0
LINE
8
BLACK
6
CONTINUOUS
10
5.60072
20
-3.27869
11
5.59814
21
-3.27696
0
LINE
8
BLACK
6
CONTINUOUS
10
5.59814
20
-3.27696
11
5.59528
21
-3.27578
0
LINE
8
BLACK
6
CONTINUOUS
10
5.59528
20
-3.27578
11
5.59224
21
-3.27517
0
LINE
8
BLACK
6
CONTINUOUS
10
5.59224
20
-3.27517
11
5.58913
21
-3.27517
0
LINE
8
BLACK
6
CONTINUOUS
10
5.62048
20
-3.23777
11
5.61743
21
-3.23837
0
LINE
8
BLACK
6
CONTINUOUS
10
5.61743
20
-3.23837
11
5.61457
21
-3.23956
0
LINE
8
BLACK
6
CONTINUOUS
10
5.61457
20
-3.23956
11
5.61199
21
-3.24128
0
LINE
8
BLACK
6
CONTINUOUS
10
5.61199
20
-3.24128
11
5.6098
21
-3.24348
0
LINE
8
BLACK
6
CONTINUOUS
10
5.6098
20
-3.24348
11
5.60807
21
-3.24606
0
LINE
8
BLACK
6
CONTINUOUS
10
5.60807
20
-3.24606
11
5.60688
21
-3.24892
0
LINE
8
BLACK
6
CONTINUOUS
10
5.60688
20
-3.24892
11
5.60628
21
-3.25197
0
LINE
8
BLACK
6
CONTINUOUS
10
5.60628
20
-3.25197
11
5.60628
21
-3.25507
0
LINE
8
BLACK
6
CONTINUOUS
10
5.60628
20
-3.25507
11
5.60688
21
-3.25811
0
LINE
8
BLACK
6
CONTINUOUS
10
5.60688
20
-3.25811
11
5.60807
21
-3.26098
0
LINE
8
BLACK
6
CONTINUOUS
10
5.60807
20
-3.26098
11
5.6098
21
-3.26356
0
LINE
8
BLACK
6
CONTINUOUS
10
5.6098
20
-3.26356
11
5.61199
21
-3.26575
0
LINE
8
BLACK
6
CONTINUOUS
10
5.61199
20
-3.26575
11
5.61457
21
-3.26747
0
LINE
8
BLACK
6
CONTINUOUS
10
5.61457
20
-3.26747
11
5.61743
21
-3.26866
0
LINE
8
BLACK
6
CONTINUOUS
10
5.61743
20
-3.26866
11
5.62048
21
-3.26926
0
LINE
8
BLACK
6
CONTINUOUS
10
5.62048
20
-3.26926
11
5.62358
21
-3.26926
0
LINE
8
BLACK
6
CONTINUOUS
10
5.62358
20
-3.26926
11
5.62662
21
-3.26866
0
LINE
8
BLACK
6
CONTINUOUS
10
5.62662
20
-3.26866
11
5.62949
21
-3.26747
0
LINE
8
BLACK
6
CONTINUOUS
10
5.62949
20
-3.26747
11
5.63207
21
-3.26575
0
LINE
8
BLACK
6
CONTINUOUS
10
5.63207
20
-3.26575
11
5.63426
21
-3.26356
0
LINE
8
BLACK
6
CONTINUOUS
10
5.63426
20
-3.26356
11
5.63598
21
-3.26098
0
LINE
8
BLACK
6
CONTINUOUS
10
5.63598
20
-3.26098
11
5.63717
21
-3.25811
0
LINE
8
BLACK
6
CONTINUOUS
10
5.63717
20
-3.25811
11
5.63778
21
-3.25507
0
LINE
8
BLACK
6
CONTINUOUS
10
5.63778
20
-3.25507
11
5.63778
21
-3.25197
0
LINE
8
BLACK
6
CONTINUOUS
10
5.63778
20
-3.25197
11
5.63717
21
-3.24892
0
LINE
8
BLACK
6
CONTINUOUS
10
5.63717
20
-3.24892
11
5.63598
21
-3.24606
0
LINE
8
BLACK
6
CONTINUOUS
10
5.63598
20
-3.24606
11
5.63426
21
-3.24348
0
LINE
8
BLACK
6
CONTINUOUS
10
5.63426
20
-3.24348
11
5.63207
21
-3.24128
0
LINE
8
BLACK
6
CONTINUOUS
10
5.63207
20
-3.24128
11
5.62949
21
-3.23956
0
LINE
8
BLACK
6
CONTINUOUS
10
5.62949
20
-3.23956
11
5.62662
21
-3.23837
0
LINE
8
BLACK
6
CONTINUOUS
10
5.62662
20
-3.23837
11
5.62358
21
-3.23777
0
LINE
8
BLACK
6
CONTINUOUS
10
5.62358
20
-3.23777
11
5.62048
21
-3.23777
0
LINE
8
BLACK
6
CONTINUOUS
10
5.59195
20
-3.25037
11
5.59195
21
-3.25037
0
LINE
8
BLACK
6
CONTINUOUS
10
5.59195
20
-3.25037
11
5.5921
21
-3.25022
0
LINE
8
BLACK
6
CONTINUOUS
10
5.5921
20
-3.25022
11
5.59469
21
-3.24635
0
LINE
8
BLACK
6
CONTINUOUS
10
5.59469
20
-3.24635
11
5.59647
21
-3.24206
0
LINE
8
BLACK
6
CONTINUOUS
10
5.59647
20
-3.24206
11
5.59738
21
-3.23749
0
LINE
8
BLACK
6
CONTINUOUS
10
5.59738
20
-3.23749
11
5.59738
21
-3.23284
0
LINE
8
BLACK
6
CONTINUOUS
10
5.59738
20
-3.23284
11
5.59647
21
-3.22828
0
LINE
8
BLACK
6
CONTINUOUS
10
5.59647
20
-3.22828
11
5.59469
21
-3.22398
0
LINE
8
BLACK
6
CONTINUOUS
10
5.59469
20
-3.22398
11
5.5921
21
-3.22011
0
LINE
8
BLACK
6
CONTINUOUS
10
5.5921
20
-3.22011
11
5.58881
21
-3.21682
0
LINE
8
BLACK
6
CONTINUOUS
10
5.58881
20
-3.21682
11
5.58495
21
-3.21423
0
LINE
8
BLACK
6
CONTINUOUS
10
5.58495
20
-3.21423
11
5.58065
21
-3.21245
0
LINE
8
BLACK
6
CONTINUOUS
10
5.58065
20
-3.21245
11
5.57608
21
-3.21154
0
LINE
8
BLACK
6
CONTINUOUS
10
5.57608
20
-3.21154
11
5.57143
21
-3.21154
0
LINE
8
BLACK
6
CONTINUOUS
10
5.57143
20
-3.21154
11
5.56687
21
-3.21245
0
LINE
8
BLACK
6
CONTINUOUS
10
5.56687
20
-3.21245
11
5.56257
21
-3.21423
0
LINE
8
BLACK
6
CONTINUOUS
10
5.56257
20
-3.21423
11
5.5587
21
-3.21682
0
LINE
8
BLACK
6
CONTINUOUS
10
5.5587
20
-3.21682
11
5.55541
21
-3.22011
0
LINE
8
BLACK
6
CONTINUOUS
10
5.55541
20
-3.22011
11
5.55282
21
-3.22398
0
LINE
8
BLACK
6
CONTINUOUS
10
5.55282
20
-3.22398
11
5.55104
21
-3.22828
0
LINE
8
BLACK
6
CONTINUOUS
10
5.55104
20
-3.22828
11
5.55013
21
-3.23284
0
LINE
8
BLACK
6
CONTINUOUS
10
5.55013
20
-3.23284
11
5.55013
21
-3.23749
0
LINE
8
BLACK
6
CONTINUOUS
10
5.55013
20
-3.23749
11
5.55104
21
-3.24206
0
LINE
8
BLACK
6
CONTINUOUS
10
5.55104
20
-3.24206
11
5.55282
21
-3.24635
0
LINE
8
BLACK
6
CONTINUOUS
10
5.55282
20
-3.24635
11
5.55541
21
-3.25022
0
LINE
8
BLACK
6
CONTINUOUS
10
5.55541
20
-3.25022
11
5.5587
21
-3.25351
0
LINE
8
BLACK
6
CONTINUOUS
10
5.5587
20
-3.25351
11
5.56257
21
-3.2561
0
LINE
8
BLACK
6
CONTINUOUS
10
5.56257
20
-3.2561
11
5.56687
21
-3.25788
0
LINE
8
BLACK
6
CONTINUOUS
10
5.56687
20
-3.25788
11
5.57143
21
-3.25879
0
LINE
8
BLACK
6
CONTINUOUS
10
5.57143
20
-3.25879
11
5.57608
21
-3.25879
0
LINE
8
BLACK
6
CONTINUOUS
10
5.57608
20
-3.25879
11
5.58065
21
-3.25788
0
LINE
8
BLACK
6
CONTINUOUS
10
5.58065
20
-3.25788
11
5.58495
21
-3.2561
0
LINE
8
BLACK
6
CONTINUOUS
10
5.58495
20
-3.2561
11
5.58881
21
-3.25351
0
LINE
8
BLACK
6
CONTINUOUS
10
5.58881
20
-3.25351
11
5.59195
21
-3.25038
0
LINE
8
BLACK
6
CONTINUOUS
10
5.59195
20
-3.25038
11
5.59195
21
-3.25037
0
LINE
8
BLACK
6
CONTINUOUS
10
5.87929
20
-3.22587
11
5.87625
21
-3.22648
0
LINE
8
BLACK
6
CONTINUOUS
10
5.87625
20
-3.22648
11
5.87338
21
-3.22767
0
LINE
8
BLACK
6
CONTINUOUS
10
5.87338
20
-3.22767
11
5.8708
21
-3.22939
0
LINE
8
BLACK
6
CONTINUOUS
10
5.8708
20
-3.22939
11
5.86861
21
-3.23158
0
LINE
8
BLACK
6
CONTINUOUS
10
5.86861
20
-3.23158
11
5.86689
21
-3.23416
0
LINE
8
BLACK
6
CONTINUOUS
10
5.86689
20
-3.23416
11
5.8657
21
-3.23703
0
LINE
8
BLACK
6
CONTINUOUS
10
5.8657
20
-3.23703
11
5.86509
21
-3.24007
0
LINE
8
BLACK
6
CONTINUOUS
10
5.86509
20
-3.24007
11
5.86509
21
-3.24317
0
LINE
8
BLACK
6
CONTINUOUS
10
5.86509
20
-3.24317
11
5.8657
21
-3.24622
0
LINE
8
BLACK
6
CONTINUOUS
10
5.8657
20
-3.24622
11
5.86689
21
-3.24908
0
LINE
8
BLACK
6
CONTINUOUS
10
5.86689
20
-3.24908
11
5.86861
21
-3.25166
0
LINE
8
BLACK
6
CONTINUOUS
10
5.86861
20
-3.25166
11
5.8708
21
-3.25385
0
LINE
8
BLACK
6
CONTINUOUS
10
5.8708
20
-3.25385
11
5.87338
21
-3.25558
0
LINE
8
BLACK
6
CONTINUOUS
10
5.87338
20
-3.25558
11
5.87625
21
-3.25677
0
LINE
8
BLACK
6
CONTINUOUS
10
5.87625
20
-3.25677
11
5.87929
21
-3.25737
0
LINE
8
BLACK
6
CONTINUOUS
10
5.87929
20
-3.25737
11
5.88239
21
-3.25737
0
LINE
8
BLACK
6
CONTINUOUS
10
5.88239
20
-3.25737
11
5.88544
21
-3.25677
0
LINE
8
BLACK
6
CONTINUOUS
10
5.88544
20
-3.25677
11
5.8883
21
-3.25558
0
LINE
8
BLACK
6
CONTINUOUS
10
5.8883
20
-3.25558
11
5.89088
21
-3.25385
0
LINE
8
BLACK
6
CONTINUOUS
10
5.89088
20
-3.25385
11
5.89308
21
-3.25166
0
LINE
8
BLACK
6
CONTINUOUS
10
5.89308
20
-3.25166
11
5.8948
21
-3.24908
0
LINE
8
BLACK
6
CONTINUOUS
10
5.8948
20
-3.24908
11
5.89599
21
-3.24622
0
LINE
8
BLACK
6
CONTINUOUS
10
5.89599
20
-3.24622
11
5.89659
21
-3.24317
0
LINE
8
BLACK
6
CONTINUOUS
10
5.89659
20
-3.24317
11
5.89659
21
-3.24007
0
LINE
8
BLACK
6
CONTINUOUS
10
5.89659
20
-3.24007
11
5.89599
21
-3.23703
0
LINE
8
BLACK
6
CONTINUOUS
10
5.89599
20
-3.23703
11
5.8948
21
-3.23416
0
LINE
8
BLACK
6
CONTINUOUS
10
5.8948
20
-3.23416
11
5.89308
21
-3.23158
0
LINE
8
BLACK
6
CONTINUOUS
10
5.89308
20
-3.23158
11
5.89088
21
-3.22939
0
LINE
8
BLACK
6
CONTINUOUS
10
5.89088
20
-3.22939
11
5.8883
21
-3.22767
0
LINE
8
BLACK
6
CONTINUOUS
10
5.8883
20
-3.22767
11
5.88544
21
-3.22648
0
LINE
8
BLACK
6
CONTINUOUS
10
5.88544
20
-3.22648
11
5.88239
21
-3.22587
0
LINE
8
BLACK
6
CONTINUOUS
10
5.88239
20
-3.22587
11
5.87929
21
-3.22587
0
LINE
8
BLACK
6
CONTINUOUS
10
5.24426
20
-3.13635
11
5.23506
21
-3.13818
0
LINE
8
BLACK
6
CONTINUOUS
10
5.23506
20
-3.13818
11
5.22639
21
-3.14177
0
LINE
8
BLACK
6
CONTINUOUS
10
5.22639
20
-3.14177
11
5.21859
21
-3.14698
0
LINE
8
BLACK
6
CONTINUOUS
10
5.21859
20
-3.14698
11
5.21195
21
-3.15362
0
LINE
8
BLACK
6
CONTINUOUS
10
5.21195
20
-3.15362
11
5.20674
21
-3.16142
0
LINE
8
BLACK
6
CONTINUOUS
10
5.20674
20
-3.16142
11
5.20315
21
-3.17009
0
LINE
8
BLACK
6
CONTINUOUS
10
5.20315
20
-3.17009
11
5.20132
21
-3.17929
0
LINE
8
BLACK
6
CONTINUOUS
10
5.20132
20
-3.17929
11
5.20132
21
-3.18868
0
LINE
8
BLACK
6
CONTINUOUS
10
5.20132
20
-3.18868
11
5.20315
21
-3.19788
0
LINE
8
BLACK
6
CONTINUOUS
10
5.20315
20
-3.19788
11
5.20674
21
-3.20655
0
LINE
8
BLACK
6
CONTINUOUS
10
5.20674
20
-3.20655
11
5.21195
21
-3.21435
0
LINE
8
BLACK
6
CONTINUOUS
10
5.21195
20
-3.21435
11
5.21859
21
-3.22099
0
LINE
8
BLACK
6
CONTINUOUS
10
5.21859
20
-3.22099
11
5.22639
21
-3.2262
0
LINE
8
BLACK
6
CONTINUOUS
10
5.22639
20
-3.2262
11
5.23506
21
-3.22979
0
LINE
8
BLACK
6
CONTINUOUS
10
5.23506
20
-3.22979
11
5.24426
21
-3.23162
0
LINE
8
BLACK
6
CONTINUOUS
10
5.24426
20
-3.23162
11
5.25365
21
-3.23162
0
LINE
8
BLACK
6
CONTINUOUS
10
5.25365
20
-3.23162
11
5.25821
21
-3.23071
0
LINE
8
BLACK
6
CONTINUOUS
10
5.25821
20
-3.23071
11
5.25821
21
-3.23071
0
LINE
8
BLACK
6
CONTINUOUS
10
5.25821
20
-3.23071
11
5.25821
21
-3.23071
0
LINE
8
BLACK
6
CONTINUOUS
10
5.25821
20
-3.23071
11
5.25821
21
-3.23071
0
LINE
8
BLACK
6
CONTINUOUS
10
5.25821
20
-3.23071
11
5.26285
21
-3.22979
0
LINE
8
BLACK
6
CONTINUOUS
10
5.26285
20
-3.22979
11
5.27152
21
-3.2262
0
LINE
8
BLACK
6
CONTINUOUS
10
5.27152
20
-3.2262
11
5.27932
21
-3.22099
0
LINE
8
BLACK
6
CONTINUOUS
10
5.27932
20
-3.22099
11
5.28596
21
-3.21435
0
LINE
8
BLACK
6
CONTINUOUS
10
5.28596
20
-3.21435
11
5.29037
21
-3.20775
0
LINE
8
BLACK
6
CONTINUOUS
10
5.29037
20
-3.20775
11
5.29038
21
-3.20773
0
LINE
8
BLACK
6
CONTINUOUS
10
5.29038
20
-3.20773
11
5.29038
21
-3.20773
0
LINE
8
BLACK
6
CONTINUOUS
10
5.29038
20
-3.20773
11
5.29038
21
-3.20773
0
LINE
8
BLACK
6
CONTINUOUS
10
5.29038
20
-3.20773
11
5.29038
21
-3.20773
0
LINE
8
BLACK
6
CONTINUOUS
10
5.29038
20
-3.20773
11
5.2905
21
-3.20758
0
LINE
8
BLACK
6
CONTINUOUS
10
5.2905
20
-3.20758
11
5.29062
21
-3.20744
0
LINE
8
BLACK
6
CONTINUOUS
10
5.29062
20
-3.20744
11
5.29063
21
-3.20744
0
LINE
8
BLACK
6
CONTINUOUS
10
5.29063
20
-3.20744
11
5.29063
21
-3.20743
0
LINE
8
BLACK
6
CONTINUOUS
10
5.29063
20
-3.20743
11
5.29078
21
-3.20732
0
LINE
8
BLACK
6
CONTINUOUS
10
5.29078
20
-3.20732
11
5.29092
21
-3.2072
0
LINE
8
BLACK
6
CONTINUOUS
10
5.29092
20
-3.2072
11
5.29093
21
-3.2072
0
LINE
8
BLACK
6
CONTINUOUS
10
5.29093
20
-3.2072
11
5.29093
21
-3.20719
0
LINE
8
BLACK
6
CONTINUOUS
10
5.29093
20
-3.20719
11
5.2911
21
-3.2071
0
LINE
8
BLACK
6
CONTINUOUS
10
5.2911
20
-3.2071
11
5.29126
21
-3.20702
0
LINE
8
BLACK
6
CONTINUOUS
10
5.29126
20
-3.20702
11
5.29127
21
-3.20702
0
LINE
8
BLACK
6
CONTINUOUS
10
5.29127
20
-3.20702
11
5.29127
21
-3.20702
0
LINE
8
BLACK
6
CONTINUOUS
10
5.29127
20
-3.20702
11
5.29146
21
-3.20696
0
LINE
8
BLACK
6
CONTINUOUS
10
5.29146
20
-3.20696
11
5.29163
21
-3.20691
0
LINE
8
BLACK
6
CONTINUOUS
10
5.29163
20
-3.20691
11
5.29164
21
-3.20691
0
LINE
8
BLACK
6
CONTINUOUS
10
5.29164
20
-3.20691
11
5.29164
21
-3.20691
0
LINE
8
BLACK
6
CONTINUOUS
10
5.29164
20
-3.20691
11
5.29183
21
-3.20689
0
LINE
8
BLACK
6
CONTINUOUS
10
5.29183
20
-3.20689
11
5.29202
21
-3.20688
0
LINE
8
BLACK
6
CONTINUOUS
10
5.29202
20
-3.20688
11
5.29202
21
-3.20688
0
LINE
8
BLACK
6
CONTINUOUS
10
5.29202
20
-3.20688
11
5.29202
21
-3.20688
0
LINE
8
BLACK
6
CONTINUOUS
10
5.29202
20
-3.20688
11
5.29221
21
-3.2069
0
LINE
8
BLACK
6
CONTINUOUS
10
5.29221
20
-3.2069
11
5.2924
21
-3.20692
0
LINE
8
BLACK
6
CONTINUOUS
10
5.2924
20
-3.20692
11
5.2924
21
-3.20692
0
LINE
8
BLACK
6
CONTINUOUS
10
5.2924
20
-3.20692
11
5.2924
21
-3.20692
0
LINE
8
BLACK
6
CONTINUOUS
10
5.2924
20
-3.20692
11
5.29258
21
-3.20697
0
LINE
8
BLACK
6
CONTINUOUS
10
5.29258
20
-3.20697
11
5.29276
21
-3.20703
0
LINE
8
BLACK
6
CONTINUOUS
10
5.29276
20
-3.20703
11
5.29277
21
-3.20703
0
LINE
8
BLACK
6
CONTINUOUS
10
5.29277
20
-3.20703
11
5.29277
21
-3.20703
0
LINE
8
BLACK
6
CONTINUOUS
10
5.29277
20
-3.20703
11
5.29293
21
-3.20712
0
LINE
8
BLACK
6
CONTINUOUS
10
5.29293
20
-3.20712
11
5.2931
21
-3.20721
0
LINE
8
BLACK
6
CONTINUOUS
10
5.2931
20
-3.20721
11
5.29311
21
-3.20721
0
LINE
8
BLACK
6
CONTINUOUS
10
5.29311
20
-3.20721
11
5.29311
21
-3.20722
0
LINE
8
BLACK
6
CONTINUOUS
10
5.29311
20
-3.20722
11
5.29325
21
-3.20733
0
LINE
8
BLACK
6
CONTINUOUS
10
5.29325
20
-3.20733
11
5.2934
21
-3.20746
0
LINE
8
BLACK
6
CONTINUOUS
10
5.2934
20
-3.20746
11
5.2934
21
-3.20746
0
LINE
8
BLACK
6
CONTINUOUS
10
5.2934
20
-3.20746
11
5.2934
21
-3.20746
0
LINE
8
BLACK
6
CONTINUOUS
10
5.2934
20
-3.20746
11
5.29352
21
-3.20761
0
LINE
8
BLACK
6
CONTINUOUS
10
5.29352
20
-3.20761
11
5.29364
21
-3.20775
0
LINE
8
BLACK
6
CONTINUOUS
10
5.29364
20
-3.20775
11
5.29364
21
-3.20776
0
LINE
8
BLACK
6
CONTINUOUS
10
5.29364
20
-3.20776
11
5.29365
21
-3.20776
0
LINE
8
BLACK
6
CONTINUOUS
10
5.29365
20
-3.20776
11
5.29373
21
-3.20792
0
LINE
8
BLACK
6
CONTINUOUS
10
5.29373
20
-3.20792
11
5.29382
21
-3.20809
0
LINE
8
BLACK
6
CONTINUOUS
10
5.29382
20
-3.20809
11
5.29382
21
-3.2081
0
LINE
8
BLACK
6
CONTINUOUS
10
5.29382
20
-3.2081
11
5.29382
21
-3.2081
0
LINE
8
BLACK
6
CONTINUOUS
10
5.29382
20
-3.2081
11
5.29388
21
-3.20828
0
LINE
8
BLACK
6
CONTINUOUS
10
5.29388
20
-3.20828
11
5.29393
21
-3.20846
0
LINE
8
BLACK
6
CONTINUOUS
10
5.29393
20
-3.20846
11
5.29474
21
-3.21253
0
LINE
8
BLACK
6
CONTINUOUS
10
5.29474
20
-3.21253
11
5.29652
21
-3.21683
0
LINE
8
BLACK
6
CONTINUOUS
10
5.29652
20
-3.21683
11
5.29911
21
-3.2207
0
LINE
8
BLACK
6
CONTINUOUS
10
5.29911
20
-3.2207
11
5.3024
21
-3.22399
0
LINE
8
BLACK
6
CONTINUOUS
10
5.3024
20
-3.22399
11
5.30627
21
-3.22657
0
LINE
8
BLACK
6
CONTINUOUS
10
5.30627
20
-3.22657
11
5.31057
21
-3.22835
0
LINE
8
BLACK
6
CONTINUOUS
10
5.31057
20
-3.22835
11
5.31513
21
-3.22926
0
LINE
8
BLACK
6
CONTINUOUS
10
5.31513
20
-3.22926
11
5.31978
21
-3.22926
0
LINE
8
BLACK
6
CONTINUOUS
10
5.31978
20
-3.22926
11
5.32435
21
-3.22835
0
LINE
8
BLACK
6
CONTINUOUS
10
5.32435
20
-3.22835
11
5.32865
21
-3.22657
0
LINE
8
BLACK
6
CONTINUOUS
10
5.32865
20
-3.22657
11
5.33252
21
-3.22399
0
LINE
8
BLACK
6
CONTINUOUS
10
5.33252
20
-3.22399
11
5.33581
21
-3.2207
0
LINE
8
BLACK
6
CONTINUOUS
10
5.33581
20
-3.2207
11
5.33839
21
-3.21683
0
LINE
8
BLACK
6
CONTINUOUS
10
5.33839
20
-3.21683
11
5.34017
21
-3.21253
0
LINE
8
BLACK
6
CONTINUOUS
10
5.34017
20
-3.21253
11
5.34108
21
-3.20796
0
LINE
8
BLACK
6
CONTINUOUS
10
5.34108
20
-3.20796
11
5.34108
21
-3.20331
0
LINE
8
BLACK
6
CONTINUOUS
10
5.34108
20
-3.20331
11
5.34017
21
-3.19875
0
LINE
8
BLACK
6
CONTINUOUS
10
5.34017
20
-3.19875
11
5.33968
21
-3.19756
0
LINE
8
BLACK
6
CONTINUOUS
10
5.33968
20
-3.19756
11
5.33968
21
-3.19756
0
LINE
8
BLACK
6
CONTINUOUS
10
5.33968
20
-3.19756
11
5.33839
21
-3.19445
0
LINE
8
BLACK
6
CONTINUOUS
10
5.33839
20
-3.19445
11
5.33581
21
-3.19058
0
LINE
8
BLACK
6
CONTINUOUS
10
5.33581
20
-3.19058
11
5.33252
21
-3.18729
0
LINE
8
BLACK
6
CONTINUOUS
10
5.33252
20
-3.18729
11
5.32865
21
-3.1847
0
LINE
8
BLACK
6
CONTINUOUS
10
5.32865
20
-3.1847
11
5.32435
21
-3.18292
0
LINE
8
BLACK
6
CONTINUOUS
10
5.32435
20
-3.18292
11
5.31978
21
-3.18202
0
LINE
8
BLACK
6
CONTINUOUS
10
5.31978
20
-3.18202
11
5.31513
21
-3.18202
0
LINE
8
BLACK
6
CONTINUOUS
10
5.31513
20
-3.18202
11
5.31057
21
-3.18292
0
LINE
8
BLACK
6
CONTINUOUS
10
5.31057
20
-3.18292
11
5.30627
21
-3.1847
0
LINE
8
BLACK
6
CONTINUOUS
10
5.30627
20
-3.1847
11
5.3024
21
-3.18729
0
LINE
8
BLACK
6
CONTINUOUS
10
5.3024
20
-3.18729
11
5.29995
21
-3.18974
0
LINE
8
BLACK
6
CONTINUOUS
10
5.29995
20
-3.18974
11
5.29994
21
-3.18975
0
LINE
8
BLACK
6
CONTINUOUS
10
5.29994
20
-3.18975
11
5.29994
21
-3.18975
0
LINE
8
BLACK
6
CONTINUOUS
10
5.29994
20
-3.18975
11
5.29994
21
-3.18975
0
LINE
8
BLACK
6
CONTINUOUS
10
5.29994
20
-3.18975
11
5.29993
21
-3.18976
0
LINE
8
BLACK
6
CONTINUOUS
10
5.29993
20
-3.18976
11
5.29979
21
-3.18987
0
LINE
8
BLACK
6
CONTINUOUS
10
5.29979
20
-3.18987
11
5.29964
21
-3.18999
0
LINE
8
BLACK
6
CONTINUOUS
10
5.29964
20
-3.18999
11
5.29963
21
-3.18999
0
LINE
8
BLACK
6
CONTINUOUS
10
5.29963
20
-3.18999
11
5.29963
21
-3.19
0
LINE
8
BLACK
6
CONTINUOUS
10
5.29963
20
-3.19
11
5.29946
21
-3.19008
0
LINE
8
BLACK
6
CONTINUOUS
10
5.29946
20
-3.19008
11
5.2993
21
-3.19017
0
LINE
8
BLACK
6
CONTINUOUS
10
5.2993
20
-3.19017
11
5.29929
21
-3.19017
0
LINE
8
BLACK
6
CONTINUOUS
10
5.29929
20
-3.19017
11
5.29929
21
-3.19017
0
LINE
8
BLACK
6
CONTINUOUS
10
5.29929
20
-3.19017
11
5.2991
21
-3.19023
0
LINE
8
BLACK
6
CONTINUOUS
10
5.2991
20
-3.19023
11
5.29893
21
-3.19028
0
LINE
8
BLACK
6
CONTINUOUS
10
5.29893
20
-3.19028
11
5.29892
21
-3.19028
0
LINE
8
BLACK
6
CONTINUOUS
10
5.29892
20
-3.19028
11
5.29892
21
-3.19028
0
LINE
8
BLACK
6
CONTINUOUS
10
5.29892
20
-3.19028
11
5.29873
21
-3.1903
0
LINE
8
BLACK
6
CONTINUOUS
10
5.29873
20
-3.1903
11
5.29855
21
-3.19031
0
LINE
8
BLACK
6
CONTINUOUS
10
5.29855
20
-3.19031
11
5.29854
21
-3.19031
0
LINE
8
BLACK
6
CONTINUOUS
10
5.29854
20
-3.19031
11
5.29854
21
-3.19031
0
LINE
8
BLACK
6
CONTINUOUS
10
5.29854
20
-3.19031
11
5.29836
21
-3.19029
0
LINE
8
BLACK
6
CONTINUOUS
10
5.29836
20
-3.19029
11
5.29816
21
-3.19027
0
LINE
8
BLACK
6
CONTINUOUS
10
5.29816
20
-3.19027
11
5.29816
21
-3.19027
0
LINE
8
BLACK
6
CONTINUOUS
10
5.29816
20
-3.19027
11
5.29816
21
-3.19027
0
LINE
8
BLACK
6
CONTINUOUS
10
5.29816
20
-3.19027
11
5.29798
21
-3.19022
0
LINE
8
BLACK
6
CONTINUOUS
10
5.29798
20
-3.19022
11
5.2978
21
-3.19016
0
LINE
8
BLACK
6
CONTINUOUS
10
5.2978
20
-3.19016
11
5.29779
21
-3.19016
0
LINE
8
BLACK
6
CONTINUOUS
10
5.29779
20
-3.19016
11
5.29779
21
-3.19016
0
LINE
8
BLACK
6
CONTINUOUS
10
5.29779
20
-3.19016
11
5.29763
21
-3.19007
0
LINE
8
BLACK
6
CONTINUOUS
10
5.29763
20
-3.19007
11
5.29746
21
-3.18998
0
LINE
8
BLACK
6
CONTINUOUS
10
5.29746
20
-3.18998
11
5.29746
21
-3.18997
0
LINE
8
BLACK
6
CONTINUOUS
10
5.29746
20
-3.18997
11
5.29745
21
-3.18997
0
LINE
8
BLACK
6
CONTINUOUS
10
5.29745
20
-3.18997
11
5.29731
21
-3.18986
0
LINE
8
BLACK
6
CONTINUOUS
10
5.29731
20
-3.18986
11
5.29716
21
-3.18973
0
LINE
8
BLACK
6
CONTINUOUS
10
5.29716
20
-3.18973
11
5.29716
21
-3.18973
0
LINE
8
BLACK
6
CONTINUOUS
10
5.29716
20
-3.18973
11
5.29716
21
-3.18973
0
LINE
8
BLACK
6
CONTINUOUS
10
5.29716
20
-3.18973
11
5.29704
21
-3.18958
0
LINE
8
BLACK
6
CONTINUOUS
10
5.29704
20
-3.18958
11
5.29692
21
-3.18943
0
LINE
8
BLACK
6
CONTINUOUS
10
5.29692
20
-3.18943
11
5.29692
21
-3.18943
0
LINE
8
BLACK
6
CONTINUOUS
10
5.29692
20
-3.18943
11
5.29692
21
-3.18943
0
LINE
8
BLACK
6
CONTINUOUS
10
5.29692
20
-3.18943
11
5.29682
21
-3.18925
0
LINE
8
BLACK
6
CONTINUOUS
10
5.29682
20
-3.18925
11
5.29674
21
-3.1891
0
LINE
8
BLACK
6
CONTINUOUS
10
5.29674
20
-3.1891
11
5.29674
21
-3.18909
0
LINE
8
BLACK
6
CONTINUOUS
10
5.29674
20
-3.18909
11
5.29674
21
-3.18909
0
LINE
8
BLACK
6
CONTINUOUS
10
5.29674
20
-3.18909
11
5.29668
21
-3.1889
0
LINE
8
BLACK
6
CONTINUOUS
10
5.29668
20
-3.1889
11
5.29663
21
-3.18873
0
LINE
8
BLACK
6
CONTINUOUS
10
5.29663
20
-3.18873
11
5.29663
21
-3.18872
0
LINE
8
BLACK
6
CONTINUOUS
10
5.29663
20
-3.18872
11
5.29663
21
-3.18872
0
LINE
8
BLACK
6
CONTINUOUS
10
5.29663
20
-3.18872
11
5.29661
21
-3.18853
0
LINE
8
BLACK
6
CONTINUOUS
10
5.29661
20
-3.18853
11
5.29659
21
-3.18834
0
LINE
8
BLACK
6
CONTINUOUS
10
5.29659
20
-3.18834
11
5.29659
21
-3.17929
0
LINE
8
BLACK
6
CONTINUOUS
10
5.29659
20
-3.17929
11
5.29476
21
-3.17009
0
LINE
8
BLACK
6
CONTINUOUS
10
5.29476
20
-3.17009
11
5.29117
21
-3.16142
0
LINE
8
BLACK
6
CONTINUOUS
10
5.29117
20
-3.16142
11
5.28596
21
-3.15362
0
LINE
8
BLACK
6
CONTINUOUS
10
5.28596
20
-3.15362
11
5.27932
21
-3.14698
0
LINE
8
BLACK
6
CONTINUOUS
10
5.27932
20
-3.14698
11
5.27152
21
-3.14177
0
LINE
8
BLACK
6
CONTINUOUS
10
5.27152
20
-3.14177
11
5.26285
21
-3.13818
0
LINE
8
BLACK
6
CONTINUOUS
10
5.26285
20
-3.13818
11
5.25464
21
-3.13654
0
LINE
8
BLACK
6
CONTINUOUS
10
5.25464
20
-3.13654
11
5.25365
21
-3.13635
0
LINE
8
BLACK
6
CONTINUOUS
10
5.25365
20
-3.13635
11
5.24426
21
-3.13635
0
LINE
8
BLACK
6
CONTINUOUS
10
5.39819
20
-3.1828
11
5.39515
21
-3.18341
0
LINE
8
BLACK
6
CONTINUOUS
10
5.39515
20
-3.18341
11
5.39228
21
-3.1846
0
LINE
8
BLACK
6
CONTINUOUS
10
5.39228
20
-3.1846
11
5.3897
21
-3.18632
0
LINE
8
BLACK
6
CONTINUOUS
10
5.3897
20
-3.18632
11
5.38751
21
-3.18851
0
LINE
8
BLACK
6
CONTINUOUS
10
5.38751
20
-3.18851
11
5.38578
21
-3.19109
0
LINE
8
BLACK
6
CONTINUOUS
10
5.38578
20
-3.19109
11
5.3846
21
-3.19396
0
LINE
8
BLACK
6
CONTINUOUS
10
5.3846
20
-3.19396
11
5.38399
21
-3.197
0
LINE
8
BLACK
6
CONTINUOUS
10
5.38399
20
-3.197
11
5.38399
21
-3.2001
0
LINE
8
BLACK
6
CONTINUOUS
10
5.38399
20
-3.2001
11
5.3846
21
-3.20314
0
LINE
8
BLACK
6
CONTINUOUS
10
5.3846
20
-3.20314
11
5.38578
21
-3.20601
0
LINE
8
BLACK
6
CONTINUOUS
10
5.38578
20
-3.20601
11
5.38751
21
-3.20859
0
LINE
8
BLACK
6
CONTINUOUS
10
5.38751
20
-3.20859
11
5.3897
21
-3.21078
0
LINE
8
BLACK
6
CONTINUOUS
10
5.3897
20
-3.21078
11
5.39228
21
-3.21251
0
LINE
8
BLACK
6
CONTINUOUS
10
5.39228
20
-3.21251
11
5.39515
21
-3.21369
0
LINE
8
BLACK
6
CONTINUOUS
10
5.39515
20
-3.21369
11
5.39819
21
-3.2143
0
LINE
8
BLACK
6
CONTINUOUS
10
5.39819
20
-3.2143
11
5.40129
21
-3.2143
0
LINE
8
BLACK
6
CONTINUOUS
10
5.40129
20
-3.2143
11
5.40433
21
-3.21369
0
LINE
8
BLACK
6
CONTINUOUS
10
5.40433
20
-3.21369
11
5.4072
21
-3.21251
0
LINE
8
BLACK
6
CONTINUOUS
10
5.4072
20
-3.21251
11
5.40978
21
-3.21078
0
LINE
8
BLACK
6
CONTINUOUS
10
5.40978
20
-3.21078
11
5.41197
21
-3.20859
0
LINE
8
BLACK
6
CONTINUOUS
10
5.41197
20
-3.20859
11
5.4137
21
-3.20601
0
LINE
8
BLACK
6
CONTINUOUS
10
5.4137
20
-3.20601
11
5.41488
21
-3.20314
0
LINE
8
BLACK
6
CONTINUOUS
10
5.41488
20
-3.20314
11
5.41549
21
-3.2001
0
LINE
8
BLACK
6
CONTINUOUS
10
5.41549
20
-3.2001
11
5.41549
21
-3.197
0
LINE
8
BLACK
6
CONTINUOUS
10
5.41549
20
-3.197
11
5.41488
21
-3.19396
0
LINE
8
BLACK
6
CONTINUOUS
10
5.41488
20
-3.19396
11
5.4137
21
-3.19109
0
LINE
8
BLACK
6
CONTINUOUS
10
5.4137
20
-3.19109
11
5.41197
21
-3.18851
0
LINE
8
BLACK
6
CONTINUOUS
10
5.41197
20
-3.18851
11
5.40978
21
-3.18632
0
LINE
8
BLACK
6
CONTINUOUS
10
5.40978
20
-3.18632
11
5.4072
21
-3.1846
0
LINE
8
BLACK
6
CONTINUOUS
10
5.4072
20
-3.1846
11
5.40433
21
-3.18341
0
LINE
8
BLACK
6
CONTINUOUS
10
5.40433
20
-3.18341
11
5.40129
21
-3.1828
0
LINE
8
BLACK
6
CONTINUOUS
10
5.40129
20
-3.1828
11
5.39819
21
-3.1828
0
LINE
8
BLACK
6
CONTINUOUS
10
5.30883
20
-3.11351
11
5.30427
21
-3.11442
0
LINE
8
BLACK
6
CONTINUOUS
10
5.30427
20
-3.11442
11
5.29997
21
-3.1162
0
LINE
8
BLACK
6
CONTINUOUS
10
5.29997
20
-3.1162
11
5.2961
21
-3.11879
0
LINE
8
BLACK
6
CONTINUOUS
10
5.2961
20
-3.11879
11
5.29281
21
-3.12208
0
LINE
8
BLACK
6
CONTINUOUS
10
5.29281
20
-3.12208
11
5.29022
21
-3.12594
0
LINE
8
BLACK
6
CONTINUOUS
10
5.29022
20
-3.12594
11
5.28844
21
-3.13024
0
LINE
8
BLACK
6
CONTINUOUS
10
5.28844
20
-3.13024
11
5.28754
21
-3.13481
0
LINE
8
BLACK
6
CONTINUOUS
10
5.28754
20
-3.13481
11
5.28754
21
-3.13946
0
LINE
8
BLACK
6
CONTINUOUS
10
5.28754
20
-3.13946
11
5.28844
21
-3.14402
0
LINE
8
BLACK
6
CONTINUOUS
10
5.28844
20
-3.14402
11
5.29022
21
-3.14832
0
LINE
8
BLACK
6
CONTINUOUS
10
5.29022
20
-3.14832
11
5.29281
21
-3.15219
0
LINE
8
BLACK
6
CONTINUOUS
10
5.29281
20
-3.15219
11
5.2961
21
-3.15548
0
LINE
8
BLACK
6
CONTINUOUS
10
5.2961
20
-3.15548
11
5.29997
21
-3.15807
0
LINE
8
BLACK
6
CONTINUOUS
10
5.29997
20
-3.15807
11
5.30427
21
-3.15985
0
LINE
8
BLACK
6
CONTINUOUS
10
5.30427
20
-3.15985
11
5.30883
21
-3.16076
0
LINE
8
BLACK
6
CONTINUOUS
10
5.30883
20
-3.16076
11
5.31348
21
-3.16076
0
LINE
8
BLACK
6
CONTINUOUS
10
5.31348
20
-3.16076
11
5.31805
21
-3.15985
0
LINE
8
BLACK
6
CONTINUOUS
10
5.31805
20
-3.15985
11
5.32235
21
-3.15807
0
LINE
8
BLACK
6
CONTINUOUS
10
5.32235
20
-3.15807
11
5.32622
21
-3.15548
0
LINE
8
BLACK
6
CONTINUOUS
10
5.32622
20
-3.15548
11
5.32951
21
-3.15219
0
LINE
8
BLACK
6
CONTINUOUS
10
5.32951
20
-3.15219
11
5.33209
21
-3.14832
0
LINE
8
BLACK
6
CONTINUOUS
10
5.33209
20
-3.14832
11
5.33387
21
-3.14402
0
LINE
8
BLACK
6
CONTINUOUS
10
5.33387
20
-3.14402
11
5.33478
21
-3.13946
0
LINE
8
BLACK
6
CONTINUOUS
10
5.33478
20
-3.13946
11
5.33478
21
-3.13481
0
LINE
8
BLACK
6
CONTINUOUS
10
5.33478
20
-3.13481
11
5.33387
21
-3.13024
0
LINE
8
BLACK
6
CONTINUOUS
10
5.33387
20
-3.13024
11
5.33305
21
-3.12827
0
LINE
8
BLACK
6
CONTINUOUS
10
5.33305
20
-3.12827
11
5.33209
21
-3.12594
0
LINE
8
BLACK
6
CONTINUOUS
10
5.33209
20
-3.12594
11
5.32951
21
-3.12208
0
LINE
8
BLACK
6
CONTINUOUS
10
5.32951
20
-3.12208
11
5.32622
21
-3.11879
0
LINE
8
BLACK
6
CONTINUOUS
10
5.32622
20
-3.11879
11
5.32235
21
-3.1162
0
LINE
8
BLACK
6
CONTINUOUS
10
5.32235
20
-3.1162
11
5.31805
21
-3.11442
0
LINE
8
BLACK
6
CONTINUOUS
10
5.31805
20
-3.11442
11
5.31348
21
-3.11351
0
LINE
8
BLACK
6
CONTINUOUS
10
5.31348
20
-3.11351
11
5.30883
21
-3.11351
0
LINE
8
BLACK
6
CONTINUOUS
10
5.64425
20
-3.11351
11
5.64121
21
-3.11412
0
LINE
8
BLACK
6
CONTINUOUS
10
5.64121
20
-3.11412
11
5.63834
21
-3.1153
0
LINE
8
BLACK
6
CONTINUOUS
10
5.63834
20
-3.1153
11
5.63576
21
-3.11703
0
LINE
8
BLACK
6
CONTINUOUS
10
5.63576
20
-3.11703
11
5.63357
21
-3.11922
0
LINE
8
BLACK
6
CONTINUOUS
10
5.63357
20
-3.11922
11
5.63185
21
-3.1218
0
LINE
8
BLACK
6
CONTINUOUS
10
5.63185
20
-3.1218
11
5.63066
21
-3.12467
0
LINE
8
BLACK
6
CONTINUOUS
10
5.63066
20
-3.12467
11
5.63006
21
-3.12771
0
LINE
8
BLACK
6
CONTINUOUS
10
5.63006
20
-3.12771
11
5.63006
21
-3.13081
0
LINE
8
BLACK
6
CONTINUOUS
10
5.63006
20
-3.13081
11
5.63066
21
-3.13385
0
LINE
8
BLACK
6
CONTINUOUS
10
5.63066
20
-3.13385
11
5.63185
21
-3.13672
0
LINE
8
BLACK
6
CONTINUOUS
10
5.63185
20
-3.13672
11
5.63357
21
-3.1393
0
LINE
8
BLACK
6
CONTINUOUS
10
5.63357
20
-3.1393
11
5.63576
21
-3.14149
0
LINE
8
BLACK
6
CONTINUOUS
10
5.63576
20
-3.14149
11
5.63834
21
-3.14322
0
LINE
8
BLACK
6
CONTINUOUS
10
5.63834
20
-3.14322
11
5.64121
21
-3.1444
0
LINE
8
BLACK
6
CONTINUOUS
10
5.64121
20
-3.1444
11
5.64425
21
-3.14501
0
LINE
8
BLACK
6
CONTINUOUS
10
5.64425
20
-3.14501
11
5.64735
21
-3.14501
0
LINE
8
BLACK
6
CONTINUOUS
10
5.64735
20
-3.14501
11
5.6504
21
-3.1444
0
LINE
8
BLACK
6
CONTINUOUS
10
5.6504
20
-3.1444
11
5.65326
21
-3.14322
0
LINE
8
BLACK
6
CONTINUOUS
10
5.65326
20
-3.14322
11
5.65584
21
-3.14149
0
LINE
8
BLACK
6
CONTINUOUS
10
5.65584
20
-3.14149
11
5.65804
21
-3.1393
0
LINE
8
BLACK
6
CONTINUOUS
10
5.65804
20
-3.1393
11
5.65976
21
-3.13672
0
LINE
8
BLACK
6
CONTINUOUS
10
5.65976
20
-3.13672
11
5.66095
21
-3.13385
0
LINE
8
BLACK
6
CONTINUOUS
10
5.66095
20
-3.13385
11
5.66155
21
-3.13081
0
LINE
8
BLACK
6
CONTINUOUS
10
5.66155
20
-3.13081
11
5.66155
21
-3.12771
0
LINE
8
BLACK
6
CONTINUOUS
10
5.66155
20
-3.12771
11
5.66095
21
-3.12467
0
LINE
8
BLACK
6
CONTINUOUS
10
5.66095
20
-3.12467
11
5.65976
21
-3.1218
0
LINE
8
BLACK
6
CONTINUOUS
10
5.65976
20
-3.1218
11
5.65804
21
-3.11922
0
LINE
8
BLACK
6
CONTINUOUS
10
5.65804
20
-3.11922
11
5.65584
21
-3.11703
0
LINE
8
BLACK
6
CONTINUOUS
10
5.65584
20
-3.11703
11
5.65326
21
-3.1153
0
LINE
8
BLACK
6
CONTINUOUS
10
5.65326
20
-3.1153
11
5.6504
21
-3.11412
0
LINE
8
BLACK
6
CONTINUOUS
10
5.6504
20
-3.11412
11
5.64735
21
-3.11351
0
LINE
8
BLACK
6
CONTINUOUS
10
5.64735
20
-3.11351
11
5.64425
21
-3.11351
0
LINE
8
BLACK
6
CONTINUOUS
10
5.24426
20
-3.03635
11
5.23506
21
-3.03818
0
LINE
8
BLACK
6
CONTINUOUS
10
5.23506
20
-3.03818
11
5.22639
21
-3.04177
0
LINE
8
BLACK
6
CONTINUOUS
10
5.22639
20
-3.04177
11
5.21859
21
-3.04698
0
LINE
8
BLACK
6
CONTINUOUS
10
5.21859
20
-3.04698
11
5.21195
21
-3.05362
0
LINE
8
BLACK
6
CONTINUOUS
10
5.21195
20
-3.05362
11
5.20674
21
-3.06142
0
LINE
8
BLACK
6
CONTINUOUS
10
5.20674
20
-3.06142
11
5.20315
21
-3.07009
0
LINE
8
BLACK
6
CONTINUOUS
10
5.20315
20
-3.07009
11
5.20132
21
-3.07929
0
LINE
8
BLACK
6
CONTINUOUS
10
5.20132
20
-3.07929
11
5.20132
21
-3.08868
0
LINE
8
BLACK
6
CONTINUOUS
10
5.20132
20
-3.08868
11
5.20315
21
-3.09788
0
LINE
8
BLACK
6
CONTINUOUS
10
5.20315
20
-3.09788
11
5.20674
21
-3.10655
0
LINE
8
BLACK
6
CONTINUOUS
10
5.20674
20
-3.10655
11
5.21195
21
-3.11435
0
LINE
8
BLACK
6
CONTINUOUS
10
5.21195
20
-3.11435
11
5.21859
21
-3.12099
0
LINE
8
BLACK
6
CONTINUOUS
10
5.21859
20
-3.12099
11
5.22639
21
-3.1262
0
LINE
8
BLACK
6
CONTINUOUS
10
5.22639
20
-3.1262
11
5.23506
21
-3.12979
0
LINE
8
BLACK
6
CONTINUOUS
10
5.23506
20
-3.12979
11
5.24426
21
-3.13162
0
LINE
8
BLACK
6
CONTINUOUS
10
5.24426
20
-3.13162
11
5.25365
21
-3.13162
0
LINE
8
BLACK
6
CONTINUOUS
10
5.25365
20
-3.13162
11
5.26285
21
-3.12979
0
LINE
8
BLACK
6
CONTINUOUS
10
5.26285
20
-3.12979
11
5.27152
21
-3.1262
0
LINE
8
BLACK
6
CONTINUOUS
10
5.27152
20
-3.1262
11
5.27932
21
-3.12099
0
LINE
8
BLACK
6
CONTINUOUS
10
5.27932
20
-3.12099
11
5.28596
21
-3.11435
0
LINE
8
BLACK
6
CONTINUOUS
10
5.28596
20
-3.11435
11
5.29117
21
-3.10655
0
LINE
8
BLACK
6
CONTINUOUS
10
5.29117
20
-3.10655
11
5.29476
21
-3.09788
0
LINE
8
BLACK
6
CONTINUOUS
10
5.29476
20
-3.09788
11
5.29659
21
-3.08868
0
LINE
8
BLACK
6
CONTINUOUS
10
5.29659
20
-3.08868
11
5.29659
21
-3.07929
0
LINE
8
BLACK
6
CONTINUOUS
10
5.29659
20
-3.07929
11
5.29476
21
-3.07009
0
LINE
8
BLACK
6
CONTINUOUS
10
5.29476
20
-3.07009
11
5.2931
21
-3.06608
0
LINE
8
BLACK
6
CONTINUOUS
10
5.2931
20
-3.06608
11
5.29117
21
-3.06142
0
LINE
8
BLACK
6
CONTINUOUS
10
5.29117
20
-3.06142
11
5.28596
21
-3.05362
0
LINE
8
BLACK
6
CONTINUOUS
10
5.28596
20
-3.05362
11
5.27932
21
-3.04698
0
LINE
8
BLACK
6
CONTINUOUS
10
5.27932
20
-3.04698
11
5.27152
21
-3.04177
0
LINE
8
BLACK
6
CONTINUOUS
10
5.27152
20
-3.04177
11
5.26285
21
-3.03818
0
LINE
8
BLACK
6
CONTINUOUS
10
5.26285
20
-3.03818
11
5.26256
21
-3.03812
0
LINE
8
BLACK
6
CONTINUOUS
10
5.26256
20
-3.03812
11
5.26255
21
-3.03812
0
LINE
8
BLACK
6
CONTINUOUS
10
5.26255
20
-3.03812
11
5.25365
21
-3.03635
0
LINE
8
BLACK
6
CONTINUOUS
10
5.25365
20
-3.03635
11
5.24426
21
-3.03635
0
LINE
8
BLACK
6
CONTINUOUS
10
5.51946
20
-3.04422
11
5.5149
21
-3.04513
0
LINE
8
BLACK
6
CONTINUOUS
10
5.5149
20
-3.04513
11
5.5106
21
-3.04691
0
LINE
8
BLACK
6
CONTINUOUS
10
5.5106
20
-3.04691
11
5.50673
21
-3.04949
0
LINE
8
BLACK
6
CONTINUOUS
10
5.50673
20
-3.04949
11
5.50344
21
-3.05278
0
LINE
8
BLACK
6
CONTINUOUS
10
5.50344
20
-3.05278
11
5.50085
21
-3.05665
0
LINE
8
BLACK
6
CONTINUOUS
10
5.50085
20
-3.05665
11
5.49907
21
-3.06095
0
LINE
8
BLACK
6
CONTINUOUS
10
5.49907
20
-3.06095
11
5.49817
21
-3.06552
0
LINE
8
BLACK
6
CONTINUOUS
10
5.49817
20
-3.06552
11
5.49817
21
-3.07017
0
LINE
8
BLACK
6
CONTINUOUS
10
5.49817
20
-3.07017
11
5.49907
21
-3.07473
0
LINE
8
BLACK
6
CONTINUOUS
10
5.49907
20
-3.07473
11
5.50085
21
-3.07903
0
LINE
8
BLACK
6
CONTINUOUS
10
5.50085
20
-3.07903
11
5.50344
21
-3.0829
0
LINE
8
BLACK
6
CONTINUOUS
10
5.50344
20
-3.0829
11
5.50673
21
-3.08619
0
LINE
8
BLACK
6
CONTINUOUS
10
5.50673
20
-3.08619
11
5.5106
21
-3.08878
0
LINE
8
BLACK
6
CONTINUOUS
10
5.5106
20
-3.08878
11
5.5149
21
-3.09056
0
LINE
8
BLACK
6
CONTINUOUS
10
5.5149
20
-3.09056
11
5.51946
21
-3.09146
0
LINE
8
BLACK
6
CONTINUOUS
10
5.51946
20
-3.09146
11
5.52411
21
-3.09146
0
LINE
8
BLACK
6
CONTINUOUS
10
5.52411
20
-3.09146
11
5.52868
21
-3.09056
0
LINE
8
BLACK
6
CONTINUOUS
10
5.52868
20
-3.09056
11
5.53298
21
-3.08878
0
LINE
8
BLACK
6
CONTINUOUS
10
5.53298
20
-3.08878
11
5.53685
21
-3.08619
0
LINE
8
BLACK
6
CONTINUOUS
10
5.53685
20
-3.08619
11
5.54014
21
-3.0829
0
LINE
8
BLACK
6
CONTINUOUS
10
5.54014
20
-3.0829
11
5.54272
21
-3.07903
0
LINE
8
BLACK
6
CONTINUOUS
10
5.54272
20
-3.07903
11
5.5445
21
-3.07473
0
LINE
8
BLACK
6
CONTINUOUS
10
5.5445
20
-3.07473
11
5.54541
21
-3.07017
0
LINE
8
BLACK
6
CONTINUOUS
10
5.54541
20
-3.07017
11
5.54541
21
-3.06552
0
LINE
8
BLACK
6
CONTINUOUS
10
5.54541
20
-3.06552
11
5.5445
21
-3.06095
0
LINE
8
BLACK
6
CONTINUOUS
10
5.5445
20
-3.06095
11
5.54272
21
-3.05665
0
LINE
8
BLACK
6
CONTINUOUS
10
5.54272
20
-3.05665
11
5.54014
21
-3.05278
0
LINE
8
BLACK
6
CONTINUOUS
10
5.54014
20
-3.05278
11
5.53685
21
-3.04949
0
LINE
8
BLACK
6
CONTINUOUS
10
5.53685
20
-3.04949
11
5.53298
21
-3.04691
0
LINE
8
BLACK
6
CONTINUOUS
10
5.53298
20
-3.04691
11
5.52868
21
-3.04513
0
LINE
8
BLACK
6
CONTINUOUS
10
5.52868
20
-3.04513
11
5.52411
21
-3.04422
0
LINE
8
BLACK
6
CONTINUOUS
10
5.52411
20
-3.04422
11
5.51946
21
-3.04422
0
LINE
8
BLACK
6
CONTINUOUS
10
5.89466
20
-3.02414
11
5.89009
21
-3.02505
0
LINE
8
BLACK
6
CONTINUOUS
10
5.89009
20
-3.02505
11
5.8858
21
-3.02683
0
LINE
8
BLACK
6
CONTINUOUS
10
5.8858
20
-3.02683
11
5.88193
21
-3.02942
0
LINE
8
BLACK
6
CONTINUOUS
10
5.88193
20
-3.02942
11
5.87864
21
-3.03271
0
LINE
8
BLACK
6
CONTINUOUS
10
5.87864
20
-3.03271
11
5.87605
21
-3.03657
0
LINE
8
BLACK
6
CONTINUOUS
10
5.87605
20
-3.03657
11
5.87427
21
-3.04087
0
LINE
8
BLACK
6
CONTINUOUS
10
5.87427
20
-3.04087
11
5.87336
21
-3.04544
0
LINE
8
BLACK
6
CONTINUOUS
10
5.87336
20
-3.04544
11
5.87336
21
-3.05009
0
LINE
8
BLACK
6
CONTINUOUS
10
5.87336
20
-3.05009
11
5.87427
21
-3.05465
0
LINE
8
BLACK
6
CONTINUOUS
10
5.87427
20
-3.05465
11
5.87605
21
-3.05895
0
LINE
8
BLACK
6
CONTINUOUS
10
5.87605
20
-3.05895
11
5.87864
21
-3.06282
0
LINE
8
BLACK
6
CONTINUOUS
10
5.87864
20
-3.06282
11
5.88193
21
-3.06611
0
LINE
8
BLACK
6
CONTINUOUS
10
5.88193
20
-3.06611
11
5.8858
21
-3.0687
0
LINE
8
BLACK
6
CONTINUOUS
10
5.8858
20
-3.0687
11
5.89009
21
-3.07048
0
LINE
8
BLACK
6
CONTINUOUS
10
5.89009
20
-3.07048
11
5.89466
21
-3.07139
0
LINE
8
BLACK
6
CONTINUOUS
10
5.89466
20
-3.07139
11
5.89931
21
-3.07139
0
LINE
8
BLACK
6
CONTINUOUS
10
5.89931
20
-3.07139
11
5.90387
21
-3.07048
0
LINE
8
BLACK
6
CONTINUOUS
10
5.90387
20
-3.07048
11
5.90817
21
-3.0687
0
LINE
8
BLACK
6
CONTINUOUS
10
5.90817
20
-3.0687
11
5.91204
21
-3.06611
0
LINE
8
BLACK
6
CONTINUOUS
10
5.91204
20
-3.06611
11
5.91533
21
-3.06282
0
LINE
8
BLACK
6
CONTINUOUS
10
5.91533
20
-3.06282
11
5.91792
21
-3.05895
0
LINE
8
BLACK
6
CONTINUOUS
10
5.91792
20
-3.05895
11
5.9197
21
-3.05465
0
LINE
8
BLACK
6
CONTINUOUS
10
5.9197
20
-3.05465
11
5.92061
21
-3.05009
0
LINE
8
BLACK
6
CONTINUOUS
10
5.92061
20
-3.05009
11
5.92061
21
-3.04544
0
LINE
8
BLACK
6
CONTINUOUS
10
5.92061
20
-3.04544
11
5.9197
21
-3.04087
0
LINE
8
BLACK
6
CONTINUOUS
10
5.9197
20
-3.04087
11
5.91792
21
-3.03657
0
LINE
8
BLACK
6
CONTINUOUS
10
5.91792
20
-3.03657
11
5.91533
21
-3.03271
0
LINE
8
BLACK
6
CONTINUOUS
10
5.91533
20
-3.03271
11
5.91204
21
-3.02942
0
LINE
8
BLACK
6
CONTINUOUS
10
5.91204
20
-3.02942
11
5.90817
21
-3.02683
0
LINE
8
BLACK
6
CONTINUOUS
10
5.90817
20
-3.02683
11
5.90387
21
-3.02505
0
LINE
8
BLACK
6
CONTINUOUS
10
5.90387
20
-3.02505
11
5.89931
21
-3.02414
0
LINE
8
BLACK
6
CONTINUOUS
10
5.89931
20
-3.02414
11
5.89466
21
-3.02414
0
LINE
8
BLACK
6
CONTINUOUS
10
5.85828
20
-3.04048
11
5.8565
21
-3.03618
0
LINE
8
BLACK
6
CONTINUOUS
10
5.8565
20
-3.03618
11
5.85392
21
-3.03231
0
LINE
8
BLACK
6
CONTINUOUS
10
5.85392
20
-3.03231
11
5.85063
21
-3.02902
0
LINE
8
BLACK
6
CONTINUOUS
10
5.85063
20
-3.02902
11
5.84676
21
-3.02644
0
LINE
8
BLACK
6
CONTINUOUS
10
5.84676
20
-3.02644
11
5.84246
21
-3.02466
0
LINE
8
BLACK
6
CONTINUOUS
10
5.84246
20
-3.02466
11
5.83789
21
-3.02375
0
LINE
8
BLACK
6
CONTINUOUS
10
5.83789
20
-3.02375
11
5.83324
21
-3.02375
0
LINE
8
BLACK
6
CONTINUOUS
10
5.83324
20
-3.02375
11
5.82868
21
-3.02466
0
LINE
8
BLACK
6
CONTINUOUS
10
5.82868
20
-3.02466
11
5.82438
21
-3.02644
0
LINE
8
BLACK
6
CONTINUOUS
10
5.82438
20
-3.02644
11
5.82051
21
-3.02902
0
LINE
8
BLACK
6
CONTINUOUS
10
5.82051
20
-3.02902
11
5.81722
21
-3.03231
0
LINE
8
BLACK
6
CONTINUOUS
10
5.81722
20
-3.03231
11
5.81463
21
-3.03618
0
LINE
8
BLACK
6
CONTINUOUS
10
5.81463
20
-3.03618
11
5.81285
21
-3.04048
0
LINE
8
BLACK
6
CONTINUOUS
10
5.81285
20
-3.04048
11
5.81195
21
-3.04504
0
LINE
8
BLACK
6
CONTINUOUS
10
5.81195
20
-3.04504
11
5.81195
21
-3.0497
0
LINE
8
BLACK
6
CONTINUOUS
10
5.81195
20
-3.0497
11
5.81285
21
-3.05426
0
LINE
8
BLACK
6
CONTINUOUS
10
5.81285
20
-3.05426
11
5.81463
21
-3.05856
0
LINE
8
BLACK
6
CONTINUOUS
10
5.81463
20
-3.05856
11
5.81722
21
-3.06243
0
LINE
8
BLACK
6
CONTINUOUS
10
5.81722
20
-3.06243
11
5.82051
21
-3.06572
0
LINE
8
BLACK
6
CONTINUOUS
10
5.82051
20
-3.06572
11
5.82438
21
-3.0683
0
LINE
8
BLACK
6
CONTINUOUS
10
5.82438
20
-3.0683
11
5.82868
21
-3.07008
0
LINE
8
BLACK
6
CONTINUOUS
10
5.82868
20
-3.07008
11
5.83324
21
-3.07099
0
LINE
8
BLACK
6
CONTINUOUS
10
5.83324
20
-3.07099
11
5.83789
21
-3.07099
0
LINE
8
BLACK
6
CONTINUOUS
10
5.83789
20
-3.07099
11
5.84246
21
-3.07008
0
LINE
8
BLACK
6
CONTINUOUS
10
5.84246
20
-3.07008
11
5.84676
21
-3.0683
0
LINE
8
BLACK
6
CONTINUOUS
10
5.84676
20
-3.0683
11
5.85063
21
-3.06572
0
LINE
8
BLACK
6
CONTINUOUS
10
5.85063
20
-3.06572
11
5.85392
21
-3.06243
0
LINE
8
BLACK
6
CONTINUOUS
10
5.85392
20
-3.06243
11
5.8565
21
-3.05856
0
LINE
8
BLACK
6
CONTINUOUS
10
5.8565
20
-3.05856
11
5.85828
21
-3.05426
0
LINE
8
BLACK
6
CONTINUOUS
10
5.85828
20
-3.05426
11
5.85919
21
-3.0497
0
LINE
8
BLACK
6
CONTINUOUS
10
5.85919
20
-3.0497
11
5.85919
21
-3.04504
0
LINE
8
BLACK
6
CONTINUOUS
10
5.85919
20
-3.04504
11
5.85828
21
-3.04048
0
LINE
8
BLACK
6
CONTINUOUS
10
5.70371
20
-3.01509
11
5.69915
21
-3.01599
0
LINE
8
BLACK
6
CONTINUOUS
10
5.69915
20
-3.01599
11
5.69485
21
-3.01778
0
LINE
8
BLACK
6
CONTINUOUS
10
5.69485
20
-3.01778
11
5.69098
21
-3.02036
0
LINE
8
BLACK
6
CONTINUOUS
10
5.69098
20
-3.02036
11
5.68769
21
-3.02365
0
LINE
8
BLACK
6
CONTINUOUS
10
5.68769
20
-3.02365
11
5.68511
21
-3.02752
0
LINE
8
BLACK
6
CONTINUOUS
10
5.68511
20
-3.02752
11
5.68333
21
-3.03182
0
LINE
8
BLACK
6
CONTINUOUS
10
5.68333
20
-3.03182
11
5.68242
21
-3.03638
0
LINE
8
BLACK
6
CONTINUOUS
10
5.68242
20
-3.03638
11
5.68242
21
-3.04104
0
LINE
8
BLACK
6
CONTINUOUS
10
5.68242
20
-3.04104
11
5.68333
21
-3.0456
0
LINE
8
BLACK
6
CONTINUOUS
10
5.68333
20
-3.0456
11
5.68511
21
-3.0499
0
LINE
8
BLACK
6
CONTINUOUS
10
5.68511
20
-3.0499
11
5.68769
21
-3.05377
0
LINE
8
BLACK
6
CONTINUOUS
10
5.68769
20
-3.05377
11
5.69098
21
-3.05706
0
LINE
8
BLACK
6
CONTINUOUS
10
5.69098
20
-3.05706
11
5.69485
21
-3.05964
0
LINE
8
BLACK
6
CONTINUOUS
10
5.69485
20
-3.05964
11
5.69915
21
-3.06142
0
LINE
8
BLACK
6
CONTINUOUS
10
5.69915
20
-3.06142
11
5.70371
21
-3.06233
0
LINE
8
BLACK
6
CONTINUOUS
10
5.70371
20
-3.06233
11
5.70837
21
-3.06233
0
LINE
8
BLACK
6
CONTINUOUS
10
5.70837
20
-3.06233
11
5.71293
21
-3.06142
0
LINE
8
BLACK
6
CONTINUOUS
10
5.71293
20
-3.06142
11
5.71723
21
-3.05964
0
LINE
8
BLACK
6
CONTINUOUS
10
5.71723
20
-3.05964
11
5.7211
21
-3.05706
0
LINE
8
BLACK
6
CONTINUOUS
10
5.7211
20
-3.05706
11
5.72439
21
-3.05377
0
LINE
8
BLACK
6
CONTINUOUS
10
5.72439
20
-3.05377
11
5.72697
21
-3.0499
0
LINE
8
BLACK
6
CONTINUOUS
10
5.72697
20
-3.0499
11
5.72875
21
-3.0456
0
LINE
8
BLACK
6
CONTINUOUS
10
5.72875
20
-3.0456
11
5.72898
21
-3.04447
0
LINE
8
BLACK
6
CONTINUOUS
10
5.72898
20
-3.04447
11
5.72898
21
-3.04446
0
LINE
8
BLACK
6
CONTINUOUS
10
5.72898
20
-3.04446
11
5.72966
21
-3.04104
0
LINE
8
BLACK
6
CONTINUOUS
10
5.72966
20
-3.04104
11
5.72966
21
-3.03638
0
LINE
8
BLACK
6
CONTINUOUS
10
5.72966
20
-3.03638
11
5.72875
21
-3.03182
0
LINE
8
BLACK
6
CONTINUOUS
10
5.72875
20
-3.03182
11
5.72697
21
-3.02752
0
LINE
8
BLACK
6
CONTINUOUS
10
5.72697
20
-3.02752
11
5.72439
21
-3.02365
0
LINE
8
BLACK
6
CONTINUOUS
10
5.72439
20
-3.02365
11
5.7211
21
-3.02036
0
LINE
8
BLACK
6
CONTINUOUS
10
5.7211
20
-3.02036
11
5.71723
21
-3.01778
0
LINE
8
BLACK
6
CONTINUOUS
10
5.71723
20
-3.01778
11
5.71293
21
-3.01599
0
LINE
8
BLACK
6
CONTINUOUS
10
5.71293
20
-3.01599
11
5.70837
21
-3.01509
0
LINE
8
BLACK
6
CONTINUOUS
10
5.70837
20
-3.01509
11
5.70371
21
-3.01509
0
LINE
8
BLACK
6
CONTINUOUS
10
5.24426
20
-2.83635
11
5.23506
21
-2.83818
0
LINE
8
BLACK
6
CONTINUOUS
10
5.23506
20
-2.83818
11
5.22639
21
-2.84177
0
LINE
8
BLACK
6
CONTINUOUS
10
5.22639
20
-2.84177
11
5.21859
21
-2.84698
0
LINE
8
BLACK
6
CONTINUOUS
10
5.21859
20
-2.84698
11
5.21195
21
-2.85362
0
LINE
8
BLACK
6
CONTINUOUS
10
5.21195
20
-2.85362
11
5.20674
21
-2.86142
0
LINE
8
BLACK
6
CONTINUOUS
10
5.20674
20
-2.86142
11
5.20315
21
-2.87009
0
LINE
8
BLACK
6
CONTINUOUS
10
5.20315
20
-2.87009
11
5.20132
21
-2.87929
0
LINE
8
BLACK
6
CONTINUOUS
10
5.20132
20
-2.87929
11
5.20132
21
-2.88868
0
LINE
8
BLACK
6
CONTINUOUS
10
5.20132
20
-2.88868
11
5.20315
21
-2.89788
0
LINE
8
BLACK
6
CONTINUOUS
10
5.20315
20
-2.89788
11
5.20674
21
-2.90655
0
LINE
8
BLACK
6
CONTINUOUS
10
5.20674
20
-2.90655
11
5.21195
21
-2.91435
0
LINE
8
BLACK
6
CONTINUOUS
10
5.21195
20
-2.91435
11
5.21859
21
-2.92099
0
LINE
8
BLACK
6
CONTINUOUS
10
5.21859
20
-2.92099
11
5.22639
21
-2.9262
0
LINE
8
BLACK
6
CONTINUOUS
10
5.22639
20
-2.9262
11
5.23506
21
-2.92979
0
LINE
8
BLACK
6
CONTINUOUS
10
5.23506
20
-2.92979
11
5.24426
21
-2.93162
0
LINE
8
BLACK
6
CONTINUOUS
10
5.24426
20
-2.93162
11
5.25365
21
-2.93162
0
LINE
8
BLACK
6
CONTINUOUS
10
5.25365
20
-2.93162
11
5.26285
21
-2.92979
0
LINE
8
BLACK
6
CONTINUOUS
10
5.26285
20
-2.92979
11
5.27152
21
-2.9262
0
LINE
8
BLACK
6
CONTINUOUS
10
5.27152
20
-2.9262
11
5.27932
21
-2.92099
0
LINE
8
BLACK
6
CONTINUOUS
10
5.27932
20
-2.92099
11
5.28596
21
-2.91435
0
LINE
8
BLACK
6
CONTINUOUS
10
5.28596
20
-2.91435
11
5.29117
21
-2.90655
0
LINE
8
BLACK
6
CONTINUOUS
10
5.29117
20
-2.90655
11
5.29476
21
-2.89788
0
LINE
8
BLACK
6
CONTINUOUS
10
5.29476
20
-2.89788
11
5.29659
21
-2.88868
0
LINE
8
BLACK
6
CONTINUOUS
10
5.29659
20
-2.88868
11
5.29659
21
-2.87929
0
LINE
8
BLACK
6
CONTINUOUS
10
5.29659
20
-2.87929
11
5.29476
21
-2.87009
0
LINE
8
BLACK
6
CONTINUOUS
10
5.29476
20
-2.87009
11
5.29117
21
-2.86142
0
LINE
8
BLACK
6
CONTINUOUS
10
5.29117
20
-2.86142
11
5.28596
21
-2.85362
0
LINE
8
BLACK
6
CONTINUOUS
10
5.28596
20
-2.85362
11
5.27932
21
-2.84698
0
LINE
8
BLACK
6
CONTINUOUS
10
5.27932
20
-2.84698
11
5.27152
21
-2.84177
0
LINE
8
BLACK
6
CONTINUOUS
10
5.27152
20
-2.84177
11
5.26285
21
-2.83818
0
LINE
8
BLACK
6
CONTINUOUS
10
5.26285
20
-2.83818
11
5.25365
21
-2.83635
0
LINE
8
BLACK
6
CONTINUOUS
10
5.25365
20
-2.83635
11
5.24426
21
-2.83635
0
LINE
8
BLACK
6
CONTINUOUS
10
5.51671
20
-2.77217
11
5.51214
21
-2.77308
0
LINE
8
BLACK
6
CONTINUOUS
10
5.51214
20
-2.77308
11
5.50784
21
-2.77486
0
LINE
8
BLACK
6
CONTINUOUS
10
5.50784
20
-2.77486
11
5.50397
21
-2.77745
0
LINE
8
BLACK
6
CONTINUOUS
10
5.50397
20
-2.77745
11
5.50068
21
-2.78074
0
LINE
8
BLACK
6
CONTINUOUS
10
5.50068
20
-2.78074
11
5.4981
21
-2.78461
0
LINE
8
BLACK
6
CONTINUOUS
10
5.4981
20
-2.78461
11
5.49632
21
-2.7889
0
LINE
8
BLACK
6
CONTINUOUS
10
5.49632
20
-2.7889
11
5.49541
21
-2.79347
0
LINE
8
BLACK
6
CONTINUOUS
10
5.49541
20
-2.79347
11
5.49541
21
-2.79812
0
LINE
8
BLACK
6
CONTINUOUS
10
5.49541
20
-2.79812
11
5.49632
21
-2.80269
0
LINE
8
BLACK
6
CONTINUOUS
10
5.49632
20
-2.80269
11
5.4981
21
-2.80698
0
LINE
8
BLACK
6
CONTINUOUS
10
5.4981
20
-2.80698
11
5.50068
21
-2.81085
0
LINE
8
BLACK
6
CONTINUOUS
10
5.50068
20
-2.81085
11
5.50397
21
-2.81414
0
LINE
8
BLACK
6
CONTINUOUS
10
5.50397
20
-2.81414
11
5.50784
21
-2.81673
0
LINE
8
BLACK
6
CONTINUOUS
10
5.50784
20
-2.81673
11
5.51214
21
-2.81851
0
LINE
8
BLACK
6
CONTINUOUS
10
5.51214
20
-2.81851
11
5.51671
21
-2.81942
0
LINE
8
BLACK
6
CONTINUOUS
10
5.51671
20
-2.81942
11
5.52136
21
-2.81942
0
LINE
8
BLACK
6
CONTINUOUS
10
5.52136
20
-2.81942
11
5.52592
21
-2.81851
0
LINE
8
BLACK
6
CONTINUOUS
10
5.52592
20
-2.81851
11
5.53022
21
-2.81673
0
LINE
8
BLACK
6
CONTINUOUS
10
5.53022
20
-2.81673
11
5.53409
21
-2.81414
0
LINE
8
BLACK
6
CONTINUOUS
10
5.53409
20
-2.81414
11
5.53738
21
-2.81085
0
LINE
8
BLACK
6
CONTINUOUS
10
5.53738
20
-2.81085
11
5.53997
21
-2.80698
0
LINE
8
BLACK
6
CONTINUOUS
10
5.53997
20
-2.80698
11
5.54175
21
-2.80269
0
LINE
8
BLACK
6
CONTINUOUS
10
5.54175
20
-2.80269
11
5.54265
21
-2.79812
0
LINE
8
BLACK
6
CONTINUOUS
10
5.54265
20
-2.79812
11
5.54265
21
-2.79347
0
LINE
8
BLACK
6
CONTINUOUS
10
5.54265
20
-2.79347
11
5.54175
21
-2.78891
0
LINE
8
BLACK
6
CONTINUOUS
10
5.54175
20
-2.78891
11
5.53997
21
-2.78461
0
LINE
8
BLACK
6
CONTINUOUS
10
5.53997
20
-2.78461
11
5.53738
21
-2.78074
0
LINE
8
BLACK
6
CONTINUOUS
10
5.53738
20
-2.78074
11
5.53409
21
-2.77745
0
LINE
8
BLACK
6
CONTINUOUS
10
5.53409
20
-2.77745
11
5.53022
21
-2.77486
0
LINE
8
BLACK
6
CONTINUOUS
10
5.53022
20
-2.77486
11
5.52592
21
-2.77308
0
LINE
8
BLACK
6
CONTINUOUS
10
5.52592
20
-2.77308
11
5.52136
21
-2.77217
0
LINE
8
BLACK
6
CONTINUOUS
10
5.52136
20
-2.77217
11
5.51671
21
-2.77217
0
LINE
8
BLACK
6
CONTINUOUS
10
5.52999
20
-3.34177
11
5.53142
21
-3.34236
0
LINE
8
BLACK
6
CONTINUOUS
10
5.53142
20
-3.34236
11
5.53271
21
-3.34322
0
LINE
8
BLACK
6
CONTINUOUS
10
5.53271
20
-3.34322
11
5.53381
21
-3.34432
0
LINE
8
BLACK
6
CONTINUOUS
10
5.53381
20
-3.34432
11
5.53467
21
-3.34561
0
LINE
8
BLACK
6
CONTINUOUS
10
5.53467
20
-3.34561
11
5.53526
21
-3.34704
0
LINE
8
BLACK
6
CONTINUOUS
10
5.53526
20
-3.34704
11
5.53557
21
-3.34856
0
LINE
8
BLACK
6
CONTINUOUS
10
5.53557
20
-3.34856
11
5.53557
21
-3.35011
0
LINE
8
BLACK
6
CONTINUOUS
10
5.53557
20
-3.35011
11
5.53526
21
-3.35164
0
LINE
8
BLACK
6
CONTINUOUS
10
5.53526
20
-3.35164
11
5.53467
21
-3.35307
0
LINE
8
BLACK
6
CONTINUOUS
10
5.53467
20
-3.35307
11
5.53381
21
-3.35436
0
LINE
8
BLACK
6
CONTINUOUS
10
5.53381
20
-3.35436
11
5.53271
21
-3.35545
0
LINE
8
BLACK
6
CONTINUOUS
10
5.53271
20
-3.35545
11
5.53142
21
-3.35632
0
LINE
8
BLACK
6
CONTINUOUS
10
5.53142
20
-3.35632
11
5.52999
21
-3.35691
0
LINE
8
BLACK
6
CONTINUOUS
10
5.52999
20
-3.35691
11
5.52847
21
-3.35721
0
LINE
8
BLACK
6
CONTINUOUS
10
5.52847
20
-3.35721
11
5.52692
21
-3.35721
0
LINE
8
BLACK
6
CONTINUOUS
10
5.52692
20
-3.35721
11
5.5254
21
-3.35691
0
LINE
8
BLACK
6
CONTINUOUS
10
5.5254
20
-3.35691
11
5.52396
21
-3.35632
0
LINE
8
BLACK
6
CONTINUOUS
10
5.52396
20
-3.35632
11
5.52267
21
-3.35545
0
LINE
8
BLACK
6
CONTINUOUS
10
5.52267
20
-3.35545
11
5.52158
21
-3.35436
0
LINE
8
BLACK
6
CONTINUOUS
10
5.52158
20
-3.35436
11
5.52072
21
-3.35307
0
LINE
8
BLACK
6
CONTINUOUS
10
5.52072
20
-3.35307
11
5.52012
21
-3.35164
0
LINE
8
BLACK
6
CONTINUOUS
10
5.52012
20
-3.35164
11
5.51982
21
-3.35011
0
LINE
8
BLACK
6
CONTINUOUS
10
5.51982
20
-3.35011
11
5.51982
21
-3.34856
0
LINE
8
BLACK
6
CONTINUOUS
10
5.51982
20
-3.34856
11
5.52012
21
-3.34704
0
LINE
8
BLACK
6
CONTINUOUS
10
5.52012
20
-3.34704
11
5.52072
21
-3.34561
0
LINE
8
BLACK
6
CONTINUOUS
10
5.52072
20
-3.34561
11
5.52158
21
-3.34432
0
LINE
8
BLACK
6
CONTINUOUS
10
5.52158
20
-3.34432
11
5.52267
21
-3.34322
0
LINE
8
BLACK
6
CONTINUOUS
10
5.52267
20
-3.34322
11
5.52396
21
-3.34236
0
LINE
8
BLACK
6
CONTINUOUS
10
5.52396
20
-3.34236
11
5.5254
21
-3.34177
0
LINE
8
BLACK
6
CONTINUOUS
10
5.5254
20
-3.34177
11
5.52692
21
-3.34146
0
LINE
8
BLACK
6
CONTINUOUS
10
5.52692
20
-3.34146
11
5.52847
21
-3.34146
0
LINE
8
BLACK
6
CONTINUOUS
10
5.52847
20
-3.34146
11
5.52999
21
-3.34177
0
LINE
8
BLACK
6
CONTINUOUS
10
5.6749
20
-3.27996
11
5.67776
21
-3.28114
0
LINE
8
BLACK
6
CONTINUOUS
10
5.67776
20
-3.28114
11
5.68034
21
-3.28287
0
LINE
8
BLACK
6
CONTINUOUS
10
5.68034
20
-3.28287
11
5.68254
21
-3.28506
0
LINE
8
BLACK
6
CONTINUOUS
10
5.68254
20
-3.28506
11
5.68426
21
-3.28764
0
LINE
8
BLACK
6
CONTINUOUS
10
5.68426
20
-3.28764
11
5.68545
21
-3.29051
0
LINE
8
BLACK
6
CONTINUOUS
10
5.68545
20
-3.29051
11
5.68605
21
-3.29355
0
LINE
8
BLACK
6
CONTINUOUS
10
5.68605
20
-3.29355
11
5.68605
21
-3.29665
0
LINE
8
BLACK
6
CONTINUOUS
10
5.68605
20
-3.29665
11
5.68545
21
-3.29969
0
LINE
8
BLACK
6
CONTINUOUS
10
5.68545
20
-3.29969
11
5.68426
21
-3.30256
0
LINE
8
BLACK
6
CONTINUOUS
10
5.68426
20
-3.30256
11
5.68254
21
-3.30514
0
LINE
8
BLACK
6
CONTINUOUS
10
5.68254
20
-3.30514
11
5.68034
21
-3.30733
0
LINE
8
BLACK
6
CONTINUOUS
10
5.68034
20
-3.30733
11
5.67776
21
-3.30906
0
LINE
8
BLACK
6
CONTINUOUS
10
5.67776
20
-3.30906
11
5.6749
21
-3.31024
0
LINE
8
BLACK
6
CONTINUOUS
10
5.6749
20
-3.31024
11
5.67186
21
-3.31085
0
LINE
8
BLACK
6
CONTINUOUS
10
5.67186
20
-3.31085
11
5.66875
21
-3.31085
0
LINE
8
BLACK
6
CONTINUOUS
10
5.66875
20
-3.31085
11
5.66571
21
-3.31024
0
LINE
8
BLACK
6
CONTINUOUS
10
5.66571
20
-3.31024
11
5.66285
21
-3.30906
0
LINE
8
BLACK
6
CONTINUOUS
10
5.66285
20
-3.30906
11
5.66027
21
-3.30733
0
LINE
8
BLACK
6
CONTINUOUS
10
5.66027
20
-3.30733
11
5.65807
21
-3.30514
0
LINE
8
BLACK
6
CONTINUOUS
10
5.65807
20
-3.30514
11
5.65635
21
-3.30256
0
LINE
8
BLACK
6
CONTINUOUS
10
5.65635
20
-3.30256
11
5.65516
21
-3.29969
0
LINE
8
BLACK
6
CONTINUOUS
10
5.65516
20
-3.29969
11
5.65456
21
-3.29665
0
LINE
8
BLACK
6
CONTINUOUS
10
5.65456
20
-3.29665
11
5.65456
21
-3.29355
0
LINE
8
BLACK
6
CONTINUOUS
10
5.65456
20
-3.29355
11
5.65516
21
-3.29051
0
LINE
8
BLACK
6
CONTINUOUS
10
5.65516
20
-3.29051
11
5.65635
21
-3.28764
0
LINE
8
BLACK
6
CONTINUOUS
10
5.65635
20
-3.28764
11
5.65807
21
-3.28506
0
LINE
8
BLACK
6
CONTINUOUS
10
5.65807
20
-3.28506
11
5.66027
21
-3.28287
0
LINE
8
BLACK
6
CONTINUOUS
10
5.66027
20
-3.28287
11
5.66285
21
-3.28114
0
LINE
8
BLACK
6
CONTINUOUS
10
5.66285
20
-3.28114
11
5.66571
21
-3.27996
0
LINE
8
BLACK
6
CONTINUOUS
10
5.66571
20
-3.27996
11
5.66875
21
-3.27935
0
LINE
8
BLACK
6
CONTINUOUS
10
5.66875
20
-3.27935
11
5.67186
21
-3.27935
0
LINE
8
BLACK
6
CONTINUOUS
10
5.67186
20
-3.27935
11
5.6749
21
-3.27996
0
LINE
8
BLACK
6
CONTINUOUS
10
5.59298
20
-3.28335
11
5.59442
21
-3.28394
0
LINE
8
BLACK
6
CONTINUOUS
10
5.59442
20
-3.28394
11
5.5957
21
-3.2848
0
LINE
8
BLACK
6
CONTINUOUS
10
5.5957
20
-3.2848
11
5.5968
21
-3.2859
0
LINE
8
BLACK
6
CONTINUOUS
10
5.5968
20
-3.2859
11
5.59766
21
-3.28719
0
LINE
8
BLACK
6
CONTINUOUS
10
5.59766
20
-3.28719
11
5.59826
21
-3.28862
0
LINE
8
BLACK
6
CONTINUOUS
10
5.59826
20
-3.28862
11
5.59856
21
-3.29014
0
LINE
8
BLACK
6
CONTINUOUS
10
5.59856
20
-3.29014
11
5.59856
21
-3.29169
0
LINE
8
BLACK
6
CONTINUOUS
10
5.59856
20
-3.29169
11
5.59826
21
-3.29322
0
LINE
8
BLACK
6
CONTINUOUS
10
5.59826
20
-3.29322
11
5.59766
21
-3.29465
0
LINE
8
BLACK
6
CONTINUOUS
10
5.59766
20
-3.29465
11
5.5968
21
-3.29594
0
LINE
8
BLACK
6
CONTINUOUS
10
5.5968
20
-3.29594
11
5.5957
21
-3.29703
0
LINE
8
BLACK
6
CONTINUOUS
10
5.5957
20
-3.29703
11
5.59442
21
-3.2979
0
LINE
8
BLACK
6
CONTINUOUS
10
5.59442
20
-3.2979
11
5.59298
21
-3.29849
0
LINE
8
BLACK
6
CONTINUOUS
10
5.59298
20
-3.29849
11
5.59146
21
-3.29879
0
LINE
8
BLACK
6
CONTINUOUS
10
5.59146
20
-3.29879
11
5.58991
21
-3.29879
0
LINE
8
BLACK
6
CONTINUOUS
10
5.58991
20
-3.29879
11
5.58839
21
-3.29849
0
LINE
8
BLACK
6
CONTINUOUS
10
5.58839
20
-3.29849
11
5.58696
21
-3.2979
0
LINE
8
BLACK
6
CONTINUOUS
10
5.58696
20
-3.2979
11
5.58567
21
-3.29703
0
LINE
8
BLACK
6
CONTINUOUS
10
5.58567
20
-3.29703
11
5.58457
21
-3.29594
0
LINE
8
BLACK
6
CONTINUOUS
10
5.58457
20
-3.29594
11
5.58371
21
-3.29465
0
LINE
8
BLACK
6
CONTINUOUS
10
5.58371
20
-3.29465
11
5.58311
21
-3.29322
0
LINE
8
BLACK
6
CONTINUOUS
10
5.58311
20
-3.29322
11
5.58281
21
-3.29169
0
LINE
8
BLACK
6
CONTINUOUS
10
5.58281
20
-3.29169
11
5.58281
21
-3.29014
0
LINE
8
BLACK
6
CONTINUOUS
10
5.58281
20
-3.29014
11
5.58311
21
-3.28862
0
LINE
8
BLACK
6
CONTINUOUS
10
5.58311
20
-3.28862
11
5.58371
21
-3.28719
0
LINE
8
BLACK
6
CONTINUOUS
10
5.58371
20
-3.28719
11
5.58457
21
-3.2859
0
LINE
8
BLACK
6
CONTINUOUS
10
5.58457
20
-3.2859
11
5.58567
21
-3.2848
0
LINE
8
BLACK
6
CONTINUOUS
10
5.58567
20
-3.2848
11
5.58696
21
-3.28394
0
LINE
8
BLACK
6
CONTINUOUS
10
5.58696
20
-3.28394
11
5.58839
21
-3.28335
0
LINE
8
BLACK
6
CONTINUOUS
10
5.58839
20
-3.28335
11
5.58991
21
-3.28304
0
LINE
8
BLACK
6
CONTINUOUS
10
5.58991
20
-3.28304
11
5.59146
21
-3.28304
0
LINE
8
BLACK
6
CONTINUOUS
10
5.59146
20
-3.28304
11
5.59298
21
-3.28335
0
LINE
8
BLACK
6
CONTINUOUS
10
5.62432
20
-3.24595
11
5.62576
21
-3.24654
0
LINE
8
BLACK
6
CONTINUOUS
10
5.62576
20
-3.24654
11
5.62705
21
-3.2474
0
LINE
8
BLACK
6
CONTINUOUS
10
5.62705
20
-3.2474
11
5.62814
21
-3.2485
0
LINE
8
BLACK
6
CONTINUOUS
10
5.62814
20
-3.2485
11
5.62901
21
-3.24979
0
LINE
8
BLACK
6
CONTINUOUS
10
5.62901
20
-3.24979
11
5.6296
21
-3.25122
0
LINE
8
BLACK
6
CONTINUOUS
10
5.6296
20
-3.25122
11
5.6299
21
-3.25274
0
LINE
8
BLACK
6
CONTINUOUS
10
5.6299
20
-3.25274
11
5.6299
21
-3.25429
0
LINE
8
BLACK
6
CONTINUOUS
10
5.6299
20
-3.25429
11
5.6296
21
-3.25581
0
LINE
8
BLACK
6
CONTINUOUS
10
5.6296
20
-3.25581
11
5.62901
21
-3.25725
0
LINE
8
BLACK
6
CONTINUOUS
10
5.62901
20
-3.25725
11
5.62814
21
-3.25854
0
LINE
8
BLACK
6
CONTINUOUS
10
5.62814
20
-3.25854
11
5.62705
21
-3.25963
0
LINE
8
BLACK
6
CONTINUOUS
10
5.62705
20
-3.25963
11
5.62576
21
-3.26049
0
LINE
8
BLACK
6
CONTINUOUS
10
5.62576
20
-3.26049
11
5.62432
21
-3.26109
0
LINE
8
BLACK
6
CONTINUOUS
10
5.62432
20
-3.26109
11
5.6228
21
-3.26139
0
LINE
8
BLACK
6
CONTINUOUS
10
5.6228
20
-3.26139
11
5.62125
21
-3.26139
0
LINE
8
BLACK
6
CONTINUOUS
10
5.62125
20
-3.26139
11
5.61973
21
-3.26109
0
LINE
8
BLACK
6
CONTINUOUS
10
5.61973
20
-3.26109
11
5.6183
21
-3.26049
0
LINE
8
BLACK
6
CONTINUOUS
10
5.6183
20
-3.26049
11
5.61701
21
-3.25963
0
LINE
8
BLACK
6
CONTINUOUS
10
5.61701
20
-3.25963
11
5.61591
21
-3.25854
0
LINE
8
BLACK
6
CONTINUOUS
10
5.61591
20
-3.25854
11
5.61505
21
-3.25725
0
LINE
8
BLACK
6
CONTINUOUS
10
5.61505
20
-3.25725
11
5.61446
21
-3.25581
0
LINE
8
BLACK
6
CONTINUOUS
10
5.61446
20
-3.25581
11
5.61415
21
-3.25429
0
LINE
8
BLACK
6
CONTINUOUS
10
5.61415
20
-3.25429
11
5.61415
21
-3.25274
0
LINE
8
BLACK
6
CONTINUOUS
10
5.61415
20
-3.25274
11
5.61446
21
-3.25122
0
LINE
8
BLACK
6
CONTINUOUS
10
5.61446
20
-3.25122
11
5.61505
21
-3.24979
0
LINE
8
BLACK
6
CONTINUOUS
10
5.61505
20
-3.24979
11
5.61591
21
-3.2485
0
LINE
8
BLACK
6
CONTINUOUS
10
5.61591
20
-3.2485
11
5.61701
21
-3.2474
0
LINE
8
BLACK
6
CONTINUOUS
10
5.61701
20
-3.2474
11
5.6183
21
-3.24654
0
LINE
8
BLACK
6
CONTINUOUS
10
5.6183
20
-3.24654
11
5.61973
21
-3.24595
0
LINE
8
BLACK
6
CONTINUOUS
10
5.61973
20
-3.24595
11
5.62125
21
-3.24564
0
LINE
8
BLACK
6
CONTINUOUS
10
5.62125
20
-3.24564
11
5.6228
21
-3.24564
0
LINE
8
BLACK
6
CONTINUOUS
10
5.6228
20
-3.24564
11
5.62432
21
-3.24595
0
LINE
8
BLACK
6
CONTINUOUS
10
5.57835
20
-3.22002
11
5.58122
21
-3.22121
0
LINE
8
BLACK
6
CONTINUOUS
10
5.58122
20
-3.22121
11
5.5838
21
-3.22293
0
LINE
8
BLACK
6
CONTINUOUS
10
5.5838
20
-3.22293
11
5.58599
21
-3.22513
0
LINE
8
BLACK
6
CONTINUOUS
10
5.58599
20
-3.22513
11
5.58771
21
-3.22771
0
LINE
8
BLACK
6
CONTINUOUS
10
5.58771
20
-3.22771
11
5.5889
21
-3.23057
0
LINE
8
BLACK
6
CONTINUOUS
10
5.5889
20
-3.23057
11
5.5895
21
-3.23361
0
LINE
8
BLACK
6
CONTINUOUS
10
5.5895
20
-3.23361
11
5.5895
21
-3.23672
0
LINE
8
BLACK
6
CONTINUOUS
10
5.5895
20
-3.23672
11
5.5889
21
-3.23976
0
LINE
8
BLACK
6
CONTINUOUS
10
5.5889
20
-3.23976
11
5.58771
21
-3.24262
0
LINE
8
BLACK
6
CONTINUOUS
10
5.58771
20
-3.24262
11
5.58599
21
-3.2452
0
LINE
8
BLACK
6
CONTINUOUS
10
5.58599
20
-3.2452
11
5.5838
21
-3.2474
0
LINE
8
BLACK
6
CONTINUOUS
10
5.5838
20
-3.2474
11
5.58122
21
-3.24912
0
LINE
8
BLACK
6
CONTINUOUS
10
5.58122
20
-3.24912
11
5.57835
21
-3.25031
0
LINE
8
BLACK
6
CONTINUOUS
10
5.57835
20
-3.25031
11
5.57531
21
-3.25091
0
LINE
8
BLACK
6
CONTINUOUS
10
5.57531
20
-3.25091
11
5.57221
21
-3.25091
0
LINE
8
BLACK
6
CONTINUOUS
10
5.57221
20
-3.25091
11
5.56916
21
-3.25031
0
LINE
8
BLACK
6
CONTINUOUS
10
5.56916
20
-3.25031
11
5.5663
21
-3.24912
0
LINE
8
BLACK
6
CONTINUOUS
10
5.5663
20
-3.24912
11
5.56372
21
-3.2474
0
LINE
8
BLACK
6
CONTINUOUS
10
5.56372
20
-3.2474
11
5.56152
21
-3.2452
0
LINE
8
BLACK
6
CONTINUOUS
10
5.56152
20
-3.2452
11
5.5598
21
-3.24262
0
LINE
8
BLACK
6
CONTINUOUS
10
5.5598
20
-3.24262
11
5.55861
21
-3.23976
0
LINE
8
BLACK
6
CONTINUOUS
10
5.55861
20
-3.23976
11
5.55801
21
-3.23672
0
LINE
8
BLACK
6
CONTINUOUS
10
5.55801
20
-3.23672
11
5.55801
21
-3.23361
0
LINE
8
BLACK
6
CONTINUOUS
10
5.55801
20
-3.23361
11
5.55861
21
-3.23057
0
LINE
8
BLACK
6
CONTINUOUS
10
5.55861
20
-3.23057
11
5.5598
21
-3.22771
0
LINE
8
BLACK
6
CONTINUOUS
10
5.5598
20
-3.22771
11
5.56152
21
-3.22513
0
LINE
8
BLACK
6
CONTINUOUS
10
5.56152
20
-3.22513
11
5.56372
21
-3.22293
0
LINE
8
BLACK
6
CONTINUOUS
10
5.56372
20
-3.22293
11
5.5663
21
-3.22121
0
LINE
8
BLACK
6
CONTINUOUS
10
5.5663
20
-3.22121
11
5.56916
21
-3.22002
0
LINE
8
BLACK
6
CONTINUOUS
10
5.56916
20
-3.22002
11
5.57221
21
-3.21942
0
LINE
8
BLACK
6
CONTINUOUS
10
5.57221
20
-3.21942
11
5.57531
21
-3.21942
0
LINE
8
BLACK
6
CONTINUOUS
10
5.57531
20
-3.21942
11
5.57835
21
-3.22002
0
LINE
8
BLACK
6
CONTINUOUS
10
5.88314
20
-3.23405
11
5.88457
21
-3.23464
0
LINE
8
BLACK
6
CONTINUOUS
10
5.88457
20
-3.23464
11
5.88586
21
-3.23551
0
LINE
8
BLACK
6
CONTINUOUS
10
5.88586
20
-3.23551
11
5.88696
21
-3.2366
0
LINE
8
BLACK
6
CONTINUOUS
10
5.88696
20
-3.2366
11
5.88782
21
-3.23789
0
LINE
8
BLACK
6
CONTINUOUS
10
5.88782
20
-3.23789
11
5.88841
21
-3.23933
0
LINE
8
BLACK
6
CONTINUOUS
10
5.88841
20
-3.23933
11
5.88872
21
-3.24085
0
LINE
8
BLACK
6
CONTINUOUS
10
5.88872
20
-3.24085
11
5.88872
21
-3.2424
0
LINE
8
BLACK
6
CONTINUOUS
10
5.88872
20
-3.2424
11
5.88841
21
-3.24392
0
LINE
8
BLACK
6
CONTINUOUS
10
5.88841
20
-3.24392
11
5.88782
21
-3.24535
0
LINE
8
BLACK
6
CONTINUOUS
10
5.88782
20
-3.24535
11
5.88696
21
-3.24664
0
LINE
8
BLACK
6
CONTINUOUS
10
5.88696
20
-3.24664
11
5.88586
21
-3.24774
0
LINE
8
BLACK
6
CONTINUOUS
10
5.88586
20
-3.24774
11
5.88457
21
-3.2486
0
LINE
8
BLACK
6
CONTINUOUS
10
5.88457
20
-3.2486
11
5.88314
21
-3.24919
0
LINE
8
BLACK
6
CONTINUOUS
10
5.88314
20
-3.24919
11
5.88162
21
-3.2495
0
LINE
8
BLACK
6
CONTINUOUS
10
5.88162
20
-3.2495
11
5.88007
21
-3.2495
0
LINE
8
BLACK
6
CONTINUOUS
10
5.88007
20
-3.2495
11
5.87855
21
-3.24919
0
LINE
8
BLACK
6
CONTINUOUS
10
5.87855
20
-3.24919
11
5.87711
21
-3.2486
0
LINE
8
BLACK
6
CONTINUOUS
10
5.87711
20
-3.2486
11
5.87582
21
-3.24774
0
LINE
8
BLACK
6
CONTINUOUS
10
5.87582
20
-3.24774
11
5.87473
21
-3.24664
0
LINE
8
BLACK
6
CONTINUOUS
10
5.87473
20
-3.24664
11
5.87387
21
-3.24535
0
LINE
8
BLACK
6
CONTINUOUS
10
5.87387
20
-3.24535
11
5.87327
21
-3.24392
0
LINE
8
BLACK
6
CONTINUOUS
10
5.87327
20
-3.24392
11
5.87297
21
-3.2424
0
LINE
8
BLACK
6
CONTINUOUS
10
5.87297
20
-3.2424
11
5.87297
21
-3.24085
0
LINE
8
BLACK
6
CONTINUOUS
10
5.87297
20
-3.24085
11
5.87327
21
-3.23933
0
LINE
8
BLACK
6
CONTINUOUS
10
5.87327
20
-3.23933
11
5.87387
21
-3.23789
0
LINE
8
BLACK
6
CONTINUOUS
10
5.87387
20
-3.23789
11
5.87473
21
-3.2366
0
LINE
8
BLACK
6
CONTINUOUS
10
5.87473
20
-3.2366
11
5.87582
21
-3.23551
0
LINE
8
BLACK
6
CONTINUOUS
10
5.87582
20
-3.23551
11
5.87711
21
-3.23464
0
LINE
8
BLACK
6
CONTINUOUS
10
5.87711
20
-3.23464
11
5.87855
21
-3.23405
0
LINE
8
BLACK
6
CONTINUOUS
10
5.87855
20
-3.23405
11
5.88007
21
-3.23375
0
LINE
8
BLACK
6
CONTINUOUS
10
5.88007
20
-3.23375
11
5.88162
21
-3.23375
0
LINE
8
BLACK
6
CONTINUOUS
10
5.88162
20
-3.23375
11
5.88314
21
-3.23405
0
LINE
8
BLACK
6
CONTINUOUS
10
5.26055
20
-3.14575
11
5.26779
21
-3.14875
0
LINE
8
BLACK
6
CONTINUOUS
10
5.26779
20
-3.14875
11
5.2743
21
-3.1531
0
LINE
8
BLACK
6
CONTINUOUS
10
5.2743
20
-3.1531
11
5.27984
21
-3.15864
0
LINE
8
BLACK
6
CONTINUOUS
10
5.27984
20
-3.15864
11
5.28419
21
-3.16515
0
LINE
8
BLACK
6
CONTINUOUS
10
5.28419
20
-3.16515
11
5.28719
21
-3.17239
0
LINE
8
BLACK
6
CONTINUOUS
10
5.28719
20
-3.17239
11
5.28872
21
-3.18007
0
LINE
8
BLACK
6
CONTINUOUS
10
5.28872
20
-3.18007
11
5.28872
21
-3.1879
0
LINE
8
BLACK
6
CONTINUOUS
10
5.28872
20
-3.1879
11
5.28719
21
-3.19558
0
LINE
8
BLACK
6
CONTINUOUS
10
5.28719
20
-3.19558
11
5.28419
21
-3.20282
0
LINE
8
BLACK
6
CONTINUOUS
10
5.28419
20
-3.20282
11
5.27984
21
-3.20933
0
LINE
8
BLACK
6
CONTINUOUS
10
5.27984
20
-3.20933
11
5.2743
21
-3.21487
0
LINE
8
BLACK
6
CONTINUOUS
10
5.2743
20
-3.21487
11
5.26779
21
-3.21922
0
LINE
8
BLACK
6
CONTINUOUS
10
5.26779
20
-3.21922
11
5.26055
21
-3.22222
0
LINE
8
BLACK
6
CONTINUOUS
10
5.26055
20
-3.22222
11
5.25287
21
-3.22375
0
LINE
8
BLACK
6
CONTINUOUS
10
5.25287
20
-3.22375
11
5.24504
21
-3.22375
0
LINE
8
BLACK
6
CONTINUOUS
10
5.24504
20
-3.22375
11
5.23735
21
-3.22222
0
LINE
8
BLACK
6
CONTINUOUS
10
5.23735
20
-3.22222
11
5.23012
21
-3.21922
0
LINE
8
BLACK
6
CONTINUOUS
10
5.23012
20
-3.21922
11
5.22361
21
-3.21487
0
LINE
8
BLACK
6
CONTINUOUS
10
5.22361
20
-3.21487
11
5.21807
21
-3.20933
0
LINE
8
BLACK
6
CONTINUOUS
10
5.21807
20
-3.20933
11
5.21371
21
-3.20282
0
LINE
8
BLACK
6
CONTINUOUS
10
5.21371
20
-3.20282
11
5.21072
21
-3.19558
0
LINE
8
BLACK
6
CONTINUOUS
10
5.21072
20
-3.19558
11
5.20919
21
-3.1879
0
LINE
8
BLACK
6
CONTINUOUS
10
5.20919
20
-3.1879
11
5.20919
21
-3.18007
0
LINE
8
BLACK
6
CONTINUOUS
10
5.20919
20
-3.18007
11
5.21072
21
-3.17239
0
LINE
8
BLACK
6
CONTINUOUS
10
5.21072
20
-3.17239
11
5.21371
21
-3.16515
0
LINE
8
BLACK
6
CONTINUOUS
10
5.21371
20
-3.16515
11
5.21807
21
-3.15864
0
LINE
8
BLACK
6
CONTINUOUS
10
5.21807
20
-3.15864
11
5.22361
21
-3.1531
0
LINE
8
BLACK
6
CONTINUOUS
10
5.22361
20
-3.1531
11
5.23012
21
-3.14875
0
LINE
8
BLACK
6
CONTINUOUS
10
5.23012
20
-3.14875
11
5.23735
21
-3.14575
0
LINE
8
BLACK
6
CONTINUOUS
10
5.23735
20
-3.14575
11
5.24504
21
-3.14422
0
LINE
8
BLACK
6
CONTINUOUS
10
5.24504
20
-3.14422
11
5.25287
21
-3.14422
0
LINE
8
BLACK
6
CONTINUOUS
10
5.25287
20
-3.14422
11
5.26055
21
-3.14575
0
LINE
8
BLACK
6
CONTINUOUS
10
5.32205
20
-3.19049
11
5.32492
21
-3.19168
0
LINE
8
BLACK
6
CONTINUOUS
10
5.32492
20
-3.19168
11
5.3275
21
-3.19341
0
LINE
8
BLACK
6
CONTINUOUS
10
5.3275
20
-3.19341
11
5.32969
21
-3.1956
0
LINE
8
BLACK
6
CONTINUOUS
10
5.32969
20
-3.1956
11
5.33141
21
-3.19818
0
LINE
8
BLACK
6
CONTINUOUS
10
5.33141
20
-3.19818
11
5.3326
21
-3.20104
0
LINE
8
BLACK
6
CONTINUOUS
10
5.3326
20
-3.20104
11
5.33321
21
-3.20409
0
LINE
8
BLACK
6
CONTINUOUS
10
5.33321
20
-3.20409
11
5.33321
21
-3.20719
0
LINE
8
BLACK
6
CONTINUOUS
10
5.33321
20
-3.20719
11
5.3326
21
-3.21023
0
LINE
8
BLACK
6
CONTINUOUS
10
5.3326
20
-3.21023
11
5.33141
21
-3.2131
0
LINE
8
BLACK
6
CONTINUOUS
10
5.33141
20
-3.2131
11
5.32969
21
-3.21568
0
LINE
8
BLACK
6
CONTINUOUS
10
5.32969
20
-3.21568
11
5.3275
21
-3.21787
0
LINE
8
BLACK
6
CONTINUOUS
10
5.3275
20
-3.21787
11
5.32492
21
-3.21959
0
LINE
8
BLACK
6
CONTINUOUS
10
5.32492
20
-3.21959
11
5.32205
21
-3.22078
0
LINE
8
BLACK
6
CONTINUOUS
10
5.32205
20
-3.22078
11
5.31901
21
-3.22139
0
LINE
8
BLACK
6
CONTINUOUS
10
5.31901
20
-3.22139
11
5.31591
21
-3.22139
0
LINE
8
BLACK
6
CONTINUOUS
10
5.31591
20
-3.22139
11
5.31286
21
-3.22078
0
LINE
8
BLACK
6
CONTINUOUS
10
5.31286
20
-3.22078
11
5.31
21
-3.21959
0
LINE
8
BLACK
6
CONTINUOUS
10
5.31
20
-3.21959
11
5.30742
21
-3.21787
0
LINE
8
BLACK
6
CONTINUOUS
10
5.30742
20
-3.21787
11
5.30522
21
-3.21568
0
LINE
8
BLACK
6
CONTINUOUS
10
5.30522
20
-3.21568
11
5.3035
21
-3.2131
0
LINE
8
BLACK
6
CONTINUOUS
10
5.3035
20
-3.2131
11
5.30231
21
-3.21023
0
LINE
8
BLACK
6
CONTINUOUS
10
5.30231
20
-3.21023
11
5.30171
21
-3.20719
0
LINE
8
BLACK
6
CONTINUOUS
10
5.30171
20
-3.20719
11
5.30171
21
-3.20409
0
LINE
8
BLACK
6
CONTINUOUS
10
5.30171
20
-3.20409
11
5.30231
21
-3.20104
0
LINE
8
BLACK
6
CONTINUOUS
10
5.30231
20
-3.20104
11
5.3035
21
-3.19818
0
LINE
8
BLACK
6
CONTINUOUS
10
5.3035
20
-3.19818
11
5.30522
21
-3.1956
0
LINE
8
BLACK
6
CONTINUOUS
10
5.30522
20
-3.1956
11
5.30742
21
-3.19341
0
LINE
8
BLACK
6
CONTINUOUS
10
5.30742
20
-3.19341
11
5.31
21
-3.19168
0
LINE
8
BLACK
6
CONTINUOUS
10
5.31
20
-3.19168
11
5.31286
21
-3.19049
0
LINE
8
BLACK
6
CONTINUOUS
10
5.31286
20
-3.19049
11
5.31591
21
-3.18989
0
LINE
8
BLACK
6
CONTINUOUS
10
5.31591
20
-3.18989
11
5.31901
21
-3.18989
0
LINE
8
BLACK
6
CONTINUOUS
10
5.31901
20
-3.18989
11
5.32205
21
-3.19049
0
LINE
8
BLACK
6
CONTINUOUS
10
5.40204
20
-3.19098
11
5.40347
21
-3.19157
0
LINE
8
BLACK
6
CONTINUOUS
10
5.40347
20
-3.19157
11
5.40476
21
-3.19244
0
LINE
8
BLACK
6
CONTINUOUS
10
5.40476
20
-3.19244
11
5.40586
21
-3.19353
0
LINE
8
BLACK
6
CONTINUOUS
10
5.40586
20
-3.19353
11
5.40672
21
-3.19482
0
LINE
8
BLACK
6
CONTINUOUS
10
5.40672
20
-3.19482
11
5.40731
21
-3.19625
0
LINE
8
BLACK
6
CONTINUOUS
10
5.40731
20
-3.19625
11
5.40761
21
-3.19778
0
LINE
8
BLACK
6
CONTINUOUS
10
5.40761
20
-3.19778
11
5.40761
21
-3.19933
0
LINE
8
BLACK
6
CONTINUOUS
10
5.40761
20
-3.19933
11
5.40731
21
-3.20085
0
LINE
8
BLACK
6
CONTINUOUS
10
5.40731
20
-3.20085
11
5.40672
21
-3.20228
0
LINE
8
BLACK
6
CONTINUOUS
10
5.40672
20
-3.20228
11
5.40586
21
-3.20357
0
LINE
8
BLACK
6
CONTINUOUS
10
5.40586
20
-3.20357
11
5.40476
21
-3.20467
0
LINE
8
BLACK
6
CONTINUOUS
10
5.40476
20
-3.20467
11
5.40347
21
-3.20553
0
LINE
8
BLACK
6
CONTINUOUS
10
5.40347
20
-3.20553
11
5.40204
21
-3.20612
0
LINE
8
BLACK
6
CONTINUOUS
10
5.40204
20
-3.20612
11
5.40052
21
-3.20643
0
LINE
8
BLACK
6
CONTINUOUS
10
5.40052
20
-3.20643
11
5.39897
21
-3.20643
0
LINE
8
BLACK
6
CONTINUOUS
10
5.39897
20
-3.20643
11
5.39744
21
-3.20612
0
LINE
8
BLACK
6
CONTINUOUS
10
5.39744
20
-3.20612
11
5.39601
21
-3.20553
0
LINE
8
BLACK
6
CONTINUOUS
10
5.39601
20
-3.20553
11
5.39472
21
-3.20467
0
LINE
8
BLACK
6
CONTINUOUS
10
5.39472
20
-3.20467
11
5.39362
21
-3.20357
0
LINE
8
BLACK
6
CONTINUOUS
10
5.39362
20
-3.20357
11
5.39276
21
-3.20228
0
LINE
8
BLACK
6
CONTINUOUS
10
5.39276
20
-3.20228
11
5.39217
21
-3.20085
0
LINE
8
BLACK
6
CONTINUOUS
10
5.39217
20
-3.20085
11
5.39187
21
-3.19933
0
LINE
8
BLACK
6
CONTINUOUS
10
5.39187
20
-3.19933
11
5.39187
21
-3.19778
0
LINE
8
BLACK
6
CONTINUOUS
10
5.39187
20
-3.19778
11
5.39217
21
-3.19625
0
LINE
8
BLACK
6
CONTINUOUS
10
5.39217
20
-3.19625
11
5.39276
21
-3.19482
0
LINE
8
BLACK
6
CONTINUOUS
10
5.39276
20
-3.19482
11
5.39362
21
-3.19353
0
LINE
8
BLACK
6
CONTINUOUS
10
5.39362
20
-3.19353
11
5.39472
21
-3.19244
0
LINE
8
BLACK
6
CONTINUOUS
10
5.39472
20
-3.19244
11
5.39601
21
-3.19157
0
LINE
8
BLACK
6
CONTINUOUS
10
5.39601
20
-3.19157
11
5.39744
21
-3.19098
0
LINE
8
BLACK
6
CONTINUOUS
10
5.39744
20
-3.19098
11
5.39897
21
-3.19068
0
LINE
8
BLACK
6
CONTINUOUS
10
5.39897
20
-3.19068
11
5.40052
21
-3.19068
0
LINE
8
BLACK
6
CONTINUOUS
10
5.40052
20
-3.19068
11
5.40204
21
-3.19098
0
LINE
8
BLACK
6
CONTINUOUS
10
5.31575
20
-3.12199
11
5.31862
21
-3.12318
0
LINE
8
BLACK
6
CONTINUOUS
10
5.31862
20
-3.12318
11
5.3212
21
-3.1249
0
LINE
8
BLACK
6
CONTINUOUS
10
5.3212
20
-3.1249
11
5.32339
21
-3.1271
0
LINE
8
BLACK
6
CONTINUOUS
10
5.32339
20
-3.1271
11
5.32511
21
-3.12967
0
LINE
8
BLACK
6
CONTINUOUS
10
5.32511
20
-3.12967
11
5.3263
21
-3.13254
0
LINE
8
BLACK
6
CONTINUOUS
10
5.3263
20
-3.13254
11
5.32691
21
-3.13558
0
LINE
8
BLACK
6
CONTINUOUS
10
5.32691
20
-3.13558
11
5.32691
21
-3.13868
0
LINE
8
BLACK
6
CONTINUOUS
10
5.32691
20
-3.13868
11
5.3263
21
-3.14173
0
LINE
8
BLACK
6
CONTINUOUS
10
5.3263
20
-3.14173
11
5.32511
21
-3.14459
0
LINE
8
BLACK
6
CONTINUOUS
10
5.32511
20
-3.14459
11
5.32339
21
-3.14717
0
LINE
8
BLACK
6
CONTINUOUS
10
5.32339
20
-3.14717
11
5.3212
21
-3.14937
0
LINE
8
BLACK
6
CONTINUOUS
10
5.3212
20
-3.14937
11
5.31862
21
-3.15109
0
LINE
8
BLACK
6
CONTINUOUS
10
5.31862
20
-3.15109
11
5.31575
21
-3.15228
0
LINE
8
BLACK
6
CONTINUOUS
10
5.31575
20
-3.15228
11
5.31271
21
-3.15288
0
LINE
8
BLACK
6
CONTINUOUS
10
5.31271
20
-3.15288
11
5.30961
21
-3.15288
0
LINE
8
BLACK
6
CONTINUOUS
10
5.30961
20
-3.15288
11
5.30656
21
-3.15228
0
LINE
8
BLACK
6
CONTINUOUS
10
5.30656
20
-3.15228
11
5.3037
21
-3.15109
0
LINE
8
BLACK
6
CONTINUOUS
10
5.3037
20
-3.15109
11
5.30112
21
-3.14937
0
LINE
8
BLACK
6
CONTINUOUS
10
5.30112
20
-3.14937
11
5.29893
21
-3.14717
0
LINE
8
BLACK
6
CONTINUOUS
10
5.29893
20
-3.14717
11
5.2972
21
-3.14459
0
LINE
8
BLACK
6
CONTINUOUS
10
5.2972
20
-3.14459
11
5.29602
21
-3.14173
0
LINE
8
BLACK
6
CONTINUOUS
10
5.29602
20
-3.14173
11
5.29541
21
-3.13868
0
LINE
8
BLACK
6
CONTINUOUS
10
5.29541
20
-3.13868
11
5.29541
21
-3.13558
0
LINE
8
BLACK
6
CONTINUOUS
10
5.29541
20
-3.13558
11
5.29602
21
-3.13254
0
LINE
8
BLACK
6
CONTINUOUS
10
5.29602
20
-3.13254
11
5.2972
21
-3.12967
0
LINE
8
BLACK
6
CONTINUOUS
10
5.2972
20
-3.12967
11
5.29893
21
-3.1271
0
LINE
8
BLACK
6
CONTINUOUS
10
5.29893
20
-3.1271
11
5.30112
21
-3.1249
0
LINE
8
BLACK
6
CONTINUOUS
10
5.30112
20
-3.1249
11
5.3037
21
-3.12318
0
LINE
8
BLACK
6
CONTINUOUS
10
5.3037
20
-3.12318
11
5.30656
21
-3.12199
0
LINE
8
BLACK
6
CONTINUOUS
10
5.30656
20
-3.12199
11
5.30961
21
-3.12139
0
LINE
8
BLACK
6
CONTINUOUS
10
5.30961
20
-3.12139
11
5.31271
21
-3.12139
0
LINE
8
BLACK
6
CONTINUOUS
10
5.31271
20
-3.12139
11
5.31575
21
-3.12199
0
LINE
8
BLACK
6
CONTINUOUS
10
5.6481
20
-3.12169
11
5.64953
21
-3.12228
0
LINE
8
BLACK
6
CONTINUOUS
10
5.64953
20
-3.12228
11
5.65082
21
-3.12314
0
LINE
8
BLACK
6
CONTINUOUS
10
5.65082
20
-3.12314
11
5.65192
21
-3.12424
0
LINE
8
BLACK
6
CONTINUOUS
10
5.65192
20
-3.12424
11
5.65278
21
-3.12553
0
LINE
8
BLACK
6
CONTINUOUS
10
5.65278
20
-3.12553
11
5.65337
21
-3.12696
0
LINE
8
BLACK
6
CONTINUOUS
10
5.65337
20
-3.12696
11
5.65368
21
-3.12848
0
LINE
8
BLACK
6
CONTINUOUS
10
5.65368
20
-3.12848
11
5.65368
21
-3.13004
0
LINE
8
BLACK
6
CONTINUOUS
10
5.65368
20
-3.13004
11
5.65337
21
-3.13156
0
LINE
8
BLACK
6
CONTINUOUS
10
5.65337
20
-3.13156
11
5.65278
21
-3.13299
0
LINE
8
BLACK
6
CONTINUOUS
10
5.65278
20
-3.13299
11
5.65192
21
-3.13428
0
LINE
8
BLACK
6
CONTINUOUS
10
5.65192
20
-3.13428
11
5.65082
21
-3.13538
0
LINE
8
BLACK
6
CONTINUOUS
10
5.65082
20
-3.13538
11
5.64953
21
-3.13624
0
LINE
8
BLACK
6
CONTINUOUS
10
5.64953
20
-3.13624
11
5.6481
21
-3.13683
0
LINE
8
BLACK
6
CONTINUOUS
10
5.6481
20
-3.13683
11
5.64658
21
-3.13713
0
LINE
8
BLACK
6
CONTINUOUS
10
5.64658
20
-3.13713
11
5.64503
21
-3.13713
0
LINE
8
BLACK
6
CONTINUOUS
10
5.64503
20
-3.13713
11
5.64351
21
-3.13683
0
LINE
8
BLACK
6
CONTINUOUS
10
5.64351
20
-3.13683
11
5.64207
21
-3.13624
0
LINE
8
BLACK
6
CONTINUOUS
10
5.64207
20
-3.13624
11
5.64078
21
-3.13538
0
LINE
8
BLACK
6
CONTINUOUS
10
5.64078
20
-3.13538
11
5.63969
21
-3.13428
0
LINE
8
BLACK
6
CONTINUOUS
10
5.63969
20
-3.13428
11
5.63883
21
-3.13299
0
LINE
8
BLACK
6
CONTINUOUS
10
5.63883
20
-3.13299
11
5.63823
21
-3.13156
0
LINE
8
BLACK
6
CONTINUOUS
10
5.63823
20
-3.13156
11
5.63793
21
-3.13004
0
LINE
8
BLACK
6
CONTINUOUS
10
5.63793
20
-3.13004
11
5.63793
21
-3.12848
0
LINE
8
BLACK
6
CONTINUOUS
10
5.63793
20
-3.12848
11
5.63823
21
-3.12696
0
LINE
8
BLACK
6
CONTINUOUS
10
5.63823
20
-3.12696
11
5.63883
21
-3.12553
0
LINE
8
BLACK
6
CONTINUOUS
10
5.63883
20
-3.12553
11
5.63969
21
-3.12424
0
LINE
8
BLACK
6
CONTINUOUS
10
5.63969
20
-3.12424
11
5.64078
21
-3.12314
0
LINE
8
BLACK
6
CONTINUOUS
10
5.64078
20
-3.12314
11
5.64207
21
-3.12228
0
LINE
8
BLACK
6
CONTINUOUS
10
5.64207
20
-3.12228
11
5.64351
21
-3.12169
0
LINE
8
BLACK
6
CONTINUOUS
10
5.64351
20
-3.12169
11
5.64503
21
-3.12139
0
LINE
8
BLACK
6
CONTINUOUS
10
5.64503
20
-3.12139
11
5.64658
21
-3.12139
0
LINE
8
BLACK
6
CONTINUOUS
10
5.64658
20
-3.12139
11
5.6481
21
-3.12169
0
LINE
8
BLACK
6
CONTINUOUS
10
5.26055
20
-3.04575
11
5.26779
21
-3.04875
0
LINE
8
BLACK
6
CONTINUOUS
10
5.26779
20
-3.04875
11
5.2743
21
-3.0531
0
LINE
8
BLACK
6
CONTINUOUS
10
5.2743
20
-3.0531
11
5.27984
21
-3.05864
0
LINE
8
BLACK
6
CONTINUOUS
10
5.27984
20
-3.05864
11
5.28419
21
-3.06515
0
LINE
8
BLACK
6
CONTINUOUS
10
5.28419
20
-3.06515
11
5.28719
21
-3.07239
0
LINE
8
BLACK
6
CONTINUOUS
10
5.28719
20
-3.07239
11
5.28872
21
-3.08007
0
LINE
8
BLACK
6
CONTINUOUS
10
5.28872
20
-3.08007
11
5.28872
21
-3.0879
0
LINE
8
BLACK
6
CONTINUOUS
10
5.28872
20
-3.0879
11
5.28719
21
-3.09558
0
LINE
8
BLACK
6
CONTINUOUS
10
5.28719
20
-3.09558
11
5.28419
21
-3.10282
0
LINE
8
BLACK
6
CONTINUOUS
10
5.28419
20
-3.10282
11
5.27984
21
-3.10933
0
LINE
8
BLACK
6
CONTINUOUS
10
5.27984
20
-3.10933
11
5.2743
21
-3.11487
0
LINE
8
BLACK
6
CONTINUOUS
10
5.2743
20
-3.11487
11
5.26779
21
-3.11922
0
LINE
8
BLACK
6
CONTINUOUS
10
5.26779
20
-3.11922
11
5.26055
21
-3.12222
0
LINE
8
BLACK
6
CONTINUOUS
10
5.26055
20
-3.12222
11
5.25287
21
-3.12375
0
LINE
8
BLACK
6
CONTINUOUS
10
5.25287
20
-3.12375
11
5.24504
21
-3.12375
0
LINE
8
BLACK
6
CONTINUOUS
10
5.24504
20
-3.12375
11
5.23735
21
-3.12222
0
LINE
8
BLACK
6
CONTINUOUS
10
5.23735
20
-3.12222
11
5.23012
21
-3.11922
0
LINE
8
BLACK
6
CONTINUOUS
10
5.23012
20
-3.11922
11
5.22361
21
-3.11487
0
LINE
8
BLACK
6
CONTINUOUS
10
5.22361
20
-3.11487
11
5.21807
21
-3.10933
0
LINE
8
BLACK
6
CONTINUOUS
10
5.21807
20
-3.10933
11
5.21371
21
-3.10282
0
LINE
8
BLACK
6
CONTINUOUS
10
5.21371
20
-3.10282
11
5.21072
21
-3.09558
0
LINE
8
BLACK
6
CONTINUOUS
10
5.21072
20
-3.09558
11
5.20919
21
-3.0879
0
LINE
8
BLACK
6
CONTINUOUS
10
5.20919
20
-3.0879
11
5.20919
21
-3.08007
0
LINE
8
BLACK
6
CONTINUOUS
10
5.20919
20
-3.08007
11
5.21072
21
-3.07239
0
LINE
8
BLACK
6
CONTINUOUS
10
5.21072
20
-3.07239
11
5.21371
21
-3.06515
0
LINE
8
BLACK
6
CONTINUOUS
10
5.21371
20
-3.06515
11
5.21807
21
-3.05864
0
LINE
8
BLACK
6
CONTINUOUS
10
5.21807
20
-3.05864
11
5.22361
21
-3.0531
0
LINE
8
BLACK
6
CONTINUOUS
10
5.22361
20
-3.0531
11
5.23012
21
-3.04875
0
LINE
8
BLACK
6
CONTINUOUS
10
5.23012
20
-3.04875
11
5.23735
21
-3.04575
0
LINE
8
BLACK
6
CONTINUOUS
10
5.23735
20
-3.04575
11
5.24504
21
-3.04422
0
LINE
8
BLACK
6
CONTINUOUS
10
5.24504
20
-3.04422
11
5.25287
21
-3.04422
0
LINE
8
BLACK
6
CONTINUOUS
10
5.25287
20
-3.04422
11
5.26055
21
-3.04575
0
LINE
8
BLACK
6
CONTINUOUS
10
5.52638
20
-3.0527
11
5.52925
21
-3.05389
0
LINE
8
BLACK
6
CONTINUOUS
10
5.52925
20
-3.05389
11
5.53183
21
-3.05561
0
LINE
8
BLACK
6
CONTINUOUS
10
5.53183
20
-3.05561
11
5.53402
21
-3.0578
0
LINE
8
BLACK
6
CONTINUOUS
10
5.53402
20
-3.0578
11
5.53574
21
-3.06038
0
LINE
8
BLACK
6
CONTINUOUS
10
5.53574
20
-3.06038
11
5.53693
21
-3.06325
0
LINE
8
BLACK
6
CONTINUOUS
10
5.53693
20
-3.06325
11
5.53754
21
-3.06629
0
LINE
8
BLACK
6
CONTINUOUS
10
5.53754
20
-3.06629
11
5.53754
21
-3.06939
0
LINE
8
BLACK
6
CONTINUOUS
10
5.53754
20
-3.06939
11
5.53693
21
-3.07244
0
LINE
8
BLACK
6
CONTINUOUS
10
5.53693
20
-3.07244
11
5.53574
21
-3.0753
0
LINE
8
BLACK
6
CONTINUOUS
10
5.53574
20
-3.0753
11
5.53402
21
-3.07788
0
LINE
8
BLACK
6
CONTINUOUS
10
5.53402
20
-3.07788
11
5.53183
21
-3.08007
0
LINE
8
BLACK
6
CONTINUOUS
10
5.53183
20
-3.08007
11
5.52925
21
-3.0818
0
LINE
8
BLACK
6
CONTINUOUS
10
5.52925
20
-3.0818
11
5.52638
21
-3.08299
0
LINE
8
BLACK
6
CONTINUOUS
10
5.52638
20
-3.08299
11
5.52334
21
-3.08359
0
LINE
8
BLACK
6
CONTINUOUS
10
5.52334
20
-3.08359
11
5.52024
21
-3.08359
0
LINE
8
BLACK
6
CONTINUOUS
10
5.52024
20
-3.08359
11
5.51719
21
-3.08299
0
LINE
8
BLACK
6
CONTINUOUS
10
5.51719
20
-3.08299
11
5.51433
21
-3.0818
0
LINE
8
BLACK
6
CONTINUOUS
10
5.51433
20
-3.0818
11
5.51175
21
-3.08007
0
LINE
8
BLACK
6
CONTINUOUS
10
5.51175
20
-3.08007
11
5.50956
21
-3.07788
0
LINE
8
BLACK
6
CONTINUOUS
10
5.50956
20
-3.07788
11
5.50783
21
-3.0753
0
LINE
8
BLACK
6
CONTINUOUS
10
5.50783
20
-3.0753
11
5.50664
21
-3.07244
0
LINE
8
BLACK
6
CONTINUOUS
10
5.50664
20
-3.07244
11
5.50604
21
-3.06939
0
LINE
8
BLACK
6
CONTINUOUS
10
5.50604
20
-3.06939
11
5.50604
21
-3.06629
0
LINE
8
BLACK
6
CONTINUOUS
10
5.50604
20
-3.06629
11
5.50664
21
-3.06325
0
LINE
8
BLACK
6
CONTINUOUS
10
5.50664
20
-3.06325
11
5.50783
21
-3.06038
0
LINE
8
BLACK
6
CONTINUOUS
10
5.50783
20
-3.06038
11
5.50956
21
-3.0578
0
LINE
8
BLACK
6
CONTINUOUS
10
5.50956
20
-3.0578
11
5.51175
21
-3.05561
0
LINE
8
BLACK
6
CONTINUOUS
10
5.51175
20
-3.05561
11
5.51433
21
-3.05389
0
LINE
8
BLACK
6
CONTINUOUS
10
5.51433
20
-3.05389
11
5.51719
21
-3.0527
0
LINE
8
BLACK
6
CONTINUOUS
10
5.51719
20
-3.0527
11
5.52024
21
-3.05209
0
LINE
8
BLACK
6
CONTINUOUS
10
5.52024
20
-3.05209
11
5.52334
21
-3.05209
0
LINE
8
BLACK
6
CONTINUOUS
10
5.52334
20
-3.05209
11
5.52638
21
-3.0527
0
LINE
8
BLACK
6
CONTINUOUS
10
5.90158
20
-3.03262
11
5.90444
21
-3.03381
0
LINE
8
BLACK
6
CONTINUOUS
10
5.90444
20
-3.03381
11
5.90702
21
-3.03553
0
LINE
8
BLACK
6
CONTINUOUS
10
5.90702
20
-3.03553
11
5.90922
21
-3.03773
0
LINE
8
BLACK
6
CONTINUOUS
10
5.90922
20
-3.03773
11
5.91094
21
-3.0403
0
LINE
8
BLACK
6
CONTINUOUS
10
5.91094
20
-3.0403
11
5.91213
21
-3.04317
0
LINE
8
BLACK
6
CONTINUOUS
10
5.91213
20
-3.04317
11
5.91273
21
-3.04621
0
LINE
8
BLACK
6
CONTINUOUS
10
5.91273
20
-3.04621
11
5.91273
21
-3.04931
0
LINE
8
BLACK
6
CONTINUOUS
10
5.91273
20
-3.04931
11
5.91213
21
-3.05236
0
LINE
8
BLACK
6
CONTINUOUS
10
5.91213
20
-3.05236
11
5.91094
21
-3.05522
0
LINE
8
BLACK
6
CONTINUOUS
10
5.91094
20
-3.05522
11
5.90922
21
-3.0578
0
LINE
8
BLACK
6
CONTINUOUS
10
5.90922
20
-3.0578
11
5.90702
21
-3.06
0
LINE
8
BLACK
6
CONTINUOUS
10
5.90702
20
-3.06
11
5.90444
21
-3.06172
0
LINE
8
BLACK
6
CONTINUOUS
10
5.90444
20
-3.06172
11
5.90158
21
-3.06291
0
LINE
8
BLACK
6
CONTINUOUS
10
5.90158
20
-3.06291
11
5.89854
21
-3.06351
0
LINE
8
BLACK
6
CONTINUOUS
10
5.89854
20
-3.06351
11
5.89543
21
-3.06351
0
LINE
8
BLACK
6
CONTINUOUS
10
5.89543
20
-3.06351
11
5.89239
21
-3.06291
0
LINE
8
BLACK
6
CONTINUOUS
10
5.89239
20
-3.06291
11
5.88953
21
-3.06172
0
LINE
8
BLACK
6
CONTINUOUS
10
5.88953
20
-3.06172
11
5.88695
21
-3.06
0
LINE
8
BLACK
6
CONTINUOUS
10
5.88695
20
-3.06
11
5.88475
21
-3.0578
0
LINE
8
BLACK
6
CONTINUOUS
10
5.88475
20
-3.0578
11
5.88303
21
-3.05522
0
LINE
8
BLACK
6
CONTINUOUS
10
5.88303
20
-3.05522
11
5.88184
21
-3.05236
0
LINE
8
BLACK
6
CONTINUOUS
10
5.88184
20
-3.05236
11
5.88124
21
-3.04931
0
LINE
8
BLACK
6
CONTINUOUS
10
5.88124
20
-3.04931
11
5.88124
21
-3.04621
0
LINE
8
BLACK
6
CONTINUOUS
10
5.88124
20
-3.04621
11
5.88184
21
-3.04317
0
LINE
8
BLACK
6
CONTINUOUS
10
5.88184
20
-3.04317
11
5.88303
21
-3.0403
0
LINE
8
BLACK
6
CONTINUOUS
10
5.88303
20
-3.0403
11
5.88475
21
-3.03773
0
LINE
8
BLACK
6
CONTINUOUS
10
5.88475
20
-3.03773
11
5.88695
21
-3.03553
0
LINE
8
BLACK
6
CONTINUOUS
10
5.88695
20
-3.03553
11
5.88953
21
-3.03381
0
LINE
8
BLACK
6
CONTINUOUS
10
5.88953
20
-3.03381
11
5.89239
21
-3.03262
0
LINE
8
BLACK
6
CONTINUOUS
10
5.89239
20
-3.03262
11
5.89543
21
-3.03202
0
LINE
8
BLACK
6
CONTINUOUS
10
5.89543
20
-3.03202
11
5.89854
21
-3.03202
0
LINE
8
BLACK
6
CONTINUOUS
10
5.89854
20
-3.03202
11
5.90158
21
-3.03262
0
LINE
8
BLACK
6
CONTINUOUS
10
5.84016
20
-3.03223
11
5.84303
21
-3.03341
0
LINE
8
BLACK
6
CONTINUOUS
10
5.84303
20
-3.03341
11
5.84561
21
-3.03514
0
LINE
8
BLACK
6
CONTINUOUS
10
5.84561
20
-3.03514
11
5.8478
21
-3.03733
0
LINE
8
BLACK
6
CONTINUOUS
10
5.8478
20
-3.03733
11
5.84952
21
-3.03991
0
LINE
8
BLACK
6
CONTINUOUS
10
5.84952
20
-3.03991
11
5.85071
21
-3.04278
0
LINE
8
BLACK
6
CONTINUOUS
10
5.85071
20
-3.04278
11
5.85132
21
-3.04582
0
LINE
8
BLACK
6
CONTINUOUS
10
5.85132
20
-3.04582
11
5.85132
21
-3.04892
0
LINE
8
BLACK
6
CONTINUOUS
10
5.85132
20
-3.04892
11
5.85071
21
-3.05196
0
LINE
8
BLACK
6
CONTINUOUS
10
5.85071
20
-3.05196
11
5.84952
21
-3.05483
0
LINE
8
BLACK
6
CONTINUOUS
10
5.84952
20
-3.05483
11
5.8478
21
-3.05741
0
LINE
8
BLACK
6
CONTINUOUS
10
5.8478
20
-3.05741
11
5.84561
21
-3.0596
0
LINE
8
BLACK
6
CONTINUOUS
10
5.84561
20
-3.0596
11
5.84303
21
-3.06133
0
LINE
8
BLACK
6
CONTINUOUS
10
5.84303
20
-3.06133
11
5.84016
21
-3.06251
0
LINE
8
BLACK
6
CONTINUOUS
10
5.84016
20
-3.06251
11
5.83712
21
-3.06312
0
LINE
8
BLACK
6
CONTINUOUS
10
5.83712
20
-3.06312
11
5.83402
21
-3.06312
0
LINE
8
BLACK
6
CONTINUOUS
10
5.83402
20
-3.06312
11
5.83097
21
-3.06251
0
LINE
8
BLACK
6
CONTINUOUS
10
5.83097
20
-3.06251
11
5.82811
21
-3.06133
0
LINE
8
BLACK
6
CONTINUOUS
10
5.82811
20
-3.06133
11
5.82553
21
-3.0596
0
LINE
8
BLACK
6
CONTINUOUS
10
5.82553
20
-3.0596
11
5.82334
21
-3.05741
0
LINE
8
BLACK
6
CONTINUOUS
10
5.82334
20
-3.05741
11
5.82161
21
-3.05483
0
LINE
8
BLACK
6
CONTINUOUS
10
5.82161
20
-3.05483
11
5.82042
21
-3.05196
0
LINE
8
BLACK
6
CONTINUOUS
10
5.82042
20
-3.05196
11
5.81982
21
-3.04892
0
LINE
8
BLACK
6
CONTINUOUS
10
5.81982
20
-3.04892
11
5.81982
21
-3.04582
0
LINE
8
BLACK
6
CONTINUOUS
10
5.81982
20
-3.04582
11
5.82042
21
-3.04278
0
LINE
8
BLACK
6
CONTINUOUS
10
5.82042
20
-3.04278
11
5.82161
21
-3.03991
0
LINE
8
BLACK
6
CONTINUOUS
10
5.82161
20
-3.03991
11
5.82334
21
-3.03733
0
LINE
8
BLACK
6
CONTINUOUS
10
5.82334
20
-3.03733
11
5.82553
21
-3.03514
0
LINE
8
BLACK
6
CONTINUOUS
10
5.82553
20
-3.03514
11
5.82811
21
-3.03341
0
LINE
8
BLACK
6
CONTINUOUS
10
5.82811
20
-3.03341
11
5.83097
21
-3.03223
0
LINE
8
BLACK
6
CONTINUOUS
10
5.83097
20
-3.03223
11
5.83402
21
-3.03162
0
LINE
8
BLACK
6
CONTINUOUS
10
5.83402
20
-3.03162
11
5.83712
21
-3.03162
0
LINE
8
BLACK
6
CONTINUOUS
10
5.83712
20
-3.03162
11
5.84016
21
-3.03223
0
LINE
8
BLACK
6
CONTINUOUS
10
5.71063
20
-3.02357
11
5.7135
21
-3.02475
0
LINE
8
BLACK
6
CONTINUOUS
10
5.7135
20
-3.02475
11
5.71608
21
-3.02648
0
LINE
8
BLACK
6
CONTINUOUS
10
5.71608
20
-3.02648
11
5.71827
21
-3.02867
0
LINE
8
BLACK
6
CONTINUOUS
10
5.71827
20
-3.02867
11
5.72
21
-3.03125
0
LINE
8
BLACK
6
CONTINUOUS
10
5.72
20
-3.03125
11
5.72118
21
-3.03412
0
LINE
8
BLACK
6
CONTINUOUS
10
5.72118
20
-3.03412
11
5.72179
21
-3.03716
0
LINE
8
BLACK
6
CONTINUOUS
10
5.72179
20
-3.03716
11
5.72179
21
-3.04026
0
LINE
8
BLACK
6
CONTINUOUS
10
5.72179
20
-3.04026
11
5.72118
21
-3.0433
0
LINE
8
BLACK
6
CONTINUOUS
10
5.72118
20
-3.0433
11
5.72
21
-3.04617
0
LINE
8
BLACK
6
CONTINUOUS
10
5.72
20
-3.04617
11
5.71827
21
-3.04875
0
LINE
8
BLACK
6
CONTINUOUS
10
5.71827
20
-3.04875
11
5.71608
21
-3.05094
0
LINE
8
BLACK
6
CONTINUOUS
10
5.71608
20
-3.05094
11
5.7135
21
-3.05266
0
LINE
8
BLACK
6
CONTINUOUS
10
5.7135
20
-3.05266
11
5.71063
21
-3.05385
0
LINE
8
BLACK
6
CONTINUOUS
10
5.71063
20
-3.05385
11
5.70759
21
-3.05446
0
LINE
8
BLACK
6
CONTINUOUS
10
5.70759
20
-3.05446
11
5.70449
21
-3.05446
0
LINE
8
BLACK
6
CONTINUOUS
10
5.70449
20
-3.05446
11
5.70145
21
-3.05385
0
LINE
8
BLACK
6
CONTINUOUS
10
5.70145
20
-3.05385
11
5.69858
21
-3.05266
0
LINE
8
BLACK
6
CONTINUOUS
10
5.69858
20
-3.05266
11
5.696
21
-3.05094
0
LINE
8
BLACK
6
CONTINUOUS
10
5.696
20
-3.05094
11
5.69381
21
-3.04875
0
LINE
8
BLACK
6
CONTINUOUS
10
5.69381
20
-3.04875
11
5.69208
21
-3.04617
0
LINE
8
BLACK
6
CONTINUOUS
10
5.69208
20
-3.04617
11
5.6909
21
-3.0433
0
LINE
8
BLACK
6
CONTINUOUS
10
5.6909
20
-3.0433
11
5.69029
21
-3.04026
0
LINE
8
BLACK
6
CONTINUOUS
10
5.69029
20
-3.04026
11
5.69029
21
-3.03716
0
LINE
8
BLACK
6
CONTINUOUS
10
5.69029
20
-3.03716
11
5.6909
21
-3.03412
0
LINE
8
BLACK
6
CONTINUOUS
10
5.6909
20
-3.03412
11
5.69208
21
-3.03125
0
LINE
8
BLACK
6
CONTINUOUS
10
5.69208
20
-3.03125
11
5.69381
21
-3.02867
0
LINE
8
BLACK
6
CONTINUOUS
10
5.69381
20
-3.02867
11
5.696
21
-3.02648
0
LINE
8
BLACK
6
CONTINUOUS
10
5.696
20
-3.02648
11
5.69858
21
-3.02475
0
LINE
8
BLACK
6
CONTINUOUS
10
5.69858
20
-3.02475
11
5.70145
21
-3.02357
0
LINE
8
BLACK
6
CONTINUOUS
10
5.70145
20
-3.02357
11
5.70449
21
-3.02296
0
LINE
8
BLACK
6
CONTINUOUS
10
5.70449
20
-3.02296
11
5.70759
21
-3.02296
0
LINE
8
BLACK
6
CONTINUOUS
10
5.70759
20
-3.02296
11
5.71063
21
-3.02357
0
LINE
8
BLACK
6
CONTINUOUS
10
5.26055
20
-2.84575
11
5.26779
21
-2.84875
0
LINE
8
BLACK
6
CONTINUOUS
10
5.26779
20
-2.84875
11
5.2743
21
-2.8531
0
LINE
8
BLACK
6
CONTINUOUS
10
5.2743
20
-2.8531
11
5.27984
21
-2.85864
0
LINE
8
BLACK
6
CONTINUOUS
10
5.27984
20
-2.85864
11
5.28419
21
-2.86515
0
LINE
8
BLACK
6
CONTINUOUS
10
5.28419
20
-2.86515
11
5.28719
21
-2.87239
0
LINE
8
BLACK
6
CONTINUOUS
10
5.28719
20
-2.87239
11
5.28872
21
-2.88007
0
LINE
8
BLACK
6
CONTINUOUS
10
5.28872
20
-2.88007
11
5.28872
21
-2.8879
0
LINE
8
BLACK
6
CONTINUOUS
10
5.28872
20
-2.8879
11
5.28719
21
-2.89558
0
LINE
8
BLACK
6
CONTINUOUS
10
5.28719
20
-2.89558
11
5.28419
21
-2.90282
0
LINE
8
BLACK
6
CONTINUOUS
10
5.28419
20
-2.90282
11
5.27984
21
-2.90933
0
LINE
8
BLACK
6
CONTINUOUS
10
5.27984
20
-2.90933
11
5.2743
21
-2.91487
0
LINE
8
BLACK
6
CONTINUOUS
10
5.2743
20
-2.91487
11
5.26779
21
-2.91922
0
LINE
8
BLACK
6
CONTINUOUS
10
5.26779
20
-2.91922
11
5.26055
21
-2.92222
0
LINE
8
BLACK
6
CONTINUOUS
10
5.26055
20
-2.92222
11
5.25287
21
-2.92375
0
LINE
8
BLACK
6
CONTINUOUS
10
5.25287
20
-2.92375
11
5.24504
21
-2.92375
0
LINE
8
BLACK
6
CONTINUOUS
10
5.24504
20
-2.92375
11
5.23735
21
-2.92222
0
LINE
8
BLACK
6
CONTINUOUS
10
5.23735
20
-2.92222
11
5.23012
21
-2.91922
0
LINE
8
BLACK
6
CONTINUOUS
10
5.23012
20
-2.91922
11
5.22361
21
-2.91487
0
LINE
8
BLACK
6
CONTINUOUS
10
5.22361
20
-2.91487
11
5.21807
21
-2.90933
0
LINE
8
BLACK
6
CONTINUOUS
10
5.21807
20
-2.90933
11
5.21371
21
-2.90282
0
LINE
8
BLACK
6
CONTINUOUS
10
5.21371
20
-2.90282
11
5.21072
21
-2.89558
0
LINE
8
BLACK
6
CONTINUOUS
10
5.21072
20
-2.89558
11
5.20919
21
-2.8879
0
LINE
8
BLACK
6
CONTINUOUS
10
5.20919
20
-2.8879
11
5.20919
21
-2.88007
0
LINE
8
BLACK
6
CONTINUOUS
10
5.20919
20
-2.88007
11
5.21072
21
-2.87239
0
LINE
8
BLACK
6
CONTINUOUS
10
5.21072
20
-2.87239
11
5.21371
21
-2.86515
0
LINE
8
BLACK
6
CONTINUOUS
10
5.21371
20
-2.86515
11
5.21807
21
-2.85864
0
LINE
8
BLACK
6
CONTINUOUS
10
5.21807
20
-2.85864
11
5.22361
21
-2.8531
0
LINE
8
BLACK
6
CONTINUOUS
10
5.22361
20
-2.8531
11
5.23012
21
-2.84875
0
LINE
8
BLACK
6
CONTINUOUS
10
5.23012
20
-2.84875
11
5.23735
21
-2.84575
0
LINE
8
BLACK
6
CONTINUOUS
10
5.23735
20
-2.84575
11
5.24504
21
-2.84422
0
LINE
8
BLACK
6
CONTINUOUS
10
5.24504
20
-2.84422
11
5.25287
21
-2.84422
0
LINE
8
BLACK
6
CONTINUOUS
10
5.25287
20
-2.84422
11
5.26055
21
-2.84575
0
LINE
8
BLACK
6
CONTINUOUS
10
5.52363
20
-2.78065
11
5.52649
21
-2.78184
0
LINE
8
BLACK
6
CONTINUOUS
10
5.52649
20
-2.78184
11
5.52907
21
-2.78356
0
LINE
8
BLACK
6
CONTINUOUS
10
5.52907
20
-2.78356
11
5.53126
21
-2.78576
0
LINE
8
BLACK
6
CONTINUOUS
10
5.53126
20
-2.78576
11
5.53299
21
-2.78834
0
LINE
8
BLACK
6
CONTINUOUS
10
5.53299
20
-2.78834
11
5.53417
21
-2.7912
0
LINE
8
BLACK
6
CONTINUOUS
10
5.53417
20
-2.7912
11
5.53478
21
-2.79424
0
LINE
8
BLACK
6
CONTINUOUS
10
5.53478
20
-2.79424
11
5.53478
21
-2.79735
0
LINE
8
BLACK
6
CONTINUOUS
10
5.53478
20
-2.79735
11
5.53417
21
-2.80039
0
LINE
8
BLACK
6
CONTINUOUS
10
5.53417
20
-2.80039
11
5.53299
21
-2.80325
0
LINE
8
BLACK
6
CONTINUOUS
10
5.53299
20
-2.80325
11
5.53126
21
-2.80583
0
LINE
8
BLACK
6
CONTINUOUS
10
5.53126
20
-2.80583
11
5.52907
21
-2.80803
0
LINE
8
BLACK
6
CONTINUOUS
10
5.52907
20
-2.80803
11
5.52649
21
-2.80975
0
LINE
8
BLACK
6
CONTINUOUS
10
5.52649
20
-2.80975
11
5.52363
21
-2.81094
0
LINE
8
BLACK
6
CONTINUOUS
10
5.52363
20
-2.81094
11
5.52058
21
-2.81154
0
LINE
8
BLACK
6
CONTINUOUS
10
5.52058
20
-2.81154
11
5.51748
21
-2.81154
0
LINE
8
BLACK
6
CONTINUOUS
10
5.51748
20
-2.81154
11
5.51444
21
-2.81094
0
LINE
8
BLACK
6
CONTINUOUS
10
5.51444
20
-2.81094
11
5.51157
21
-2.80975
0
LINE
8
BLACK
6
CONTINUOUS
10
5.51157
20
-2.80975
11
5.50899
21
-2.80803
0
LINE
8
BLACK
6
CONTINUOUS
10
5.50899
20
-2.80803
11
5.5068
21
-2.80583
0
LINE
8
BLACK
6
CONTINUOUS
10
5.5068
20
-2.80583
11
5.50508
21
-2.80325
0
LINE
8
BLACK
6
CONTINUOUS
10
5.50508
20
-2.80325
11
5.50389
21
-2.80039
0
LINE
8
BLACK
6
CONTINUOUS
10
5.50389
20
-2.80039
11
5.50328
21
-2.79735
0
LINE
8
BLACK
6
CONTINUOUS
10
5.50328
20
-2.79735
11
5.50328
21
-2.79424
0
LINE
8
BLACK
6
CONTINUOUS
10
5.50328
20
-2.79424
11
5.50389
21
-2.7912
0
LINE
8
BLACK
6
CONTINUOUS
10
5.50389
20
-2.7912
11
5.50508
21
-2.78834
0
LINE
8
BLACK
6
CONTINUOUS
10
5.50508
20
-2.78834
11
5.5068
21
-2.78576
0
LINE
8
BLACK
6
CONTINUOUS
10
5.5068
20
-2.78576
11
5.50899
21
-2.78356
0
LINE
8
BLACK
6
CONTINUOUS
10
5.50899
20
-2.78356
11
5.51157
21
-2.78184
0
LINE
8
BLACK
6
CONTINUOUS
10
5.51157
20
-2.78184
11
5.51444
21
-2.78065
0
LINE
8
BLACK
6
CONTINUOUS
10
5.51444
20
-2.78065
11
5.51748
21
-2.78005
0
LINE
8
BLACK
6
CONTINUOUS
10
5.51748
20
-2.78005
11
5.52058
21
-2.78005
0
LINE
8
BLACK
6
CONTINUOUS
10
5.52058
20
-2.78005
11
5.52363
21
-2.78065
0
CIRCLE
8
BLACK
10
5.40801
20
-2.75288
40
0.00787402
0
CIRCLE
8
BLACK
10
5.34659
20
-2.7891
40
0.00787402
0
CIRCLE
8
BLACK
10
5.18399
20
-3.12729
40
0.00787402
0
CIRCLE
8
BLACK
10
5.18399
20
-3.02454
40
0.00787402
0
CIRCLE
8
BLACK
10
5.18399
20
-3.21351
40
0.00787402
0
CIRCLE
8
BLACK
10
5.34384
20
-2.90721
40
0.00787402
0
CIRCLE
8
BLACK
10
5.18399
20
-2.92375
40
0.00787402
0
CIRCLE
8
BLACK
10
5.18399
20
-2.84146
40
0.00787402
0
CIRCLE
8
BLACK
10
5.79612
20
-3.48091
40
0.00590551
0
CIRCLE
8
BLACK
10
5.55407
20
-3.59107
40
0.00590551
0
CIRCLE
8
BLACK
10
5.7025
20
-3.60052
40
0.00590551
0
CIRCLE
8
BLACK
10
5.7025
20
-3.57296
40
0.00590551
0
CIRCLE
8
BLACK
10
5.66628
20
-3.54296
40
0.00590551
0
CIRCLE
8
BLACK
10
5.51661
20
-3.54296
40
0.00590551
0
CIRCLE
8
BLACK
10
5.54628
20
-3.54296
40
0.00590551
0
CIRCLE
8
BLACK
10
5.66628
20
-3.56587
40
0.00590551
0
CIRCLE
8
BLACK
10
5.70368
20
-3.54265
40
0.00590551
0
CIRCLE
8
BLACK
10
5.54659
20
-3.56587
40
0.00590551
0
CIRCLE
8
BLACK
10
5.7558
20
-3.49973
40
0.00590551
0
CIRCLE
8
BLACK
10
5.7558
20
-3.44973
40
0.00590551
0
CIRCLE
8
BLACK
10
5.4658
20
-3.44973
40
0.00590551
0
CIRCLE
8
BLACK
10
5.4658
20
-3.49973
40
0.00590551
0
CIRCLE
8
BLACK
10
5.4158
20
-3.47973
40
0.00590551
0
CIRCLE
8
BLACK
10
5.55171
20
-3.41879
40
0.00590551
0
CIRCLE
8
BLACK
10
5.58171
20
-3.41879
40
0.00590551
0
CIRCLE
8
BLACK
10
5.63171
20
-3.41879
40
0.00590551
0
CIRCLE
8
BLACK
10
5.67171
20
-3.41879
40
0.00590551
0
CIRCLE
8
BLACK
10
5.70013
20
-3.39847
40
0.00590551
0
CIRCLE
8
BLACK
10
5.73013
20
-3.39847
40
0.00590551
0
CIRCLE
8
BLACK
10
5.50013
20
-3.39847
40
0.00590551
0
CIRCLE
8
BLACK
10
5.53013
20
-3.39847
40
0.00590551
0
CIRCLE
8
BLACK
10
5.96601
20
-3.72973
40
0.00590551
0
CIRCLE
8
BLACK
10
6.04331
20
-3.72973
40
0.00590551
0
CIRCLE
8
BLACK
10
5.88871
20
-3.72973
40
0.00590551
0
CIRCLE
8
BLACK
10
5.96601
20
-3.53973
40
0.00590551
0
CIRCLE
8
BLACK
10
6.04331
20
-3.53973
40
0.00590551
0
CIRCLE
8
BLACK
10
5.88871
20
-3.53973
40
0.00590551
0
CIRCLE
8
BLACK
10
5.24726
20
-3.72973
40
0.00590551
0
CIRCLE
8
BLACK
10
5.17232
20
-3.72973
40
0.00590551
0
CIRCLE
8
BLACK
10
5.32221
20
-3.72973
40
0.00590551
0
CIRCLE
8
BLACK
10
5.24726
20
-3.53973
40
0.00590551
0
CIRCLE
8
BLACK
10
5.17232
20
-3.53973
40
0.00590551
0
CIRCLE
8
BLACK
10
5.32221
20
-3.53973
40
0.00590551
0
CIRCLE
8
BLACK
10
5.5158
20
-3.51973
40
0.00590551
0
CIRCLE
8
BLACK
10
5.70407
20
-3.51973
40
0.00590551
0
CIRCLE
8
BLACK
10
5.69546
20
-3.72973
40
0.00590551
0
CIRCLE
8
BLACK
10
5.5084
20
-3.73005
40
0.00590551
0
CIRCLE
8
BLACK
10
5.6058
20
-3.75973
40
0.00590551
0
CIRCLE
8
BLACK
10
5.5458
20
-3.75973
40
0.00590551
0
CIRCLE
8
BLACK
10
5.57546
20
-3.76052
40
0.00590551
0
CIRCLE
8
BLACK
10
5.6358
20
-3.75973
40
0.00590551
0
CIRCLE
8
BLACK
10
5.6658
20
-3.75973
40
0.00590551
0
CIRCLE
8
BLACK
10
5.6658
20
-3.72973
40
0.00590551
0
CIRCLE
8
BLACK
10
5.5458
20
-3.70682
40
0.00590551
0
CIRCLE
8
BLACK
10
5.60643
20
-3.63674
40
0.00590551
0
CIRCLE
8
BLACK
10
5.5858
20
-3.64973
40
0.00590551
0
CIRCLE
8
BLACK
10
5.6258
20
-3.64973
40
0.00590551
0
CIRCLE
8
BLACK
10
5.6258
20
-3.61973
40
0.00590551
0
CIRCLE
8
BLACK
10
5.5858
20
-3.61973
40
0.00590551
0
CIRCLE
8
BLACK
10
5.65525
20
-3.68241
40
0.00590551
0
CIRCLE
8
BLACK
10
5.6358
20
-3.72973
40
0.00590551
0
CIRCLE
8
BLACK
10
5.6058
20
-3.72973
40
0.00590551
0
CIRCLE
8
BLACK
10
5.57546
20
-3.73052
40
0.00590551
0
CIRCLE
8
BLACK
10
5.5458
20
-3.72973
40
0.00590551
0
CIRCLE
8
BLACK
10
5.5558
20
-3.68398
40
0.00590551
0
CIRCLE
8
BLACK
10
5.66549
20
-3.70682
40
0.00590551
0
CIRCLE
8
BLACK
10
5.20979
20
-3.69973
40
0.00590551
0
CIRCLE
8
BLACK
10
5.24726
20
-3.69973
40
0.00590551
0
CIRCLE
8
BLACK
10
5.28474
20
-3.69973
40
0.00590551
0
CIRCLE
8
BLACK
10
5.32221
20
-3.69973
40
0.00590551
0
CIRCLE
8
BLACK
10
5.35969
20
-3.69973
40
0.00590551
0
CIRCLE
8
BLACK
10
5.39716
20
-3.69973
40
0.00590551
0
CIRCLE
8
BLACK
10
5.43463
20
-3.69973
40
0.00590551
0
CIRCLE
8
BLACK
10
5.47211
20
-3.69973
40
0.00590551
0
CIRCLE
8
BLACK
10
5.17232
20
-3.69973
40
0.00590551
0
CIRCLE
8
BLACK
10
5.50958
20
-3.69973
40
0.00590551
0
CIRCLE
8
BLACK
10
5.47211
20
-3.57375
40
0.00590551
0
CIRCLE
8
BLACK
10
5.43463
20
-3.57375
40
0.00590551
0
CIRCLE
8
BLACK
10
5.39716
20
-3.57375
40
0.00590551
0
CIRCLE
8
BLACK
10
5.35969
20
-3.57375
40
0.00590551
0
CIRCLE
8
BLACK
10
5.32221
20
-3.57375
40
0.00590551
0
CIRCLE
8
BLACK
10
5.28474
20
-3.57375
40
0.00590551
0
CIRCLE
8
BLACK
10
5.24726
20
-3.57375
40
0.00590551
0
CIRCLE
8
BLACK
10
5.20979
20
-3.57375
40
0.00590551
0
CIRCLE
8
BLACK
10
5.50958
20
-3.57375
40
0.00590551
0
CIRCLE
8
BLACK
10
5.17232
20
-3.57375
40
0.00590551
0
CIRCLE
8
BLACK
10
5.73411
20
-3.69973
40
0.00590551
0
CIRCLE
8
BLACK
10
5.77276
20
-3.69973
40
0.00590551
0
CIRCLE
8
BLACK
10
5.81141
20
-3.69973
40
0.00590551
0
CIRCLE
8
BLACK
10
5.85006
20
-3.69973
40
0.00590551
0
CIRCLE
8
BLACK
10
5.88871
20
-3.69973
40
0.00590551
0
CIRCLE
8
BLACK
10
5.92736
20
-3.69973
40
0.00590551
0
CIRCLE
8
BLACK
10
5.96601
20
-3.69973
40
0.00590551
0
CIRCLE
8
BLACK
10
6.00466
20
-3.69973
40
0.00590551
0
CIRCLE
8
BLACK
10
5.6998
20
-3.70052
40
0.00590551
0
CIRCLE
8
BLACK
10
6.04331
20
-3.69973
40
0.00590551
0
CIRCLE
8
BLACK
10
6.00466
20
-3.57375
40
0.00590551
0
CIRCLE
8
BLACK
10
5.96601
20
-3.57375
40
0.00590551
0
CIRCLE
8
BLACK
10
5.92736
20
-3.57375
40
0.00590551
0
CIRCLE
8
BLACK
10
5.88871
20
-3.57375
40
0.00590551
0
CIRCLE
8
BLACK
10
5.85006
20
-3.57375
40
0.00590551
0
CIRCLE
8
BLACK
10
5.81141
20
-3.57375
40
0.00590551
0
CIRCLE
8
BLACK
10
5.77276
20
-3.57375
40
0.00590551
0
CIRCLE
8
BLACK
10
5.73411
20
-3.57375
40
0.00590551
0
CIRCLE
8
BLACK
10
6.04331
20
-3.57375
40
0.00590551
0
CIRCLE
8
BLACK
10
5.20979
20
-3.67217
40
0.00590551
0
CIRCLE
8
BLACK
10
5.24726
20
-3.67217
40
0.00590551
0
CIRCLE
8
BLACK
10
5.28474
20
-3.67217
40
0.00590551
0
CIRCLE
8
BLACK
10
5.32221
20
-3.67217
40
0.00590551
0
CIRCLE
8
BLACK
10
5.35969
20
-3.67217
40
0.00590551
0
CIRCLE
8
BLACK
10
5.39716
20
-3.67217
40
0.00590551
0
CIRCLE
8
BLACK
10
5.43463
20
-3.67217
40
0.00590551
0
CIRCLE
8
BLACK
10
5.47211
20
-3.67217
40
0.00590551
0
CIRCLE
8
BLACK
10
5.17232
20
-3.67217
40
0.00590551
0
CIRCLE
8
BLACK
10
5.47211
20
-3.60131
40
0.00590551
0
CIRCLE
8
BLACK
10
5.43463
20
-3.60131
40
0.00590551
0
CIRCLE
8
BLACK
10
5.39716
20
-3.60131
40
0.00590551
0
CIRCLE
8
BLACK
10
5.35969
20
-3.60131
40
0.00590551
0
CIRCLE
8
BLACK
10
5.32221
20
-3.60131
40
0.00590551
0
CIRCLE
8
BLACK
10
5.28474
20
-3.60131
40
0.00590551
0
CIRCLE
8
BLACK
10
5.24726
20
-3.60131
40
0.00590551
0
CIRCLE
8
BLACK
10
5.20979
20
-3.60131
40
0.00590551
0
CIRCLE
8
BLACK
10
5.50958
20
-3.60131
40
0.00590551
0
CIRCLE
8
BLACK
10
5.17232
20
-3.60131
40
0.00590551
0
CIRCLE
8
BLACK
10
5.73411
20
-3.67217
40
0.00590551
0
CIRCLE
8
BLACK
10
5.77276
20
-3.67217
40
0.00590551
0
CIRCLE
8
BLACK
10
5.81141
20
-3.67217
40
0.00590551
0
CIRCLE
8
BLACK
10
5.85006
20
-3.67217
40
0.00590551
0
CIRCLE
8
BLACK
10
5.88871
20
-3.67217
40
0.00590551
0
CIRCLE
8
BLACK
10
5.92736
20
-3.67217
40
0.00590551
0
CIRCLE
8
BLACK
10
5.96601
20
-3.67217
40
0.00590551
0
CIRCLE
8
BLACK
10
6.00466
20
-3.67217
40
0.00590551
0
CIRCLE
8
BLACK
10
5.6998
20
-3.67296
40
0.00590551
0
CIRCLE
8
BLACK
10
5.50958
20
-3.67217
40
0.00590551
0
CIRCLE
8
BLACK
10
6.04331
20
-3.67217
40
0.00590551
0
CIRCLE
8
BLACK
10
6.00466
20
-3.60131
40
0.00590551
0
CIRCLE
8
BLACK
10
5.96601
20
-3.60131
40
0.00590551
0
CIRCLE
8
BLACK
10
5.92736
20
-3.60131
40
0.00590551
0
CIRCLE
8
BLACK
10
5.88871
20
-3.60131
40
0.00590551
0
CIRCLE
8
BLACK
10
5.85006
20
-3.60131
40
0.00590551
0
CIRCLE
8
BLACK
10
5.81141
20
-3.60131
40
0.00590551
0
CIRCLE
8
BLACK
10
5.77276
20
-3.60131
40
0.00590551
0
CIRCLE
8
BLACK
10
5.73411
20
-3.60131
40
0.00590551
0
CIRCLE
8
BLACK
10
6.04331
20
-3.60131
40
0.00590551
0
CIRCLE
8
BLACK
10
5.29864
20
-2.54461
40
0.00590551
0
CIRCLE
8
BLACK
10
5.33137
20
-2.54461
40
0.00590551
0
CIRCLE
8
BLACK
10
5.3641
20
-2.54461
40
0.00590551
0
CIRCLE
8
BLACK
10
5.39683
20
-2.54461
40
0.00590551
0
CIRCLE
8
BLACK
10
5.42957
20
-2.54461
40
0.00590551
0
CIRCLE
8
BLACK
10
5.4623
20
-2.54461
40
0.00590551
0
CIRCLE
8
BLACK
10
5.49503
20
-2.54461
40
0.00590551
0
CIRCLE
8
BLACK
10
5.52776
20
-2.54461
40
0.00590551
0
CIRCLE
8
BLACK
10
5.5605
20
-2.54461
40
0.00590551
0
CIRCLE
8
BLACK
10
5.59323
20
-2.54461
40
0.00590551
0
CIRCLE
8
BLACK
10
5.62596
20
-2.54461
40
0.00590551
0
CIRCLE
8
BLACK
10
5.65869
20
-2.54461
40
0.00590551
0
CIRCLE
8
BLACK
10
5.69143
20
-2.54461
40
0.00590551
0
CIRCLE
8
BLACK
10
5.72416
20
-2.54461
40
0.00590551
0
CIRCLE
8
BLACK
10
5.75689
20
-2.54461
40
0.00590551
0
CIRCLE
8
BLACK
10
5.78962
20
-2.54461
40
0.00590551
0
CIRCLE
8
BLACK
10
5.82235
20
-2.54461
40
0.00590551
0
CIRCLE
8
BLACK
10
5.85509
20
-2.54461
40
0.00590551
0
CIRCLE
8
BLACK
10
5.88782
20
-2.54461
40
0.00590551
0
CIRCLE
8
BLACK
10
5.92055
20
-2.54461
40
0.00590551
0
CIRCLE
8
BLACK
10
5.26591
20
-2.54461
40
0.00590551
0
CIRCLE
8
BLACK
10
5.95328
20
-2.54461
40
0.00590551
0
CIRCLE
8
BLACK
10
5.92055
20
-2.41862
40
0.00590551
0
CIRCLE
8
BLACK
10
5.88782
20
-2.41862
40
0.00590551
0
CIRCLE
8
BLACK
10
5.85509
20
-2.41862
40
0.00590551
0
CIRCLE
8
BLACK
10
5.82235
20
-2.41862
40
0.00590551
0
CIRCLE
8
BLACK
10
5.78962
20
-2.41862
40
0.00590551
0
CIRCLE
8
BLACK
10
5.75689
20
-2.41862
40
0.00590551
0
CIRCLE
8
BLACK
10
5.72416
20
-2.41862
40
0.00590551
0
CIRCLE
8
BLACK
10
5.69143
20
-2.41862
40
0.00590551
0
CIRCLE
8
BLACK
10
5.65869
20
-2.41862
40
0.00590551
0
CIRCLE
8
BLACK
10
5.62596
20
-2.41862
40
0.00590551
0
CIRCLE
8
BLACK
10
5.59323
20
-2.41862
40
0.00590551
0
CIRCLE
8
BLACK
10
5.5605
20
-2.41862
40
0.00590551
0
CIRCLE
8
BLACK
10
5.52776
20
-2.41862
40
0.00590551
0
CIRCLE
8
BLACK
10
5.49503
20
-2.41862
40
0.00590551
0
CIRCLE
8
BLACK
10
5.4623
20
-2.41862
40
0.00590551
0
CIRCLE
8
BLACK
10
5.42957
20
-2.41862
40
0.00590551
0
CIRCLE
8
BLACK
10
5.39683
20
-2.41862
40
0.00590551
0
CIRCLE
8
BLACK
10
5.3641
20
-2.41862
40
0.00590551
0
CIRCLE
8
BLACK
10
5.33137
20
-2.41862
40
0.00590551
0
CIRCLE
8
BLACK
10
5.29864
20
-2.41862
40
0.00590551
0
CIRCLE
8
BLACK
10
5.95328
20
-2.41862
40
0.00590551
0
CIRCLE
8
BLACK
10
5.26591
20
-2.41862
40
0.00590551
0
CIRCLE
8
BLACK
10
5.29864
20
-2.51705
40
0.00590551
0
CIRCLE
8
BLACK
10
5.33137
20
-2.51705
40
0.00590551
0
CIRCLE
8
BLACK
10
5.3641
20
-2.51705
40
0.00590551
0
CIRCLE
8
BLACK
10
5.39683
20
-2.51705
40
0.00590551
0
CIRCLE
8
BLACK
10
5.42957
20
-2.51705
40
0.00590551
0
CIRCLE
8
BLACK
10
5.4623
20
-2.51705
40
0.00590551
0
CIRCLE
8
BLACK
10
5.49503
20
-2.51705
40
0.00590551
0
CIRCLE
8
BLACK
10
5.52776
20
-2.51705
40
0.00590551
0
CIRCLE
8
BLACK
10
5.5605
20
-2.51705
40
0.00590551
0
CIRCLE
8
BLACK
10
5.59323
20
-2.51705
40
0.00590551
0
CIRCLE
8
BLACK
10
5.62596
20
-2.51705
40
0.00590551
0
CIRCLE
8
BLACK
10
5.65869
20
-2.51705
40
0.00590551
0
CIRCLE
8
BLACK
10
5.69143
20
-2.51705
40
0.00590551
0
CIRCLE
8
BLACK
10
5.72416
20
-2.51705
40
0.00590551
0
CIRCLE
8
BLACK
10
5.75689
20
-2.51705
40
0.00590551
0
CIRCLE
8
BLACK
10
5.78962
20
-2.51705
40
0.00590551
0
CIRCLE
8
BLACK
10
5.82235
20
-2.51705
40
0.00590551
0
CIRCLE
8
BLACK
10
5.85509
20
-2.51705
40
0.00590551
0
CIRCLE
8
BLACK
10
5.88782
20
-2.51705
40
0.00590551
0
CIRCLE
8
BLACK
10
5.92055
20
-2.51705
40
0.00590551
0
CIRCLE
8
BLACK
10
5.26591
20
-2.51705
40
0.00590551
0
CIRCLE
8
BLACK
10
5.95328
20
-2.51705
40
0.00590551
0
CIRCLE
8
BLACK
10
5.92055
20
-2.44618
40
0.00590551
0
CIRCLE
8
BLACK
10
5.88782
20
-2.44618
40
0.00590551
0
CIRCLE
8
BLACK
10
5.85509
20
-2.44618
40
0.00590551
0
CIRCLE
8
BLACK
10
5.82235
20
-2.44618
40
0.00590551
0
CIRCLE
8
BLACK
10
5.78962
20
-2.44618
40
0.00590551
0
CIRCLE
8
BLACK
10
5.75689
20
-2.44618
40
0.00590551
0
CIRCLE
8
BLACK
10
5.72416
20
-2.44618
40
0.00590551
0
CIRCLE
8
BLACK
10
5.69143
20
-2.44618
40
0.00590551
0
CIRCLE
8
BLACK
10
5.65869
20
-2.44618
40
0.00590551
0
CIRCLE
8
BLACK
10
5.62596
20
-2.44618
40
0.00590551
0
CIRCLE
8
BLACK
10
5.59323
20
-2.44618
40
0.00590551
0
CIRCLE
8
BLACK
10
5.5605
20
-2.44618
40
0.00590551
0
CIRCLE
8
BLACK
10
5.52776
20
-2.44618
40
0.00590551
0
CIRCLE
8
BLACK
10
5.49503
20
-2.44618
40
0.00590551
0
CIRCLE
8
BLACK
10
5.4623
20
-2.44618
40
0.00590551
0
CIRCLE
8
BLACK
10
5.42957
20
-2.44618
40
0.00590551
0
CIRCLE
8
BLACK
10
5.39683
20
-2.44618
40
0.00590551
0
CIRCLE
8
BLACK
10
5.3641
20
-2.44618
40
0.00590551
0
CIRCLE
8
BLACK
10
5.33137
20
-2.44618
40
0.00590551
0
CIRCLE
8
BLACK
10
5.29864
20
-2.44618
40
0.00590551
0
CIRCLE
8
BLACK
10
5.95328
20
-2.44618
40
0.00590551
0
CIRCLE
8
BLACK
10
5.26591
20
-2.44618
40
0.00590551
0
CIRCLE
8
BLACK
10
5.99029
20
-3.25367
40
0.00787402
0
CIRCLE
8
BLACK
10
5.99029
20
-3.15052
40
0.00787402
0
CIRCLE
8
BLACK
10
5.99029
20
-3.19461
40
0.00787402
0
CIRCLE
8
BLACK
10
5.61706
20
-3.21339
40
0.00787402
0
CIRCLE
8
BLACK
10
5.95053
20
-3.04619
40
0.00787402
0
CIRCLE
8
BLACK
10
5.18399
20
-3.34461
40
0.00787402
0
CIRCLE
8
BLACK
10
5.95446
20
-2.79658
40
0.00787402
0
CIRCLE
8
BLACK
10
6.01037
20
-2.79658
40
0.00787402
0
CIRCLE
8
BLACK
10
6.01037
20
-2.84855
40
0.00787402
0
CIRCLE
8
BLACK
10
5.46706
20
-2.75288
40
0.00787402
0
CIRCLE
8
BLACK
10
5.51903
20
-2.75288
40
0.00787402
0
CIRCLE
8
BLACK
10
5.34541
20
-2.86076
40
0.00787402
0
CIRCLE
8
BLACK
10
5.82572
20
-2.79146
40
0.00787402
0
CIRCLE
8
BLACK
10
5.69344
20
-2.82847
40
0.00787402
0
CIRCLE
8
BLACK
10
5.69336
20
-2.75288
40
0.00787402
0
CIRCLE
8
BLACK
10
5.9399
20
-2.93595
40
0.00787402
0
CIRCLE
8
BLACK
10
6.0158
20
-3.33973
40
0.00787402
0
CIRCLE
8
BLACK
10
5.7658
20
-3.06973
40
0.00590551
0
CIRCLE
8
BLACK
10
5.6958
20
-3.12973
40
0.00590551
0
CIRCLE
8
BLACK
10
5.6958
20
-3.06973
40
0.00590551
0
CIRCLE
8
BLACK
10
5.66864
20
-3.59304
40
0.00590551
0
CIRCLE
8
BLACK
10
5.18399
20
-3.27769
40
0.00787402
0
CIRCLE
8
BLACK
10
5.26037
20
-3.27847
40
0.00787402
0
CIRCLE
8
BLACK
10
5.70604
20
-3.03871
40
0.00787402
0
CIRCLE
8
BLACK
10
5.51903
20
-2.7958
40
0.00787402
0
CIRCLE
8
BLACK
10
5.89698
20
-3.04776
40
0.00787402
0
CIRCLE
8
BLACK
10
5.31116
20
-3.13713
40
0.00787402
0
CIRCLE
8
BLACK
10
5.62203
20
-3.25352
40
0.00590551
0
CIRCLE
8
BLACK
10
5.52179
20
-3.06784
40
0.00787402
0
CIRCLE
8
BLACK
10
5.57376
20
-3.23517
40
0.00787402
0
CIRCLE
8
BLACK
10
5.88084
20
-3.24162
40
0.00590551
0
CIRCLE
8
BLACK
10
5.6703
20
-3.2951
40
0.00787402
0
CIRCLE
8
BLACK
10
5.39974
20
-3.19855
40
0.00590551
0
CIRCLE
8
BLACK
10
5.6458
20
-3.12926
40
0.00590551
0
CIRCLE
8
BLACK
10
5.83557
20
-3.04737
40
0.00787402
0
CIRCLE
8
BLACK
10
5.31746
20
-3.20564
40
0.00787402
0
CIRCLE
8
BLACK
10
5.52769
20
-3.34934
40
0.00590551
0
CIRCLE
8
BLACK
10
5.59069
20
-3.29092
40
0.00590551
  0
ENDSEC
  0
EOF
