%TF.GenerationSoftware,KiCad,Pcbnew,5.1.5-52549c5~84~ubuntu18.04.1*%
%TF.CreationDate,2020-02-12T17:28:15+01:00*%
%TF.ProjectId,HMC_RF_IPE,484d435f-5246-45f4-9950-452e6b696361,rev?*%
%TF.SameCoordinates,Original*%
%TF.FileFunction,Legend,Top*%
%TF.FilePolarity,Positive*%
%FSLAX46Y46*%
G04 Gerber Fmt 4.6, Leading zero omitted, Abs format (unit mm)*
G04 Created by KiCad (PCBNEW 5.1.5-52549c5~84~ubuntu18.04.1) date 2020-02-12 17:28:15*
%MOMM*%
%LPD*%
G04 APERTURE LIST*
%ADD10C,0.125000*%
%ADD11C,0.250000*%
%ADD12C,0.150000*%
%ADD13C,0.120000*%
%ADD14C,0.200000*%
%ADD15C,0.152400*%
%ADD16C,0.100000*%
G04 APERTURE END LIST*
D10*
X139819600Y-96509390D02*
X139819600Y-96009390D01*
X139819600Y-96247485D02*
X140105314Y-96247485D01*
X140105314Y-96509390D02*
X140105314Y-96009390D01*
X140343410Y-96509390D02*
X140343410Y-96009390D01*
X140510076Y-96366533D01*
X140676743Y-96009390D01*
X140676743Y-96509390D01*
X141200552Y-96461771D02*
X141176743Y-96485580D01*
X141105314Y-96509390D01*
X141057695Y-96509390D01*
X140986267Y-96485580D01*
X140938648Y-96437961D01*
X140914838Y-96390342D01*
X140891029Y-96295104D01*
X140891029Y-96223676D01*
X140914838Y-96128438D01*
X140938648Y-96080819D01*
X140986267Y-96033200D01*
X141057695Y-96009390D01*
X141105314Y-96009390D01*
X141176743Y-96033200D01*
X141200552Y-96057009D01*
X141367219Y-96009390D02*
X141676743Y-96009390D01*
X141510076Y-96199866D01*
X141581505Y-96199866D01*
X141629124Y-96223676D01*
X141652933Y-96247485D01*
X141676743Y-96295104D01*
X141676743Y-96414152D01*
X141652933Y-96461771D01*
X141629124Y-96485580D01*
X141581505Y-96509390D01*
X141438648Y-96509390D01*
X141391029Y-96485580D01*
X141367219Y-96461771D01*
X142105314Y-96176057D02*
X142105314Y-96509390D01*
X141986267Y-95985580D02*
X141867219Y-96342723D01*
X142176743Y-96342723D01*
X142581505Y-96009390D02*
X142486267Y-96009390D01*
X142438648Y-96033200D01*
X142414838Y-96057009D01*
X142367219Y-96128438D01*
X142343410Y-96223676D01*
X142343410Y-96414152D01*
X142367219Y-96461771D01*
X142391029Y-96485580D01*
X142438648Y-96509390D01*
X142533886Y-96509390D01*
X142581505Y-96485580D01*
X142605314Y-96461771D01*
X142629124Y-96414152D01*
X142629124Y-96295104D01*
X142605314Y-96247485D01*
X142581505Y-96223676D01*
X142533886Y-96199866D01*
X142438648Y-96199866D01*
X142391029Y-96223676D01*
X142367219Y-96247485D01*
X142343410Y-96295104D01*
X142819600Y-96366533D02*
X143057695Y-96366533D01*
X142771981Y-96509390D02*
X142938648Y-96009390D01*
X143105314Y-96509390D01*
X143510076Y-96509390D02*
X143271981Y-96509390D01*
X143271981Y-96009390D01*
X143676743Y-96509390D02*
X143676743Y-96009390D01*
X143867219Y-96009390D01*
X143914838Y-96033200D01*
X143938648Y-96057009D01*
X143962457Y-96104628D01*
X143962457Y-96176057D01*
X143938648Y-96223676D01*
X143914838Y-96247485D01*
X143867219Y-96271295D01*
X143676743Y-96271295D01*
X144129124Y-96009390D02*
X144438648Y-96009390D01*
X144271981Y-96199866D01*
X144343410Y-96199866D01*
X144391029Y-96223676D01*
X144414838Y-96247485D01*
X144438648Y-96295104D01*
X144438648Y-96414152D01*
X144414838Y-96461771D01*
X144391029Y-96485580D01*
X144343410Y-96509390D01*
X144200552Y-96509390D01*
X144152933Y-96485580D01*
X144129124Y-96461771D01*
X144652933Y-96247485D02*
X144819600Y-96247485D01*
X144891029Y-96509390D02*
X144652933Y-96509390D01*
X144652933Y-96009390D01*
X144891029Y-96009390D01*
D11*
X146068171Y-97755580D02*
X145734838Y-97279390D01*
X145496743Y-97755580D02*
X145496743Y-96755580D01*
X145877695Y-96755580D01*
X145972933Y-96803200D01*
X146020552Y-96850819D01*
X146068171Y-96946057D01*
X146068171Y-97088914D01*
X146020552Y-97184152D01*
X145972933Y-97231771D01*
X145877695Y-97279390D01*
X145496743Y-97279390D01*
X146830076Y-97231771D02*
X146496743Y-97231771D01*
X146496743Y-97755580D02*
X146496743Y-96755580D01*
X146972933Y-96755580D01*
X147877695Y-97755580D02*
X147306267Y-97755580D01*
X147591981Y-97755580D02*
X147591981Y-96755580D01*
X147496743Y-96898438D01*
X147401505Y-96993676D01*
X147306267Y-97041295D01*
X137558171Y-97775580D02*
X137224838Y-97299390D01*
X136986743Y-97775580D02*
X136986743Y-96775580D01*
X137367695Y-96775580D01*
X137462933Y-96823200D01*
X137510552Y-96870819D01*
X137558171Y-96966057D01*
X137558171Y-97108914D01*
X137510552Y-97204152D01*
X137462933Y-97251771D01*
X137367695Y-97299390D01*
X136986743Y-97299390D01*
X138320076Y-97251771D02*
X137986743Y-97251771D01*
X137986743Y-97775580D02*
X137986743Y-96775580D01*
X138462933Y-96775580D01*
X138796267Y-96870819D02*
X138843886Y-96823200D01*
X138939124Y-96775580D01*
X139177219Y-96775580D01*
X139272457Y-96823200D01*
X139320076Y-96870819D01*
X139367695Y-96966057D01*
X139367695Y-97061295D01*
X139320076Y-97204152D01*
X138748648Y-97775580D01*
X139367695Y-97775580D01*
D12*
X159839124Y-81443866D02*
X160505790Y-81443866D01*
X159458171Y-81681961D02*
X160172457Y-81920057D01*
X160172457Y-81301009D01*
X160505790Y-80396247D02*
X160505790Y-80967676D01*
X160505790Y-80681961D02*
X159505790Y-80681961D01*
X159648648Y-80777200D01*
X159743886Y-80872438D01*
X159791505Y-80967676D01*
X160458171Y-79920057D02*
X160505790Y-79920057D01*
X160601029Y-79967676D01*
X160648648Y-80015295D01*
X159934362Y-79348628D02*
X159886743Y-79443866D01*
X159839124Y-79491485D01*
X159743886Y-79539104D01*
X159696267Y-79539104D01*
X159601029Y-79491485D01*
X159553410Y-79443866D01*
X159505790Y-79348628D01*
X159505790Y-79158152D01*
X159553410Y-79062914D01*
X159601029Y-79015295D01*
X159696267Y-78967676D01*
X159743886Y-78967676D01*
X159839124Y-79015295D01*
X159886743Y-79062914D01*
X159934362Y-79158152D01*
X159934362Y-79348628D01*
X159981981Y-79443866D01*
X160029600Y-79491485D01*
X160124838Y-79539104D01*
X160315314Y-79539104D01*
X160410552Y-79491485D01*
X160458171Y-79443866D01*
X160505790Y-79348628D01*
X160505790Y-79158152D01*
X160458171Y-79062914D01*
X160410552Y-79015295D01*
X160315314Y-78967676D01*
X160124838Y-78967676D01*
X160029600Y-79015295D01*
X159981981Y-79062914D01*
X159934362Y-79158152D01*
X159601029Y-78586723D02*
X159553410Y-78539104D01*
X159505790Y-78443866D01*
X159505790Y-78205771D01*
X159553410Y-78110533D01*
X159601029Y-78062914D01*
X159696267Y-78015295D01*
X159791505Y-78015295D01*
X159934362Y-78062914D01*
X160505790Y-78634342D01*
X160505790Y-78015295D01*
X159934362Y-77443866D02*
X159886743Y-77539104D01*
X159839124Y-77586723D01*
X159743886Y-77634342D01*
X159696267Y-77634342D01*
X159601029Y-77586723D01*
X159553410Y-77539104D01*
X159505790Y-77443866D01*
X159505790Y-77253390D01*
X159553410Y-77158152D01*
X159601029Y-77110533D01*
X159696267Y-77062914D01*
X159743886Y-77062914D01*
X159839124Y-77110533D01*
X159886743Y-77158152D01*
X159934362Y-77253390D01*
X159934362Y-77443866D01*
X159981981Y-77539104D01*
X160029600Y-77586723D01*
X160124838Y-77634342D01*
X160315314Y-77634342D01*
X160410552Y-77586723D01*
X160458171Y-77539104D01*
X160505790Y-77443866D01*
X160505790Y-77253390D01*
X160458171Y-77158152D01*
X160410552Y-77110533D01*
X160315314Y-77062914D01*
X160124838Y-77062914D01*
X160029600Y-77110533D01*
X159981981Y-77158152D01*
X159934362Y-77253390D01*
X160505790Y-75872438D02*
X159839124Y-75872438D01*
X159934362Y-75872438D02*
X159886743Y-75824819D01*
X159839124Y-75729580D01*
X159839124Y-75586723D01*
X159886743Y-75491485D01*
X159981981Y-75443866D01*
X160505790Y-75443866D01*
X159981981Y-75443866D02*
X159886743Y-75396247D01*
X159839124Y-75301009D01*
X159839124Y-75158152D01*
X159886743Y-75062914D01*
X159981981Y-75015295D01*
X160505790Y-75015295D01*
X160505790Y-74539104D02*
X159839124Y-74539104D01*
X159934362Y-74539104D02*
X159886743Y-74491485D01*
X159839124Y-74396247D01*
X159839124Y-74253390D01*
X159886743Y-74158152D01*
X159981981Y-74110533D01*
X160505790Y-74110533D01*
X159981981Y-74110533D02*
X159886743Y-74062914D01*
X159839124Y-73967676D01*
X159839124Y-73824819D01*
X159886743Y-73729580D01*
X159981981Y-73681961D01*
X160505790Y-73681961D01*
D13*
X158783410Y-98691200D02*
X158783410Y-56863200D01*
X153891410Y-98691200D02*
X159369831Y-98691200D01*
X153891410Y-56863200D02*
X159369831Y-56863200D01*
X158783410Y-56863200D02*
X159369831Y-57989704D01*
X158783410Y-56863200D02*
X158196989Y-57989704D01*
X158783410Y-98691200D02*
X159369831Y-97564696D01*
X158783410Y-98691200D02*
X158196989Y-97564696D01*
D12*
X138262262Y-102268384D02*
X138309858Y-102220742D01*
X138405074Y-102173078D01*
X138643169Y-102172964D01*
X138738430Y-102220537D01*
X138786072Y-102268133D01*
X138833736Y-102363349D01*
X138833782Y-102458587D01*
X138786231Y-102601467D01*
X138215076Y-103173169D01*
X138834124Y-103172872D01*
X139214643Y-102267928D02*
X139262239Y-102220286D01*
X139357455Y-102172622D01*
X139595550Y-102172508D01*
X139690811Y-102220081D01*
X139738453Y-102267677D01*
X139786117Y-102362893D01*
X139786163Y-102458131D01*
X139738612Y-102601011D01*
X139167457Y-103172713D01*
X139786505Y-103172416D01*
X140262672Y-103124569D02*
X140262695Y-103172188D01*
X140215122Y-103267449D01*
X140167525Y-103315091D01*
X140738886Y-103171960D02*
X140929362Y-103171869D01*
X141024577Y-103124205D01*
X141072173Y-103076563D01*
X141167343Y-102933660D01*
X141214871Y-102743161D01*
X141214688Y-102362209D01*
X141167024Y-102266993D01*
X141119382Y-102219397D01*
X141024121Y-102171824D01*
X140833645Y-102171915D01*
X140738430Y-102219579D01*
X140690833Y-102267221D01*
X140643260Y-102362482D01*
X140643374Y-102600577D01*
X140691039Y-102695793D01*
X140738680Y-102743389D01*
X140833941Y-102790962D01*
X141024417Y-102790871D01*
X141119633Y-102743207D01*
X141167229Y-102695565D01*
X141214802Y-102600304D01*
X141547931Y-102171573D02*
X142214597Y-102171254D01*
X141786505Y-103171459D01*
X143024121Y-102170866D02*
X142833645Y-102170957D01*
X142738429Y-102218622D01*
X142690833Y-102266264D01*
X142595663Y-102409167D01*
X142548136Y-102599666D01*
X142548318Y-102980618D01*
X142595983Y-103075833D01*
X142643624Y-103123429D01*
X142738885Y-103171003D01*
X142929362Y-103170912D01*
X143024577Y-103123247D01*
X143072173Y-103075605D01*
X143119747Y-102980344D01*
X143119633Y-102742249D01*
X143071968Y-102647034D01*
X143024326Y-102599438D01*
X142929065Y-102551864D01*
X142738589Y-102551955D01*
X142643374Y-102599620D01*
X142595777Y-102647262D01*
X142548204Y-102742523D01*
X144310314Y-103170250D02*
X144309995Y-102503584D01*
X144310040Y-102598822D02*
X144357636Y-102551180D01*
X144452852Y-102503515D01*
X144595709Y-102503447D01*
X144690970Y-102551021D01*
X144738634Y-102646236D01*
X144738885Y-103170045D01*
X144738634Y-102646236D02*
X144786208Y-102550975D01*
X144881423Y-102503310D01*
X145024280Y-102503242D01*
X145119541Y-102550815D01*
X145167206Y-102646031D01*
X145167457Y-103169840D01*
X145643647Y-103169612D02*
X145643328Y-102502946D01*
X145643373Y-102598184D02*
X145690970Y-102550542D01*
X145786185Y-102502877D01*
X145929042Y-102502809D01*
X146024303Y-102550382D01*
X146071968Y-102645597D01*
X146072218Y-103169407D01*
X146071968Y-102645597D02*
X146119541Y-102550337D01*
X146214756Y-102502672D01*
X146357613Y-102502604D01*
X146452874Y-102550177D01*
X146500539Y-102645392D01*
X146500790Y-103169202D01*
D13*
X130916728Y-101454282D02*
X153892728Y-101443282D01*
X130915410Y-98702200D02*
X130917008Y-102040702D01*
X153891410Y-98691200D02*
X153893008Y-102029702D01*
X153892728Y-101443282D02*
X152766505Y-102030242D01*
X153892728Y-101443282D02*
X152765944Y-100857401D01*
X130916728Y-101454282D02*
X132043512Y-102040163D01*
X130916728Y-101454282D02*
X132042951Y-100867322D01*
D14*
X132151505Y-71404152D02*
X132151505Y-71023200D01*
X131770552Y-70985104D01*
X131808648Y-71023200D01*
X131846743Y-71099390D01*
X131846743Y-71289866D01*
X131808648Y-71366057D01*
X131770552Y-71404152D01*
X131694362Y-71442247D01*
X131503886Y-71442247D01*
X131427695Y-71404152D01*
X131389600Y-71366057D01*
X131351505Y-71289866D01*
X131351505Y-71099390D01*
X131389600Y-71023200D01*
X131427695Y-70985104D01*
X132151505Y-71670819D02*
X131351505Y-71937485D01*
X132151505Y-72204152D01*
X132113410Y-73499390D02*
X132151505Y-73423200D01*
X132151505Y-73308914D01*
X132113410Y-73194628D01*
X132037219Y-73118438D01*
X131961029Y-73080342D01*
X131808648Y-73042247D01*
X131694362Y-73042247D01*
X131541981Y-73080342D01*
X131465790Y-73118438D01*
X131389600Y-73194628D01*
X131351505Y-73308914D01*
X131351505Y-73385104D01*
X131389600Y-73499390D01*
X131427695Y-73537485D01*
X131694362Y-73537485D01*
X131694362Y-73385104D01*
X131351505Y-73880342D02*
X132151505Y-73880342D01*
X131351505Y-74337485D01*
X132151505Y-74337485D01*
X131351505Y-74718438D02*
X132151505Y-74718438D01*
X132151505Y-74908914D01*
X132113410Y-75023200D01*
X132037219Y-75099390D01*
X131961029Y-75137485D01*
X131808648Y-75175580D01*
X131694362Y-75175580D01*
X131541981Y-75137485D01*
X131465790Y-75099390D01*
X131389600Y-75023200D01*
X131351505Y-74908914D01*
X131351505Y-74718438D01*
X131389600Y-76089866D02*
X131351505Y-76204152D01*
X131351505Y-76394628D01*
X131389600Y-76470819D01*
X131427695Y-76508914D01*
X131503886Y-76547009D01*
X131580076Y-76547009D01*
X131656267Y-76508914D01*
X131694362Y-76470819D01*
X131732457Y-76394628D01*
X131770552Y-76242247D01*
X131808648Y-76166057D01*
X131846743Y-76127961D01*
X131922933Y-76089866D01*
X131999124Y-76089866D01*
X132075314Y-76127961D01*
X132113410Y-76166057D01*
X132151505Y-76242247D01*
X132151505Y-76432723D01*
X132113410Y-76547009D01*
X131351505Y-76889866D02*
X132151505Y-76889866D01*
X132151505Y-77080342D01*
X132113410Y-77194628D01*
X132037219Y-77270819D01*
X131961029Y-77308914D01*
X131808648Y-77347009D01*
X131694362Y-77347009D01*
X131541981Y-77308914D01*
X131465790Y-77270819D01*
X131389600Y-77194628D01*
X131351505Y-77080342D01*
X131351505Y-76889866D01*
X131580076Y-77651771D02*
X131580076Y-78032723D01*
X131351505Y-77575580D02*
X132151505Y-77842247D01*
X131351505Y-78108914D01*
X131389600Y-78947009D02*
X131351505Y-79061295D01*
X131351505Y-79251771D01*
X131389600Y-79327961D01*
X131427695Y-79366057D01*
X131503886Y-79404152D01*
X131580076Y-79404152D01*
X131656267Y-79366057D01*
X131694362Y-79327961D01*
X131732457Y-79251771D01*
X131770552Y-79099390D01*
X131808648Y-79023200D01*
X131846743Y-78985104D01*
X131922933Y-78947009D01*
X131999124Y-78947009D01*
X132075314Y-78985104D01*
X132113410Y-79023200D01*
X132151505Y-79099390D01*
X132151505Y-79289866D01*
X132113410Y-79404152D01*
X131427695Y-80204152D02*
X131389600Y-80166057D01*
X131351505Y-80051771D01*
X131351505Y-79975580D01*
X131389600Y-79861295D01*
X131465790Y-79785104D01*
X131541981Y-79747009D01*
X131694362Y-79708914D01*
X131808648Y-79708914D01*
X131961029Y-79747009D01*
X132037219Y-79785104D01*
X132113410Y-79861295D01*
X132151505Y-79975580D01*
X132151505Y-80051771D01*
X132113410Y-80166057D01*
X132075314Y-80204152D01*
X131351505Y-80927961D02*
X131351505Y-80547009D01*
X132151505Y-80547009D01*
D11*
X138875790Y-58295580D02*
X139447219Y-58295580D01*
X139161505Y-59295580D02*
X139161505Y-58295580D01*
X139780552Y-59295580D02*
X139780552Y-58295580D01*
X139780552Y-58771771D02*
X140351981Y-58771771D01*
X140351981Y-59295580D02*
X140351981Y-58295580D01*
X141399600Y-59295580D02*
X141066267Y-58819390D01*
X140828171Y-59295580D02*
X140828171Y-58295580D01*
X141209124Y-58295580D01*
X141304362Y-58343200D01*
X141351981Y-58390819D01*
X141399600Y-58486057D01*
X141399600Y-58628914D01*
X141351981Y-58724152D01*
X141304362Y-58771771D01*
X141209124Y-58819390D01*
X140828171Y-58819390D01*
X141828171Y-58295580D02*
X141828171Y-59105104D01*
X141875790Y-59200342D01*
X141923410Y-59247961D01*
X142018648Y-59295580D01*
X142209124Y-59295580D01*
X142304362Y-59247961D01*
X142351981Y-59200342D01*
X142399600Y-59105104D01*
X142399600Y-58295580D01*
X144209124Y-59200342D02*
X144161505Y-59247961D01*
X144018648Y-59295580D01*
X143923410Y-59295580D01*
X143780552Y-59247961D01*
X143685314Y-59152723D01*
X143637695Y-59057485D01*
X143590076Y-58867009D01*
X143590076Y-58724152D01*
X143637695Y-58533676D01*
X143685314Y-58438438D01*
X143780552Y-58343200D01*
X143923410Y-58295580D01*
X144018648Y-58295580D01*
X144161505Y-58343200D01*
X144209124Y-58390819D01*
X144590076Y-59009866D02*
X145066267Y-59009866D01*
X144494838Y-59295580D02*
X144828171Y-58295580D01*
X145161505Y-59295580D01*
X145971029Y-59295580D02*
X145494838Y-59295580D01*
X145494838Y-58295580D01*
X139732933Y-67945580D02*
X139732933Y-66945580D01*
X140304362Y-67945580D02*
X139875790Y-67374152D01*
X140304362Y-66945580D02*
X139732933Y-67517009D01*
X140732933Y-67945580D02*
X140732933Y-66945580D01*
X141066267Y-66945580D02*
X141637695Y-66945580D01*
X141351981Y-67945580D02*
X141351981Y-66945580D01*
X141971029Y-67564628D02*
X142732933Y-67564628D01*
X143209124Y-67945580D02*
X143209124Y-66945580D01*
X143685314Y-67945580D02*
X143685314Y-66945580D01*
X144066267Y-66945580D01*
X144161505Y-66993200D01*
X144209124Y-67040819D01*
X144256743Y-67136057D01*
X144256743Y-67278914D01*
X144209124Y-67374152D01*
X144161505Y-67421771D01*
X144066267Y-67469390D01*
X143685314Y-67469390D01*
X144685314Y-67421771D02*
X145018648Y-67421771D01*
X145161505Y-67945580D02*
X144685314Y-67945580D01*
X144685314Y-66945580D01*
X145161505Y-66945580D01*
X140776981Y-70775580D02*
X140776981Y-69775580D01*
X140776981Y-70251771D02*
X141348410Y-70251771D01*
X141348410Y-70775580D02*
X141348410Y-69775580D01*
X141824600Y-70775580D02*
X141824600Y-69775580D01*
X142157933Y-70489866D01*
X142491267Y-69775580D01*
X142491267Y-70775580D01*
X143538886Y-70680342D02*
X143491267Y-70727961D01*
X143348410Y-70775580D01*
X143253171Y-70775580D01*
X143110314Y-70727961D01*
X143015076Y-70632723D01*
X142967457Y-70537485D01*
X142919838Y-70347009D01*
X142919838Y-70204152D01*
X142967457Y-70013676D01*
X143015076Y-69918438D01*
X143110314Y-69823200D01*
X143253171Y-69775580D01*
X143348410Y-69775580D01*
X143491267Y-69823200D01*
X143538886Y-69870819D01*
X143872219Y-69775580D02*
X144491267Y-69775580D01*
X144157933Y-70156533D01*
X144300790Y-70156533D01*
X144396029Y-70204152D01*
X144443648Y-70251771D01*
X144491267Y-70347009D01*
X144491267Y-70585104D01*
X144443648Y-70680342D01*
X144396029Y-70727961D01*
X144300790Y-70775580D01*
X144015076Y-70775580D01*
X143919838Y-70727961D01*
X143872219Y-70680342D01*
X145348410Y-70108914D02*
X145348410Y-70775580D01*
X145110314Y-69727961D02*
X144872219Y-70442247D01*
X145491267Y-70442247D01*
X146300790Y-69775580D02*
X146110314Y-69775580D01*
X146015076Y-69823200D01*
X145967457Y-69870819D01*
X145872219Y-70013676D01*
X145824600Y-70204152D01*
X145824600Y-70585104D01*
X145872219Y-70680342D01*
X145919838Y-70727961D01*
X146015076Y-70775580D01*
X146205552Y-70775580D01*
X146300790Y-70727961D01*
X146348410Y-70680342D01*
X146396029Y-70585104D01*
X146396029Y-70347009D01*
X146348410Y-70251771D01*
X146300790Y-70204152D01*
X146205552Y-70156533D01*
X146015076Y-70156533D01*
X145919838Y-70204152D01*
X145872219Y-70251771D01*
X145824600Y-70347009D01*
X147443648Y-69775580D02*
X147776981Y-70775580D01*
X148110314Y-69775580D01*
X148967457Y-70775580D02*
X148396029Y-70775580D01*
X148681743Y-70775580D02*
X148681743Y-69775580D01*
X148586505Y-69918438D01*
X148491267Y-70013676D01*
X148396029Y-70061295D01*
D13*
%TO.C,R14*%
X140783410Y-87070421D02*
X140783410Y-87395979D01*
X141803410Y-87070421D02*
X141803410Y-87395979D01*
%TO.C,R15*%
X143013410Y-87080421D02*
X143013410Y-87405979D01*
X144033410Y-87080421D02*
X144033410Y-87405979D01*
D15*
%TO.C,U4*%
X143590151Y-93750200D02*
X144014410Y-93750200D01*
X140760410Y-93325941D02*
X140760410Y-93750200D01*
X141184669Y-90496200D02*
X140760410Y-90496200D01*
X144014410Y-90920459D02*
X144014410Y-90496200D01*
X144014410Y-93750200D02*
X144014410Y-93325941D01*
X140760410Y-93750200D02*
X141184669Y-93750200D01*
X140760410Y-90496200D02*
X140760410Y-90920459D01*
X144014410Y-90496200D02*
X143590151Y-90496200D01*
%TO.C,RV1*%
X140608410Y-76631200D02*
G75*
G03X140608410Y-76631200I-127000J0D01*
G01*
X144637850Y-76256700D02*
X145181410Y-76256700D01*
X141521270Y-72065700D02*
X140101410Y-72065700D01*
X142097850Y-76256700D02*
X143184970Y-76256700D01*
X140101410Y-76256700D02*
X140644970Y-76256700D01*
X145181410Y-72065700D02*
X143761550Y-72065700D01*
X145181410Y-72065700D02*
X145181410Y-76256700D01*
X140101410Y-72065700D02*
X140101410Y-76256700D01*
%TO.C,RV2*%
X131745410Y-81601200D02*
G75*
G03X131745410Y-81601200I-127000J0D01*
G01*
X132002910Y-85844640D02*
X132002910Y-86388200D01*
X136193910Y-82728060D02*
X136193910Y-81308200D01*
X132002910Y-83304640D02*
X132002910Y-84391760D01*
X132002910Y-81308200D02*
X132002910Y-81851760D01*
X136193910Y-86388200D02*
X136193910Y-84968340D01*
X136193910Y-86388200D02*
X132002910Y-86388200D01*
X136193910Y-81308200D02*
X132002910Y-81308200D01*
D13*
%TO.C,R16*%
X151733410Y-73585979D02*
X151733410Y-73260421D01*
X150713410Y-73585979D02*
X150713410Y-73260421D01*
D15*
%TO.C,U2*%
X146193610Y-79993000D02*
X142993210Y-79993000D01*
D13*
%TO.C,C10*%
X136143410Y-76099136D02*
X136143410Y-77303264D01*
X137963410Y-76099136D02*
X137963410Y-77303264D01*
%TO.C,L7*%
X152283410Y-73260421D02*
X152283410Y-73585979D01*
X153303410Y-73260421D02*
X153303410Y-73585979D01*
%TO.C,C18*%
X145940631Y-88553200D02*
X146266189Y-88553200D01*
X145940631Y-87533200D02*
X146266189Y-87533200D01*
%TO.C,C15*%
X138788689Y-87523200D02*
X138463131Y-87523200D01*
X138788689Y-88543200D02*
X138463131Y-88543200D01*
D16*
%TO.C,J1*%
X135623410Y-70423200D02*
X135123410Y-70423200D01*
X135623410Y-70423200D02*
X135623410Y-70923200D01*
X131403410Y-70433200D02*
X131903410Y-70433200D01*
X131403410Y-70433200D02*
X131403410Y-70933200D01*
D13*
%TO.C,D1*%
X139883410Y-73033200D02*
X139883410Y-70348200D01*
X137963410Y-73033200D02*
X139883410Y-73033200D01*
X137963410Y-70348200D02*
X137963410Y-73033200D01*
%TO.C,C13*%
X139133410Y-82005264D02*
X139133410Y-80801136D01*
X137313410Y-82005264D02*
X137313410Y-80801136D01*
%TO.C,C11*%
X151893410Y-82085264D02*
X151893410Y-80881136D01*
X150073410Y-82085264D02*
X150073410Y-80881136D01*
%TO.C,C4*%
X148323474Y-76288200D02*
X147119346Y-76288200D01*
X148323474Y-78108200D02*
X147119346Y-78108200D01*
%TO.C,J3*%
D12*
X137070076Y-94525580D02*
X137070076Y-95239866D01*
X137022457Y-95382723D01*
X136927219Y-95477961D01*
X136784362Y-95525580D01*
X136689124Y-95525580D01*
X137451029Y-94525580D02*
X138070076Y-94525580D01*
X137736743Y-94906533D01*
X137879600Y-94906533D01*
X137974838Y-94954152D01*
X138022457Y-95001771D01*
X138070076Y-95097009D01*
X138070076Y-95335104D01*
X138022457Y-95430342D01*
X137974838Y-95477961D01*
X137879600Y-95525580D01*
X137593886Y-95525580D01*
X137498648Y-95477961D01*
X137451029Y-95430342D01*
%TO.C,J2*%
X147000076Y-94625580D02*
X147000076Y-95339866D01*
X146952457Y-95482723D01*
X146857219Y-95577961D01*
X146714362Y-95625580D01*
X146619124Y-95625580D01*
X147428648Y-94720819D02*
X147476267Y-94673200D01*
X147571505Y-94625580D01*
X147809600Y-94625580D01*
X147904838Y-94673200D01*
X147952457Y-94720819D01*
X148000076Y-94816057D01*
X148000076Y-94911295D01*
X147952457Y-95054152D01*
X147381029Y-95625580D01*
X148000076Y-95625580D01*
%TO.C,*%
%TO.C,R14*%
D10*
X140309600Y-86694628D02*
X140071505Y-86861295D01*
X140309600Y-86980342D02*
X139809600Y-86980342D01*
X139809600Y-86789866D01*
X139833410Y-86742247D01*
X139857219Y-86718438D01*
X139904838Y-86694628D01*
X139976267Y-86694628D01*
X140023886Y-86718438D01*
X140047695Y-86742247D01*
X140071505Y-86789866D01*
X140071505Y-86980342D01*
X140309600Y-86218438D02*
X140309600Y-86504152D01*
X140309600Y-86361295D02*
X139809600Y-86361295D01*
X139881029Y-86408914D01*
X139928648Y-86456533D01*
X139952457Y-86504152D01*
X139976267Y-85789866D02*
X140309600Y-85789866D01*
X139785790Y-85908914D02*
X140142933Y-86027961D01*
X140142933Y-85718438D01*
%TO.C,R15*%
X145019600Y-86804628D02*
X144781505Y-86971295D01*
X145019600Y-87090342D02*
X144519600Y-87090342D01*
X144519600Y-86899866D01*
X144543410Y-86852247D01*
X144567219Y-86828438D01*
X144614838Y-86804628D01*
X144686267Y-86804628D01*
X144733886Y-86828438D01*
X144757695Y-86852247D01*
X144781505Y-86899866D01*
X144781505Y-87090342D01*
X145019600Y-86328438D02*
X145019600Y-86614152D01*
X145019600Y-86471295D02*
X144519600Y-86471295D01*
X144591029Y-86518914D01*
X144638648Y-86566533D01*
X144662457Y-86614152D01*
X144519600Y-85876057D02*
X144519600Y-86114152D01*
X144757695Y-86137961D01*
X144733886Y-86114152D01*
X144710076Y-86066533D01*
X144710076Y-85947485D01*
X144733886Y-85899866D01*
X144757695Y-85876057D01*
X144805314Y-85852247D01*
X144924362Y-85852247D01*
X144971981Y-85876057D01*
X144995790Y-85899866D01*
X145019600Y-85947485D01*
X145019600Y-86066533D01*
X144995790Y-86114152D01*
X144971981Y-86137961D01*
%TO.C,U4*%
D12*
X141625505Y-94623580D02*
X141625505Y-95433104D01*
X141673124Y-95528342D01*
X141720743Y-95575961D01*
X141815981Y-95623580D01*
X142006457Y-95623580D01*
X142101695Y-95575961D01*
X142149314Y-95528342D01*
X142196933Y-95433104D01*
X142196933Y-94623580D01*
X143101695Y-94956914D02*
X143101695Y-95623580D01*
X142863600Y-94575961D02*
X142625505Y-95290247D01*
X143244552Y-95290247D01*
X253955790Y-132305580D02*
X253955790Y-131305580D01*
X253955790Y-131781771D02*
X254527219Y-131781771D01*
X254527219Y-132305580D02*
X254527219Y-131305580D01*
X255003410Y-132305580D02*
X255003410Y-131305580D01*
X255336743Y-132019866D01*
X255670076Y-131305580D01*
X255670076Y-132305580D01*
X256717695Y-132210342D02*
X256670076Y-132257961D01*
X256527219Y-132305580D01*
X256431981Y-132305580D01*
X256289124Y-132257961D01*
X256193886Y-132162723D01*
X256146267Y-132067485D01*
X256098648Y-131877009D01*
X256098648Y-131734152D01*
X256146267Y-131543676D01*
X256193886Y-131448438D01*
X256289124Y-131353200D01*
X256431981Y-131305580D01*
X256527219Y-131305580D01*
X256670076Y-131353200D01*
X256717695Y-131400819D01*
X257051029Y-131305580D02*
X257670076Y-131305580D01*
X257336743Y-131686533D01*
X257479600Y-131686533D01*
X257574838Y-131734152D01*
X257622457Y-131781771D01*
X257670076Y-131877009D01*
X257670076Y-132115104D01*
X257622457Y-132210342D01*
X257574838Y-132257961D01*
X257479600Y-132305580D01*
X257193886Y-132305580D01*
X257098648Y-132257961D01*
X257051029Y-132210342D01*
X258527219Y-131638914D02*
X258527219Y-132305580D01*
X258289124Y-131257961D02*
X258051029Y-131972247D01*
X258670076Y-131972247D01*
X259479600Y-131305580D02*
X259289124Y-131305580D01*
X259193886Y-131353200D01*
X259146267Y-131400819D01*
X259051029Y-131543676D01*
X259003410Y-131734152D01*
X259003410Y-132115104D01*
X259051029Y-132210342D01*
X259098648Y-132257961D01*
X259193886Y-132305580D01*
X259384362Y-132305580D01*
X259479600Y-132257961D01*
X259527219Y-132210342D01*
X259574838Y-132115104D01*
X259574838Y-131877009D01*
X259527219Y-131781771D01*
X259479600Y-131734152D01*
X259384362Y-131686533D01*
X259193886Y-131686533D01*
X259098648Y-131734152D01*
X259051029Y-131781771D01*
X259003410Y-131877009D01*
X259955790Y-132019866D02*
X260431981Y-132019866D01*
X259860552Y-132305580D02*
X260193886Y-131305580D01*
X260527219Y-132305580D01*
X261336743Y-132305580D02*
X260860552Y-132305580D01*
X260860552Y-131305580D01*
X261670076Y-132305580D02*
X261670076Y-131305580D01*
X262051029Y-131305580D01*
X262146267Y-131353200D01*
X262193886Y-131400819D01*
X262241505Y-131496057D01*
X262241505Y-131638914D01*
X262193886Y-131734152D01*
X262146267Y-131781771D01*
X262051029Y-131829390D01*
X261670076Y-131829390D01*
X262574838Y-131305580D02*
X263193886Y-131305580D01*
X262860552Y-131686533D01*
X263003410Y-131686533D01*
X263098648Y-131734152D01*
X263146267Y-131781771D01*
X263193886Y-131877009D01*
X263193886Y-132115104D01*
X263146267Y-132210342D01*
X263098648Y-132257961D01*
X263003410Y-132305580D01*
X262717695Y-132305580D01*
X262622457Y-132257961D01*
X262574838Y-132210342D01*
X263622457Y-131781771D02*
X263955790Y-131781771D01*
X264098648Y-132305580D02*
X263622457Y-132305580D01*
X263622457Y-131305580D01*
X264098648Y-131305580D01*
X144573410Y-93525580D02*
X144573410Y-93763676D01*
X144335314Y-93668438D02*
X144573410Y-93763676D01*
X144811505Y-93668438D01*
X144430552Y-93954152D02*
X144573410Y-93763676D01*
X144716267Y-93954152D01*
X144573410Y-93525580D02*
X144573410Y-93763676D01*
X144335314Y-93668438D02*
X144573410Y-93763676D01*
X144811505Y-93668438D01*
X144430552Y-93954152D02*
X144573410Y-93763676D01*
X144716267Y-93954152D01*
%TO.C,RV1*%
D14*
X146488171Y-73755580D02*
X146154838Y-73279390D01*
X145916743Y-73755580D02*
X145916743Y-72755580D01*
X146297695Y-72755580D01*
X146392933Y-72803200D01*
X146440552Y-72850819D01*
X146488171Y-72946057D01*
X146488171Y-73088914D01*
X146440552Y-73184152D01*
X146392933Y-73231771D01*
X146297695Y-73279390D01*
X145916743Y-73279390D01*
X146773886Y-72755580D02*
X147107219Y-73755580D01*
X147440552Y-72755580D01*
X148297695Y-73755580D02*
X147726267Y-73755580D01*
X148011981Y-73755580D02*
X148011981Y-72755580D01*
X147916743Y-72898438D01*
X147821505Y-72993676D01*
X147726267Y-73041295D01*
D12*
X254915790Y-107495580D02*
X254582457Y-107019390D01*
X254344362Y-107495580D02*
X254344362Y-106495580D01*
X254725314Y-106495580D01*
X254820552Y-106543200D01*
X254868171Y-106590819D01*
X254915790Y-106686057D01*
X254915790Y-106828914D01*
X254868171Y-106924152D01*
X254820552Y-106971771D01*
X254725314Y-107019390D01*
X254344362Y-107019390D01*
X255106267Y-107590819D02*
X255868171Y-107590819D01*
X256106267Y-107495580D02*
X256106267Y-106495580D01*
X256487219Y-106495580D01*
X256582457Y-106543200D01*
X256630076Y-106590819D01*
X256677695Y-106686057D01*
X256677695Y-106828914D01*
X256630076Y-106924152D01*
X256582457Y-106971771D01*
X256487219Y-107019390D01*
X256106267Y-107019390D01*
X257296743Y-106495580D02*
X257487219Y-106495580D01*
X257582457Y-106543200D01*
X257677695Y-106638438D01*
X257725314Y-106828914D01*
X257725314Y-107162247D01*
X257677695Y-107352723D01*
X257582457Y-107447961D01*
X257487219Y-107495580D01*
X257296743Y-107495580D01*
X257201505Y-107447961D01*
X257106267Y-107352723D01*
X257058648Y-107162247D01*
X257058648Y-106828914D01*
X257106267Y-106638438D01*
X257201505Y-106543200D01*
X257296743Y-106495580D01*
X258011029Y-106495580D02*
X258582457Y-106495580D01*
X258296743Y-107495580D02*
X258296743Y-106495580D01*
X258677695Y-107590819D02*
X259439600Y-107590819D01*
X259534838Y-106495580D02*
X260106267Y-106495580D01*
X259820552Y-107495580D02*
X259820552Y-106495580D01*
X261011029Y-107495580D02*
X260677695Y-107019390D01*
X260439600Y-107495580D02*
X260439600Y-106495580D01*
X260820552Y-106495580D01*
X260915790Y-106543200D01*
X260963410Y-106590819D01*
X261011029Y-106686057D01*
X261011029Y-106828914D01*
X260963410Y-106924152D01*
X260915790Y-106971771D01*
X260820552Y-107019390D01*
X260439600Y-107019390D01*
X261439600Y-107495580D02*
X261439600Y-106495580D01*
X261915790Y-107495580D02*
X261915790Y-106495580D01*
X262249124Y-107209866D01*
X262582457Y-106495580D01*
X262582457Y-107495580D01*
%TO.C,RV2*%
D10*
X137349600Y-85980819D02*
X137111505Y-86147485D01*
X137349600Y-86266533D02*
X136849600Y-86266533D01*
X136849600Y-86076057D01*
X136873410Y-86028438D01*
X136897219Y-86004628D01*
X136944838Y-85980819D01*
X137016267Y-85980819D01*
X137063886Y-86004628D01*
X137087695Y-86028438D01*
X137111505Y-86076057D01*
X137111505Y-86266533D01*
X136849600Y-85837961D02*
X137349600Y-85671295D01*
X136849600Y-85504628D01*
X136897219Y-85361771D02*
X136873410Y-85337961D01*
X136849600Y-85290342D01*
X136849600Y-85171295D01*
X136873410Y-85123676D01*
X136897219Y-85099866D01*
X136944838Y-85076057D01*
X136992457Y-85076057D01*
X137063886Y-85099866D01*
X137349600Y-85385580D01*
X137349600Y-85076057D01*
D12*
X266305790Y-122610819D02*
X265829600Y-122944152D01*
X266305790Y-123182247D02*
X265305790Y-123182247D01*
X265305790Y-122801295D01*
X265353410Y-122706057D01*
X265401029Y-122658438D01*
X265496267Y-122610819D01*
X265639124Y-122610819D01*
X265734362Y-122658438D01*
X265781981Y-122706057D01*
X265829600Y-122801295D01*
X265829600Y-123182247D01*
X266401029Y-122420342D02*
X266401029Y-121658438D01*
X266305790Y-121420342D02*
X265305790Y-121420342D01*
X265305790Y-121039390D01*
X265353410Y-120944152D01*
X265401029Y-120896533D01*
X265496267Y-120848914D01*
X265639124Y-120848914D01*
X265734362Y-120896533D01*
X265781981Y-120944152D01*
X265829600Y-121039390D01*
X265829600Y-121420342D01*
X265305790Y-120229866D02*
X265305790Y-120039390D01*
X265353410Y-119944152D01*
X265448648Y-119848914D01*
X265639124Y-119801295D01*
X265972457Y-119801295D01*
X266162933Y-119848914D01*
X266258171Y-119944152D01*
X266305790Y-120039390D01*
X266305790Y-120229866D01*
X266258171Y-120325104D01*
X266162933Y-120420342D01*
X265972457Y-120467961D01*
X265639124Y-120467961D01*
X265448648Y-120420342D01*
X265353410Y-120325104D01*
X265305790Y-120229866D01*
X265305790Y-119515580D02*
X265305790Y-118944152D01*
X266305790Y-119229866D02*
X265305790Y-119229866D01*
X266401029Y-118848914D02*
X266401029Y-118087009D01*
X265305790Y-117991771D02*
X265305790Y-117420342D01*
X266305790Y-117706057D02*
X265305790Y-117706057D01*
X266305790Y-116515580D02*
X265829600Y-116848914D01*
X266305790Y-117087009D02*
X265305790Y-117087009D01*
X265305790Y-116706057D01*
X265353410Y-116610819D01*
X265401029Y-116563200D01*
X265496267Y-116515580D01*
X265639124Y-116515580D01*
X265734362Y-116563200D01*
X265781981Y-116610819D01*
X265829600Y-116706057D01*
X265829600Y-117087009D01*
X266305790Y-116087009D02*
X265305790Y-116087009D01*
X266305790Y-115610819D02*
X265305790Y-115610819D01*
X266020076Y-115277485D01*
X265305790Y-114944152D01*
X266305790Y-114944152D01*
X133550790Y-83848200D02*
X133788886Y-83848200D01*
X133693648Y-84086295D02*
X133788886Y-83848200D01*
X133693648Y-83610104D01*
X133979362Y-83991057D02*
X133788886Y-83848200D01*
X133979362Y-83705342D01*
%TO.C,uT4*%
X258430552Y-108808914D02*
X258430552Y-109475580D01*
X258001981Y-108808914D02*
X258001981Y-109332723D01*
X258049600Y-109427961D01*
X258144838Y-109475580D01*
X258287695Y-109475580D01*
X258382933Y-109427961D01*
X258430552Y-109380342D01*
X258763886Y-108475580D02*
X259335314Y-108475580D01*
X259049600Y-109475580D02*
X259049600Y-108475580D01*
X260097219Y-108808914D02*
X260097219Y-109475580D01*
X259859124Y-108427961D02*
X259621029Y-109142247D01*
X260240076Y-109142247D01*
%TO.C,uT3*%
X259510552Y-120568914D02*
X259510552Y-121235580D01*
X259081981Y-120568914D02*
X259081981Y-121092723D01*
X259129600Y-121187961D01*
X259224838Y-121235580D01*
X259367695Y-121235580D01*
X259462933Y-121187961D01*
X259510552Y-121140342D01*
X259843886Y-120235580D02*
X260415314Y-120235580D01*
X260129600Y-121235580D02*
X260129600Y-120235580D01*
X260653410Y-120235580D02*
X261272457Y-120235580D01*
X260939124Y-120616533D01*
X261081981Y-120616533D01*
X261177219Y-120664152D01*
X261224838Y-120711771D01*
X261272457Y-120807009D01*
X261272457Y-121045104D01*
X261224838Y-121140342D01*
X261177219Y-121187961D01*
X261081981Y-121235580D01*
X260796267Y-121235580D01*
X260701029Y-121187961D01*
X260653410Y-121140342D01*
%TO.C,R16*%
X151450790Y-71141057D02*
X150974600Y-71474390D01*
X151450790Y-71712485D02*
X150450790Y-71712485D01*
X150450790Y-71331533D01*
X150498410Y-71236295D01*
X150546029Y-71188676D01*
X150641267Y-71141057D01*
X150784124Y-71141057D01*
X150879362Y-71188676D01*
X150926981Y-71236295D01*
X150974600Y-71331533D01*
X150974600Y-71712485D01*
X151450790Y-70188676D02*
X151450790Y-70760104D01*
X151450790Y-70474390D02*
X150450790Y-70474390D01*
X150593648Y-70569628D01*
X150688886Y-70664866D01*
X150736505Y-70760104D01*
X150450790Y-69331533D02*
X150450790Y-69522009D01*
X150498410Y-69617247D01*
X150546029Y-69664866D01*
X150688886Y-69760104D01*
X150879362Y-69807723D01*
X151260314Y-69807723D01*
X151355552Y-69760104D01*
X151403171Y-69712485D01*
X151450790Y-69617247D01*
X151450790Y-69426771D01*
X151403171Y-69331533D01*
X151355552Y-69283914D01*
X151260314Y-69236295D01*
X151022219Y-69236295D01*
X150926981Y-69283914D01*
X150879362Y-69331533D01*
X150831743Y-69426771D01*
X150831743Y-69617247D01*
X150879362Y-69712485D01*
X150926981Y-69760104D01*
X151022219Y-69807723D01*
%TO.C,U2*%
D10*
X144267457Y-83274390D02*
X144267457Y-83679152D01*
X144291267Y-83726771D01*
X144315076Y-83750580D01*
X144362695Y-83774390D01*
X144457933Y-83774390D01*
X144505552Y-83750580D01*
X144529362Y-83726771D01*
X144553171Y-83679152D01*
X144553171Y-83274390D01*
X144767457Y-83322009D02*
X144791267Y-83298200D01*
X144838886Y-83274390D01*
X144957933Y-83274390D01*
X145005552Y-83298200D01*
X145029362Y-83322009D01*
X145053171Y-83369628D01*
X145053171Y-83417247D01*
X145029362Y-83488676D01*
X144743648Y-83774390D01*
X145053171Y-83774390D01*
D12*
X251930552Y-128809866D02*
X252406743Y-128809866D01*
X251835314Y-129095580D02*
X252168648Y-128095580D01*
X252501981Y-129095580D01*
X252835314Y-129095580D02*
X252835314Y-128095580D01*
X253073410Y-128095580D01*
X253216267Y-128143200D01*
X253311505Y-128238438D01*
X253359124Y-128333676D01*
X253406743Y-128524152D01*
X253406743Y-128667009D01*
X253359124Y-128857485D01*
X253311505Y-128952723D01*
X253216267Y-129047961D01*
X253073410Y-129095580D01*
X252835314Y-129095580D01*
X253787695Y-128809866D02*
X254263886Y-128809866D01*
X253692457Y-129095580D02*
X254025790Y-128095580D01*
X254359124Y-129095580D01*
X255121029Y-128428914D02*
X255121029Y-129095580D01*
X254882933Y-128047961D02*
X254644838Y-128762247D01*
X255263886Y-128762247D01*
X255787695Y-128524152D02*
X255692457Y-128476533D01*
X255644838Y-128428914D01*
X255597219Y-128333676D01*
X255597219Y-128286057D01*
X255644838Y-128190819D01*
X255692457Y-128143200D01*
X255787695Y-128095580D01*
X255978171Y-128095580D01*
X256073410Y-128143200D01*
X256121029Y-128190819D01*
X256168648Y-128286057D01*
X256168648Y-128333676D01*
X256121029Y-128428914D01*
X256073410Y-128476533D01*
X255978171Y-128524152D01*
X255787695Y-128524152D01*
X255692457Y-128571771D01*
X255644838Y-128619390D01*
X255597219Y-128714628D01*
X255597219Y-128905104D01*
X255644838Y-129000342D01*
X255692457Y-129047961D01*
X255787695Y-129095580D01*
X255978171Y-129095580D01*
X256073410Y-129047961D01*
X256121029Y-129000342D01*
X256168648Y-128905104D01*
X256168648Y-128714628D01*
X256121029Y-128619390D01*
X256073410Y-128571771D01*
X255978171Y-128524152D01*
X256644838Y-129095580D02*
X256835314Y-129095580D01*
X256930552Y-129047961D01*
X256978171Y-129000342D01*
X257073410Y-128857485D01*
X257121029Y-128667009D01*
X257121029Y-128286057D01*
X257073410Y-128190819D01*
X257025790Y-128143200D01*
X256930552Y-128095580D01*
X256740076Y-128095580D01*
X256644838Y-128143200D01*
X256597219Y-128190819D01*
X256549600Y-128286057D01*
X256549600Y-128524152D01*
X256597219Y-128619390D01*
X256644838Y-128667009D01*
X256740076Y-128714628D01*
X256930552Y-128714628D01*
X257025790Y-128667009D01*
X257073410Y-128619390D01*
X257121029Y-128524152D01*
X257978171Y-128095580D02*
X257787695Y-128095580D01*
X257692457Y-128143200D01*
X257644838Y-128190819D01*
X257549600Y-128333676D01*
X257501981Y-128524152D01*
X257501981Y-128905104D01*
X257549600Y-129000342D01*
X257597219Y-129047961D01*
X257692457Y-129095580D01*
X257882933Y-129095580D01*
X257978171Y-129047961D01*
X258025790Y-129000342D01*
X258073410Y-128905104D01*
X258073410Y-128667009D01*
X258025790Y-128571771D01*
X257978171Y-128524152D01*
X257882933Y-128476533D01*
X257692457Y-128476533D01*
X257597219Y-128524152D01*
X257549600Y-128571771D01*
X257501981Y-128667009D01*
X258501981Y-128714628D02*
X259263886Y-128714628D01*
X259692457Y-128190819D02*
X259740076Y-128143200D01*
X259835314Y-128095580D01*
X260073410Y-128095580D01*
X260168648Y-128143200D01*
X260216267Y-128190819D01*
X260263886Y-128286057D01*
X260263886Y-128381295D01*
X260216267Y-128524152D01*
X259644838Y-129095580D01*
X260263886Y-129095580D01*
X260644838Y-128809866D02*
X261121029Y-128809866D01*
X260549600Y-129095580D02*
X260882933Y-128095580D01*
X261216267Y-129095580D01*
X262121029Y-129095580D02*
X261787695Y-128619390D01*
X261549600Y-129095580D02*
X261549600Y-128095580D01*
X261930552Y-128095580D01*
X262025790Y-128143200D01*
X262073410Y-128190819D01*
X262121029Y-128286057D01*
X262121029Y-128428914D01*
X262073410Y-128524152D01*
X262025790Y-128571771D01*
X261930552Y-128619390D01*
X261549600Y-128619390D01*
X262549600Y-129095580D02*
X262549600Y-128095580D01*
X262882933Y-128809866D01*
X263216267Y-128095580D01*
X263216267Y-129095580D01*
X263597219Y-128095580D02*
X264263886Y-128095580D01*
X263597219Y-129095580D01*
X264263886Y-129095580D01*
X146343410Y-83185580D02*
X146343410Y-83423676D01*
X146105314Y-83328438D02*
X146343410Y-83423676D01*
X146581505Y-83328438D01*
X146200552Y-83614152D02*
X146343410Y-83423676D01*
X146486267Y-83614152D01*
X146343410Y-83185580D02*
X146343410Y-83423676D01*
X146105314Y-83328438D02*
X146343410Y-83423676D01*
X146581505Y-83328438D01*
X146200552Y-83614152D02*
X146343410Y-83423676D01*
X146486267Y-83614152D01*
%TO.C,C10*%
X139340552Y-77406057D02*
X139388171Y-77453676D01*
X139435790Y-77596533D01*
X139435790Y-77691771D01*
X139388171Y-77834628D01*
X139292933Y-77929866D01*
X139197695Y-77977485D01*
X139007219Y-78025104D01*
X138864362Y-78025104D01*
X138673886Y-77977485D01*
X138578648Y-77929866D01*
X138483410Y-77834628D01*
X138435790Y-77691771D01*
X138435790Y-77596533D01*
X138483410Y-77453676D01*
X138531029Y-77406057D01*
X139435790Y-76453676D02*
X139435790Y-77025104D01*
X139435790Y-76739390D02*
X138435790Y-76739390D01*
X138578648Y-76834628D01*
X138673886Y-76929866D01*
X138721505Y-77025104D01*
X138435790Y-75834628D02*
X138435790Y-75739390D01*
X138483410Y-75644152D01*
X138531029Y-75596533D01*
X138626267Y-75548914D01*
X138816743Y-75501295D01*
X139054838Y-75501295D01*
X139245314Y-75548914D01*
X139340552Y-75596533D01*
X139388171Y-75644152D01*
X139435790Y-75739390D01*
X139435790Y-75834628D01*
X139388171Y-75929866D01*
X139340552Y-75977485D01*
X139245314Y-76025104D01*
X139054838Y-76072723D01*
X138816743Y-76072723D01*
X138626267Y-76025104D01*
X138531029Y-75977485D01*
X138483410Y-75929866D01*
X138435790Y-75834628D01*
%TO.C,L7*%
X153300790Y-71214866D02*
X153300790Y-71691057D01*
X152300790Y-71691057D01*
X152300790Y-70976771D02*
X152300790Y-70310104D01*
X153300790Y-70738676D01*
%TO.C,C21*%
D10*
X145076981Y-79201771D02*
X145053171Y-79225580D01*
X144981743Y-79249390D01*
X144934124Y-79249390D01*
X144862695Y-79225580D01*
X144815076Y-79177961D01*
X144791267Y-79130342D01*
X144767457Y-79035104D01*
X144767457Y-78963676D01*
X144791267Y-78868438D01*
X144815076Y-78820819D01*
X144862695Y-78773200D01*
X144934124Y-78749390D01*
X144981743Y-78749390D01*
X145053171Y-78773200D01*
X145076981Y-78797009D01*
X145267457Y-78797009D02*
X145291267Y-78773200D01*
X145338886Y-78749390D01*
X145457933Y-78749390D01*
X145505552Y-78773200D01*
X145529362Y-78797009D01*
X145553171Y-78844628D01*
X145553171Y-78892247D01*
X145529362Y-78963676D01*
X145243648Y-79249390D01*
X145553171Y-79249390D01*
X146029362Y-79249390D02*
X145743648Y-79249390D01*
X145886505Y-79249390D02*
X145886505Y-78749390D01*
X145838886Y-78820819D01*
X145791267Y-78868438D01*
X145743648Y-78892247D01*
%TO.C,C18*%
X146541981Y-87021771D02*
X146518171Y-87045580D01*
X146446743Y-87069390D01*
X146399124Y-87069390D01*
X146327695Y-87045580D01*
X146280076Y-86997961D01*
X146256267Y-86950342D01*
X146232457Y-86855104D01*
X146232457Y-86783676D01*
X146256267Y-86688438D01*
X146280076Y-86640819D01*
X146327695Y-86593200D01*
X146399124Y-86569390D01*
X146446743Y-86569390D01*
X146518171Y-86593200D01*
X146541981Y-86617009D01*
X147018171Y-87069390D02*
X146732457Y-87069390D01*
X146875314Y-87069390D02*
X146875314Y-86569390D01*
X146827695Y-86640819D01*
X146780076Y-86688438D01*
X146732457Y-86712247D01*
X147303886Y-86783676D02*
X147256267Y-86759866D01*
X147232457Y-86736057D01*
X147208648Y-86688438D01*
X147208648Y-86664628D01*
X147232457Y-86617009D01*
X147256267Y-86593200D01*
X147303886Y-86569390D01*
X147399124Y-86569390D01*
X147446743Y-86593200D01*
X147470552Y-86617009D01*
X147494362Y-86664628D01*
X147494362Y-86688438D01*
X147470552Y-86736057D01*
X147446743Y-86759866D01*
X147399124Y-86783676D01*
X147303886Y-86783676D01*
X147256267Y-86807485D01*
X147232457Y-86831295D01*
X147208648Y-86878914D01*
X147208648Y-86974152D01*
X147232457Y-87021771D01*
X147256267Y-87045580D01*
X147303886Y-87069390D01*
X147399124Y-87069390D01*
X147446743Y-87045580D01*
X147470552Y-87021771D01*
X147494362Y-86974152D01*
X147494362Y-86878914D01*
X147470552Y-86831295D01*
X147446743Y-86807485D01*
X147399124Y-86783676D01*
%TO.C,C15*%
X137771981Y-87031771D02*
X137748171Y-87055580D01*
X137676743Y-87079390D01*
X137629124Y-87079390D01*
X137557695Y-87055580D01*
X137510076Y-87007961D01*
X137486267Y-86960342D01*
X137462457Y-86865104D01*
X137462457Y-86793676D01*
X137486267Y-86698438D01*
X137510076Y-86650819D01*
X137557695Y-86603200D01*
X137629124Y-86579390D01*
X137676743Y-86579390D01*
X137748171Y-86603200D01*
X137771981Y-86627009D01*
X138248171Y-87079390D02*
X137962457Y-87079390D01*
X138105314Y-87079390D02*
X138105314Y-86579390D01*
X138057695Y-86650819D01*
X138010076Y-86698438D01*
X137962457Y-86722247D01*
X138700552Y-86579390D02*
X138462457Y-86579390D01*
X138438648Y-86817485D01*
X138462457Y-86793676D01*
X138510076Y-86769866D01*
X138629124Y-86769866D01*
X138676743Y-86793676D01*
X138700552Y-86817485D01*
X138724362Y-86865104D01*
X138724362Y-86984152D01*
X138700552Y-87031771D01*
X138676743Y-87055580D01*
X138629124Y-87079390D01*
X138510076Y-87079390D01*
X138462457Y-87055580D01*
X138438648Y-87031771D01*
%TO.C,R7*%
D12*
X140825790Y-78449866D02*
X140349600Y-78783200D01*
X140825790Y-79021295D02*
X139825790Y-79021295D01*
X139825790Y-78640342D01*
X139873410Y-78545104D01*
X139921029Y-78497485D01*
X140016267Y-78449866D01*
X140159124Y-78449866D01*
X140254362Y-78497485D01*
X140301981Y-78545104D01*
X140349600Y-78640342D01*
X140349600Y-79021295D01*
X139825790Y-78116533D02*
X139825790Y-77449866D01*
X140825790Y-77878438D01*
%TO.C,R5*%
D10*
X148850076Y-78989390D02*
X148683410Y-78751295D01*
X148564362Y-78989390D02*
X148564362Y-78489390D01*
X148754838Y-78489390D01*
X148802457Y-78513200D01*
X148826267Y-78537009D01*
X148850076Y-78584628D01*
X148850076Y-78656057D01*
X148826267Y-78703676D01*
X148802457Y-78727485D01*
X148754838Y-78751295D01*
X148564362Y-78751295D01*
X149302457Y-78489390D02*
X149064362Y-78489390D01*
X149040552Y-78727485D01*
X149064362Y-78703676D01*
X149111981Y-78679866D01*
X149231029Y-78679866D01*
X149278648Y-78703676D01*
X149302457Y-78727485D01*
X149326267Y-78775104D01*
X149326267Y-78894152D01*
X149302457Y-78941771D01*
X149278648Y-78965580D01*
X149231029Y-78989390D01*
X149111981Y-78989390D01*
X149064362Y-78965580D01*
X149040552Y-78941771D01*
%TO.C,J1*%
D12*
X133190076Y-69250580D02*
X133190076Y-69964866D01*
X133142457Y-70107723D01*
X133047219Y-70202961D01*
X132904362Y-70250580D01*
X132809124Y-70250580D01*
X134190076Y-70250580D02*
X133618648Y-70250580D01*
X133904362Y-70250580D02*
X133904362Y-69250580D01*
X133809124Y-69393438D01*
X133713886Y-69488676D01*
X133618648Y-69536295D01*
%TO.C,J4*%
X144723486Y-64955780D02*
X144723486Y-65670066D01*
X144675867Y-65812923D01*
X144580629Y-65908161D01*
X144437772Y-65955780D01*
X144342534Y-65955780D01*
X145628248Y-65289114D02*
X145628248Y-65955780D01*
X145390153Y-64908161D02*
X145152058Y-65622447D01*
X145771105Y-65622447D01*
%TO.C,J5*%
X139553486Y-64955780D02*
X139553486Y-65670066D01*
X139505867Y-65812923D01*
X139410629Y-65908161D01*
X139267772Y-65955780D01*
X139172534Y-65955780D01*
X140505867Y-64955780D02*
X140029677Y-64955780D01*
X139982058Y-65431971D01*
X140029677Y-65384352D01*
X140124915Y-65336733D01*
X140363010Y-65336733D01*
X140458248Y-65384352D01*
X140505867Y-65431971D01*
X140553486Y-65527209D01*
X140553486Y-65765304D01*
X140505867Y-65860542D01*
X140458248Y-65908161D01*
X140363010Y-65955780D01*
X140124915Y-65955780D01*
X140029677Y-65908161D01*
X139982058Y-65860542D01*
%TO.C,D1*%
X137615790Y-72721295D02*
X136615790Y-72721295D01*
X136615790Y-72483200D01*
X136663410Y-72340342D01*
X136758648Y-72245104D01*
X136853886Y-72197485D01*
X137044362Y-72149866D01*
X137187219Y-72149866D01*
X137377695Y-72197485D01*
X137472933Y-72245104D01*
X137568171Y-72340342D01*
X137615790Y-72483200D01*
X137615790Y-72721295D01*
X137615790Y-71197485D02*
X137615790Y-71768914D01*
X137615790Y-71483200D02*
X136615790Y-71483200D01*
X136758648Y-71578438D01*
X136853886Y-71673676D01*
X136901505Y-71768914D01*
%TO.C,C13*%
D10*
X136811981Y-80574628D02*
X136835790Y-80598438D01*
X136859600Y-80669866D01*
X136859600Y-80717485D01*
X136835790Y-80788914D01*
X136788171Y-80836533D01*
X136740552Y-80860342D01*
X136645314Y-80884152D01*
X136573886Y-80884152D01*
X136478648Y-80860342D01*
X136431029Y-80836533D01*
X136383410Y-80788914D01*
X136359600Y-80717485D01*
X136359600Y-80669866D01*
X136383410Y-80598438D01*
X136407219Y-80574628D01*
X136859600Y-80098438D02*
X136859600Y-80384152D01*
X136859600Y-80241295D02*
X136359600Y-80241295D01*
X136431029Y-80288914D01*
X136478648Y-80336533D01*
X136502457Y-80384152D01*
X136359600Y-79931771D02*
X136359600Y-79622247D01*
X136550076Y-79788914D01*
X136550076Y-79717485D01*
X136573886Y-79669866D01*
X136597695Y-79646057D01*
X136645314Y-79622247D01*
X136764362Y-79622247D01*
X136811981Y-79646057D01*
X136835790Y-79669866D01*
X136859600Y-79717485D01*
X136859600Y-79860342D01*
X136835790Y-79907961D01*
X136811981Y-79931771D01*
%TO.C,C11*%
D12*
X153412552Y-82170057D02*
X153460171Y-82217676D01*
X153507790Y-82360533D01*
X153507790Y-82455771D01*
X153460171Y-82598628D01*
X153364933Y-82693866D01*
X153269695Y-82741485D01*
X153079219Y-82789104D01*
X152936362Y-82789104D01*
X152745886Y-82741485D01*
X152650648Y-82693866D01*
X152555410Y-82598628D01*
X152507790Y-82455771D01*
X152507790Y-82360533D01*
X152555410Y-82217676D01*
X152603029Y-82170057D01*
X153507790Y-81217676D02*
X153507790Y-81789104D01*
X153507790Y-81503390D02*
X152507790Y-81503390D01*
X152650648Y-81598628D01*
X152745886Y-81693866D01*
X152793505Y-81789104D01*
X153507790Y-80265295D02*
X153507790Y-80836723D01*
X153507790Y-80551009D02*
X152507790Y-80551009D01*
X152650648Y-80646247D01*
X152745886Y-80741485D01*
X152793505Y-80836723D01*
%TO.C,C4*%
X147584743Y-75755342D02*
X147537124Y-75802961D01*
X147394267Y-75850580D01*
X147299029Y-75850580D01*
X147156171Y-75802961D01*
X147060933Y-75707723D01*
X147013314Y-75612485D01*
X146965695Y-75422009D01*
X146965695Y-75279152D01*
X147013314Y-75088676D01*
X147060933Y-74993438D01*
X147156171Y-74898200D01*
X147299029Y-74850580D01*
X147394267Y-74850580D01*
X147537124Y-74898200D01*
X147584743Y-74945819D01*
X148441886Y-75183914D02*
X148441886Y-75850580D01*
X148203790Y-74802961D02*
X147965695Y-75517247D01*
X148584743Y-75517247D01*
%TO.C,I1*%
D14*
X141987219Y-86375580D02*
X141987219Y-85375580D01*
X142987219Y-86375580D02*
X142415790Y-86375580D01*
X142701505Y-86375580D02*
X142701505Y-85375580D01*
X142606267Y-85518438D01*
X142511029Y-85613676D01*
X142415790Y-85661295D01*
%TO.C,-5V*%
D12*
X150305695Y-76219628D02*
X151067600Y-76219628D01*
X152019981Y-75600580D02*
X151543790Y-75600580D01*
X151496171Y-76076771D01*
X151543790Y-76029152D01*
X151639029Y-75981533D01*
X151877124Y-75981533D01*
X151972362Y-76029152D01*
X152019981Y-76076771D01*
X152067600Y-76172009D01*
X152067600Y-76410104D01*
X152019981Y-76505342D01*
X151972362Y-76552961D01*
X151877124Y-76600580D01*
X151639029Y-76600580D01*
X151543790Y-76552961D01*
X151496171Y-76505342D01*
X152353314Y-75600580D02*
X152686648Y-76600580D01*
X153019981Y-75600580D01*
%TO.C,V1*%
X138123886Y-85345580D02*
X138457219Y-86345580D01*
X138790552Y-85345580D01*
X139647695Y-86345580D02*
X139076267Y-86345580D01*
X139361981Y-86345580D02*
X139361981Y-85345580D01*
X139266743Y-85488438D01*
X139171505Y-85583676D01*
X139076267Y-85631295D01*
%TO.C,V2*%
X145483886Y-85345580D02*
X145817219Y-86345580D01*
X146150552Y-85345580D01*
X146436267Y-85440819D02*
X146483886Y-85393200D01*
X146579124Y-85345580D01*
X146817219Y-85345580D01*
X146912457Y-85393200D01*
X146960076Y-85440819D01*
X147007695Y-85536057D01*
X147007695Y-85631295D01*
X146960076Y-85774152D01*
X146388648Y-86345580D01*
X147007695Y-86345580D01*
%TO.C,R1*%
D10*
X136825076Y-69724390D02*
X136658410Y-69486295D01*
X136539362Y-69724390D02*
X136539362Y-69224390D01*
X136729838Y-69224390D01*
X136777457Y-69248200D01*
X136801267Y-69272009D01*
X136825076Y-69319628D01*
X136825076Y-69391057D01*
X136801267Y-69438676D01*
X136777457Y-69462485D01*
X136729838Y-69486295D01*
X136539362Y-69486295D01*
X137301267Y-69724390D02*
X137015552Y-69724390D01*
X137158410Y-69724390D02*
X137158410Y-69224390D01*
X137110790Y-69295819D01*
X137063171Y-69343438D01*
X137015552Y-69367247D01*
%TO.C,R4*%
X148850076Y-81769390D02*
X148683410Y-81531295D01*
X148564362Y-81769390D02*
X148564362Y-81269390D01*
X148754838Y-81269390D01*
X148802457Y-81293200D01*
X148826267Y-81317009D01*
X148850076Y-81364628D01*
X148850076Y-81436057D01*
X148826267Y-81483676D01*
X148802457Y-81507485D01*
X148754838Y-81531295D01*
X148564362Y-81531295D01*
X149278648Y-81436057D02*
X149278648Y-81769390D01*
X149159600Y-81245580D02*
X149040552Y-81602723D01*
X149350076Y-81602723D01*
%TO.C,R6*%
X141380076Y-83699390D02*
X141213410Y-83461295D01*
X141094362Y-83699390D02*
X141094362Y-83199390D01*
X141284838Y-83199390D01*
X141332457Y-83223200D01*
X141356267Y-83247009D01*
X141380076Y-83294628D01*
X141380076Y-83366057D01*
X141356267Y-83413676D01*
X141332457Y-83437485D01*
X141284838Y-83461295D01*
X141094362Y-83461295D01*
X141808648Y-83199390D02*
X141713410Y-83199390D01*
X141665790Y-83223200D01*
X141641981Y-83247009D01*
X141594362Y-83318438D01*
X141570552Y-83413676D01*
X141570552Y-83604152D01*
X141594362Y-83651771D01*
X141618171Y-83675580D01*
X141665790Y-83699390D01*
X141761029Y-83699390D01*
X141808648Y-83675580D01*
X141832457Y-83651771D01*
X141856267Y-83604152D01*
X141856267Y-83485104D01*
X141832457Y-83437485D01*
X141808648Y-83413676D01*
X141761029Y-83389866D01*
X141665790Y-83389866D01*
X141618171Y-83413676D01*
X141594362Y-83437485D01*
X141570552Y-83485104D01*
%TO.C,C14*%
D12*
X137930552Y-90120342D02*
X137882933Y-90167961D01*
X137740076Y-90215580D01*
X137644838Y-90215580D01*
X137501981Y-90167961D01*
X137406743Y-90072723D01*
X137359124Y-89977485D01*
X137311505Y-89787009D01*
X137311505Y-89644152D01*
X137359124Y-89453676D01*
X137406743Y-89358438D01*
X137501981Y-89263200D01*
X137644838Y-89215580D01*
X137740076Y-89215580D01*
X137882933Y-89263200D01*
X137930552Y-89310819D01*
X138882933Y-90215580D02*
X138311505Y-90215580D01*
X138597219Y-90215580D02*
X138597219Y-89215580D01*
X138501981Y-89358438D01*
X138406743Y-89453676D01*
X138311505Y-89501295D01*
X139740076Y-89548914D02*
X139740076Y-90215580D01*
X139501981Y-89167961D02*
X139263886Y-89882247D01*
X139882933Y-89882247D01*
%TO.C,C17*%
X145550552Y-90340342D02*
X145502933Y-90387961D01*
X145360076Y-90435580D01*
X145264838Y-90435580D01*
X145121981Y-90387961D01*
X145026743Y-90292723D01*
X144979124Y-90197485D01*
X144931505Y-90007009D01*
X144931505Y-89864152D01*
X144979124Y-89673676D01*
X145026743Y-89578438D01*
X145121981Y-89483200D01*
X145264838Y-89435580D01*
X145360076Y-89435580D01*
X145502933Y-89483200D01*
X145550552Y-89530819D01*
X146502933Y-90435580D02*
X145931505Y-90435580D01*
X146217219Y-90435580D02*
X146217219Y-89435580D01*
X146121981Y-89578438D01*
X146026743Y-89673676D01*
X145931505Y-89721295D01*
X146836267Y-89435580D02*
X147502933Y-89435580D01*
X147074362Y-90435580D01*
%TD*%
M02*
