G04 #@! TF.FileFunction,Copper,L1,Top*
%FSLAX46Y46*%
G04 Gerber Fmt 4.6, Leading zero omitted, Abs format (unit mm)*
G04 Created by KiCad (PCBNEW 4.0.6) date Wed Apr  3 14:00:51 2019*
%MOMM*%
%LPD*%
G01*
G04 APERTURE LIST*
%ADD10C,0.100000*%
%ADD11C,1.500000*%
%ADD12C,3.000000*%
%ADD13R,1.060000X0.650000*%
%ADD14R,1.000000X2.500000*%
%ADD15R,0.600000X0.400000*%
%ADD16R,1.250000X1.000000*%
%ADD17R,0.450000X1.050000*%
%ADD18R,0.895000X1.470000*%
%ADD19R,0.900000X0.500000*%
%ADD20R,0.800000X0.750000*%
%ADD21R,2.500000X1.000000*%
%ADD22R,0.750000X0.800000*%
%ADD23R,0.500000X0.900000*%
%ADD24R,1.000000X1.250000*%
%ADD25R,1.450000X0.450000*%
%ADD26R,1.200000X1.200000*%
%ADD27R,0.400000X0.600000*%
%ADD28R,1.700000X1.700000*%
%ADD29O,1.700000X1.700000*%
%ADD30C,0.600000*%
%ADD31C,0.500000*%
%ADD32C,0.200000*%
%ADD33C,0.250000*%
%ADD34C,0.254000*%
G04 APERTURE END LIST*
D10*
D11*
X14630400Y14020800D03*
D12*
X17030700Y3238500D03*
D13*
X8869500Y30477500D03*
X8869500Y29527500D03*
X8869500Y28577500D03*
X11069500Y28577500D03*
X11069500Y30477500D03*
X11069500Y29527500D03*
D14*
X7215000Y29781500D03*
X4215000Y29781500D03*
D15*
X6858000Y10802200D03*
X6858000Y11702200D03*
D16*
X8420100Y19599400D03*
X8420100Y21599400D03*
D17*
X10069400Y17316400D03*
X10719400Y17316400D03*
X11369400Y17316400D03*
X12019400Y17316400D03*
X12669400Y17316400D03*
X13319400Y17316400D03*
X13969400Y17316400D03*
X14619400Y17316400D03*
X14619400Y22866400D03*
X13969400Y22866400D03*
X13319400Y22866400D03*
X12669400Y22866400D03*
X12019400Y22866400D03*
X11369400Y22866400D03*
X10719400Y22866400D03*
X10069400Y22866400D03*
D18*
X13686900Y20826400D03*
X12791900Y20826400D03*
X11896900Y20826400D03*
X11001900Y20826400D03*
X13686900Y19356400D03*
X12791900Y19356400D03*
X11896900Y19356400D03*
X11001900Y19356400D03*
D19*
X9144000Y15177200D03*
X9144000Y13677200D03*
D20*
X10362500Y26987500D03*
X11862500Y26987500D03*
D21*
X14160500Y30583000D03*
X14160500Y27583000D03*
D16*
X16700500Y28813000D03*
X16700500Y26813000D03*
D14*
X7215000Y26035000D03*
X4215000Y26035000D03*
D22*
X6769100Y19849400D03*
X6769100Y21349400D03*
D15*
X14478000Y11691200D03*
X14478000Y12591200D03*
X6858000Y12580200D03*
X6858000Y13480200D03*
X14478000Y9913200D03*
X14478000Y10813200D03*
D23*
X16395000Y30480000D03*
X17895000Y30480000D03*
D19*
X8826500Y25602500D03*
X8826500Y27102500D03*
X6197600Y17055400D03*
X6197600Y18555400D03*
D24*
X12811000Y14046200D03*
X10811000Y14046200D03*
D25*
X12868000Y10150200D03*
X12868000Y10800200D03*
X12868000Y11450200D03*
X12868000Y12100200D03*
X8468000Y12100200D03*
X8468000Y11450200D03*
X8468000Y10800200D03*
X8468000Y10150200D03*
D11*
X18288000Y18796000D03*
X18288000Y16256000D03*
X18288000Y11176000D03*
X18288000Y13716000D03*
X7239000Y23469600D03*
X8102600Y17741900D03*
X6858000Y14986000D03*
D12*
X2743200Y6540500D03*
X21132800Y6540500D03*
X6858000Y3238500D03*
X11938000Y3238500D03*
D16*
X19812000Y26178000D03*
X19812000Y28178000D03*
D19*
X19812000Y23864000D03*
X19812000Y22364000D03*
D11*
X17780000Y25146000D03*
D21*
X2794000Y12320400D03*
X2794000Y9320400D03*
D14*
X15822800Y8026400D03*
X18822800Y8026400D03*
D16*
X5334000Y9363200D03*
X5334000Y11363200D03*
D24*
X13090400Y8229600D03*
X11090400Y8229600D03*
D26*
X3048000Y17356000D03*
X3048000Y15156000D03*
D15*
X3048000Y18727000D03*
X3048000Y19627000D03*
X6858000Y9949600D03*
X6858000Y9049600D03*
X14478000Y9035200D03*
X14478000Y8135200D03*
X11379200Y25037200D03*
X11379200Y24137200D03*
X10312400Y24137200D03*
X10312400Y25037200D03*
X14528800Y25392800D03*
X14528800Y24492800D03*
X13462000Y24492800D03*
X13462000Y25392800D03*
D27*
X15552000Y23215600D03*
X16452000Y23215600D03*
X15552000Y21767800D03*
X16452000Y21767800D03*
D28*
X21082000Y18796000D03*
D29*
X21082000Y16256000D03*
X21082000Y13716000D03*
X21082000Y11176000D03*
D30*
X8432800Y22504400D03*
X10312400Y25857200D03*
X18034000Y26822400D03*
X12598400Y25400000D03*
X3048000Y13716000D03*
X11480800Y11430000D03*
X12791900Y19356400D03*
X19812000Y29464000D03*
X7874000Y13157200D03*
X14160500Y29083000D03*
X5715000Y26035000D03*
X5715000Y29781500D03*
X13686900Y20826400D03*
X12791900Y20826400D03*
X11896900Y20826400D03*
X11896900Y19356400D03*
X11001900Y19356400D03*
X11001900Y20826400D03*
X12598400Y15849600D03*
X13686900Y19356400D03*
X16459200Y22606000D03*
X19050000Y25222200D03*
X6197600Y16306800D03*
X19050000Y24511000D03*
X19812000Y24485600D03*
X19812000Y25222200D03*
X10515600Y15544800D03*
X17907000Y29286200D03*
X12801600Y12877800D03*
X5740400Y23469600D03*
X12852400Y9499600D03*
X9753600Y10820400D03*
X18948400Y20726400D03*
X15392400Y24231600D03*
X12522200Y24231600D03*
D31*
X8869500Y28577500D02*
X9420900Y28577500D01*
X9420900Y28577500D02*
X10362500Y27635900D01*
X10362500Y27635900D02*
X10362500Y26987500D01*
D32*
X8420100Y21599400D02*
X8420100Y22491700D01*
X8420100Y22491700D02*
X8432800Y22504400D01*
D33*
X10312400Y25037200D02*
X10312400Y25857200D01*
X16700500Y26813000D02*
X18024600Y26813000D01*
X18024600Y26813000D02*
X18034000Y26822400D01*
X13462000Y25392800D02*
X12605600Y25392800D01*
X12605600Y25392800D02*
X12598400Y25400000D01*
X3048000Y15156000D02*
X3048000Y13716000D01*
X12868000Y11450200D02*
X12847800Y11430000D01*
X12847800Y11430000D02*
X11480800Y11430000D01*
D31*
X19812000Y28178000D02*
X19812000Y29464000D01*
D33*
X8468000Y12100200D02*
X8468000Y12563200D01*
X8468000Y12563200D02*
X7874000Y13157200D01*
D31*
X14160500Y27583000D02*
X14160500Y29083000D01*
X4215000Y26035000D02*
X5715000Y26035000D01*
X4215000Y29781500D02*
X5715000Y29781500D01*
D33*
X12019400Y17316400D02*
X12019400Y16428600D01*
X18288000Y16256000D02*
X21082000Y16256000D01*
X12019400Y16428600D02*
X12598400Y15849600D01*
D31*
X16700500Y28813000D02*
X16700500Y29273500D01*
X16700500Y29273500D02*
X16395000Y29579000D01*
X16395000Y29579000D02*
X16395000Y30480000D01*
X16395000Y30480000D02*
X14263500Y30480000D01*
X14263500Y30480000D02*
X14160500Y30583000D01*
X14160500Y30583000D02*
X14184500Y30607000D01*
X11938000Y30480000D02*
X12041000Y30583000D01*
X11072000Y30480000D02*
X11938000Y30480000D01*
X12041000Y30583000D02*
X14160500Y30583000D01*
X11069500Y30477500D02*
X11072000Y30480000D01*
X8869500Y30477500D02*
X11069500Y30477500D01*
D33*
X14528800Y25392800D02*
X14528800Y25654000D01*
X11379200Y25501600D02*
X11379200Y25037200D01*
X11912600Y26035000D02*
X11379200Y25501600D01*
X14147800Y26035000D02*
X11912600Y26035000D01*
X14528800Y25654000D02*
X14147800Y26035000D01*
X16452000Y23215600D02*
X16452000Y22613200D01*
X16452000Y22613200D02*
X16459200Y22606000D01*
X14528800Y25342000D02*
X17584000Y25342000D01*
X17584000Y25342000D02*
X17780000Y25146000D01*
X17780000Y25146000D02*
X19050000Y25146000D01*
X19050000Y25146000D02*
X19050000Y25222200D01*
X6197600Y16383000D02*
X5461000Y16383000D01*
X3048000Y19939000D02*
X3048000Y19627000D01*
X3429000Y20320000D02*
X3048000Y19939000D01*
X4191000Y20320000D02*
X3429000Y20320000D01*
X4699000Y19812000D02*
X4191000Y20320000D01*
X4699000Y17145000D02*
X4699000Y19812000D01*
X5461000Y16383000D02*
X4699000Y17145000D01*
X19050000Y25222200D02*
X19050000Y24511000D01*
X19075400Y24485600D02*
X19050000Y24511000D01*
X19075400Y24485600D02*
X19812000Y24485600D01*
X19812000Y23864000D02*
X19812000Y24485600D01*
X19812000Y24485600D02*
X19812000Y25222200D01*
X19050000Y25222200D02*
X19812000Y25222200D01*
X19812000Y25222200D02*
X19812000Y26178000D01*
X9144000Y15177200D02*
X10148000Y15177200D01*
X10148000Y15177200D02*
X10515600Y15544800D01*
X6197600Y17055400D02*
X6197600Y16383000D01*
X6197600Y16383000D02*
X6197600Y16306800D01*
D31*
X17895000Y30480000D02*
X17895000Y29298200D01*
X17895000Y29298200D02*
X17907000Y29286200D01*
D33*
X10069400Y22866400D02*
X10069400Y20363000D01*
X10069400Y20363000D02*
X9305800Y19599400D01*
X8420100Y19599400D02*
X9305800Y19599400D01*
X9661400Y19243800D02*
X9661400Y18583400D01*
X10007600Y18237200D02*
X9661400Y18583400D01*
X12446000Y18237200D02*
X10007600Y18237200D01*
X12669400Y18013800D02*
X12446000Y18237200D01*
X12669400Y17316400D02*
X12669400Y18013800D01*
X9305800Y19599400D02*
X9661400Y19243800D01*
X6769100Y19849400D02*
X7227000Y19849400D01*
X7477000Y19599400D02*
X8420100Y19599400D01*
X7227000Y19849400D02*
X7477000Y19599400D01*
X6197600Y18555400D02*
X6197600Y18948400D01*
X6769100Y19316700D02*
X6769100Y19849400D01*
X6604000Y19151600D02*
X6769100Y19316700D01*
X6400800Y19151600D02*
X6604000Y19151600D01*
X6197600Y18948400D02*
X6400800Y19151600D01*
X10718800Y22865800D02*
X10718800Y22199600D01*
X10972800Y21945600D02*
X10718800Y22199600D01*
X13319400Y22260200D02*
X13319400Y22866400D01*
X13319400Y22260200D02*
X13004800Y21945600D01*
X13004800Y21945600D02*
X10972800Y21945600D01*
X10718800Y22865800D02*
X10719400Y22866400D01*
X10069400Y22866400D02*
X10719400Y22866400D01*
D31*
X11069500Y28577500D02*
X11069500Y28071900D01*
X11862500Y27532900D02*
X11862500Y26987500D01*
X11582400Y27813000D02*
X11862500Y27532900D01*
X11328400Y27813000D02*
X11582400Y27813000D01*
X11069500Y28071900D02*
X11328400Y27813000D01*
D33*
X11069500Y28577500D02*
X11049000Y28557000D01*
D31*
X8869500Y29527500D02*
X7469000Y29527500D01*
X7469000Y29527500D02*
X7215000Y29781500D01*
X7264400Y29732100D02*
X7264400Y28194000D01*
X8826500Y27673300D02*
X8826500Y27102500D01*
X8712200Y27787600D02*
X7670800Y27787600D01*
X8826500Y27673300D02*
X8712200Y27787600D01*
X7264400Y28194000D02*
X7670800Y27787600D01*
X7264400Y29732100D02*
X7215000Y29781500D01*
X8826500Y25602500D02*
X7647500Y25602500D01*
X7647500Y25602500D02*
X7215000Y26035000D01*
D33*
X12868000Y12100200D02*
X12868000Y12354200D01*
D31*
X12811000Y12887200D02*
X12801600Y12877800D01*
X12811000Y12887200D02*
X12811000Y14046200D01*
D33*
X12801600Y12420600D02*
X12801600Y12877800D01*
X12868000Y12354200D02*
X12801600Y12420600D01*
D31*
X7239000Y23469600D02*
X5740400Y23469600D01*
X7239000Y23469600D02*
X7213600Y23469600D01*
X7239000Y23469600D02*
X7239000Y26011000D01*
X7239000Y26011000D02*
X7215000Y26035000D01*
D33*
X12868000Y13989200D02*
X12811000Y14046200D01*
X7239000Y26011000D02*
X7215000Y26035000D01*
X7215000Y26035000D02*
X7175500Y25995500D01*
X8826500Y25602500D02*
X8814500Y25590500D01*
X12852400Y9499600D02*
X12852400Y10134600D01*
X12852400Y10134600D02*
X12868000Y10150200D01*
X14478000Y9035200D02*
X14478000Y9913200D01*
X14478000Y9913200D02*
X14594000Y9913200D01*
X12868000Y10150200D02*
X13776600Y10150200D01*
X14013600Y9913200D02*
X14478000Y9913200D01*
X13776600Y10150200D02*
X14013600Y9913200D01*
X10210800Y10160000D02*
X10811000Y10760200D01*
X8477800Y10160000D02*
X10210800Y10160000D01*
X10811000Y10760200D02*
X10811000Y14046200D01*
X8468000Y10150200D02*
X8477800Y10160000D01*
X10811000Y14046200D02*
X10134600Y14046200D01*
X10134600Y14046200D02*
X9765600Y13677200D01*
X9765600Y13677200D02*
X9144000Y13677200D01*
X9753600Y10820400D02*
X8488200Y10820400D01*
X8488200Y10820400D02*
X8468000Y10800200D01*
X6858000Y9949600D02*
X6858000Y10802200D01*
X6858000Y10802200D02*
X8466000Y10802200D01*
X8466000Y10802200D02*
X8468000Y10800200D01*
X8102600Y17741900D02*
X9080500Y17741900D01*
X9506000Y17316400D02*
X10069400Y17316400D01*
X9080500Y17741900D02*
X9506000Y17316400D01*
X8547100Y17741900D02*
X8102600Y17741900D01*
X6858000Y13480200D02*
X6858000Y14986000D01*
X6858000Y14986000D02*
X8128000Y16256000D01*
X11369400Y16551000D02*
X11369400Y17316400D01*
X11074400Y16256000D02*
X11369400Y16551000D01*
X8128000Y16256000D02*
X11074400Y16256000D01*
X14478000Y12591200D02*
X14478000Y13868400D01*
X14478000Y13868400D02*
X14630400Y14020800D01*
X13969400Y17316400D02*
X13969400Y15697800D01*
X14630400Y15036800D02*
X14630400Y14020800D01*
X13969400Y15697800D02*
X14630400Y15036800D01*
X18288000Y13716000D02*
X16560800Y15443200D01*
X16560800Y15443200D02*
X16560800Y16459200D01*
X16560800Y16459200D02*
X15703600Y17316400D01*
X15703600Y17316400D02*
X14619400Y17316400D01*
X18288000Y13716000D02*
X21082000Y13716000D01*
X18948400Y20726400D02*
X18288000Y21386800D01*
X18288000Y21386800D02*
X18288000Y22555200D01*
X18288000Y22555200D02*
X16611600Y24231600D01*
X16611600Y24231600D02*
X15392400Y24231600D01*
X12019400Y22866400D02*
X12019400Y23728800D01*
X12019400Y23728800D02*
X12522200Y24231600D01*
X17627600Y11176000D02*
X18288000Y11176000D01*
X18288000Y11176000D02*
X17678400Y11176000D01*
X18288000Y11176000D02*
X18288000Y11811000D01*
X18288000Y11176000D02*
X17932400Y11176000D01*
X18288000Y11176000D02*
X21082000Y11176000D01*
D31*
X21082000Y18796000D02*
X21082000Y20320000D01*
X19812000Y21590000D02*
X19812000Y22364000D01*
X21082000Y20320000D02*
X19812000Y21590000D01*
D33*
X18288000Y18796000D02*
X21082000Y18796000D01*
X6858000Y11702200D02*
X6469800Y11702200D01*
X6130800Y11363200D02*
X5334000Y11363200D01*
X6469800Y11702200D02*
X6130800Y11363200D01*
X2794000Y12320400D02*
X5002400Y12320400D01*
X5002400Y12320400D02*
X5334000Y11988800D01*
X5334000Y11988800D02*
X5334000Y11363200D01*
X6858000Y11702200D02*
X7195400Y11702200D01*
X7447400Y11450200D02*
X8468000Y11450200D01*
X7195400Y11702200D02*
X7447400Y11450200D01*
X6858000Y12580200D02*
X6858000Y11702200D01*
X14478000Y10813200D02*
X14942400Y10813200D01*
X15822800Y9932800D02*
X15822800Y8026400D01*
X14942400Y10813200D02*
X15822800Y9932800D01*
X11090400Y8229600D02*
X11090400Y9871200D01*
X12019400Y10800200D02*
X12868000Y10800200D01*
X11090400Y9871200D02*
X12019400Y10800200D01*
X14478000Y11691200D02*
X14478000Y10813200D01*
X12868000Y10800200D02*
X14465000Y10800200D01*
X5334000Y9363200D02*
X6029200Y9363200D01*
X6342800Y9049600D02*
X6858000Y9049600D01*
X6029200Y9363200D02*
X6342800Y9049600D01*
X13090400Y8229600D02*
X13919200Y8229600D01*
X14013600Y8135200D02*
X14478000Y8135200D01*
X13919200Y8229600D02*
X14013600Y8135200D01*
X3048000Y18727000D02*
X3048000Y17356000D01*
X11379200Y24137200D02*
X10312400Y24137200D01*
X11369400Y22866400D02*
X11369400Y24127400D01*
X11369400Y24127400D02*
X11379200Y24137200D01*
X13462000Y24492800D02*
X14528800Y24492800D01*
X13462000Y24492800D02*
X13462000Y24180800D01*
X13462000Y24180800D02*
X13106400Y23825200D01*
X13106400Y23825200D02*
X12954000Y23825200D01*
X12954000Y23825200D02*
X12669400Y23540600D01*
X12669400Y23540600D02*
X12669400Y22866400D01*
X15552000Y21767800D02*
X15552000Y23215600D01*
X13969400Y22866400D02*
X13969400Y23621400D01*
X13969400Y23621400D02*
X14173200Y23825200D01*
X14173200Y23825200D02*
X14935200Y23825200D01*
X14935200Y23825200D02*
X15189200Y23571200D01*
X15189200Y23571200D02*
X15189200Y23317200D01*
X15189200Y23317200D02*
X15290800Y23215600D01*
X15290800Y23215600D02*
X15552000Y23215600D01*
D34*
G36*
X17782000Y22345608D02*
X17782000Y21386800D01*
X17820517Y21193162D01*
X17930204Y21029004D01*
X18267369Y20691839D01*
X18267282Y20591535D01*
X18370739Y20341148D01*
X18562141Y20149413D01*
X18812346Y20045518D01*
X19083265Y20045282D01*
X19333652Y20148739D01*
X19525387Y20340141D01*
X19629282Y20590346D01*
X19629518Y20861265D01*
X19616246Y20893386D01*
X20451000Y20058631D01*
X20451000Y20034464D01*
X20232000Y20034464D01*
X20090810Y20007897D01*
X19961135Y19924454D01*
X19874141Y19797134D01*
X19843536Y19646000D01*
X19843536Y19302000D01*
X19302669Y19302000D01*
X19247375Y19435823D01*
X18929497Y19754256D01*
X18513957Y19926804D01*
X18064017Y19927196D01*
X17648177Y19755375D01*
X17329744Y19437497D01*
X17157196Y19021957D01*
X17156804Y18572017D01*
X17328625Y18156177D01*
X17646503Y17837744D01*
X18062043Y17665196D01*
X18511983Y17664804D01*
X18927823Y17836625D01*
X19246256Y18154503D01*
X19302520Y18290000D01*
X19843536Y18290000D01*
X19843536Y17946000D01*
X19870103Y17804810D01*
X19953546Y17675135D01*
X20080866Y17588141D01*
X20232000Y17557536D01*
X21932000Y17557536D01*
X22073190Y17584103D01*
X22202865Y17667546D01*
X22289859Y17794866D01*
X22320464Y17946000D01*
X22320464Y19646000D01*
X22293897Y19787190D01*
X22210454Y19916865D01*
X22083134Y20003859D01*
X21932000Y20034464D01*
X21713000Y20034464D01*
X21713000Y20320000D01*
X21669768Y20537340D01*
X21731846Y20495861D01*
X21896225Y20427773D01*
X22404000Y20326770D01*
X22404000Y7978032D01*
X22397362Y7984670D01*
X22328637Y7915945D01*
X22154865Y8163317D01*
X21456040Y8430915D01*
X20708004Y8410714D01*
X20110735Y8163317D01*
X19936962Y7915944D01*
X21132800Y6720105D01*
X21146942Y6734248D01*
X21326548Y6554642D01*
X21312405Y6540500D01*
X21326548Y6526358D01*
X21146942Y6346752D01*
X21132800Y6360895D01*
X19936962Y5165056D01*
X20110735Y4917683D01*
X20809560Y4650085D01*
X21557596Y4670286D01*
X22154865Y4917683D01*
X22328637Y5165055D01*
X22397362Y5096330D01*
X22404000Y5102968D01*
X22404000Y837000D01*
X1472000Y837000D01*
X1472000Y2865987D01*
X4976674Y2865987D01*
X5262436Y2174391D01*
X5791108Y1644796D01*
X6482204Y1357827D01*
X7230513Y1357174D01*
X7922109Y1642936D01*
X8451704Y2171608D01*
X8738673Y2862704D01*
X8738675Y2865987D01*
X10056674Y2865987D01*
X10342436Y2174391D01*
X10871108Y1644796D01*
X11562204Y1357827D01*
X12310513Y1357174D01*
X13002109Y1642936D01*
X13531704Y2171608D01*
X13818673Y2862704D01*
X13818675Y2865987D01*
X15149374Y2865987D01*
X15435136Y2174391D01*
X15963808Y1644796D01*
X16654904Y1357827D01*
X17403213Y1357174D01*
X18094809Y1642936D01*
X18624404Y2171608D01*
X18911373Y2862704D01*
X18912026Y3611013D01*
X18626264Y4302609D01*
X18097592Y4832204D01*
X17406496Y5119173D01*
X16658187Y5119826D01*
X15966591Y4834064D01*
X15436996Y4305392D01*
X15150027Y3614296D01*
X15149374Y2865987D01*
X13818675Y2865987D01*
X13819326Y3611013D01*
X13533564Y4302609D01*
X13004892Y4832204D01*
X12313796Y5119173D01*
X11565487Y5119826D01*
X10873891Y4834064D01*
X10344296Y4305392D01*
X10057327Y3614296D01*
X10056674Y2865987D01*
X8738675Y2865987D01*
X8739326Y3611013D01*
X8453564Y4302609D01*
X7924892Y4832204D01*
X7233796Y5119173D01*
X6485487Y5119826D01*
X5793891Y4834064D01*
X5264296Y4305392D01*
X4977327Y3614296D01*
X4976674Y2865987D01*
X1472000Y2865987D01*
X1472000Y5102968D01*
X1478638Y5096330D01*
X1547363Y5165055D01*
X1721135Y4917683D01*
X2419960Y4650085D01*
X3167996Y4670286D01*
X3765265Y4917683D01*
X3939038Y5165056D01*
X2743200Y6360895D01*
X2729058Y6346752D01*
X2549452Y6526358D01*
X2563595Y6540500D01*
X2922805Y6540500D01*
X4118644Y5344662D01*
X4366017Y5518435D01*
X4633615Y6217260D01*
X4613414Y6965296D01*
X4366017Y7562565D01*
X4118644Y7736338D01*
X2922805Y6540500D01*
X2563595Y6540500D01*
X2549452Y6554642D01*
X2729058Y6734248D01*
X2743200Y6720105D01*
X3939038Y7915944D01*
X3765265Y8163317D01*
X3066440Y8430915D01*
X2318404Y8410714D01*
X1721135Y8163317D01*
X1547363Y7915945D01*
X1478638Y7984670D01*
X1472000Y7978032D01*
X1472000Y8439400D01*
X2571750Y8439400D01*
X2667000Y8534650D01*
X2667000Y9193400D01*
X2647000Y9193400D01*
X2647000Y9447400D01*
X2667000Y9447400D01*
X2667000Y10106150D01*
X2571750Y10201400D01*
X1472000Y10201400D01*
X1472000Y11446516D01*
X1544000Y11431936D01*
X4044000Y11431936D01*
X4185190Y11458503D01*
X4314865Y11541946D01*
X4320536Y11550246D01*
X4320536Y10863200D01*
X4347103Y10722010D01*
X4430546Y10592335D01*
X4557866Y10505341D01*
X4709000Y10474736D01*
X5959000Y10474736D01*
X6100190Y10501303D01*
X6178981Y10552003D01*
X6196103Y10461010D01*
X6251175Y10375425D01*
X6200141Y10300734D01*
X6175028Y10176719D01*
X6110134Y10221059D01*
X5959000Y10251664D01*
X4709000Y10251664D01*
X4567810Y10225097D01*
X4438135Y10141654D01*
X4366461Y10036755D01*
X4259819Y10143396D01*
X4119785Y10201400D01*
X3016250Y10201400D01*
X2921000Y10106150D01*
X2921000Y9447400D01*
X2941000Y9447400D01*
X2941000Y9193400D01*
X2921000Y9193400D01*
X2921000Y8534650D01*
X3016250Y8439400D01*
X4119785Y8439400D01*
X4259819Y8497404D01*
X4366996Y8604580D01*
X4388798Y8657214D01*
X4430546Y8592335D01*
X4557866Y8505341D01*
X4709000Y8474736D01*
X5959000Y8474736D01*
X6100190Y8501303D01*
X6207688Y8570475D01*
X6326109Y8546920D01*
X6406866Y8491741D01*
X6558000Y8461136D01*
X7158000Y8461136D01*
X7299190Y8487703D01*
X7428865Y8571146D01*
X7515859Y8698466D01*
X7546464Y8849600D01*
X7546464Y9249600D01*
X7519897Y9390790D01*
X7449117Y9500786D01*
X7515859Y9598466D01*
X7519561Y9616745D01*
X7591866Y9567341D01*
X7743000Y9536736D01*
X9193000Y9536736D01*
X9334190Y9563303D01*
X9463865Y9646746D01*
X9468821Y9654000D01*
X10210800Y9654000D01*
X10404438Y9692517D01*
X10568596Y9802204D01*
X10584400Y9818008D01*
X10584400Y9241935D01*
X10449210Y9216497D01*
X10319535Y9133054D01*
X10232541Y9005734D01*
X10201936Y8854600D01*
X10201936Y7604600D01*
X10228503Y7463410D01*
X10311946Y7333735D01*
X10439266Y7246741D01*
X10590400Y7216136D01*
X11590400Y7216136D01*
X11731590Y7242703D01*
X11861265Y7326146D01*
X11948259Y7453466D01*
X11978864Y7604600D01*
X11978864Y8854600D01*
X11952297Y8995790D01*
X11868854Y9125465D01*
X11741534Y9212459D01*
X11596400Y9241849D01*
X11596400Y9661608D01*
X11771237Y9836445D01*
X11781103Y9784010D01*
X11864546Y9654335D01*
X11991866Y9567341D01*
X12143000Y9536736D01*
X12171432Y9536736D01*
X12171282Y9364735D01*
X12274739Y9114348D01*
X12293745Y9095309D01*
X12232541Y9005734D01*
X12201936Y8854600D01*
X12201936Y7604600D01*
X12228503Y7463410D01*
X12311946Y7333735D01*
X12439266Y7246741D01*
X12590400Y7216136D01*
X13590400Y7216136D01*
X13731590Y7242703D01*
X13861265Y7326146D01*
X13948259Y7453466D01*
X13978864Y7604600D01*
X13978864Y7610139D01*
X14026866Y7577341D01*
X14178000Y7546736D01*
X14778000Y7546736D01*
X14919190Y7573303D01*
X14934336Y7583049D01*
X14934336Y6776400D01*
X14960903Y6635210D01*
X15044346Y6505535D01*
X15171666Y6418541D01*
X15322800Y6387936D01*
X16322800Y6387936D01*
X16463990Y6414503D01*
X16593665Y6497946D01*
X16680659Y6625266D01*
X16711264Y6776400D01*
X16711264Y7804150D01*
X17941800Y7804150D01*
X17941800Y6700615D01*
X17999804Y6560581D01*
X18106980Y6453404D01*
X18247014Y6395400D01*
X18600550Y6395400D01*
X18695800Y6490650D01*
X18695800Y7899400D01*
X18949800Y7899400D01*
X18949800Y6490650D01*
X19045050Y6395400D01*
X19255033Y6395400D01*
X19262586Y6115704D01*
X19509983Y5518435D01*
X19757356Y5344662D01*
X20953195Y6540500D01*
X19757356Y7736338D01*
X19703800Y7698716D01*
X19703800Y7804150D01*
X19608550Y7899400D01*
X18949800Y7899400D01*
X18695800Y7899400D01*
X18037050Y7899400D01*
X17941800Y7804150D01*
X16711264Y7804150D01*
X16711264Y9276400D01*
X16697004Y9352185D01*
X17941800Y9352185D01*
X17941800Y8248650D01*
X18037050Y8153400D01*
X18695800Y8153400D01*
X18695800Y9562150D01*
X18949800Y9562150D01*
X18949800Y8153400D01*
X19608550Y8153400D01*
X19703800Y8248650D01*
X19703800Y9352185D01*
X19645796Y9492219D01*
X19538620Y9599396D01*
X19398586Y9657400D01*
X19045050Y9657400D01*
X18949800Y9562150D01*
X18695800Y9562150D01*
X18600550Y9657400D01*
X18247014Y9657400D01*
X18106980Y9599396D01*
X17999804Y9492219D01*
X17941800Y9352185D01*
X16697004Y9352185D01*
X16684697Y9417590D01*
X16601254Y9547265D01*
X16473934Y9634259D01*
X16328800Y9663649D01*
X16328800Y9932800D01*
X16290283Y10126438D01*
X16180596Y10290596D01*
X15300196Y11170996D01*
X15292707Y11176000D01*
X17121600Y11176000D01*
X17156845Y10998813D01*
X17156804Y10952017D01*
X17328625Y10536177D01*
X17646503Y10217744D01*
X18062043Y10045196D01*
X18511983Y10044804D01*
X18927823Y10216625D01*
X19246256Y10534503D01*
X19302520Y10670000D01*
X19943918Y10670000D01*
X20187435Y10305552D01*
X20586800Y10038704D01*
X21057883Y9945000D01*
X21106117Y9945000D01*
X21577200Y10038704D01*
X21976565Y10305552D01*
X22243413Y10704917D01*
X22337117Y11176000D01*
X22243413Y11647083D01*
X21976565Y12046448D01*
X21577200Y12313296D01*
X21106117Y12407000D01*
X21057883Y12407000D01*
X20586800Y12313296D01*
X20187435Y12046448D01*
X19943918Y11682000D01*
X19302669Y11682000D01*
X19247375Y11815823D01*
X18929497Y12134256D01*
X18513957Y12306804D01*
X18338490Y12306957D01*
X18288000Y12317000D01*
X18237950Y12307044D01*
X18064017Y12307196D01*
X17648177Y12135375D01*
X17329744Y11817497D01*
X17157196Y11401957D01*
X17157155Y11354746D01*
X17121600Y11176000D01*
X15292707Y11176000D01*
X15136038Y11280683D01*
X15100160Y11287819D01*
X15135859Y11340066D01*
X15166464Y11491200D01*
X15166464Y11891200D01*
X15139897Y12032390D01*
X15069117Y12142386D01*
X15135859Y12240066D01*
X15166464Y12391200D01*
X15166464Y12791200D01*
X15139897Y12932390D01*
X15101678Y12991784D01*
X15270223Y13061425D01*
X15588656Y13379303D01*
X15761204Y13794843D01*
X15761596Y14244783D01*
X15589775Y14660623D01*
X15271897Y14979056D01*
X15136400Y15035320D01*
X15136400Y15036800D01*
X15097883Y15230438D01*
X14988196Y15394596D01*
X14475400Y15907392D01*
X14475400Y16402936D01*
X14844400Y16402936D01*
X14985590Y16429503D01*
X15115265Y16512946D01*
X15202259Y16640266D01*
X15232864Y16791400D01*
X15232864Y16810400D01*
X15494008Y16810400D01*
X16054800Y16249608D01*
X16054800Y15443200D01*
X16093317Y15249562D01*
X16203004Y15085404D01*
X17212724Y14075684D01*
X17157196Y13941957D01*
X17156804Y13492017D01*
X17328625Y13076177D01*
X17646503Y12757744D01*
X18062043Y12585196D01*
X18511983Y12584804D01*
X18927823Y12756625D01*
X19246256Y13074503D01*
X19302520Y13210000D01*
X19943918Y13210000D01*
X20187435Y12845552D01*
X20586800Y12578704D01*
X21057883Y12485000D01*
X21106117Y12485000D01*
X21577200Y12578704D01*
X21976565Y12845552D01*
X22243413Y13244917D01*
X22337117Y13716000D01*
X22243413Y14187083D01*
X21976565Y14586448D01*
X21577200Y14853296D01*
X21106117Y14947000D01*
X21057883Y14947000D01*
X20586800Y14853296D01*
X20187435Y14586448D01*
X19943918Y14222000D01*
X19302669Y14222000D01*
X19247375Y14355823D01*
X18929497Y14674256D01*
X18513957Y14846804D01*
X18064017Y14847196D01*
X17928422Y14791170D01*
X17296038Y15423554D01*
X17635159Y15423554D01*
X17717059Y15254102D01*
X18143930Y15111877D01*
X18592733Y15143836D01*
X18858941Y15254102D01*
X18940841Y15423554D01*
X18288000Y16076395D01*
X17635159Y15423554D01*
X17296038Y15423554D01*
X17066800Y15652792D01*
X17066800Y16400070D01*
X17143877Y16400070D01*
X17175836Y15951267D01*
X17286102Y15685059D01*
X17455554Y15603159D01*
X18108395Y16256000D01*
X18467605Y16256000D01*
X19120446Y15603159D01*
X19289898Y15685059D01*
X19374512Y15939020D01*
X19892511Y15939020D01*
X20016755Y15639036D01*
X20333944Y15278348D01*
X20765018Y15066499D01*
X20955000Y15126807D01*
X20955000Y16129000D01*
X21209000Y16129000D01*
X21209000Y15126807D01*
X21398982Y15066499D01*
X21830056Y15278348D01*
X22147245Y15639036D01*
X22271489Y15939020D01*
X22210627Y16129000D01*
X21209000Y16129000D01*
X20955000Y16129000D01*
X19953373Y16129000D01*
X19892511Y15939020D01*
X19374512Y15939020D01*
X19432123Y16111930D01*
X19400164Y16560733D01*
X19395092Y16572980D01*
X19892511Y16572980D01*
X19953373Y16383000D01*
X20955000Y16383000D01*
X20955000Y17385193D01*
X21209000Y17385193D01*
X21209000Y16383000D01*
X22210627Y16383000D01*
X22271489Y16572980D01*
X22147245Y16872964D01*
X21830056Y17233652D01*
X21398982Y17445501D01*
X21209000Y17385193D01*
X20955000Y17385193D01*
X20765018Y17445501D01*
X20333944Y17233652D01*
X20016755Y16872964D01*
X19892511Y16572980D01*
X19395092Y16572980D01*
X19289898Y16826941D01*
X19120446Y16908841D01*
X18467605Y16256000D01*
X18108395Y16256000D01*
X17455554Y16908841D01*
X17286102Y16826941D01*
X17143877Y16400070D01*
X17066800Y16400070D01*
X17066800Y16459200D01*
X17028283Y16652838D01*
X16918596Y16816996D01*
X16647146Y17088446D01*
X17635159Y17088446D01*
X18288000Y16435605D01*
X18940841Y17088446D01*
X18858941Y17257898D01*
X18432070Y17400123D01*
X17983267Y17368164D01*
X17717059Y17257898D01*
X17635159Y17088446D01*
X16647146Y17088446D01*
X16061396Y17674196D01*
X15897238Y17783883D01*
X15703600Y17822400D01*
X15232864Y17822400D01*
X15232864Y17841400D01*
X15206297Y17982590D01*
X15122854Y18112265D01*
X14995534Y18199259D01*
X14844400Y18229864D01*
X14394400Y18229864D01*
X14290730Y18210357D01*
X14194400Y18229864D01*
X13744400Y18229864D01*
X13640730Y18210357D01*
X13544400Y18229864D01*
X13121898Y18229864D01*
X13096200Y18268324D01*
X13163615Y18240400D01*
X13464650Y18240400D01*
X13559900Y18335650D01*
X13559900Y19229400D01*
X13813900Y19229400D01*
X13813900Y18335650D01*
X13909150Y18240400D01*
X14210185Y18240400D01*
X14350219Y18298404D01*
X14457396Y18405580D01*
X14515400Y18545614D01*
X14515400Y19134150D01*
X14420150Y19229400D01*
X13813900Y19229400D01*
X13559900Y19229400D01*
X12953650Y19229400D01*
X12858400Y19134150D01*
X12858400Y18545614D01*
X12862093Y18536699D01*
X12803796Y18594996D01*
X12639638Y18704683D01*
X12446000Y18743200D01*
X11830400Y18743200D01*
X11830400Y19134150D01*
X11735150Y19229400D01*
X11128900Y19229400D01*
X11128900Y19209400D01*
X10874900Y19209400D01*
X10874900Y19229400D01*
X10268650Y19229400D01*
X10173400Y19134150D01*
X10173400Y18786992D01*
X10167400Y18792992D01*
X10167400Y19243800D01*
X10128883Y19437438D01*
X10020955Y19598963D01*
X10173400Y19751408D01*
X10173400Y19578650D01*
X10268650Y19483400D01*
X10874900Y19483400D01*
X10874900Y20604150D01*
X11068400Y20604150D01*
X11068400Y20015614D01*
X11126404Y19875580D01*
X11128900Y19873084D01*
X11128900Y19483400D01*
X11735150Y19483400D01*
X11830400Y19578650D01*
X11830400Y20604150D01*
X11769900Y20664650D01*
X11769900Y20699400D01*
X12023900Y20699400D01*
X12023900Y19805650D01*
X12119150Y19710400D01*
X12420185Y19710400D01*
X12560219Y19768404D01*
X12667396Y19875580D01*
X12725400Y20015614D01*
X12725400Y20604150D01*
X12858400Y20604150D01*
X12858400Y19578650D01*
X12953650Y19483400D01*
X13559900Y19483400D01*
X13559900Y20699400D01*
X13813900Y20699400D01*
X13813900Y19483400D01*
X14420150Y19483400D01*
X14515400Y19578650D01*
X14515400Y20604150D01*
X14420150Y20699400D01*
X13813900Y20699400D01*
X13559900Y20699400D01*
X12953650Y20699400D01*
X12858400Y20604150D01*
X12725400Y20604150D01*
X12630150Y20699400D01*
X12023900Y20699400D01*
X11769900Y20699400D01*
X11128900Y20699400D01*
X11128900Y20664650D01*
X11068400Y20604150D01*
X10874900Y20604150D01*
X10874900Y20699400D01*
X10854900Y20699400D01*
X10854900Y20953400D01*
X10874900Y20953400D01*
X10874900Y20973400D01*
X11128900Y20973400D01*
X11128900Y20953400D01*
X11769900Y20953400D01*
X11769900Y20973400D01*
X12023900Y20973400D01*
X12023900Y20953400D01*
X12630150Y20953400D01*
X12725400Y21048650D01*
X12725400Y21439600D01*
X12858400Y21439600D01*
X12858400Y21048650D01*
X12953650Y20953400D01*
X13559900Y20953400D01*
X13559900Y20973400D01*
X13813900Y20973400D01*
X13813900Y20953400D01*
X14420150Y20953400D01*
X14515400Y21048650D01*
X14515400Y21637186D01*
X14457396Y21777220D01*
X14350219Y21884396D01*
X14210185Y21942400D01*
X13909150Y21942400D01*
X13813902Y21847152D01*
X13813902Y21942400D01*
X13703920Y21942400D01*
X13714946Y21958901D01*
X13744400Y21952936D01*
X14194400Y21952936D01*
X14292205Y21971339D01*
X14318615Y21960400D01*
X14411650Y21960400D01*
X14506900Y22055650D01*
X14506900Y22123881D01*
X14552259Y22190266D01*
X14582864Y22341400D01*
X14582864Y23013400D01*
X14731900Y23013400D01*
X14731900Y22993400D01*
X14766400Y22993400D01*
X14766400Y22739400D01*
X14731900Y22739400D01*
X14731900Y22055650D01*
X14827150Y21960400D01*
X14920185Y21960400D01*
X14963536Y21978357D01*
X14963536Y21467800D01*
X14990103Y21326610D01*
X15073546Y21196935D01*
X15200866Y21109941D01*
X15352000Y21079336D01*
X15752000Y21079336D01*
X15893190Y21105903D01*
X16003865Y21177120D01*
X16036180Y21144804D01*
X16176214Y21086800D01*
X16256750Y21086800D01*
X16352000Y21182050D01*
X16352000Y21640800D01*
X16552000Y21640800D01*
X16552000Y21182050D01*
X16647250Y21086800D01*
X16727786Y21086800D01*
X16867820Y21144804D01*
X16974996Y21251981D01*
X17033000Y21392015D01*
X17033000Y21545550D01*
X16937750Y21640800D01*
X16552000Y21640800D01*
X16352000Y21640800D01*
X16305000Y21640800D01*
X16305000Y21894800D01*
X16352000Y21894800D01*
X16352000Y21914800D01*
X16552000Y21914800D01*
X16552000Y21894800D01*
X16937750Y21894800D01*
X17033000Y21990050D01*
X17033000Y22143585D01*
X17011615Y22195212D01*
X17036187Y22219741D01*
X17140082Y22469946D01*
X17140318Y22740865D01*
X17040464Y22982532D01*
X17040464Y23087144D01*
X17782000Y22345608D01*
X17782000Y22345608D01*
G37*
X17782000Y22345608D02*
X17782000Y21386800D01*
X17820517Y21193162D01*
X17930204Y21029004D01*
X18267369Y20691839D01*
X18267282Y20591535D01*
X18370739Y20341148D01*
X18562141Y20149413D01*
X18812346Y20045518D01*
X19083265Y20045282D01*
X19333652Y20148739D01*
X19525387Y20340141D01*
X19629282Y20590346D01*
X19629518Y20861265D01*
X19616246Y20893386D01*
X20451000Y20058631D01*
X20451000Y20034464D01*
X20232000Y20034464D01*
X20090810Y20007897D01*
X19961135Y19924454D01*
X19874141Y19797134D01*
X19843536Y19646000D01*
X19843536Y19302000D01*
X19302669Y19302000D01*
X19247375Y19435823D01*
X18929497Y19754256D01*
X18513957Y19926804D01*
X18064017Y19927196D01*
X17648177Y19755375D01*
X17329744Y19437497D01*
X17157196Y19021957D01*
X17156804Y18572017D01*
X17328625Y18156177D01*
X17646503Y17837744D01*
X18062043Y17665196D01*
X18511983Y17664804D01*
X18927823Y17836625D01*
X19246256Y18154503D01*
X19302520Y18290000D01*
X19843536Y18290000D01*
X19843536Y17946000D01*
X19870103Y17804810D01*
X19953546Y17675135D01*
X20080866Y17588141D01*
X20232000Y17557536D01*
X21932000Y17557536D01*
X22073190Y17584103D01*
X22202865Y17667546D01*
X22289859Y17794866D01*
X22320464Y17946000D01*
X22320464Y19646000D01*
X22293897Y19787190D01*
X22210454Y19916865D01*
X22083134Y20003859D01*
X21932000Y20034464D01*
X21713000Y20034464D01*
X21713000Y20320000D01*
X21669768Y20537340D01*
X21731846Y20495861D01*
X21896225Y20427773D01*
X22404000Y20326770D01*
X22404000Y7978032D01*
X22397362Y7984670D01*
X22328637Y7915945D01*
X22154865Y8163317D01*
X21456040Y8430915D01*
X20708004Y8410714D01*
X20110735Y8163317D01*
X19936962Y7915944D01*
X21132800Y6720105D01*
X21146942Y6734248D01*
X21326548Y6554642D01*
X21312405Y6540500D01*
X21326548Y6526358D01*
X21146942Y6346752D01*
X21132800Y6360895D01*
X19936962Y5165056D01*
X20110735Y4917683D01*
X20809560Y4650085D01*
X21557596Y4670286D01*
X22154865Y4917683D01*
X22328637Y5165055D01*
X22397362Y5096330D01*
X22404000Y5102968D01*
X22404000Y837000D01*
X1472000Y837000D01*
X1472000Y2865987D01*
X4976674Y2865987D01*
X5262436Y2174391D01*
X5791108Y1644796D01*
X6482204Y1357827D01*
X7230513Y1357174D01*
X7922109Y1642936D01*
X8451704Y2171608D01*
X8738673Y2862704D01*
X8738675Y2865987D01*
X10056674Y2865987D01*
X10342436Y2174391D01*
X10871108Y1644796D01*
X11562204Y1357827D01*
X12310513Y1357174D01*
X13002109Y1642936D01*
X13531704Y2171608D01*
X13818673Y2862704D01*
X13818675Y2865987D01*
X15149374Y2865987D01*
X15435136Y2174391D01*
X15963808Y1644796D01*
X16654904Y1357827D01*
X17403213Y1357174D01*
X18094809Y1642936D01*
X18624404Y2171608D01*
X18911373Y2862704D01*
X18912026Y3611013D01*
X18626264Y4302609D01*
X18097592Y4832204D01*
X17406496Y5119173D01*
X16658187Y5119826D01*
X15966591Y4834064D01*
X15436996Y4305392D01*
X15150027Y3614296D01*
X15149374Y2865987D01*
X13818675Y2865987D01*
X13819326Y3611013D01*
X13533564Y4302609D01*
X13004892Y4832204D01*
X12313796Y5119173D01*
X11565487Y5119826D01*
X10873891Y4834064D01*
X10344296Y4305392D01*
X10057327Y3614296D01*
X10056674Y2865987D01*
X8738675Y2865987D01*
X8739326Y3611013D01*
X8453564Y4302609D01*
X7924892Y4832204D01*
X7233796Y5119173D01*
X6485487Y5119826D01*
X5793891Y4834064D01*
X5264296Y4305392D01*
X4977327Y3614296D01*
X4976674Y2865987D01*
X1472000Y2865987D01*
X1472000Y5102968D01*
X1478638Y5096330D01*
X1547363Y5165055D01*
X1721135Y4917683D01*
X2419960Y4650085D01*
X3167996Y4670286D01*
X3765265Y4917683D01*
X3939038Y5165056D01*
X2743200Y6360895D01*
X2729058Y6346752D01*
X2549452Y6526358D01*
X2563595Y6540500D01*
X2922805Y6540500D01*
X4118644Y5344662D01*
X4366017Y5518435D01*
X4633615Y6217260D01*
X4613414Y6965296D01*
X4366017Y7562565D01*
X4118644Y7736338D01*
X2922805Y6540500D01*
X2563595Y6540500D01*
X2549452Y6554642D01*
X2729058Y6734248D01*
X2743200Y6720105D01*
X3939038Y7915944D01*
X3765265Y8163317D01*
X3066440Y8430915D01*
X2318404Y8410714D01*
X1721135Y8163317D01*
X1547363Y7915945D01*
X1478638Y7984670D01*
X1472000Y7978032D01*
X1472000Y8439400D01*
X2571750Y8439400D01*
X2667000Y8534650D01*
X2667000Y9193400D01*
X2647000Y9193400D01*
X2647000Y9447400D01*
X2667000Y9447400D01*
X2667000Y10106150D01*
X2571750Y10201400D01*
X1472000Y10201400D01*
X1472000Y11446516D01*
X1544000Y11431936D01*
X4044000Y11431936D01*
X4185190Y11458503D01*
X4314865Y11541946D01*
X4320536Y11550246D01*
X4320536Y10863200D01*
X4347103Y10722010D01*
X4430546Y10592335D01*
X4557866Y10505341D01*
X4709000Y10474736D01*
X5959000Y10474736D01*
X6100190Y10501303D01*
X6178981Y10552003D01*
X6196103Y10461010D01*
X6251175Y10375425D01*
X6200141Y10300734D01*
X6175028Y10176719D01*
X6110134Y10221059D01*
X5959000Y10251664D01*
X4709000Y10251664D01*
X4567810Y10225097D01*
X4438135Y10141654D01*
X4366461Y10036755D01*
X4259819Y10143396D01*
X4119785Y10201400D01*
X3016250Y10201400D01*
X2921000Y10106150D01*
X2921000Y9447400D01*
X2941000Y9447400D01*
X2941000Y9193400D01*
X2921000Y9193400D01*
X2921000Y8534650D01*
X3016250Y8439400D01*
X4119785Y8439400D01*
X4259819Y8497404D01*
X4366996Y8604580D01*
X4388798Y8657214D01*
X4430546Y8592335D01*
X4557866Y8505341D01*
X4709000Y8474736D01*
X5959000Y8474736D01*
X6100190Y8501303D01*
X6207688Y8570475D01*
X6326109Y8546920D01*
X6406866Y8491741D01*
X6558000Y8461136D01*
X7158000Y8461136D01*
X7299190Y8487703D01*
X7428865Y8571146D01*
X7515859Y8698466D01*
X7546464Y8849600D01*
X7546464Y9249600D01*
X7519897Y9390790D01*
X7449117Y9500786D01*
X7515859Y9598466D01*
X7519561Y9616745D01*
X7591866Y9567341D01*
X7743000Y9536736D01*
X9193000Y9536736D01*
X9334190Y9563303D01*
X9463865Y9646746D01*
X9468821Y9654000D01*
X10210800Y9654000D01*
X10404438Y9692517D01*
X10568596Y9802204D01*
X10584400Y9818008D01*
X10584400Y9241935D01*
X10449210Y9216497D01*
X10319535Y9133054D01*
X10232541Y9005734D01*
X10201936Y8854600D01*
X10201936Y7604600D01*
X10228503Y7463410D01*
X10311946Y7333735D01*
X10439266Y7246741D01*
X10590400Y7216136D01*
X11590400Y7216136D01*
X11731590Y7242703D01*
X11861265Y7326146D01*
X11948259Y7453466D01*
X11978864Y7604600D01*
X11978864Y8854600D01*
X11952297Y8995790D01*
X11868854Y9125465D01*
X11741534Y9212459D01*
X11596400Y9241849D01*
X11596400Y9661608D01*
X11771237Y9836445D01*
X11781103Y9784010D01*
X11864546Y9654335D01*
X11991866Y9567341D01*
X12143000Y9536736D01*
X12171432Y9536736D01*
X12171282Y9364735D01*
X12274739Y9114348D01*
X12293745Y9095309D01*
X12232541Y9005734D01*
X12201936Y8854600D01*
X12201936Y7604600D01*
X12228503Y7463410D01*
X12311946Y7333735D01*
X12439266Y7246741D01*
X12590400Y7216136D01*
X13590400Y7216136D01*
X13731590Y7242703D01*
X13861265Y7326146D01*
X13948259Y7453466D01*
X13978864Y7604600D01*
X13978864Y7610139D01*
X14026866Y7577341D01*
X14178000Y7546736D01*
X14778000Y7546736D01*
X14919190Y7573303D01*
X14934336Y7583049D01*
X14934336Y6776400D01*
X14960903Y6635210D01*
X15044346Y6505535D01*
X15171666Y6418541D01*
X15322800Y6387936D01*
X16322800Y6387936D01*
X16463990Y6414503D01*
X16593665Y6497946D01*
X16680659Y6625266D01*
X16711264Y6776400D01*
X16711264Y7804150D01*
X17941800Y7804150D01*
X17941800Y6700615D01*
X17999804Y6560581D01*
X18106980Y6453404D01*
X18247014Y6395400D01*
X18600550Y6395400D01*
X18695800Y6490650D01*
X18695800Y7899400D01*
X18949800Y7899400D01*
X18949800Y6490650D01*
X19045050Y6395400D01*
X19255033Y6395400D01*
X19262586Y6115704D01*
X19509983Y5518435D01*
X19757356Y5344662D01*
X20953195Y6540500D01*
X19757356Y7736338D01*
X19703800Y7698716D01*
X19703800Y7804150D01*
X19608550Y7899400D01*
X18949800Y7899400D01*
X18695800Y7899400D01*
X18037050Y7899400D01*
X17941800Y7804150D01*
X16711264Y7804150D01*
X16711264Y9276400D01*
X16697004Y9352185D01*
X17941800Y9352185D01*
X17941800Y8248650D01*
X18037050Y8153400D01*
X18695800Y8153400D01*
X18695800Y9562150D01*
X18949800Y9562150D01*
X18949800Y8153400D01*
X19608550Y8153400D01*
X19703800Y8248650D01*
X19703800Y9352185D01*
X19645796Y9492219D01*
X19538620Y9599396D01*
X19398586Y9657400D01*
X19045050Y9657400D01*
X18949800Y9562150D01*
X18695800Y9562150D01*
X18600550Y9657400D01*
X18247014Y9657400D01*
X18106980Y9599396D01*
X17999804Y9492219D01*
X17941800Y9352185D01*
X16697004Y9352185D01*
X16684697Y9417590D01*
X16601254Y9547265D01*
X16473934Y9634259D01*
X16328800Y9663649D01*
X16328800Y9932800D01*
X16290283Y10126438D01*
X16180596Y10290596D01*
X15300196Y11170996D01*
X15292707Y11176000D01*
X17121600Y11176000D01*
X17156845Y10998813D01*
X17156804Y10952017D01*
X17328625Y10536177D01*
X17646503Y10217744D01*
X18062043Y10045196D01*
X18511983Y10044804D01*
X18927823Y10216625D01*
X19246256Y10534503D01*
X19302520Y10670000D01*
X19943918Y10670000D01*
X20187435Y10305552D01*
X20586800Y10038704D01*
X21057883Y9945000D01*
X21106117Y9945000D01*
X21577200Y10038704D01*
X21976565Y10305552D01*
X22243413Y10704917D01*
X22337117Y11176000D01*
X22243413Y11647083D01*
X21976565Y12046448D01*
X21577200Y12313296D01*
X21106117Y12407000D01*
X21057883Y12407000D01*
X20586800Y12313296D01*
X20187435Y12046448D01*
X19943918Y11682000D01*
X19302669Y11682000D01*
X19247375Y11815823D01*
X18929497Y12134256D01*
X18513957Y12306804D01*
X18338490Y12306957D01*
X18288000Y12317000D01*
X18237950Y12307044D01*
X18064017Y12307196D01*
X17648177Y12135375D01*
X17329744Y11817497D01*
X17157196Y11401957D01*
X17157155Y11354746D01*
X17121600Y11176000D01*
X15292707Y11176000D01*
X15136038Y11280683D01*
X15100160Y11287819D01*
X15135859Y11340066D01*
X15166464Y11491200D01*
X15166464Y11891200D01*
X15139897Y12032390D01*
X15069117Y12142386D01*
X15135859Y12240066D01*
X15166464Y12391200D01*
X15166464Y12791200D01*
X15139897Y12932390D01*
X15101678Y12991784D01*
X15270223Y13061425D01*
X15588656Y13379303D01*
X15761204Y13794843D01*
X15761596Y14244783D01*
X15589775Y14660623D01*
X15271897Y14979056D01*
X15136400Y15035320D01*
X15136400Y15036800D01*
X15097883Y15230438D01*
X14988196Y15394596D01*
X14475400Y15907392D01*
X14475400Y16402936D01*
X14844400Y16402936D01*
X14985590Y16429503D01*
X15115265Y16512946D01*
X15202259Y16640266D01*
X15232864Y16791400D01*
X15232864Y16810400D01*
X15494008Y16810400D01*
X16054800Y16249608D01*
X16054800Y15443200D01*
X16093317Y15249562D01*
X16203004Y15085404D01*
X17212724Y14075684D01*
X17157196Y13941957D01*
X17156804Y13492017D01*
X17328625Y13076177D01*
X17646503Y12757744D01*
X18062043Y12585196D01*
X18511983Y12584804D01*
X18927823Y12756625D01*
X19246256Y13074503D01*
X19302520Y13210000D01*
X19943918Y13210000D01*
X20187435Y12845552D01*
X20586800Y12578704D01*
X21057883Y12485000D01*
X21106117Y12485000D01*
X21577200Y12578704D01*
X21976565Y12845552D01*
X22243413Y13244917D01*
X22337117Y13716000D01*
X22243413Y14187083D01*
X21976565Y14586448D01*
X21577200Y14853296D01*
X21106117Y14947000D01*
X21057883Y14947000D01*
X20586800Y14853296D01*
X20187435Y14586448D01*
X19943918Y14222000D01*
X19302669Y14222000D01*
X19247375Y14355823D01*
X18929497Y14674256D01*
X18513957Y14846804D01*
X18064017Y14847196D01*
X17928422Y14791170D01*
X17296038Y15423554D01*
X17635159Y15423554D01*
X17717059Y15254102D01*
X18143930Y15111877D01*
X18592733Y15143836D01*
X18858941Y15254102D01*
X18940841Y15423554D01*
X18288000Y16076395D01*
X17635159Y15423554D01*
X17296038Y15423554D01*
X17066800Y15652792D01*
X17066800Y16400070D01*
X17143877Y16400070D01*
X17175836Y15951267D01*
X17286102Y15685059D01*
X17455554Y15603159D01*
X18108395Y16256000D01*
X18467605Y16256000D01*
X19120446Y15603159D01*
X19289898Y15685059D01*
X19374512Y15939020D01*
X19892511Y15939020D01*
X20016755Y15639036D01*
X20333944Y15278348D01*
X20765018Y15066499D01*
X20955000Y15126807D01*
X20955000Y16129000D01*
X21209000Y16129000D01*
X21209000Y15126807D01*
X21398982Y15066499D01*
X21830056Y15278348D01*
X22147245Y15639036D01*
X22271489Y15939020D01*
X22210627Y16129000D01*
X21209000Y16129000D01*
X20955000Y16129000D01*
X19953373Y16129000D01*
X19892511Y15939020D01*
X19374512Y15939020D01*
X19432123Y16111930D01*
X19400164Y16560733D01*
X19395092Y16572980D01*
X19892511Y16572980D01*
X19953373Y16383000D01*
X20955000Y16383000D01*
X20955000Y17385193D01*
X21209000Y17385193D01*
X21209000Y16383000D01*
X22210627Y16383000D01*
X22271489Y16572980D01*
X22147245Y16872964D01*
X21830056Y17233652D01*
X21398982Y17445501D01*
X21209000Y17385193D01*
X20955000Y17385193D01*
X20765018Y17445501D01*
X20333944Y17233652D01*
X20016755Y16872964D01*
X19892511Y16572980D01*
X19395092Y16572980D01*
X19289898Y16826941D01*
X19120446Y16908841D01*
X18467605Y16256000D01*
X18108395Y16256000D01*
X17455554Y16908841D01*
X17286102Y16826941D01*
X17143877Y16400070D01*
X17066800Y16400070D01*
X17066800Y16459200D01*
X17028283Y16652838D01*
X16918596Y16816996D01*
X16647146Y17088446D01*
X17635159Y17088446D01*
X18288000Y16435605D01*
X18940841Y17088446D01*
X18858941Y17257898D01*
X18432070Y17400123D01*
X17983267Y17368164D01*
X17717059Y17257898D01*
X17635159Y17088446D01*
X16647146Y17088446D01*
X16061396Y17674196D01*
X15897238Y17783883D01*
X15703600Y17822400D01*
X15232864Y17822400D01*
X15232864Y17841400D01*
X15206297Y17982590D01*
X15122854Y18112265D01*
X14995534Y18199259D01*
X14844400Y18229864D01*
X14394400Y18229864D01*
X14290730Y18210357D01*
X14194400Y18229864D01*
X13744400Y18229864D01*
X13640730Y18210357D01*
X13544400Y18229864D01*
X13121898Y18229864D01*
X13096200Y18268324D01*
X13163615Y18240400D01*
X13464650Y18240400D01*
X13559900Y18335650D01*
X13559900Y19229400D01*
X13813900Y19229400D01*
X13813900Y18335650D01*
X13909150Y18240400D01*
X14210185Y18240400D01*
X14350219Y18298404D01*
X14457396Y18405580D01*
X14515400Y18545614D01*
X14515400Y19134150D01*
X14420150Y19229400D01*
X13813900Y19229400D01*
X13559900Y19229400D01*
X12953650Y19229400D01*
X12858400Y19134150D01*
X12858400Y18545614D01*
X12862093Y18536699D01*
X12803796Y18594996D01*
X12639638Y18704683D01*
X12446000Y18743200D01*
X11830400Y18743200D01*
X11830400Y19134150D01*
X11735150Y19229400D01*
X11128900Y19229400D01*
X11128900Y19209400D01*
X10874900Y19209400D01*
X10874900Y19229400D01*
X10268650Y19229400D01*
X10173400Y19134150D01*
X10173400Y18786992D01*
X10167400Y18792992D01*
X10167400Y19243800D01*
X10128883Y19437438D01*
X10020955Y19598963D01*
X10173400Y19751408D01*
X10173400Y19578650D01*
X10268650Y19483400D01*
X10874900Y19483400D01*
X10874900Y20604150D01*
X11068400Y20604150D01*
X11068400Y20015614D01*
X11126404Y19875580D01*
X11128900Y19873084D01*
X11128900Y19483400D01*
X11735150Y19483400D01*
X11830400Y19578650D01*
X11830400Y20604150D01*
X11769900Y20664650D01*
X11769900Y20699400D01*
X12023900Y20699400D01*
X12023900Y19805650D01*
X12119150Y19710400D01*
X12420185Y19710400D01*
X12560219Y19768404D01*
X12667396Y19875580D01*
X12725400Y20015614D01*
X12725400Y20604150D01*
X12858400Y20604150D01*
X12858400Y19578650D01*
X12953650Y19483400D01*
X13559900Y19483400D01*
X13559900Y20699400D01*
X13813900Y20699400D01*
X13813900Y19483400D01*
X14420150Y19483400D01*
X14515400Y19578650D01*
X14515400Y20604150D01*
X14420150Y20699400D01*
X13813900Y20699400D01*
X13559900Y20699400D01*
X12953650Y20699400D01*
X12858400Y20604150D01*
X12725400Y20604150D01*
X12630150Y20699400D01*
X12023900Y20699400D01*
X11769900Y20699400D01*
X11128900Y20699400D01*
X11128900Y20664650D01*
X11068400Y20604150D01*
X10874900Y20604150D01*
X10874900Y20699400D01*
X10854900Y20699400D01*
X10854900Y20953400D01*
X10874900Y20953400D01*
X10874900Y20973400D01*
X11128900Y20973400D01*
X11128900Y20953400D01*
X11769900Y20953400D01*
X11769900Y20973400D01*
X12023900Y20973400D01*
X12023900Y20953400D01*
X12630150Y20953400D01*
X12725400Y21048650D01*
X12725400Y21439600D01*
X12858400Y21439600D01*
X12858400Y21048650D01*
X12953650Y20953400D01*
X13559900Y20953400D01*
X13559900Y20973400D01*
X13813900Y20973400D01*
X13813900Y20953400D01*
X14420150Y20953400D01*
X14515400Y21048650D01*
X14515400Y21637186D01*
X14457396Y21777220D01*
X14350219Y21884396D01*
X14210185Y21942400D01*
X13909150Y21942400D01*
X13813902Y21847152D01*
X13813902Y21942400D01*
X13703920Y21942400D01*
X13714946Y21958901D01*
X13744400Y21952936D01*
X14194400Y21952936D01*
X14292205Y21971339D01*
X14318615Y21960400D01*
X14411650Y21960400D01*
X14506900Y22055650D01*
X14506900Y22123881D01*
X14552259Y22190266D01*
X14582864Y22341400D01*
X14582864Y23013400D01*
X14731900Y23013400D01*
X14731900Y22993400D01*
X14766400Y22993400D01*
X14766400Y22739400D01*
X14731900Y22739400D01*
X14731900Y22055650D01*
X14827150Y21960400D01*
X14920185Y21960400D01*
X14963536Y21978357D01*
X14963536Y21467800D01*
X14990103Y21326610D01*
X15073546Y21196935D01*
X15200866Y21109941D01*
X15352000Y21079336D01*
X15752000Y21079336D01*
X15893190Y21105903D01*
X16003865Y21177120D01*
X16036180Y21144804D01*
X16176214Y21086800D01*
X16256750Y21086800D01*
X16352000Y21182050D01*
X16352000Y21640800D01*
X16552000Y21640800D01*
X16552000Y21182050D01*
X16647250Y21086800D01*
X16727786Y21086800D01*
X16867820Y21144804D01*
X16974996Y21251981D01*
X17033000Y21392015D01*
X17033000Y21545550D01*
X16937750Y21640800D01*
X16552000Y21640800D01*
X16352000Y21640800D01*
X16305000Y21640800D01*
X16305000Y21894800D01*
X16352000Y21894800D01*
X16352000Y21914800D01*
X16552000Y21914800D01*
X16552000Y21894800D01*
X16937750Y21894800D01*
X17033000Y21990050D01*
X17033000Y22143585D01*
X17011615Y22195212D01*
X17036187Y22219741D01*
X17140082Y22469946D01*
X17140318Y22740865D01*
X17040464Y22982532D01*
X17040464Y23087144D01*
X17782000Y22345608D01*
G36*
X12055936Y16791400D02*
X12082503Y16650210D01*
X12131900Y16573444D01*
X12131900Y16505650D01*
X12227150Y16410400D01*
X12320185Y16410400D01*
X12348869Y16422281D01*
X12444400Y16402936D01*
X12894400Y16402936D01*
X12998070Y16422443D01*
X13094400Y16402936D01*
X13463400Y16402936D01*
X13463400Y15697800D01*
X13501917Y15504162D01*
X13611604Y15340004D01*
X13980997Y14970611D01*
X13696554Y14686665D01*
X13672897Y14812390D01*
X13589454Y14942065D01*
X13462134Y15029059D01*
X13311000Y15059664D01*
X12311000Y15059664D01*
X12169810Y15033097D01*
X12040135Y14949654D01*
X11953141Y14822334D01*
X11922536Y14671200D01*
X11922536Y13421200D01*
X11949103Y13280010D01*
X12032546Y13150335D01*
X12145378Y13073240D01*
X12120718Y13013854D01*
X12120482Y12742935D01*
X12133328Y12711844D01*
X12001810Y12687097D01*
X11872135Y12603654D01*
X11785141Y12476334D01*
X11754536Y12325200D01*
X11754536Y11875200D01*
X11772939Y11777395D01*
X11762000Y11750985D01*
X11762000Y11657950D01*
X11857250Y11562700D01*
X11925481Y11562700D01*
X11991866Y11517341D01*
X12143000Y11486736D01*
X13015000Y11486736D01*
X13015000Y11413664D01*
X12143000Y11413664D01*
X12001810Y11387097D01*
X11925044Y11337700D01*
X11857250Y11337700D01*
X11762000Y11242450D01*
X11762000Y11225079D01*
X11661604Y11157996D01*
X11317000Y10813392D01*
X11317000Y13033865D01*
X11452190Y13059303D01*
X11581865Y13142746D01*
X11668859Y13270066D01*
X11699464Y13421200D01*
X11699464Y14671200D01*
X11672897Y14812390D01*
X11589454Y14942065D01*
X11462134Y15029059D01*
X11311000Y15059664D01*
X10993538Y15059664D01*
X11092587Y15158541D01*
X11196482Y15408746D01*
X11196718Y15679665D01*
X11160574Y15767141D01*
X11268038Y15788517D01*
X11432196Y15898204D01*
X11727196Y16193204D01*
X11836883Y16357362D01*
X11856318Y16455068D01*
X11906900Y16505650D01*
X11906900Y16573881D01*
X11952259Y16640266D01*
X11982864Y16791400D01*
X11982864Y17463400D01*
X12055936Y17463400D01*
X12055936Y16791400D01*
X12055936Y16791400D01*
G37*
X12055936Y16791400D02*
X12082503Y16650210D01*
X12131900Y16573444D01*
X12131900Y16505650D01*
X12227150Y16410400D01*
X12320185Y16410400D01*
X12348869Y16422281D01*
X12444400Y16402936D01*
X12894400Y16402936D01*
X12998070Y16422443D01*
X13094400Y16402936D01*
X13463400Y16402936D01*
X13463400Y15697800D01*
X13501917Y15504162D01*
X13611604Y15340004D01*
X13980997Y14970611D01*
X13696554Y14686665D01*
X13672897Y14812390D01*
X13589454Y14942065D01*
X13462134Y15029059D01*
X13311000Y15059664D01*
X12311000Y15059664D01*
X12169810Y15033097D01*
X12040135Y14949654D01*
X11953141Y14822334D01*
X11922536Y14671200D01*
X11922536Y13421200D01*
X11949103Y13280010D01*
X12032546Y13150335D01*
X12145378Y13073240D01*
X12120718Y13013854D01*
X12120482Y12742935D01*
X12133328Y12711844D01*
X12001810Y12687097D01*
X11872135Y12603654D01*
X11785141Y12476334D01*
X11754536Y12325200D01*
X11754536Y11875200D01*
X11772939Y11777395D01*
X11762000Y11750985D01*
X11762000Y11657950D01*
X11857250Y11562700D01*
X11925481Y11562700D01*
X11991866Y11517341D01*
X12143000Y11486736D01*
X13015000Y11486736D01*
X13015000Y11413664D01*
X12143000Y11413664D01*
X12001810Y11387097D01*
X11925044Y11337700D01*
X11857250Y11337700D01*
X11762000Y11242450D01*
X11762000Y11225079D01*
X11661604Y11157996D01*
X11317000Y10813392D01*
X11317000Y13033865D01*
X11452190Y13059303D01*
X11581865Y13142746D01*
X11668859Y13270066D01*
X11699464Y13421200D01*
X11699464Y14671200D01*
X11672897Y14812390D01*
X11589454Y14942065D01*
X11462134Y15029059D01*
X11311000Y15059664D01*
X10993538Y15059664D01*
X11092587Y15158541D01*
X11196482Y15408746D01*
X11196718Y15679665D01*
X11160574Y15767141D01*
X11268038Y15788517D01*
X11432196Y15898204D01*
X11727196Y16193204D01*
X11836883Y16357362D01*
X11856318Y16455068D01*
X11906900Y16505650D01*
X11906900Y16573881D01*
X11952259Y16640266D01*
X11982864Y16791400D01*
X11982864Y17463400D01*
X12055936Y17463400D01*
X12055936Y16791400D01*
G36*
X8423135Y15705654D02*
X8336141Y15578334D01*
X8305536Y15427200D01*
X8305536Y14927200D01*
X8332103Y14786010D01*
X8415546Y14656335D01*
X8542866Y14569341D01*
X8694000Y14538736D01*
X9594000Y14538736D01*
X9735190Y14565303D01*
X9864865Y14648746D01*
X9880207Y14671200D01*
X9922536Y14671200D01*
X9922536Y14501371D01*
X9776804Y14403996D01*
X9672563Y14299755D01*
X9594000Y14315664D01*
X8694000Y14315664D01*
X8552810Y14289097D01*
X8423135Y14205654D01*
X8336141Y14078334D01*
X8305536Y13927200D01*
X8305536Y13427200D01*
X8332103Y13286010D01*
X8415546Y13156335D01*
X8542866Y13069341D01*
X8694000Y13038736D01*
X9594000Y13038736D01*
X9735190Y13065303D01*
X9864865Y13148746D01*
X9898234Y13197582D01*
X9959238Y13209717D01*
X9983782Y13226117D01*
X10032546Y13150335D01*
X10159866Y13063341D01*
X10305000Y13033951D01*
X10305000Y11231959D01*
X10139859Y11397387D01*
X9889654Y11501282D01*
X9618735Y11501518D01*
X9581464Y11486118D01*
X9581464Y11675200D01*
X9563061Y11773005D01*
X9574000Y11799415D01*
X9574000Y11892450D01*
X9478750Y11987700D01*
X9410519Y11987700D01*
X9344134Y12033059D01*
X9193000Y12063664D01*
X8321000Y12063664D01*
X8321000Y12212700D01*
X8341000Y12212700D01*
X8341000Y12610950D01*
X8595000Y12610950D01*
X8595000Y12212700D01*
X9478750Y12212700D01*
X9574000Y12307950D01*
X9574000Y12400985D01*
X9515996Y12541019D01*
X9408820Y12648196D01*
X9268786Y12706200D01*
X8690250Y12706200D01*
X8595000Y12610950D01*
X8341000Y12610950D01*
X8245750Y12706200D01*
X7667214Y12706200D01*
X7546464Y12656184D01*
X7546464Y12780200D01*
X7519897Y12921390D01*
X7449117Y13031386D01*
X7515859Y13129066D01*
X7546464Y13280200D01*
X7546464Y13680200D01*
X7519897Y13821390D01*
X7436454Y13951065D01*
X7390668Y13982349D01*
X7497823Y14026625D01*
X7816256Y14344503D01*
X7988804Y14760043D01*
X7989196Y15209983D01*
X7933170Y15345578D01*
X8337592Y15750000D01*
X8492051Y15750000D01*
X8423135Y15705654D01*
X8423135Y15705654D01*
G37*
X8423135Y15705654D02*
X8336141Y15578334D01*
X8305536Y15427200D01*
X8305536Y14927200D01*
X8332103Y14786010D01*
X8415546Y14656335D01*
X8542866Y14569341D01*
X8694000Y14538736D01*
X9594000Y14538736D01*
X9735190Y14565303D01*
X9864865Y14648746D01*
X9880207Y14671200D01*
X9922536Y14671200D01*
X9922536Y14501371D01*
X9776804Y14403996D01*
X9672563Y14299755D01*
X9594000Y14315664D01*
X8694000Y14315664D01*
X8552810Y14289097D01*
X8423135Y14205654D01*
X8336141Y14078334D01*
X8305536Y13927200D01*
X8305536Y13427200D01*
X8332103Y13286010D01*
X8415546Y13156335D01*
X8542866Y13069341D01*
X8694000Y13038736D01*
X9594000Y13038736D01*
X9735190Y13065303D01*
X9864865Y13148746D01*
X9898234Y13197582D01*
X9959238Y13209717D01*
X9983782Y13226117D01*
X10032546Y13150335D01*
X10159866Y13063341D01*
X10305000Y13033951D01*
X10305000Y11231959D01*
X10139859Y11397387D01*
X9889654Y11501282D01*
X9618735Y11501518D01*
X9581464Y11486118D01*
X9581464Y11675200D01*
X9563061Y11773005D01*
X9574000Y11799415D01*
X9574000Y11892450D01*
X9478750Y11987700D01*
X9410519Y11987700D01*
X9344134Y12033059D01*
X9193000Y12063664D01*
X8321000Y12063664D01*
X8321000Y12212700D01*
X8341000Y12212700D01*
X8341000Y12610950D01*
X8595000Y12610950D01*
X8595000Y12212700D01*
X9478750Y12212700D01*
X9574000Y12307950D01*
X9574000Y12400985D01*
X9515996Y12541019D01*
X9408820Y12648196D01*
X9268786Y12706200D01*
X8690250Y12706200D01*
X8595000Y12610950D01*
X8341000Y12610950D01*
X8245750Y12706200D01*
X7667214Y12706200D01*
X7546464Y12656184D01*
X7546464Y12780200D01*
X7519897Y12921390D01*
X7449117Y13031386D01*
X7515859Y13129066D01*
X7546464Y13280200D01*
X7546464Y13680200D01*
X7519897Y13821390D01*
X7436454Y13951065D01*
X7390668Y13982349D01*
X7497823Y14026625D01*
X7816256Y14344503D01*
X7988804Y14760043D01*
X7989196Y15209983D01*
X7933170Y15345578D01*
X8337592Y15750000D01*
X8492051Y15750000D01*
X8423135Y15705654D01*
G36*
X20118000Y29059000D02*
X20034250Y29059000D01*
X19939000Y28963750D01*
X19939000Y28305000D01*
X19959000Y28305000D01*
X19959000Y28051000D01*
X19939000Y28051000D01*
X19939000Y27392250D01*
X20034250Y27297000D01*
X20118000Y27297000D01*
X20118000Y27066464D01*
X19187000Y27066464D01*
X19045810Y27039897D01*
X18916135Y26956454D01*
X18829141Y26829134D01*
X18798536Y26678000D01*
X18798536Y25855141D01*
X18707661Y25817592D01*
X18421497Y26104256D01*
X18005957Y26276804D01*
X17706500Y26277065D01*
X17706500Y26590750D01*
X17611250Y26686000D01*
X16827500Y26686000D01*
X16827500Y26027250D01*
X16922750Y25932000D01*
X16966499Y25932000D01*
X16882353Y25848000D01*
X15117334Y25848000D01*
X15107254Y25863665D01*
X14979934Y25950659D01*
X14919233Y25962951D01*
X14886596Y26011796D01*
X14505596Y26392796D01*
X14341438Y26502483D01*
X14147800Y26541000D01*
X12636485Y26541000D01*
X12646559Y26590750D01*
X15694500Y26590750D01*
X15694500Y26237214D01*
X15752504Y26097180D01*
X15859681Y25990004D01*
X15999715Y25932000D01*
X16478250Y25932000D01*
X16573500Y26027250D01*
X16573500Y26686000D01*
X15789750Y26686000D01*
X15694500Y26590750D01*
X12646559Y26590750D01*
X12650964Y26612500D01*
X12650964Y26803721D01*
X12694681Y26760004D01*
X12834715Y26702000D01*
X13938250Y26702000D01*
X14033500Y26797250D01*
X14033500Y27456000D01*
X14287500Y27456000D01*
X14287500Y26797250D01*
X14382750Y26702000D01*
X15486285Y26702000D01*
X15626319Y26760004D01*
X15733496Y26867180D01*
X15771301Y26958449D01*
X15789750Y26940000D01*
X16573500Y26940000D01*
X16573500Y27598750D01*
X16827500Y27598750D01*
X16827500Y26940000D01*
X17611250Y26940000D01*
X17706500Y27035250D01*
X17706500Y27388786D01*
X17648496Y27528820D01*
X17541319Y27635996D01*
X17401285Y27694000D01*
X16922750Y27694000D01*
X16827500Y27598750D01*
X16573500Y27598750D01*
X16478250Y27694000D01*
X15999715Y27694000D01*
X15859681Y27635996D01*
X15752504Y27528820D01*
X15714699Y27437551D01*
X15696250Y27456000D01*
X14287500Y27456000D01*
X14033500Y27456000D01*
X14013500Y27456000D01*
X14013500Y27710000D01*
X14033500Y27710000D01*
X14033500Y28368750D01*
X13938250Y28464000D01*
X12834715Y28464000D01*
X12694681Y28405996D01*
X12587504Y28298820D01*
X12529500Y28158786D01*
X12529500Y27805250D01*
X12624748Y27710002D01*
X12529500Y27710002D01*
X12529500Y27641191D01*
X12462909Y27686691D01*
X12453437Y27734311D01*
X12445468Y27774374D01*
X12308684Y27979085D01*
X12028584Y28259184D01*
X11987964Y28286326D01*
X11987964Y28902500D01*
X11961397Y29043690D01*
X11952097Y29058143D01*
X11980500Y29126715D01*
X11980500Y29305250D01*
X11885250Y29400500D01*
X11196500Y29400500D01*
X11196500Y29380500D01*
X10942500Y29380500D01*
X10942500Y29400500D01*
X10253750Y29400500D01*
X10158500Y29305250D01*
X10158500Y29126715D01*
X10186080Y29060131D01*
X10181641Y29053634D01*
X10151036Y28902500D01*
X10151036Y28739732D01*
X9867084Y29023684D01*
X9765499Y29091561D01*
X9787964Y29202500D01*
X9787964Y29846500D01*
X10158500Y29846500D01*
X10158500Y29749750D01*
X10253750Y29654500D01*
X10942500Y29654500D01*
X10942500Y29674500D01*
X11196500Y29674500D01*
X11196500Y29654500D01*
X11885250Y29654500D01*
X11980500Y29749750D01*
X11980500Y29857454D01*
X12179473Y29897032D01*
X12261738Y29952000D01*
X12546686Y29952000D01*
X12548603Y29941810D01*
X12632046Y29812135D01*
X12759366Y29725141D01*
X12910500Y29694536D01*
X15410500Y29694536D01*
X15551690Y29721103D01*
X15681365Y29804546D01*
X15711739Y29849000D01*
X15764000Y29849000D01*
X15764000Y29579000D01*
X15771244Y29542584D01*
X15717641Y29464134D01*
X15687036Y29313000D01*
X15687036Y28345280D01*
X15626319Y28405996D01*
X15486285Y28464000D01*
X14382750Y28464000D01*
X14287500Y28368750D01*
X14287500Y27710000D01*
X15696250Y27710000D01*
X15791500Y27805250D01*
X15791500Y28050754D01*
X15797046Y28042135D01*
X15924366Y27955141D01*
X16075500Y27924536D01*
X17325500Y27924536D01*
X17466690Y27951103D01*
X17473911Y27955750D01*
X18806000Y27955750D01*
X18806000Y27602214D01*
X18864004Y27462180D01*
X18971181Y27355004D01*
X19111215Y27297000D01*
X19589750Y27297000D01*
X19685000Y27392250D01*
X19685000Y28051000D01*
X18901250Y28051000D01*
X18806000Y27955750D01*
X17473911Y27955750D01*
X17596365Y28034546D01*
X17683359Y28161866D01*
X17713964Y28313000D01*
X17713964Y28628979D01*
X17770946Y28605318D01*
X18041865Y28605082D01*
X18292252Y28708539D01*
X18337577Y28753786D01*
X18806000Y28753786D01*
X18806000Y28400250D01*
X18901250Y28305000D01*
X19685000Y28305000D01*
X19685000Y28963750D01*
X19589750Y29059000D01*
X19111215Y29059000D01*
X18971181Y29000996D01*
X18864004Y28893820D01*
X18806000Y28753786D01*
X18337577Y28753786D01*
X18483987Y28899941D01*
X18587882Y29150146D01*
X18588118Y29421065D01*
X18526000Y29571403D01*
X18526000Y29993141D01*
X18533464Y30030000D01*
X18533464Y30930000D01*
X18506897Y31071190D01*
X18423454Y31200865D01*
X18296134Y31287859D01*
X18145000Y31318464D01*
X17645000Y31318464D01*
X17503810Y31291897D01*
X17374135Y31208454D01*
X17287141Y31081134D01*
X17256536Y30930000D01*
X17256536Y30030000D01*
X17264000Y29990333D01*
X17264000Y29701464D01*
X17158859Y29701464D01*
X17146684Y29719685D01*
X17026000Y29840369D01*
X17026000Y29993141D01*
X17033464Y30030000D01*
X17033464Y30930000D01*
X17006897Y31071190D01*
X16923454Y31200865D01*
X16796134Y31287859D01*
X16645000Y31318464D01*
X16145000Y31318464D01*
X16003810Y31291897D01*
X15874135Y31208454D01*
X15807548Y31111000D01*
X15793695Y31111000D01*
X15772397Y31224190D01*
X15688954Y31353865D01*
X15561634Y31440859D01*
X15410500Y31471464D01*
X12910500Y31471464D01*
X12769310Y31444897D01*
X12639635Y31361454D01*
X12552641Y31234134D01*
X12548564Y31214000D01*
X12041000Y31214000D01*
X11833321Y31172690D01*
X11799527Y31165968D01*
X11770657Y31146678D01*
X11750634Y31160359D01*
X11599500Y31190964D01*
X10539500Y31190964D01*
X10398310Y31164397D01*
X10311443Y31108500D01*
X9626532Y31108500D01*
X9550634Y31160359D01*
X9399500Y31190964D01*
X8339500Y31190964D01*
X8198310Y31164397D01*
X8091402Y31095604D01*
X8076897Y31172690D01*
X7993454Y31302365D01*
X7866134Y31389359D01*
X7715000Y31419964D01*
X6715000Y31419964D01*
X6573810Y31393397D01*
X6444135Y31309954D01*
X6357141Y31182634D01*
X6326536Y31031500D01*
X6326536Y28531500D01*
X6353103Y28390310D01*
X6436546Y28260635D01*
X6563866Y28173641D01*
X6640538Y28158115D01*
X6677152Y27974046D01*
X6681432Y27952527D01*
X6818216Y27747816D01*
X6892568Y27673464D01*
X6715000Y27673464D01*
X6573810Y27646897D01*
X6444135Y27563454D01*
X6357141Y27436134D01*
X6326536Y27285000D01*
X6326536Y24785000D01*
X6353103Y24643810D01*
X6436546Y24514135D01*
X6563866Y24427141D01*
X6591695Y24421506D01*
X6280744Y24111097D01*
X6276385Y24100600D01*
X5996582Y24100600D01*
X5876454Y24150482D01*
X5605535Y24150718D01*
X5355148Y24047261D01*
X5163413Y23855859D01*
X5059518Y23605654D01*
X5059282Y23334735D01*
X5162739Y23084348D01*
X5354141Y22892613D01*
X5604346Y22788718D01*
X5875265Y22788482D01*
X5996561Y22838600D01*
X6275979Y22838600D01*
X6279625Y22829777D01*
X6597503Y22511344D01*
X7013043Y22338796D01*
X7462983Y22338404D01*
X7518036Y22361151D01*
X7472104Y22315220D01*
X7414100Y22175186D01*
X7414100Y22018216D01*
X7359919Y22072396D01*
X7219885Y22130400D01*
X6991350Y22130400D01*
X6896100Y22035150D01*
X6896100Y21476400D01*
X6916100Y21476400D01*
X6916100Y21222400D01*
X6896100Y21222400D01*
X6896100Y21202400D01*
X6642100Y21202400D01*
X6642100Y21222400D01*
X6108350Y21222400D01*
X6013100Y21127150D01*
X6013100Y20873614D01*
X6071104Y20733580D01*
X6178281Y20626404D01*
X6237967Y20601681D01*
X6123235Y20527854D01*
X6036241Y20400534D01*
X6005636Y20249400D01*
X6005636Y19472028D01*
X5839804Y19306196D01*
X5764746Y19193864D01*
X5747600Y19193864D01*
X5606410Y19167297D01*
X5476735Y19083854D01*
X5389741Y18956534D01*
X5359136Y18805400D01*
X5359136Y18305400D01*
X5385703Y18164210D01*
X5469146Y18034535D01*
X5596466Y17947541D01*
X5747600Y17916936D01*
X6647600Y17916936D01*
X6788790Y17943503D01*
X6918465Y18026946D01*
X7005459Y18154266D01*
X7036064Y18305400D01*
X7036064Y18805400D01*
X7026139Y18858147D01*
X7126896Y18958904D01*
X7147432Y18989638D01*
X7202402Y19071906D01*
X7285290Y19087503D01*
X7337559Y19121137D01*
X7406636Y19107396D01*
X7406636Y19099400D01*
X7433203Y18958210D01*
X7516646Y18828535D01*
X7612410Y18763102D01*
X7462777Y18701275D01*
X7144344Y18383397D01*
X6971796Y17967857D01*
X6971404Y17517917D01*
X6985407Y17484027D01*
X6926054Y17576265D01*
X6798734Y17663259D01*
X6647600Y17693864D01*
X5747600Y17693864D01*
X5606410Y17667297D01*
X5476735Y17583854D01*
X5389741Y17456534D01*
X5359136Y17305400D01*
X5359136Y17200456D01*
X5205000Y17354592D01*
X5205000Y19812000D01*
X5166483Y20005638D01*
X5056796Y20169796D01*
X4548796Y20677796D01*
X4384638Y20787483D01*
X4191000Y20826000D01*
X3429000Y20826000D01*
X3235362Y20787483D01*
X3071204Y20677796D01*
X2690204Y20296796D01*
X2619733Y20191329D01*
X2606810Y20188897D01*
X2477135Y20105454D01*
X2390141Y19978134D01*
X2359536Y19827000D01*
X2359536Y19427000D01*
X2386103Y19285810D01*
X2456883Y19175814D01*
X2390141Y19078134D01*
X2359536Y18927000D01*
X2359536Y18527000D01*
X2386103Y18385810D01*
X2416520Y18338541D01*
X2306810Y18317897D01*
X2177135Y18234454D01*
X2090141Y18107134D01*
X2059536Y17956000D01*
X2059536Y16756000D01*
X2086103Y16614810D01*
X2169546Y16485135D01*
X2296866Y16398141D01*
X2448000Y16367536D01*
X3648000Y16367536D01*
X3789190Y16394103D01*
X3918865Y16477546D01*
X4005859Y16604866D01*
X4036464Y16756000D01*
X4036464Y17956000D01*
X4009897Y18097190D01*
X3926454Y18226865D01*
X3799134Y18313859D01*
X3679978Y18337988D01*
X3705859Y18375866D01*
X3736464Y18527000D01*
X3736464Y18927000D01*
X3709897Y19068190D01*
X3639117Y19178186D01*
X3705859Y19275866D01*
X3736464Y19427000D01*
X3736464Y19814000D01*
X3981408Y19814000D01*
X4193000Y19602408D01*
X4193000Y17145000D01*
X4231517Y16951362D01*
X4341204Y16787204D01*
X5103204Y16025204D01*
X5267362Y15915517D01*
X5461000Y15877000D01*
X5664410Y15877000D01*
X5811341Y15729813D01*
X5946159Y15673831D01*
X5899744Y15627497D01*
X5727196Y15211957D01*
X5726804Y14762017D01*
X5898625Y14346177D01*
X6216503Y14027744D01*
X6324691Y13982820D01*
X6287135Y13958654D01*
X6200141Y13831334D01*
X6169536Y13680200D01*
X6169536Y13280200D01*
X6196103Y13139010D01*
X6266883Y13029014D01*
X6200141Y12931334D01*
X6169536Y12780200D01*
X6169536Y12380200D01*
X6196103Y12239010D01*
X6251372Y12153119D01*
X6230236Y12138997D01*
X6110134Y12221059D01*
X5959000Y12251664D01*
X5755228Y12251664D01*
X5691796Y12346596D01*
X5360196Y12678196D01*
X5196038Y12787883D01*
X5002400Y12826400D01*
X4431335Y12826400D01*
X4405897Y12961590D01*
X4322454Y13091265D01*
X4195134Y13178259D01*
X4044000Y13208864D01*
X1544000Y13208864D01*
X1472000Y13195316D01*
X1472000Y14933750D01*
X2067000Y14933750D01*
X2067000Y14480214D01*
X2125004Y14340180D01*
X2232181Y14233004D01*
X2372215Y14175000D01*
X2825750Y14175000D01*
X2921000Y14270250D01*
X2921000Y15029000D01*
X3175000Y15029000D01*
X3175000Y14270250D01*
X3270250Y14175000D01*
X3723785Y14175000D01*
X3863819Y14233004D01*
X3970996Y14340180D01*
X4029000Y14480214D01*
X4029000Y14933750D01*
X3933750Y15029000D01*
X3175000Y15029000D01*
X2921000Y15029000D01*
X2162250Y15029000D01*
X2067000Y14933750D01*
X1472000Y14933750D01*
X1472000Y15831786D01*
X2067000Y15831786D01*
X2067000Y15378250D01*
X2162250Y15283000D01*
X2921000Y15283000D01*
X2921000Y16041750D01*
X3175000Y16041750D01*
X3175000Y15283000D01*
X3933750Y15283000D01*
X4029000Y15378250D01*
X4029000Y15831786D01*
X3970996Y15971820D01*
X3863819Y16078996D01*
X3723785Y16137000D01*
X3270250Y16137000D01*
X3175000Y16041750D01*
X2921000Y16041750D01*
X2825750Y16137000D01*
X2372215Y16137000D01*
X2232181Y16078996D01*
X2125004Y15971820D01*
X2067000Y15831786D01*
X1472000Y15831786D01*
X1472000Y20326770D01*
X1979775Y20427773D01*
X2144155Y20495861D01*
X2144157Y20495863D01*
X2885786Y20991404D01*
X3011596Y21117214D01*
X3484648Y21825186D01*
X6013100Y21825186D01*
X6013100Y21571650D01*
X6108350Y21476400D01*
X6642100Y21476400D01*
X6642100Y22035150D01*
X6546850Y22130400D01*
X6318315Y22130400D01*
X6178281Y22072396D01*
X6071104Y21965220D01*
X6013100Y21825186D01*
X3484648Y21825186D01*
X3507139Y21858846D01*
X3575227Y22023225D01*
X3749238Y22898039D01*
X3749238Y22942950D01*
X3758000Y22987000D01*
X3758000Y24404000D01*
X3992750Y24404000D01*
X4088000Y24499250D01*
X4088000Y25908000D01*
X4342000Y25908000D01*
X4342000Y24499250D01*
X4437250Y24404000D01*
X4790786Y24404000D01*
X4930820Y24462004D01*
X5037996Y24569181D01*
X5096000Y24709215D01*
X5096000Y25812750D01*
X5000750Y25908000D01*
X4342000Y25908000D01*
X4088000Y25908000D01*
X4068000Y25908000D01*
X4068000Y26162000D01*
X4088000Y26162000D01*
X4088000Y27570750D01*
X4342000Y27570750D01*
X4342000Y26162000D01*
X5000750Y26162000D01*
X5096000Y26257250D01*
X5096000Y27360785D01*
X5037996Y27500819D01*
X4930820Y27607996D01*
X4790786Y27666000D01*
X4437250Y27666000D01*
X4342000Y27570750D01*
X4088000Y27570750D01*
X3992750Y27666000D01*
X3758000Y27666000D01*
X3758000Y28150500D01*
X3992750Y28150500D01*
X4088000Y28245750D01*
X4088000Y29654500D01*
X4342000Y29654500D01*
X4342000Y28245750D01*
X4437250Y28150500D01*
X4790786Y28150500D01*
X4930820Y28208504D01*
X5037996Y28315681D01*
X5096000Y28455715D01*
X5096000Y29559250D01*
X5000750Y29654500D01*
X4342000Y29654500D01*
X4088000Y29654500D01*
X4068000Y29654500D01*
X4068000Y29908500D01*
X4088000Y29908500D01*
X4088000Y31317250D01*
X4342000Y31317250D01*
X4342000Y29908500D01*
X5000750Y29908500D01*
X5096000Y30003750D01*
X5096000Y31107285D01*
X5037996Y31247319D01*
X4930820Y31354496D01*
X4790786Y31412500D01*
X4437250Y31412500D01*
X4342000Y31317250D01*
X4088000Y31317250D01*
X3992750Y31412500D01*
X3758000Y31412500D01*
X3758000Y31548000D01*
X20118000Y31548000D01*
X20118000Y29059000D01*
X20118000Y29059000D01*
G37*
X20118000Y29059000D02*
X20034250Y29059000D01*
X19939000Y28963750D01*
X19939000Y28305000D01*
X19959000Y28305000D01*
X19959000Y28051000D01*
X19939000Y28051000D01*
X19939000Y27392250D01*
X20034250Y27297000D01*
X20118000Y27297000D01*
X20118000Y27066464D01*
X19187000Y27066464D01*
X19045810Y27039897D01*
X18916135Y26956454D01*
X18829141Y26829134D01*
X18798536Y26678000D01*
X18798536Y25855141D01*
X18707661Y25817592D01*
X18421497Y26104256D01*
X18005957Y26276804D01*
X17706500Y26277065D01*
X17706500Y26590750D01*
X17611250Y26686000D01*
X16827500Y26686000D01*
X16827500Y26027250D01*
X16922750Y25932000D01*
X16966499Y25932000D01*
X16882353Y25848000D01*
X15117334Y25848000D01*
X15107254Y25863665D01*
X14979934Y25950659D01*
X14919233Y25962951D01*
X14886596Y26011796D01*
X14505596Y26392796D01*
X14341438Y26502483D01*
X14147800Y26541000D01*
X12636485Y26541000D01*
X12646559Y26590750D01*
X15694500Y26590750D01*
X15694500Y26237214D01*
X15752504Y26097180D01*
X15859681Y25990004D01*
X15999715Y25932000D01*
X16478250Y25932000D01*
X16573500Y26027250D01*
X16573500Y26686000D01*
X15789750Y26686000D01*
X15694500Y26590750D01*
X12646559Y26590750D01*
X12650964Y26612500D01*
X12650964Y26803721D01*
X12694681Y26760004D01*
X12834715Y26702000D01*
X13938250Y26702000D01*
X14033500Y26797250D01*
X14033500Y27456000D01*
X14287500Y27456000D01*
X14287500Y26797250D01*
X14382750Y26702000D01*
X15486285Y26702000D01*
X15626319Y26760004D01*
X15733496Y26867180D01*
X15771301Y26958449D01*
X15789750Y26940000D01*
X16573500Y26940000D01*
X16573500Y27598750D01*
X16827500Y27598750D01*
X16827500Y26940000D01*
X17611250Y26940000D01*
X17706500Y27035250D01*
X17706500Y27388786D01*
X17648496Y27528820D01*
X17541319Y27635996D01*
X17401285Y27694000D01*
X16922750Y27694000D01*
X16827500Y27598750D01*
X16573500Y27598750D01*
X16478250Y27694000D01*
X15999715Y27694000D01*
X15859681Y27635996D01*
X15752504Y27528820D01*
X15714699Y27437551D01*
X15696250Y27456000D01*
X14287500Y27456000D01*
X14033500Y27456000D01*
X14013500Y27456000D01*
X14013500Y27710000D01*
X14033500Y27710000D01*
X14033500Y28368750D01*
X13938250Y28464000D01*
X12834715Y28464000D01*
X12694681Y28405996D01*
X12587504Y28298820D01*
X12529500Y28158786D01*
X12529500Y27805250D01*
X12624748Y27710002D01*
X12529500Y27710002D01*
X12529500Y27641191D01*
X12462909Y27686691D01*
X12453437Y27734311D01*
X12445468Y27774374D01*
X12308684Y27979085D01*
X12028584Y28259184D01*
X11987964Y28286326D01*
X11987964Y28902500D01*
X11961397Y29043690D01*
X11952097Y29058143D01*
X11980500Y29126715D01*
X11980500Y29305250D01*
X11885250Y29400500D01*
X11196500Y29400500D01*
X11196500Y29380500D01*
X10942500Y29380500D01*
X10942500Y29400500D01*
X10253750Y29400500D01*
X10158500Y29305250D01*
X10158500Y29126715D01*
X10186080Y29060131D01*
X10181641Y29053634D01*
X10151036Y28902500D01*
X10151036Y28739732D01*
X9867084Y29023684D01*
X9765499Y29091561D01*
X9787964Y29202500D01*
X9787964Y29846500D01*
X10158500Y29846500D01*
X10158500Y29749750D01*
X10253750Y29654500D01*
X10942500Y29654500D01*
X10942500Y29674500D01*
X11196500Y29674500D01*
X11196500Y29654500D01*
X11885250Y29654500D01*
X11980500Y29749750D01*
X11980500Y29857454D01*
X12179473Y29897032D01*
X12261738Y29952000D01*
X12546686Y29952000D01*
X12548603Y29941810D01*
X12632046Y29812135D01*
X12759366Y29725141D01*
X12910500Y29694536D01*
X15410500Y29694536D01*
X15551690Y29721103D01*
X15681365Y29804546D01*
X15711739Y29849000D01*
X15764000Y29849000D01*
X15764000Y29579000D01*
X15771244Y29542584D01*
X15717641Y29464134D01*
X15687036Y29313000D01*
X15687036Y28345280D01*
X15626319Y28405996D01*
X15486285Y28464000D01*
X14382750Y28464000D01*
X14287500Y28368750D01*
X14287500Y27710000D01*
X15696250Y27710000D01*
X15791500Y27805250D01*
X15791500Y28050754D01*
X15797046Y28042135D01*
X15924366Y27955141D01*
X16075500Y27924536D01*
X17325500Y27924536D01*
X17466690Y27951103D01*
X17473911Y27955750D01*
X18806000Y27955750D01*
X18806000Y27602214D01*
X18864004Y27462180D01*
X18971181Y27355004D01*
X19111215Y27297000D01*
X19589750Y27297000D01*
X19685000Y27392250D01*
X19685000Y28051000D01*
X18901250Y28051000D01*
X18806000Y27955750D01*
X17473911Y27955750D01*
X17596365Y28034546D01*
X17683359Y28161866D01*
X17713964Y28313000D01*
X17713964Y28628979D01*
X17770946Y28605318D01*
X18041865Y28605082D01*
X18292252Y28708539D01*
X18337577Y28753786D01*
X18806000Y28753786D01*
X18806000Y28400250D01*
X18901250Y28305000D01*
X19685000Y28305000D01*
X19685000Y28963750D01*
X19589750Y29059000D01*
X19111215Y29059000D01*
X18971181Y29000996D01*
X18864004Y28893820D01*
X18806000Y28753786D01*
X18337577Y28753786D01*
X18483987Y28899941D01*
X18587882Y29150146D01*
X18588118Y29421065D01*
X18526000Y29571403D01*
X18526000Y29993141D01*
X18533464Y30030000D01*
X18533464Y30930000D01*
X18506897Y31071190D01*
X18423454Y31200865D01*
X18296134Y31287859D01*
X18145000Y31318464D01*
X17645000Y31318464D01*
X17503810Y31291897D01*
X17374135Y31208454D01*
X17287141Y31081134D01*
X17256536Y30930000D01*
X17256536Y30030000D01*
X17264000Y29990333D01*
X17264000Y29701464D01*
X17158859Y29701464D01*
X17146684Y29719685D01*
X17026000Y29840369D01*
X17026000Y29993141D01*
X17033464Y30030000D01*
X17033464Y30930000D01*
X17006897Y31071190D01*
X16923454Y31200865D01*
X16796134Y31287859D01*
X16645000Y31318464D01*
X16145000Y31318464D01*
X16003810Y31291897D01*
X15874135Y31208454D01*
X15807548Y31111000D01*
X15793695Y31111000D01*
X15772397Y31224190D01*
X15688954Y31353865D01*
X15561634Y31440859D01*
X15410500Y31471464D01*
X12910500Y31471464D01*
X12769310Y31444897D01*
X12639635Y31361454D01*
X12552641Y31234134D01*
X12548564Y31214000D01*
X12041000Y31214000D01*
X11833321Y31172690D01*
X11799527Y31165968D01*
X11770657Y31146678D01*
X11750634Y31160359D01*
X11599500Y31190964D01*
X10539500Y31190964D01*
X10398310Y31164397D01*
X10311443Y31108500D01*
X9626532Y31108500D01*
X9550634Y31160359D01*
X9399500Y31190964D01*
X8339500Y31190964D01*
X8198310Y31164397D01*
X8091402Y31095604D01*
X8076897Y31172690D01*
X7993454Y31302365D01*
X7866134Y31389359D01*
X7715000Y31419964D01*
X6715000Y31419964D01*
X6573810Y31393397D01*
X6444135Y31309954D01*
X6357141Y31182634D01*
X6326536Y31031500D01*
X6326536Y28531500D01*
X6353103Y28390310D01*
X6436546Y28260635D01*
X6563866Y28173641D01*
X6640538Y28158115D01*
X6677152Y27974046D01*
X6681432Y27952527D01*
X6818216Y27747816D01*
X6892568Y27673464D01*
X6715000Y27673464D01*
X6573810Y27646897D01*
X6444135Y27563454D01*
X6357141Y27436134D01*
X6326536Y27285000D01*
X6326536Y24785000D01*
X6353103Y24643810D01*
X6436546Y24514135D01*
X6563866Y24427141D01*
X6591695Y24421506D01*
X6280744Y24111097D01*
X6276385Y24100600D01*
X5996582Y24100600D01*
X5876454Y24150482D01*
X5605535Y24150718D01*
X5355148Y24047261D01*
X5163413Y23855859D01*
X5059518Y23605654D01*
X5059282Y23334735D01*
X5162739Y23084348D01*
X5354141Y22892613D01*
X5604346Y22788718D01*
X5875265Y22788482D01*
X5996561Y22838600D01*
X6275979Y22838600D01*
X6279625Y22829777D01*
X6597503Y22511344D01*
X7013043Y22338796D01*
X7462983Y22338404D01*
X7518036Y22361151D01*
X7472104Y22315220D01*
X7414100Y22175186D01*
X7414100Y22018216D01*
X7359919Y22072396D01*
X7219885Y22130400D01*
X6991350Y22130400D01*
X6896100Y22035150D01*
X6896100Y21476400D01*
X6916100Y21476400D01*
X6916100Y21222400D01*
X6896100Y21222400D01*
X6896100Y21202400D01*
X6642100Y21202400D01*
X6642100Y21222400D01*
X6108350Y21222400D01*
X6013100Y21127150D01*
X6013100Y20873614D01*
X6071104Y20733580D01*
X6178281Y20626404D01*
X6237967Y20601681D01*
X6123235Y20527854D01*
X6036241Y20400534D01*
X6005636Y20249400D01*
X6005636Y19472028D01*
X5839804Y19306196D01*
X5764746Y19193864D01*
X5747600Y19193864D01*
X5606410Y19167297D01*
X5476735Y19083854D01*
X5389741Y18956534D01*
X5359136Y18805400D01*
X5359136Y18305400D01*
X5385703Y18164210D01*
X5469146Y18034535D01*
X5596466Y17947541D01*
X5747600Y17916936D01*
X6647600Y17916936D01*
X6788790Y17943503D01*
X6918465Y18026946D01*
X7005459Y18154266D01*
X7036064Y18305400D01*
X7036064Y18805400D01*
X7026139Y18858147D01*
X7126896Y18958904D01*
X7147432Y18989638D01*
X7202402Y19071906D01*
X7285290Y19087503D01*
X7337559Y19121137D01*
X7406636Y19107396D01*
X7406636Y19099400D01*
X7433203Y18958210D01*
X7516646Y18828535D01*
X7612410Y18763102D01*
X7462777Y18701275D01*
X7144344Y18383397D01*
X6971796Y17967857D01*
X6971404Y17517917D01*
X6985407Y17484027D01*
X6926054Y17576265D01*
X6798734Y17663259D01*
X6647600Y17693864D01*
X5747600Y17693864D01*
X5606410Y17667297D01*
X5476735Y17583854D01*
X5389741Y17456534D01*
X5359136Y17305400D01*
X5359136Y17200456D01*
X5205000Y17354592D01*
X5205000Y19812000D01*
X5166483Y20005638D01*
X5056796Y20169796D01*
X4548796Y20677796D01*
X4384638Y20787483D01*
X4191000Y20826000D01*
X3429000Y20826000D01*
X3235362Y20787483D01*
X3071204Y20677796D01*
X2690204Y20296796D01*
X2619733Y20191329D01*
X2606810Y20188897D01*
X2477135Y20105454D01*
X2390141Y19978134D01*
X2359536Y19827000D01*
X2359536Y19427000D01*
X2386103Y19285810D01*
X2456883Y19175814D01*
X2390141Y19078134D01*
X2359536Y18927000D01*
X2359536Y18527000D01*
X2386103Y18385810D01*
X2416520Y18338541D01*
X2306810Y18317897D01*
X2177135Y18234454D01*
X2090141Y18107134D01*
X2059536Y17956000D01*
X2059536Y16756000D01*
X2086103Y16614810D01*
X2169546Y16485135D01*
X2296866Y16398141D01*
X2448000Y16367536D01*
X3648000Y16367536D01*
X3789190Y16394103D01*
X3918865Y16477546D01*
X4005859Y16604866D01*
X4036464Y16756000D01*
X4036464Y17956000D01*
X4009897Y18097190D01*
X3926454Y18226865D01*
X3799134Y18313859D01*
X3679978Y18337988D01*
X3705859Y18375866D01*
X3736464Y18527000D01*
X3736464Y18927000D01*
X3709897Y19068190D01*
X3639117Y19178186D01*
X3705859Y19275866D01*
X3736464Y19427000D01*
X3736464Y19814000D01*
X3981408Y19814000D01*
X4193000Y19602408D01*
X4193000Y17145000D01*
X4231517Y16951362D01*
X4341204Y16787204D01*
X5103204Y16025204D01*
X5267362Y15915517D01*
X5461000Y15877000D01*
X5664410Y15877000D01*
X5811341Y15729813D01*
X5946159Y15673831D01*
X5899744Y15627497D01*
X5727196Y15211957D01*
X5726804Y14762017D01*
X5898625Y14346177D01*
X6216503Y14027744D01*
X6324691Y13982820D01*
X6287135Y13958654D01*
X6200141Y13831334D01*
X6169536Y13680200D01*
X6169536Y13280200D01*
X6196103Y13139010D01*
X6266883Y13029014D01*
X6200141Y12931334D01*
X6169536Y12780200D01*
X6169536Y12380200D01*
X6196103Y12239010D01*
X6251372Y12153119D01*
X6230236Y12138997D01*
X6110134Y12221059D01*
X5959000Y12251664D01*
X5755228Y12251664D01*
X5691796Y12346596D01*
X5360196Y12678196D01*
X5196038Y12787883D01*
X5002400Y12826400D01*
X4431335Y12826400D01*
X4405897Y12961590D01*
X4322454Y13091265D01*
X4195134Y13178259D01*
X4044000Y13208864D01*
X1544000Y13208864D01*
X1472000Y13195316D01*
X1472000Y14933750D01*
X2067000Y14933750D01*
X2067000Y14480214D01*
X2125004Y14340180D01*
X2232181Y14233004D01*
X2372215Y14175000D01*
X2825750Y14175000D01*
X2921000Y14270250D01*
X2921000Y15029000D01*
X3175000Y15029000D01*
X3175000Y14270250D01*
X3270250Y14175000D01*
X3723785Y14175000D01*
X3863819Y14233004D01*
X3970996Y14340180D01*
X4029000Y14480214D01*
X4029000Y14933750D01*
X3933750Y15029000D01*
X3175000Y15029000D01*
X2921000Y15029000D01*
X2162250Y15029000D01*
X2067000Y14933750D01*
X1472000Y14933750D01*
X1472000Y15831786D01*
X2067000Y15831786D01*
X2067000Y15378250D01*
X2162250Y15283000D01*
X2921000Y15283000D01*
X2921000Y16041750D01*
X3175000Y16041750D01*
X3175000Y15283000D01*
X3933750Y15283000D01*
X4029000Y15378250D01*
X4029000Y15831786D01*
X3970996Y15971820D01*
X3863819Y16078996D01*
X3723785Y16137000D01*
X3270250Y16137000D01*
X3175000Y16041750D01*
X2921000Y16041750D01*
X2825750Y16137000D01*
X2372215Y16137000D01*
X2232181Y16078996D01*
X2125004Y15971820D01*
X2067000Y15831786D01*
X1472000Y15831786D01*
X1472000Y20326770D01*
X1979775Y20427773D01*
X2144155Y20495861D01*
X2144157Y20495863D01*
X2885786Y20991404D01*
X3011596Y21117214D01*
X3484648Y21825186D01*
X6013100Y21825186D01*
X6013100Y21571650D01*
X6108350Y21476400D01*
X6642100Y21476400D01*
X6642100Y22035150D01*
X6546850Y22130400D01*
X6318315Y22130400D01*
X6178281Y22072396D01*
X6071104Y21965220D01*
X6013100Y21825186D01*
X3484648Y21825186D01*
X3507139Y21858846D01*
X3575227Y22023225D01*
X3749238Y22898039D01*
X3749238Y22942950D01*
X3758000Y22987000D01*
X3758000Y24404000D01*
X3992750Y24404000D01*
X4088000Y24499250D01*
X4088000Y25908000D01*
X4342000Y25908000D01*
X4342000Y24499250D01*
X4437250Y24404000D01*
X4790786Y24404000D01*
X4930820Y24462004D01*
X5037996Y24569181D01*
X5096000Y24709215D01*
X5096000Y25812750D01*
X5000750Y25908000D01*
X4342000Y25908000D01*
X4088000Y25908000D01*
X4068000Y25908000D01*
X4068000Y26162000D01*
X4088000Y26162000D01*
X4088000Y27570750D01*
X4342000Y27570750D01*
X4342000Y26162000D01*
X5000750Y26162000D01*
X5096000Y26257250D01*
X5096000Y27360785D01*
X5037996Y27500819D01*
X4930820Y27607996D01*
X4790786Y27666000D01*
X4437250Y27666000D01*
X4342000Y27570750D01*
X4088000Y27570750D01*
X3992750Y27666000D01*
X3758000Y27666000D01*
X3758000Y28150500D01*
X3992750Y28150500D01*
X4088000Y28245750D01*
X4088000Y29654500D01*
X4342000Y29654500D01*
X4342000Y28245750D01*
X4437250Y28150500D01*
X4790786Y28150500D01*
X4930820Y28208504D01*
X5037996Y28315681D01*
X5096000Y28455715D01*
X5096000Y29559250D01*
X5000750Y29654500D01*
X4342000Y29654500D01*
X4088000Y29654500D01*
X4068000Y29654500D01*
X4068000Y29908500D01*
X4088000Y29908500D01*
X4088000Y31317250D01*
X4342000Y31317250D01*
X4342000Y29908500D01*
X5000750Y29908500D01*
X5096000Y30003750D01*
X5096000Y31107285D01*
X5037996Y31247319D01*
X4930820Y31354496D01*
X4790786Y31412500D01*
X4437250Y31412500D01*
X4342000Y31317250D01*
X4088000Y31317250D01*
X3992750Y31412500D01*
X3758000Y31412500D01*
X3758000Y31548000D01*
X20118000Y31548000D01*
X20118000Y29059000D01*
G36*
X9574036Y26612500D02*
X9600603Y26471310D01*
X9684046Y26341635D01*
X9811366Y26254641D01*
X9962500Y26224036D01*
X10762500Y26224036D01*
X10903690Y26250603D01*
X11033365Y26334046D01*
X11113480Y26451298D01*
X11184046Y26341635D01*
X11311366Y26254641D01*
X11398919Y26236911D01*
X11021404Y25859396D01*
X10911717Y25695238D01*
X10885927Y25565583D01*
X10847536Y25540879D01*
X10828219Y25560196D01*
X10688185Y25618200D01*
X10534650Y25618200D01*
X10439400Y25522950D01*
X10439400Y25137200D01*
X10459400Y25137200D01*
X10459400Y24937200D01*
X10439400Y24937200D01*
X10439400Y24890200D01*
X10185400Y24890200D01*
X10185400Y24937200D01*
X9726650Y24937200D01*
X9631400Y24841950D01*
X9631400Y24761414D01*
X9689404Y24621380D01*
X9722698Y24588086D01*
X9654541Y24488334D01*
X9623936Y24337200D01*
X9623936Y23937200D01*
X9650503Y23796010D01*
X9685373Y23741820D01*
X9573535Y23669854D01*
X9486541Y23542534D01*
X9455936Y23391400D01*
X9455936Y22341400D01*
X9482503Y22200210D01*
X9563400Y22074492D01*
X9563400Y20572592D01*
X9338244Y20347436D01*
X9323554Y20370265D01*
X9196234Y20457259D01*
X9045100Y20487864D01*
X7795100Y20487864D01*
X7653910Y20461297D01*
X7524235Y20377854D01*
X7511814Y20359675D01*
X7505997Y20390590D01*
X7422554Y20520265D01*
X7302203Y20602497D01*
X7359919Y20626404D01*
X7467096Y20733580D01*
X7512497Y20843187D01*
X7579281Y20776404D01*
X7719315Y20718400D01*
X8197850Y20718400D01*
X8293100Y20813650D01*
X8293100Y21472400D01*
X8547100Y21472400D01*
X8547100Y20813650D01*
X8642350Y20718400D01*
X9120885Y20718400D01*
X9260919Y20776404D01*
X9368096Y20883580D01*
X9426100Y21023614D01*
X9426100Y21377150D01*
X9330850Y21472400D01*
X8547100Y21472400D01*
X8293100Y21472400D01*
X8273100Y21472400D01*
X8273100Y21726400D01*
X8293100Y21726400D01*
X8293100Y22385150D01*
X8547100Y22385150D01*
X8547100Y21726400D01*
X9330850Y21726400D01*
X9426100Y21821650D01*
X9426100Y22175186D01*
X9368096Y22315220D01*
X9260919Y22422396D01*
X9120885Y22480400D01*
X8642350Y22480400D01*
X8547100Y22385150D01*
X8293100Y22385150D01*
X8197850Y22480400D01*
X7806641Y22480400D01*
X7878823Y22510225D01*
X8197256Y22828103D01*
X8369804Y23243643D01*
X8370196Y23693583D01*
X8198375Y24109423D01*
X7880497Y24427856D01*
X7870213Y24432126D01*
X7985865Y24506546D01*
X8072859Y24633866D01*
X8103464Y24785000D01*
X8103464Y24971500D01*
X8339641Y24971500D01*
X8376500Y24964036D01*
X9276500Y24964036D01*
X9417690Y24990603D01*
X9547365Y25074046D01*
X9634359Y25201366D01*
X9639095Y25224755D01*
X9726650Y25137200D01*
X10185400Y25137200D01*
X10185400Y25522950D01*
X10090150Y25618200D01*
X9936615Y25618200D01*
X9796581Y25560196D01*
X9689404Y25453020D01*
X9664964Y25394017D01*
X9664964Y25852500D01*
X9638397Y25993690D01*
X9554954Y26123365D01*
X9427634Y26210359D01*
X9276500Y26240964D01*
X8376500Y26240964D01*
X8336833Y26233500D01*
X8103464Y26233500D01*
X8103464Y26577933D01*
X8225366Y26494641D01*
X8376500Y26464036D01*
X9276500Y26464036D01*
X9417690Y26490603D01*
X9547365Y26574046D01*
X9574036Y26613080D01*
X9574036Y26612500D01*
X9574036Y26612500D01*
G37*
X9574036Y26612500D02*
X9600603Y26471310D01*
X9684046Y26341635D01*
X9811366Y26254641D01*
X9962500Y26224036D01*
X10762500Y26224036D01*
X10903690Y26250603D01*
X11033365Y26334046D01*
X11113480Y26451298D01*
X11184046Y26341635D01*
X11311366Y26254641D01*
X11398919Y26236911D01*
X11021404Y25859396D01*
X10911717Y25695238D01*
X10885927Y25565583D01*
X10847536Y25540879D01*
X10828219Y25560196D01*
X10688185Y25618200D01*
X10534650Y25618200D01*
X10439400Y25522950D01*
X10439400Y25137200D01*
X10459400Y25137200D01*
X10459400Y24937200D01*
X10439400Y24937200D01*
X10439400Y24890200D01*
X10185400Y24890200D01*
X10185400Y24937200D01*
X9726650Y24937200D01*
X9631400Y24841950D01*
X9631400Y24761414D01*
X9689404Y24621380D01*
X9722698Y24588086D01*
X9654541Y24488334D01*
X9623936Y24337200D01*
X9623936Y23937200D01*
X9650503Y23796010D01*
X9685373Y23741820D01*
X9573535Y23669854D01*
X9486541Y23542534D01*
X9455936Y23391400D01*
X9455936Y22341400D01*
X9482503Y22200210D01*
X9563400Y22074492D01*
X9563400Y20572592D01*
X9338244Y20347436D01*
X9323554Y20370265D01*
X9196234Y20457259D01*
X9045100Y20487864D01*
X7795100Y20487864D01*
X7653910Y20461297D01*
X7524235Y20377854D01*
X7511814Y20359675D01*
X7505997Y20390590D01*
X7422554Y20520265D01*
X7302203Y20602497D01*
X7359919Y20626404D01*
X7467096Y20733580D01*
X7512497Y20843187D01*
X7579281Y20776404D01*
X7719315Y20718400D01*
X8197850Y20718400D01*
X8293100Y20813650D01*
X8293100Y21472400D01*
X8547100Y21472400D01*
X8547100Y20813650D01*
X8642350Y20718400D01*
X9120885Y20718400D01*
X9260919Y20776404D01*
X9368096Y20883580D01*
X9426100Y21023614D01*
X9426100Y21377150D01*
X9330850Y21472400D01*
X8547100Y21472400D01*
X8293100Y21472400D01*
X8273100Y21472400D01*
X8273100Y21726400D01*
X8293100Y21726400D01*
X8293100Y22385150D01*
X8547100Y22385150D01*
X8547100Y21726400D01*
X9330850Y21726400D01*
X9426100Y21821650D01*
X9426100Y22175186D01*
X9368096Y22315220D01*
X9260919Y22422396D01*
X9120885Y22480400D01*
X8642350Y22480400D01*
X8547100Y22385150D01*
X8293100Y22385150D01*
X8197850Y22480400D01*
X7806641Y22480400D01*
X7878823Y22510225D01*
X8197256Y22828103D01*
X8369804Y23243643D01*
X8370196Y23693583D01*
X8198375Y24109423D01*
X7880497Y24427856D01*
X7870213Y24432126D01*
X7985865Y24506546D01*
X8072859Y24633866D01*
X8103464Y24785000D01*
X8103464Y24971500D01*
X8339641Y24971500D01*
X8376500Y24964036D01*
X9276500Y24964036D01*
X9417690Y24990603D01*
X9547365Y25074046D01*
X9634359Y25201366D01*
X9639095Y25224755D01*
X9726650Y25137200D01*
X10185400Y25137200D01*
X10185400Y25522950D01*
X10090150Y25618200D01*
X9936615Y25618200D01*
X9796581Y25560196D01*
X9689404Y25453020D01*
X9664964Y25394017D01*
X9664964Y25852500D01*
X9638397Y25993690D01*
X9554954Y26123365D01*
X9427634Y26210359D01*
X9276500Y26240964D01*
X8376500Y26240964D01*
X8336833Y26233500D01*
X8103464Y26233500D01*
X8103464Y26577933D01*
X8225366Y26494641D01*
X8376500Y26464036D01*
X9276500Y26464036D01*
X9417690Y26490603D01*
X9547365Y26574046D01*
X9574036Y26613080D01*
X9574036Y26612500D01*
G36*
X12876250Y25492800D02*
X13335000Y25492800D01*
X13335000Y25529000D01*
X13589000Y25529000D01*
X13589000Y25492800D01*
X13609000Y25492800D01*
X13609000Y25292800D01*
X13589000Y25292800D01*
X13589000Y25245800D01*
X13335000Y25245800D01*
X13335000Y25292800D01*
X12876250Y25292800D01*
X12781000Y25197550D01*
X12781000Y25117014D01*
X12839004Y24976980D01*
X12872298Y24943686D01*
X12808383Y24850142D01*
X12658254Y24912482D01*
X12387335Y24912718D01*
X12136948Y24809261D01*
X12043018Y24715494D01*
X12067664Y24837200D01*
X12067664Y25237200D01*
X12041097Y25378390D01*
X12013879Y25420687D01*
X12122192Y25529000D01*
X12840050Y25529000D01*
X12876250Y25492800D01*
X12876250Y25492800D01*
G37*
X12876250Y25492800D02*
X13335000Y25492800D01*
X13335000Y25529000D01*
X13589000Y25529000D01*
X13589000Y25492800D01*
X13609000Y25492800D01*
X13609000Y25292800D01*
X13589000Y25292800D01*
X13589000Y25245800D01*
X13335000Y25245800D01*
X13335000Y25292800D01*
X12876250Y25292800D01*
X12781000Y25197550D01*
X12781000Y25117014D01*
X12839004Y24976980D01*
X12872298Y24943686D01*
X12808383Y24850142D01*
X12658254Y24912482D01*
X12387335Y24912718D01*
X12136948Y24809261D01*
X12043018Y24715494D01*
X12067664Y24837200D01*
X12067664Y25237200D01*
X12041097Y25378390D01*
X12013879Y25420687D01*
X12122192Y25529000D01*
X12840050Y25529000D01*
X12876250Y25492800D01*
M02*
