M48
; DRILL file {KiCad 5.1.5-52549c5~84~ubuntu18.04.1} date vie 24 jul 2020 20:05:27 -03
; FORMAT={3:3/ absolute / metric / suppress leading zeros}
; #@! TF.CreationDate,2020-07-24T20:05:27-03:00
; #@! TF.GenerationSoftware,Kicad,Pcbnew,5.1.5-52549c5~84~ubuntu18.04.1
; #@! TF.FileFunction,Plated,1,2,PTH
FMAT,2
METRIC,TZ
T1C0.300
%
G90
G05
T1
X135254Y-86200
X135254Y-87800
X135379Y-96200
X135379Y-97800
X136350Y-86200
X136414Y-87800
X136461Y-96200
X136461Y-97800
X137443Y-86263
X137536Y-96102
X137538Y-97724
X137566Y-87904
X138514Y-86490
X138572Y-95799
X138593Y-97487
X138673Y-88243
X139538Y-86877
X139548Y-95332
X139599Y-97094
X139715Y-88752
X140517Y-94852
X140520Y-87365
X140567Y-96611
X140760Y-89254
X141511Y-87832
X141530Y-94477
X141547Y-96155
X141862Y-89610
X141862Y-89610
X142566Y-88121
X142588Y-94258
X142590Y-95875
X143301Y-89797
X143658Y-88200
X143667Y-94200
X143667Y-95800
X144749Y-94200
X144749Y-95800
X144754Y-88200
X144754Y-89800
X155251Y-88200
X155251Y-89800
X155254Y-94200
X155254Y-95800
X156333Y-88200
X156333Y-89800
X156350Y-94200
X156414Y-95800
X157410Y-88125
X157412Y-89742
X157443Y-94263
X157566Y-95904
X158453Y-87845
X158470Y-89523
X158514Y-94490
X158673Y-96243
X159433Y-87389
X159483Y-89148
X159538Y-94877
X159715Y-96752
X160401Y-86906
X160452Y-88668
X160520Y-95365
X160760Y-97254
X161407Y-86513
X161428Y-88201
X161511Y-95832
X161862Y-97610
X161862Y-97610
X162462Y-86276
X162464Y-87898
X162566Y-96121
X163301Y-97797
X163539Y-86200
X163539Y-87800
X163658Y-96200
X164621Y-86200
X164621Y-87800
X164754Y-96200
X164754Y-97800
T0
M30
