<?xml version="1.0" standalone="no"?>
 <!DOCTYPE svg PUBLIC "-//W3C//DTD SVG 1.1//EN" 
 "http://www.w3.org/Graphics/SVG/1.1/DTD/svg11.dtd"> 
<svg xmlns="http://www.w3.org/2000/svg" version="1.1" 
    width="29.7002cm" height="21.0007cm" viewBox="0 0 116930 82680 ">
<title>SVG Picture created as Resonator_coupler-F_Cu.svg date 2020/04/18 16:47:20 </title>
  <desc>Picture generated by PCBNEW </desc>
<g style="fill:#000000; fill-opacity:1;stroke:#000000; stroke-opacity:1;
stroke-linecap:round; stroke-linejoin:round; "
 transform="translate(0 0) scale(1 1)">
</g>
<g style="fill:#000000; fill-opacity:0.0; 
stroke:#000000; stroke-width:-0.000393701; stroke-opacity:1; 
stroke-linecap:round; stroke-linejoin:round;">
<g >
</g>
<g style="fill:#000000; fill-opacity:0.0; 
stroke:#000000; stroke-width:0; stroke-opacity:1; 
stroke-linecap:round; stroke-linejoin:round;">
</g>
<g style="fill:#000000; fill-opacity:1.0; 
stroke:#000000; stroke-width:0; stroke-opacity:1; 
stroke-linecap:round; stroke-linejoin:round;">
<path style="fill:#000000; fill-opacity:1.0; 
stroke:#000000; stroke-width:0; stroke-opacity:1; 
stroke-linecap:round; stroke-linejoin:round;fill-rule:evenodd;"
d="M 60629.5,43508.3
60629.5,43491.7
60646.1,43491.7
60646.1,43508.3
Z" /> 
<path style="fill:#000000; fill-opacity:1.0; 
stroke:#000000; stroke-width:0; stroke-opacity:1; 
stroke-linecap:round; stroke-linejoin:round;fill-rule:evenodd;"
d="M 60633.9,43492.1
60633.9,43484.3
60641.7,43484.3
60641.7,43492.1
Z" /> 
</g>
<g >
</g>
<g style="fill:#000000; fill-opacity:1.0; 
stroke:#000000; stroke-width:0; stroke-opacity:1; 
stroke-linecap:round; stroke-linejoin:round;">
<path style="fill:#000000; fill-opacity:1.0; 
stroke:#000000; stroke-width:0; stroke-opacity:1; 
stroke-linecap:round; stroke-linejoin:round;fill-rule:evenodd;"
d="M 61204.3,43397.2
61204.3,43380.7
61220.9,43380.7
61220.9,43397.2
Z" /> 
<path style="fill:#000000; fill-opacity:1.0; 
stroke:#000000; stroke-width:0; stroke-opacity:1; 
stroke-linecap:round; stroke-linejoin:round;fill-rule:evenodd;"
d="M 61208.7,43381.1
61208.7,43373.2
61216.5,43373.2
61216.5,43381.1
Z" /> 
</g>
<g >
</g>
<g style="fill:#000000; fill-opacity:1.0; 
stroke:#000000; stroke-width:0; stroke-opacity:1; 
stroke-linecap:round; stroke-linejoin:round;">
<path style="fill:#000000; fill-opacity:1.0; 
stroke:#000000; stroke-width:0; stroke-opacity:1; 
stroke-linecap:round; stroke-linejoin:round;fill-rule:evenodd;"
d="M 60023.2,43637
60023.2,43620.5
60039.8,43620.5
60039.8,43637
Z" /> 
<path style="fill:#000000; fill-opacity:1.0; 
stroke:#000000; stroke-width:0; stroke-opacity:1; 
stroke-linecap:round; stroke-linejoin:round;fill-rule:evenodd;"
d="M 60027.6,43620.9
60027.6,43613
60035.4,43613
60035.4,43620.9
Z" /> 
</g>
<g >
</g>
<g style="fill:#000000; fill-opacity:1.0; 
stroke:#000000; stroke-width:0; stroke-opacity:1; 
stroke-linecap:round; stroke-linejoin:round;">
<path style="fill:#000000; fill-opacity:1.0; 
stroke:#000000; stroke-width:0; stroke-opacity:1; 
stroke-linecap:round; stroke-linejoin:round;fill-rule:evenodd;"
d="M 60421.3,41758.7
60429.1,41758.7
60429.1,41766.5
60421.3,41766.5
Z" /> 
<path style="fill:#000000; fill-opacity:1.0; 
stroke:#000000; stroke-width:0; stroke-opacity:1; 
stroke-linecap:round; stroke-linejoin:round;fill-rule:evenodd;"
d="M 60437,41758.7
60444.9,41758.7
60444.9,41766.5
60437,41766.5
Z" /> 
</g>
<g >
</g>
<g style="fill:#000000; fill-opacity:1.0; 
stroke:#000000; stroke-width:0; stroke-opacity:1; 
stroke-linecap:round; stroke-linejoin:round;">
<path style="fill:#000000; fill-opacity:1.0; 
stroke:#000000; stroke-width:0; stroke-opacity:1; 
stroke-linecap:round; stroke-linejoin:round;fill-rule:evenodd;"
d="M 60996.1,41758.7
61003.9,41758.7
61003.9,41766.5
60996.1,41766.5
Z" /> 
<path style="fill:#000000; fill-opacity:1.0; 
stroke:#000000; stroke-width:0; stroke-opacity:1; 
stroke-linecap:round; stroke-linejoin:round;fill-rule:evenodd;"
d="M 61011.8,41758.7
61019.7,41758.7
61019.7,41766.5
61011.8,41766.5
Z" /> 
</g>
<g >
</g>
<g style="fill:#000000; fill-opacity:1.0; 
stroke:#000000; stroke-width:0; stroke-opacity:1; 
stroke-linecap:round; stroke-linejoin:round;">
<path style="fill:#000000; fill-opacity:1.0; 
stroke:#000000; stroke-width:0; stroke-opacity:1; 
stroke-linecap:round; stroke-linejoin:round;fill-rule:evenodd;"
d="M 59815,41758.7
59822.8,41758.7
59822.8,41766.5
59815,41766.5
Z" /> 
<path style="fill:#000000; fill-opacity:1.0; 
stroke:#000000; stroke-width:0; stroke-opacity:1; 
stroke-linecap:round; stroke-linejoin:round;fill-rule:evenodd;"
d="M 59830.7,41758.7
59838.6,41758.7
59838.6,41766.5
59830.7,41766.5
Z" /> 
</g>
<g >
</g>
<g style="fill:#000000; fill-opacity:1.0; 
stroke:#000000; stroke-width:0; stroke-opacity:1; 
stroke-linecap:round; stroke-linejoin:round;">
<path style="fill:#000000; fill-opacity:1.0; 
stroke:#000000; stroke-width:0; stroke-opacity:1; 
stroke-linecap:round; stroke-linejoin:round;fill-rule:evenodd;"
d="M 58470.9,41718.9
58459.1,41718.9
58380.3,41630.3
58280.3,41630.3
58280.3,41544.1
58470.9,41544.1
Z" /> 
<path style="fill:#000000; fill-opacity:1.0; 
stroke:#000000; stroke-width:0; stroke-opacity:1; 
stroke-linecap:round; stroke-linejoin:round;fill-rule:evenodd;"
d="M 58459.1,41737.4
58459.1,41725.6
58470.9,41725.6
58470.9,41737.4
Z" /> 
<path style="fill:#000000; fill-opacity:1.0; 
stroke:#000000; stroke-width:0; stroke-opacity:1; 
stroke-linecap:round; stroke-linejoin:round;fill-rule:evenodd;"
d="M 58470.9,41918.9
58280.3,41918.9
58280.3,41832.7
58380.3,41832.7
58459.1,41744.1
58470.9,41744.1
Z" /> 
<path style="fill:#000000; fill-opacity:1.0; 
stroke:#000000; stroke-width:0; stroke-opacity:1; 
stroke-linecap:round; stroke-linejoin:round;fill-rule:evenodd;"
d="M 58459.1,41725.6
58459.1,41737.4
58380.3,41781.5
58280.3,41781.5
58280.3,41681.5
58380.3,41681.5
Z" /> 
</g>
<g >
</g>
<g style="fill:#000000; fill-opacity:1.0; 
stroke:#000000; stroke-width:0; stroke-opacity:1; 
stroke-linecap:round; stroke-linejoin:round;">
<path style="fill:#000000; fill-opacity:1.0; 
stroke:#000000; stroke-width:0; stroke-opacity:1; 
stroke-linecap:round; stroke-linejoin:round;fill-rule:evenodd;"
d="M 59432.3,43786.6
59432.3,43770.1
59448.8,43770.1
59448.8,43786.6
Z" /> 
<path style="fill:#000000; fill-opacity:1.0; 
stroke:#000000; stroke-width:0; stroke-opacity:1; 
stroke-linecap:round; stroke-linejoin:round;fill-rule:evenodd;"
d="M 59436.6,43770.5
59436.6,43762.6
59444.5,43762.6
59444.5,43770.5
Z" /> 
</g>
<g >
</g>
<g style="fill:#000000; fill-opacity:1.0; 
stroke:#000000; stroke-width:0; stroke-opacity:1; 
stroke-linecap:round; stroke-linejoin:round;">
<path style="fill:#000000; fill-opacity:1.0; 
stroke:#000000; stroke-width:0; stroke-opacity:1; 
stroke-linecap:round; stroke-linejoin:round;fill-rule:evenodd;"
d="M 62002,41744.1
62013.8,41744.1
62092.5,41832.7
62192.5,41832.7
62192.5,41918.9
62002,41918.9
Z" /> 
<path style="fill:#000000; fill-opacity:1.0; 
stroke:#000000; stroke-width:0; stroke-opacity:1; 
stroke-linecap:round; stroke-linejoin:round;fill-rule:evenodd;"
d="M 62013.8,41725.6
62013.8,41737.4
62002,41737.4
62002,41725.6
Z" /> 
<path style="fill:#000000; fill-opacity:1.0; 
stroke:#000000; stroke-width:0; stroke-opacity:1; 
stroke-linecap:round; stroke-linejoin:round;fill-rule:evenodd;"
d="M 62002,41544.1
62192.5,41544.1
62192.5,41630.3
62092.5,41630.3
62013.8,41718.9
62002,41718.9
Z" /> 
<path style="fill:#000000; fill-opacity:1.0; 
stroke:#000000; stroke-width:0; stroke-opacity:1; 
stroke-linecap:round; stroke-linejoin:round;fill-rule:evenodd;"
d="M 62013.8,41737.4
62013.8,41725.6
62092.5,41681.5
62192.5,41681.5
62192.5,41781.5
62092.5,41781.5
Z" /> 
</g>
<g >
</g>
<g style="fill:#000000; fill-opacity:1.0; 
stroke:#000000; stroke-width:0; stroke-opacity:1; 
stroke-linecap:round; stroke-linejoin:round;">
<path style="fill:#000000; fill-opacity:1.0; 
stroke:#000000; stroke-width:0; stroke-opacity:1; 
stroke-linecap:round; stroke-linejoin:round;fill-rule:evenodd;"
d="M 59224,41758.7
59231.9,41758.7
59231.9,41766.5
59224,41766.5
Z" /> 
<path style="fill:#000000; fill-opacity:1.0; 
stroke:#000000; stroke-width:0; stroke-opacity:1; 
stroke-linecap:round; stroke-linejoin:round;fill-rule:evenodd;"
d="M 59239.8,41758.7
59247.6,41758.7
59247.6,41766.5
59239.8,41766.5
Z" /> 
</g>
<g >
</g>
<g >
</g>
<g style="fill:#000000; fill-opacity:1.0; 
stroke:#000000; stroke-width:0; stroke-opacity:1; 
stroke-linecap:round; stroke-linejoin:round;">
</g>
<g style="fill:#000000; fill-opacity:1.0; 
stroke:#000000; stroke-width:11.811; stroke-opacity:1; 
stroke-linecap:round; stroke-linejoin:round;">
</g>
<g style="fill:#000000; fill-opacity:0.0; 
stroke:#000000; stroke-width:11.811; stroke-opacity:1; 
stroke-linecap:round; stroke-linejoin:round;">
<path d="M58378 41731
L58378 41733
" />
</g>
<g style="fill:#000000; fill-opacity:0.0; 
stroke:#000000; stroke-width:7.87402; stroke-opacity:1; 
stroke-linecap:round; stroke-linejoin:round;">
<path d="M59381 41762
L59243 41762
" />
<path d="M59381 41762
L59384 41762
" />
<path d="M59384 41762
L59387 41762
" />
<path d="M59387 41762
L59390 41763
" />
<path d="M59390 41763
L59393 41763
" />
<path d="M59393 41763
L59395 41764
" />
<path d="M59395 41764
L59398 41765
" />
<path d="M59398 41765
L59401 41766
" />
<path d="M59401 41766
L59404 41767
" />
<path d="M59404 41767
L59406 41768
" />
<path d="M59406 41768
L59409 41769
" />
<path d="M59409 41769
L59411 41771
" />
<path d="M59411 41771
L59414 41772
" />
<path d="M59414 41772
L59416 41774
" />
<path d="M59416 41774
L59418 41776
" />
<path d="M59418 41776
L59421 41777
" />
<path d="M59421 41777
L59423 41779
" />
<path d="M59423 41779
L59425 41781
" />
<path d="M59425 41781
L59427 41784
" />
<path d="M59427 41784
L59428 41786
" />
<path d="M59428 41786
L59430 41788
" />
<path d="M59430 41788
L59432 41791
" />
<path d="M59432 41791
L59433 41793
" />
<path d="M59433 41793
L59434 41796
" />
<path d="M59434 41796
L59436 41799
" />
<path d="M59436 41799
L59437 41801
" />
<path d="M59437 41801
L59438 41804
" />
<path d="M59438 41804
L59438 41807
" />
<path d="M59438 41807
L59439 41810
" />
<path d="M59439 41810
L59439 41812
" />
<path d="M59439 41812
L59440 41815
" />
<path d="M59440 41815
L59440 41818
" />
<path d="M59440 41818
L59440 41821
" />
<path d="M59440 41821
L59440 43766
" />
</g>
<g style="fill:#000000; fill-opacity:0.0; 
stroke:#000000; stroke-width:3.93701; stroke-opacity:1; 
stroke-linecap:round; stroke-linejoin:round;">
<path d="M62009 41731
L62009 41731
" />
</g>
<g style="fill:#000000; fill-opacity:0.0; 
stroke:#000000; stroke-width:11.811; stroke-opacity:1; 
stroke-linecap:round; stroke-linejoin:round;">
<path d="M58463 41731
L62009 41731
" />
</g>
<g style="fill:#000000; fill-opacity:0.0; 
stroke:#000000; stroke-width:7.87402; stroke-opacity:1; 
stroke-linecap:round; stroke-linejoin:round;">
<path d="M59972 41762
L59834 41762
" />
<path d="M59972 41762
L59975 41762
" />
<path d="M59975 41762
L59978 41762
" />
<path d="M59978 41762
L59981 41763
" />
<path d="M59981 41763
L59983 41763
" />
<path d="M59983 41763
L59986 41764
" />
<path d="M59986 41764
L59989 41765
" />
<path d="M59989 41765
L59992 41766
" />
<path d="M59992 41766
L59995 41767
" />
<path d="M59995 41767
L59997 41768
" />
<path d="M59997 41768
L60000 41769
" />
<path d="M60000 41769
L60002 41771
" />
<path d="M60002 41771
L60005 41772
" />
<path d="M60005 41772
L60007 41774
" />
<path d="M60007 41774
L60009 41776
" />
<path d="M60009 41776
L60012 41777
" />
<path d="M60012 41777
L60014 41779
" />
<path d="M60014 41779
L60016 41781
" />
<path d="M60016 41781
L60018 41784
" />
<path d="M60018 41784
L60019 41786
" />
<path d="M60019 41786
L60021 41788
" />
<path d="M60021 41788
L60023 41791
" />
<path d="M60023 41791
L60024 41793
" />
<path d="M60024 41793
L60025 41796
" />
<path d="M60025 41796
L60027 41799
" />
<path d="M60027 41799
L60028 41801
" />
<path d="M60028 41801
L60028 41804
" />
<path d="M60028 41804
L60029 41807
" />
<path d="M60029 41807
L60030 41810
" />
<path d="M60030 41810
L60030 41812
" />
<path d="M60030 41812
L60031 41815
" />
<path d="M60031 41815
L60031 41818
" />
<path d="M60031 41818
L60031 41821
" />
<path d="M60031 41821
L60031 43616
" />
<path d="M61153 41762
L61015 41762
" />
<path d="M61153 41762
L61156 41762
" />
<path d="M61156 41762
L61159 41762
" />
<path d="M61159 41762
L61162 41763
" />
<path d="M61162 41763
L61165 41763
" />
<path d="M61165 41763
L61167 41764
" />
<path d="M61167 41764
L61170 41765
" />
<path d="M61170 41765
L61173 41766
" />
<path d="M61173 41766
L61176 41767
" />
<path d="M61176 41767
L61178 41768
" />
<path d="M61178 41768
L61181 41769
" />
<path d="M61181 41769
L61183 41771
" />
<path d="M61183 41771
L61186 41772
" />
<path d="M61186 41772
L61188 41774
" />
<path d="M61188 41774
L61191 41776
" />
<path d="M61191 41776
L61193 41777
" />
<path d="M61193 41777
L61195 41779
" />
<path d="M61195 41779
L61197 41781
" />
<path d="M61197 41781
L61199 41784
" />
<path d="M61199 41784
L61200 41786
" />
<path d="M61200 41786
L61202 41788
" />
<path d="M61202 41788
L61204 41791
" />
<path d="M61204 41791
L61205 41793
" />
<path d="M61205 41793
L61206 41796
" />
<path d="M61206 41796
L61208 41799
" />
<path d="M61208 41799
L61209 41801
" />
<path d="M61209 41801
L61210 41804
" />
<path d="M61210 41804
L61210 41807
" />
<path d="M61210 41807
L61211 41810
" />
<path d="M61211 41810
L61211 41812
" />
<path d="M61211 41812
L61212 41815
" />
<path d="M61212 41815
L61212 41818
" />
<path d="M61212 41818
L61212 41821
" />
<path d="M61212 41821
L61212 43376
" />
<path d="M60578 41762
L60440 41762
" />
<path d="M60578 41762
L60584 41762
" />
<path d="M60584 41762
L60590 41763
" />
<path d="M60590 41763
L60595 41765
" />
<path d="M60595 41765
L60601 41767
" />
<path d="M60601 41767
L60606 41769
" />
<path d="M60606 41769
L60611 41772
" />
<path d="M60611 41772
L60616 41776
" />
<path d="M60616 41776
L60620 41779
" />
<path d="M60620 41779
L60624 41784
" />
<path d="M60624 41784
L60627 41788
" />
<path d="M60627 41788
L60630 41793
" />
<path d="M60630 41793
L60633 41799
" />
<path d="M60633 41799
L60635 41804
" />
<path d="M60635 41804
L60636 41810
" />
<path d="M60636 41810
L60637 41815
" />
<path d="M60637 41815
L60637 41821
" />
<path d="M60637 41821
L60637 43487
" />
</g>
<g >
</g>
<g style="fill:#000000; fill-opacity:0.0; 
stroke:#000000; stroke-width:7.87402; stroke-opacity:1; 
stroke-linecap:round; stroke-linejoin:round;">
</g>
<g style="fill:#000000; fill-opacity:1.0; 
stroke:#000000; stroke-width:10; stroke-opacity:1; 
stroke-linecap:round; stroke-linejoin:round;">
<path style="fill:#000000; fill-opacity:1.0; 
stroke:#000000; stroke-width:10; stroke-opacity:1; 
stroke-linecap:round; stroke-linejoin:round;fill-rule:evenodd;"
d="M 62089.2,41835.6
62089.9,41836.3
62090.7,41836.8
62091.7,41837.1
62092.9,41837.3
62187.9,41837.3
62187.9,44077.7
58284.5,44077.7
58284.5,41838.1
58380.7,41838.1
58381.7,41838
58382.6,41837.7
58383.5,41837.2
58384.5,41836.4
58449.4,41762.6
59230.4,41762.6
59230.4,41762.8
59230.4,41766.5
59230.6,41768.4
59231.1,41770.1
59232,41771.7
59233.1,41773.2
59234.6,41774.3
59236.2,41775.2
59237.9,41775.7
59239.8,41775.9
59247.6,41775.9
59248.1,41775.9
59381.3,41775.9
59383.7,41775.9
59386,41776.1
59388.2,41776.4
59390.4,41776.7
59392.6,41777.2
59394.8,41777.8
59396.9,41778.5
59399,41779.4
59401.1,41780.3
59403.1,41781.3
59405,41782.4
59406.9,41783.6
59408.8,41784.9
59410.5,41786.3
59412.2,41787.7
59413.9,41789.3
59415.4,41790.9
59416.9,41792.6
59418.3,41794.4
59419.6,41796.2
59420.8,41798.1
59421.9,41800.1
59422.9,41802.1
59423.8,41804.1
59424.6,41806.2
59425.3,41808.4
59425.9,41810.5
59426.4,41812.7
59426.8,41814.9
59427.1,41817.2
59427.2,41819.4
59427.3,41821.8
59427.3,43762.1
59427.2,43762.6
59427.2,43770.5
59427.4,43772.3
59428,43774.1
59428.8,43775.7
59430,43777.1
59431.4,43778.3
59433,43779.1
59434.8,43779.7
59436.6,43779.8
59440.4,43779.8
59440.6,43779.9
59440.7,43779.8
59444.5,43779.8
59446.3,43779.7
59448.1,43779.1
59449.7,43778.3
59451.1,43777.1
59452.3,43775.7
59453.2,43774.1
59453.7,43772.3
59453.9,43770.5
59453.9,43762.6
59453.8,43762.1
59453.8,41822.1
59453.8,41822
59453.8,41821.5
59453.8,41821
59453.8,41820.8
59453.8,41818.8
59453.8,41818.4
59453.7,41818.1
59453.7,41817.8
59453.7,41817.5
59453.5,41815.2
59453.5,41814.9
59453.5,41814.6
59453.4,41814.2
59453.4,41813.9
59453.1,41811.7
59453.1,41811.4
59453,41811
59453,41810.7
59452.9,41810.4
59452.5,41808.2
59452.5,41807.9
59452.4,41807.5
59452.4,41807.2
59452.3,41806.9
59451.8,41804.7
59451.7,41804.4
59451.7,41804.1
59451.6,41803.8
59451.5,41803.4
59450.9,41801.3
59450.8,41801
59450.7,41800.7
59450.6,41800.3
59450.5,41800
59449.8,41797.9
59449.7,41797.6
59449.6,41797.3
59449.5,41797
59449.4,41796.7
59448.5,41794.6
59448.4,41794.3
59448.3,41794
59448.2,41793.7
59448.1,41793.4
59447.1,41791.3
59447,41791
59446.9,41790.7
59446.7,41790.4
59446.6,41790.2
59445.6,41788.1
59445.4,41787.8
59445.3,41787.6
59445.1,41787.3
59445,41787
59443.9,41785
59443.7,41784.7
59443.5,41784.5
59443.4,41784.2
59443.2,41783.9
59442,41782
59441.8,41781.7
59441.6,41781.5
59441.5,41781.2
59441.3,41780.9
59440,41779.1
59439.8,41778.8
59439.6,41778.6
59439.4,41778.3
59439.2,41778.1
59437.8,41776.3
59437.6,41776
59437.4,41775.8
59437.2,41775.5
59437,41775.3
59435.5,41773.6
59435.3,41773.3
59435.1,41773.1
59434.9,41772.8
59434.6,41772.6
59433.1,41771
59432.9,41770.7
59432.6,41770.5
59432.4,41770.3
59432.2,41770.1
59430.5,41768.5
59430.3,41768.3
59430.1,41768.1
59429.8,41767.8
59429.6,41767.6
59427.9,41766.2
59427.6,41765.9
59427.4,41765.7
59427.1,41765.5
59426.9,41765.3
59425.1,41764
59424.8,41763.7
59424.6,41763.6
59424.3,41763.4
59424.1,41763.2
59423.2,41762.6
59821.3,41762.6
59821.3,41762.8
59821.3,41766.5
59821.5,41768.4
59822,41770.1
59822.9,41771.7
59824.1,41773.2
59825.5,41774.3
59827.1,41775.2
59828.9,41775.7
59830.7,41775.9
59838.6,41775.9
59839,41775.9
59972.3,41775.9
59974.7,41775.9
59976.9,41776.1
59979.2,41776.4
59981.4,41776.7
59983.6,41777.2
59985.7,41777.8
59987.9,41778.5
59990,41779.4
59992,41780.3
59994,41781.3
59996,41782.4
59997.9,41783.6
59999.7,41784.9
60001.5,41786.3
60003.2,41787.7
60004.8,41789.3
60006.4,41790.9
60007.8,41792.6
60009.2,41794.4
60010.5,41796.2
60011.7,41798.1
60012.8,41800.1
60013.8,41802.1
60014.7,41804.1
60015.5,41806.2
60016.3,41808.4
60016.9,41810.5
60017.3,41812.7
60017.7,41814.9
60018,41817.2
60018.2,41819.4
60018.2,41821.8
60018.2,43612.5
60018.2,43613
60018.2,43620.9
60018.4,43622.7
60018.9,43624.5
60019.8,43626.1
60020.9,43627.5
60022.4,43628.7
60024,43629.5
60025.7,43630.1
60027.6,43630.2
60031.3,43630.2
60031.5,43630.3
60031.7,43630.2
60035.4,43630.2
60037.3,43630.1
60039,43629.5
60040.6,43628.7
60042.1,43627.5
60043.2,43626.1
60044.1,43624.5
60044.6,43622.7
60044.8,43620.9
60044.8,43613
60044.8,43612.5
60044.8,41822.1
60044.8,41822
60044.8,41821.5
60044.8,41821
60044.7,41820.8
60044.7,41818.8
60044.7,41818.4
60044.7,41818.1
60044.7,41817.8
60044.6,41817.5
60044.5,41815.2
60044.5,41814.9
60044.4,41814.6
60044.4,41814.2
60044.3,41813.9
60044.1,41811.7
60044,41811.4
60044,41811
60043.9,41810.7
60043.9,41810.4
60043.5,41808.2
60043.4,41807.9
60043.4,41807.5
60043.3,41807.2
60043.2,41806.9
60042.7,41804.7
60042.7,41804.4
60042.6,41804.1
60042.5,41803.8
60042.4,41803.4
60041.8,41801.3
60041.8,41801
60041.7,41800.7
60041.6,41800.3
60041.4,41800
60040.7,41797.9
60040.7,41797.6
60040.5,41797.3
60040.4,41797
60040.3,41796.7
60039.5,41794.6
60039.4,41794.3
60039.3,41794
60039.1,41793.7
60039,41793.4
60038.1,41791.3
60038,41791
60037.8,41790.7
60037.7,41790.4
60037.5,41790.2
60036.5,41788.1
60036.4,41787.8
60036.2,41787.6
60036.1,41787.3
60035.9,41787
60034.8,41785
60034.7,41784.7
60034.5,41784.5
60034.3,41784.2
60034.1,41783.9
60032.9,41782
60032.8,41781.7
60032.6,41781.5
60032.4,41781.2
60032.2,41780.9
60030.9,41779.1
60030.7,41778.8
60030.5,41778.6
60030.3,41778.3
60030.1,41778.1
60028.8,41776.3
60028.6,41776
60028.3,41775.8
60028.1,41775.5
60027.9,41775.3
60026.5,41773.6
60026.3,41773.3
60026,41773.1
60025.8,41772.8
60025.6,41772.6
60024,41771
60023.8,41770.7
60023.6,41770.5
60023.4,41770.3
60023.1,41770.1
60021.5,41768.5
60021.3,41768.3
60021,41768.1
60020.8,41767.8
60020.5,41767.6
60018.8,41766.2
60018.6,41765.9
60018.3,41765.7
60018.1,41765.5
60017.8,41765.3
60016,41764
60015.8,41763.7
60015.5,41763.6
60015.3,41763.4
60015,41763.2
60014.2,41762.6
60427.6,41762.6
60427.6,41762.8
60427.6,41766.5
60427.8,41768.4
60428.3,41770.1
60429.2,41771.7
60430.4,41773.2
60431.8,41774.3
60433.4,41775.2
60435.2,41775.7
60437,41775.9
60444.9,41775.9
60445.3,41775.9
60578.4,41775.9
60583.2,41776.1
60587.7,41776.8
60592,41777.9
60596.3,41779.4
60600.3,41781.3
60604.2,41783.6
60607.8,41786.3
60611.1,41789.3
60614.1,41792.6
60616.8,41796.2
60619.1,41800.1
60621,41804.1
60622.5,41808.4
60623.6,41812.7
60624.3,41817.2
60624.5,41822
60624.5,43483.8
60624.5,43484.3
60624.5,43492.1
60624.7,43494
60625.2,43495.7
60626.1,43497.3
60627.2,43498.8
60628.6,43499.9
60630.3,43500.8
60632,43501.3
60633.9,43501.5
60641.7,43501.5
60643.6,43501.3
60645.3,43500.8
60646.9,43499.9
60648.4,43498.8
60649.5,43497.3
60650.4,43495.7
60650.9,43494
60651.1,43492.1
60651.1,43484.3
60651.1,43483.8
60651.1,41822
60651.1,41821.7
60651.1,41821.3
60651.1,41821
60651,41820.7
60650.7,41814.6
60650.5,41812.7
60649.8,41808.1
60649.7,41807.5
60648,41800.7
60648,41800.7
60648,41800.7
60645.6,41794
60645.5,41793.8
60643.4,41789.3
60642.5,41787.6
60638.9,41781.5
60638.9,41781.5
60634.7,41775.8
60633.8,41774.8
60629.9,41770.5
60628.4,41769.2
60628.4,41769.2
60624.6,41765.7
60624.3,41765.5
60620.4,41762.6
61002.4,41762.6
61002.4,41762.8
61002.4,41766.5
61002.6,41768.4
61003.1,41770.1
61004,41771.7
61005.2,41773.2
61006.6,41774.3
61008.2,41775.2
61010,41775.7
61011.8,41775.9
61019.7,41775.9
61020.1,41775.9
61153.4,41775.9
61155.8,41775.9
61158,41776.1
61160.3,41776.4
61162.5,41776.7
61164.7,41777.2
61166.8,41777.8
61169,41778.5
61171.1,41779.4
61173.1,41780.3
61175.1,41781.3
61177.1,41782.4
61179,41783.6
61180.8,41784.9
61182.6,41786.3
61184.3,41787.7
61185.9,41789.3
61187.5,41790.9
61188.9,41792.6
61190.3,41794.4
61191.6,41796.2
61192.8,41798.1
61193.9,41800.1
61194.9,41802.1
61195.8,41804.1
61196.7,41806.2
61197.4,41808.4
61198,41810.5
61198.4,41812.7
61198.8,41814.9
61199.1,41817.2
61199.3,41819.4
61199.3,41821.8
61199.3,43372.8
61199.3,43373.2
61199.3,43381.1
61199.5,43382.9
61200,43384.7
61200.9,43386.3
61202,43387.7
61203.5,43388.9
61205.1,43389.8
61206.8,43390.3
61208.7,43390.5
61216.5,43390.5
61218.4,43390.3
61220.1,43389.8
61221.7,43388.9
61223.2,43387.7
61224.3,43386.3
61225.2,43384.7
61225.7,43382.9
61225.9,43381.1
61225.9,43373.2
61225.9,43372.8
61225.9,41822.1
61225.9,41822
61225.9,41821.5
61225.9,41821
61225.8,41820.8
61225.8,41818.8
61225.8,41818.4
61225.8,41818.1
61225.8,41817.8
61225.7,41817.5
61225.6,41815.2
61225.6,41814.9
61225.5,41814.6
61225.5,41814.2
61225.4,41813.9
61225.2,41811.7
61225.1,41811.4
61225.1,41811
61225,41810.7
61225,41810.4
61224.6,41808.2
61224.6,41807.9
61224.5,41807.5
61224.4,41807.2
61224.3,41806.9
61223.8,41804.7
61223.8,41804.4
61223.7,41804.1
61223.6,41803.8
61223.5,41803.4
61222.9,41801.3
61222.9,41801
61222.8,41800.7
61222.7,41800.3
61222.6,41800
61221.8,41797.9
61221.8,41797.6
61221.6,41797.3
61221.5,41797
61221.4,41796.7
61220.6,41794.6
61220.5,41794.3
61220.4,41794
61220.2,41793.7
61220.1,41793.4
61219.2,41791.3
61219.1,41791
61218.9,41790.7
61218.8,41790.4
61218.6,41790.2
61217.6,41788.1
61217.5,41787.8
61217.3,41787.6
61217.2,41787.3
61217,41787
61215.9,41785
61215.8,41784.7
61215.6,41784.5
61215.4,41784.2
61215.2,41783.9
61214,41782
61213.9,41781.7
61213.7,41781.5
61213.5,41781.2
61213.3,41780.9
61212,41779.1
61211.8,41778.8
61211.6,41778.6
61211.4,41778.3
61211.2,41778.1
61209.9,41776.3
61209.7,41776
61209.5,41775.8
61209.3,41775.5
61209,41775.3
61207.6,41773.6
61207.4,41773.3
61207.1,41773.1
61206.9,41772.8
61206.7,41772.6
61205.1,41771
61204.9,41770.7
61204.7,41770.5
61204.5,41770.3
61204.2,41770.1
61202.6,41768.5
61202.4,41768.3
61202.1,41768.1
61201.9,41767.8
61201.6,41767.6
61199.9,41766.2
61199.7,41765.9
61199.4,41765.7
61199.2,41765.5
61198.9,41765.3
61197.1,41764
61196.9,41763.7
61196.6,41763.6
61196.4,41763.4
61196.1,41763.2
61194.3,41761.9
61194,41761.7
61193.7,41761.5
61193.5,41761.3
61193.2,41761.2
61191.3,41760
61191,41759.8
61190.7,41759.6
61190.5,41759.4
61190.2,41759.3
61188.2,41758.2
61187.9,41758
61187.6,41757.9
61187.4,41757.7
61187.1,41757.6
61185,41756.6
61184.8,41756.4
61184.5,41756.3
61184.2,41756.1
61183.9,41756
61181.8,41755.1
61181.5,41754.9
61181.2,41754.8
61180.9,41754.7
61180.6,41754.6
61178.5,41753.8
61178.2,41753.7
61177.9,41753.6
61177.6,41753.4
61177.3,41753.4
61175.2,41752.6
61174.9,41752.5
61174.5,41752.4
61174.2,41752.3
61173.9,41752.3
61171.7,41751.7
61171.4,41751.6
61171.1,41751.5
61170.8,41751.4
61170.5,41751.4
61168.3,41750.9
61168,41750.8
61167.7,41750.7
61167.3,41750.6
61167,41750.6
61164.8,41750.2
61164.5,41750.1
61164.2,41750.1
61163.8,41750.1
61163.5,41750
61161.3,41749.8
61161,41749.7
61160.6,41749.7
61160.3,41749.6
61160,41749.6
61157.7,41749.5
61157.4,41749.4
61157.1,41749.4
61156.8,41749.4
61156.4,41749.4
61154.4,41749.3
61154.2,41749.3
61153.7,41749.3
61153.2,41749.3
61153.1,41749.3
61020.1,41749.3
61019.7,41749.3
61011.8,41749.3
61010,41749.5
61008.2,41750
61006.6,41750.9
61005.2,41752
61004,41753.5
61003.1,41755.1
61002.6,41756.8
61002.4,41758.7
61002.4,41762.4
61002.4,41762.6
60620.4,41762.6
60619.3,41761.8
60618.9,41761.5
60612.8,41757.9
60611.5,41757.2
60607.1,41755.2
60606.4,41754.8
60601.6,41753.1
60601.6,41753.1
60599.7,41752.4
60592.9,41750.7
60592.1,41750.6
60586.9,41749.8
60585.8,41749.7
60579.7,41749.4
60579.4,41749.3
60579.1,41749.3
60578.7,41749.3
60578.4,41749.3
60445.3,41749.3
60444.9,41749.3
60437,41749.3
60435.2,41749.5
60433.4,41750
60431.8,41750.9
60430.4,41752
60429.2,41753.5
60428.3,41755.1
60427.8,41756.8
60427.6,41758.7
60427.6,41762.4
60427.6,41762.6
60014.2,41762.6
60013.2,41761.9
60012.9,41761.7
60012.6,41761.5
60012.4,41761.3
60012.1,41761.2
60010.2,41760
60009.9,41759.8
60009.6,41759.6
60009.3,41759.4
60009.1,41759.3
60007.1,41758.2
60006.8,41758
60006.5,41757.9
60006.3,41757.7
60006,41757.6
60003.9,41756.6
60003.7,41756.4
60003.4,41756.3
60003.1,41756.1
60002.8,41756
60000.7,41755.1
60000.4,41754.9
60000.1,41754.8
59999.8,41754.7
59999.5,41754.6
59997.4,41753.8
59997.1,41753.7
59996.8,41753.6
59996.5,41753.4
59996.2,41753.4
59994.1,41752.6
59993.7,41752.5
59993.4,41752.4
59993.1,41752.3
59992.8,41752.3
59990.6,41751.7
59990.3,41751.6
59990,41751.5
59989.7,41751.4
59989.4,41751.4
59987.2,41750.9
59986.9,41750.8
59986.6,41750.7
59986.2,41750.6
59985.9,41750.6
59983.7,41750.2
59983.4,41750.1
59983.1,41750.1
59982.7,41750.1
59982.4,41750
59980.2,41749.8
59979.9,41749.7
59979.5,41749.7
59979.2,41749.6
59978.9,41749.6
59976.6,41749.5
59976.3,41749.4
59976,41749.4
59975.7,41749.4
59975.3,41749.4
59973.3,41749.3
59973.1,41749.3
59972.6,41749.3
59972.1,41749.3
59972,41749.3
59839,41749.3
59838.6,41749.3
59830.7,41749.3
59828.9,41749.5
59827.1,41750
59825.5,41750.9
59824.1,41752
59822.9,41753.5
59822,41755.1
59821.5,41756.8
59821.3,41758.7
59821.3,41762.4
59821.3,41762.6
59423.2,41762.6
59422.2,41761.9
59422,41761.7
59421.7,41761.5
59421.4,41761.3
59421.1,41761.2
59419.2,41760
59419,41759.8
59418.7,41759.6
59418.4,41759.4
59418.1,41759.3
59416.2,41758.2
59415.9,41758
59415.6,41757.9
59415.3,41757.7
59415,41757.6
59413,41756.6
59412.7,41756.4
59412.4,41756.3
59412.1,41756.1
59411.8,41756
59409.8,41755.1
59409.5,41754.9
59409.2,41754.8
59408.9,41754.7
59408.6,41754.6
59406.5,41753.8
59406.2,41753.7
59405.9,41753.6
59405.6,41753.4
59405.2,41753.4
59403.1,41752.6
59402.8,41752.5
59402.5,41752.4
59402.2,41752.3
59401.9,41752.3
59399.7,41751.7
59399.4,41751.6
59399.1,41751.5
59398.8,41751.4
59398.4,41751.4
59396.2,41750.9
59395.9,41750.8
59395.6,41750.7
59395.3,41750.6
59395,41750.6
59392.7,41750.2
59392.4,41750.1
59392.1,41750.1
59391.8,41750.1
59391.5,41750
59389.2,41749.8
59388.9,41749.7
59388.6,41749.7
59388.3,41749.6
59387.9,41749.6
59385.7,41749.5
59385.4,41749.4
59385,41749.4
59384.7,41749.4
59384.4,41749.4
59382.3,41749.3
59382.1,41749.3
59381.7,41749.3
59381.2,41749.3
59381,41749.3
59248.1,41749.3
59247.6,41749.3
59239.8,41749.3
59237.9,41749.5
59236.2,41750
59234.6,41750.9
59233.1,41752
59232,41753.5
59231.1,41755.1
59230.6,41756.8
59230.4,41758.7
59230.4,41762.4
59230.4,41762.6
58449.4,41762.6
58461.4,41749
58462.5,41749.1
62009.9,41749.1
62011.8,41748.9
Z" /> 
<path style="fill:#000000; fill-opacity:1.0; 
stroke:#000000; stroke-width:10; stroke-opacity:1; 
stroke-linecap:round; stroke-linejoin:round;fill-rule:evenodd;"
d="M 62187.9,41625.4
62092.9,41625.3
62091.9,41625.4
62091,41625.7
62090.1,41626.2
62089.2,41627
62011.8,41714.1
62009.9,41713.9
58462.5,41713.9
58461.1,41714
58383.7,41627
58382.9,41626.3
58382.1,41625.8
58381.2,41625.5
58379.9,41625.3
58284.5,41625.2
58284.5,40961.7
62187.9,40961.7
Z" /> 
</g>
</g> 
</svg>
