  0
SECTION
  2
HEADER
  9
$ANGBASE
  50
0.0
  9
$ANGDIR
  70
1
  9
$MEASUREMENT
  70
1
  0
ENDSEC
  0
SECTION
  2
TABLES
  0
TABLE
  2
LTYPE
  70
4
  0
LTYPE
  5
40F
  2
CONTINUOUS
  70
0
  3
Solid line
  72
65
  73
0
  40
0.0
  0
LTYPE
  5
410
  2
DASHDOT
 70
0
  3
Dash Dot ____ _ ____ _
 72
65
 73
4
 40
2.0
 49
1.25
 49
-0.25
 49
0.25
 49
-0.25
  0
LTYPE
  5
411
  2
DASHED
 70
0
  3
Dashed __ __ __ __ __
 72
65
 73
2
 40
0.75
 49
0.5
 49
-0.25
  0
LTYPE
  5
43B
  2
DOTTED
 70
0
  3
Dotted .  .  .  .
 72
65
 73
2
 40
0.2
 49
0.0
 49
-0.2
  0
ENDTAB
  0
TABLE
  2
STYLE
  70
4
  0
STYLE
  2
KICAD
  70
0
  40
0
  41
1
  42
1
  50
0
  71
0
  3
isocp.shx
  0
STYLE
  2
KICADB
  70
0
  40
0
  41
1
  42
1
  50
0
  71
0
  3
isocp.shx
  0
STYLE
  2
KICADI
  70
0
  40
0
  41
1
  42
1
  50
15
  71
0
  3
isocp.shx
  0
STYLE
  2
KICADBI
  70
0
  40
0
  41
1
  42
1
  50
15
  71
0
  3
isocp.shx
  0
ENDTAB
  0
TABLE
  2
LAYER
  70
1
  0
LAYER
  2
BLACK
  70
0
  62
7
  6
CONTINUOUS
  0
ENDTAB
  0
ENDSEC
  0
SECTION
  2
ENTITIES
0
LINE
8
BLACK
6
CONTINUOUS
10
158.001
20
-103.975
11
158.001
21
-103.975
0
LINE
8
BLACK
6
CONTINUOUS
10
158.001
20
-103.975
11
158.005
21
-103.975
0
LINE
8
BLACK
6
CONTINUOUS
10
158.005
20
-103.975
11
158.01
21
-103.977
0
LINE
8
BLACK
6
CONTINUOUS
10
158.01
20
-103.977
11
158.014
21
-103.979
0
LINE
8
BLACK
6
CONTINUOUS
10
158.014
20
-103.979
11
158.018
21
-103.982
0
LINE
8
BLACK
6
CONTINUOUS
10
158.018
20
-103.982
11
158.021
21
-103.986
0
LINE
8
BLACK
6
CONTINUOUS
10
158.021
20
-103.986
11
158.023
21
-103.99
0
LINE
8
BLACK
6
CONTINUOUS
10
158.023
20
-103.99
11
158.025
21
-103.995
0
LINE
8
BLACK
6
CONTINUOUS
10
158.025
20
-103.995
11
158.025
21
-104
0
LINE
8
BLACK
6
CONTINUOUS
10
158.025
20
-104
11
158.025
21
-104.001
0
LINE
8
BLACK
6
CONTINUOUS
10
158.025
20
-104.001
11
158.025
21
-111.999
0
LINE
8
BLACK
6
CONTINUOUS
10
158.025
20
-111.999
11
158.025
21
-112
0
LINE
8
BLACK
6
CONTINUOUS
10
158.025
20
-112
11
158.025
21
-112.001
0
LINE
8
BLACK
6
CONTINUOUS
10
158.025
20
-112.001
11
158.025
21
-112.001
0
LINE
8
BLACK
6
CONTINUOUS
10
158.025
20
-112.001
11
158.025
21
-112.005
0
LINE
8
BLACK
6
CONTINUOUS
10
158.025
20
-112.005
11
158.023
21
-112.01
0
LINE
8
BLACK
6
CONTINUOUS
10
158.023
20
-112.01
11
158.021
21
-112.014
0
LINE
8
BLACK
6
CONTINUOUS
10
158.021
20
-112.014
11
158.018
21
-112.018
0
LINE
8
BLACK
6
CONTINUOUS
10
158.018
20
-112.018
11
158.014
21
-112.021
0
LINE
8
BLACK
6
CONTINUOUS
10
158.014
20
-112.021
11
158.01
21
-112.023
0
LINE
8
BLACK
6
CONTINUOUS
10
158.01
20
-112.023
11
158.005
21
-112.025
0
LINE
8
BLACK
6
CONTINUOUS
10
158.005
20
-112.025
11
158
21
-112.025
0
LINE
8
BLACK
6
CONTINUOUS
10
158
20
-112.025
11
157.999
21
-112.025
0
LINE
8
BLACK
6
CONTINUOUS
10
157.999
20
-112.025
11
148.001
21
-112.025
0
LINE
8
BLACK
6
CONTINUOUS
10
148.001
20
-112.025
11
148
21
-112.025
0
LINE
8
BLACK
6
CONTINUOUS
10
148
20
-112.025
11
147.995
21
-112.025
0
LINE
8
BLACK
6
CONTINUOUS
10
147.995
20
-112.025
11
147.99
21
-112.023
0
LINE
8
BLACK
6
CONTINUOUS
10
147.99
20
-112.023
11
147.986
21
-112.021
0
LINE
8
BLACK
6
CONTINUOUS
10
147.986
20
-112.021
11
147.982
21
-112.018
0
LINE
8
BLACK
6
CONTINUOUS
10
147.982
20
-112.018
11
147.979
21
-112.014
0
LINE
8
BLACK
6
CONTINUOUS
10
147.979
20
-112.014
11
147.977
21
-112.01
0
LINE
8
BLACK
6
CONTINUOUS
10
147.977
20
-112.01
11
147.975
21
-112.005
0
LINE
8
BLACK
6
CONTINUOUS
10
147.975
20
-112.005
11
147.975
21
-112
0
LINE
8
BLACK
6
CONTINUOUS
10
147.975
20
-112
11
147.975
21
-111.999
0
LINE
8
BLACK
6
CONTINUOUS
10
147.975
20
-111.999
11
147.975
21
-104.001
0
LINE
8
BLACK
6
CONTINUOUS
10
147.975
20
-104.001
11
147.975
21
-104
0
LINE
8
BLACK
6
CONTINUOUS
10
147.975
20
-104
11
147.975
21
-103.995
0
LINE
8
BLACK
6
CONTINUOUS
10
147.975
20
-103.995
11
147.977
21
-103.99
0
LINE
8
BLACK
6
CONTINUOUS
10
147.977
20
-103.99
11
147.979
21
-103.986
0
LINE
8
BLACK
6
CONTINUOUS
10
147.979
20
-103.986
11
147.982
21
-103.982
0
LINE
8
BLACK
6
CONTINUOUS
10
147.982
20
-103.982
11
147.986
21
-103.979
0
LINE
8
BLACK
6
CONTINUOUS
10
147.986
20
-103.979
11
147.99
21
-103.977
0
LINE
8
BLACK
6
CONTINUOUS
10
147.99
20
-103.977
11
147.995
21
-103.975
0
LINE
8
BLACK
6
CONTINUOUS
10
147.995
20
-103.975
11
147.999
21
-103.975
0
LINE
8
BLACK
6
CONTINUOUS
10
147.999
20
-103.975
11
147.999
21
-103.975
0
LINE
8
BLACK
6
CONTINUOUS
10
147.999
20
-103.975
11
148
21
-103.975
0
LINE
8
BLACK
6
CONTINUOUS
10
148
20
-103.975
11
148.001
21
-103.975
0
LINE
8
BLACK
6
CONTINUOUS
10
148.001
20
-103.975
11
157.999
21
-103.975
0
LINE
8
BLACK
6
CONTINUOUS
10
157.999
20
-103.975
11
158
21
-103.975
0
LINE
8
BLACK
6
CONTINUOUS
10
158
20
-103.975
11
158.001
21
-103.975
0
LINE
8
BLACK
6
CONTINUOUS
10
148.025
20
-104.025
11
148.025
21
-111.975
0
LINE
8
BLACK
6
CONTINUOUS
10
148.025
20
-111.975
11
157.975
21
-111.975
0
LINE
8
BLACK
6
CONTINUOUS
10
157.975
20
-111.975
11
157.975
21
-104.025
0
LINE
8
BLACK
6
CONTINUOUS
10
157.975
20
-104.025
11
148.025
21
-104.025
  0
ENDSEC
  0
EOF
